<?xml version="1.0" encoding="utf-8" standalone="no"?>
<!DOCTYPE svg PUBLIC "-//W3C//DTD SVG 1.1//EN"
  "http://www.w3.org/Graphics/SVG/1.1/DTD/svg11.dtd">
<!-- Created with matplotlib (https://matplotlib.org/) -->
<svg height="360pt" version="1.1" viewBox="0 0 360 360" width="360pt" xmlns="http://www.w3.org/2000/svg" xmlns:xlink="http://www.w3.org/1999/xlink">
 <defs>
  <style type="text/css">
*{stroke-linecap:butt;stroke-linejoin:round;white-space:pre;}
  </style>
 </defs>
 <g id="figure_1">
  <g id="patch_1">
   <path d="M 0 360 
L 360 360 
L 360 0 
L 0 0 
z
" style="fill:#ffffff;"/>
  </g>
  <g id="axes_1">
   <g id="patch_2">
    <path d="M 45 315 
L 324 315 
L 324 43.2 
L 45 43.2 
z
" style="fill:#ffffff;"/>
   </g>
   <g id="matplotlib.axis_1">
    <g id="xtick_1">
     <g id="text_1">
      <text style="fill:#262626;font-family:DejaVu Sans;font-size:22px;font-style:normal;font-weight:normal;text-anchor:middle;" transform="rotate(-0, 45, 341.216563)" x="45" y="341.216563">−5.0</text>
     </g>
    </g>
    <g id="xtick_2">
     <g id="text_2">
      <text style="fill:#262626;font-family:DejaVu Sans;font-size:22px;font-style:normal;font-weight:normal;text-anchor:middle;" transform="rotate(-0, 114.75, 341.216563)" x="114.75" y="341.216563">−2.5</text>
     </g>
    </g>
    <g id="xtick_3">
     <g id="text_3">
      <text style="fill:#262626;font-family:DejaVu Sans;font-size:22px;font-style:normal;font-weight:normal;text-anchor:middle;" transform="rotate(-0, 184.5, 341.216563)" x="184.5" y="341.216563">0.0</text>
     </g>
    </g>
    <g id="xtick_4">
     <g id="text_4">
      <text style="fill:#262626;font-family:DejaVu Sans;font-size:22px;font-style:normal;font-weight:normal;text-anchor:middle;" transform="rotate(-0, 254.25, 341.216563)" x="254.25" y="341.216563">2.5</text>
     </g>
    </g>
    <g id="xtick_5">
     <g id="text_5">
      <text style="fill:#262626;font-family:DejaVu Sans;font-size:22px;font-style:normal;font-weight:normal;text-anchor:middle;" transform="rotate(-0, 324, 341.216563)" x="324" y="341.216563">5.0</text>
     </g>
    </g>
    <g id="text_6">
     <text style="fill:#262626;font-family:DejaVu Sans;font-size:24px;font-style:normal;font-weight:normal;text-anchor:middle;" transform="rotate(-0, 184.5, 368.028125)" x="184.5" y="368.028125">Z-score normalized effect (ref/alt)</text>
    </g>
   </g>
   <g id="matplotlib.axis_2">
    <g id="ytick_1">
     <g id="text_7">
      <text style="fill:#262626;font-family:DejaVu Sans;font-size:22px;font-style:normal;font-weight:normal;text-anchor:end;" transform="rotate(-0, 35.5, 323.358281)" x="35.5" y="323.358281">0.0</text>
     </g>
    </g>
    <g id="ytick_2">
     <g id="text_8">
      <text style="fill:#262626;font-family:DejaVu Sans;font-size:22px;font-style:normal;font-weight:normal;text-anchor:end;" transform="rotate(-0, 35.5, 263.808922)" x="35.5" y="263.808922">0.2</text>
     </g>
    </g>
    <g id="ytick_3">
     <g id="text_9">
      <text style="fill:#262626;font-family:DejaVu Sans;font-size:22px;font-style:normal;font-weight:normal;text-anchor:end;" transform="rotate(-0, 35.5, 204.259563)" x="35.5" y="204.259563">0.4</text>
     </g>
    </g>
    <g id="ytick_4">
     <g id="text_10">
      <text style="fill:#262626;font-family:DejaVu Sans;font-size:22px;font-style:normal;font-weight:normal;text-anchor:end;" transform="rotate(-0, 35.5, 144.710204)" x="35.5" y="144.710204">0.6</text>
     </g>
    </g>
    <g id="ytick_5">
     <g id="text_11">
      <text style="fill:#262626;font-family:DejaVu Sans;font-size:22px;font-style:normal;font-weight:normal;text-anchor:end;" transform="rotate(-0, 35.5, 85.160845)" x="35.5" y="85.160845">0.8</text>
     </g>
    </g>
   </g>
   <g id="patch_3">
    <path clip-path="url(#p0372792ee1)" d="M -1 314.919719 
L 20.484708 314.909683 
L 20.484708 314.804314 
L 52.824932 314.779226 
L 52.824932 314.678875 
L 72.588403 314.583541 
L 72.588403 314.518312 
L 82.470138 314.453083 
L 82.470138 314.387855 
L 85.165157 314.367784 
L 85.165157 314.27245 
L 92.351873 314.212239 
L 92.351873 314.152028 
L 95.046892 314.141993 
L 95.046892 314.006518 
L 98.64025 313.911184 
L 98.64025 313.81585 
L 105.826967 313.740586 
L 105.826967 313.685393 
L 106.725306 313.685393 
L 106.725306 313.409426 
L 109.420325 313.389356 
L 109.420325 313.233811 
L 113.013683 313.258898 
L 113.013683 313.078265 
L 114.810362 313.04816 
L 114.810362 312.887597 
L 115.708702 312.887597 
L 115.708702 312.641736 
L 117.505381 312.696929 
L 117.505381 312.451067 
L 119.30206 312.496226 
L 119.30206 312.235311 
L 121.098739 312.220259 
L 121.098739 312.089801 
L 121.997079 312.089801 
L 121.997079 311.507762 
L 122.895418 311.507762 
L 122.895418 311.643237 
L 123.793758 311.643237 
L 123.793758 311.231795 
L 125.590437 311.302041 
L 125.590437 311.071232 
L 126.488777 311.071232 
L 126.488777 310.433999 
L 127.387116 310.433999 
L 127.387116 310.208208 
L 129.183795 310.142979 
L 129.183795 310.459087 
L 130.082135 310.459087 
L 130.082135 309.771678 
L 130.980475 309.771678 
L 130.980475 309.124409 
L 132.777154 309.194656 
L 132.777154 308.58251 
L 133.675493 308.58251 
L 133.675493 308.196157 
L 134.573833 308.196157 
L 134.573833 307.9804 
L 135.472172 307.9804 
L 135.472172 307.23278 
L 136.370512 307.23278 
L 136.370512 306.660776 
L 138.167191 306.585512 
L 138.167191 306.199158 
L 139.065531 306.199158 
L 139.065531 305.702417 
L 139.96387 305.702417 
L 139.96387 304.523285 
L 140.86221 304.523285 
L 140.86221 303.805771 
L 141.760549 303.805771 
L 141.760549 303.419417 
L 142.658889 303.419417 
L 142.658889 302.651727 
L 143.557229 302.651727 
L 143.557229 302.205162 
L 144.455568 302.205162 
L 144.455568 300.5895 
L 146.252247 300.579464 
L 146.252247 299.269875 
L 147.150587 299.269875 
L 147.150587 297.885022 
L 148.048926 297.885022 
L 148.048926 297.01698 
L 148.947266 297.01698 
L 148.947266 295.883006 
L 149.845605 295.883006 
L 149.845605 294.121834 
L 150.743945 294.121834 
L 150.743945 293.88099 
L 151.642285 293.88099 
L 151.642285 292.450979 
L 152.540624 292.450979 
L 152.540624 289.656185 
L 153.438964 289.656185 
L 153.438964 288.893512 
L 154.337303 288.893512 
L 154.337303 286.38472 
L 155.235643 286.38472 
L 155.235643 285.571872 
L 156.133982 285.571872 
L 156.133982 283.765541 
L 157.032322 283.765541 
L 157.032322 280.970747 
L 157.930662 280.970747 
L 157.930662 278.717852 
L 158.829001 278.717852 
L 158.829001 276.615485 
L 159.727341 276.615485 
L 159.727341 272.72184 
L 160.62568 272.72184 
L 160.62568 271.567796 
L 161.52402 271.567796 
L 161.52402 267.724326 
L 162.422359 267.724326 
L 162.422359 263.775488 
L 163.320699 263.775488 
L 163.320699 259.821632 
L 164.219039 259.821632 
L 164.219039 256.304306 
L 165.117378 256.304306 
L 165.117378 251.452302 
L 166.015718 251.452302 
L 166.015718 247.393077 
L 166.914057 247.393077 
L 166.914057 242.63139 
L 167.812397 242.63139 
L 167.812397 235.677019 
L 168.710736 235.677019 
L 168.710736 228.732684 
L 169.609076 228.732684 
L 169.609076 221.878664 
L 170.507416 221.878664 
L 170.507416 214.974469 
L 171.405755 214.974469 
L 171.405755 205.355761 
L 172.304095 205.355761 
L 172.304095 196.569972 
L 173.202434 196.569972 
L 173.202434 188.772647 
L 174.100774 188.772647 
L 174.100774 175.606507 
L 174.999113 175.606507 
L 174.999113 165.88243 
L 175.897453 165.88243 
L 175.897453 152.089093 
L 176.795793 152.089093 
L 176.795793 142.269681 
L 177.694132 142.269681 
L 177.694132 128.265605 
L 178.592472 128.265605 
L 178.592472 114.843569 
L 179.490811 114.843569 
L 179.490811 104.296608 
L 180.389151 104.296608 
L 180.389151 92.89164 
L 181.28749 92.89164 
L 181.28749 81.662288 
L 182.18583 81.662288 
L 182.18583 76.444001 
L 183.08417 76.444001 
L 183.08417 70.327566 
L 183.982509 70.327566 
L 183.982509 56.142857 
L 184.880849 56.142857 
L 184.880849 66.734976 
L 185.779188 66.734976 
L 185.779188 69.459524 
L 186.677528 69.459524 
L 186.677528 72.113826 
L 187.575867 72.113826 
L 187.575867 78.742054 
L 188.474207 78.742054 
L 188.474207 86.082779 
L 189.372547 86.082779 
L 189.372547 95.897173 
L 190.270886 95.897173 
L 190.270886 106.303641 
L 191.169226 106.303641 
L 191.169226 119.208867 
L 192.067565 119.208867 
L 192.067565 127.091491 
L 192.965905 127.091491 
L 192.965905 138.170315 
L 193.864244 138.170315 
L 193.864244 148.350993 
L 194.762584 148.350993 
L 194.762584 161.587379 
L 195.660923 161.587379 
L 195.660923 169.6406 
L 196.559263 169.6406 
L 196.559263 181.43694 
L 197.457603 181.43694 
L 197.457603 189.344652 
L 198.355942 189.344652 
L 198.355942 196.529831 
L 199.254282 196.529831 
L 199.254282 205.616675 
L 200.152621 205.616675 
L 200.152621 213.163121 
L 201.050961 213.163121 
L 201.050961 219.966965 
L 201.9493 219.966965 
L 201.9493 225.531465 
L 202.84764 225.531465 
L 202.84764 232.410572 
L 203.74598 232.410572 
L 203.74598 237.001661 
L 204.644319 237.001661 
L 204.644319 243.775399 
L 205.542659 243.775399 
L 205.542659 247.26262 
L 206.440998 247.26262 
L 206.440998 252.209958 
L 207.339338 252.209958 
L 207.339338 255.647002 
L 208.237677 255.647002 
L 208.237677 258.632465 
L 209.136017 258.632465 
L 209.136017 263.233589 
L 210.034357 263.233589 
L 210.034357 265.988242 
L 210.932696 265.988242 
L 210.932696 269.89694 
L 211.831036 269.89694 
L 211.831036 272.390679 
L 212.729375 272.390679 
L 212.729375 274.643574 
L 213.627715 274.643574 
L 213.627715 276.525168 
L 214.526054 276.525168 
L 214.526054 279.851826 
L 215.424394 279.851826 
L 215.424394 281.096187 
L 216.322734 281.096187 
L 216.322734 284.14186 
L 217.221073 284.14186 
L 217.221073 284.784111 
L 218.119413 284.784111 
L 218.119413 287.960241 
L 219.017752 287.960241 
L 219.017752 288.818248 
L 219.916092 288.818248 
L 219.916092 290.428893 
L 220.814431 290.428893 
L 220.814431 291.899045 
L 221.712771 291.899045 
L 221.712771 293.083194 
L 222.611111 293.083194 
L 222.611111 294.708892 
L 223.50945 294.708892 
L 223.50945 295.682303 
L 224.40779 295.682303 
L 224.40779 296.570415 
L 225.306129 296.570415 
L 225.306129 297.985374 
L 226.204469 297.985374 
L 226.204469 298.462044 
L 227.102808 298.462044 
L 227.102808 299.671282 
L 228.001148 299.671282 
L 228.001148 300.358691 
L 228.899488 300.358691 
L 228.899488 301.417401 
L 229.797827 301.417401 
L 229.797827 301.718456 
L 230.696167 301.718456 
L 230.696167 302.420918 
L 231.594506 302.420918 
L 231.594506 303.705419 
L 232.492846 303.705419 
L 232.492846 304.267388 
L 233.391185 304.267388 
L 233.391185 304.764129 
L 235.187865 304.65876 
L 235.187865 305.662277 
L 236.086204 305.662277 
L 236.086204 306.389826 
L 236.984544 306.389826 
L 236.984544 306.650741 
L 237.882883 306.650741 
L 237.882883 306.304527 
L 238.781223 306.304527 
L 238.781223 307.323097 
L 239.679562 307.323097 
L 239.679562 307.759627 
L 241.476241 307.839908 
L 241.476241 308.055664 
L 242.374581 308.055664 
L 242.374581 309.01904 
L 243.272921 309.01904 
L 243.272921 308.878548 
L 244.17126 308.878548 
L 244.17126 309.395359 
L 245.967939 309.430482 
L 245.967939 309.701432 
L 246.866279 309.701432 
L 246.866279 309.545887 
L 247.764618 309.545887 
L 247.764618 310.067715 
L 249.561298 310.127926 
L 249.561298 310.288489 
L 250.459637 310.288489 
L 250.459637 310.519298 
L 251.357977 310.519298 
L 251.357977 310.745089 
L 252.256316 310.745089 
L 252.256316 311.026074 
L 255.849675 311.066214 
L 255.849675 311.547902 
L 257.646354 311.547902 
L 257.646354 311.668324 
L 258.544693 311.668324 
L 258.544693 311.818852 
L 259.443033 311.818852 
L 259.443033 311.959344 
L 260.341372 311.959344 
L 260.341372 312.165065 
L 262.138052 312.119907 
L 262.138052 312.415944 
L 263.036391 312.415944 
L 263.036391 312.265417 
L 263.934731 312.265417 
L 263.934731 312.566472 
L 264.83307 312.566472 
L 264.83307 312.441032 
L 266.629749 312.551419 
L 266.629749 312.656788 
L 268.426429 312.616648 
L 268.426429 312.511278 
L 269.324768 312.511278 
L 269.324768 312.701947 
L 270.223108 312.701947 
L 270.223108 312.992967 
L 271.121447 312.992967 
L 271.121447 312.847457 
L 272.019787 312.847457 
L 272.019787 312.982931 
L 273.816466 313.018054 
L 273.816466 313.158547 
L 275.613145 313.088301 
L 275.613145 312.88258 
L 276.511485 312.88258 
L 276.511485 313.304057 
L 278.308164 313.289004 
L 278.308164 312.947808 
L 279.206503 312.947808 
L 279.206503 313.404408 
L 280.104843 313.404408 
L 280.104843 313.148512 
L 281.003183 313.148512 
L 281.003183 313.319109 
L 282.799862 313.419461 
L 282.799862 313.564971 
L 286.39322 313.660305 
L 286.39322 313.700446 
L 287.29156 313.700446 
L 287.29156 313.569989 
L 289.986578 313.605112 
L 289.986578 313.690411 
L 291.783257 313.675358 
L 291.783257 313.881079 
L 293.579936 313.876061 
L 293.579936 313.735569 
L 294.478276 313.735569 
L 294.478276 313.871044 
L 298.969974 313.855991 
L 298.969974 314.041642 
L 305.258351 314.091817 
L 305.258351 313.840938 
L 306.15669 313.840938 
L 306.15669 314.041642 
L 309.750049 314.041642 
L 309.750049 314.157046 
L 321.428463 314.167081 
L 321.428463 314.39789 
L 322.326803 314.39789 
L 322.326803 314.141993 
L 323.225142 314.141993 
L 323.225142 314.302556 
L 337.598575 314.317609 
L 337.598575 314.473154 
L 355.565367 314.553435 
L 355.565367 314.603611 
L 361 314.493224 
L 361 314.493224 
" style="fill:none;stroke:#6b97ff;stroke-linejoin:miter;stroke-width:2;"/>
   </g>
   <g id="patch_4">
    <path clip-path="url(#p0372792ee1)" d="M -1 314.894448 
L 26.491968 314.808088 
L 26.491968 314.760109 
L 49.88778 314.697738 
L 49.88778 314.644962 
L 61.585686 314.563399 
L 61.585686 314.49623 
L 74.183431 314.395476 
L 74.183431 314.237148 
L 76.882948 314.29952 
L 76.882948 314.376285 
L 78.682626 314.371487 
L 78.682626 314.251542 
L 84.981498 314.193968 
L 84.981498 314.045236 
L 90.380532 314.021247 
L 90.380532 313.920493 
L 95.779565 313.814941 
L 95.779565 313.766963 
L 100.27876 313.680602 
L 100.27876 313.48869 
L 103.878116 313.431116 
L 103.878116 313.330362 
L 106.577632 313.426318 
L 106.577632 313.196023 
L 107.477471 313.196023 
L 107.477471 313.311171 
L 108.37731 313.311171 
L 108.37731 313.076078 
L 112.876505 313.090471 
L 112.876505 312.716242 
L 114.676183 312.697051 
L 114.676183 312.557914 
L 116.47586 312.605893 
L 116.47586 312.346811 
L 118.275538 312.246057 
L 118.275538 312.169292 
L 119.175377 312.169292 
L 119.175377 311.986975 
L 121.874894 311.95339 
L 121.874894 311.766276 
L 122.774733 311.766276 
L 122.774733 311.545576 
L 124.574411 311.598352 
L 124.574411 311.046604 
L 126.374088 311.051402 
L 126.374088 310.90267 
L 127.273927 310.90267 
L 127.273927 310.74914 
L 128.173766 310.74914 
L 128.173766 310.163807 
L 129.073605 310.163807 
L 129.073605 310.346124 
L 129.973444 310.346124 
L 129.973444 310.005479 
L 130.873283 310.005479 
L 130.873283 309.842354 
L 131.773122 309.842354 
L 131.773122 309.453731 
L 133.5728 309.463327 
L 133.5728 309.012333 
L 134.472639 309.012333 
L 134.472639 308.412606 
L 136.272317 308.455787 
L 136.272317 307.832071 
L 137.172156 307.832071 
L 137.172156 307.525011 
L 138.071994 307.525011 
L 138.071994 307.107602 
L 138.971833 307.107602 
L 138.971833 306.512673 
L 139.871672 306.512673 
L 139.871672 306.061679 
L 140.771511 306.061679 
L 140.771511 305.375592 
L 141.67135 305.375592 
L 141.67135 304.943789 
L 142.571189 304.943789 
L 142.571189 304.368052 
L 143.471028 304.368052 
L 143.471028 303.106228 
L 144.370867 303.106228 
L 144.370867 302.880731 
L 145.270706 302.880731 
L 145.270706 301.892382 
L 146.170545 301.892382 
L 146.170545 301.076754 
L 147.070384 301.076754 
L 147.070384 300.270722 
L 147.970223 300.270722 
L 147.970223 299.392723 
L 148.870061 299.392723 
L 148.870061 297.847828 
L 149.7699 297.847828 
L 149.7699 296.581206 
L 150.669739 296.581206 
L 150.669739 295.602452 
L 151.569578 295.602452 
L 151.569578 294.05276 
L 152.469417 294.05276 
L 152.469417 292.148029 
L 153.369256 292.148029 
L 153.369256 290.272085 
L 154.269095 290.272085 
L 154.269095 288.535277 
L 155.168934 288.535277 
L 155.168934 286.246722 
L 156.068773 286.246722 
L 156.068773 283.86221 
L 156.968612 283.86221 
L 156.968612 281.880714 
L 157.868451 281.880714 
L 157.868451 278.781329 
L 158.76829 278.781329 
L 158.76829 275.806686 
L 159.668129 275.806686 
L 159.668129 273.537322 
L 160.567967 273.537322 
L 160.567967 270.461925 
L 161.467806 270.461925 
L 161.467806 266.283033 
L 162.367645 266.283033 
L 162.367645 261.307703 
L 163.267484 261.307703 
L 163.267484 257.397488 
L 164.167323 257.397488 
L 164.167323 252.83477 
L 165.067162 252.83477 
L 165.067162 248.655877 
L 165.967001 248.655877 
L 165.967001 242.922493 
L 166.86684 242.922493 
L 166.86684 237.337842 
L 167.766679 237.337842 
L 167.766679 232.58801 
L 168.666518 232.58801 
L 168.666518 224.551677 
L 169.566357 224.551677 
L 169.566357 217.201432 
L 170.466196 217.201432 
L 170.466196 209.846388 
L 171.366034 209.846388 
L 171.366034 200.927258 
L 172.265873 200.927258 
L 172.265873 194.392641 
L 173.165712 194.392641 
L 173.165712 185.569467 
L 174.065551 185.569467 
L 174.065551 177.269255 
L 174.96539 177.269255 
L 174.96539 168.705163 
L 175.865229 168.705163 
L 175.865229 159.867597 
L 176.765068 159.867597 
L 176.765068 150.267178 
L 177.664907 150.267178 
L 177.664907 141.856616 
L 178.564746 141.856616 
L 178.564746 134.736665 
L 179.464585 134.736665 
L 179.464585 122.574216 
L 180.364424 122.574216 
L 180.364424 115.372702 
L 181.264263 115.372702 
L 181.264263 108.161593 
L 182.164102 108.161593 
L 182.164102 103.949116 
L 183.06394 103.949116 
L 183.06394 95.836018 
L 183.963779 95.836018 
L 183.963779 89.790777 
L 184.863618 89.790777 
L 184.863618 86.892899 
L 185.763457 86.892899 
L 185.763457 85.098518 
L 186.663296 85.098518 
L 186.663296 83.217777 
L 187.563135 83.217777 
L 187.563135 85.741425 
L 188.462974 85.741425 
L 188.462974 88.845608 
L 189.362813 88.845608 
L 189.362813 90.294547 
L 190.262652 90.294547 
L 190.262652 95.255483 
L 191.162491 95.255483 
L 191.162491 103.263029 
L 192.06233 103.263029 
L 192.06233 110.526914 
L 192.962169 110.526914 
L 192.962169 118.879902 
L 193.862007 118.879902 
L 193.862007 130.313084 
L 194.761846 130.313084 
L 194.761846 138.853187 
L 195.661685 138.853187 
L 195.661685 150.094457 
L 196.561524 150.094457 
L 196.561524 158.860056 
L 197.461363 158.860056 
L 197.461363 167.846355 
L 198.361202 167.846355 
L 198.361202 178.9245 
L 199.261041 178.9245 
L 199.261041 188.74082 
L 200.16088 188.74082 
L 200.16088 196.858715 
L 201.060719 196.858715 
L 201.060719 206.080107 
L 201.960558 206.080107 
L 201.960558 214.807324 
L 202.860397 214.807324 
L 202.860397 221.879297 
L 203.760236 221.879297 
L 203.760236 228.908089 
L 204.660075 228.908089 
L 204.660075 233.744282 
L 205.559913 233.744282 
L 205.559913 242.337161 
L 206.459752 242.337161 
L 206.459752 247.609954 
L 207.359591 247.609954 
L 207.359591 252.57089 
L 208.25943 252.57089 
L 208.25943 257.637378 
L 209.159269 257.637378 
L 209.159269 261.619561 
L 210.059108 261.619561 
L 210.059108 265.755273 
L 210.958947 265.755273 
L 210.958947 270.586669 
L 211.858786 270.586669 
L 211.858786 273.580502 
L 212.758625 273.580502 
L 212.758625 276.339243 
L 213.658464 276.339243 
L 213.658464 279.131569 
L 214.558303 279.131569 
L 214.558303 281.904703 
L 215.458142 281.904703 
L 215.458142 284.222046 
L 216.35798 284.222046 
L 216.35798 285.738154 
L 217.257819 285.738154 
L 217.257819 288.084283 
L 218.157658 288.084283 
L 218.157658 289.873867 
L 219.057497 289.873867 
L 219.057497 292.311154 
L 219.957336 292.311154 
L 219.957336 293.918421 
L 220.857175 293.918421 
L 220.857175 294.455776 
L 221.757014 294.455776 
L 221.757014 295.818354 
L 222.656853 295.818354 
L 222.656853 296.739533 
L 223.556692 296.739533 
L 223.556692 298.049336 
L 224.456531 298.049336 
L 224.456531 299.085663 
L 225.35637 299.085663 
L 225.35637 300.093203 
L 226.256209 300.093203 
L 226.256209 300.697727 
L 227.156048 300.697727 
L 227.156048 302.017125 
L 228.055886 302.017125 
L 228.055886 302.612053 
L 228.955725 302.612053 
L 228.955725 302.847146 
L 229.855564 302.847146 
L 229.855564 304.017812 
L 230.755403 304.017812 
L 230.755403 304.473604 
L 231.655242 304.473604 
L 231.655242 305.308423 
L 232.555081 305.308423 
L 232.555081 305.716237 
L 234.354759 305.692248 
L 234.354759 306.38793 
L 235.254598 306.38793 
L 235.254598 306.843722 
L 236.154437 306.843722 
L 236.154437 307.174771 
L 237.054276 307.174771 
L 237.054276 307.467438 
L 237.954115 307.467438 
L 237.954115 307.884847 
L 238.853953 307.884847 
L 238.853953 308.023984 
L 240.653631 308.05277 
L 240.653631 308.997939 
L 241.55347 308.997939 
L 241.55347 309.17066 
L 242.453309 309.17066 
L 242.453309 308.901983 
L 243.353148 308.901983 
L 243.353148 309.261819 
L 244.252987 309.261819 
L 244.252987 309.525698 
L 245.152826 309.525698 
L 245.152826 310.192594 
L 246.052665 310.192594 
L 246.052665 309.549687 
L 246.952504 309.549687 
L 246.952504 310.226179 
L 248.752182 310.312539 
L 248.752182 310.360517 
L 249.652021 310.360517 
L 249.652021 311.008222 
L 253.251376 310.912265 
L 253.251376 311.344068 
L 255.051054 311.300888 
L 255.051054 311.171347 
L 255.950893 311.171347 
L 255.950893 311.607948 
L 258.65041 311.699106 
L 258.65041 311.900614 
L 259.550249 311.900614 
L 259.550249 312.078133 
L 262.249765 312.154898 
L 262.249765 312.308428 
L 264.949282 312.21727 
L 264.949282 312.45716 
L 265.849121 312.45716 
L 265.849121 312.577106 
L 266.74896 312.577106 
L 266.74896 312.447565 
L 267.648799 312.447565 
L 267.648799 312.634679 
L 270.348316 312.572308 
L 270.348316 312.893761 
L 275.747349 312.951335 
L 275.747349 313.205619 
L 276.647188 313.205619 
L 276.647188 313.037696 
L 278.446866 312.994515 
L 278.446866 313.234406 
L 284.745738 313.320766 
L 284.745738 313.426318 
L 288.345094 313.522274 
L 288.345094 313.584646 
L 291.044611 313.680602 
L 291.044611 313.752569 
L 294.643966 313.747771 
L 294.643966 313.589444 
L 295.543805 313.589444 
L 295.543805 313.709389 
L 297.343483 313.694996 
L 297.343483 313.886908 
L 298.243322 313.886908 
L 298.243322 313.738176 
L 300.043 313.790952 
L 300.043 313.886908 
L 300.942839 313.886908 
L 300.942839 314.011651 
L 301.842678 314.011651 
L 301.842678 313.858121 
L 305.442034 313.968471 
L 305.442034 313.987662 
L 309.041389 313.982864 
L 309.041389 313.853323 
L 309.941228 313.853323 
L 309.941228 314.026044 
L 313.540584 314.098012 
L 313.540584 314.169979 
L 319.839456 314.261137 
L 319.839456 314.285126 
L 330.637523 314.347498 
L 330.637523 314.409869 
L 336.036557 314.400274 
L 336.036557 314.558601 
L 340.535751 314.491432 
L 340.535751 314.443454 
L 346.834624 314.443454 
L 346.834624 314.625771 
L 348.634302 314.53941 
L 348.634302 314.505826 
L 352.233657 314.568197 
L 352.233657 314.688142 
L 354.033335 314.630569 
L 354.033335 314.558601 
L 361 314.592186 
L 361 314.592186 
" style="fill:none;stroke:#ff6b97;stroke-linejoin:miter;stroke-width:2;"/>
   </g>
   <g id="patch_5">
    <path clip-path="url(#p0372792ee1)" d="M -1 314.985029 
L 42.191097 314.932632 
L 42.191097 314.872748 
L 60.738546 314.835321 
L 60.738546 314.723041 
L 74.292451 314.663158 
L 74.292451 314.550877 
L 77.859268 314.588304 
L 77.859268 314.438596 
L 78.572631 314.438596 
L 78.572631 314.550877 
L 79.285995 314.550877 
L 79.285995 314.423625 
L 84.992902 314.461052 
L 84.992902 314.266432 
L 87.846356 314.214034 
L 87.846356 314.12421 
L 91.413173 314.0269 
L 91.413173 313.981987 
L 92.126536 313.981987 
L 92.126536 313.854736 
L 92.8399 313.854736 
L 92.8399 313.607718 
L 93.553263 313.607718 
L 93.553263 313.839765 
L 95.693353 313.779882 
L 95.693353 313.705028 
L 96.406717 313.705028 
L 96.406717 313.547835 
L 97.12008 313.547835 
L 97.12008 313.74994 
L 97.833444 313.74994 
L 97.833444 313.547835 
L 99.973534 313.443039 
L 99.973534 313.338244 
L 100.686897 313.338244 
L 100.686897 313.532864 
L 101.400261 313.532864 
L 101.400261 313.143624 
L 102.826988 313.203507 
L 102.826988 312.941518 
L 104.967078 312.881635 
L 104.967078 313.106197 
L 105.680441 313.106197 
L 105.680441 312.844208 
L 106.393805 312.844208 
L 106.393805 312.604676 
L 107.107168 312.604676 
L 107.107168 312.320231 
L 108.533895 312.372629 
L 108.533895 312.133096 
L 109.960622 312.125611 
L 109.960622 311.81871 
L 110.673985 311.81871 
L 110.673985 311.466897 
L 112.814075 311.414499 
L 112.814075 311.062686 
L 113.527439 311.062686 
L 113.527439 310.838124 
L 114.954166 310.868066 
L 114.954166 310.403972 
L 115.667529 310.403972 
L 115.667529 310.56865 
L 116.380893 310.56865 
L 116.380893 310.022217 
L 117.807619 309.962334 
L 117.807619 309.70783 
L 118.520983 309.70783 
L 118.520983 309.445842 
L 119.234346 309.445842 
L 119.234346 309.228766 
L 119.94771 309.228766 
L 119.94771 308.772157 
L 121.374436 308.839525 
L 121.374436 308.405373 
L 122.801163 308.480227 
L 122.801163 307.851454 
L 123.514527 307.851454 
L 123.514527 307.544553 
L 124.22789 307.544553 
L 124.22789 306.923266 
L 124.941254 306.923266 
L 124.941254 306.788529 
L 125.654617 306.788529 
L 125.654617 306.182213 
L 126.36798 306.182213 
L 126.36798 306.03999 
L 127.081344 306.03999 
L 127.081344 305.860341 
L 127.794707 305.860341 
L 127.794707 305.014492 
L 129.221434 305.051919 
L 129.221434 303.854257 
L 129.934798 303.854257 
L 129.934798 304.295895 
L 130.648161 304.295895 
L 130.648161 302.8587 
L 131.361524 302.8587 
L 131.361524 302.289811 
L 132.074888 302.289811 
L 132.074888 301.915541 
L 132.788251 301.915541 
L 132.788251 301.286769 
L 133.501615 301.286769 
L 133.501615 300.710394 
L 134.214978 300.710394 
L 134.214978 299.939399 
L 135.641705 299.95437 
L 135.641705 298.404894 
L 136.355068 298.404894 
L 136.355068 297.731209 
L 137.068432 297.731209 
L 137.068432 296.645828 
L 137.781795 296.645828 
L 137.781795 295.448166 
L 138.495159 295.448166 
L 138.495159 295.597874 
L 139.208522 295.597874 
L 139.208522 295.201148 
L 139.921885 295.201148 
L 139.921885 293.816351 
L 140.635249 293.816351 
L 140.635249 292.843251 
L 141.348612 292.843251 
L 141.348612 291.915062 
L 142.061976 291.915062 
L 142.061976 290.470383 
L 142.775339 290.470383 
L 142.775339 290.904535 
L 143.488702 290.904535 
L 143.488702 288.090029 
L 144.202066 288.090029 
L 144.202066 287.236695 
L 144.915429 287.236695 
L 144.915429 285.694705 
L 145.628793 285.694705 
L 145.628793 285.851898 
L 146.342156 285.851898 
L 146.342156 283.546398 
L 147.05552 283.546398 
L 147.05552 282.266397 
L 147.768883 282.266397 
L 147.768883 280.574699 
L 148.482246 280.574699 
L 148.482246 279.983354 
L 149.19561 279.983354 
L 149.19561 278.628498 
L 149.908973 278.628498 
L 149.908973 276.74218 
L 150.622337 276.74218 
L 150.622337 275.364869 
L 151.3357 275.364869 
L 151.3357 272.87972 
L 152.049063 272.87972 
L 152.049063 271.734456 
L 152.762427 271.734456 
L 152.762427 270.551764 
L 153.47579 270.551764 
L 153.47579 268.283692 
L 154.189154 268.283692 
L 154.189154 266.779129 
L 154.902517 266.779129 
L 154.902517 263.762517 
L 155.615881 263.762517 
L 155.615881 262.781931 
L 156.329244 262.781931 
L 156.329244 260.91807 
L 157.042607 260.91807 
L 157.042607 256.808591 
L 158.469334 256.898416 
L 158.469334 255.423795 
L 159.182698 255.423795 
L 159.182698 251.576305 
L 159.896061 251.576305 
L 159.896061 248.395015 
L 160.609425 248.395015 
L 160.609425 247.504254 
L 161.322788 247.504254 
L 161.322788 243.267524 
L 162.036151 243.267524 
L 162.036151 241.545885 
L 162.749515 241.545885 
L 162.749515 237.878044 
L 163.462878 237.878044 
L 163.462878 235.707282 
L 164.176242 235.707282 
L 164.176242 233.132308 
L 164.889605 233.132308 
L 164.889605 229.262362 
L 165.602968 229.262362 
L 165.602968 227.061658 
L 166.316332 227.061658 
L 166.316332 225.220253 
L 167.029695 225.220253 
L 167.029695 220.459546 
L 167.743059 220.459546 
L 167.743059 216.791705 
L 168.456422 216.791705 
L 168.456422 213.243631 
L 169.169786 213.243631 
L 169.169786 210.406669 
L 169.883149 210.406669 
L 169.883149 207.876608 
L 170.596512 207.876608 
L 170.596512 203.924323 
L 171.309876 203.924323 
L 171.309876 199.23847 
L 172.023239 199.23847 
L 172.023239 198.901627 
L 172.736603 198.901627 
L 172.736603 193.916359 
L 173.449966 193.916359 
L 173.449966 190.899747 
L 174.163329 190.899747 
L 174.163329 187.456469 
L 174.876693 187.456469 
L 174.876693 183.556581 
L 175.590056 183.556581 
L 175.590056 180.502543 
L 176.30342 180.502543 
L 176.30342 178.13716 
L 177.016783 178.13716 
L 177.016783 174.244758 
L 177.730147 174.244758 
L 177.730147 171.797036 
L 178.44351 171.797036 
L 178.44351 170.082883 
L 179.156873 170.082883 
L 179.156873 168.922647 
L 179.870237 168.922647 
L 179.870237 166.789312 
L 180.5836 166.789312 
L 180.5836 163.518197 
L 181.296964 163.518197 
L 181.296964 160.553983 
L 182.010327 160.553983 
L 182.010327 159.236555 
L 182.72369 159.236555 
L 182.72369 159.461117 
L 183.437054 159.461117 
L 183.437054 156.519359 
L 184.150417 156.519359 
L 184.150417 157.679594 
L 184.863781 157.679594 
L 184.863781 157.791875 
L 185.577144 157.791875 
L 185.577144 157.02088 
L 186.290508 157.02088 
L 186.290508 158.128717 
L 187.003871 158.128717 
L 187.003871 159.648251 
L 187.717234 159.648251 
L 187.717234 161.07796 
L 188.430598 161.07796 
L 188.430598 158.158659 
L 189.143961 158.158659 
L 189.143961 161.661821 
L 189.857325 161.661821 
L 189.857325 166.003346 
L 190.570688 166.003346 
L 190.570688 169.439139 
L 191.284051 169.439139 
L 191.284051 169.850835 
L 191.997415 169.850835 
L 191.997415 171.654814 
L 192.710778 171.654814 
L 192.710778 174.214817 
L 193.424142 174.214817 
L 193.424142 176.744878 
L 194.137505 176.744878 
L 194.137505 179.424647 
L 194.850869 179.424647 
L 194.850869 181.655293 
L 195.564232 181.655293 
L 195.564232 187.838224 
L 196.277595 187.838224 
L 196.277595 189.245477 
L 196.990959 189.245477 
L 196.990959 192.868404 
L 197.704322 192.868404 
L 197.704322 197.449462 
L 198.417686 197.449462 
L 198.417686 199.492973 
L 199.131049 199.492973 
L 199.131049 201.85087 
L 199.844413 201.85087 
L 199.844413 206.416957 
L 200.557776 206.416957 
L 200.557776 210.346786 
L 201.271139 210.346786 
L 201.271139 212.442695 
L 201.984503 212.442695 
L 201.984503 213.820006 
L 202.697866 213.820006 
L 202.697866 217.884572 
L 203.41123 217.884572 
L 203.41123 222.001536 
L 204.124593 222.001536 
L 204.124593 225.377446 
L 204.837956 225.377446 
L 204.837956 227.787741 
L 205.55132 227.787741 
L 205.55132 229.696515 
L 206.264683 229.696515 
L 206.264683 233.394297 
L 206.978047 233.394297 
L 206.978047 237.623541 
L 207.69141 237.623541 
L 207.69141 239.412549 
L 208.404774 239.412549 
L 208.404774 240.018865 
L 209.118137 240.018865 
L 209.118137 244.697233 
L 209.8315 244.697233 
L 209.8315 246.94285 
L 210.544864 246.94285 
L 210.544864 247.317119 
L 211.258227 247.317119 
L 211.258227 250.910105 
L 211.971591 250.910105 
L 211.971591 253.312915 
L 212.684954 253.312915 
L 212.684954 255.962742 
L 213.398317 255.962742 
L 213.398317 258.979354 
L 214.111681 258.979354 
L 214.111681 259.660524 
L 214.825044 259.660524 
L 214.825044 261.606725 
L 215.538408 261.606725 
L 215.538408 264.338892 
L 216.251771 264.338892 
L 216.251771 265.566496 
L 216.965135 265.566496 
L 216.965135 267.086029 
L 217.678498 267.086029 
L 217.678498 268.440885 
L 218.391861 268.440885 
L 218.391861 270.67153 
L 219.105225 270.67153 
L 219.105225 272.325801 
L 219.818588 272.325801 
L 219.818588 274.766038 
L 220.531952 274.766038 
L 220.531952 275.349898 
L 221.245315 275.349898 
L 221.245315 278.359024 
L 221.958678 278.359024 
L 221.958678 280.335167 
L 223.385405 280.230371 
L 223.385405 280.851659 
L 224.098769 280.851659 
L 224.098769 282.640666 
L 224.812132 282.640666 
L 224.812132 283.568855 
L 225.525496 283.568855 
L 225.525496 284.497043 
L 226.238859 284.497043 
L 226.238859 286.637864 
L 226.952222 286.637864 
L 226.952222 287.940321 
L 227.665586 287.940321 
L 227.665586 289.145469 
L 228.378949 289.145469 
L 228.378949 289.64699 
L 229.092313 289.64699 
L 229.092313 290.200909 
L 229.805676 290.200909 
L 229.805676 292.087226 
L 230.51904 292.087226 
L 230.51904 292.506408 
L 231.232403 292.506408 
L 231.232403 293.966059 
L 231.945766 293.966059 
L 231.945766 294.639744 
L 232.65913 294.639744 
L 232.65913 295.253546 
L 233.372493 295.253546 
L 233.372493 295.395768 
L 234.085857 295.395768 
L 234.085857 296.675769 
L 234.79922 296.675769 
L 234.79922 297.087466 
L 235.512583 297.087466 
L 235.512583 298.794134 
L 236.225947 298.794134 
L 236.225947 299.108521 
L 236.93931 299.108521 
L 236.93931 299.879516 
L 237.652674 299.879516 
L 237.652674 300.905014 
L 238.366037 300.905014 
L 238.366037 301.084663 
L 239.079401 301.084663 
L 239.079401 301.234371 
L 239.792764 301.234371 
L 239.792764 302.312267 
L 240.506127 302.312267 
L 240.506127 302.843729 
L 241.219491 302.843729 
L 241.219491 303.165601 
L 241.932854 303.165601 
L 241.932854 303.674608 
L 242.646218 303.674608 
L 242.646218 304.363263 
L 243.359581 304.363263 
L 243.359581 304.505486 
L 244.072944 304.505486 
L 244.072944 305.351334 
L 245.499671 305.291451 
L 245.499671 305.463615 
L 246.213035 305.463615 
L 246.213035 306.1373 
L 246.926398 306.1373 
L 246.926398 306.556482 
L 247.639762 306.556482 
L 247.639762 307.005605 
L 248.353125 307.005605 
L 248.353125 307.29005 
L 249.066488 307.29005 
L 249.066488 307.694261 
L 249.779852 307.694261 
L 249.779852 308.158355 
L 250.493215 308.158355 
L 250.493215 308.330519 
L 252.633305 308.397888 
L 252.633305 308.659876 
L 253.346669 308.659876 
L 253.346669 309.22128 
L 254.773396 309.183853 
L 254.773396 309.378473 
L 255.486759 309.378473 
L 255.486759 309.662918 
L 256.200123 309.662918 
L 256.200123 310.27672 
L 256.913486 310.27672 
L 256.913486 309.88748 
L 257.626849 309.88748 
L 257.626849 310.621048 
L 258.340213 310.621048 
L 258.340213 310.321632 
L 259.053576 310.321632 
L 259.053576 310.621048 
L 259.76694 310.621048 
L 259.76694 310.823153 
L 261.193666 310.76327 
L 261.193666 311.197423 
L 261.90703 311.197423 
L 261.90703 311.52678 
L 264.04712 311.504324 
L 264.04712 311.698944 
L 264.760484 311.698944 
L 264.760484 311.930991 
L 266.900574 312.035786 
L 266.900574 312.230406 
L 268.327301 312.163038 
L 268.327301 311.848652 
L 269.040664 311.848652 
L 269.040664 312.417541 
L 269.754028 312.417541 
L 269.754028 312.260348 
L 270.467391 312.260348 
L 270.467391 312.395085 
L 271.894118 312.395085 
L 271.894118 312.911577 
L 273.320845 312.836723 
L 273.320845 312.709471 
L 274.034208 312.709471 
L 274.034208 312.978945 
L 275.460935 312.881635 
L 275.460935 312.859179 
L 276.174298 312.859179 
L 276.174298 313.038828 
L 277.601025 313.038828 
L 277.601025 313.323273 
L 278.314389 313.323273 
L 278.314389 313.173565 
L 279.027752 313.173565 
L 279.027752 313.398127 
L 279.741115 313.398127 
L 279.741115 313.218478 
L 280.454479 313.218478 
L 280.454479 313.532864 
L 281.167842 313.532864 
L 281.167842 313.315788 
L 281.881206 313.315788 
L 281.881206 313.637659 
L 284.021296 313.562805 
L 284.021296 313.787367 
L 285.448023 313.779882 
L 285.448023 313.570291 
L 286.161386 313.570291 
L 286.161386 313.84725 
L 286.87475 313.84725 
L 286.87475 313.615203 
L 289.01484 313.719999 
L 289.01484 313.832279 
L 291.868293 313.824794 
L 291.868293 313.981987 
L 294.008384 313.929589 
L 294.008384 314.116724 
L 296.861837 314.22152 
L 296.861837 314.266432 
L 297.575201 314.266432 
L 297.575201 314.116724 
L 300.428655 314.206549 
L 300.428655 314.326315 
L 303.282108 314.251461 
L 303.282108 314.528421 
L 303.995472 314.528421 
L 303.995472 314.184093 
L 305.422198 314.288888 
L 305.422198 314.41614 
L 311.842469 314.498479 
L 311.842469 314.580818 
L 326.109738 314.633216 
L 326.109738 314.715555 
L 342.517096 314.782924 
L 342.517096 314.842807 
L 361 314.887719 
L 361 314.887719 
" style="fill:none;stroke:#97ff6b;stroke-linejoin:miter;stroke-width:2;"/>
   </g>
   <g id="patch_6">
    <path d="M 45 315 
L 45 43.2 
" style="fill:none;stroke:#262626;stroke-linecap:square;stroke-linejoin:miter;stroke-width:1.25;"/>
   </g>
   <g id="patch_7">
    <path d="M 324 315 
L 324 43.2 
" style="fill:none;stroke:#262626;stroke-linecap:square;stroke-linejoin:miter;stroke-width:1.25;"/>
   </g>
   <g id="patch_8">
    <path d="M 45 315 
L 324 315 
" style="fill:none;stroke:#262626;stroke-linecap:square;stroke-linejoin:miter;stroke-width:1.25;"/>
   </g>
   <g id="patch_9">
    <path d="M 45 43.2 
L 324 43.2 
" style="fill:none;stroke:#262626;stroke-linecap:square;stroke-linejoin:miter;stroke-width:1.25;"/>
   </g>
   <g id="legend_1">
    <g id="patch_10">
     <path d="M -58.803438 157.675625 
L 308.6 157.675625 
Q 313 157.675625 313 153.275625 
L 313 58.6 
Q 313 54.2 308.6 54.2 
L -58.803438 54.2 
Q -63.203438 54.2 -63.203438 58.6 
L -63.203438 153.275625 
Q -63.203438 157.675625 -58.803438 157.675625 
z
" style="fill:#ffffff;opacity:0.8;stroke:#cccccc;stroke-linejoin:miter;"/>
    </g>
    <g id="patch_11">
     <path d="M -54.403438 79.716563 
L -10.403438 79.716563 
L -10.403438 64.316563 
L -54.403438 64.316563 
z
" style="fill:none;stroke:#6b97ff;stroke-linejoin:miter;stroke-width:2;"/>
    </g>
    <g id="text_12">
     <text style="fill:#262626;font-family:DejaVu Sans;font-size:22px;font-style:normal;font-weight:normal;text-anchor:start;" transform="rotate(-0, 7.196562, 79.716563)" x="7.196562" y="79.716563">Microglia classifier</text>
    </g>
    <g id="patch_12">
     <path d="M -54.403438 112.008438 
L -10.403438 112.008438 
L -10.403438 96.608438 
L -54.403438 96.608438 
z
" style="fill:none;stroke:#ff6b97;stroke-linejoin:miter;stroke-width:2;"/>
    </g>
    <g id="text_13">
     <text style="fill:#262626;font-family:DejaVu Sans;font-size:22px;font-style:normal;font-weight:normal;text-anchor:start;" transform="rotate(-0, 7.196562, 112.008438)" x="7.196562" y="112.008438">CD14+ Monocyte classifier</text>
    </g>
    <g id="patch_13">
     <path d="M -54.403438 144.300313 
L -10.403438 144.300313 
L -10.403438 128.900313 
L -54.403438 128.900313 
z
" style="fill:none;stroke:#97ff6b;stroke-linejoin:miter;stroke-width:2;"/>
    </g>
    <g id="text_14">
     <text style="fill:#262626;font-family:DejaVu Sans;font-size:22px;font-style:normal;font-weight:normal;text-anchor:start;" transform="rotate(-0, 7.196562, 144.300313)" x="7.196562" y="144.300313">Neuron classifier</text>
    </g>
   </g>
  </g>
 </g>
 <defs>
  <clipPath id="p0372792ee1">
   <rect height="271.8" width="279" x="45" y="43.2"/>
  </clipPath>
 </defs>
</svg>
