<?xml version="1.0" encoding="utf-8" standalone="no"?>
<!DOCTYPE svg PUBLIC "-//W3C//DTD SVG 1.1//EN"
  "http://www.w3.org/Graphics/SVG/1.1/DTD/svg11.dtd">
<!-- Created with matplotlib (https://matplotlib.org/) -->
<svg height="360pt" version="1.1" viewBox="0 0 360 360" width="360pt" xmlns="http://www.w3.org/2000/svg" xmlns:xlink="http://www.w3.org/1999/xlink">
 <defs>
  <style type="text/css">
*{stroke-linecap:butt;stroke-linejoin:round;white-space:pre;}
  </style>
 </defs>
 <g id="figure_1">
  <g id="patch_1">
   <path d="M 0 360 
L 360 360 
L 360 0 
L 0 0 
z
" style="fill:#ffffff;"/>
  </g>
  <g id="axes_1">
   <g id="patch_2">
    <path d="M 45 315 
L 324 315 
L 324 43.2 
L 45 43.2 
z
" style="fill:#ffffff;"/>
   </g>
   <g id="matplotlib.axis_1">
    <g id="xtick_1">
     <g id="text_1">
      <text style="fill:#262626;font-family:DejaVu Sans;font-size:22px;font-style:normal;font-weight:normal;text-anchor:middle;" transform="rotate(-0, 45, 341.216563)" x="45" y="341.216563">−5.0</text>
     </g>
    </g>
    <g id="xtick_2">
     <g id="text_2">
      <text style="fill:#262626;font-family:DejaVu Sans;font-size:22px;font-style:normal;font-weight:normal;text-anchor:middle;" transform="rotate(-0, 114.75, 341.216563)" x="114.75" y="341.216563">−2.5</text>
     </g>
    </g>
    <g id="xtick_3">
     <g id="text_3">
      <text style="fill:#262626;font-family:DejaVu Sans;font-size:22px;font-style:normal;font-weight:normal;text-anchor:middle;" transform="rotate(-0, 184.5, 341.216563)" x="184.5" y="341.216563">0.0</text>
     </g>
    </g>
    <g id="xtick_4">
     <g id="text_4">
      <text style="fill:#262626;font-family:DejaVu Sans;font-size:22px;font-style:normal;font-weight:normal;text-anchor:middle;" transform="rotate(-0, 254.25, 341.216563)" x="254.25" y="341.216563">2.5</text>
     </g>
    </g>
    <g id="xtick_5">
     <g id="text_5">
      <text style="fill:#262626;font-family:DejaVu Sans;font-size:22px;font-style:normal;font-weight:normal;text-anchor:middle;" transform="rotate(-0, 324, 341.216563)" x="324" y="341.216563">5.0</text>
     </g>
    </g>
    <g id="text_6">
     <text style="fill:#262626;font-family:DejaVu Sans;font-size:24px;font-style:normal;font-weight:normal;text-anchor:middle;" transform="rotate(-0, 184.5, 368.028125)" x="184.5" y="368.028125">Z-score normalized effect (ref/alt)</text>
    </g>
   </g>
   <g id="matplotlib.axis_2">
    <g id="ytick_1">
     <g id="text_7">
      <text style="fill:#262626;font-family:DejaVu Sans;font-size:22px;font-style:normal;font-weight:normal;text-anchor:end;" transform="rotate(-0, 35.5, 323.358281)" x="35.5" y="323.358281">0.00</text>
     </g>
    </g>
    <g id="ytick_2">
     <g id="text_8">
      <text style="fill:#262626;font-family:DejaVu Sans;font-size:22px;font-style:normal;font-weight:normal;text-anchor:end;" transform="rotate(-0, 35.5, 268.561319)" x="35.5" y="268.561319">0.25</text>
     </g>
    </g>
    <g id="ytick_3">
     <g id="text_9">
      <text style="fill:#262626;font-family:DejaVu Sans;font-size:22px;font-style:normal;font-weight:normal;text-anchor:end;" transform="rotate(-0, 35.5, 213.764356)" x="35.5" y="213.764356">0.50</text>
     </g>
    </g>
    <g id="ytick_4">
     <g id="text_10">
      <text style="fill:#262626;font-family:DejaVu Sans;font-size:22px;font-style:normal;font-weight:normal;text-anchor:end;" transform="rotate(-0, 35.5, 158.967394)" x="35.5" y="158.967394">0.75</text>
     </g>
    </g>
    <g id="ytick_5">
     <g id="text_11">
      <text style="fill:#262626;font-family:DejaVu Sans;font-size:22px;font-style:normal;font-weight:normal;text-anchor:end;" transform="rotate(-0, 35.5, 104.170431)" x="35.5" y="104.170431">1.00</text>
     </g>
    </g>
   </g>
   <g id="patch_3">
    <path clip-path="url(#pe0a4d568e2)" d="M -1 314.954706 
L 33.434049 314.868236 
L 33.434049 314.822942 
L 56.60322 314.765295 
L 56.60322 314.650001 
L 66.9894 314.682942 
L 66.9894 314.534707 
L 78.174517 314.56353 
L 78.174517 314.386472 
L 82.169202 314.398825 
L 82.169202 314.26706 
L 88.560697 314.176472 
L 88.560697 314.386472 
L 89.359634 314.386472 
L 89.359634 314.225884 
L 93.354319 314.168237 
L 93.354319 314.052943 
L 96.550066 314.098237 
L 96.550066 313.88412 
L 97.349003 313.88412 
L 97.349003 314.048826 
L 98.14794 314.048826 
L 98.14794 313.896473 
L 100.544751 313.810003 
L 100.544751 313.748238 
L 104.539436 313.661768 
L 104.539436 313.620591 
L 105.338372 313.620591 
L 105.338372 313.480591 
L 109.333057 313.414709 
L 109.333057 313.237651 
L 110.930931 313.282945 
L 110.930931 313.114122 
L 112.528805 313.077063 
L 112.528805 312.998828 
L 115.724553 312.920593 
L 115.724553 312.875299 
L 116.523489 312.875299 
L 116.523489 312.677652 
L 118.121363 312.677652 
L 118.121363 312.508829 
L 119.719237 312.447064 
L 119.719237 312.298829 
L 122.914985 312.352359 
L 122.914985 311.981771 
L 124.512859 312.010595 
L 124.512859 311.825301 
L 126.110733 311.763536 
L 126.110733 311.594713 
L 126.90967 311.594713 
L 126.90967 311.417655 
L 128.507543 311.413537 
L 128.507543 310.944126 
L 129.30648 310.944126 
L 129.30648 311.162361 
L 130.105417 311.162361 
L 130.105417 310.487069 
L 130.904354 310.487069 
L 130.904354 310.795891 
L 131.703291 310.795891 
L 131.703291 310.532363 
L 132.502228 310.532363 
L 132.502228 310.252363 
L 133.301165 310.252363 
L 133.301165 309.94354 
L 134.100102 309.94354 
L 134.100102 309.824129 
L 134.899039 309.824129 
L 134.899039 309.684129 
L 135.697976 309.684129 
L 135.697976 309.301189 
L 136.496913 309.301189 
L 136.496913 309.432953 
L 137.29585 309.432953 
L 137.29585 308.963542 
L 138.893723 308.992366 
L 138.893723 308.387073 
L 139.69266 308.387073 
L 139.69266 308.23472 
L 140.491597 308.23472 
L 140.491597 307.645898 
L 141.290534 307.645898 
L 141.290534 307.217664 
L 142.089471 307.217664 
L 142.089471 306.908841 
L 143.687345 306.842959 
L 143.687345 306.427077 
L 144.486282 306.427077 
L 144.486282 305.904137 
L 145.285219 305.904137 
L 145.285219 305.006492 
L 146.084156 305.006492 
L 146.084156 304.788257 
L 146.883093 304.788257 
L 146.883093 304.022377 
L 147.68203 304.022377 
L 147.68203 303.861789 
L 148.480967 303.861789 
L 148.480967 303.149437 
L 149.279904 303.149437 
L 149.279904 302.48238 
L 150.07884 302.48238 
L 150.07884 301.942969 
L 150.877777 301.942969 
L 150.877777 301.160618 
L 151.676714 301.160618 
L 151.676714 300.715913 
L 152.475651 300.715913 
L 152.475651 299.694739 
L 153.274588 299.694739 
L 153.274588 298.364742 
L 154.073525 298.364742 
L 154.073525 298.031213 
L 154.872462 298.031213 
L 154.872462 297.084156 
L 155.671399 297.084156 
L 155.671399 295.313572 
L 156.470336 295.313572 
L 156.470336 294.642397 
L 157.269273 294.642397 
L 157.269273 292.937694 
L 158.06821 292.937694 
L 158.06821 292.241814 
L 158.867147 292.241814 
L 158.867147 291.022993 
L 159.666084 291.022993 
L 159.666084 289.046526 
L 160.465021 289.046526 
L 160.465021 287.43653 
L 161.263957 287.43653 
L 161.263957 285.089476 
L 162.062894 285.089476 
L 162.062894 283.42595 
L 162.861831 283.42595 
L 162.861831 281.210661 
L 163.660768 281.210661 
L 163.660768 279.094195 
L 164.459705 279.094195 
L 164.459705 276.969493 
L 165.258642 276.969493 
L 165.258642 274.235382 
L 166.057579 274.235382 
L 166.057579 271.768916 
L 166.856516 271.768916 
L 166.856516 266.96775 
L 167.655453 266.96775 
L 167.655453 263.525405 
L 168.45439 263.525405 
L 168.45439 260.503058 
L 169.253327 260.503058 
L 169.253327 256.331891 
L 170.052264 256.331891 
L 170.052264 251.856018 
L 170.851201 251.856018 
L 170.851201 245.28015 
L 171.650138 245.28015 
L 171.650138 240.919571 
L 172.449074 240.919571 
L 172.449074 235.867229 
L 173.248011 235.867229 
L 173.248011 229.167831 
L 174.046948 229.167831 
L 174.046948 219.919616 
L 174.845885 219.919616 
L 174.845885 212.833161 
L 175.644822 212.833161 
L 175.644822 203.683769 
L 176.443759 203.683769 
L 176.443759 194.814376 
L 177.242696 194.814376 
L 177.242696 182.926754 
L 178.041633 182.926754 
L 178.041633 171.302662 
L 178.84057 171.302662 
L 178.84057 160.156215 
L 179.639507 160.156215 
L 179.639507 145.382129 
L 180.438444 145.382129 
L 180.438444 132.592745 
L 181.237381 132.592745 
L 181.237381 117.773365 
L 182.036318 117.773365 
L 182.036318 101.994575 
L 182.835255 101.994575 
L 182.835255 88.954015 
L 183.634191 88.954015 
L 183.634191 79.598741 
L 184.433128 79.598741 
L 184.433128 77.457569 
L 185.232065 77.457569 
L 185.232065 80.945209 
L 186.031002 80.945209 
L 186.031002 89.699307 
L 186.829939 89.699307 
L 186.829939 101.212224 
L 187.628876 101.212224 
L 187.628876 114.450431 
L 188.427813 114.450431 
L 188.427813 128.409224 
L 189.22675 128.409224 
L 189.22675 141.046256 
L 190.025687 141.046256 
L 190.025687 152.70329 
L 190.824624 152.70329 
L 190.824624 165.789144 
L 191.623561 165.789144 
L 191.623561 175.819711 
L 192.422498 175.819711 
L 192.422498 186.175571 
L 193.221435 186.175571 
L 193.221435 196.523196 
L 194.020372 196.523196 
L 194.020372 205.614941 
L 194.819308 205.614941 
L 194.819308 212.50375 
L 195.618245 212.50375 
L 195.618245 220.603144 
L 196.417182 220.603144 
L 196.417182 227.4096 
L 197.216119 227.4096 
L 197.216119 234.677231 
L 198.015056 234.677231 
L 198.015056 238.930752 
L 198.813993 238.930752 
L 198.813993 244.398975 
L 199.61293 244.398975 
L 199.61293 248.887201 
L 200.411867 248.887201 
L 200.411867 254.273072 
L 201.210804 254.273072 
L 201.210804 257.645417 
L 202.009741 257.645417 
L 202.009741 262.030702 
L 202.808678 262.030702 
L 202.808678 264.336579 
L 203.607615 264.336579 
L 203.607615 268.277159 
L 204.406552 268.277159 
L 204.406552 271.085388 
L 205.205489 271.085388 
L 205.205489 274.39597 
L 206.004425 274.39597 
L 206.004425 276.446553 
L 206.803362 276.446553 
L 206.803362 278.731843 
L 207.602299 278.731843 
L 207.602299 280.090663 
L 208.401236 280.090663 
L 208.401236 282.326541 
L 209.200173 282.326541 
L 209.200173 284.805359 
L 209.99911 284.805359 
L 209.99911 286.757119 
L 210.798047 286.757119 
L 210.798047 287.918293 
L 211.596984 287.918293 
L 211.596984 289.025938 
L 212.395921 289.025938 
L 212.395921 290.26123 
L 213.194858 290.26123 
L 213.194858 291.434757 
L 213.993795 291.434757 
L 213.993795 293.114753 
L 214.792732 293.114753 
L 214.792732 294.30475 
L 215.591669 294.30475 
L 215.591669 295.87357 
L 217.189542 295.881806 
L 217.189542 297.071803 
L 217.988479 297.071803 
L 217.988479 298.261801 
L 218.787416 298.261801 
L 218.787416 299.180034 
L 220.38529 299.229446 
L 220.38529 300.464737 
L 221.184227 300.464737 
L 221.184227 300.699442 
L 221.983164 300.699442 
L 221.983164 301.399441 
L 222.782101 301.399441 
L 222.782101 301.80297 
L 223.581038 301.80297 
L 223.581038 303.128849 
L 224.379975 303.128849 
L 224.379975 303.281202 
L 225.178912 303.281202 
L 225.178912 303.742377 
L 225.977849 303.742377 
L 225.977849 304.471199 
L 226.776786 304.471199 
L 226.776786 304.850022 
L 227.575723 304.850022 
L 227.575723 305.125904 
L 229.173596 305.200021 
L 229.173596 305.768255 
L 229.972533 305.768255 
L 229.972533 306.180019 
L 230.77147 306.180019 
L 230.77147 306.571195 
L 231.570407 306.571195 
L 231.570407 306.838841 
L 232.369344 306.838841 
L 232.369344 307.081782 
L 233.168281 307.081782 
L 233.168281 307.365899 
L 233.967218 307.365899 
L 233.967218 307.732369 
L 234.766155 307.732369 
L 234.766155 307.872368 
L 235.565092 307.872368 
L 235.565092 308.296485 
L 236.364029 308.296485 
L 236.364029 308.481779 
L 237.162966 308.481779 
L 237.162966 308.267662 
L 237.961903 308.267662 
L 237.961903 308.770013 
L 239.559776 308.877072 
L 239.559776 309.082954 
L 241.15765 309.029425 
L 241.15765 309.330012 
L 241.956587 309.330012 
L 241.956587 309.527659 
L 242.755524 309.527659 
L 242.755524 310.116481 
L 244.353398 310.100011 
L 244.353398 310.375892 
L 245.951272 310.285304 
L 245.951272 310.507657 
L 246.750209 310.507657 
L 246.750209 310.622951 
L 248.348083 310.618833 
L 248.348083 310.90295 
L 249.945957 310.828832 
L 249.945957 311.018244 
L 251.54383 311.047067 
L 251.54383 311.302361 
L 253.141704 311.314714 
L 253.141704 311.557654 
L 253.940641 311.557654 
L 253.940641 311.681184 
L 254.739578 311.681184 
L 254.739578 311.434125 
L 255.538515 311.434125 
L 255.538515 311.553537 
L 256.337452 311.553537 
L 256.337452 311.714125 
L 257.935326 311.79236 
L 257.935326 312.0353 
L 261.131074 312.113536 
L 261.131074 312.422358 
L 263.527884 312.389417 
L 263.527884 312.54177 
L 264.326821 312.54177 
L 264.326821 312.2453 
L 265.924695 312.335888 
L 265.924695 312.620005 
L 269.91938 312.624123 
L 269.91938 312.912357 
L 275.511938 313.007063 
L 275.511938 313.097651 
L 277.908749 313.155298 
L 277.908749 313.497062 
L 278.707686 313.497062 
L 278.707686 313.278827 
L 281.104497 313.303533 
L 281.104497 313.394121 
L 282.702371 313.468239 
L 282.702371 313.534121 
L 283.501308 313.534121 
L 283.501308 313.340592 
L 285.099181 313.44765 
L 285.099181 313.554709 
L 286.697055 313.583532 
L 286.697055 313.715297 
L 296.284298 313.711179 
L 296.284298 313.826473 
L 297.882172 313.888238 
L 297.882172 314.015884 
L 298.681109 314.015884 
L 298.681109 313.851179 
L 299.480046 313.851179 
L 299.480046 313.962355 
L 307.469415 314.036473 
L 307.469415 314.160002 
L 314.659848 314.160002 
L 314.659848 314.283531 
L 321.85028 314.32059 
L 321.85028 314.40706 
L 329.839649 314.386472 
L 329.839649 314.538825 
L 333.035397 314.505883 
L 333.035397 314.40706 
L 337.829019 314.448236 
L 337.829019 314.534707 
L 348.215199 314.61706 
L 348.215199 314.645883 
L 361 314.670589 
L 361 314.670589 
" style="fill:none;stroke:#6b97ff;stroke-linejoin:miter;stroke-width:2;"/>
   </g>
   <g id="patch_4">
    <path clip-path="url(#pe0a4d568e2)" d="M -1 314.936839 
L 27.332458 314.867361 
L 27.332458 314.797884 
L 47.429267 314.775777 
L 47.429267 314.671561 
L 57.477672 314.598926 
L 57.477672 314.529448 
L 66.521236 314.501026 
L 66.521236 314.390493 
L 74.55996 314.298909 
L 74.55996 314.207326 
L 79.584162 314.178903 
L 79.584162 314.081003 
L 86.618046 314.058897 
L 86.618046 313.960996 
L 91.642248 313.926258 
L 91.642248 313.796777 
L 93.651929 313.812567 
L 93.651929 313.673613 
L 96.66645 313.604135 
L 96.66645 313.553606 
L 97.671291 313.553606 
L 97.671291 313.395703 
L 98.676131 313.395703 
L 98.676131 313.540974 
L 100.685812 313.503077 
L 100.685812 313.193587 
L 101.690653 313.193587 
L 101.690653 313.36728 
L 103.700334 313.26938 
L 103.700334 313.222009 
L 106.714855 313.152532 
L 106.714855 312.880938 
L 110.734217 312.792512 
L 110.734217 312.536709 
L 113.748738 312.454599 
L 113.748738 312.246167 
L 115.758419 312.183006 
L 115.758419 311.91457 
L 119.777781 311.835619 
L 119.777781 311.762983 
L 120.782622 311.762983 
L 120.782622 311.450335 
L 122.792303 311.339802 
L 122.792303 311.065051 
L 124.801983 310.967151 
L 124.801983 310.594499 
L 125.806824 310.594499 
L 125.806824 310.979783 
L 126.811664 310.979783 
L 126.811664 310.509231 
L 127.816505 310.509231 
L 127.816505 310.177634 
L 129.826186 310.288166 
L 129.826186 309.937621 
L 130.831026 309.937621 
L 130.831026 309.722873 
L 131.835867 309.722873 
L 131.835867 309.31864 
L 133.845548 309.375486 
L 133.845548 308.825982 
L 135.855229 308.882827 
L 135.855229 308.260689 
L 136.860069 308.260689 
L 136.860069 308.004885 
L 137.86491 308.004885 
L 137.86491 307.300637 
L 138.86975 307.300637 
L 138.86975 307.490121 
L 139.874591 307.490121 
L 139.874591 306.533227 
L 140.879431 306.533227 
L 140.879431 306.312162 
L 141.884272 306.312162 
L 141.884272 305.920562 
L 142.889112 305.920562 
L 142.889112 305.153152 
L 143.893952 305.153152 
L 143.893952 304.695233 
L 144.898793 304.695233 
L 144.898793 304.054145 
L 145.903633 304.054145 
L 145.903633 303.520432 
L 146.908474 303.520432 
L 146.908474 302.80671 
L 147.913314 302.80671 
L 147.913314 302.405635 
L 148.918155 302.405635 
L 148.918155 301.281364 
L 149.922995 301.281364 
L 149.922995 300.877132 
L 150.927836 300.877132 
L 150.927836 299.692857 
L 151.932676 299.692857 
L 151.932676 298.808599 
L 152.937517 298.808599 
L 152.937517 297.425366 
L 153.942357 297.425366 
L 153.942357 296.392679 
L 154.947198 296.392679 
L 154.947198 295.581056 
L 155.952038 295.581056 
L 155.952038 294.652585 
L 156.956879 294.652585 
L 156.956879 293.193559 
L 157.961719 293.193559 
L 157.961719 291.286087 
L 158.96656 291.286087 
L 158.96656 289.088074 
L 159.9714 289.088074 
L 159.9714 287.389035 
L 160.97624 287.389035 
L 160.97624 285.885796 
L 161.981081 285.885796 
L 161.981081 283.090908 
L 162.985921 283.090908 
L 162.985921 280.640249 
L 163.990762 280.640249 
L 163.990762 276.973735 
L 164.995602 276.973735 
L 164.995602 274.936783 
L 166.000443 274.936783 
L 166.000443 271.222898 
L 167.005283 271.222898 
L 167.005283 268.270107 
L 168.010124 268.270107 
L 168.010124 262.803496 
L 169.014964 262.803496 
L 169.014964 258.053766 
L 170.019805 258.053766 
L 170.019805 252.438725 
L 171.024645 252.438725 
L 171.024645 246.68473 
L 172.029486 246.68473 
L 172.029486 239.768567 
L 173.034326 239.768567 
L 173.034326 231.387062 
L 174.039167 231.387062 
L 174.039167 222.648695 
L 175.044007 222.648695 
L 175.044007 212.353402 
L 176.048848 212.353402 
L 176.048848 201.24017 
L 177.053688 201.24017 
L 177.053688 187.448898 
L 178.058529 187.448898 
L 178.058529 172.91864 
L 179.063369 172.91864 
L 179.063369 153.907086 
L 180.068209 153.907086 
L 180.068209 132.864897 
L 181.07305 132.864897 
L 181.07305 111.371104 
L 182.07789 111.371104 
L 182.07789 90.379444 
L 183.082731 90.379444 
L 183.082731 68.405625 
L 184.087571 68.405625 
L 184.087571 56.142857 
L 185.092412 56.142857 
L 185.092412 64.132762 
L 186.097252 64.132762 
L 186.097252 82.724293 
L 187.102093 82.724293 
L 187.102093 105.036025 
L 188.106933 105.036025 
L 188.106933 126.160324 
L 189.111774 126.160324 
L 189.111774 145.677168 
L 190.116614 145.677168 
L 190.116614 164.862415 
L 191.121455 164.862415 
L 191.121455 179.850593 
L 192.126295 179.850593 
L 192.126295 193.701868 
L 193.131136 193.701868 
L 193.131136 207.559459 
L 194.135976 207.559459 
L 194.135976 217.510523 
L 195.140817 217.510523 
L 195.140817 227.414215 
L 196.145657 227.414215 
L 196.145657 234.819879 
L 197.150497 234.819879 
L 197.150497 241.331809 
L 198.155338 241.331809 
L 198.155338 248.20376 
L 199.160178 248.20376 
L 199.160178 253.93249 
L 200.165019 253.93249 
L 200.165019 258.94434 
L 201.169859 258.94434 
L 201.169859 264.073038 
L 202.1747 264.073038 
L 202.1747 268.001671 
L 203.17954 268.001671 
L 203.17954 271.342905 
L 204.184381 271.342905 
L 204.184381 274.494654 
L 205.189221 274.494654 
L 205.189221 277.182167 
L 206.194062 277.182167 
L 206.194062 279.8381 
L 207.198902 279.8381 
L 207.198902 282.339288 
L 208.203743 282.339288 
L 208.203743 284.831002 
L 209.208583 284.831002 
L 209.208583 286.470038 
L 210.213424 286.470038 
L 210.213424 288.642787 
L 211.218264 288.642787 
L 211.218264 290.098655 
L 212.223105 290.098655 
L 212.223105 291.418726 
L 213.227945 291.418726 
L 213.227945 293.177768 
L 214.232785 293.177768 
L 214.232785 294.077817 
L 215.237626 294.077817 
L 215.237626 295.366308 
L 216.242466 295.366308 
L 216.242466 296.83165 
L 217.247307 296.83165 
L 217.247307 297.504318 
L 218.252147 297.504318 
L 218.252147 298.669644 
L 219.256988 298.669644 
L 219.256988 299.320206 
L 220.261828 299.320206 
L 220.261828 299.894973 
L 221.266669 299.894973 
L 221.266669 300.725545 
L 222.271509 300.725545 
L 222.271509 301.511903 
L 223.27635 301.511903 
L 223.27635 302.279313 
L 224.28119 302.279313 
L 224.28119 302.617226 
L 225.286031 302.617226 
L 225.286031 303.646755 
L 226.290871 303.646755 
L 226.290871 304.148887 
L 227.295712 304.148887 
L 227.295712 304.404691 
L 228.300552 304.404691 
L 228.300552 304.913139 
L 229.305393 304.913139 
L 229.305393 305.61423 
L 231.315074 305.636336 
L 231.315074 306.138469 
L 232.319914 306.138469 
L 232.319914 306.747975 
L 233.324754 306.747975 
L 233.324754 307.240633 
L 235.334435 307.348008 
L 235.334435 307.559598 
L 236.339276 307.559598 
L 236.339276 307.76803 
L 237.344116 307.76803 
L 237.344116 308.289111 
L 238.348957 308.289111 
L 238.348957 308.570179 
L 240.358638 308.61755 
L 240.358638 308.908092 
L 241.363478 308.908092 
L 241.363478 309.154421 
L 243.373159 309.141789 
L 243.373159 309.397592 
L 244.378 309.397592 
L 244.378 309.751295 
L 245.38284 309.751295 
L 245.38284 309.940779 
L 247.392521 310.026047 
L 247.392521 310.307115 
L 249.402202 310.313431 
L 249.402202 310.496599 
L 251.411883 310.474492 
L 251.411883 310.749244 
L 252.416723 310.749244 
L 252.416723 311.222954 
L 253.421564 311.222954 
L 253.421564 311.03347 
L 254.426404 311.03347 
L 254.426404 311.254534 
L 255.431245 311.254534 
L 255.431245 311.390331 
L 257.440926 311.450335 
L 257.440926 311.822986 
L 258.445766 311.822986 
L 258.445766 311.709296 
L 260.455447 311.810354 
L 260.455447 311.952467 
L 263.469969 311.999838 
L 263.469969 312.27459 
L 264.474809 312.27459 
L 264.474809 312.025102 
L 265.47965 312.025102 
L 265.47965 312.410386 
L 267.489331 312.445125 
L 267.489331 312.650399 
L 268.494171 312.650399 
L 268.494171 312.524077 
L 271.508692 312.552499 
L 271.508692 312.792512 
L 273.518373 312.865148 
L 273.518373 312.906203 
L 276.532895 312.944099 
L 276.532895 313.092529 
L 277.537735 313.092529 
L 277.537735 312.937783 
L 278.542576 312.937783 
L 278.542576 313.177796 
L 281.557097 313.250432 
L 281.557097 313.332541 
L 282.561938 313.332541 
L 282.561938 313.458864 
L 285.576459 313.44939 
L 285.576459 313.613609 
L 292.610342 313.566238 
L 292.610342 313.746248 
L 297.634545 313.822042 
L 297.634545 313.926258 
L 301.653907 313.93889 
L 301.653907 314.093635 
L 302.658747 314.093635 
L 302.658747 313.942048 
L 303.663588 313.942048 
L 303.663588 314.106268 
L 309.69263 314.182061 
L 309.69263 314.226274 
L 317.731354 314.3147 
L 317.731354 314.377861 
L 323.760397 314.339964 
L 323.760397 314.519974 
L 341.847525 314.621032 
L 341.847525 314.674719 
L 360.939494 314.747355 
L 360.939494 314.807358 
L 361 314.807358 
" style="fill:none;stroke:#ff6b97;stroke-linejoin:miter;stroke-width:2;"/>
   </g>
   <g id="patch_5">
    <path clip-path="url(#pe0a4d568e2)" d="M -1 314.924008 
L 35.439414 314.819519 
L 35.439414 314.80527 
L 50.335136 314.743527 
L 50.335136 314.691282 
L 60.265617 314.677034 
L 60.265617 314.572544 
L 61.093157 314.572544 
L 61.093157 314.700781 
L 61.920697 314.700781 
L 61.920697 314.586793 
L 70.196098 314.558296 
L 70.196098 314.453807 
L 80.954119 314.358817 
L 80.954119 314.249578 
L 85.919359 314.145089 
L 85.919359 314.0406 
L 89.22952 314.078596 
L 89.22952 313.836371 
L 90.05706 313.836371 
L 90.05706 314.026351 
L 91.71214 313.997854 
L 91.71214 313.803124 
L 93.36722 313.836371 
L 93.36722 314.031101 
L 94.19476 314.031101 
L 94.19476 313.850619 
L 95.84984 313.75088 
L 95.84984 313.608394 
L 98.332461 313.717633 
L 98.332461 313.45641 
L 102.470161 313.36142 
L 102.470161 313.180939 
L 103.297701 313.180939 
L 103.297701 313.323424 
L 104.125241 313.323424 
L 104.125241 313.195187 
L 104.952781 313.195187 
L 104.952781 313.066951 
L 106.607862 312.97671 
L 106.607862 312.857972 
L 107.435402 312.857972 
L 107.435402 313.019455 
L 108.262942 313.019455 
L 108.262942 312.853223 
L 110.745562 312.758233 
L 110.745562 312.539755 
L 113.228182 312.516008 
L 113.228182 312.387771 
L 114.883262 312.354524 
L 114.883262 312.226288 
L 115.710803 312.226288 
L 115.710803 312.017309 
L 116.538343 312.017309 
L 116.538343 311.855826 
L 117.365883 311.855826 
L 117.365883 311.670595 
L 119.020963 311.604102 
L 119.020963 311.352378 
L 120.676043 311.390374 
L 120.676043 311.176647 
L 122.331123 311.081656 
L 122.331123 310.829933 
L 124.813743 310.720694 
L 124.813743 310.525964 
L 125.641284 310.525964 
L 125.641284 310.065262 
L 126.468824 310.065262 
L 126.468824 309.951274 
L 127.296364 309.951274 
L 127.296364 309.533317 
L 128.951444 309.642556 
L 128.951444 309.751794 
L 129.778984 309.751794 
L 129.778984 309.072615 
L 130.606524 309.072615 
L 130.606524 308.958627 
L 131.434064 308.958627 
L 131.434064 308.626161 
L 132.261604 308.626161 
L 132.261604 308.474177 
L 133.089144 308.474177 
L 133.089144 307.813995 
L 133.916684 307.813995 
L 133.916684 307.937483 
L 134.744225 307.937483 
L 134.744225 307.296299 
L 135.571765 307.296299 
L 135.571765 307.106319 
L 136.399305 307.106319 
L 136.399305 306.574374 
L 137.226845 306.574374 
L 137.226845 306.346398 
L 138.054385 306.346398 
L 138.054385 305.985435 
L 138.881925 305.985435 
L 138.881925 305.334753 
L 139.709465 305.334753 
L 139.709465 305.026035 
L 140.537005 305.026035 
L 140.537005 304.826555 
L 141.364545 304.826555 
L 141.364545 304.223368 
L 142.192085 304.223368 
L 142.192085 303.700922 
L 143.019625 303.700922 
L 143.019625 303.073987 
L 143.847165 303.073987 
L 143.847165 302.323565 
L 144.674706 302.323565 
L 144.674706 301.915107 
L 145.502246 301.915107 
L 145.502246 301.397411 
L 146.329786 301.397411 
L 146.329786 301.045947 
L 147.157326 301.045947 
L 147.157326 299.530855 
L 147.984866 299.530855 
L 147.984866 299.008409 
L 148.812406 299.008409 
L 148.812406 298.087004 
L 149.639946 298.087004 
L 149.639946 297.873277 
L 150.467486 297.873277 
L 150.467486 296.937624 
L 151.295026 296.937624 
L 151.295026 295.868984 
L 152.122566 295.868984 
L 152.122566 294.700606 
L 152.950106 294.700606 
L 152.950106 294.07842 
L 153.777647 294.07842 
L 153.777647 292.359098 
L 154.605187 292.359098 
L 154.605187 291.48044 
L 155.432727 291.48044 
L 155.432727 290.340558 
L 156.260267 290.340558 
L 156.260267 288.887209 
L 157.087807 288.887209 
L 157.087807 287.500352 
L 157.915347 287.500352 
L 157.915347 285.619548 
L 158.742887 285.619548 
L 158.742887 283.852731 
L 159.570427 283.852731 
L 159.570427 282.242648 
L 160.397967 282.242648 
L 160.397967 280.879539 
L 161.225507 280.879539 
L 161.225507 278.538032 
L 162.053047 278.538032 
L 162.053047 276.970695 
L 162.880587 276.970695 
L 162.880587 274.876162 
L 163.708128 274.876162 
L 163.708128 272.601148 
L 164.535668 272.601148 
L 164.535668 270.164651 
L 165.363208 270.164651 
L 165.363208 266.251057 
L 166.190748 266.251057 
L 166.190748 263.786062 
L 167.018288 263.786062 
L 167.018288 260.82237 
L 167.845828 260.82237 
L 167.845828 257.839679 
L 168.673368 257.839679 
L 168.673368 254.016326 
L 169.500908 254.016326 
L 169.500908 249.067339 
L 170.328448 249.067339 
L 170.328448 246.0704 
L 171.155988 246.0704 
L 171.155988 240.660711 
L 171.983528 240.660711 
L 171.983528 235.844711 
L 172.811068 235.844711 
L 172.811068 230.050312 
L 173.638609 230.050312 
L 173.638609 224.517136 
L 174.466149 224.517136 
L 174.466149 218.176543 
L 175.293689 218.176543 
L 175.293689 208.66803 
L 176.121229 208.66803 
L 176.121229 201.353788 
L 176.948769 201.353788 
L 176.948769 191.090103 
L 177.776309 191.090103 
L 177.776309 179.947759 
L 178.603849 179.947759 
L 178.603849 169.669825 
L 179.431389 169.669825 
L 179.431389 156.575433 
L 180.258929 156.575433 
L 180.258929 141.225025 
L 181.086469 141.225025 
L 181.086469 127.218728 
L 181.914009 127.218728 
L 181.914009 112.552249 
L 182.74155 112.552249 
L 182.74155 98.845171 
L 183.56909 98.845171 
L 183.56909 88.529241 
L 184.39663 88.529241 
L 184.39663 88.690724 
L 185.22417 88.690724 
L 185.22417 96.522662 
L 186.05171 96.522662 
L 186.05171 108.348935 
L 186.87925 108.348935 
L 186.87925 126.23083 
L 187.70679 126.23083 
L 187.70679 139.477206 
L 188.53433 139.477206 
L 188.53433 155.16008 
L 189.36187 155.16008 
L 189.36187 168.795915 
L 190.18941 168.795915 
L 190.18941 179.890765 
L 191.01695 179.890765 
L 191.01695 189.375531 
L 191.84449 189.375531 
L 191.84449 199.591721 
L 192.672031 199.591721 
L 192.672031 208.75827 
L 193.499571 208.75827 
L 193.499571 216.433474 
L 194.327111 216.433474 
L 194.327111 222.717072 
L 195.154651 222.717072 
L 195.154651 227.860789 
L 195.982191 227.860789 
L 195.982191 234.396111 
L 196.809731 234.396111 
L 196.809731 238.74191 
L 197.637271 238.74191 
L 197.637271 244.118352 
L 198.464811 244.118352 
L 198.464811 247.22928 
L 199.292351 247.22928 
L 199.292351 251.461091 
L 200.119891 251.461091 
L 200.119891 254.633762 
L 200.947431 254.633762 
L 200.947431 258.091403 
L 201.774972 258.091403 
L 201.774972 261.525297 
L 202.602512 261.525297 
L 202.602512 264.569731 
L 203.430052 264.569731 
L 203.430052 267.561921 
L 204.257592 267.561921 
L 204.257592 269.357234 
L 205.085132 269.357234 
L 205.085132 270.867578 
L 205.912672 270.867578 
L 205.912672 274.130489 
L 206.740212 274.130489 
L 206.740212 275.807065 
L 207.567752 275.807065 
L 207.567752 277.98234 
L 208.395292 277.98234 
L 208.395292 279.90589 
L 209.222832 279.90589 
L 209.222832 281.686955 
L 210.050372 281.686955 
L 210.050372 283.031066 
L 210.877912 283.031066 
L 210.877912 284.91662 
L 211.705453 284.91662 
L 211.705453 286.108747 
L 212.532993 286.108747 
L 212.532993 287.704581 
L 213.360533 287.704581 
L 213.360533 288.96795 
L 214.188073 288.96795 
L 214.188073 290.335808 
L 215.015613 290.335808 
L 215.015613 290.549536 
L 215.843153 290.549536 
L 215.843153 292.591824 
L 216.670693 292.591824 
L 216.670693 293.513229 
L 217.498233 293.513229 
L 217.498233 294.472629 
L 218.325773 294.472629 
L 218.325773 295.797742 
L 219.980853 295.802491 
L 219.980853 297.469568 
L 220.808393 297.469568 
L 220.808393 297.963517 
L 221.635934 297.963517 
L 221.635934 298.371975 
L 222.463474 298.371975 
L 222.463474 299.312377 
L 223.291014 299.312377 
L 223.291014 299.701837 
L 224.118554 299.701837 
L 224.118554 300.661237 
L 224.946094 300.661237 
L 224.946094 300.82747 
L 225.773634 300.82747 
L 225.773634 302.052843 
L 227.428714 301.943604 
L 227.428714 302.665529 
L 228.256254 302.665529 
L 228.256254 302.997995 
L 229.083794 302.997995 
L 229.083794 303.396954 
L 230.738875 303.449198 
L 230.738875 304.579581 
L 231.566415 304.579581 
L 231.566415 304.954792 
L 232.393955 304.954792 
L 232.393955 305.605474 
L 234.049035 305.686216 
L 234.049035 305.923691 
L 234.876575 305.923691 
L 234.876575 306.156417 
L 235.704115 306.156417 
L 235.704115 306.346398 
L 236.531655 306.346398 
L 236.531655 306.816599 
L 237.359195 306.816599 
L 237.359195 306.99708 
L 238.186735 306.99708 
L 238.186735 307.324796 
L 239.014275 307.324796 
L 239.014275 307.647763 
L 239.841815 307.647763 
L 239.841815 308.041972 
L 240.669356 308.041972 
L 240.669356 308.303195 
L 241.496896 308.303195 
L 241.496896 308.73065 
L 243.151976 308.749648 
L 243.151976 308.868386 
L 243.979516 308.868386 
L 243.979516 309.058366 
L 244.807056 309.058366 
L 244.807056 309.576063 
L 246.462136 309.628307 
L 246.462136 309.761293 
L 248.117216 309.832536 
L 248.117216 309.956023 
L 248.944756 309.956023 
L 248.944756 310.340733 
L 249.772297 310.340733 
L 249.772297 310.544962 
L 251.427377 310.487968 
L 251.427377 310.421475 
L 252.254917 310.421475 
L 252.254917 310.815684 
L 253.082457 310.815684 
L 253.082457 311.000915 
L 254.737537 311.091155 
L 254.737537 311.133901 
L 256.392617 311.162398 
L 256.392617 311.6231 
L 258.875237 311.72284 
L 258.875237 311.870075 
L 259.702778 311.870075 
L 259.702778 311.570856 
L 260.530318 311.570856 
L 260.530318 312.1123 
L 261.357858 312.1123 
L 261.357858 311.841578 
L 262.185398 311.841578 
L 262.185398 312.121799 
L 265.495558 312.193041 
L 265.495558 312.449515 
L 267.978178 312.516008 
L 267.978178 312.292781 
L 268.805718 312.292781 
L 268.805718 312.800978 
L 273.770959 312.900718 
L 273.770959 313.000457 
L 274.598499 313.000457 
L 274.598499 313.138193 
L 277.908659 313.209436 
L 277.908659 313.271179 
L 282.04636 313.342422 
L 282.04636 313.442162 
L 283.70144 313.399416 
L 283.70144 313.636891 
L 285.35652 313.527653 
L 285.35652 313.451661 
L 286.18406 313.451661 
L 286.18406 313.703384 
L 291.149301 313.608394 
L 291.149301 313.84587 
L 293.631921 313.907613 
L 293.631921 313.997854 
L 298.597162 314.054848 
L 298.597162 314.126091 
L 305.217482 314.216331 
L 305.217482 314.268576 
L 311.010263 314.335069 
L 311.010263 314.411061 
L 324.250904 314.468055 
L 324.250904 314.563045 
L 334.181385 314.601041 
L 334.181385 314.686533 
L 354.042347 314.786272 
L 354.042347 314.838517 
L 361 314.819519 
L 361 314.819519 
" style="fill:none;stroke:#97ff6b;stroke-linejoin:miter;stroke-width:2;"/>
   </g>
   <g id="patch_6">
    <path d="M 45 315 
L 45 43.2 
" style="fill:none;stroke:#262626;stroke-linecap:square;stroke-linejoin:miter;stroke-width:1.25;"/>
   </g>
   <g id="patch_7">
    <path d="M 324 315 
L 324 43.2 
" style="fill:none;stroke:#262626;stroke-linecap:square;stroke-linejoin:miter;stroke-width:1.25;"/>
   </g>
   <g id="patch_8">
    <path d="M 45 315 
L 324 315 
" style="fill:none;stroke:#262626;stroke-linecap:square;stroke-linejoin:miter;stroke-width:1.25;"/>
   </g>
   <g id="patch_9">
    <path d="M 45 43.2 
L 324 43.2 
" style="fill:none;stroke:#262626;stroke-linecap:square;stroke-linejoin:miter;stroke-width:1.25;"/>
   </g>
   <g id="legend_1">
    <g id="patch_10">
     <path d="M 45.349375 157.675625 
L 308.6 157.675625 
Q 313 157.675625 313 153.275625 
L 313 58.6 
Q 313 54.2 308.6 54.2 
L 45.349375 54.2 
Q 40.949375 54.2 40.949375 58.6 
L 40.949375 153.275625 
Q 40.949375 157.675625 45.349375 157.675625 
z
" style="fill:#ffffff;opacity:0.8;stroke:#cccccc;stroke-linejoin:miter;"/>
    </g>
    <g id="patch_11">
     <path d="M 49.749375 79.716563 
L 93.749375 79.716563 
L 93.749375 64.316563 
L 49.749375 64.316563 
z
" style="fill:none;stroke:#6b97ff;stroke-linejoin:miter;stroke-width:2;"/>
    </g>
    <g id="text_12">
     <text style="fill:#262626;font-family:DejaVu Sans;font-size:22px;font-style:normal;font-weight:normal;text-anchor:start;" transform="rotate(-0, 111.349375, 79.716563)" x="111.349375" y="79.716563">Microglia</text>
    </g>
    <g id="patch_12">
     <path d="M 49.749375 112.008438 
L 93.749375 112.008438 
L 93.749375 96.608438 
L 49.749375 96.608438 
z
" style="fill:none;stroke:#ff6b97;stroke-linejoin:miter;stroke-width:2;"/>
    </g>
    <g id="text_13">
     <text style="fill:#262626;font-family:DejaVu Sans;font-size:22px;font-style:normal;font-weight:normal;text-anchor:start;" transform="rotate(-0, 111.349375, 112.008438)" x="111.349375" y="112.008438">CD14+ Monocyte</text>
    </g>
    <g id="patch_13">
     <path d="M 49.749375 144.300313 
L 93.749375 144.300313 
L 93.749375 128.900313 
L 49.749375 128.900313 
z
" style="fill:none;stroke:#97ff6b;stroke-linejoin:miter;stroke-width:2;"/>
    </g>
    <g id="text_14">
     <text style="fill:#262626;font-family:DejaVu Sans;font-size:22px;font-style:normal;font-weight:normal;text-anchor:start;" transform="rotate(-0, 111.349375, 144.300313)" x="111.349375" y="144.300313">Neuron</text>
    </g>
   </g>
  </g>
 </g>
 <defs>
  <clipPath id="pe0a4d568e2">
   <rect height="271.8" width="279" x="45" y="43.2"/>
  </clipPath>
 </defs>
</svg>
