<?xml version="1.0" encoding="utf-8" standalone="no"?>
<!DOCTYPE svg PUBLIC "-//W3C//DTD SVG 1.1//EN"
  "http://www.w3.org/Graphics/SVG/1.1/DTD/svg11.dtd">
<!-- Created with matplotlib (https://matplotlib.org/) -->
<svg height="360pt" version="1.1" viewBox="0 0 720 360" width="720pt" xmlns="http://www.w3.org/2000/svg" xmlns:xlink="http://www.w3.org/1999/xlink">
 <defs>
  <style type="text/css">
*{stroke-linecap:butt;stroke-linejoin:round;white-space:pre;}
  </style>
 </defs>
 <g id="figure_1">
  <g id="patch_1">
   <path d="M 0 360 
L 720 360 
L 720 0 
L 0 0 
z
" style="fill:#ffffff;"/>
  </g>
  <g id="axes_1">
   <g id="patch_2">
    <path d="M 46.220313 290.372359 
L 350.838281 290.372359 
L 350.838281 21.398438 
L 46.220313 21.398438 
z
" style="fill:#ffffff;"/>
   </g>
   <g id="matplotlib.axis_1">
    <g id="xtick_1">
     <g id="line2d_1">
      <defs>
       <path d="M 0 0 
L 0 3.5 
" id="m465080accb" style="stroke:#000000;stroke-width:0.8;"/>
      </defs>
      <g>
       <use style="stroke:#000000;stroke-width:0.8;" x="60.066584" xlink:href="#m465080accb" y="290.372359"/>
      </g>
     </g>
     <g id="text_1">
      <text style="font-family:DejaVu Sans;font-size:10px;font-style:normal;font-weight:normal;" transform="translate(52.006671 322.767436)rotate(-45)">mono</text>
     </g>
    </g>
    <g id="xtick_2">
     <g id="line2d_2">
      <g>
       <use style="stroke:#000000;stroke-width:0.8;" x="99.627359" xlink:href="#m465080accb" y="290.372359"/>
      </g>
     </g>
     <g id="text_2">
      <text style="font-family:DejaVu Sans;font-size:10px;font-style:normal;font-weight:normal;" transform="translate(85.925508 334.051314)rotate(-45)">dendritic</text>
     </g>
    </g>
    <g id="xtick_3">
     <g id="line2d_3">
      <g>
       <use style="stroke:#000000;stroke-width:0.8;" x="139.188134" xlink:href="#m465080accb" y="290.372359"/>
      </g>
     </g>
     <g id="text_3">
      <text style="font-family:DejaVu Sans;font-size:10px;font-style:normal;font-weight:normal;" transform="translate(128.618545 327.78679)rotate(-45)">progen</text>
     </g>
    </g>
    <g id="xtick_4">
     <g id="line2d_4">
      <g>
       <use style="stroke:#000000;stroke-width:0.8;" x="178.748909" xlink:href="#m465080accb" y="290.372359"/>
      </g>
     </g>
     <g id="text_4">
      <text style="font-family:DejaVu Sans;font-size:10px;font-style:normal;font-weight:normal;" transform="translate(165.834267 332.476896)rotate(-45)">basophil</text>
     </g>
    </g>
    <g id="xtick_5">
     <g id="line2d_5">
      <g>
       <use style="stroke:#000000;stroke-width:0.8;" x="218.309684" xlink:href="#m465080accb" y="290.372359"/>
      </g>
     </g>
     <g id="text_5">
      <text style="font-family:DejaVu Sans;font-size:10px;font-style:normal;font-weight:normal;" transform="translate(207.522439 328.222102)rotate(-45)">nkCells</text>
     </g>
    </g>
    <g id="xtick_6">
     <g id="line2d_6">
      <g>
       <use style="stroke:#000000;stroke-width:0.8;" x="257.87046" xlink:href="#m465080accb" y="290.372359"/>
      </g>
     </g>
     <g id="text_6">
      <text style="font-family:DejaVu Sans;font-size:10px;font-style:normal;font-weight:normal;" transform="translate(247.604153 326.983561)rotate(-45)">B_cells</text>
     </g>
    </g>
    <g id="xtick_7">
     <g id="line2d_7">
      <g>
       <use style="stroke:#000000;stroke-width:0.8;" x="297.431235" xlink:href="#m465080accb" y="290.372359"/>
      </g>
     </g>
     <g id="text_7">
      <text style="font-family:DejaVu Sans;font-size:10px;font-style:normal;font-weight:normal;" transform="translate(292.944421 315.621239)rotate(-45)">cd8</text>
     </g>
    </g>
    <g id="xtick_8">
     <g id="line2d_8">
      <g>
       <use style="stroke:#000000;stroke-width:0.8;" x="336.99201" xlink:href="#m465080accb" y="290.372359"/>
      </g>
     </g>
     <g id="text_8">
      <text style="font-family:DejaVu Sans;font-size:10px;font-style:normal;font-weight:normal;" transform="translate(332.505196 315.621239)rotate(-45)">cd4</text>
     </g>
    </g>
    <g id="text_9">
     <text style="font-family:DejaVu Sans;font-size:10px;font-style:normal;font-weight:normal;text-anchor:middle;" transform="rotate(-0, 198.529297, 347.120313)" x="198.529297" y="347.120313">Satpathy scATAC cell type</text>
    </g>
   </g>
   <g id="matplotlib.axis_2">
    <g id="ytick_1">
     <g id="line2d_9">
      <defs>
       <path d="M 0 0 
L -3.5 0 
" id="m92906284f2" style="stroke:#000000;stroke-width:0.8;"/>
      </defs>
      <g>
       <use style="stroke:#000000;stroke-width:0.8;" x="46.220313" xlink:href="#m92906284f2" y="282.817625"/>
      </g>
     </g>
     <g id="text_10">
      <text style="font-family:DejaVu Sans;font-size:10px;font-style:normal;font-weight:normal;text-anchor:end;" transform="rotate(-0, 39.220313, 286.616844)" x="39.220313" y="286.616844">−6</text>
     </g>
    </g>
    <g id="ytick_2">
     <g id="line2d_10">
      <g>
       <use style="stroke:#000000;stroke-width:0.8;" x="46.220313" xlink:href="#m92906284f2" y="249.26659"/>
      </g>
     </g>
     <g id="text_11">
      <text style="font-family:DejaVu Sans;font-size:10px;font-style:normal;font-weight:normal;text-anchor:end;" transform="rotate(-0, 39.220313, 253.065809)" x="39.220313" y="253.065809">−4</text>
     </g>
    </g>
    <g id="ytick_3">
     <g id="line2d_11">
      <g>
       <use style="stroke:#000000;stroke-width:0.8;" x="46.220313" xlink:href="#m92906284f2" y="215.715555"/>
      </g>
     </g>
     <g id="text_12">
      <text style="font-family:DejaVu Sans;font-size:10px;font-style:normal;font-weight:normal;text-anchor:end;" transform="rotate(-0, 39.220313, 219.514773)" x="39.220313" y="219.514773">−2</text>
     </g>
    </g>
    <g id="ytick_4">
     <g id="line2d_12">
      <g>
       <use style="stroke:#000000;stroke-width:0.8;" x="46.220313" xlink:href="#m92906284f2" y="182.164519"/>
      </g>
     </g>
     <g id="text_13">
      <text style="font-family:DejaVu Sans;font-size:10px;font-style:normal;font-weight:normal;text-anchor:end;" transform="rotate(-0, 39.220313, 185.963738)" x="39.220313" y="185.963738">0</text>
     </g>
    </g>
    <g id="ytick_5">
     <g id="line2d_13">
      <g>
       <use style="stroke:#000000;stroke-width:0.8;" x="46.220313" xlink:href="#m92906284f2" y="148.613484"/>
      </g>
     </g>
     <g id="text_14">
      <text style="font-family:DejaVu Sans;font-size:10px;font-style:normal;font-weight:normal;text-anchor:end;" transform="rotate(-0, 39.220313, 152.412703)" x="39.220313" y="152.412703">2</text>
     </g>
    </g>
    <g id="ytick_6">
     <g id="line2d_14">
      <g>
       <use style="stroke:#000000;stroke-width:0.8;" x="46.220313" xlink:href="#m92906284f2" y="115.062449"/>
      </g>
     </g>
     <g id="text_15">
      <text style="font-family:DejaVu Sans;font-size:10px;font-style:normal;font-weight:normal;text-anchor:end;" transform="rotate(-0, 39.220313, 118.861667)" x="39.220313" y="118.861667">4</text>
     </g>
    </g>
    <g id="ytick_7">
     <g id="line2d_15">
      <g>
       <use style="stroke:#000000;stroke-width:0.8;" x="46.220313" xlink:href="#m92906284f2" y="81.511413"/>
      </g>
     </g>
     <g id="text_16">
      <text style="font-family:DejaVu Sans;font-size:10px;font-style:normal;font-weight:normal;text-anchor:end;" transform="rotate(-0, 39.220313, 85.310632)" x="39.220313" y="85.310632">6</text>
     </g>
    </g>
    <g id="ytick_8">
     <g id="line2d_16">
      <g>
       <use style="stroke:#000000;stroke-width:0.8;" x="46.220313" xlink:href="#m92906284f2" y="47.960378"/>
      </g>
     </g>
     <g id="text_17">
      <text style="font-family:DejaVu Sans;font-size:10px;font-style:normal;font-weight:normal;text-anchor:end;" transform="rotate(-0, 39.220313, 51.759597)" x="39.220313" y="51.759597">8</text>
     </g>
    </g>
    <g id="text_18">
     <text style="font-family:DejaVu Sans;font-size:10px;font-style:normal;font-weight:normal;text-anchor:middle;" transform="rotate(-90, 18.398438, 155.885398)" x="18.398438" y="155.885398">LDSC Coefficient (Jansen GWAS)</text>
    </g>
    <g id="text_19">
     <text style="font-family:DejaVu Sans;font-size:10px;font-style:normal;font-weight:normal;text-anchor:start;" transform="rotate(-0, 46.220313, 18.398438)" x="46.220313" y="18.398438">1e−8</text>
    </g>
   </g>
   <g id="LineCollection_1">
    <path clip-path="url(#p48d448911b)" d="M 60.066584 97.155041 
L 60.066584 33.624525 
" style="fill:none;stroke:#1f77b4;stroke-width:1.5;"/>
   </g>
   <g id="LineCollection_2">
    <path clip-path="url(#p48d448911b)" d="M 99.627359 130.408084 
L 99.627359 76.182673 
" style="fill:none;stroke:#ff7f0e;stroke-width:1.5;"/>
   </g>
   <g id="LineCollection_3">
    <path clip-path="url(#p48d448911b)" d="M 139.188134 175.763179 
L 139.188134 86.854625 
" style="fill:none;stroke:#2ca02c;stroke-width:1.5;"/>
   </g>
   <g id="LineCollection_4">
    <path clip-path="url(#p48d448911b)" d="M 178.748909 185.445631 
L 178.748909 125.013466 
" style="fill:none;stroke:#d62728;stroke-width:1.5;"/>
   </g>
   <g id="LineCollection_5">
    <path clip-path="url(#p48d448911b)" d="M 218.309684 238.374503 
L 218.309684 183.831343 
" style="fill:none;stroke:#9467bd;stroke-width:1.5;"/>
   </g>
   <g id="LineCollection_6">
    <path clip-path="url(#p48d448911b)" d="M 257.87046 237.041981 
L 257.87046 191.771272 
" style="fill:none;stroke:#8c564b;stroke-width:1.5;"/>
   </g>
   <g id="LineCollection_7">
    <path clip-path="url(#p48d448911b)" d="M 297.431235 278.146272 
L 297.431235 200.792014 
" style="fill:none;stroke:#e377c2;stroke-width:1.5;"/>
   </g>
   <g id="LineCollection_8">
    <path clip-path="url(#p48d448911b)" d="M 336.99201 267.136042 
L 336.99201 220.142112 
" style="fill:none;stroke:#7f7f7f;stroke-width:1.5;"/>
   </g>
   <g id="line2d_17">
    <defs>
     <path d="M 5 0 
L -5 -0 
" id="m189f8de186" style="stroke:#1f77b4;"/>
    </defs>
    <g clip-path="url(#p48d448911b)">
     <use style="fill:#1f77b4;stroke:#1f77b4;" x="60.066584" xlink:href="#m189f8de186" y="97.155041"/>
    </g>
   </g>
   <g id="line2d_18">
    <g clip-path="url(#p48d448911b)">
     <use style="fill:#1f77b4;stroke:#1f77b4;" x="60.066584" xlink:href="#m189f8de186" y="33.624525"/>
    </g>
   </g>
   <g id="line2d_19">
    <defs>
     <path d="M 5 0 
L -5 -0 
" id="m402732f6d7" style="stroke:#ff7f0e;"/>
    </defs>
    <g clip-path="url(#p48d448911b)">
     <use style="fill:#ff7f0e;stroke:#ff7f0e;" x="99.627359" xlink:href="#m402732f6d7" y="130.408084"/>
    </g>
   </g>
   <g id="line2d_20">
    <g clip-path="url(#p48d448911b)">
     <use style="fill:#ff7f0e;stroke:#ff7f0e;" x="99.627359" xlink:href="#m402732f6d7" y="76.182673"/>
    </g>
   </g>
   <g id="line2d_21">
    <defs>
     <path d="M 5 0 
L -5 -0 
" id="ma994299fd8" style="stroke:#2ca02c;"/>
    </defs>
    <g clip-path="url(#p48d448911b)">
     <use style="fill:#2ca02c;stroke:#2ca02c;" x="139.188134" xlink:href="#ma994299fd8" y="175.763179"/>
    </g>
   </g>
   <g id="line2d_22">
    <g clip-path="url(#p48d448911b)">
     <use style="fill:#2ca02c;stroke:#2ca02c;" x="139.188134" xlink:href="#ma994299fd8" y="86.854625"/>
    </g>
   </g>
   <g id="line2d_23">
    <defs>
     <path d="M 5 0 
L -5 -0 
" id="mf9459fdd76" style="stroke:#d62728;"/>
    </defs>
    <g clip-path="url(#p48d448911b)">
     <use style="fill:#d62728;stroke:#d62728;" x="178.748909" xlink:href="#mf9459fdd76" y="185.445631"/>
    </g>
   </g>
   <g id="line2d_24">
    <g clip-path="url(#p48d448911b)">
     <use style="fill:#d62728;stroke:#d62728;" x="178.748909" xlink:href="#mf9459fdd76" y="125.013466"/>
    </g>
   </g>
   <g id="line2d_25">
    <defs>
     <path d="M 5 0 
L -5 -0 
" id="mbee8b20a11" style="stroke:#9467bd;"/>
    </defs>
    <g clip-path="url(#p48d448911b)">
     <use style="fill:#9467bd;stroke:#9467bd;" x="218.309684" xlink:href="#mbee8b20a11" y="238.374503"/>
    </g>
   </g>
   <g id="line2d_26">
    <g clip-path="url(#p48d448911b)">
     <use style="fill:#9467bd;stroke:#9467bd;" x="218.309684" xlink:href="#mbee8b20a11" y="183.831343"/>
    </g>
   </g>
   <g id="line2d_27">
    <defs>
     <path d="M 5 0 
L -5 -0 
" id="m5a2912496f" style="stroke:#8c564b;"/>
    </defs>
    <g clip-path="url(#p48d448911b)">
     <use style="fill:#8c564b;stroke:#8c564b;" x="257.87046" xlink:href="#m5a2912496f" y="237.041981"/>
    </g>
   </g>
   <g id="line2d_28">
    <g clip-path="url(#p48d448911b)">
     <use style="fill:#8c564b;stroke:#8c564b;" x="257.87046" xlink:href="#m5a2912496f" y="191.771272"/>
    </g>
   </g>
   <g id="line2d_29">
    <defs>
     <path d="M 5 0 
L -5 -0 
" id="mcebfb2f588" style="stroke:#e377c2;"/>
    </defs>
    <g clip-path="url(#p48d448911b)">
     <use style="fill:#e377c2;stroke:#e377c2;" x="297.431235" xlink:href="#mcebfb2f588" y="278.146272"/>
    </g>
   </g>
   <g id="line2d_30">
    <g clip-path="url(#p48d448911b)">
     <use style="fill:#e377c2;stroke:#e377c2;" x="297.431235" xlink:href="#mcebfb2f588" y="200.792014"/>
    </g>
   </g>
   <g id="line2d_31">
    <defs>
     <path d="M 5 0 
L -5 -0 
" id="me62a7d2c60" style="stroke:#7f7f7f;"/>
    </defs>
    <g clip-path="url(#p48d448911b)">
     <use style="fill:#7f7f7f;stroke:#7f7f7f;" x="336.99201" xlink:href="#me62a7d2c60" y="267.136042"/>
    </g>
   </g>
   <g id="line2d_32">
    <g clip-path="url(#p48d448911b)">
     <use style="fill:#7f7f7f;stroke:#7f7f7f;" x="336.99201" xlink:href="#me62a7d2c60" y="220.142112"/>
    </g>
   </g>
   <g id="line2d_33">
    <path clip-path="url(#p48d448911b)" d="M 46.220313 182.164519 
L 350.838281 182.164519 
" style="fill:none;stroke:#000000;stroke-dasharray:5.55,2.4;stroke-dashoffset:0;stroke-width:1.5;"/>
   </g>
   <g id="line2d_34">
    <defs>
     <path d="M 0 3 
C 0.795609 3 1.55874 2.683901 2.12132 2.12132 
C 2.683901 1.55874 3 0.795609 3 0 
C 3 -0.795609 2.683901 -1.55874 2.12132 -2.12132 
C 1.55874 -2.683901 0.795609 -3 0 -3 
C -0.795609 -3 -1.55874 -2.683901 -2.12132 -2.12132 
C -2.683901 -1.55874 -3 -0.795609 -3 0 
C -3 0.795609 -2.683901 1.55874 -2.12132 2.12132 
C -1.55874 2.683901 -0.795609 3 0 3 
z
" id="m201dfd4989" style="stroke:#1f77b4;"/>
    </defs>
    <g clip-path="url(#p48d448911b)">
     <use style="fill:#1f77b4;stroke:#1f77b4;" x="60.066584" xlink:href="#m201dfd4989" y="65.389783"/>
    </g>
   </g>
   <g id="line2d_35">
    <defs>
     <path d="M 0 3 
C 0.795609 3 1.55874 2.683901 2.12132 2.12132 
C 2.683901 1.55874 3 0.795609 3 0 
C 3 -0.795609 2.683901 -1.55874 2.12132 -2.12132 
C 1.55874 -2.683901 0.795609 -3 0 -3 
C -0.795609 -3 -1.55874 -2.683901 -2.12132 -2.12132 
C -2.683901 -1.55874 -3 -0.795609 -3 0 
C -3 0.795609 -2.683901 1.55874 -2.12132 2.12132 
C -1.55874 2.683901 -0.795609 3 0 3 
z
" id="m4c4b7d2983" style="stroke:#ff7f0e;"/>
    </defs>
    <g clip-path="url(#p48d448911b)">
     <use style="fill:#ff7f0e;stroke:#ff7f0e;" x="99.627359" xlink:href="#m4c4b7d2983" y="103.295379"/>
    </g>
   </g>
   <g id="line2d_36">
    <defs>
     <path d="M 0 3 
C 0.795609 3 1.55874 2.683901 2.12132 2.12132 
C 2.683901 1.55874 3 0.795609 3 0 
C 3 -0.795609 2.683901 -1.55874 2.12132 -2.12132 
C 1.55874 -2.683901 0.795609 -3 0 -3 
C -0.795609 -3 -1.55874 -2.683901 -2.12132 -2.12132 
C -2.683901 -1.55874 -3 -0.795609 -3 0 
C -3 0.795609 -2.683901 1.55874 -2.12132 2.12132 
C -1.55874 2.683901 -0.795609 3 0 3 
z
" id="m79e0c72e6b" style="stroke:#2ca02c;"/>
    </defs>
    <g clip-path="url(#p48d448911b)">
     <use style="fill:#2ca02c;stroke:#2ca02c;" x="139.188134" xlink:href="#m79e0c72e6b" y="131.308902"/>
    </g>
   </g>
   <g id="line2d_37">
    <defs>
     <path d="M 0 3 
C 0.795609 3 1.55874 2.683901 2.12132 2.12132 
C 2.683901 1.55874 3 0.795609 3 0 
C 3 -0.795609 2.683901 -1.55874 2.12132 -2.12132 
C 1.55874 -2.683901 0.795609 -3 0 -3 
C -0.795609 -3 -1.55874 -2.683901 -2.12132 -2.12132 
C -2.683901 -1.55874 -3 -0.795609 -3 0 
C -3 0.795609 -2.683901 1.55874 -2.12132 2.12132 
C -1.55874 2.683901 -0.795609 3 0 3 
z
" id="m962f40d939" style="stroke:#d62728;"/>
    </defs>
    <g clip-path="url(#p48d448911b)">
     <use style="fill:#d62728;stroke:#d62728;" x="178.748909" xlink:href="#m962f40d939" y="155.229548"/>
    </g>
   </g>
   <g id="line2d_38">
    <defs>
     <path d="M 0 3 
C 0.795609 3 1.55874 2.683901 2.12132 2.12132 
C 2.683901 1.55874 3 0.795609 3 0 
C 3 -0.795609 2.683901 -1.55874 2.12132 -2.12132 
C 1.55874 -2.683901 0.795609 -3 0 -3 
C -0.795609 -3 -1.55874 -2.683901 -2.12132 -2.12132 
C -2.683901 -1.55874 -3 -0.795609 -3 0 
C -3 0.795609 -2.683901 1.55874 -2.12132 2.12132 
C -1.55874 2.683901 -0.795609 3 0 3 
z
" id="mad820f8005" style="stroke:#9467bd;"/>
    </defs>
    <g clip-path="url(#p48d448911b)">
     <use style="fill:#9467bd;stroke:#9467bd;" x="218.309684" xlink:href="#mad820f8005" y="211.102923"/>
    </g>
   </g>
   <g id="line2d_39">
    <defs>
     <path d="M 0 3 
C 0.795609 3 1.55874 2.683901 2.12132 2.12132 
C 2.683901 1.55874 3 0.795609 3 0 
C 3 -0.795609 2.683901 -1.55874 2.12132 -2.12132 
C 1.55874 -2.683901 0.795609 -3 0 -3 
C -0.795609 -3 -1.55874 -2.683901 -2.12132 -2.12132 
C -2.683901 -1.55874 -3 -0.795609 -3 0 
C -3 0.795609 -2.683901 1.55874 -2.12132 2.12132 
C -1.55874 2.683901 -0.795609 3 0 3 
z
" id="m3367ce30f2" style="stroke:#8c564b;"/>
    </defs>
    <g clip-path="url(#p48d448911b)">
     <use style="fill:#8c564b;stroke:#8c564b;" x="257.87046" xlink:href="#m3367ce30f2" y="214.406626"/>
    </g>
   </g>
   <g id="line2d_40">
    <defs>
     <path d="M 0 3 
C 0.795609 3 1.55874 2.683901 2.12132 2.12132 
C 2.683901 1.55874 3 0.795609 3 0 
C 3 -0.795609 2.683901 -1.55874 2.12132 -2.12132 
C 1.55874 -2.683901 0.795609 -3 0 -3 
C -0.795609 -3 -1.55874 -2.683901 -2.12132 -2.12132 
C -2.683901 -1.55874 -3 -0.795609 -3 0 
C -3 0.795609 -2.683901 1.55874 -2.12132 2.12132 
C -1.55874 2.683901 -0.795609 3 0 3 
z
" id="mbb5ca992b0" style="stroke:#e377c2;"/>
    </defs>
    <g clip-path="url(#p48d448911b)">
     <use style="fill:#e377c2;stroke:#e377c2;" x="297.431235" xlink:href="#mbb5ca992b0" y="239.469143"/>
    </g>
   </g>
   <g id="line2d_41">
    <defs>
     <path d="M 0 3 
C 0.795609 3 1.55874 2.683901 2.12132 2.12132 
C 2.683901 1.55874 3 0.795609 3 0 
C 3 -0.795609 2.683901 -1.55874 2.12132 -2.12132 
C 1.55874 -2.683901 0.795609 -3 0 -3 
C -0.795609 -3 -1.55874 -2.683901 -2.12132 -2.12132 
C -2.683901 -1.55874 -3 -0.795609 -3 0 
C -3 0.795609 -2.683901 1.55874 -2.12132 2.12132 
C -1.55874 2.683901 -0.795609 3 0 3 
z
" id="m7af6cf51d6" style="stroke:#7f7f7f;"/>
    </defs>
    <g clip-path="url(#p48d448911b)">
     <use style="fill:#7f7f7f;stroke:#7f7f7f;" x="336.99201" xlink:href="#m7af6cf51d6" y="243.639077"/>
    </g>
   </g>
   <g id="patch_3">
    <path d="M 46.220313 290.372359 
L 46.220313 21.398438 
" style="fill:none;stroke:#000000;stroke-linecap:square;stroke-linejoin:miter;stroke-width:0.8;"/>
   </g>
   <g id="patch_4">
    <path d="M 350.838281 290.372359 
L 350.838281 21.398438 
" style="fill:none;stroke:#000000;stroke-linecap:square;stroke-linejoin:miter;stroke-width:0.8;"/>
   </g>
   <g id="patch_5">
    <path d="M 46.220313 290.372359 
L 350.838281 290.372359 
" style="fill:none;stroke:#000000;stroke-linecap:square;stroke-linejoin:miter;stroke-width:0.8;"/>
   </g>
   <g id="patch_6">
    <path d="M 46.220313 21.398438 
L 350.838281 21.398438 
" style="fill:none;stroke:#000000;stroke-linecap:square;stroke-linejoin:miter;stroke-width:0.8;"/>
   </g>
  </g>
  <g id="axes_2">
   <g id="patch_7">
    <path d="M 404.582031 290.372359 
L 709.2 290.372359 
L 709.2 21.398438 
L 404.582031 21.398438 
z
" style="fill:#ffffff;"/>
   </g>
   <g id="patch_8">
    <path clip-path="url(#pb4a25594e5)" d="M 418.428303 290.372359 
L 446.83091 290.372359 
L 446.83091 -116.268024 
L 418.428303 -116.268024 
z
" style="fill:#1f77b4;"/>
   </g>
   <g id="patch_9">
    <path clip-path="url(#pb4a25594e5)" d="M 453.931562 290.372359 
L 482.33417 290.372359 
L 482.33417 2.641562 
L 453.931562 2.641562 
z
" style="fill:#ff7f0e;"/>
   </g>
   <g id="patch_10">
    <path clip-path="url(#pb4a25594e5)" d="M 489.434822 290.372359 
L 517.83743 290.372359 
L 517.83743 226.815694 
L 489.434822 226.815694 
z
" style="fill:#2ca02c;"/>
   </g>
   <g id="patch_11">
    <path clip-path="url(#pb4a25594e5)" d="M 524.938082 290.372359 
L 553.34069 290.372359 
L 553.34069 232.72709 
L 524.938082 232.72709 
z
" style="fill:#d62728;"/>
   </g>
   <g id="patch_12">
    <path clip-path="url(#pb4a25594e5)" d="M 560.441342 290.372359 
L 588.843949 290.372359 
L 588.843949 290.112178 
L 560.441342 290.112178 
z
" style="fill:#9467bd;"/>
   </g>
   <g id="patch_13">
    <path clip-path="url(#pb4a25594e5)" d="M 595.944601 290.372359 
L 624.347209 290.372359 
L 624.347209 290.112178 
L 595.944601 290.112178 
z
" style="fill:#8c564b;"/>
   </g>
   <g id="patch_14">
    <path clip-path="url(#pb4a25594e5)" d="M 631.447861 290.372359 
L 659.850469 290.372359 
L 659.850469 290.112178 
L 631.447861 290.112178 
z
" style="fill:#e377c2;"/>
   </g>
   <g id="patch_15">
    <path clip-path="url(#pb4a25594e5)" d="M 666.951121 290.372359 
L 695.353729 290.372359 
L 695.353729 290.112178 
L 666.951121 290.112178 
z
" style="fill:#7f7f7f;"/>
   </g>
   <g id="matplotlib.axis_3">
    <g id="xtick_9">
     <g id="line2d_42">
      <g>
       <use style="stroke:#000000;stroke-width:0.8;" x="432.629606" xlink:href="#m465080accb" y="290.372359"/>
      </g>
     </g>
     <g id="text_20">
      <text style="font-family:DejaVu Sans;font-size:10px;font-style:normal;font-weight:normal;" transform="translate(424.569694 322.767436)rotate(-45)">mono</text>
     </g>
    </g>
    <g id="xtick_10">
     <g id="line2d_43">
      <g>
       <use style="stroke:#000000;stroke-width:0.8;" x="468.132866" xlink:href="#m465080accb" y="290.372359"/>
      </g>
     </g>
     <g id="text_21">
      <text style="font-family:DejaVu Sans;font-size:10px;font-style:normal;font-weight:normal;" transform="translate(454.431015 334.051314)rotate(-45)">dendritic</text>
     </g>
    </g>
    <g id="xtick_11">
     <g id="line2d_44">
      <g>
       <use style="stroke:#000000;stroke-width:0.8;" x="503.636126" xlink:href="#m465080accb" y="290.372359"/>
      </g>
     </g>
     <g id="text_22">
      <text style="font-family:DejaVu Sans;font-size:10px;font-style:normal;font-weight:normal;" transform="translate(493.066537 327.78679)rotate(-45)">progen</text>
     </g>
    </g>
    <g id="xtick_12">
     <g id="line2d_45">
      <g>
       <use style="stroke:#000000;stroke-width:0.8;" x="539.139386" xlink:href="#m465080accb" y="290.372359"/>
      </g>
     </g>
     <g id="text_23">
      <text style="font-family:DejaVu Sans;font-size:10px;font-style:normal;font-weight:normal;" transform="translate(526.224743 332.476896)rotate(-45)">basophil</text>
     </g>
    </g>
    <g id="xtick_13">
     <g id="line2d_46">
      <g>
       <use style="stroke:#000000;stroke-width:0.8;" x="574.642646" xlink:href="#m465080accb" y="290.372359"/>
      </g>
     </g>
     <g id="text_24">
      <text style="font-family:DejaVu Sans;font-size:10px;font-style:normal;font-weight:normal;" transform="translate(563.8554 328.222102)rotate(-45)">nkCells</text>
     </g>
    </g>
    <g id="xtick_14">
     <g id="line2d_47">
      <g>
       <use style="stroke:#000000;stroke-width:0.8;" x="610.145905" xlink:href="#m465080accb" y="290.372359"/>
      </g>
     </g>
     <g id="text_25">
      <text style="font-family:DejaVu Sans;font-size:10px;font-style:normal;font-weight:normal;" transform="translate(599.879599 326.983561)rotate(-45)">B_cells</text>
     </g>
    </g>
    <g id="xtick_15">
     <g id="line2d_48">
      <g>
       <use style="stroke:#000000;stroke-width:0.8;" x="645.649165" xlink:href="#m465080accb" y="290.372359"/>
      </g>
     </g>
     <g id="text_26">
      <text style="font-family:DejaVu Sans;font-size:10px;font-style:normal;font-weight:normal;" transform="translate(641.162352 315.621239)rotate(-45)">cd8</text>
     </g>
    </g>
    <g id="xtick_16">
     <g id="line2d_49">
      <g>
       <use style="stroke:#000000;stroke-width:0.8;" x="681.152425" xlink:href="#m465080accb" y="290.372359"/>
      </g>
     </g>
     <g id="text_27">
      <text style="font-family:DejaVu Sans;font-size:10px;font-style:normal;font-weight:normal;" transform="translate(676.665611 315.621239)rotate(-45)">cd4</text>
     </g>
    </g>
    <g id="text_28">
     <text style="font-family:DejaVu Sans;font-size:10px;font-style:normal;font-weight:normal;text-anchor:middle;" transform="rotate(-0, 556.891016, 347.120313)" x="556.891016" y="347.120313">Satpathy scATAC cell type</text>
    </g>
   </g>
   <g id="matplotlib.axis_4">
    <g id="ytick_9">
     <g id="line2d_50">
      <g>
       <use style="stroke:#000000;stroke-width:0.8;" x="404.582031" xlink:href="#m92906284f2" y="290.372359"/>
      </g>
     </g>
     <g id="text_29">
      <text style="font-family:DejaVu Sans;font-size:10px;font-style:normal;font-weight:normal;text-anchor:end;" transform="rotate(-0, 397.582031, 294.171578)" x="397.582031" y="294.171578">0.00</text>
     </g>
    </g>
    <g id="ytick_10">
     <g id="line2d_51">
      <g>
       <use style="stroke:#000000;stroke-width:0.8;" x="404.582031" xlink:href="#m92906284f2" y="256.750619"/>
      </g>
     </g>
     <g id="text_30">
      <text style="font-family:DejaVu Sans;font-size:10px;font-style:normal;font-weight:normal;text-anchor:end;" transform="rotate(-0, 397.582031, 260.549838)" x="397.582031" y="260.549838">0.25</text>
     </g>
    </g>
    <g id="ytick_11">
     <g id="line2d_52">
      <g>
       <use style="stroke:#000000;stroke-width:0.8;" x="404.582031" xlink:href="#m92906284f2" y="223.128879"/>
      </g>
     </g>
     <g id="text_31">
      <text style="font-family:DejaVu Sans;font-size:10px;font-style:normal;font-weight:normal;text-anchor:end;" transform="rotate(-0, 397.582031, 226.928098)" x="397.582031" y="226.928098">0.50</text>
     </g>
    </g>
    <g id="ytick_12">
     <g id="line2d_53">
      <g>
       <use style="stroke:#000000;stroke-width:0.8;" x="404.582031" xlink:href="#m92906284f2" y="189.507139"/>
      </g>
     </g>
     <g id="text_32">
      <text style="font-family:DejaVu Sans;font-size:10px;font-style:normal;font-weight:normal;text-anchor:end;" transform="rotate(-0, 397.582031, 193.306357)" x="397.582031" y="193.306357">0.75</text>
     </g>
    </g>
    <g id="ytick_13">
     <g id="line2d_54">
      <g>
       <use style="stroke:#000000;stroke-width:0.8;" x="404.582031" xlink:href="#m92906284f2" y="155.885398"/>
      </g>
     </g>
     <g id="text_33">
      <text style="font-family:DejaVu Sans;font-size:10px;font-style:normal;font-weight:normal;text-anchor:end;" transform="rotate(-0, 397.582031, 159.684617)" x="397.582031" y="159.684617">1.00</text>
     </g>
    </g>
    <g id="ytick_14">
     <g id="line2d_55">
      <g>
       <use style="stroke:#000000;stroke-width:0.8;" x="404.582031" xlink:href="#m92906284f2" y="122.263658"/>
      </g>
     </g>
     <g id="text_34">
      <text style="font-family:DejaVu Sans;font-size:10px;font-style:normal;font-weight:normal;text-anchor:end;" transform="rotate(-0, 397.582031, 126.062877)" x="397.582031" y="126.062877">1.25</text>
     </g>
    </g>
    <g id="ytick_15">
     <g id="line2d_56">
      <g>
       <use style="stroke:#000000;stroke-width:0.8;" x="404.582031" xlink:href="#m92906284f2" y="88.641918"/>
      </g>
     </g>
     <g id="text_35">
      <text style="font-family:DejaVu Sans;font-size:10px;font-style:normal;font-weight:normal;text-anchor:end;" transform="rotate(-0, 397.582031, 92.441137)" x="397.582031" y="92.441137">1.50</text>
     </g>
    </g>
    <g id="ytick_16">
     <g id="line2d_57">
      <g>
       <use style="stroke:#000000;stroke-width:0.8;" x="404.582031" xlink:href="#m92906284f2" y="55.020178"/>
      </g>
     </g>
     <g id="text_36">
      <text style="font-family:DejaVu Sans;font-size:10px;font-style:normal;font-weight:normal;text-anchor:end;" transform="rotate(-0, 397.582031, 58.819396)" x="397.582031" y="58.819396">1.75</text>
     </g>
    </g>
    <g id="ytick_17">
     <g id="line2d_58">
      <g>
       <use style="stroke:#000000;stroke-width:0.8;" x="404.582031" xlink:href="#m92906284f2" y="21.398438"/>
      </g>
     </g>
     <g id="text_37">
      <text style="font-family:DejaVu Sans;font-size:10px;font-style:normal;font-weight:normal;text-anchor:end;" transform="rotate(-0, 397.582031, 25.197656)" x="397.582031" y="25.197656">2.00</text>
     </g>
    </g>
    <g id="text_38">
     <text style="font-family:DejaVu Sans;font-size:10px;font-style:normal;font-weight:normal;text-anchor:middle;" transform="rotate(-90, 369.236719, 155.885398)" x="369.236719" y="155.885398">LDSC FDR -log10q (Jansen GWAS)</text>
    </g>
   </g>
   <g id="line2d_59">
    <path clip-path="url(#pb4a25594e5)" d="M 404.582031 115.400789 
L 709.2 115.400789 
" style="fill:none;stroke:#000000;stroke-dasharray:5.55,2.4;stroke-dashoffset:0;stroke-width:1.5;"/>
   </g>
   <g id="patch_16">
    <path d="M 404.582031 290.372359 
L 404.582031 21.398438 
" style="fill:none;stroke:#000000;stroke-linecap:square;stroke-linejoin:miter;stroke-width:0.8;"/>
   </g>
   <g id="patch_17">
    <path d="M 709.2 290.372359 
L 709.2 21.398438 
" style="fill:none;stroke:#000000;stroke-linecap:square;stroke-linejoin:miter;stroke-width:0.8;"/>
   </g>
   <g id="patch_18">
    <path d="M 404.582031 290.372359 
L 709.2 290.372359 
" style="fill:none;stroke:#000000;stroke-linecap:square;stroke-linejoin:miter;stroke-width:0.8;"/>
   </g>
   <g id="patch_19">
    <path d="M 404.582031 21.398438 
L 709.2 21.398438 
" style="fill:none;stroke:#000000;stroke-linecap:square;stroke-linejoin:miter;stroke-width:0.8;"/>
   </g>
  </g>
 </g>
 <defs>
  <clipPath id="p48d448911b">
   <rect height="268.973922" width="304.617969" x="46.220313" y="21.398438"/>
  </clipPath>
  <clipPath id="pb4a25594e5">
   <rect height="268.973922" width="304.617969" x="404.582031" y="21.398438"/>
  </clipPath>
 </defs>
</svg>
