<?xml version="1.0" encoding="utf-8" standalone="no"?>
<!DOCTYPE svg PUBLIC "-//W3C//DTD SVG 1.1//EN"
  "http://www.w3.org/Graphics/SVG/1.1/DTD/svg11.dtd">
<!-- Created with matplotlib (https://matplotlib.org/) -->
<svg height="360pt" version="1.1" viewBox="0 0 720 360" width="720pt" xmlns="http://www.w3.org/2000/svg" xmlns:xlink="http://www.w3.org/1999/xlink">
 <defs>
  <style type="text/css">
*{stroke-linecap:butt;stroke-linejoin:round;white-space:pre;}
  </style>
 </defs>
 <g id="figure_1">
  <g id="patch_1">
   <path d="M 0 360 
L 720 360 
L 720 0 
L 0 0 
z
" style="fill:#ffffff;"/>
  </g>
  <g id="axes_1">
   <g id="patch_2">
    <path d="M 46.220313 290.372359 
L 350.838281 290.372359 
L 350.838281 21.398438 
L 46.220313 21.398438 
z
" style="fill:#ffffff;"/>
   </g>
   <g id="matplotlib.axis_1">
    <g id="xtick_1">
     <g id="line2d_1">
      <defs>
       <path d="M 0 0 
L 0 3.5 
" id="m7faa45ab98" style="stroke:#000000;stroke-width:0.8;"/>
      </defs>
      <g>
       <use style="stroke:#000000;stroke-width:0.8;" x="60.066584" xlink:href="#m7faa45ab98" y="290.372359"/>
      </g>
     </g>
     <g id="text_1">
      <text style="font-family:DejaVu Sans;font-size:10px;font-style:normal;font-weight:normal;" transform="translate(52.006671 322.767436)rotate(-45)">mono</text>
     </g>
    </g>
    <g id="xtick_2">
     <g id="line2d_2">
      <g>
       <use style="stroke:#000000;stroke-width:0.8;" x="99.627359" xlink:href="#m7faa45ab98" y="290.372359"/>
      </g>
     </g>
     <g id="text_2">
      <text style="font-family:DejaVu Sans;font-size:10px;font-style:normal;font-weight:normal;" transform="translate(85.925508 334.051314)rotate(-45)">dendritic</text>
     </g>
    </g>
    <g id="xtick_3">
     <g id="line2d_3">
      <g>
       <use style="stroke:#000000;stroke-width:0.8;" x="139.188134" xlink:href="#m7faa45ab98" y="290.372359"/>
      </g>
     </g>
     <g id="text_3">
      <text style="font-family:DejaVu Sans;font-size:10px;font-style:normal;font-weight:normal;" transform="translate(126.273492 332.476896)rotate(-45)">basophil</text>
     </g>
    </g>
    <g id="xtick_4">
     <g id="line2d_4">
      <g>
       <use style="stroke:#000000;stroke-width:0.8;" x="178.748909" xlink:href="#m7faa45ab98" y="290.372359"/>
      </g>
     </g>
     <g id="text_4">
      <text style="font-family:DejaVu Sans;font-size:10px;font-style:normal;font-weight:normal;" transform="translate(168.17932 327.78679)rotate(-45)">progen</text>
     </g>
    </g>
    <g id="xtick_5">
     <g id="line2d_5">
      <g>
       <use style="stroke:#000000;stroke-width:0.8;" x="218.309684" xlink:href="#m7faa45ab98" y="290.372359"/>
      </g>
     </g>
     <g id="text_5">
      <text style="font-family:DejaVu Sans;font-size:10px;font-style:normal;font-weight:normal;" transform="translate(208.043378 326.983561)rotate(-45)">B_cells</text>
     </g>
    </g>
    <g id="xtick_6">
     <g id="line2d_6">
      <g>
       <use style="stroke:#000000;stroke-width:0.8;" x="257.87046" xlink:href="#m7faa45ab98" y="290.372359"/>
      </g>
     </g>
     <g id="text_6">
      <text style="font-family:DejaVu Sans;font-size:10px;font-style:normal;font-weight:normal;" transform="translate(247.083214 328.222102)rotate(-45)">nkCells</text>
     </g>
    </g>
    <g id="xtick_7">
     <g id="line2d_7">
      <g>
       <use style="stroke:#000000;stroke-width:0.8;" x="297.431235" xlink:href="#m7faa45ab98" y="290.372359"/>
      </g>
     </g>
     <g id="text_7">
      <text style="font-family:DejaVu Sans;font-size:10px;font-style:normal;font-weight:normal;" transform="translate(292.944421 315.621239)rotate(-45)">cd8</text>
     </g>
    </g>
    <g id="xtick_8">
     <g id="line2d_8">
      <g>
       <use style="stroke:#000000;stroke-width:0.8;" x="336.99201" xlink:href="#m7faa45ab98" y="290.372359"/>
      </g>
     </g>
     <g id="text_8">
      <text style="font-family:DejaVu Sans;font-size:10px;font-style:normal;font-weight:normal;" transform="translate(332.505196 315.621239)rotate(-45)">cd4</text>
     </g>
    </g>
    <g id="text_9">
     <text style="font-family:DejaVu Sans;font-size:10px;font-style:normal;font-weight:normal;text-anchor:middle;" transform="rotate(-0, 198.529297, 347.120313)" x="198.529297" y="347.120313">Satpathy scATAC cell type</text>
    </g>
   </g>
   <g id="matplotlib.axis_2">
    <g id="ytick_1">
     <g id="line2d_9">
      <defs>
       <path d="M 0 0 
L -3.5 0 
" id="m3ff3ad221a" style="stroke:#000000;stroke-width:0.8;"/>
      </defs>
      <g>
       <use style="stroke:#000000;stroke-width:0.8;" x="46.220313" xlink:href="#m3ff3ad221a" y="279.303899"/>
      </g>
     </g>
     <g id="text_10">
      <text style="font-family:DejaVu Sans;font-size:10px;font-style:normal;font-weight:normal;text-anchor:end;" transform="rotate(-0, 39.220313, 283.103118)" x="39.220313" y="283.103118">−3</text>
     </g>
    </g>
    <g id="ytick_2">
     <g id="line2d_10">
      <g>
       <use style="stroke:#000000;stroke-width:0.8;" x="46.220313" xlink:href="#m3ff3ad221a" y="245.289223"/>
      </g>
     </g>
     <g id="text_11">
      <text style="font-family:DejaVu Sans;font-size:10px;font-style:normal;font-weight:normal;text-anchor:end;" transform="rotate(-0, 39.220313, 249.088441)" x="39.220313" y="249.088441">−2</text>
     </g>
    </g>
    <g id="ytick_3">
     <g id="line2d_11">
      <g>
       <use style="stroke:#000000;stroke-width:0.8;" x="46.220313" xlink:href="#m3ff3ad221a" y="211.274546"/>
      </g>
     </g>
     <g id="text_12">
      <text style="font-family:DejaVu Sans;font-size:10px;font-style:normal;font-weight:normal;text-anchor:end;" transform="rotate(-0, 39.220313, 215.073765)" x="39.220313" y="215.073765">−1</text>
     </g>
    </g>
    <g id="ytick_4">
     <g id="line2d_12">
      <g>
       <use style="stroke:#000000;stroke-width:0.8;" x="46.220313" xlink:href="#m3ff3ad221a" y="177.25987"/>
      </g>
     </g>
     <g id="text_13">
      <text style="font-family:DejaVu Sans;font-size:10px;font-style:normal;font-weight:normal;text-anchor:end;" transform="rotate(-0, 39.220313, 181.059088)" x="39.220313" y="181.059088">0</text>
     </g>
    </g>
    <g id="ytick_5">
     <g id="line2d_13">
      <g>
       <use style="stroke:#000000;stroke-width:0.8;" x="46.220313" xlink:href="#m3ff3ad221a" y="143.245193"/>
      </g>
     </g>
     <g id="text_14">
      <text style="font-family:DejaVu Sans;font-size:10px;font-style:normal;font-weight:normal;text-anchor:end;" transform="rotate(-0, 39.220313, 147.044412)" x="39.220313" y="147.044412">1</text>
     </g>
    </g>
    <g id="ytick_6">
     <g id="line2d_14">
      <g>
       <use style="stroke:#000000;stroke-width:0.8;" x="46.220313" xlink:href="#m3ff3ad221a" y="109.230517"/>
      </g>
     </g>
     <g id="text_15">
      <text style="font-family:DejaVu Sans;font-size:10px;font-style:normal;font-weight:normal;text-anchor:end;" transform="rotate(-0, 39.220313, 113.029735)" x="39.220313" y="113.029735">2</text>
     </g>
    </g>
    <g id="ytick_7">
     <g id="line2d_15">
      <g>
       <use style="stroke:#000000;stroke-width:0.8;" x="46.220313" xlink:href="#m3ff3ad221a" y="75.21584"/>
      </g>
     </g>
     <g id="text_16">
      <text style="font-family:DejaVu Sans;font-size:10px;font-style:normal;font-weight:normal;text-anchor:end;" transform="rotate(-0, 39.220313, 79.015059)" x="39.220313" y="79.015059">3</text>
     </g>
    </g>
    <g id="ytick_8">
     <g id="line2d_16">
      <g>
       <use style="stroke:#000000;stroke-width:0.8;" x="46.220313" xlink:href="#m3ff3ad221a" y="41.201164"/>
      </g>
     </g>
     <g id="text_17">
      <text style="font-family:DejaVu Sans;font-size:10px;font-style:normal;font-weight:normal;text-anchor:end;" transform="rotate(-0, 39.220313, 45.000382)" x="39.220313" y="45.000382">4</text>
     </g>
    </g>
    <g id="text_18">
     <text style="font-family:DejaVu Sans;font-size:10px;font-style:normal;font-weight:normal;text-anchor:middle;" transform="rotate(-90, 18.398438, 155.885398)" x="18.398438" y="155.885398">LDSC Coefficient (Kunkle GWAS)</text>
    </g>
    <g id="text_19">
     <text style="font-family:DejaVu Sans;font-size:10px;font-style:normal;font-weight:normal;text-anchor:start;" transform="rotate(-0, 46.220313, 18.398438)" x="46.220313" y="18.398438">1e−7</text>
    </g>
   </g>
   <g id="LineCollection_1">
    <path clip-path="url(#padad324b25)" d="M 60.066584 104.133795 
L 60.066584 33.624525 
" style="fill:none;stroke:#1f77b4;stroke-width:1.5;"/>
   </g>
   <g id="LineCollection_2">
    <path clip-path="url(#padad324b25)" d="M 99.627359 127.777322 
L 99.627359 71.859167 
" style="fill:none;stroke:#ff7f0e;stroke-width:1.5;"/>
   </g>
   <g id="LineCollection_3">
    <path clip-path="url(#padad324b25)" d="M 139.188134 145.075618 
L 139.188134 71.266338 
" style="fill:none;stroke:#2ca02c;stroke-width:1.5;"/>
   </g>
   <g id="LineCollection_4">
    <path clip-path="url(#padad324b25)" d="M 178.748909 155.608948 
L 178.748909 105.559708 
" style="fill:none;stroke:#d62728;stroke-width:1.5;"/>
   </g>
   <g id="LineCollection_5">
    <path clip-path="url(#padad324b25)" d="M 218.309684 252.09904 
L 218.309684 198.580958 
" style="fill:none;stroke:#9467bd;stroke-width:1.5;"/>
   </g>
   <g id="LineCollection_6">
    <path clip-path="url(#padad324b25)" d="M 257.87046 262.267167 
L 257.87046 206.126992 
" style="fill:none;stroke:#8c564b;stroke-width:1.5;"/>
   </g>
   <g id="LineCollection_7">
    <path clip-path="url(#padad324b25)" d="M 297.431235 277.220575 
L 297.431235 217.905412 
" style="fill:none;stroke:#e377c2;stroke-width:1.5;"/>
   </g>
   <g id="LineCollection_8">
    <path clip-path="url(#padad324b25)" d="M 336.99201 278.146272 
L 336.99201 229.737506 
" style="fill:none;stroke:#7f7f7f;stroke-width:1.5;"/>
   </g>
   <g id="line2d_17">
    <defs>
     <path d="M 5 0 
L -5 -0 
" id="mce10de7900" style="stroke:#1f77b4;"/>
    </defs>
    <g clip-path="url(#padad324b25)">
     <use style="fill:#1f77b4;stroke:#1f77b4;" x="60.066584" xlink:href="#mce10de7900" y="104.133795"/>
    </g>
   </g>
   <g id="line2d_18">
    <g clip-path="url(#padad324b25)">
     <use style="fill:#1f77b4;stroke:#1f77b4;" x="60.066584" xlink:href="#mce10de7900" y="33.624525"/>
    </g>
   </g>
   <g id="line2d_19">
    <defs>
     <path d="M 5 0 
L -5 -0 
" id="m6fb19551ae" style="stroke:#ff7f0e;"/>
    </defs>
    <g clip-path="url(#padad324b25)">
     <use style="fill:#ff7f0e;stroke:#ff7f0e;" x="99.627359" xlink:href="#m6fb19551ae" y="127.777322"/>
    </g>
   </g>
   <g id="line2d_20">
    <g clip-path="url(#padad324b25)">
     <use style="fill:#ff7f0e;stroke:#ff7f0e;" x="99.627359" xlink:href="#m6fb19551ae" y="71.859167"/>
    </g>
   </g>
   <g id="line2d_21">
    <defs>
     <path d="M 5 0 
L -5 -0 
" id="m250f1faddd" style="stroke:#2ca02c;"/>
    </defs>
    <g clip-path="url(#padad324b25)">
     <use style="fill:#2ca02c;stroke:#2ca02c;" x="139.188134" xlink:href="#m250f1faddd" y="145.075618"/>
    </g>
   </g>
   <g id="line2d_22">
    <g clip-path="url(#padad324b25)">
     <use style="fill:#2ca02c;stroke:#2ca02c;" x="139.188134" xlink:href="#m250f1faddd" y="71.266338"/>
    </g>
   </g>
   <g id="line2d_23">
    <defs>
     <path d="M 5 0 
L -5 -0 
" id="m3ccd05198e" style="stroke:#d62728;"/>
    </defs>
    <g clip-path="url(#padad324b25)">
     <use style="fill:#d62728;stroke:#d62728;" x="178.748909" xlink:href="#m3ccd05198e" y="155.608948"/>
    </g>
   </g>
   <g id="line2d_24">
    <g clip-path="url(#padad324b25)">
     <use style="fill:#d62728;stroke:#d62728;" x="178.748909" xlink:href="#m3ccd05198e" y="105.559708"/>
    </g>
   </g>
   <g id="line2d_25">
    <defs>
     <path d="M 5 0 
L -5 -0 
" id="m782bc0bc59" style="stroke:#9467bd;"/>
    </defs>
    <g clip-path="url(#padad324b25)">
     <use style="fill:#9467bd;stroke:#9467bd;" x="218.309684" xlink:href="#m782bc0bc59" y="252.09904"/>
    </g>
   </g>
   <g id="line2d_26">
    <g clip-path="url(#padad324b25)">
     <use style="fill:#9467bd;stroke:#9467bd;" x="218.309684" xlink:href="#m782bc0bc59" y="198.580958"/>
    </g>
   </g>
   <g id="line2d_27">
    <defs>
     <path d="M 5 0 
L -5 -0 
" id="m6f56d23d34" style="stroke:#8c564b;"/>
    </defs>
    <g clip-path="url(#padad324b25)">
     <use style="fill:#8c564b;stroke:#8c564b;" x="257.87046" xlink:href="#m6f56d23d34" y="262.267167"/>
    </g>
   </g>
   <g id="line2d_28">
    <g clip-path="url(#padad324b25)">
     <use style="fill:#8c564b;stroke:#8c564b;" x="257.87046" xlink:href="#m6f56d23d34" y="206.126992"/>
    </g>
   </g>
   <g id="line2d_29">
    <defs>
     <path d="M 5 0 
L -5 -0 
" id="mb2ff045338" style="stroke:#e377c2;"/>
    </defs>
    <g clip-path="url(#padad324b25)">
     <use style="fill:#e377c2;stroke:#e377c2;" x="297.431235" xlink:href="#mb2ff045338" y="277.220575"/>
    </g>
   </g>
   <g id="line2d_30">
    <g clip-path="url(#padad324b25)">
     <use style="fill:#e377c2;stroke:#e377c2;" x="297.431235" xlink:href="#mb2ff045338" y="217.905412"/>
    </g>
   </g>
   <g id="line2d_31">
    <defs>
     <path d="M 5 0 
L -5 -0 
" id="mbb13280055" style="stroke:#7f7f7f;"/>
    </defs>
    <g clip-path="url(#padad324b25)">
     <use style="fill:#7f7f7f;stroke:#7f7f7f;" x="336.99201" xlink:href="#mbb13280055" y="278.146272"/>
    </g>
   </g>
   <g id="line2d_32">
    <g clip-path="url(#padad324b25)">
     <use style="fill:#7f7f7f;stroke:#7f7f7f;" x="336.99201" xlink:href="#mbb13280055" y="229.737506"/>
    </g>
   </g>
   <g id="line2d_33">
    <path clip-path="url(#padad324b25)" d="M 46.220313 177.25987 
L 350.838281 177.25987 
" style="fill:none;stroke:#000000;stroke-dasharray:5.55,2.4;stroke-dashoffset:0;stroke-width:1.5;"/>
   </g>
   <g id="line2d_34">
    <defs>
     <path d="M 0 3 
C 0.795609 3 1.55874 2.683901 2.12132 2.12132 
C 2.683901 1.55874 3 0.795609 3 0 
C 3 -0.795609 2.683901 -1.55874 2.12132 -2.12132 
C 1.55874 -2.683901 0.795609 -3 0 -3 
C -0.795609 -3 -1.55874 -2.683901 -2.12132 -2.12132 
C -2.683901 -1.55874 -3 -0.795609 -3 0 
C -3 0.795609 -2.683901 1.55874 -2.12132 2.12132 
C -1.55874 2.683901 -0.795609 3 0 3 
z
" id="m078a23d439" style="stroke:#1f77b4;"/>
    </defs>
    <g clip-path="url(#padad324b25)">
     <use style="fill:#1f77b4;stroke:#1f77b4;" x="60.066584" xlink:href="#m078a23d439" y="68.87916"/>
    </g>
   </g>
   <g id="line2d_35">
    <defs>
     <path d="M 0 3 
C 0.795609 3 1.55874 2.683901 2.12132 2.12132 
C 2.683901 1.55874 3 0.795609 3 0 
C 3 -0.795609 2.683901 -1.55874 2.12132 -2.12132 
C 1.55874 -2.683901 0.795609 -3 0 -3 
C -0.795609 -3 -1.55874 -2.683901 -2.12132 -2.12132 
C -2.683901 -1.55874 -3 -0.795609 -3 0 
C -3 0.795609 -2.683901 1.55874 -2.12132 2.12132 
C -1.55874 2.683901 -0.795609 3 0 3 
z
" id="m54e88a2af5" style="stroke:#ff7f0e;"/>
    </defs>
    <g clip-path="url(#padad324b25)">
     <use style="fill:#ff7f0e;stroke:#ff7f0e;" x="99.627359" xlink:href="#m54e88a2af5" y="99.818245"/>
    </g>
   </g>
   <g id="line2d_36">
    <defs>
     <path d="M 0 3 
C 0.795609 3 1.55874 2.683901 2.12132 2.12132 
C 2.683901 1.55874 3 0.795609 3 0 
C 3 -0.795609 2.683901 -1.55874 2.12132 -2.12132 
C 1.55874 -2.683901 0.795609 -3 0 -3 
C -0.795609 -3 -1.55874 -2.683901 -2.12132 -2.12132 
C -2.683901 -1.55874 -3 -0.795609 -3 0 
C -3 0.795609 -2.683901 1.55874 -2.12132 2.12132 
C -1.55874 2.683901 -0.795609 3 0 3 
z
" id="m3e8f345d17" style="stroke:#2ca02c;"/>
    </defs>
    <g clip-path="url(#padad324b25)">
     <use style="fill:#2ca02c;stroke:#2ca02c;" x="139.188134" xlink:href="#m3e8f345d17" y="108.170978"/>
    </g>
   </g>
   <g id="line2d_37">
    <defs>
     <path d="M 0 3 
C 0.795609 3 1.55874 2.683901 2.12132 2.12132 
C 2.683901 1.55874 3 0.795609 3 0 
C 3 -0.795609 2.683901 -1.55874 2.12132 -2.12132 
C 1.55874 -2.683901 0.795609 -3 0 -3 
C -0.795609 -3 -1.55874 -2.683901 -2.12132 -2.12132 
C -2.683901 -1.55874 -3 -0.795609 -3 0 
C -3 0.795609 -2.683901 1.55874 -2.12132 2.12132 
C -1.55874 2.683901 -0.795609 3 0 3 
z
" id="ma745cdd532" style="stroke:#d62728;"/>
    </defs>
    <g clip-path="url(#padad324b25)">
     <use style="fill:#d62728;stroke:#d62728;" x="178.748909" xlink:href="#ma745cdd532" y="130.584328"/>
    </g>
   </g>
   <g id="line2d_38">
    <defs>
     <path d="M 0 3 
C 0.795609 3 1.55874 2.683901 2.12132 2.12132 
C 2.683901 1.55874 3 0.795609 3 0 
C 3 -0.795609 2.683901 -1.55874 2.12132 -2.12132 
C 1.55874 -2.683901 0.795609 -3 0 -3 
C -0.795609 -3 -1.55874 -2.683901 -2.12132 -2.12132 
C -2.683901 -1.55874 -3 -0.795609 -3 0 
C -3 0.795609 -2.683901 1.55874 -2.12132 2.12132 
C -1.55874 2.683901 -0.795609 3 0 3 
z
" id="m007af48d79" style="stroke:#9467bd;"/>
    </defs>
    <g clip-path="url(#padad324b25)">
     <use style="fill:#9467bd;stroke:#9467bd;" x="218.309684" xlink:href="#m007af48d79" y="225.339999"/>
    </g>
   </g>
   <g id="line2d_39">
    <defs>
     <path d="M 0 3 
C 0.795609 3 1.55874 2.683901 2.12132 2.12132 
C 2.683901 1.55874 3 0.795609 3 0 
C 3 -0.795609 2.683901 -1.55874 2.12132 -2.12132 
C 1.55874 -2.683901 0.795609 -3 0 -3 
C -0.795609 -3 -1.55874 -2.683901 -2.12132 -2.12132 
C -2.683901 -1.55874 -3 -0.795609 -3 0 
C -3 0.795609 -2.683901 1.55874 -2.12132 2.12132 
C -1.55874 2.683901 -0.795609 3 0 3 
z
" id="m29029f5b19" style="stroke:#8c564b;"/>
    </defs>
    <g clip-path="url(#padad324b25)">
     <use style="fill:#8c564b;stroke:#8c564b;" x="257.87046" xlink:href="#m29029f5b19" y="234.197079"/>
    </g>
   </g>
   <g id="line2d_40">
    <defs>
     <path d="M 0 3 
C 0.795609 3 1.55874 2.683901 2.12132 2.12132 
C 2.683901 1.55874 3 0.795609 3 0 
C 3 -0.795609 2.683901 -1.55874 2.12132 -2.12132 
C 1.55874 -2.683901 0.795609 -3 0 -3 
C -0.795609 -3 -1.55874 -2.683901 -2.12132 -2.12132 
C -2.683901 -1.55874 -3 -0.795609 -3 0 
C -3 0.795609 -2.683901 1.55874 -2.12132 2.12132 
C -1.55874 2.683901 -0.795609 3 0 3 
z
" id="mf96cd12cca" style="stroke:#e377c2;"/>
    </defs>
    <g clip-path="url(#padad324b25)">
     <use style="fill:#e377c2;stroke:#e377c2;" x="297.431235" xlink:href="#mf96cd12cca" y="247.562994"/>
    </g>
   </g>
   <g id="line2d_41">
    <defs>
     <path d="M 0 3 
C 0.795609 3 1.55874 2.683901 2.12132 2.12132 
C 2.683901 1.55874 3 0.795609 3 0 
C 3 -0.795609 2.683901 -1.55874 2.12132 -2.12132 
C 1.55874 -2.683901 0.795609 -3 0 -3 
C -0.795609 -3 -1.55874 -2.683901 -2.12132 -2.12132 
C -2.683901 -1.55874 -3 -0.795609 -3 0 
C -3 0.795609 -2.683901 1.55874 -2.12132 2.12132 
C -1.55874 2.683901 -0.795609 3 0 3 
z
" id="mafd81a459d" style="stroke:#7f7f7f;"/>
    </defs>
    <g clip-path="url(#padad324b25)">
     <use style="fill:#7f7f7f;stroke:#7f7f7f;" x="336.99201" xlink:href="#mafd81a459d" y="253.941889"/>
    </g>
   </g>
   <g id="patch_3">
    <path d="M 46.220313 290.372359 
L 46.220313 21.398438 
" style="fill:none;stroke:#000000;stroke-linecap:square;stroke-linejoin:miter;stroke-width:0.8;"/>
   </g>
   <g id="patch_4">
    <path d="M 350.838281 290.372359 
L 350.838281 21.398438 
" style="fill:none;stroke:#000000;stroke-linecap:square;stroke-linejoin:miter;stroke-width:0.8;"/>
   </g>
   <g id="patch_5">
    <path d="M 46.220313 290.372359 
L 350.838281 290.372359 
" style="fill:none;stroke:#000000;stroke-linecap:square;stroke-linejoin:miter;stroke-width:0.8;"/>
   </g>
   <g id="patch_6">
    <path d="M 46.220313 21.398438 
L 350.838281 21.398438 
" style="fill:none;stroke:#000000;stroke-linecap:square;stroke-linejoin:miter;stroke-width:0.8;"/>
   </g>
  </g>
  <g id="axes_2">
   <g id="patch_7">
    <path d="M 404.582031 290.372359 
L 709.2 290.372359 
L 709.2 21.398438 
L 404.582031 21.398438 
z
" style="fill:#ffffff;"/>
   </g>
   <g id="patch_8">
    <path clip-path="url(#p79d20b9657)" d="M 418.428303 290.372359 
L 446.83091 290.372359 
L 446.83091 11.506192 
L 418.428303 11.506192 
z
" style="fill:#1f77b4;"/>
   </g>
   <g id="patch_9">
    <path clip-path="url(#p79d20b9657)" d="M 453.931562 290.372359 
L 482.33417 290.372359 
L 482.33417 28.108496 
L 453.931562 28.108496 
z
" style="fill:#ff7f0e;"/>
   </g>
   <g id="patch_10">
    <path clip-path="url(#p79d20b9657)" d="M 489.434822 290.372359 
L 517.83743 290.372359 
L 517.83743 128.111096 
L 489.434822 128.111096 
z
" style="fill:#2ca02c;"/>
   </g>
   <g id="patch_11">
    <path clip-path="url(#p79d20b9657)" d="M 524.938082 290.372359 
L 553.34069 290.372359 
L 553.34069 128.111096 
L 524.938082 128.111096 
z
" style="fill:#d62728;"/>
   </g>
   <g id="patch_12">
    <path clip-path="url(#p79d20b9657)" d="M 560.441342 290.372359 
L 588.843949 290.372359 
L 588.843949 290.327533 
L 560.441342 290.327533 
z
" style="fill:#9467bd;"/>
   </g>
   <g id="patch_13">
    <path clip-path="url(#p79d20b9657)" d="M 595.944601 290.372359 
L 624.347209 290.372359 
L 624.347209 290.327533 
L 595.944601 290.327533 
z
" style="fill:#8c564b;"/>
   </g>
   <g id="patch_14">
    <path clip-path="url(#p79d20b9657)" d="M 631.447861 290.372359 
L 659.850469 290.372359 
L 659.850469 290.327533 
L 631.447861 290.327533 
z
" style="fill:#e377c2;"/>
   </g>
   <g id="patch_15">
    <path clip-path="url(#p79d20b9657)" d="M 666.951121 290.372359 
L 695.353729 290.372359 
L 695.353729 290.327533 
L 666.951121 290.327533 
z
" style="fill:#7f7f7f;"/>
   </g>
   <g id="matplotlib.axis_3">
    <g id="xtick_9">
     <g id="line2d_42">
      <g>
       <use style="stroke:#000000;stroke-width:0.8;" x="432.629606" xlink:href="#m7faa45ab98" y="290.372359"/>
      </g>
     </g>
     <g id="text_20">
      <text style="font-family:DejaVu Sans;font-size:10px;font-style:normal;font-weight:normal;" transform="translate(424.569694 322.767436)rotate(-45)">mono</text>
     </g>
    </g>
    <g id="xtick_10">
     <g id="line2d_43">
      <g>
       <use style="stroke:#000000;stroke-width:0.8;" x="468.132866" xlink:href="#m7faa45ab98" y="290.372359"/>
      </g>
     </g>
     <g id="text_21">
      <text style="font-family:DejaVu Sans;font-size:10px;font-style:normal;font-weight:normal;" transform="translate(454.431015 334.051314)rotate(-45)">dendritic</text>
     </g>
    </g>
    <g id="xtick_11">
     <g id="line2d_44">
      <g>
       <use style="stroke:#000000;stroke-width:0.8;" x="503.636126" xlink:href="#m7faa45ab98" y="290.372359"/>
      </g>
     </g>
     <g id="text_22">
      <text style="font-family:DejaVu Sans;font-size:10px;font-style:normal;font-weight:normal;" transform="translate(490.721484 332.476896)rotate(-45)">basophil</text>
     </g>
    </g>
    <g id="xtick_12">
     <g id="line2d_45">
      <g>
       <use style="stroke:#000000;stroke-width:0.8;" x="539.139386" xlink:href="#m7faa45ab98" y="290.372359"/>
      </g>
     </g>
     <g id="text_23">
      <text style="font-family:DejaVu Sans;font-size:10px;font-style:normal;font-weight:normal;" transform="translate(528.569797 327.78679)rotate(-45)">progen</text>
     </g>
    </g>
    <g id="xtick_13">
     <g id="line2d_46">
      <g>
       <use style="stroke:#000000;stroke-width:0.8;" x="574.642646" xlink:href="#m7faa45ab98" y="290.372359"/>
      </g>
     </g>
     <g id="text_24">
      <text style="font-family:DejaVu Sans;font-size:10px;font-style:normal;font-weight:normal;" transform="translate(564.376339 326.983561)rotate(-45)">B_cells</text>
     </g>
    </g>
    <g id="xtick_14">
     <g id="line2d_47">
      <g>
       <use style="stroke:#000000;stroke-width:0.8;" x="610.145905" xlink:href="#m7faa45ab98" y="290.372359"/>
      </g>
     </g>
     <g id="text_25">
      <text style="font-family:DejaVu Sans;font-size:10px;font-style:normal;font-weight:normal;" transform="translate(599.35866 328.222102)rotate(-45)">nkCells</text>
     </g>
    </g>
    <g id="xtick_15">
     <g id="line2d_48">
      <g>
       <use style="stroke:#000000;stroke-width:0.8;" x="645.649165" xlink:href="#m7faa45ab98" y="290.372359"/>
      </g>
     </g>
     <g id="text_26">
      <text style="font-family:DejaVu Sans;font-size:10px;font-style:normal;font-weight:normal;" transform="translate(641.162352 315.621239)rotate(-45)">cd8</text>
     </g>
    </g>
    <g id="xtick_16">
     <g id="line2d_49">
      <g>
       <use style="stroke:#000000;stroke-width:0.8;" x="681.152425" xlink:href="#m7faa45ab98" y="290.372359"/>
      </g>
     </g>
     <g id="text_27">
      <text style="font-family:DejaVu Sans;font-size:10px;font-style:normal;font-weight:normal;" transform="translate(676.665611 315.621239)rotate(-45)">cd4</text>
     </g>
    </g>
    <g id="text_28">
     <text style="font-family:DejaVu Sans;font-size:10px;font-style:normal;font-weight:normal;text-anchor:middle;" transform="rotate(-0, 556.891016, 347.120313)" x="556.891016" y="347.120313">Satpathy scATAC cell type</text>
    </g>
   </g>
   <g id="matplotlib.axis_4">
    <g id="ytick_9">
     <g id="line2d_50">
      <g>
       <use style="stroke:#000000;stroke-width:0.8;" x="404.582031" xlink:href="#m3ff3ad221a" y="290.372359"/>
      </g>
     </g>
     <g id="text_29">
      <text style="font-family:DejaVu Sans;font-size:10px;font-style:normal;font-weight:normal;text-anchor:end;" transform="rotate(-0, 397.582031, 294.171578)" x="397.582031" y="294.171578">0.00</text>
     </g>
    </g>
    <g id="ytick_10">
     <g id="line2d_51">
      <g>
       <use style="stroke:#000000;stroke-width:0.8;" x="404.582031" xlink:href="#m3ff3ad221a" y="256.750619"/>
      </g>
     </g>
     <g id="text_30">
      <text style="font-family:DejaVu Sans;font-size:10px;font-style:normal;font-weight:normal;text-anchor:end;" transform="rotate(-0, 397.582031, 260.549838)" x="397.582031" y="260.549838">0.25</text>
     </g>
    </g>
    <g id="ytick_11">
     <g id="line2d_52">
      <g>
       <use style="stroke:#000000;stroke-width:0.8;" x="404.582031" xlink:href="#m3ff3ad221a" y="223.128879"/>
      </g>
     </g>
     <g id="text_31">
      <text style="font-family:DejaVu Sans;font-size:10px;font-style:normal;font-weight:normal;text-anchor:end;" transform="rotate(-0, 397.582031, 226.928098)" x="397.582031" y="226.928098">0.50</text>
     </g>
    </g>
    <g id="ytick_12">
     <g id="line2d_53">
      <g>
       <use style="stroke:#000000;stroke-width:0.8;" x="404.582031" xlink:href="#m3ff3ad221a" y="189.507139"/>
      </g>
     </g>
     <g id="text_32">
      <text style="font-family:DejaVu Sans;font-size:10px;font-style:normal;font-weight:normal;text-anchor:end;" transform="rotate(-0, 397.582031, 193.306357)" x="397.582031" y="193.306357">0.75</text>
     </g>
    </g>
    <g id="ytick_13">
     <g id="line2d_54">
      <g>
       <use style="stroke:#000000;stroke-width:0.8;" x="404.582031" xlink:href="#m3ff3ad221a" y="155.885398"/>
      </g>
     </g>
     <g id="text_33">
      <text style="font-family:DejaVu Sans;font-size:10px;font-style:normal;font-weight:normal;text-anchor:end;" transform="rotate(-0, 397.582031, 159.684617)" x="397.582031" y="159.684617">1.00</text>
     </g>
    </g>
    <g id="ytick_14">
     <g id="line2d_55">
      <g>
       <use style="stroke:#000000;stroke-width:0.8;" x="404.582031" xlink:href="#m3ff3ad221a" y="122.263658"/>
      </g>
     </g>
     <g id="text_34">
      <text style="font-family:DejaVu Sans;font-size:10px;font-style:normal;font-weight:normal;text-anchor:end;" transform="rotate(-0, 397.582031, 126.062877)" x="397.582031" y="126.062877">1.25</text>
     </g>
    </g>
    <g id="ytick_15">
     <g id="line2d_56">
      <g>
       <use style="stroke:#000000;stroke-width:0.8;" x="404.582031" xlink:href="#m3ff3ad221a" y="88.641918"/>
      </g>
     </g>
     <g id="text_35">
      <text style="font-family:DejaVu Sans;font-size:10px;font-style:normal;font-weight:normal;text-anchor:end;" transform="rotate(-0, 397.582031, 92.441137)" x="397.582031" y="92.441137">1.50</text>
     </g>
    </g>
    <g id="ytick_16">
     <g id="line2d_57">
      <g>
       <use style="stroke:#000000;stroke-width:0.8;" x="404.582031" xlink:href="#m3ff3ad221a" y="55.020178"/>
      </g>
     </g>
     <g id="text_36">
      <text style="font-family:DejaVu Sans;font-size:10px;font-style:normal;font-weight:normal;text-anchor:end;" transform="rotate(-0, 397.582031, 58.819396)" x="397.582031" y="58.819396">1.75</text>
     </g>
    </g>
    <g id="ytick_17">
     <g id="line2d_58">
      <g>
       <use style="stroke:#000000;stroke-width:0.8;" x="404.582031" xlink:href="#m3ff3ad221a" y="21.398438"/>
      </g>
     </g>
     <g id="text_37">
      <text style="font-family:DejaVu Sans;font-size:10px;font-style:normal;font-weight:normal;text-anchor:end;" transform="rotate(-0, 397.582031, 25.197656)" x="397.582031" y="25.197656">2.00</text>
     </g>
    </g>
    <g id="text_38">
     <text style="font-family:DejaVu Sans;font-size:10px;font-style:normal;font-weight:normal;text-anchor:middle;" transform="rotate(-90, 369.236719, 155.885398)" x="369.236719" y="155.885398">LDSC FDR -log10q (Kunkle GWAS)</text>
    </g>
   </g>
   <g id="line2d_59">
    <path clip-path="url(#p79d20b9657)" d="M 404.582031 115.400789 
L 709.2 115.400789 
" style="fill:none;stroke:#000000;stroke-dasharray:5.55,2.4;stroke-dashoffset:0;stroke-width:1.5;"/>
   </g>
   <g id="patch_16">
    <path d="M 404.582031 290.372359 
L 404.582031 21.398438 
" style="fill:none;stroke:#000000;stroke-linecap:square;stroke-linejoin:miter;stroke-width:0.8;"/>
   </g>
   <g id="patch_17">
    <path d="M 709.2 290.372359 
L 709.2 21.398438 
" style="fill:none;stroke:#000000;stroke-linecap:square;stroke-linejoin:miter;stroke-width:0.8;"/>
   </g>
   <g id="patch_18">
    <path d="M 404.582031 290.372359 
L 709.2 290.372359 
" style="fill:none;stroke:#000000;stroke-linecap:square;stroke-linejoin:miter;stroke-width:0.8;"/>
   </g>
   <g id="patch_19">
    <path d="M 404.582031 21.398438 
L 709.2 21.398438 
" style="fill:none;stroke:#000000;stroke-linecap:square;stroke-linejoin:miter;stroke-width:0.8;"/>
   </g>
  </g>
 </g>
 <defs>
  <clipPath id="padad324b25">
   <rect height="268.973922" width="304.617969" x="46.220313" y="21.398438"/>
  </clipPath>
  <clipPath id="p79d20b9657">
   <rect height="268.973922" width="304.617969" x="404.582031" y="21.398438"/>
  </clipPath>
 </defs>
</svg>
