<?xml version="1.0" encoding="utf-8" standalone="no"?>
<!DOCTYPE svg PUBLIC "-//W3C//DTD SVG 1.1//EN"
  "http://www.w3.org/Graphics/SVG/1.1/DTD/svg11.dtd">
<!-- Created with matplotlib (https://matplotlib.org/) -->
<svg height="576pt" version="1.1" viewBox="0 0 576 576" width="576pt" xmlns="http://www.w3.org/2000/svg" xmlns:xlink="http://www.w3.org/1999/xlink">
 <metadata>
  <rdf:RDF xmlns:cc="http://creativecommons.org/ns#" xmlns:dc="http://purl.org/dc/elements/1.1/" xmlns:rdf="http://www.w3.org/1999/02/22-rdf-syntax-ns#">
   <cc:Work>
    <dc:type rdf:resource="http://purl.org/dc/dcmitype/StillImage"/>
    <dc:date>2022-03-30T23:05:14.965745</dc:date>
    <dc:format>image/svg+xml</dc:format>
    <dc:creator>
     <cc:Agent>
      <dc:title>Matplotlib v3.3.4, https://matplotlib.org/</dc:title>
     </cc:Agent>
    </dc:creator>
   </cc:Work>
  </rdf:RDF>
 </metadata>
 <defs>
  <style type="text/css">*{stroke-linecap:butt;stroke-linejoin:round;}</style>
 </defs>
 <g id="figure_1">
  <g id="patch_1">
   <path d="M 0 576 
L 576 576 
L 576 0 
L 0 0 
z
" style="fill:none;"/>
  </g>
  <g id="axes_1">
   <g id="patch_2">
    <path d="M 81.996875 504.13125 
L 517.696534 504.13125 
L 517.696534 21.6 
L 81.996875 21.6 
z
" style="fill:#ffffff;"/>
   </g>
   <g id="PathCollection_1">
    <path clip-path="url(#p5abd2607fa)" d="M 135.492583 353.182277 
L 137.26035 351.41451 
L 139.028117 353.182277 
L 140.795884 351.41451 
L 139.028117 349.646743 
L 140.795884 347.878976 
L 139.028117 346.111209 
L 137.26035 347.878976 
L 135.492583 346.111209 
L 133.724816 347.878976 
L 135.492583 349.646743 
L 133.724816 351.41451 
z
" style="fill:#1f77b4;stroke:#ffffff;stroke-width:0.565685;"/>
    <path clip-path="url(#p5abd2607fa)" d="M 166.298565 372.508289 
L 168.066332 370.740522 
L 169.834099 372.508289 
L 171.601866 370.740522 
L 169.834099 368.972755 
L 171.601866 367.204988 
L 169.834099 365.437221 
L 168.066332 367.204988 
L 166.298565 365.437221 
L 164.530798 367.204988 
L 166.298565 368.972755 
L 164.530798 370.740522 
z
" style="fill:#1f77b4;stroke:#ffffff;stroke-width:0.565685;"/>
    <path clip-path="url(#p5abd2607fa)" d="M 138.772359 344.22572 
L 140.540126 342.457953 
L 142.307893 344.22572 
L 144.07566 342.457953 
L 142.307893 340.690186 
L 144.07566 338.922419 
L 142.307893 337.154652 
L 140.540126 338.922419 
L 138.772359 337.154652 
L 137.004593 338.922419 
L 138.772359 340.690186 
L 137.004593 342.457953 
z
" style="fill:#1f77b4;stroke:#ffffff;stroke-width:0.565685;"/>
    <path clip-path="url(#p5abd2607fa)" d="M 177.844635 356.97481 
L 179.612402 355.207043 
L 181.380169 356.97481 
L 183.147935 355.207043 
L 181.380169 353.439276 
L 183.147935 351.671509 
L 181.380169 349.903742 
L 179.612402 351.671509 
L 177.844635 349.903742 
L 176.076868 351.671509 
L 177.844635 353.439276 
L 176.076868 355.207043 
z
" style="fill:#1f77b4;stroke:#ffffff;stroke-width:0.565685;"/>
    <path clip-path="url(#p5abd2607fa)" d="M 496.124237 47.068773 
L 497.892004 45.301006 
L 499.659771 47.068773 
L 501.427538 45.301006 
L 499.659771 43.533239 
L 501.427538 41.765472 
L 499.659771 39.997705 
L 497.892004 41.765472 
L 496.124237 39.997705 
L 494.35647 41.765472 
L 496.124237 43.533239 
L 494.35647 45.301006 
z
" style="fill:#1f77b4;stroke:#ffffff;stroke-width:0.565685;"/>
    <path clip-path="url(#p5abd2607fa)" d="M 120.581442 396.729901 
L 122.349209 394.962134 
L 124.116976 396.729901 
L 125.884743 394.962134 
L 124.116976 393.194367 
L 125.884743 391.4266 
L 124.116976 389.658833 
L 122.349209 391.4266 
L 120.581442 389.658833 
L 118.813676 391.4266 
L 120.581442 393.194367 
L 118.813676 394.962134 
z
" style="fill:#1f77b4;stroke:#ffffff;stroke-width:0.565685;"/>
    <path clip-path="url(#p5abd2607fa)" d="M 163.21689 346.986873 
L 164.984657 345.219107 
L 166.752424 346.986873 
L 168.520191 345.219107 
L 166.752424 343.45134 
L 168.520191 341.683573 
L 166.752424 339.915806 
L 164.984657 341.683573 
L 163.21689 339.915806 
L 161.449124 341.683573 
L 163.21689 343.45134 
L 161.449124 345.219107 
z
" style="fill:#1f77b4;stroke:#ffffff;stroke-width:0.565685;"/>
    <path clip-path="url(#p5abd2607fa)" d="M 166.367755 337.349451 
L 166.367755 342.349451 
L 171.367755 342.349451 
L 171.367755 337.349451 
z
" style="fill:#1f77b4;stroke:#ffffff;stroke-width:0.565685;"/>
    <path clip-path="url(#p5abd2607fa)" d="M 158.512876 437.992884 
L 158.512876 442.992884 
L 163.512876 442.992884 
L 163.512876 437.992884 
z
" style="fill:#1f77b4;stroke:#ffffff;stroke-width:0.565685;"/>
    <path clip-path="url(#p5abd2607fa)" d="M 196.10415 326.869777 
L 197.871917 325.10201 
L 199.639684 326.869777 
L 201.407451 325.10201 
L 199.639684 323.334243 
L 201.407451 321.566476 
L 199.639684 319.798709 
L 197.871917 321.566476 
L 196.10415 319.798709 
L 194.336383 321.566476 
L 196.10415 323.334243 
L 194.336383 325.10201 
z
" style="fill:#1f77b4;stroke:#ffffff;stroke-width:0.565685;"/>
    <path clip-path="url(#p5abd2607fa)" d="M 198.338382 272.338147 
L 200.106149 270.57038 
L 201.873916 272.338147 
L 203.641683 270.57038 
L 201.873916 268.802613 
L 203.641683 267.034846 
L 201.873916 265.267079 
L 200.106149 267.034846 
L 198.338382 265.267079 
L 196.570616 267.034846 
L 198.338382 268.802613 
L 196.570616 270.57038 
z
" style="fill:#1f77b4;stroke:#ffffff;stroke-width:0.565685;"/>
    <path clip-path="url(#p5abd2607fa)" d="M 199.771297 357.941245 
L 199.771297 362.941245 
L 204.771297 362.941245 
L 204.771297 357.941245 
z
" style="fill:#1f77b4;stroke:#ffffff;stroke-width:0.565685;"/>
    <path clip-path="url(#p5abd2607fa)" d="M 146.803651 328.848001 
L 148.571418 327.080234 
L 150.339185 328.848001 
L 152.106952 327.080234 
L 150.339185 325.312467 
L 152.106952 323.5447 
L 150.339185 321.776933 
L 148.571418 323.5447 
L 146.803651 321.776933 
L 145.035884 323.5447 
L 146.803651 325.312467 
L 145.035884 327.080234 
z
" style="fill:#1f77b4;stroke:#ffffff;stroke-width:0.565685;"/>
    <path clip-path="url(#p5abd2607fa)" d="M 151.529783 340.112507 
L 153.29755 338.34474 
L 155.065317 340.112507 
L 156.833084 338.34474 
L 155.065317 336.576973 
L 156.833084 334.809206 
L 155.065317 333.041439 
L 153.29755 334.809206 
L 151.529783 333.041439 
L 149.762016 334.809206 
L 151.529783 336.576973 
L 149.762016 338.34474 
z
" style="fill:#1f77b4;stroke:#ffffff;stroke-width:0.565685;"/>
    <path clip-path="url(#p5abd2607fa)" d="M 209.916682 394.60012 
L 211.684449 392.832353 
L 213.452216 394.60012 
L 215.219983 392.832353 
L 213.452216 391.064586 
L 215.219983 389.296819 
L 213.452216 387.529052 
L 211.684449 389.296819 
L 209.916682 387.529052 
L 208.148915 389.296819 
L 209.916682 391.064586 
L 208.148915 392.832353 
z
" style="fill:#1f77b4;stroke:#ffffff;stroke-width:0.565685;"/>
    <path clip-path="url(#p5abd2607fa)" d="M 163.217398 367.612321 
L 164.985165 365.844554 
L 166.752932 367.612321 
L 168.520699 365.844554 
L 166.752932 364.076787 
L 168.520699 362.30902 
L 166.752932 360.541253 
L 164.985165 362.30902 
L 163.217398 360.541253 
L 161.449631 362.30902 
L 163.217398 364.076787 
L 161.449631 365.844554 
z
" style="fill:#1f77b4;stroke:#ffffff;stroke-width:0.565685;"/>
    <path clip-path="url(#p5abd2607fa)" d="M 167.31856 358.430263 
L 169.086327 356.662496 
L 170.854094 358.430263 
L 172.621861 356.662496 
L 170.854094 354.894729 
L 172.621861 353.126962 
L 170.854094 351.359195 
L 169.086327 353.126962 
L 167.31856 351.359195 
L 165.550793 353.126962 
L 167.31856 354.894729 
L 165.550793 356.662496 
z
" style="fill:#1f77b4;stroke:#ffffff;stroke-width:0.565685;"/>
    <path clip-path="url(#p5abd2607fa)" d="M 171.910337 351.953126 
C 172.847972 351.953126 173.74733 351.5806 174.410337 350.917592 
C 175.073345 350.254585 175.445871 349.355227 175.445871 348.417592 
C 175.445871 347.479958 175.073345 346.5806 174.410337 345.917592 
C 173.74733 345.254585 172.847972 344.882058 171.910337 344.882058 
C 170.972703 344.882058 170.073345 345.254585 169.410337 345.917592 
C 168.74733 346.5806 168.374804 347.479958 168.374804 348.417592 
C 168.374804 349.355227 168.74733 350.254585 169.410337 350.917592 
C 170.073345 351.5806 170.972703 351.953126 171.910337 351.953126 
z
" style="fill:#1f77b4;stroke:#ffffff;stroke-width:0.565685;"/>
    <path clip-path="url(#p5abd2607fa)" d="M 163.758214 374.140337 
C 164.695848 374.140337 165.595206 373.767811 166.258214 373.104803 
C 166.921222 372.441795 167.293748 371.542438 167.293748 370.604803 
C 167.293748 369.667169 166.921222 368.767811 166.258214 368.104803 
C 165.595206 367.441795 164.695848 367.069269 163.758214 367.069269 
C 162.820579 367.069269 161.921222 367.441795 161.258214 368.104803 
C 160.595206 368.767811 160.22268 369.667169 160.22268 370.604803 
C 160.22268 371.542438 160.595206 372.441795 161.258214 373.104803 
C 161.921222 373.767811 162.820579 374.140337 163.758214 374.140337 
z
" style="fill:#1f77b4;stroke:#ffffff;stroke-width:0.565685;"/>
    <path clip-path="url(#p5abd2607fa)" d="M 175.570437 300.294601 
C 176.508071 300.294601 177.407429 299.922075 178.070437 299.259067 
C 178.733444 298.596059 179.105971 297.696702 179.105971 296.759067 
C 179.105971 295.821433 178.733444 294.922075 178.070437 294.259067 
C 177.407429 293.596059 176.508071 293.223533 175.570437 293.223533 
C 174.632802 293.223533 173.733444 293.596059 173.070437 294.259067 
C 172.407429 294.922075 172.034903 295.821433 172.034903 296.759067 
C 172.034903 297.696702 172.407429 298.596059 173.070437 299.259067 
C 173.733444 299.922075 174.632802 300.294601 175.570437 300.294601 
z
" style="fill:#1f77b4;stroke:#ffffff;stroke-width:0.565685;"/>
    <path clip-path="url(#p5abd2607fa)" d="M 175.467842 485.733545 
C 176.405477 485.733545 177.304835 485.361019 177.967842 484.698011 
C 178.63085 484.035004 179.003376 483.135646 179.003376 482.198011 
C 179.003376 481.260377 178.63085 480.361019 177.967842 479.698011 
C 177.304835 479.035004 176.405477 478.662477 175.467842 478.662477 
C 174.530208 478.662477 173.63085 479.035004 172.967842 479.698011 
C 172.304835 480.361019 171.932309 481.260377 171.932309 482.198011 
C 171.932309 483.135646 172.304835 484.035004 172.967842 484.698011 
C 173.63085 485.361019 174.530208 485.733545 175.467842 485.733545 
z
" style="fill:#1f77b4;stroke:#ffffff;stroke-width:0.565685;"/>
    <path clip-path="url(#p5abd2607fa)" d="M 166.997434 353.494487 
L 168.765201 351.72672 
L 170.532968 353.494487 
L 172.300735 351.72672 
L 170.532968 349.958953 
L 172.300735 348.191186 
L 170.532968 346.423419 
L 168.765201 348.191186 
L 166.997434 346.423419 
L 165.229668 348.191186 
L 166.997434 349.958953 
L 165.229668 351.72672 
z
" style="fill:#1f77b4;stroke:#ffffff;stroke-width:0.565685;"/>
    <path clip-path="url(#p5abd2607fa)" d="M 171.658765 355.022769 
L 173.426532 353.255002 
L 175.194299 355.022769 
L 176.962065 353.255002 
L 175.194299 351.487235 
L 176.962065 349.719468 
L 175.194299 347.951701 
L 173.426532 349.719468 
L 171.658765 347.951701 
L 169.890998 349.719468 
L 171.658765 351.487235 
L 169.890998 353.255002 
z
" style="fill:#1f77b4;stroke:#ffffff;stroke-width:0.565685;"/>
    <path clip-path="url(#p5abd2607fa)" d="M 197.030323 368.402259 
L 198.79809 366.634492 
L 200.565857 368.402259 
L 202.333623 366.634492 
L 200.565857 364.866725 
L 202.333623 363.098958 
L 200.565857 361.331191 
L 198.79809 363.098958 
L 197.030323 361.331191 
L 195.262556 363.098958 
L 197.030323 364.866725 
L 195.262556 366.634492 
z
" style="fill:#1f77b4;stroke:#ffffff;stroke-width:0.565685;"/>
    <path clip-path="url(#p5abd2607fa)" d="M 162.523321 352.849635 
L 164.291088 351.081868 
L 166.058855 352.849635 
L 167.826622 351.081868 
L 166.058855 349.314101 
L 167.826622 347.546334 
L 166.058855 345.778567 
L 164.291088 347.546334 
L 162.523321 345.778567 
L 160.755554 347.546334 
L 162.523321 349.314101 
L 160.755554 351.081868 
z
" style="fill:#1f77b4;stroke:#ffffff;stroke-width:0.565685;"/>
    <path clip-path="url(#p5abd2607fa)" d="M 175.609791 356.856393 
L 177.377558 355.088626 
L 179.145325 356.856393 
L 180.913092 355.088626 
L 179.145325 353.320859 
L 180.913092 351.553092 
L 179.145325 349.785326 
L 177.377558 351.553092 
L 175.609791 349.785326 
L 173.842024 351.553092 
L 175.609791 353.320859 
L 173.842024 355.088626 
z
" style="fill:#1f77b4;stroke:#ffffff;stroke-width:0.565685;"/>
    <path clip-path="url(#p5abd2607fa)" d="M 140.389217 359.86059 
L 142.156984 358.092823 
L 143.924751 359.86059 
L 145.692518 358.092823 
L 143.924751 356.325056 
L 145.692518 354.557289 
L 143.924751 352.789522 
L 142.156984 354.557289 
L 140.389217 352.789522 
L 138.62145 354.557289 
L 140.389217 356.325056 
L 138.62145 358.092823 
z
" style="fill:#1f77b4;stroke:#ffffff;stroke-width:0.565685;"/>
    <path clip-path="url(#p5abd2607fa)" d="M 157.438738 389.144264 
L 159.206505 387.376497 
L 160.974272 389.144264 
L 162.742039 387.376497 
L 160.974272 385.60873 
L 162.742039 383.840963 
L 160.974272 382.073196 
L 159.206505 383.840963 
L 157.438738 382.073196 
L 155.670971 383.840963 
L 157.438738 385.60873 
L 155.670971 387.376497 
z
" style="fill:#1f77b4;stroke:#ffffff;stroke-width:0.565685;"/>
    <path clip-path="url(#p5abd2607fa)" d="M 203.93862 252.069696 
L 205.706387 250.301929 
L 207.474154 252.069696 
L 209.241921 250.301929 
L 207.474154 248.534162 
L 209.241921 246.766395 
L 207.474154 244.998628 
L 205.706387 246.766395 
L 203.93862 244.998628 
L 202.170853 246.766395 
L 203.93862 248.534162 
L 202.170853 250.301929 
z
" style="fill:#1f77b4;stroke:#ffffff;stroke-width:0.565685;"/>
    <path clip-path="url(#p5abd2607fa)" d="M 167.933602 340.162688 
L 167.933602 345.162688 
L 172.933602 345.162688 
L 172.933602 340.162688 
z
" style="fill:#1f77b4;stroke:#ffffff;stroke-width:0.565685;"/>
    <path clip-path="url(#p5abd2607fa)" d="M 155.068889 306.139449 
L 156.836656 304.371682 
L 158.604423 306.139449 
L 160.37219 304.371682 
L 158.604423 302.603915 
L 160.37219 300.836148 
L 158.604423 299.068381 
L 156.836656 300.836148 
L 155.068889 299.068381 
L 153.301122 300.836148 
L 155.068889 302.603915 
L 153.301122 304.371682 
z
" style="fill:#1f77b4;stroke:#ffffff;stroke-width:0.565685;"/>
    <path clip-path="url(#p5abd2607fa)" d="M 174.97418 305.03398 
L 176.741947 303.266213 
L 178.509714 305.03398 
L 180.277481 303.266213 
L 178.509714 301.498446 
L 180.277481 299.730679 
L 178.509714 297.962912 
L 176.741947 299.730679 
L 174.97418 297.962912 
L 173.206413 299.730679 
L 174.97418 301.498446 
L 173.206413 303.266213 
z
" style="fill:#1f77b4;stroke:#ffffff;stroke-width:0.565685;"/>
    <path clip-path="url(#p5abd2607fa)" d="M 180.656135 291.406497 
L 182.423902 289.63873 
L 184.191669 291.406497 
L 185.959436 289.63873 
L 184.191669 287.870963 
L 185.959436 286.103196 
L 184.191669 284.335429 
L 182.423902 286.103196 
L 180.656135 284.335429 
L 178.888368 286.103196 
L 180.656135 287.870963 
L 178.888368 289.63873 
z
" style="fill:#1f77b4;stroke:#ffffff;stroke-width:0.565685;"/>
    <path clip-path="url(#p5abd2607fa)" d="M 286.749516 273.023753 
L 288.517283 271.255986 
L 290.28505 273.023753 
L 292.052816 271.255986 
L 290.28505 269.488219 
L 292.052816 267.720452 
L 290.28505 265.952685 
L 288.517283 267.720452 
L 286.749516 265.952685 
L 284.981749 267.720452 
L 286.749516 269.488219 
L 284.981749 271.255986 
z
" style="fill:#1f77b4;stroke:#ffffff;stroke-width:0.565685;"/>
    <path clip-path="url(#p5abd2607fa)" d="M 166.16957 333.913927 
L 167.937337 332.14616 
L 169.705104 333.913927 
L 171.472871 332.14616 
L 169.705104 330.378394 
L 171.472871 328.610627 
L 169.705104 326.84286 
L 167.937337 328.610627 
L 166.16957 326.84286 
L 164.401804 328.610627 
L 166.16957 330.378394 
L 164.401804 332.14616 
z
" style="fill:#1f77b4;stroke:#ffffff;stroke-width:0.565685;"/>
    <path clip-path="url(#p5abd2607fa)" d="M 175.211436 341.256665 
L 176.979203 339.488898 
L 178.74697 341.256665 
L 180.514737 339.488898 
L 178.74697 337.721131 
L 180.514737 335.953364 
L 178.74697 334.185597 
L 176.979203 335.953364 
L 175.211436 334.185597 
L 173.443669 335.953364 
L 175.211436 337.721131 
L 173.443669 339.488898 
z
" style="fill:#1f77b4;stroke:#ffffff;stroke-width:0.565685;"/>
    <path clip-path="url(#p5abd2607fa)" d="M 178.9326 373.810213 
L 180.700367 372.042446 
L 182.468134 373.810213 
L 184.235901 372.042446 
L 182.468134 370.274679 
L 184.235901 368.506912 
L 182.468134 366.739145 
L 180.700367 368.506912 
L 178.9326 366.739145 
L 177.164833 368.506912 
L 178.9326 370.274679 
L 177.164833 372.042446 
z
" style="fill:#1f77b4;stroke:#ffffff;stroke-width:0.565685;"/>
    <path clip-path="url(#p5abd2607fa)" d="M 158.607629 357.802008 
L 160.375396 356.034241 
L 162.143163 357.802008 
L 163.91093 356.034241 
L 162.143163 354.266474 
L 163.91093 352.498707 
L 162.143163 350.73094 
L 160.375396 352.498707 
L 158.607629 350.73094 
L 156.839862 352.498707 
L 158.607629 354.266474 
L 156.839862 356.034241 
z
" style="fill:#1f77b4;stroke:#ffffff;stroke-width:0.565685;"/>
    <path clip-path="url(#p5abd2607fa)" d="M 172.443271 350.671721 
L 174.211038 348.903954 
L 175.978805 350.671721 
L 177.746572 348.903954 
L 175.978805 347.136187 
L 177.746572 345.36842 
L 175.978805 343.600653 
L 174.211038 345.36842 
L 172.443271 343.600653 
L 170.675505 345.36842 
L 172.443271 347.136187 
L 170.675505 348.903954 
z
" style="fill:#1f77b4;stroke:#ffffff;stroke-width:0.565685;"/>
    <path clip-path="url(#p5abd2607fa)" d="M 185.857511 338.580176 
L 185.857511 343.580176 
L 190.857511 343.580176 
L 190.857511 338.580176 
z
" style="fill:#1f77b4;stroke:#ffffff;stroke-width:0.565685;"/>
    <path clip-path="url(#p5abd2607fa)" d="M 181.597441 346.99536 
L 181.597441 351.99536 
L 186.597441 351.99536 
L 186.597441 346.99536 
z
" style="fill:#1f77b4;stroke:#ffffff;stroke-width:0.565685;"/>
    <path clip-path="url(#p5abd2607fa)" d="M 133.873978 357.947325 
L 135.641745 356.179558 
L 137.409512 357.947325 
L 139.177279 356.179558 
L 137.409512 354.411791 
L 139.177279 352.644024 
L 137.409512 350.876257 
L 135.641745 352.644024 
L 133.873978 350.876257 
L 132.106211 352.644024 
L 133.873978 354.411791 
L 132.106211 356.179558 
z
" style="fill:#1f77b4;stroke:#ffffff;stroke-width:0.565685;"/>
    <path clip-path="url(#p5abd2607fa)" d="M 176.072625 353.447612 
L 177.840392 351.679845 
L 179.608159 353.447612 
L 181.375926 351.679845 
L 179.608159 349.912078 
L 181.375926 348.144311 
L 179.608159 346.376544 
L 177.840392 348.144311 
L 176.072625 346.376544 
L 174.304858 348.144311 
L 176.072625 349.912078 
L 174.304858 351.679845 
z
" style="fill:#1f77b4;stroke:#ffffff;stroke-width:0.565685;"/>
    <path clip-path="url(#p5abd2607fa)" d="M 144.566432 343.175882 
L 146.334199 341.408115 
L 148.101966 343.175882 
L 149.869733 341.408115 
L 148.101966 339.640348 
L 149.869733 337.872581 
L 148.101966 336.104814 
L 146.334199 337.872581 
L 144.566432 336.104814 
L 142.798665 337.872581 
L 144.566432 339.640348 
L 142.798665 341.408115 
z
" style="fill:#1f77b4;stroke:#ffffff;stroke-width:0.565685;"/>
    <path clip-path="url(#p5abd2607fa)" d="M 139.746682 355.802206 
L 141.514449 354.034439 
L 143.282216 355.802206 
L 145.049983 354.034439 
L 143.282216 352.266672 
L 145.049983 350.498905 
L 143.282216 348.731138 
L 141.514449 350.498905 
L 139.746682 348.731138 
L 137.978915 350.498905 
L 139.746682 352.266672 
L 137.978915 354.034439 
z
" style="fill:#1f77b4;stroke:#ffffff;stroke-width:0.565685;"/>
    <path clip-path="url(#p5abd2607fa)" d="M 157.152379 352.321139 
L 158.920146 350.553372 
L 160.687913 352.321139 
L 162.45568 350.553372 
L 160.687913 348.785605 
L 162.45568 347.017838 
L 160.687913 345.250071 
L 158.920146 347.017838 
L 157.152379 345.250071 
L 155.384612 347.017838 
L 157.152379 348.785605 
L 155.384612 350.553372 
z
" style="fill:#1f77b4;stroke:#ffffff;stroke-width:0.565685;"/>
    <path clip-path="url(#p5abd2607fa)" d="M 157.933921 372.300102 
L 159.701688 370.532335 
L 161.469455 372.300102 
L 163.237222 370.532335 
L 161.469455 368.764568 
L 163.237222 366.996801 
L 161.469455 365.229034 
L 159.701688 366.996801 
L 157.933921 365.229034 
L 156.166154 366.996801 
L 157.933921 368.764568 
L 156.166154 370.532335 
z
" style="fill:#1f77b4;stroke:#ffffff;stroke-width:0.565685;"/>
    <path clip-path="url(#p5abd2607fa)" d="M 171.488606 308.108746 
L 173.256373 306.340979 
L 175.02414 308.108746 
L 176.791907 306.340979 
L 175.02414 304.573212 
L 176.791907 302.805445 
L 175.02414 301.037678 
L 173.256373 302.805445 
L 171.488606 301.037678 
L 169.720839 302.805445 
L 171.488606 304.573212 
L 169.720839 306.340979 
z
" style="fill:#1f77b4;stroke:#ffffff;stroke-width:0.565685;"/>
    <path clip-path="url(#p5abd2607fa)" d="M 167.80755 363.855901 
L 169.575317 362.088135 
L 171.343083 363.855901 
L 173.11085 362.088135 
L 171.343083 360.320368 
L 173.11085 358.552601 
L 171.343083 356.784834 
L 169.575317 358.552601 
L 167.80755 356.784834 
L 166.039783 358.552601 
L 167.80755 360.320368 
L 166.039783 362.088135 
z
" style="fill:#1f77b4;stroke:#ffffff;stroke-width:0.565685;"/>
    <path clip-path="url(#p5abd2607fa)" d="M 164.367708 378.339115 
L 166.135475 376.571348 
L 167.903242 378.339115 
L 169.671009 376.571348 
L 167.903242 374.803581 
L 169.671009 373.035814 
L 167.903242 371.268047 
L 166.135475 373.035814 
L 164.367708 371.268047 
L 162.599941 373.035814 
L 164.367708 374.803581 
L 162.599941 376.571348 
z
" style="fill:#1f77b4;stroke:#ffffff;stroke-width:0.565685;"/>
    <path clip-path="url(#p5abd2607fa)" d="M 180.894893 420.315558 
L 182.66266 418.547791 
L 184.430427 420.315558 
L 186.198194 418.547791 
L 184.430427 416.780024 
L 186.198194 415.012257 
L 184.430427 413.24449 
L 182.66266 415.012257 
L 180.894893 413.24449 
L 179.127126 415.012257 
L 180.894893 416.780024 
L 179.127126 418.547791 
z
" style="fill:#1f77b4;stroke:#ffffff;stroke-width:0.565685;"/>
    <path clip-path="url(#p5abd2607fa)" d="M 169.20539 360.595814 
L 170.973157 358.828047 
L 172.740924 360.595814 
L 174.508691 358.828047 
L 172.740924 357.06028 
L 174.508691 355.292513 
L 172.740924 353.524746 
L 170.973157 355.292513 
L 169.20539 353.524746 
L 167.437623 355.292513 
L 169.20539 357.06028 
L 167.437623 358.828047 
z
" style="fill:#1f77b4;stroke:#ffffff;stroke-width:0.565685;"/>
    <path clip-path="url(#p5abd2607fa)" d="M 235.312186 419.914292 
C 236.24982 419.914292 237.149178 419.541766 237.812186 418.878758 
C 238.475193 418.21575 238.84772 417.316393 238.84772 416.378758 
C 238.84772 415.441123 238.475193 414.541766 237.812186 413.878758 
C 237.149178 413.21575 236.24982 412.843224 235.312186 412.843224 
C 234.374551 412.843224 233.475193 413.21575 232.812186 413.878758 
C 232.149178 414.541766 231.776652 415.441123 231.776652 416.378758 
C 231.776652 417.316393 232.149178 418.21575 232.812186 418.878758 
C 233.475193 419.541766 234.374551 419.914292 235.312186 419.914292 
z
" style="fill:#1f77b4;stroke:#ffffff;stroke-width:0.565685;"/>
    <path clip-path="url(#p5abd2607fa)" d="M 180.685989 370.877101 
C 181.623623 370.877101 182.522981 370.504574 183.185989 369.841567 
C 183.848997 369.178559 184.221523 368.279201 184.221523 367.341567 
C 184.221523 366.403932 183.848997 365.504574 183.185989 364.841567 
C 182.522981 364.178559 181.623623 363.806033 180.685989 363.806033 
C 179.748354 363.806033 178.848997 364.178559 178.185989 364.841567 
C 177.522981 365.504574 177.150455 366.403932 177.150455 367.341567 
C 177.150455 368.279201 177.522981 369.178559 178.185989 369.841567 
C 178.848997 370.504574 179.748354 370.877101 180.685989 370.877101 
z
" style="fill:#1f77b4;stroke:#ffffff;stroke-width:0.565685;"/>
    <path clip-path="url(#p5abd2607fa)" d="M 195.671738 297.759694 
C 196.609372 297.759694 197.50873 297.387168 198.171738 296.724161 
C 198.834745 296.061153 199.207271 295.161795 199.207271 294.224161 
C 199.207271 293.286526 198.834745 292.387168 198.171738 291.724161 
C 197.50873 291.061153 196.609372 290.688627 195.671738 290.688627 
C 194.734103 290.688627 193.834745 291.061153 193.171738 291.724161 
C 192.50873 292.387168 192.136204 293.286526 192.136204 294.224161 
C 192.136204 295.161795 192.50873 296.061153 193.171738 296.724161 
C 193.834745 297.387168 194.734103 297.759694 195.671738 297.759694 
z
" style="fill:#1f77b4;stroke:#ffffff;stroke-width:0.565685;"/>
    <path clip-path="url(#p5abd2607fa)" d="M 139.843897 380.456877 
C 140.781531 380.456877 141.680889 380.08435 142.343897 379.421343 
C 143.006905 378.758335 143.379431 377.858977 143.379431 376.921343 
C 143.379431 375.983708 143.006905 375.08435 142.343897 374.421343 
C 141.680889 373.758335 140.781531 373.385809 139.843897 373.385809 
C 138.906262 373.385809 138.006905 373.758335 137.343897 374.421343 
C 136.680889 375.08435 136.308363 375.983708 136.308363 376.921343 
C 136.308363 377.858977 136.680889 378.758335 137.343897 379.421343 
C 138.006905 380.08435 138.906262 380.456877 139.843897 380.456877 
z
" style="fill:#1f77b4;stroke:#ffffff;stroke-width:0.565685;"/>
    <path clip-path="url(#p5abd2607fa)" d="M 136.485611 387.563695 
C 137.423246 387.563695 138.322603 387.191169 138.985611 386.528162 
C 139.648619 385.865154 140.021145 384.965796 140.021145 384.028162 
C 140.021145 383.090527 139.648619 382.191169 138.985611 381.528162 
C 138.322603 380.865154 137.423246 380.492628 136.485611 380.492628 
C 135.547977 380.492628 134.648619 380.865154 133.985611 381.528162 
C 133.322603 382.191169 132.950077 383.090527 132.950077 384.028162 
C 132.950077 384.965796 133.322603 385.865154 133.985611 386.528162 
C 134.648619 387.191169 135.547977 387.563695 136.485611 387.563695 
z
" style="fill:#1f77b4;stroke:#ffffff;stroke-width:0.565685;"/>
    <path clip-path="url(#p5abd2607fa)" d="M 189.629016 428.818997 
C 190.566651 428.818997 191.466009 428.446471 192.129016 427.783463 
C 192.792024 427.120456 193.16455 426.221098 193.16455 425.283463 
C 193.16455 424.345829 192.792024 423.446471 192.129016 422.783463 
C 191.466009 422.120456 190.566651 421.747929 189.629016 421.747929 
C 188.691382 421.747929 187.792024 422.120456 187.129016 422.783463 
C 186.466009 423.446471 186.093483 424.345829 186.093483 425.283463 
C 186.093483 426.221098 186.466009 427.120456 187.129016 427.783463 
C 187.792024 428.446471 188.691382 428.818997 189.629016 428.818997 
z
" style="fill:#1f77b4;stroke:#ffffff;stroke-width:0.565685;"/>
    <path clip-path="url(#p5abd2607fa)" d="M 167.598421 313.801266 
L 169.366188 312.033499 
L 171.133955 313.801266 
L 172.901722 312.033499 
L 171.133955 310.265732 
L 172.901722 308.497965 
L 171.133955 306.730198 
L 169.366188 308.497965 
L 167.598421 306.730198 
L 165.830654 308.497965 
L 167.598421 310.265732 
L 165.830654 312.033499 
z
" style="fill:#1f77b4;stroke:#ffffff;stroke-width:0.565685;"/>
    <path clip-path="url(#p5abd2607fa)" d="M 171.091468 337.771449 
L 172.859235 336.003682 
L 174.627002 337.771449 
L 176.394769 336.003682 
L 174.627002 334.235915 
L 176.394769 332.468148 
L 174.627002 330.700381 
L 172.859235 332.468148 
L 171.091468 330.700381 
L 169.323702 332.468148 
L 171.091468 334.235915 
L 169.323702 336.003682 
z
" style="fill:#1f77b4;stroke:#ffffff;stroke-width:0.565685;"/>
    <path clip-path="url(#p5abd2607fa)" d="M 167.189952 368.422549 
L 168.957719 366.654782 
L 170.725486 368.422549 
L 172.493252 366.654782 
L 170.725486 364.887015 
L 172.493252 363.119248 
L 170.725486 361.351481 
L 168.957719 363.119248 
L 167.189952 361.351481 
L 165.422185 363.119248 
L 167.189952 364.887015 
L 165.422185 366.654782 
z
" style="fill:#1f77b4;stroke:#ffffff;stroke-width:0.565685;"/>
    <path clip-path="url(#p5abd2607fa)" d="M 182.913704 479.84915 
L 184.681471 478.081383 
L 186.449238 479.84915 
L 188.217005 478.081383 
L 186.449238 476.313616 
L 188.217005 474.545849 
L 186.449238 472.778082 
L 184.681471 474.545849 
L 182.913704 472.778082 
L 181.145937 474.545849 
L 182.913704 476.313616 
L 181.145937 478.081383 
z
" style="fill:#1f77b4;stroke:#ffffff;stroke-width:0.565685;"/>
    <path clip-path="url(#p5abd2607fa)" d="M 164.007005 348.786431 
L 164.007005 353.786431 
L 169.007005 353.786431 
L 169.007005 348.786431 
z
" style="fill:#1f77b4;stroke:#ffffff;stroke-width:0.565685;"/>
    <path clip-path="url(#p5abd2607fa)" d="M 172.854625 257.349446 
L 174.622392 255.581679 
L 176.390159 257.349446 
L 178.157926 255.581679 
L 176.390159 253.813912 
L 178.157926 252.046145 
L 176.390159 250.278378 
L 174.622392 252.046145 
L 172.854625 250.278378 
L 171.086858 252.046145 
L 172.854625 253.813912 
L 171.086858 255.581679 
z
" style="fill:#1f77b4;stroke:#ffffff;stroke-width:0.565685;"/>
    <path clip-path="url(#p5abd2607fa)" d="M 178.064832 350.144713 
L 179.832599 348.376946 
L 181.600366 350.144713 
L 183.368132 348.376946 
L 181.600366 346.609179 
L 183.368132 344.841413 
L 181.600366 343.073646 
L 179.832599 344.841413 
L 178.064832 343.073646 
L 176.297065 344.841413 
L 178.064832 346.609179 
L 176.297065 348.376946 
z
" style="fill:#1f77b4;stroke:#ffffff;stroke-width:0.565685;"/>
    <path clip-path="url(#p5abd2607fa)" d="M 174.384587 349.27728 
L 176.152354 347.509513 
L 177.920121 349.27728 
L 179.687888 347.509513 
L 177.920121 345.741746 
L 179.687888 343.973979 
L 177.920121 342.206212 
L 176.152354 343.973979 
L 174.384587 342.206212 
L 172.61682 343.973979 
L 174.384587 345.741746 
L 172.61682 347.509513 
z
" style="fill:#1f77b4;stroke:#ffffff;stroke-width:0.565685;"/>
    <path clip-path="url(#p5abd2607fa)" d="M 100.033638 360.454504 
L 101.801405 358.686737 
L 103.569172 360.454504 
L 105.336939 358.686737 
L 103.569172 356.91897 
L 105.336939 355.151203 
L 103.569172 353.383436 
L 101.801405 355.151203 
L 100.033638 353.383436 
L 98.265871 355.151203 
L 100.033638 356.91897 
L 98.265871 358.686737 
z
" style="fill:#1f77b4;stroke:#ffffff;stroke-width:0.565685;"/>
    <path clip-path="url(#p5abd2607fa)" d="M 159.002249 327.821573 
L 160.770016 326.053806 
L 162.537783 327.821573 
L 164.30555 326.053806 
L 162.537783 324.286039 
L 164.30555 322.518272 
L 162.537783 320.750505 
L 160.770016 322.518272 
L 159.002249 320.750505 
L 157.234482 322.518272 
L 159.002249 324.286039 
L 157.234482 326.053806 
z
" style="fill:#1f77b4;stroke:#ffffff;stroke-width:0.565685;"/>
    <path clip-path="url(#p5abd2607fa)" d="M 156.603157 349.325642 
L 158.370924 347.557875 
L 160.138691 349.325642 
L 161.906458 347.557875 
L 160.138691 345.790108 
L 161.906458 344.022341 
L 160.138691 342.254574 
L 158.370924 344.022341 
L 156.603157 342.254574 
L 154.83539 344.022341 
L 156.603157 345.790108 
L 154.83539 347.557875 
z
" style="fill:#1f77b4;stroke:#ffffff;stroke-width:0.565685;"/>
   </g>
   <g id="PathCollection_2"/>
   <g id="PathCollection_3"/>
   <g id="PathCollection_4"/>
   <g id="matplotlib.axis_1">
    <g id="xtick_1">
     <g id="line2d_1">
      <defs>
       <path d="M 0 0 
L 0 3.5 
" id="m7b240b54f9" style="stroke:#000000;stroke-width:0.8;"/>
      </defs>
      <g>
       <use style="stroke:#000000;stroke-width:0.8;" x="101.519492" xlink:href="#m7b240b54f9" y="504.13125"/>
      </g>
     </g>
     <g id="text_1">
      <text style="font-family:DejaVu Sans;font-size:20px;font-stretch:normal;font-style:normal;font-weight:normal;text-anchor:middle;" transform="rotate(-0, 101.519492, 526.328125)" x="101.519492" y="526.328125">−2</text>
     </g>
    </g>
    <g id="xtick_2">
     <g id="line2d_2">
      <g>
       <use style="stroke:#000000;stroke-width:0.8;" x="166.682321" xlink:href="#m7b240b54f9" y="504.13125"/>
      </g>
     </g>
     <g id="text_2">
      <text style="font-family:DejaVu Sans;font-size:20px;font-stretch:normal;font-style:normal;font-weight:normal;text-anchor:middle;" transform="rotate(-0, 166.682321, 526.328125)" x="166.682321" y="526.328125">0</text>
     </g>
    </g>
    <g id="xtick_3">
     <g id="line2d_3">
      <g>
       <use style="stroke:#000000;stroke-width:0.8;" x="231.84515" xlink:href="#m7b240b54f9" y="504.13125"/>
      </g>
     </g>
     <g id="text_3">
      <text style="font-family:DejaVu Sans;font-size:20px;font-stretch:normal;font-style:normal;font-weight:normal;text-anchor:middle;" transform="rotate(-0, 231.84515, 526.328125)" x="231.84515" y="526.328125">2</text>
     </g>
    </g>
    <g id="xtick_4">
     <g id="line2d_4">
      <g>
       <use style="stroke:#000000;stroke-width:0.8;" x="297.007979" xlink:href="#m7b240b54f9" y="504.13125"/>
      </g>
     </g>
     <g id="text_4">
      <text style="font-family:DejaVu Sans;font-size:20px;font-stretch:normal;font-style:normal;font-weight:normal;text-anchor:middle;" transform="rotate(-0, 297.007979, 526.328125)" x="297.007979" y="526.328125">4</text>
     </g>
    </g>
    <g id="xtick_5">
     <g id="line2d_5">
      <g>
       <use style="stroke:#000000;stroke-width:0.8;" x="362.170808" xlink:href="#m7b240b54f9" y="504.13125"/>
      </g>
     </g>
     <g id="text_5">
      <text style="font-family:DejaVu Sans;font-size:20px;font-stretch:normal;font-style:normal;font-weight:normal;text-anchor:middle;" transform="rotate(-0, 362.170808, 526.328125)" x="362.170808" y="526.328125">6</text>
     </g>
    </g>
    <g id="xtick_6">
     <g id="line2d_6">
      <g>
       <use style="stroke:#000000;stroke-width:0.8;" x="427.333637" xlink:href="#m7b240b54f9" y="504.13125"/>
      </g>
     </g>
     <g id="text_6">
      <text style="font-family:DejaVu Sans;font-size:20px;font-stretch:normal;font-style:normal;font-weight:normal;text-anchor:middle;" transform="rotate(-0, 427.333637, 526.328125)" x="427.333637" y="526.328125">8</text>
     </g>
    </g>
    <g id="xtick_7">
     <g id="line2d_7">
      <g>
       <use style="stroke:#000000;stroke-width:0.8;" x="492.496466" xlink:href="#m7b240b54f9" y="504.13125"/>
      </g>
     </g>
     <g id="text_7">
      <text style="font-family:DejaVu Sans;font-size:20px;font-stretch:normal;font-style:normal;font-weight:normal;text-anchor:middle;" transform="rotate(-0, 492.496466, 526.328125)" x="492.496466" y="526.328125">10</text>
     </g>
    </g>
    <g id="text_8">
     <text style="font-family:DejaVu Sans;font-size:20px;font-stretch:normal;font-style:normal;font-weight:normal;text-anchor:middle;" transform="rotate(-0, 299.846705, 549.684375)" x="299.846705" y="549.684375">Microglia_effect_score_normed</text>
    </g>
   </g>
   <g id="matplotlib.axis_2">
    <g id="ytick_1">
     <g id="line2d_8">
      <defs>
       <path d="M 0 0 
L -3.5 0 
" id="m65a13be577" style="stroke:#000000;stroke-width:0.8;"/>
      </defs>
      <g>
       <use style="stroke:#000000;stroke-width:0.8;" x="81.996875" xlink:href="#m65a13be577" y="455.747803"/>
      </g>
     </g>
     <g id="text_9">
      <text style="font-family:DejaVu Sans;font-size:20px;font-stretch:normal;font-style:normal;font-weight:normal;text-anchor:end;" transform="rotate(-0, 74.996875, 463.34624)" x="74.996875" y="463.34624">−2</text>
     </g>
    </g>
    <g id="ytick_2">
     <g id="line2d_9">
      <g>
       <use style="stroke:#000000;stroke-width:0.8;" x="81.996875" xlink:href="#m65a13be577" y="401.455645"/>
      </g>
     </g>
     <g id="text_10">
      <text style="font-family:DejaVu Sans;font-size:20px;font-stretch:normal;font-style:normal;font-weight:normal;text-anchor:end;" transform="rotate(-0, 74.996875, 409.054083)" x="74.996875" y="409.054083">−1</text>
     </g>
    </g>
    <g id="ytick_3">
     <g id="line2d_10">
      <g>
       <use style="stroke:#000000;stroke-width:0.8;" x="81.996875" xlink:href="#m65a13be577" y="347.163488"/>
      </g>
     </g>
     <g id="text_11">
      <text style="font-family:DejaVu Sans;font-size:20px;font-stretch:normal;font-style:normal;font-weight:normal;text-anchor:end;" transform="rotate(-0, 74.996875, 354.761925)" x="74.996875" y="354.761925">0</text>
     </g>
    </g>
    <g id="ytick_4">
     <g id="line2d_11">
      <g>
       <use style="stroke:#000000;stroke-width:0.8;" x="81.996875" xlink:href="#m65a13be577" y="292.87133"/>
      </g>
     </g>
     <g id="text_12">
      <text style="font-family:DejaVu Sans;font-size:20px;font-stretch:normal;font-style:normal;font-weight:normal;text-anchor:end;" transform="rotate(-0, 74.996875, 300.469768)" x="74.996875" y="300.469768">1</text>
     </g>
    </g>
    <g id="ytick_5">
     <g id="line2d_12">
      <g>
       <use style="stroke:#000000;stroke-width:0.8;" x="81.996875" xlink:href="#m65a13be577" y="238.579172"/>
      </g>
     </g>
     <g id="text_13">
      <text style="font-family:DejaVu Sans;font-size:20px;font-stretch:normal;font-style:normal;font-weight:normal;text-anchor:end;" transform="rotate(-0, 74.996875, 246.17761)" x="74.996875" y="246.17761">2</text>
     </g>
    </g>
    <g id="ytick_6">
     <g id="line2d_13">
      <g>
       <use style="stroke:#000000;stroke-width:0.8;" x="81.996875" xlink:href="#m65a13be577" y="184.287015"/>
      </g>
     </g>
     <g id="text_14">
      <text style="font-family:DejaVu Sans;font-size:20px;font-stretch:normal;font-style:normal;font-weight:normal;text-anchor:end;" transform="rotate(-0, 74.996875, 191.885452)" x="74.996875" y="191.885452">3</text>
     </g>
    </g>
    <g id="ytick_7">
     <g id="line2d_14">
      <g>
       <use style="stroke:#000000;stroke-width:0.8;" x="81.996875" xlink:href="#m65a13be577" y="129.994857"/>
      </g>
     </g>
     <g id="text_15">
      <text style="font-family:DejaVu Sans;font-size:20px;font-stretch:normal;font-style:normal;font-weight:normal;text-anchor:end;" transform="rotate(-0, 74.996875, 137.593295)" x="74.996875" y="137.593295">4</text>
     </g>
    </g>
    <g id="ytick_8">
     <g id="line2d_15">
      <g>
       <use style="stroke:#000000;stroke-width:0.8;" x="81.996875" xlink:href="#m65a13be577" y="75.7027"/>
      </g>
     </g>
     <g id="text_16">
      <text style="font-family:DejaVu Sans;font-size:20px;font-stretch:normal;font-style:normal;font-weight:normal;text-anchor:end;" transform="rotate(-0, 74.996875, 83.301137)" x="74.996875" y="83.301137">5</text>
     </g>
    </g>
    <g id="text_17">
     <text style="font-family:DejaVu Sans;font-size:20px;font-stretch:normal;font-style:normal;font-weight:normal;text-anchor:middle;" transform="rotate(-90, 36.796875, 262.865625)" x="36.796875" y="262.865625">Neuron_effect_score_normed</text>
    </g>
   </g>
   <g id="line2d_16">
    <path clip-path="url(#p5abd2607fa)" d="M 231.84515 504.13125 
L 231.84515 21.6 
" style="fill:none;stroke:#ff0000;stroke-dasharray:5.55,2.4;stroke-dashoffset:0;stroke-width:1.5;"/>
   </g>
   <g id="line2d_17">
    <path clip-path="url(#p5abd2607fa)" d="M 101.519492 504.13125 
L 101.519492 21.6 
" style="fill:none;stroke:#ff0000;stroke-dasharray:5.55,2.4;stroke-dashoffset:0;stroke-width:1.5;"/>
   </g>
   <g id="line2d_18">
    <path clip-path="url(#p5abd2607fa)" d="M 81.996875 238.579172 
L 517.696534 238.579172 
" style="fill:none;stroke:#ff0000;stroke-dasharray:5.55,2.4;stroke-dashoffset:0;stroke-width:1.5;"/>
   </g>
   <g id="line2d_19">
    <path clip-path="url(#p5abd2607fa)" d="M 81.996875 455.747803 
L 517.696534 455.747803 
" style="fill:none;stroke:#ff0000;stroke-dasharray:5.55,2.4;stroke-dashoffset:0;stroke-width:1.5;"/>
   </g>
   <g id="patch_3">
    <path d="M 81.996875 504.13125 
L 81.996875 21.6 
" style="fill:none;stroke:#000000;stroke-linecap:square;stroke-linejoin:miter;stroke-width:0.8;"/>
   </g>
   <g id="patch_4">
    <path d="M 517.696534 504.13125 
L 517.696534 21.6 
" style="fill:none;stroke:#000000;stroke-linecap:square;stroke-linejoin:miter;stroke-width:0.8;"/>
   </g>
   <g id="patch_5">
    <path d="M 81.996875 504.13125 
L 517.696534 504.13125 
" style="fill:none;stroke:#000000;stroke-linecap:square;stroke-linejoin:miter;stroke-width:0.8;"/>
   </g>
   <g id="patch_6">
    <path d="M 81.996875 21.6 
L 517.696534 21.6 
" style="fill:none;stroke:#000000;stroke-linecap:square;stroke-linejoin:miter;stroke-width:0.8;"/>
   </g>
   <g id="text_18">
    <text style="font-family:DejaVu Sans;font-size:12px;font-stretch:normal;font-style:normal;font-weight:normal;text-anchor:start;" transform="rotate(-0, 497.892004, 43.533239)" x="497.892004" y="43.533239">rs636317</text>
   </g>
   <g id="text_19">
    <text style="font-family:DejaVu Sans;font-size:12px;font-stretch:normal;font-style:normal;font-weight:normal;text-anchor:start;" transform="rotate(-0, 122.349209, 393.194367)" x="122.349209" y="393.194367">rs636341</text>
   </g>
   <g id="text_20">
    <text style="font-family:DejaVu Sans;font-size:12px;font-stretch:normal;font-style:normal;font-weight:normal;text-anchor:start;" transform="rotate(-0, 175.570437, 296.759067)" x="175.570437" y="296.759067">rs514049</text>
   </g>
   <g id="text_21">
    <text style="font-family:DejaVu Sans;font-size:12px;font-stretch:normal;font-style:normal;font-weight:normal;text-anchor:start;" transform="rotate(-0, 175.467842, 482.198011)" x="175.467842" y="482.198011">rs395601</text>
   </g>
   <g id="text_22">
    <text style="font-family:DejaVu Sans;font-size:12px;font-stretch:normal;font-style:normal;font-weight:normal;text-anchor:start;" transform="rotate(-0, 198.79809, 364.866725)" x="198.79809" y="364.866725">rs1010322</text>
   </g>
   <g id="text_23">
    <text style="font-family:DejaVu Sans;font-size:12px;font-stretch:normal;font-style:normal;font-weight:normal;text-anchor:start;" transform="rotate(-0, 205.706387, 248.534162)" x="205.706387" y="248.534162">rs2526377</text>
   </g>
   <g id="text_24">
    <text style="font-family:DejaVu Sans;font-size:12px;font-stretch:normal;font-style:normal;font-weight:normal;text-anchor:start;" transform="rotate(-0, 288.517283, 269.488219)" x="288.517283" y="269.488219">rs6064392</text>
   </g>
   <g id="text_25">
    <text style="font-family:DejaVu Sans;font-size:12px;font-stretch:normal;font-style:normal;font-weight:normal;text-anchor:start;" transform="rotate(-0, 235.312186, 416.378758)" x="235.312186" y="416.378758">rs9271162</text>
   </g>
   <g id="text_26">
    <text style="font-family:DejaVu Sans;font-size:12px;font-stretch:normal;font-style:normal;font-weight:normal;text-anchor:start;" transform="rotate(-0, 189.629016, 425.283463)" x="189.629016" y="425.283463">rs9271171</text>
   </g>
   <g id="legend_1">
    <g id="patch_7">
     <path d="M 321.487159 155.58125 
L 503.696534 155.58125 
Q 507.696534 155.58125 507.696534 151.58125 
L 507.696534 35.6 
Q 507.696534 31.6 503.696534 31.6 
L 321.487159 31.6 
Q 317.487159 31.6 317.487159 35.6 
L 317.487159 151.58125 
Q 317.487159 155.58125 321.487159 155.58125 
z
" style="fill:#ffffff;opacity:0.8;stroke:#cccccc;stroke-linejoin:miter;"/>
    </g>
    <g id="text_27">
     <text style="font-family:DejaVu Sans;font-size:20px;font-stretch:normal;font-style:normal;font-weight:normal;text-anchor:start;" transform="rotate(-0, 325.487159, 54.796875)" x="325.487159" y="54.796875">cell_type_overlap</text>
    </g>
    <g id="PathCollection_5">
     <defs>
      <path d="M 0 3 
C 0.795609 3 1.55874 2.683901 2.12132 2.12132 
C 2.683901 1.55874 3 0.795609 3 0 
C 3 -0.795609 2.683901 -1.55874 2.12132 -2.12132 
C 1.55874 -2.683901 0.795609 -3 0 -3 
C -0.795609 -3 -1.55874 -2.683901 -2.12132 -2.12132 
C -2.683901 -1.55874 -3 -0.795609 -3 0 
C -3 0.795609 -2.683901 1.55874 -2.12132 2.12132 
C -1.55874 2.683901 -0.795609 3 0 3 
z
" id="m54740d06f2" style="stroke:#333333;"/>
     </defs>
     <g>
      <use style="fill:#333333;stroke:#333333;" x="359.649659" xlink:href="#m54740d06f2" y="79.459375"/>
     </g>
    </g>
    <g id="text_28">
     <text style="font-family:DejaVu Sans;font-size:20px;font-stretch:normal;font-style:normal;font-weight:normal;text-anchor:start;" transform="rotate(-0, 395.649659, 84.709375)" x="395.649659" y="84.709375">Both</text>
    </g>
    <g id="PathCollection_6">
     <defs>
      <path d="M -1.5 3 
L 0 1.5 
L 1.5 3 
L 3 1.5 
L 1.5 0 
L 3 -1.5 
L 1.5 -3 
L 0 -1.5 
L -1.5 -3 
L -3 -1.5 
L -1.5 0 
L -3 1.5 
z
" id="m49435d0229" style="stroke:#333333;"/>
     </defs>
     <g>
      <use style="fill:#333333;stroke:#333333;" x="359.649659" xlink:href="#m49435d0229" y="108.815625"/>
     </g>
    </g>
    <g id="text_29">
     <text style="font-family:DejaVu Sans;font-size:20px;font-stretch:normal;font-style:normal;font-weight:normal;text-anchor:start;" transform="rotate(-0, 395.649659, 114.065625)" x="395.649659" y="114.065625">Microglia</text>
    </g>
    <g id="PathCollection_7">
     <defs>
      <path d="M -2.12132 -2.12132 
L -2.12132 2.12132 
L 2.12132 2.12132 
L 2.12132 -2.12132 
z
" id="mb37f02695d" style="stroke:#333333;"/>
     </defs>
     <g>
      <use style="fill:#333333;stroke:#333333;" x="359.649659" xlink:href="#mb37f02695d" y="138.171875"/>
     </g>
    </g>
    <g id="text_30">
     <text style="font-family:DejaVu Sans;font-size:20px;font-stretch:normal;font-style:normal;font-weight:normal;text-anchor:start;" transform="rotate(-0, 395.649659, 143.421875)" x="395.649659" y="143.421875">Neuron</text>
    </g>
   </g>
  </g>
 </g>
 <defs>
  <clipPath id="p5abd2607fa">
   <rect height="482.53125" width="435.699659" x="81.996875" y="21.6"/>
  </clipPath>
 </defs>
</svg>
