<?xml version="1.0" encoding="utf-8" standalone="no"?>
<!DOCTYPE svg PUBLIC "-//W3C//DTD SVG 1.1//EN"
  "http://www.w3.org/Graphics/SVG/1.1/DTD/svg11.dtd">
<!-- Created with matplotlib (https://matplotlib.org/) -->
<svg height="576pt" version="1.1" viewBox="0 0 576 576" width="576pt" xmlns="http://www.w3.org/2000/svg" xmlns:xlink="http://www.w3.org/1999/xlink">
 <metadata>
  <rdf:RDF xmlns:cc="http://creativecommons.org/ns#" xmlns:dc="http://purl.org/dc/elements/1.1/" xmlns:rdf="http://www.w3.org/1999/02/22-rdf-syntax-ns#">
   <cc:Work>
    <dc:type rdf:resource="http://purl.org/dc/dcmitype/StillImage"/>
    <dc:date>2022-03-30T23:05:35.447390</dc:date>
    <dc:format>image/svg+xml</dc:format>
    <dc:creator>
     <cc:Agent>
      <dc:title>Matplotlib v3.3.4, https://matplotlib.org/</dc:title>
     </cc:Agent>
    </dc:creator>
   </cc:Work>
  </rdf:RDF>
 </metadata>
 <defs>
  <style type="text/css">*{stroke-linecap:butt;stroke-linejoin:round;}</style>
 </defs>
 <g id="figure_1">
  <g id="patch_1">
   <path d="M 0 576 
L 576 576 
L 576 0 
L 0 0 
z
" style="fill:none;"/>
  </g>
  <g id="axes_1">
   <g id="patch_2">
    <path d="M 81.996875 504.13125 
L 517.696534 504.13125 
L 517.696534 21.6 
L 81.996875 21.6 
z
" style="fill:#ffffff;"/>
   </g>
   <g id="PathCollection_1">
    <path clip-path="url(#pb4cb95fb40)" d="M 260.322613 339.355306 
C 261.260248 339.355306 262.159606 338.98278 262.822613 338.319772 
C 263.485621 337.656764 263.858147 336.757407 263.858147 335.819772 
C 263.858147 334.882138 263.485621 333.98278 262.822613 333.319772 
C 262.159606 332.656764 261.260248 332.284238 260.322613 332.284238 
C 259.384979 332.284238 258.485621 332.656764 257.822613 333.319772 
C 257.159606 333.98278 256.787079 334.882138 256.787079 335.819772 
C 256.787079 336.757407 257.159606 337.656764 257.822613 338.319772 
C 258.485621 338.98278 259.384979 339.355306 260.322613 339.355306 
z
" style="fill:#1f77b4;stroke:#ffffff;stroke-width:0.565685;"/>
    <path clip-path="url(#pb4cb95fb40)" d="M 302.319284 295.748828 
L 302.319284 300.748828 
L 307.319284 300.748828 
L 307.319284 295.748828 
z
" style="fill:#1f77b4;stroke:#ffffff;stroke-width:0.565685;"/>
    <path clip-path="url(#pb4cb95fb40)" d="M 301.018805 342.954257 
C 301.956439 342.954257 302.855797 342.581731 303.518805 341.918723 
C 304.181812 341.255715 304.554339 340.356358 304.554339 339.418723 
C 304.554339 338.481089 304.181812 337.581731 303.518805 336.918723 
C 302.855797 336.255715 301.956439 335.883189 301.018805 335.883189 
C 300.08117 335.883189 299.181812 336.255715 298.518805 336.918723 
C 297.855797 337.581731 297.483271 338.481089 297.483271 339.418723 
C 297.483271 340.356358 297.855797 341.255715 298.518805 341.918723 
C 299.181812 342.581731 300.08117 342.954257 301.018805 342.954257 
z
" style="fill:#1f77b4;stroke:#ffffff;stroke-width:0.565685;"/>
    <path clip-path="url(#pb4cb95fb40)" d="M 301.216066 285.798017 
L 301.216066 290.798017 
L 306.216066 290.798017 
L 306.216066 285.798017 
z
" style="fill:#1f77b4;stroke:#ffffff;stroke-width:0.565685;"/>
    <path clip-path="url(#pb4cb95fb40)" d="M 327.588669 260.252332 
C 328.526303 260.252332 329.425661 259.879806 330.088669 259.216798 
C 330.751677 258.553791 331.124203 257.654433 331.124203 256.716798 
C 331.124203 255.779164 330.751677 254.879806 330.088669 254.216798 
C 329.425661 253.553791 328.526303 253.181265 327.588669 253.181265 
C 326.651034 253.181265 325.751677 253.553791 325.088669 254.216798 
C 324.425661 254.879806 324.053135 255.779164 324.053135 256.716798 
C 324.053135 257.654433 324.425661 258.553791 325.088669 259.216798 
C 325.751677 259.879806 326.651034 260.252332 327.588669 260.252332 
z
" style="fill:#1f77b4;stroke:#ffffff;stroke-width:0.565685;"/>
    <path clip-path="url(#pb4cb95fb40)" d="M 299.508359 308.142072 
C 300.445993 308.142072 301.345351 307.769546 302.008359 307.106538 
C 302.671366 306.44353 303.043892 305.544172 303.043892 304.606538 
C 303.043892 303.668903 302.671366 302.769546 302.008359 302.106538 
C 301.345351 301.44353 300.445993 301.071004 299.508359 301.071004 
C 298.570724 301.071004 297.671366 301.44353 297.008359 302.106538 
C 296.345351 302.769546 295.972825 303.668903 295.972825 304.606538 
C 295.972825 305.544172 296.345351 306.44353 297.008359 307.106538 
C 297.671366 307.769546 298.570724 308.142072 299.508359 308.142072 
z
" style="fill:#1f77b4;stroke:#ffffff;stroke-width:0.565685;"/>
    <path clip-path="url(#pb4cb95fb40)" d="M 272.839753 276.295181 
L 272.839753 281.295181 
L 277.839753 281.295181 
L 277.839753 276.295181 
z
" style="fill:#1f77b4;stroke:#ffffff;stroke-width:0.565685;"/>
    <path clip-path="url(#pb4cb95fb40)" d="M 349.750352 249.330652 
C 350.687987 249.330652 351.587344 248.958126 352.250352 248.295118 
C 352.91336 247.632111 353.285886 246.732753 353.285886 245.795118 
C 353.285886 244.857484 352.91336 243.958126 352.250352 243.295118 
C 351.587344 242.632111 350.687987 242.259584 349.750352 242.259584 
C 348.812718 242.259584 347.91336 242.632111 347.250352 243.295118 
C 346.587344 243.958126 346.214818 244.857484 346.214818 245.795118 
C 346.214818 246.732753 346.587344 247.632111 347.250352 248.295118 
C 347.91336 248.958126 348.812718 249.330652 349.750352 249.330652 
z
" style="fill:#1f77b4;stroke:#ffffff;stroke-width:0.565685;"/>
    <path clip-path="url(#pb4cb95fb40)" d="M 497.892004 47.068773 
C 498.829639 47.068773 499.728996 46.696246 500.392004 46.033239 
C 501.055012 45.370231 501.427538 44.470873 501.427538 43.533239 
C 501.427538 42.595604 501.055012 41.696246 500.392004 41.033239 
C 499.728996 40.370231 498.829639 39.997705 497.892004 39.997705 
C 496.95437 39.997705 496.055012 40.370231 495.392004 41.033239 
C 494.728996 41.696246 494.35647 42.595604 494.35647 43.533239 
C 494.35647 44.470873 494.728996 45.370231 495.392004 46.033239 
C 496.055012 46.696246 496.95437 47.068773 497.892004 47.068773 
z
" style="fill:#1f77b4;stroke:#ffffff;stroke-width:0.565685;"/>
    <path clip-path="url(#pb4cb95fb40)" d="M 264.009607 335.110185 
C 264.947241 335.110185 265.846599 334.737659 266.509607 334.074651 
C 267.172614 333.411644 267.545141 332.512286 267.545141 331.574651 
C 267.545141 330.637017 267.172614 329.737659 266.509607 329.074651 
C 265.846599 328.411644 264.947241 328.039118 264.009607 328.039118 
C 263.071972 328.039118 262.172614 328.411644 261.509607 329.074651 
C 260.846599 329.737659 260.474073 330.637017 260.474073 331.574651 
C 260.474073 332.512286 260.846599 333.411644 261.509607 334.074651 
C 262.172614 334.737659 263.071972 335.110185 264.009607 335.110185 
z
" style="fill:#1f77b4;stroke:#ffffff;stroke-width:0.565685;"/>
    <path clip-path="url(#pb4cb95fb40)" d="M 302.788897 301.744366 
C 303.726532 301.744366 304.625889 301.37184 305.288897 300.708832 
C 305.951905 300.045825 306.324431 299.146467 306.324431 298.208832 
C 306.324431 297.271198 305.951905 296.37184 305.288897 295.708832 
C 304.625889 295.045825 303.726532 294.673298 302.788897 294.673298 
C 301.851263 294.673298 300.951905 295.045825 300.288897 295.708832 
C 299.625889 296.37184 299.253363 297.271198 299.253363 298.208832 
C 299.253363 299.146467 299.625889 300.045825 300.288897 300.708832 
C 300.951905 301.37184 301.851263 301.744366 302.788897 301.744366 
z
" style="fill:#1f77b4;stroke:#ffffff;stroke-width:0.565685;"/>
    <path clip-path="url(#pb4cb95fb40)" d="M 295.126423 288.691601 
C 296.064058 288.691601 296.963416 288.319075 297.626423 287.656067 
C 298.289431 286.993059 298.661957 286.093701 298.661957 285.156067 
C 298.661957 284.218432 298.289431 283.319075 297.626423 282.656067 
C 296.963416 281.993059 296.064058 281.620533 295.126423 281.620533 
C 294.188789 281.620533 293.289431 281.993059 292.626423 282.656067 
C 291.963416 283.319075 291.59089 284.218432 291.59089 285.156067 
C 291.59089 286.093701 291.963416 286.993059 292.626423 287.656067 
C 293.289431 288.319075 294.188789 288.691601 295.126423 288.691601 
z
" style="fill:#1f77b4;stroke:#ffffff;stroke-width:0.565685;"/>
    <path clip-path="url(#pb4cb95fb40)" d="M 213.331005 296.14043 
L 213.331005 301.14043 
L 218.331005 301.14043 
L 218.331005 296.14043 
z
" style="fill:#1f77b4;stroke:#ffffff;stroke-width:0.565685;"/>
    <path clip-path="url(#pb4cb95fb40)" d="M 299.837557 280.870703 
C 300.775192 280.870703 301.67455 280.498177 302.337557 279.835169 
C 303.000565 279.172161 303.373091 278.272804 303.373091 277.335169 
C 303.373091 276.397535 303.000565 275.498177 302.337557 274.835169 
C 301.67455 274.172161 300.775192 273.799635 299.837557 273.799635 
C 298.899923 273.799635 298.000565 274.172161 297.337557 274.835169 
C 296.67455 275.498177 296.302023 276.397535 296.302023 277.335169 
C 296.302023 278.272804 296.67455 279.172161 297.337557 279.835169 
C 298.000565 280.498177 298.899923 280.870703 299.837557 280.870703 
z
" style="fill:#1f77b4;stroke:#ffffff;stroke-width:0.565685;"/>
    <path clip-path="url(#pb4cb95fb40)" d="M 333.115138 288.578075 
C 334.052773 288.578075 334.952131 288.205549 335.615138 287.542541 
C 336.278146 286.879534 336.650672 285.980176 336.650672 285.042541 
C 336.650672 284.104907 336.278146 283.205549 335.615138 282.542541 
C 334.952131 281.879534 334.052773 281.507008 333.115138 281.507008 
C 332.177504 281.507008 331.278146 281.879534 330.615138 282.542541 
C 329.952131 283.205549 329.579604 284.104907 329.579604 285.042541 
C 329.579604 285.980176 329.952131 286.879534 330.615138 287.542541 
C 331.278146 288.205549 332.177504 288.578075 333.115138 288.578075 
z
" style="fill:#1f77b4;stroke:#ffffff;stroke-width:0.565685;"/>
    <path clip-path="url(#pb4cb95fb40)" d="M 286.192689 276.523403 
L 286.192689 281.523403 
L 291.192689 281.523403 
L 291.192689 276.523403 
z
" style="fill:#1f77b4;stroke:#ffffff;stroke-width:0.565685;"/>
    <path clip-path="url(#pb4cb95fb40)" d="M 325.527871 260.897891 
L 327.295638 259.130124 
L 329.063405 260.897891 
L 330.831172 259.130124 
L 329.063405 257.362357 
L 330.831172 255.59459 
L 329.063405 253.826823 
L 327.295638 255.59459 
L 325.527871 253.826823 
L 323.760104 255.59459 
L 325.527871 257.362357 
L 323.760104 259.130124 
z
" style="fill:#1f77b4;stroke:#ffffff;stroke-width:0.565685;"/>
    <path clip-path="url(#pb4cb95fb40)" d="M 289.583503 326.294964 
L 291.35127 324.527197 
L 293.119037 326.294964 
L 294.886804 324.527197 
L 293.119037 322.75943 
L 294.886804 320.991664 
L 293.119037 319.223897 
L 291.35127 320.991664 
L 289.583503 319.223897 
L 287.815736 320.991664 
L 289.583503 322.75943 
L 287.815736 324.527197 
z
" style="fill:#1f77b4;stroke:#ffffff;stroke-width:0.565685;"/>
    <path clip-path="url(#pb4cb95fb40)" d="M 282.327065 316.605186 
L 284.094832 314.837419 
L 285.862599 316.605186 
L 287.630366 314.837419 
L 285.862599 313.069652 
L 287.630366 311.301885 
L 285.862599 309.534118 
L 284.094832 311.301885 
L 282.327065 309.534118 
L 280.559298 311.301885 
L 282.327065 313.069652 
L 280.559298 314.837419 
z
" style="fill:#1f77b4;stroke:#ffffff;stroke-width:0.565685;"/>
    <path clip-path="url(#pb4cb95fb40)" d="M 313.40722 265.395167 
L 313.40722 270.395167 
L 318.40722 270.395167 
L 318.40722 265.395167 
z
" style="fill:#1f77b4;stroke:#ffffff;stroke-width:0.565685;"/>
    <path clip-path="url(#pb4cb95fb40)" d="M 326.719479 215.699343 
C 327.657113 215.699343 328.556471 215.326817 329.219479 214.663809 
C 329.882487 214.000801 330.255013 213.101443 330.255013 212.163809 
C 330.255013 211.226174 329.882487 210.326817 329.219479 209.663809 
C 328.556471 209.000801 327.657113 208.628275 326.719479 208.628275 
C 325.781844 208.628275 324.882487 209.000801 324.219479 209.663809 
C 323.556471 210.326817 323.183945 211.226174 323.183945 212.163809 
C 323.183945 213.101443 323.556471 214.000801 324.219479 214.663809 
C 324.882487 215.326817 325.781844 215.699343 326.719479 215.699343 
z
" style="fill:#1f77b4;stroke:#ffffff;stroke-width:0.565685;"/>
    <path clip-path="url(#pb4cb95fb40)" d="M 287.63707 278.707478 
L 289.404837 276.939711 
L 291.172604 278.707478 
L 292.940371 276.939711 
L 291.172604 275.171944 
L 292.940371 273.404177 
L 291.172604 271.636411 
L 289.404837 273.404177 
L 287.63707 271.636411 
L 285.869303 273.404177 
L 287.63707 275.171944 
L 285.869303 276.939711 
z
" style="fill:#1f77b4;stroke:#ffffff;stroke-width:0.565685;"/>
    <path clip-path="url(#pb4cb95fb40)" d="M 325.501087 251.126152 
L 325.501087 256.126152 
L 330.501087 256.126152 
L 330.501087 251.126152 
z
" style="fill:#1f77b4;stroke:#ffffff;stroke-width:0.565685;"/>
    <path clip-path="url(#pb4cb95fb40)" d="M 297.100153 292.553921 
L 298.86792 290.786154 
L 300.635687 292.553921 
L 302.403454 290.786154 
L 300.635687 289.018387 
L 302.403454 287.25062 
L 300.635687 285.482853 
L 298.86792 287.25062 
L 297.100153 285.482853 
L 295.332386 287.25062 
L 297.100153 289.018387 
L 295.332386 290.786154 
z
" style="fill:#1f77b4;stroke:#ffffff;stroke-width:0.565685;"/>
    <path clip-path="url(#pb4cb95fb40)" d="M 302.063542 269.908858 
C 303.001177 269.908858 303.900534 269.536331 304.563542 268.873324 
C 305.22655 268.210316 305.599076 267.310958 305.599076 266.373324 
C 305.599076 265.435689 305.22655 264.536331 304.563542 263.873324 
C 303.900534 263.210316 303.001177 262.83779 302.063542 262.83779 
C 301.125908 262.83779 300.22655 263.210316 299.563542 263.873324 
C 298.900534 264.536331 298.528008 265.435689 298.528008 266.373324 
C 298.528008 267.310958 298.900534 268.210316 299.563542 268.873324 
C 300.22655 269.536331 301.125908 269.908858 302.063542 269.908858 
z
" style="fill:#1f77b4;stroke:#ffffff;stroke-width:0.565685;"/>
    <path clip-path="url(#pb4cb95fb40)" d="M 292.62319 359.309514 
C 293.560825 359.309514 294.460182 358.936988 295.12319 358.273981 
C 295.786198 357.610973 296.158724 356.711615 296.158724 355.773981 
C 296.158724 354.836346 295.786198 353.936988 295.12319 353.273981 
C 294.460182 352.610973 293.560825 352.238447 292.62319 352.238447 
C 291.685555 352.238447 290.786198 352.610973 290.12319 353.273981 
C 289.460182 353.936988 289.087656 354.836346 289.087656 355.773981 
C 289.087656 356.711615 289.460182 357.610973 290.12319 358.273981 
C 290.786198 358.936988 291.685555 359.309514 292.62319 359.309514 
z
" style="fill:#1f77b4;stroke:#ffffff;stroke-width:0.565685;"/>
    <path clip-path="url(#pb4cb95fb40)" d="M 316.553205 94.446918 
C 317.49084 94.446918 318.390198 94.074392 319.053205 93.411384 
C 319.716213 92.748376 320.088739 91.849018 320.088739 90.911384 
C 320.088739 89.973749 319.716213 89.074392 319.053205 88.411384 
C 318.390198 87.748376 317.49084 87.37585 316.553205 87.37585 
C 315.615571 87.37585 314.716213 87.748376 314.053205 88.411384 
C 313.390198 89.074392 313.017671 89.973749 313.017671 90.911384 
C 313.017671 91.849018 313.390198 92.748376 314.053205 93.411384 
C 314.716213 94.074392 315.615571 94.446918 316.553205 94.446918 
z
" style="fill:#1f77b4;stroke:#ffffff;stroke-width:0.565685;"/>
    <path clip-path="url(#pb4cb95fb40)" d="M 304.952152 272.293674 
C 305.889786 272.293674 306.789144 271.921148 307.452152 271.25814 
C 308.11516 270.595132 308.487686 269.695775 308.487686 268.75814 
C 308.487686 267.820505 308.11516 266.921148 307.452152 266.25814 
C 306.789144 265.595132 305.889786 265.222606 304.952152 265.222606 
C 304.014517 265.222606 303.11516 265.595132 302.452152 266.25814 
C 301.789144 266.921148 301.416618 267.820505 301.416618 268.75814 
C 301.416618 269.695775 301.789144 270.595132 302.452152 271.25814 
C 303.11516 271.921148 304.014517 272.293674 304.952152 272.293674 
z
" style="fill:#1f77b4;stroke:#ffffff;stroke-width:0.565685;"/>
    <path clip-path="url(#pb4cb95fb40)" d="M 283.739933 262.942913 
L 285.5077 261.175146 
L 287.275467 262.942913 
L 289.043234 261.175146 
L 287.275467 259.407379 
L 289.043234 257.639612 
L 287.275467 255.871845 
L 285.5077 257.639612 
L 283.739933 255.871845 
L 281.972166 257.639612 
L 283.739933 259.407379 
L 281.972166 261.175146 
z
" style="fill:#1f77b4;stroke:#ffffff;stroke-width:0.565685;"/>
    <path clip-path="url(#pb4cb95fb40)" d="M 291.394976 309.224242 
L 293.162743 307.456475 
L 294.93051 309.224242 
L 296.698277 307.456475 
L 294.93051 305.688708 
L 296.698277 303.920941 
L 294.93051 302.153174 
L 293.162743 303.920941 
L 291.394976 302.153174 
L 289.627209 303.920941 
L 291.394976 305.688708 
L 289.627209 307.456475 
z
" style="fill:#1f77b4;stroke:#ffffff;stroke-width:0.565685;"/>
    <path clip-path="url(#pb4cb95fb40)" d="M 284.180609 307.688248 
L 285.948376 305.920481 
L 287.716143 307.688248 
L 289.48391 305.920481 
L 287.716143 304.152714 
L 289.48391 302.384947 
L 287.716143 300.617181 
L 285.948376 302.384947 
L 284.180609 300.617181 
L 282.412842 302.384947 
L 284.180609 304.152714 
L 282.412842 305.920481 
z
" style="fill:#1f77b4;stroke:#ffffff;stroke-width:0.565685;"/>
    <path clip-path="url(#pb4cb95fb40)" d="M 407.322583 209.503232 
L 409.09035 207.735465 
L 410.858117 209.503232 
L 412.625884 207.735465 
L 410.858117 205.967698 
L 412.625884 204.199931 
L 410.858117 202.432164 
L 409.09035 204.199931 
L 407.322583 202.432164 
L 405.554816 204.199931 
L 407.322583 205.967698 
L 405.554816 207.735465 
z
" style="fill:#1f77b4;stroke:#ffffff;stroke-width:0.565685;"/>
    <path clip-path="url(#pb4cb95fb40)" d="M 291.323476 334.168782 
L 293.091243 332.401015 
L 294.85901 334.168782 
L 296.626777 332.401015 
L 294.85901 330.633248 
L 296.626777 328.865482 
L 294.85901 327.097715 
L 293.091243 328.865482 
L 291.323476 327.097715 
L 289.555709 328.865482 
L 291.323476 330.633248 
L 289.555709 332.401015 
z
" style="fill:#1f77b4;stroke:#ffffff;stroke-width:0.565685;"/>
    <path clip-path="url(#pb4cb95fb40)" d="M 301.36074 312.425833 
L 301.36074 317.425833 
L 306.36074 317.425833 
L 306.36074 312.425833 
z
" style="fill:#1f77b4;stroke:#ffffff;stroke-width:0.565685;"/>
    <path clip-path="url(#pb4cb95fb40)" d="M 297.55931 288.996749 
L 299.327077 287.228982 
L 301.094844 288.996749 
L 302.862611 287.228982 
L 301.094844 285.461215 
L 302.862611 283.693448 
L 301.094844 281.925681 
L 299.327077 283.693448 
L 297.55931 281.925681 
L 295.791544 283.693448 
L 297.55931 285.461215 
L 295.791544 287.228982 
z
" style="fill:#1f77b4;stroke:#ffffff;stroke-width:0.565685;"/>
    <path clip-path="url(#pb4cb95fb40)" d="M 298.782083 279.233328 
C 299.719717 279.233328 300.619075 278.860802 301.282083 278.197794 
C 301.94509 277.534787 302.317617 276.635429 302.317617 275.697794 
C 302.317617 274.76016 301.94509 273.860802 301.282083 273.197794 
C 300.619075 272.534787 299.719717 272.16226 298.782083 272.16226 
C 297.844448 272.16226 296.94509 272.534787 296.282083 273.197794 
C 295.619075 273.860802 295.246549 274.76016 295.246549 275.697794 
C 295.246549 276.635429 295.619075 277.534787 296.282083 278.197794 
C 296.94509 278.860802 297.844448 279.233328 298.782083 279.233328 
z
" style="fill:#1f77b4;stroke:#ffffff;stroke-width:0.565685;"/>
    <path clip-path="url(#pb4cb95fb40)" d="M 309.431341 231.835277 
L 309.431341 236.835277 
L 314.431341 236.835277 
L 314.431341 231.835277 
z
" style="fill:#1f77b4;stroke:#ffffff;stroke-width:0.565685;"/>
    <path clip-path="url(#pb4cb95fb40)" d="M 286.626513 425.315989 
L 288.39428 423.548222 
L 290.162047 425.315989 
L 291.929814 423.548222 
L 290.162047 421.780455 
L 291.929814 420.012688 
L 290.162047 418.244921 
L 288.39428 420.012688 
L 286.626513 418.244921 
L 284.858746 420.012688 
L 286.626513 421.780455 
L 284.858746 423.548222 
z
" style="fill:#1f77b4;stroke:#ffffff;stroke-width:0.565685;"/>
    <path clip-path="url(#pb4cb95fb40)" d="M 264.046655 363.93565 
C 264.984289 363.93565 265.883647 363.563124 266.546655 362.900116 
C 267.209662 362.237108 267.582189 361.337751 267.582189 360.400116 
C 267.582189 359.462481 267.209662 358.563124 266.546655 357.900116 
C 265.883647 357.237108 264.984289 356.864582 264.046655 356.864582 
C 263.10902 356.864582 262.209662 357.237108 261.546655 357.900116 
C 260.883647 358.563124 260.511121 359.462481 260.511121 360.400116 
C 260.511121 361.337751 260.883647 362.237108 261.546655 362.900116 
C 262.209662 363.563124 263.10902 363.93565 264.046655 363.93565 
z
" style="fill:#1f77b4;stroke:#ffffff;stroke-width:0.565685;"/>
    <path clip-path="url(#pb4cb95fb40)" d="M 293.463779 252.390086 
L 293.463779 257.390086 
L 298.463779 257.390086 
L 298.463779 252.390086 
z
" style="fill:#1f77b4;stroke:#ffffff;stroke-width:0.565685;"/>
    <path clip-path="url(#pb4cb95fb40)" d="M 291.660365 304.662813 
L 291.660365 309.662813 
L 296.660365 309.662813 
L 296.660365 304.662813 
z
" style="fill:#1f77b4;stroke:#ffffff;stroke-width:0.565685;"/>
    <path clip-path="url(#pb4cb95fb40)" d="M 294.960913 283.598919 
L 294.960913 288.598919 
L 299.960913 288.598919 
L 299.960913 283.598919 
z
" style="fill:#1f77b4;stroke:#ffffff;stroke-width:0.565685;"/>
    <path clip-path="url(#pb4cb95fb40)" d="M 420.70612 106.118986 
C 421.643755 106.118986 422.543112 105.74646 423.20612 105.083452 
C 423.869128 104.420444 424.241654 103.521087 424.241654 102.583452 
C 424.241654 101.645817 423.869128 100.74646 423.20612 100.083452 
C 422.543112 99.420444 421.643755 99.047918 420.70612 99.047918 
C 419.768486 99.047918 418.869128 99.420444 418.20612 100.083452 
C 417.543112 100.74646 417.170586 101.645817 417.170586 102.583452 
C 417.170586 103.521087 417.543112 104.420444 418.20612 105.083452 
C 418.869128 105.74646 419.768486 106.118986 420.70612 106.118986 
z
" style="fill:#1f77b4;stroke:#ffffff;stroke-width:0.565685;"/>
    <path clip-path="url(#pb4cb95fb40)" d="M 306.93646 267.471827 
L 306.93646 272.471827 
L 311.93646 272.471827 
L 311.93646 267.471827 
z
" style="fill:#1f77b4;stroke:#ffffff;stroke-width:0.565685;"/>
    <path clip-path="url(#pb4cb95fb40)" d="M 285.857745 304.944472 
C 286.79538 304.944472 287.694738 304.571946 288.357745 303.908938 
C 289.020753 303.245931 289.393279 302.346573 289.393279 301.408938 
C 289.393279 300.471304 289.020753 299.571946 288.357745 298.908938 
C 287.694738 298.245931 286.79538 297.873405 285.857745 297.873405 
C 284.920111 297.873405 284.020753 298.245931 283.357745 298.908938 
C 282.694738 299.571946 282.322211 300.471304 282.322211 301.408938 
C 282.322211 302.346573 282.694738 303.245931 283.357745 303.908938 
C 284.020753 304.571946 284.920111 304.944472 285.857745 304.944472 
z
" style="fill:#1f77b4;stroke:#ffffff;stroke-width:0.565685;"/>
    <path clip-path="url(#pb4cb95fb40)" d="M 370.599299 386.576035 
C 371.536933 386.576035 372.436291 386.203508 373.099299 385.540501 
C 373.762306 384.877493 374.134833 383.978135 374.134833 383.040501 
C 374.134833 382.102866 373.762306 381.203508 373.099299 380.540501 
C 372.436291 379.877493 371.536933 379.504967 370.599299 379.504967 
C 369.661664 379.504967 368.762306 379.877493 368.099299 380.540501 
C 367.436291 381.203508 367.063765 382.102866 367.063765 383.040501 
C 367.063765 383.978135 367.436291 384.877493 368.099299 385.540501 
C 368.762306 386.203508 369.661664 386.576035 370.599299 386.576035 
z
" style="fill:#1f77b4;stroke:#ffffff;stroke-width:0.565685;"/>
    <path clip-path="url(#pb4cb95fb40)" d="M 292.520169 343.383627 
C 293.457804 343.383627 294.357161 343.011101 295.020169 342.348093 
C 295.683177 341.685085 296.055703 340.785728 296.055703 339.848093 
C 296.055703 338.910458 295.683177 338.011101 295.020169 337.348093 
C 294.357161 336.685085 293.457804 336.312559 292.520169 336.312559 
C 291.582534 336.312559 290.683177 336.685085 290.020169 337.348093 
C 289.357161 338.011101 288.984635 338.910458 288.984635 339.848093 
C 288.984635 340.785728 289.357161 341.685085 290.020169 342.348093 
C 290.683177 343.011101 291.582534 343.383627 292.520169 343.383627 
z
" style="fill:#1f77b4;stroke:#ffffff;stroke-width:0.565685;"/>
    <path clip-path="url(#pb4cb95fb40)" d="M 286.032904 299.959301 
L 286.032904 304.959301 
L 291.032904 304.959301 
L 291.032904 299.959301 
z
" style="fill:#1f77b4;stroke:#ffffff;stroke-width:0.565685;"/>
    <path clip-path="url(#pb4cb95fb40)" d="M 292.711026 296.641547 
L 292.711026 301.641547 
L 297.711026 301.641547 
L 297.711026 296.641547 
z
" style="fill:#1f77b4;stroke:#ffffff;stroke-width:0.565685;"/>
    <path clip-path="url(#pb4cb95fb40)" d="M 284.769525 305.753338 
L 284.769525 310.753338 
L 289.769525 310.753338 
L 289.769525 305.753338 
z
" style="fill:#1f77b4;stroke:#ffffff;stroke-width:0.565685;"/>
    <path clip-path="url(#pb4cb95fb40)" d="M 309.311483 293.467807 
C 310.249117 293.467807 311.148475 293.095281 311.811483 292.432273 
C 312.47449 291.769266 312.847017 290.869908 312.847017 289.932273 
C 312.847017 288.994639 312.47449 288.095281 311.811483 287.432273 
C 311.148475 286.769266 310.249117 286.396739 309.311483 286.396739 
C 308.373848 286.396739 307.47449 286.769266 306.811483 287.432273 
C 306.148475 288.095281 305.775949 288.994639 305.775949 289.932273 
C 305.775949 290.869908 306.148475 291.769266 306.811483 292.432273 
C 307.47449 293.095281 308.373848 293.467807 309.311483 293.467807 
z
" style="fill:#1f77b4;stroke:#ffffff;stroke-width:0.565685;"/>
    <path clip-path="url(#pb4cb95fb40)" d="M 344.731661 91.82101 
C 345.669295 91.82101 346.568653 91.448483 347.231661 90.785476 
C 347.894668 90.122468 348.267195 89.22311 348.267195 88.285476 
C 348.267195 87.347841 347.894668 86.448483 347.231661 85.785476 
C 346.568653 85.122468 345.669295 84.749942 344.731661 84.749942 
C 343.794026 84.749942 342.894668 85.122468 342.231661 85.785476 
C 341.568653 86.448483 341.196127 87.347841 341.196127 88.285476 
C 341.196127 89.22311 341.568653 90.122468 342.231661 90.785476 
C 342.894668 91.448483 343.794026 91.82101 344.731661 91.82101 
z
" style="fill:#1f77b4;stroke:#ffffff;stroke-width:0.565685;"/>
    <path clip-path="url(#pb4cb95fb40)" d="M 327.573263 283.562898 
C 328.510898 283.562898 329.410255 283.190371 330.073263 282.527364 
C 330.736271 281.864356 331.108797 280.964998 331.108797 280.027364 
C 331.108797 279.089729 330.736271 278.190371 330.073263 277.527364 
C 329.410255 276.864356 328.510898 276.49183 327.573263 276.49183 
C 326.635628 276.49183 325.736271 276.864356 325.073263 277.527364 
C 324.410255 278.190371 324.037729 279.089729 324.037729 280.027364 
C 324.037729 280.964998 324.410255 281.864356 325.073263 282.527364 
C 325.736271 283.190371 326.635628 283.562898 327.573263 283.562898 
z
" style="fill:#1f77b4;stroke:#ffffff;stroke-width:0.565685;"/>
    <path clip-path="url(#pb4cb95fb40)" d="M 290.488599 312.529221 
L 290.488599 317.529221 
L 295.488599 317.529221 
L 295.488599 312.529221 
z
" style="fill:#1f77b4;stroke:#ffffff;stroke-width:0.565685;"/>
    <path clip-path="url(#pb4cb95fb40)" d="M 300.25095 281.960542 
L 300.25095 286.960542 
L 305.25095 286.960542 
L 305.25095 281.960542 
z
" style="fill:#1f77b4;stroke:#ffffff;stroke-width:0.565685;"/>
    <path clip-path="url(#pb4cb95fb40)" d="M 295.499158 256.572779 
C 296.436793 256.572779 297.33615 256.200253 297.999158 255.537246 
C 298.662166 254.874238 299.034692 253.97488 299.034692 253.037246 
C 299.034692 252.099611 298.662166 251.200253 297.999158 250.537246 
C 297.33615 249.874238 296.436793 249.501712 295.499158 249.501712 
C 294.561524 249.501712 293.662166 249.874238 292.999158 250.537246 
C 292.33615 251.200253 291.963624 252.099611 291.963624 253.037246 
C 291.963624 253.97488 292.33615 254.874238 292.999158 255.537246 
C 293.662166 256.200253 294.561524 256.572779 295.499158 256.572779 
z
" style="fill:#1f77b4;stroke:#ffffff;stroke-width:0.565685;"/>
    <path clip-path="url(#pb4cb95fb40)" d="M 300.411395 237.483327 
C 301.349029 237.483327 302.248387 237.110801 302.911395 236.447793 
C 303.574403 235.784785 303.946929 234.885428 303.946929 233.947793 
C 303.946929 233.010159 303.574403 232.110801 302.911395 231.447793 
C 302.248387 230.784785 301.349029 230.412259 300.411395 230.412259 
C 299.47376 230.412259 298.574403 230.784785 297.911395 231.447793 
C 297.248387 232.110801 296.875861 233.010159 296.875861 233.947793 
C 296.875861 234.885428 297.248387 235.784785 297.911395 236.447793 
C 298.574403 237.110801 299.47376 237.483327 300.411395 237.483327 
z
" style="fill:#1f77b4;stroke:#ffffff;stroke-width:0.565685;"/>
    <path clip-path="url(#pb4cb95fb40)" d="M 279.258952 304.246496 
C 280.196586 304.246496 281.095944 303.87397 281.758952 303.210962 
C 282.42196 302.547955 282.794486 301.648597 282.794486 300.710962 
C 282.794486 299.773328 282.42196 298.87397 281.758952 298.210962 
C 281.095944 297.547955 280.196586 297.175429 279.258952 297.175429 
C 278.321317 297.175429 277.42196 297.547955 276.758952 298.210962 
C 276.095944 298.87397 275.723418 299.773328 275.723418 300.710962 
C 275.723418 301.648597 276.095944 302.547955 276.758952 303.210962 
C 277.42196 303.87397 278.321317 304.246496 279.258952 304.246496 
z
" style="fill:#1f77b4;stroke:#ffffff;stroke-width:0.565685;"/>
    <path clip-path="url(#pb4cb95fb40)" d="M 287.900743 291.623695 
L 287.900743 296.623695 
L 292.900743 296.623695 
L 292.900743 291.623695 
z
" style="fill:#1f77b4;stroke:#ffffff;stroke-width:0.565685;"/>
    <path clip-path="url(#pb4cb95fb40)" d="M 292.086222 280.470225 
L 292.086222 285.470225 
L 297.086222 285.470225 
L 297.086222 280.470225 
z
" style="fill:#1f77b4;stroke:#ffffff;stroke-width:0.565685;"/>
    <path clip-path="url(#pb4cb95fb40)" d="M 286.886543 285.108954 
L 286.886543 290.108954 
L 291.886543 290.108954 
L 291.886543 285.108954 
z
" style="fill:#1f77b4;stroke:#ffffff;stroke-width:0.565685;"/>
    <path clip-path="url(#pb4cb95fb40)" d="M 292.262208 313.597519 
L 292.262208 318.597519 
L 297.262208 318.597519 
L 297.262208 313.597519 
z
" style="fill:#1f77b4;stroke:#ffffff;stroke-width:0.565685;"/>
    <path clip-path="url(#pb4cb95fb40)" d="M 231.334547 334.429517 
L 231.334547 339.429517 
L 236.334547 339.429517 
L 236.334547 334.429517 
z
" style="fill:#1f77b4;stroke:#ffffff;stroke-width:0.565685;"/>
    <path clip-path="url(#pb4cb95fb40)" d="M 281.86014 307.054555 
C 282.797775 307.054555 283.697133 306.682029 284.36014 306.019021 
C 285.023148 305.356013 285.395674 304.456655 285.395674 303.519021 
C 285.395674 302.581386 285.023148 301.682029 284.36014 301.019021 
C 283.697133 300.356013 282.797775 299.983487 281.86014 299.983487 
C 280.922506 299.983487 280.023148 300.356013 279.36014 301.019021 
C 278.697133 301.682029 278.324606 302.581386 278.324606 303.519021 
C 278.324606 304.456655 278.697133 305.356013 279.36014 306.019021 
C 280.023148 306.682029 280.922506 307.054555 281.86014 307.054555 
z
" style="fill:#1f77b4;stroke:#ffffff;stroke-width:0.565685;"/>
    <path clip-path="url(#pb4cb95fb40)" d="M 292.345606 299.909463 
C 293.283241 299.909463 294.182599 299.536937 294.845606 298.873929 
C 295.508614 298.210922 295.88114 297.311564 295.88114 296.373929 
C 295.88114 295.436295 295.508614 294.536937 294.845606 293.873929 
C 294.182599 293.210922 293.283241 292.838396 292.345606 292.838396 
C 291.407972 292.838396 290.508614 293.210922 289.845606 293.873929 
C 289.182599 294.536937 288.810073 295.436295 288.810073 296.373929 
C 288.810073 297.311564 289.182599 298.210922 289.845606 298.873929 
C 290.508614 299.536937 291.407972 299.909463 292.345606 299.909463 
z
" style="fill:#1f77b4;stroke:#ffffff;stroke-width:0.565685;"/>
    <path clip-path="url(#pb4cb95fb40)" d="M 320.752143 291.360509 
C 321.689778 291.360509 322.589136 290.987983 323.252143 290.324976 
C 323.915151 289.661968 324.287677 288.76261 324.287677 287.824976 
C 324.287677 286.887341 323.915151 285.987983 323.252143 285.324976 
C 322.589136 284.661968 321.689778 284.289442 320.752143 284.289442 
C 319.814509 284.289442 318.915151 284.661968 318.252143 285.324976 
C 317.589136 285.987983 317.21661 286.887341 317.21661 287.824976 
C 317.21661 288.76261 317.589136 289.661968 318.252143 290.324976 
C 318.915151 290.987983 319.814509 291.360509 320.752143 291.360509 
z
" style="fill:#1f77b4;stroke:#ffffff;stroke-width:0.565685;"/>
    <path clip-path="url(#pb4cb95fb40)" d="M 280.040631 281.281579 
C 280.978265 281.281579 281.877623 280.909053 282.540631 280.246045 
C 283.203639 279.583038 283.576165 278.68368 283.576165 277.746045 
C 283.576165 276.808411 283.203639 275.909053 282.540631 275.246045 
C 281.877623 274.583038 280.978265 274.210511 280.040631 274.210511 
C 279.102996 274.210511 278.203639 274.583038 277.540631 275.246045 
C 276.877623 275.909053 276.505097 276.808411 276.505097 277.746045 
C 276.505097 278.68368 276.877623 279.583038 277.540631 280.246045 
C 278.203639 280.909053 279.102996 281.281579 280.040631 281.281579 
z
" style="fill:#1f77b4;stroke:#ffffff;stroke-width:0.565685;"/>
    <path clip-path="url(#pb4cb95fb40)" d="M 285.061582 258.498925 
C 285.999217 258.498925 286.898574 258.126399 287.561582 257.463392 
C 288.22459 256.800384 288.597116 255.901026 288.597116 254.963392 
C 288.597116 254.025757 288.22459 253.126399 287.561582 252.463392 
C 286.898574 251.800384 285.999217 251.427858 285.061582 251.427858 
C 284.123947 251.427858 283.22459 251.800384 282.561582 252.463392 
C 281.898574 253.126399 281.526048 254.025757 281.526048 254.963392 
C 281.526048 255.901026 281.898574 256.800384 282.561582 257.463392 
C 283.22459 258.126399 284.123947 258.498925 285.061582 258.498925 
z
" style="fill:#1f77b4;stroke:#ffffff;stroke-width:0.565685;"/>
    <path clip-path="url(#pb4cb95fb40)" d="M 303.90235 327.792077 
C 304.839985 327.792077 305.739342 327.419551 306.40235 326.756543 
C 307.065358 326.093535 307.437884 325.194177 307.437884 324.256543 
C 307.437884 323.318908 307.065358 322.419551 306.40235 321.756543 
C 305.739342 321.093535 304.839985 320.721009 303.90235 320.721009 
C 302.964715 320.721009 302.065358 321.093535 301.40235 321.756543 
C 300.739342 322.419551 300.366816 323.318908 300.366816 324.256543 
C 300.366816 325.194177 300.739342 326.093535 301.40235 326.756543 
C 302.065358 327.419551 302.964715 327.792077 303.90235 327.792077 
z
" style="fill:#1f77b4;stroke:#ffffff;stroke-width:0.565685;"/>
    <path clip-path="url(#pb4cb95fb40)" d="M 291.344615 303.530583 
C 292.282249 303.530583 293.181607 303.158057 293.844615 302.49505 
C 294.507623 301.832042 294.880149 300.932684 294.880149 299.99505 
C 294.880149 299.057415 294.507623 298.158057 293.844615 297.49505 
C 293.181607 296.832042 292.282249 296.459516 291.344615 296.459516 
C 290.40698 296.459516 289.507623 296.832042 288.844615 297.49505 
C 288.181607 298.158057 287.809081 299.057415 287.809081 299.99505 
C 287.809081 300.932684 288.181607 301.832042 288.844615 302.49505 
C 289.507623 303.158057 290.40698 303.530583 291.344615 303.530583 
z
" style="fill:#1f77b4;stroke:#ffffff;stroke-width:0.565685;"/>
    <path clip-path="url(#pb4cb95fb40)" d="M 266.275402 315.836131 
C 267.213037 315.836131 268.112394 315.463605 268.775402 314.800597 
C 269.43841 314.137589 269.810936 313.238231 269.810936 312.300597 
C 269.810936 311.362962 269.43841 310.463605 268.775402 309.800597 
C 268.112394 309.137589 267.213037 308.765063 266.275402 308.765063 
C 265.337768 308.765063 264.43841 309.137589 263.775402 309.800597 
C 263.112394 310.463605 262.739868 311.362962 262.739868 312.300597 
C 262.739868 313.238231 263.112394 314.137589 263.775402 314.800597 
C 264.43841 315.463605 265.337768 315.836131 266.275402 315.836131 
z
" style="fill:#1f77b4;stroke:#ffffff;stroke-width:0.565685;"/>
    <path clip-path="url(#pb4cb95fb40)" d="M 239.428718 361.478009 
L 239.428718 366.478009 
L 244.428718 366.478009 
L 244.428718 361.478009 
z
" style="fill:#1f77b4;stroke:#ffffff;stroke-width:0.565685;"/>
    <path clip-path="url(#pb4cb95fb40)" d="M 286.789927 321.887002 
L 286.789927 326.887002 
L 291.789927 326.887002 
L 291.789927 321.887002 
z
" style="fill:#1f77b4;stroke:#ffffff;stroke-width:0.565685;"/>
    <path clip-path="url(#pb4cb95fb40)" d="M 298.978225 275.815529 
C 299.915859 275.815529 300.815217 275.443003 301.478225 274.779995 
C 302.141232 274.116987 302.513759 273.217629 302.513759 272.279995 
C 302.513759 271.34236 302.141232 270.443003 301.478225 269.779995 
C 300.815217 269.116987 299.915859 268.744461 298.978225 268.744461 
C 298.04059 268.744461 297.141232 269.116987 296.478225 269.779995 
C 295.815217 270.443003 295.442691 271.34236 295.442691 272.279995 
C 295.442691 273.217629 295.815217 274.116987 296.478225 274.779995 
C 297.141232 275.443003 298.04059 275.815529 298.978225 275.815529 
z
" style="fill:#1f77b4;stroke:#ffffff;stroke-width:0.565685;"/>
    <path clip-path="url(#pb4cb95fb40)" d="M 311.100935 280.91003 
C 312.038569 280.91003 312.937927 280.537504 313.600935 279.874496 
C 314.263943 279.211488 314.636469 278.312131 314.636469 277.374496 
C 314.636469 276.436861 314.263943 275.537504 313.600935 274.874496 
C 312.937927 274.211488 312.038569 273.838962 311.100935 273.838962 
C 310.1633 273.838962 309.263943 274.211488 308.600935 274.874496 
C 307.937927 275.537504 307.565401 276.436861 307.565401 277.374496 
C 307.565401 278.312131 307.937927 279.211488 308.600935 279.874496 
C 309.263943 280.537504 310.1633 280.91003 311.100935 280.91003 
z
" style="fill:#1f77b4;stroke:#ffffff;stroke-width:0.565685;"/>
    <path clip-path="url(#pb4cb95fb40)" d="M 309.114817 310.374092 
C 310.052452 310.374092 310.951809 310.001566 311.614817 309.338558 
C 312.277825 308.67555 312.650351 307.776192 312.650351 306.838558 
C 312.650351 305.900923 312.277825 305.001566 311.614817 304.338558 
C 310.951809 303.67555 310.052452 303.303024 309.114817 303.303024 
C 308.177183 303.303024 307.277825 303.67555 306.614817 304.338558 
C 305.951809 305.001566 305.579283 305.900923 305.579283 306.838558 
C 305.579283 307.776192 305.951809 308.67555 306.614817 309.338558 
C 307.277825 310.001566 308.177183 310.374092 309.114817 310.374092 
z
" style="fill:#1f77b4;stroke:#ffffff;stroke-width:0.565685;"/>
    <path clip-path="url(#pb4cb95fb40)" d="M 291.735161 305.36259 
C 292.672796 305.36259 293.572153 304.990064 294.235161 304.327056 
C 294.898169 303.664048 295.270695 302.76469 295.270695 301.827056 
C 295.270695 300.889421 294.898169 299.990064 294.235161 299.327056 
C 293.572153 298.664048 292.672796 298.291522 291.735161 298.291522 
C 290.797527 298.291522 289.898169 298.664048 289.235161 299.327056 
C 288.572153 299.990064 288.199627 300.889421 288.199627 301.827056 
C 288.199627 302.76469 288.572153 303.664048 289.235161 304.327056 
C 289.898169 304.990064 290.797527 305.36259 291.735161 305.36259 
z
" style="fill:#1f77b4;stroke:#ffffff;stroke-width:0.565685;"/>
    <path clip-path="url(#pb4cb95fb40)" d="M 297.024695 309.097792 
C 297.96233 309.097792 298.861688 308.725266 299.524695 308.062258 
C 300.187703 307.399251 300.560229 306.499893 300.560229 305.562258 
C 300.560229 304.624624 300.187703 303.725266 299.524695 303.062258 
C 298.861688 302.399251 297.96233 302.026724 297.024695 302.026724 
C 296.087061 302.026724 295.187703 302.399251 294.524695 303.062258 
C 293.861688 303.725266 293.489162 304.624624 293.489162 305.562258 
C 293.489162 306.499893 293.861688 307.399251 294.524695 308.062258 
C 295.187703 308.725266 296.087061 309.097792 297.024695 309.097792 
z
" style="fill:#1f77b4;stroke:#ffffff;stroke-width:0.565685;"/>
    <path clip-path="url(#pb4cb95fb40)" d="M 290.089295 304.870274 
L 291.857062 303.102507 
L 293.624829 304.870274 
L 295.392596 303.102507 
L 293.624829 301.33474 
L 295.392596 299.566973 
L 293.624829 297.799206 
L 291.857062 299.566973 
L 290.089295 297.799206 
L 288.321528 299.566973 
L 290.089295 301.33474 
L 288.321528 303.102507 
z
" style="fill:#1f77b4;stroke:#ffffff;stroke-width:0.565685;"/>
    <path clip-path="url(#pb4cb95fb40)" d="M 289.713963 330.20352 
C 290.651598 330.20352 291.550955 329.830994 292.213963 329.167986 
C 292.876971 328.504978 293.249497 327.60562 293.249497 326.667986 
C 293.249497 325.730351 292.876971 324.830994 292.213963 324.167986 
C 291.550955 323.504978 290.651598 323.132452 289.713963 323.132452 
C 288.776329 323.132452 287.876971 323.504978 287.213963 324.167986 
C 286.550955 324.830994 286.178429 325.730351 286.178429 326.667986 
C 286.178429 327.60562 286.550955 328.504978 287.213963 329.167986 
C 287.876971 329.830994 288.776329 330.20352 289.713963 330.20352 
z
" style="fill:#1f77b4;stroke:#ffffff;stroke-width:0.565685;"/>
    <path clip-path="url(#pb4cb95fb40)" d="M 288.317296 322.166267 
C 289.254931 322.166267 290.154288 321.793741 290.817296 321.130733 
C 291.480304 320.467725 291.85283 319.568367 291.85283 318.630733 
C 291.85283 317.693098 291.480304 316.793741 290.817296 316.130733 
C 290.154288 315.467725 289.254931 315.095199 288.317296 315.095199 
C 287.379662 315.095199 286.480304 315.467725 285.817296 316.130733 
C 285.154288 316.793741 284.781762 317.693098 284.781762 318.630733 
C 284.781762 319.568367 285.154288 320.467725 285.817296 321.130733 
C 286.480304 321.793741 287.379662 322.166267 288.317296 322.166267 
z
" style="fill:#1f77b4;stroke:#ffffff;stroke-width:0.565685;"/>
    <path clip-path="url(#pb4cb95fb40)" d="M 301.867839 281.696242 
C 302.805474 281.696242 303.704832 281.323716 304.367839 280.660708 
C 305.030847 279.997701 305.403373 279.098343 305.403373 278.160708 
C 305.403373 277.223074 305.030847 276.323716 304.367839 275.660708 
C 303.704832 274.997701 302.805474 274.625175 301.867839 274.625175 
C 300.930205 274.625175 300.030847 274.997701 299.367839 275.660708 
C 298.704832 276.323716 298.332306 277.223074 298.332306 278.160708 
C 298.332306 279.098343 298.704832 279.997701 299.367839 280.660708 
C 300.030847 281.323716 300.930205 281.696242 301.867839 281.696242 
z
" style="fill:#1f77b4;stroke:#ffffff;stroke-width:0.565685;"/>
    <path clip-path="url(#pb4cb95fb40)" d="M 310.125647 292.097702 
C 311.063281 292.097702 311.962639 291.725175 312.625647 291.062168 
C 313.288654 290.39916 313.661181 289.499802 313.661181 288.562168 
C 313.661181 287.624533 313.288654 286.725175 312.625647 286.062168 
C 311.962639 285.39916 311.063281 285.026634 310.125647 285.026634 
C 309.188012 285.026634 308.288654 285.39916 307.625647 286.062168 
C 306.962639 286.725175 306.590113 287.624533 306.590113 288.562168 
C 306.590113 289.499802 306.962639 290.39916 307.625647 291.062168 
C 308.288654 291.725175 309.188012 292.097702 310.125647 292.097702 
z
" style="fill:#1f77b4;stroke:#ffffff;stroke-width:0.565685;"/>
    <path clip-path="url(#pb4cb95fb40)" d="M 291.712912 265.23069 
C 292.650547 265.23069 293.549904 264.858164 294.212912 264.195156 
C 294.87592 263.532148 295.248446 262.632791 295.248446 261.695156 
C 295.248446 260.757522 294.87592 259.858164 294.212912 259.195156 
C 293.549904 258.532148 292.650547 258.159622 291.712912 258.159622 
C 290.775278 258.159622 289.87592 258.532148 289.212912 259.195156 
C 288.549904 259.858164 288.177378 260.757522 288.177378 261.695156 
C 288.177378 262.632791 288.549904 263.532148 289.212912 264.195156 
C 289.87592 264.858164 290.775278 265.23069 291.712912 265.23069 
z
" style="fill:#1f77b4;stroke:#ffffff;stroke-width:0.565685;"/>
    <path clip-path="url(#pb4cb95fb40)" d="M 326.920602 184.668089 
C 327.858237 184.668089 328.757594 184.295563 329.420602 183.632555 
C 330.08361 182.969547 330.456136 182.070189 330.456136 181.132555 
C 330.456136 180.19492 330.08361 179.295563 329.420602 178.632555 
C 328.757594 177.969547 327.858237 177.597021 326.920602 177.597021 
C 325.982967 177.597021 325.08361 177.969547 324.420602 178.632555 
C 323.757594 179.295563 323.385068 180.19492 323.385068 181.132555 
C 323.385068 182.070189 323.757594 182.969547 324.420602 183.632555 
C 325.08361 184.295563 325.982967 184.668089 326.920602 184.668089 
z
" style="fill:#1f77b4;stroke:#ffffff;stroke-width:0.565685;"/>
    <path clip-path="url(#pb4cb95fb40)" d="M 401.267231 110.674385 
C 402.204866 110.674385 403.104224 110.301859 403.767231 109.638851 
C 404.430239 108.975843 404.802765 108.076485 404.802765 107.138851 
C 404.802765 106.201216 404.430239 105.301859 403.767231 104.638851 
C 403.104224 103.975843 402.204866 103.603317 401.267231 103.603317 
C 400.329597 103.603317 399.430239 103.975843 398.767231 104.638851 
C 398.104224 105.301859 397.731698 106.201216 397.731698 107.138851 
C 397.731698 108.076485 398.104224 108.975843 398.767231 109.638851 
C 399.430239 110.301859 400.329597 110.674385 401.267231 110.674385 
z
" style="fill:#1f77b4;stroke:#ffffff;stroke-width:0.565685;"/>
    <path clip-path="url(#pb4cb95fb40)" d="M 292.840995 307.17677 
C 293.77863 307.17677 294.677988 306.804244 295.340995 306.141236 
C 296.004003 305.478229 296.376529 304.578871 296.376529 303.641236 
C 296.376529 302.703602 296.004003 301.804244 295.340995 301.141236 
C 294.677988 300.478229 293.77863 300.105703 292.840995 300.105703 
C 291.903361 300.105703 291.004003 300.478229 290.340995 301.141236 
C 289.677988 301.804244 289.305462 302.703602 289.305462 303.641236 
C 289.305462 304.578871 289.677988 305.478229 290.340995 306.141236 
C 291.004003 306.804244 291.903361 307.17677 292.840995 307.17677 
z
" style="fill:#1f77b4;stroke:#ffffff;stroke-width:0.565685;"/>
    <path clip-path="url(#pb4cb95fb40)" d="M 292.390064 330.965222 
C 293.327698 330.965222 294.227056 330.592696 294.890064 329.929688 
C 295.553071 329.26668 295.925597 328.367323 295.925597 327.429688 
C 295.925597 326.492054 295.553071 325.592696 294.890064 324.929688 
C 294.227056 324.26668 293.327698 323.894154 292.390064 323.894154 
C 291.452429 323.894154 290.553071 324.26668 289.890064 324.929688 
C 289.227056 325.592696 288.85453 326.492054 288.85453 327.429688 
C 288.85453 328.367323 289.227056 329.26668 289.890064 329.929688 
C 290.553071 330.592696 291.452429 330.965222 292.390064 330.965222 
z
" style="fill:#1f77b4;stroke:#ffffff;stroke-width:0.565685;"/>
    <path clip-path="url(#pb4cb95fb40)" d="M 290.398545 324.593084 
C 291.336179 324.593084 292.235537 324.220557 292.898545 323.55755 
C 293.561553 322.894542 293.934079 321.995184 293.934079 321.05755 
C 293.934079 320.119915 293.561553 319.220557 292.898545 318.55755 
C 292.235537 317.894542 291.336179 317.522016 290.398545 317.522016 
C 289.46091 317.522016 288.561553 317.894542 287.898545 318.55755 
C 287.235537 319.220557 286.863011 320.119915 286.863011 321.05755 
C 286.863011 321.995184 287.235537 322.894542 287.898545 323.55755 
C 288.561553 324.220557 289.46091 324.593084 290.398545 324.593084 
z
" style="fill:#1f77b4;stroke:#ffffff;stroke-width:0.565685;"/>
    <path clip-path="url(#pb4cb95fb40)" d="M 282.746642 377.270836 
C 283.684276 377.270836 284.583634 376.89831 285.246642 376.235302 
C 285.90965 375.572295 286.282176 374.672937 286.282176 373.735302 
C 286.282176 372.797668 285.90965 371.89831 285.246642 371.235302 
C 284.583634 370.572295 283.684276 370.199768 282.746642 370.199768 
C 281.809007 370.199768 280.90965 370.572295 280.246642 371.235302 
C 279.583634 371.89831 279.211108 372.797668 279.211108 373.735302 
C 279.211108 374.672937 279.583634 375.572295 280.246642 376.235302 
C 280.90965 376.89831 281.809007 377.270836 282.746642 377.270836 
z
" style="fill:#1f77b4;stroke:#ffffff;stroke-width:0.565685;"/>
    <path clip-path="url(#pb4cb95fb40)" d="M 291.660166 330.137566 
C 292.597801 330.137566 293.497159 329.76504 294.160166 329.102032 
C 294.823174 328.439025 295.1957 327.539667 295.1957 326.602032 
C 295.1957 325.664398 294.823174 324.76504 294.160166 324.102032 
C 293.497159 323.439025 292.597801 323.066499 291.660166 323.066499 
C 290.722532 323.066499 289.823174 323.439025 289.160166 324.102032 
C 288.497159 324.76504 288.124632 325.664398 288.124632 326.602032 
C 288.124632 327.539667 288.497159 328.439025 289.160166 329.102032 
C 289.823174 329.76504 290.722532 330.137566 291.660166 330.137566 
z
" style="fill:#1f77b4;stroke:#ffffff;stroke-width:0.565685;"/>
    <path clip-path="url(#pb4cb95fb40)" d="M 344.40807 259.127049 
C 345.345705 259.127049 346.245063 258.754523 346.90807 258.091515 
C 347.571078 257.428507 347.943604 256.52915 347.943604 255.591515 
C 347.943604 254.65388 347.571078 253.754523 346.90807 253.091515 
C 346.245063 252.428507 345.345705 252.055981 344.40807 252.055981 
C 343.470436 252.055981 342.571078 252.428507 341.90807 253.091515 
C 341.245063 253.754523 340.872536 254.65388 340.872536 255.591515 
C 340.872536 256.52915 341.245063 257.428507 341.90807 258.091515 
C 342.571078 258.754523 343.470436 259.127049 344.40807 259.127049 
z
" style="fill:#1f77b4;stroke:#ffffff;stroke-width:0.565685;"/>
    <path clip-path="url(#pb4cb95fb40)" d="M 299.46656 301.076136 
C 300.404194 301.076136 301.303552 300.70361 301.96656 300.040602 
C 302.629568 299.377595 303.002094 298.478237 303.002094 297.540602 
C 303.002094 296.602968 302.629568 295.70361 301.96656 295.040602 
C 301.303552 294.377595 300.404194 294.005068 299.46656 294.005068 
C 298.528925 294.005068 297.629568 294.377595 296.96656 295.040602 
C 296.303552 295.70361 295.931026 296.602968 295.931026 297.540602 
C 295.931026 298.478237 296.303552 299.377595 296.96656 300.040602 
C 297.629568 300.70361 298.528925 301.076136 299.46656 301.076136 
z
" style="fill:#1f77b4;stroke:#ffffff;stroke-width:0.565685;"/>
    <path clip-path="url(#pb4cb95fb40)" d="M 294.409597 292.812148 
L 294.409597 297.812148 
L 299.409597 297.812148 
L 299.409597 292.812148 
z
" style="fill:#1f77b4;stroke:#ffffff;stroke-width:0.565685;"/>
    <path clip-path="url(#pb4cb95fb40)" d="M 283.938929 302.104923 
L 283.938929 307.104923 
L 288.938929 307.104923 
L 288.938929 302.104923 
z
" style="fill:#1f77b4;stroke:#ffffff;stroke-width:0.565685;"/>
    <path clip-path="url(#pb4cb95fb40)" d="M 296.411079 294.923345 
L 296.411079 299.923345 
L 301.411079 299.923345 
L 301.411079 294.923345 
z
" style="fill:#1f77b4;stroke:#ffffff;stroke-width:0.565685;"/>
    <path clip-path="url(#pb4cb95fb40)" d="M 295.019142 309.163895 
L 295.019142 314.163895 
L 300.019142 314.163895 
L 300.019142 309.163895 
z
" style="fill:#1f77b4;stroke:#ffffff;stroke-width:0.565685;"/>
    <path clip-path="url(#pb4cb95fb40)" d="M 298.656613 302.880996 
L 298.656613 307.880996 
L 303.656613 307.880996 
L 303.656613 302.880996 
z
" style="fill:#1f77b4;stroke:#ffffff;stroke-width:0.565685;"/>
    <path clip-path="url(#pb4cb95fb40)" d="M 293.344432 295.559545 
L 293.344432 300.559545 
L 298.344432 300.559545 
L 298.344432 295.559545 
z
" style="fill:#1f77b4;stroke:#ffffff;stroke-width:0.565685;"/>
    <path clip-path="url(#pb4cb95fb40)" d="M 289.36398 281.981894 
C 290.301615 281.981894 291.200973 281.609368 291.86398 280.94636 
C 292.526988 280.283352 292.899514 279.383994 292.899514 278.44636 
C 292.899514 277.508725 292.526988 276.609368 291.86398 275.94636 
C 291.200973 275.283352 290.301615 274.910826 289.36398 274.910826 
C 288.426346 274.910826 287.526988 275.283352 286.86398 275.94636 
C 286.200973 276.609368 285.828446 277.508725 285.828446 278.44636 
C 285.828446 279.383994 286.200973 280.283352 286.86398 280.94636 
C 287.526988 281.609368 288.426346 281.981894 289.36398 281.981894 
z
" style="fill:#1f77b4;stroke:#ffffff;stroke-width:0.565685;"/>
    <path clip-path="url(#pb4cb95fb40)" d="M 291.408715 271.216222 
L 291.408715 276.216222 
L 296.408715 276.216222 
L 296.408715 271.216222 
z
" style="fill:#1f77b4;stroke:#ffffff;stroke-width:0.565685;"/>
    <path clip-path="url(#pb4cb95fb40)" d="M 295.986582 240.951354 
L 295.986582 245.951354 
L 300.986582 245.951354 
L 300.986582 240.951354 
z
" style="fill:#1f77b4;stroke:#ffffff;stroke-width:0.565685;"/>
    <path clip-path="url(#pb4cb95fb40)" d="M 310.068724 192.128403 
L 310.068724 197.128403 
L 315.068724 197.128403 
L 315.068724 192.128403 
z
" style="fill:#1f77b4;stroke:#ffffff;stroke-width:0.565685;"/>
    <path clip-path="url(#pb4cb95fb40)" d="M 297.945219 344.422328 
L 297.945219 349.422328 
L 302.945219 349.422328 
L 302.945219 344.422328 
z
" style="fill:#1f77b4;stroke:#ffffff;stroke-width:0.565685;"/>
    <path clip-path="url(#pb4cb95fb40)" d="M 297.016354 296.000501 
L 297.016354 301.000501 
L 302.016354 301.000501 
L 302.016354 296.000501 
z
" style="fill:#1f77b4;stroke:#ffffff;stroke-width:0.565685;"/>
    <path clip-path="url(#pb4cb95fb40)" d="M 292.863623 305.459126 
L 294.63139 303.691359 
L 296.399157 305.459126 
L 298.166924 303.691359 
L 296.399157 301.923592 
L 298.166924 300.155825 
L 296.399157 298.388058 
L 294.63139 300.155825 
L 292.863623 298.388058 
L 291.095856 300.155825 
L 292.863623 301.923592 
L 291.095856 303.691359 
z
" style="fill:#1f77b4;stroke:#ffffff;stroke-width:0.565685;"/>
    <path clip-path="url(#pb4cb95fb40)" d="M 295.111795 332.46183 
L 296.879562 330.694063 
L 298.647329 332.46183 
L 300.415096 330.694063 
L 298.647329 328.926296 
L 300.415096 327.158529 
L 298.647329 325.390762 
L 296.879562 327.158529 
L 295.111795 325.390762 
L 293.344028 327.158529 
L 295.111795 328.926296 
L 293.344028 330.694063 
z
" style="fill:#1f77b4;stroke:#ffffff;stroke-width:0.565685;"/>
    <path clip-path="url(#pb4cb95fb40)" d="M 300.397101 299.749536 
L 302.164868 297.981769 
L 303.932635 299.749536 
L 305.700402 297.981769 
L 303.932635 296.214002 
L 305.700402 294.446235 
L 303.932635 292.678468 
L 302.164868 294.446235 
L 300.397101 292.678468 
L 298.629334 294.446235 
L 300.397101 296.214002 
L 298.629334 297.981769 
z
" style="fill:#1f77b4;stroke:#ffffff;stroke-width:0.565685;"/>
    <path clip-path="url(#pb4cb95fb40)" d="M 290.136157 312.48785 
C 291.073792 312.48785 291.973149 312.115324 292.636157 311.452316 
C 293.299165 310.789309 293.671691 309.889951 293.671691 308.952316 
C 293.671691 308.014682 293.299165 307.115324 292.636157 306.452316 
C 291.973149 305.789309 291.073792 305.416782 290.136157 305.416782 
C 289.198522 305.416782 288.299165 305.789309 287.636157 306.452316 
C 286.973149 307.115324 286.600623 308.014682 286.600623 308.952316 
C 286.600623 309.889951 286.973149 310.789309 287.636157 311.452316 
C 288.299165 312.115324 289.198522 312.48785 290.136157 312.48785 
z
" style="fill:#1f77b4;stroke:#ffffff;stroke-width:0.565685;"/>
    <path clip-path="url(#pb4cb95fb40)" d="M 298.634479 292.416442 
C 299.572114 292.416442 300.471471 292.043916 301.134479 291.380908 
C 301.797487 290.7179 302.170013 289.818543 302.170013 288.880908 
C 302.170013 287.943273 301.797487 287.043916 301.134479 286.380908 
C 300.471471 285.7179 299.572114 285.345374 298.634479 285.345374 
C 297.696844 285.345374 296.797487 285.7179 296.134479 286.380908 
C 295.471471 287.043916 295.098945 287.943273 295.098945 288.880908 
C 295.098945 289.818543 295.471471 290.7179 296.134479 291.380908 
C 296.797487 292.043916 297.696844 292.416442 298.634479 292.416442 
z
" style="fill:#1f77b4;stroke:#ffffff;stroke-width:0.565685;"/>
    <path clip-path="url(#pb4cb95fb40)" d="M 308.184905 160.085186 
C 309.12254 160.085186 310.021898 159.71266 310.684905 159.049652 
C 311.347913 158.386644 311.720439 157.487287 311.720439 156.549652 
C 311.720439 155.612017 311.347913 154.71266 310.684905 154.049652 
C 310.021898 153.386644 309.12254 153.014118 308.184905 153.014118 
C 307.247271 153.014118 306.347913 153.386644 305.684905 154.049652 
C 305.021898 154.71266 304.649371 155.612017 304.649371 156.549652 
C 304.649371 157.487287 305.021898 158.386644 305.684905 159.049652 
C 306.347913 159.71266 307.247271 160.085186 308.184905 160.085186 
z
" style="fill:#1f77b4;stroke:#ffffff;stroke-width:0.565685;"/>
    <path clip-path="url(#pb4cb95fb40)" d="M 349.227544 272.617875 
C 350.165179 272.617875 351.064536 272.245349 351.727544 271.582341 
C 352.390552 270.919333 352.763078 270.019976 352.763078 269.082341 
C 352.763078 268.144707 352.390552 267.245349 351.727544 266.582341 
C 351.064536 265.919333 350.165179 265.546807 349.227544 265.546807 
C 348.28991 265.546807 347.390552 265.919333 346.727544 266.582341 
C 346.064536 267.245349 345.69201 268.144707 345.69201 269.082341 
C 345.69201 270.019976 346.064536 270.919333 346.727544 271.582341 
C 347.390552 272.245349 348.28991 272.617875 349.227544 272.617875 
z
" style="fill:#1f77b4;stroke:#ffffff;stroke-width:0.565685;"/>
    <path clip-path="url(#pb4cb95fb40)" d="M 338.020467 268.186254 
C 338.958101 268.186254 339.857459 267.813727 340.520467 267.15072 
C 341.183475 266.487712 341.556001 265.588354 341.556001 264.65072 
C 341.556001 263.713085 341.183475 262.813727 340.520467 262.15072 
C 339.857459 261.487712 338.958101 261.115186 338.020467 261.115186 
C 337.082832 261.115186 336.183475 261.487712 335.520467 262.15072 
C 334.857459 262.813727 334.484933 263.713085 334.484933 264.65072 
C 334.484933 265.588354 334.857459 266.487712 335.520467 267.15072 
C 336.183475 267.813727 337.082832 268.186254 338.020467 268.186254 
z
" style="fill:#1f77b4;stroke:#ffffff;stroke-width:0.565685;"/>
    <path clip-path="url(#pb4cb95fb40)" d="M 291.501637 333.097586 
C 292.439272 333.097586 293.33863 332.725059 294.001637 332.062052 
C 294.664645 331.399044 295.037171 330.499686 295.037171 329.562052 
C 295.037171 328.624417 294.664645 327.725059 294.001637 327.062052 
C 293.33863 326.399044 292.439272 326.026518 291.501637 326.026518 
C 290.564003 326.026518 289.664645 326.399044 289.001637 327.062052 
C 288.33863 327.725059 287.966103 328.624417 287.966103 329.562052 
C 287.966103 330.499686 288.33863 331.399044 289.001637 332.062052 
C 289.664645 332.725059 290.564003 333.097586 291.501637 333.097586 
z
" style="fill:#1f77b4;stroke:#ffffff;stroke-width:0.565685;"/>
    <path clip-path="url(#pb4cb95fb40)" d="M 285.252219 413.864727 
C 286.189854 413.864727 287.089211 413.492201 287.752219 412.829193 
C 288.415227 412.166186 288.787753 411.266828 288.787753 410.329193 
C 288.787753 409.391559 288.415227 408.492201 287.752219 407.829193 
C 287.089211 407.166186 286.189854 406.793659 285.252219 406.793659 
C 284.314585 406.793659 283.415227 407.166186 282.752219 407.829193 
C 282.089211 408.492201 281.716685 409.391559 281.716685 410.329193 
C 281.716685 411.266828 282.089211 412.166186 282.752219 412.829193 
C 283.415227 413.492201 284.314585 413.864727 285.252219 413.864727 
z
" style="fill:#1f77b4;stroke:#ffffff;stroke-width:0.565685;"/>
    <path clip-path="url(#pb4cb95fb40)" d="M 303.867395 249.44384 
C 304.80503 249.44384 305.704388 249.071314 306.367395 248.408307 
C 307.030403 247.745299 307.402929 246.845941 307.402929 245.908307 
C 307.402929 244.970672 307.030403 244.071314 306.367395 243.408307 
C 305.704388 242.745299 304.80503 242.372773 303.867395 242.372773 
C 302.929761 242.372773 302.030403 242.745299 301.367395 243.408307 
C 300.704388 244.071314 300.331861 244.970672 300.331861 245.908307 
C 300.331861 246.845941 300.704388 247.745299 301.367395 248.408307 
C 302.030403 249.071314 302.929761 249.44384 303.867395 249.44384 
z
" style="fill:#1f77b4;stroke:#ffffff;stroke-width:0.565685;"/>
    <path clip-path="url(#pb4cb95fb40)" d="M 309.812522 316.905432 
C 310.750157 316.905432 311.649514 316.532906 312.312522 315.869898 
C 312.97553 315.206891 313.348056 314.307533 313.348056 313.369898 
C 313.348056 312.432264 312.97553 311.532906 312.312522 310.869898 
C 311.649514 310.206891 310.750157 309.834364 309.812522 309.834364 
C 308.874888 309.834364 307.97553 310.206891 307.312522 310.869898 
C 306.649514 311.532906 306.276988 312.432264 306.276988 313.369898 
C 306.276988 314.307533 306.649514 315.206891 307.312522 315.869898 
C 307.97553 316.532906 308.874888 316.905432 309.812522 316.905432 
z
" style="fill:#1f77b4;stroke:#ffffff;stroke-width:0.565685;"/>
    <path clip-path="url(#pb4cb95fb40)" d="M 290.57677 289.734053 
C 291.514405 289.734053 292.413763 289.361527 293.07677 288.698519 
C 293.739778 288.035511 294.112304 287.136153 294.112304 286.198519 
C 294.112304 285.260884 293.739778 284.361527 293.07677 283.698519 
C 292.413763 283.035511 291.514405 282.662985 290.57677 282.662985 
C 289.639136 282.662985 288.739778 283.035511 288.07677 283.698519 
C 287.413763 284.361527 287.041236 285.260884 287.041236 286.198519 
C 287.041236 287.136153 287.413763 288.035511 288.07677 288.698519 
C 288.739778 289.361527 289.639136 289.734053 290.57677 289.734053 
z
" style="fill:#1f77b4;stroke:#ffffff;stroke-width:0.565685;"/>
    <path clip-path="url(#pb4cb95fb40)" d="M 295.029347 322.575694 
C 295.966981 322.575694 296.866339 322.203168 297.529347 321.54016 
C 298.192354 320.877152 298.564881 319.977794 298.564881 319.04016 
C 298.564881 318.102525 298.192354 317.203168 297.529347 316.54016 
C 296.866339 315.877152 295.966981 315.504626 295.029347 315.504626 
C 294.091712 315.504626 293.192354 315.877152 292.529347 316.54016 
C 291.866339 317.203168 291.493813 318.102525 291.493813 319.04016 
C 291.493813 319.977794 291.866339 320.877152 292.529347 321.54016 
C 293.192354 322.203168 294.091712 322.575694 295.029347 322.575694 
z
" style="fill:#1f77b4;stroke:#ffffff;stroke-width:0.565685;"/>
    <path clip-path="url(#pb4cb95fb40)" d="M 290.954635 346.575823 
L 292.722402 344.808056 
L 294.490169 346.575823 
L 296.257936 344.808056 
L 294.490169 343.040289 
L 296.257936 341.272522 
L 294.490169 339.504755 
L 292.722402 341.272522 
L 290.954635 339.504755 
L 289.186868 341.272522 
L 290.954635 343.040289 
L 289.186868 344.808056 
z
" style="fill:#1f77b4;stroke:#ffffff;stroke-width:0.565685;"/>
    <path clip-path="url(#pb4cb95fb40)" d="M 327.153226 282.525903 
L 328.920993 280.758136 
L 330.68876 282.525903 
L 332.456527 280.758136 
L 330.68876 278.990369 
L 332.456527 277.222602 
L 330.68876 275.454835 
L 328.920993 277.222602 
L 327.153226 275.454835 
L 325.385459 277.222602 
L 327.153226 278.990369 
L 325.385459 280.758136 
z
" style="fill:#1f77b4;stroke:#ffffff;stroke-width:0.565685;"/>
    <path clip-path="url(#pb4cb95fb40)" d="M 322.65542 273.229731 
L 324.423187 271.461964 
L 326.190954 273.229731 
L 327.958721 271.461964 
L 326.190954 269.694197 
L 327.958721 267.92643 
L 326.190954 266.158663 
L 324.423187 267.92643 
L 322.65542 266.158663 
L 320.887653 267.92643 
L 322.65542 269.694197 
L 320.887653 271.461964 
z
" style="fill:#1f77b4;stroke:#ffffff;stroke-width:0.565685;"/>
    <path clip-path="url(#pb4cb95fb40)" d="M 299.582665 281.048121 
L 301.350432 279.280354 
L 303.118199 281.048121 
L 304.885966 279.280354 
L 303.118199 277.512587 
L 304.885966 275.74482 
L 303.118199 273.977053 
L 301.350432 275.74482 
L 299.582665 273.977053 
L 297.814898 275.74482 
L 299.582665 277.512587 
L 297.814898 279.280354 
z
" style="fill:#1f77b4;stroke:#ffffff;stroke-width:0.565685;"/>
    <path clip-path="url(#pb4cb95fb40)" d="M 100.033638 469.116138 
L 101.801405 467.348371 
L 103.569172 469.116138 
L 105.336939 467.348371 
L 103.569172 465.580604 
L 105.336939 463.812837 
L 103.569172 462.04507 
L 101.801405 463.812837 
L 100.033638 462.04507 
L 98.265871 463.812837 
L 100.033638 465.580604 
L 98.265871 467.348371 
z
" style="fill:#1f77b4;stroke:#ffffff;stroke-width:0.565685;"/>
    <path clip-path="url(#pb4cb95fb40)" d="M 232.334491 278.220326 
L 232.334491 283.220326 
L 237.334491 283.220326 
L 237.334491 278.220326 
z
" style="fill:#1f77b4;stroke:#ffffff;stroke-width:0.565685;"/>
    <path clip-path="url(#pb4cb95fb40)" d="M 302.860092 276.409042 
L 302.860092 281.409042 
L 307.860092 281.409042 
L 307.860092 276.409042 
z
" style="fill:#1f77b4;stroke:#ffffff;stroke-width:0.565685;"/>
    <path clip-path="url(#pb4cb95fb40)" d="M 345.927046 234.8979 
L 345.927046 239.8979 
L 350.927046 239.8979 
L 350.927046 234.8979 
z
" style="fill:#1f77b4;stroke:#ffffff;stroke-width:0.565685;"/>
    <path clip-path="url(#pb4cb95fb40)" d="M 294.6089 283.750714 
L 294.6089 288.750714 
L 299.6089 288.750714 
L 299.6089 283.750714 
z
" style="fill:#1f77b4;stroke:#ffffff;stroke-width:0.565685;"/>
    <path clip-path="url(#pb4cb95fb40)" d="M 299.359583 284.014213 
C 300.297217 284.014213 301.196575 283.641687 301.859583 282.97868 
C 302.52259 282.315672 302.895117 281.416314 302.895117 280.47868 
C 302.895117 279.541045 302.52259 278.641687 301.859583 277.97868 
C 301.196575 277.315672 300.297217 276.943146 299.359583 276.943146 
C 298.421948 276.943146 297.52259 277.315672 296.859583 277.97868 
C 296.196575 278.641687 295.824049 279.541045 295.824049 280.47868 
C 295.824049 281.416314 296.196575 282.315672 296.859583 282.97868 
C 297.52259 283.641687 298.421948 284.014213 299.359583 284.014213 
z
" style="fill:#1f77b4;stroke:#ffffff;stroke-width:0.565685;"/>
    <path clip-path="url(#pb4cb95fb40)" d="M 292.729591 283.306193 
L 292.729591 288.306193 
L 297.729591 288.306193 
L 297.729591 283.306193 
z
" style="fill:#1f77b4;stroke:#ffffff;stroke-width:0.565685;"/>
    <path clip-path="url(#pb4cb95fb40)" d="M 296.943222 293.969463 
L 296.943222 298.969463 
L 301.943222 298.969463 
L 301.943222 293.969463 
z
" style="fill:#1f77b4;stroke:#ffffff;stroke-width:0.565685;"/>
    <path clip-path="url(#pb4cb95fb40)" d="M 323.234707 273.90914 
L 323.234707 278.90914 
L 328.234707 278.90914 
L 328.234707 273.90914 
z
" style="fill:#1f77b4;stroke:#ffffff;stroke-width:0.565685;"/>
    <path clip-path="url(#pb4cb95fb40)" d="M 315.956032 262.985025 
L 317.723799 261.217258 
L 319.491566 262.985025 
L 321.259333 261.217258 
L 319.491566 259.449491 
L 321.259333 257.681724 
L 319.491566 255.913957 
L 317.723799 257.681724 
L 315.956032 255.913957 
L 314.188265 257.681724 
L 315.956032 259.449491 
L 314.188265 261.217258 
z
" style="fill:#1f77b4;stroke:#ffffff;stroke-width:0.565685;"/>
    <path clip-path="url(#pb4cb95fb40)" d="M 300.965055 273.064401 
C 301.902689 273.064401 302.802047 272.691875 303.465055 272.028867 
C 304.128063 271.365859 304.500589 270.466502 304.500589 269.528867 
C 304.500589 268.591232 304.128063 267.691875 303.465055 267.028867 
C 302.802047 266.365859 301.902689 265.993333 300.965055 265.993333 
C 300.02742 265.993333 299.128063 266.365859 298.465055 267.028867 
C 297.802047 267.691875 297.429521 268.591232 297.429521 269.528867 
C 297.429521 270.466502 297.802047 271.365859 298.465055 272.028867 
C 299.128063 272.691875 300.02742 273.064401 300.965055 273.064401 
z
" style="fill:#1f77b4;stroke:#ffffff;stroke-width:0.565685;"/>
    <path clip-path="url(#pb4cb95fb40)" d="M 247.355033 308.734265 
C 248.292667 308.734265 249.192025 308.361739 249.855033 307.698731 
C 250.51804 307.035723 250.890566 306.136366 250.890566 305.198731 
C 250.890566 304.261097 250.51804 303.361739 249.855033 302.698731 
C 249.192025 302.035723 248.292667 301.663197 247.355033 301.663197 
C 246.417398 301.663197 245.51804 302.035723 244.855033 302.698731 
C 244.192025 303.361739 243.819499 304.261097 243.819499 305.198731 
C 243.819499 306.136366 244.192025 307.035723 244.855033 307.698731 
C 245.51804 308.361739 246.417398 308.734265 247.355033 308.734265 
z
" style="fill:#1f77b4;stroke:#ffffff;stroke-width:0.565685;"/>
    <path clip-path="url(#pb4cb95fb40)" d="M 286.434146 361.287615 
L 286.434146 366.287615 
L 291.434146 366.287615 
L 291.434146 361.287615 
z
" style="fill:#1f77b4;stroke:#ffffff;stroke-width:0.565685;"/>
    <path clip-path="url(#pb4cb95fb40)" d="M 292.011562 377.664259 
L 292.011562 382.664259 
L 297.011562 382.664259 
L 297.011562 377.664259 
z
" style="fill:#1f77b4;stroke:#ffffff;stroke-width:0.565685;"/>
    <path clip-path="url(#pb4cb95fb40)" d="M 288.462147 306.043892 
L 288.462147 311.043892 
L 293.462147 311.043892 
L 293.462147 306.043892 
z
" style="fill:#1f77b4;stroke:#ffffff;stroke-width:0.565685;"/>
    <path clip-path="url(#pb4cb95fb40)" d="M 182.961029 485.733545 
C 183.898664 485.733545 184.798021 485.361019 185.461029 484.698011 
C 186.124037 484.035004 186.496563 483.135646 186.496563 482.198011 
C 186.496563 481.260377 186.124037 480.361019 185.461029 479.698011 
C 184.798021 479.035004 183.898664 478.662477 182.961029 478.662477 
C 182.023395 478.662477 181.124037 479.035004 180.461029 479.698011 
C 179.798021 480.361019 179.425495 481.260377 179.425495 482.198011 
C 179.425495 483.135646 179.798021 484.035004 180.461029 484.698011 
C 181.124037 485.361019 182.023395 485.733545 182.961029 485.733545 
z
" style="fill:#1f77b4;stroke:#ffffff;stroke-width:0.565685;"/>
    <path clip-path="url(#pb4cb95fb40)" d="M 264.794394 315.661256 
L 264.794394 320.661256 
L 269.794394 320.661256 
L 269.794394 315.661256 
z
" style="fill:#1f77b4;stroke:#ffffff;stroke-width:0.565685;"/>
    <path clip-path="url(#pb4cb95fb40)" d="M 291.89457 247.464331 
C 292.832205 247.464331 293.731562 247.091805 294.39457 246.428798 
C 295.057578 245.76579 295.430104 244.866432 295.430104 243.928798 
C 295.430104 242.991163 295.057578 242.091805 294.39457 241.428798 
C 293.731562 240.76579 292.832205 240.393264 291.89457 240.393264 
C 290.956935 240.393264 290.057578 240.76579 289.39457 241.428798 
C 288.731562 242.091805 288.359036 242.991163 288.359036 243.928798 
C 288.359036 244.866432 288.731562 245.76579 289.39457 246.428798 
C 290.057578 247.091805 290.956935 247.464331 291.89457 247.464331 
z
" style="fill:#1f77b4;stroke:#ffffff;stroke-width:0.565685;"/>
   </g>
   <g id="PathCollection_2"/>
   <g id="PathCollection_3"/>
   <g id="PathCollection_4"/>
   <g id="matplotlib.axis_1">
    <g id="xtick_1">
     <g id="line2d_1">
      <defs>
       <path d="M 0 0 
L 0 3.5 
" id="mf4f2d513e7" style="stroke:#000000;stroke-width:0.8;"/>
      </defs>
      <g>
       <use style="stroke:#000000;stroke-width:0.8;" x="103.7356" xlink:href="#mf4f2d513e7" y="504.13125"/>
      </g>
     </g>
     <g id="text_1">
      <text style="font-family:DejaVu Sans;font-size:20px;font-stretch:normal;font-style:normal;font-weight:normal;text-anchor:middle;" transform="rotate(-0, 103.7356, 526.328125)" x="103.7356" y="526.328125">6</text>
     </g>
    </g>
    <g id="xtick_2">
     <g id="line2d_2">
      <g>
       <use style="stroke:#000000;stroke-width:0.8;" x="167.807571" xlink:href="#mf4f2d513e7" y="504.13125"/>
      </g>
     </g>
     <g id="text_2">
      <text style="font-family:DejaVu Sans;font-size:20px;font-stretch:normal;font-style:normal;font-weight:normal;text-anchor:middle;" transform="rotate(-0, 167.807571, 526.328125)" x="167.807571" y="526.328125">4</text>
     </g>
    </g>
    <g id="xtick_3">
     <g id="line2d_3">
      <g>
       <use style="stroke:#000000;stroke-width:0.8;" x="231.879542" xlink:href="#mf4f2d513e7" y="504.13125"/>
      </g>
     </g>
     <g id="text_3">
      <text style="font-family:DejaVu Sans;font-size:20px;font-stretch:normal;font-style:normal;font-weight:normal;text-anchor:middle;" transform="rotate(-0, 231.879542, 526.328125)" x="231.879542" y="526.328125">2</text>
     </g>
    </g>
    <g id="xtick_4">
     <g id="line2d_4">
      <g>
       <use style="stroke:#000000;stroke-width:0.8;" x="295.951513" xlink:href="#mf4f2d513e7" y="504.13125"/>
      </g>
     </g>
     <g id="text_4">
      <text style="font-family:DejaVu Sans;font-size:20px;font-stretch:normal;font-style:normal;font-weight:normal;text-anchor:middle;" transform="rotate(-0, 295.951513, 526.328125)" x="295.951513" y="526.328125">0</text>
     </g>
    </g>
    <g id="xtick_5">
     <g id="line2d_5">
      <g>
       <use style="stroke:#000000;stroke-width:0.8;" x="360.023485" xlink:href="#mf4f2d513e7" y="504.13125"/>
      </g>
     </g>
     <g id="text_5">
      <text style="font-family:DejaVu Sans;font-size:20px;font-stretch:normal;font-style:normal;font-weight:normal;text-anchor:middle;" transform="rotate(-0, 360.023485, 526.328125)" x="360.023485" y="526.328125">2</text>
     </g>
    </g>
    <g id="xtick_6">
     <g id="line2d_6">
      <g>
       <use style="stroke:#000000;stroke-width:0.8;" x="424.095456" xlink:href="#mf4f2d513e7" y="504.13125"/>
      </g>
     </g>
     <g id="text_6">
      <text style="font-family:DejaVu Sans;font-size:20px;font-stretch:normal;font-style:normal;font-weight:normal;text-anchor:middle;" transform="rotate(-0, 424.095456, 526.328125)" x="424.095456" y="526.328125">4</text>
     </g>
    </g>
    <g id="xtick_7">
     <g id="line2d_7">
      <g>
       <use style="stroke:#000000;stroke-width:0.8;" x="488.167427" xlink:href="#mf4f2d513e7" y="504.13125"/>
      </g>
     </g>
     <g id="text_7">
      <text style="font-family:DejaVu Sans;font-size:20px;font-stretch:normal;font-style:normal;font-weight:normal;text-anchor:middle;" transform="rotate(-0, 488.167427, 526.328125)" x="488.167427" y="526.328125">6</text>
     </g>
    </g>
    <g id="text_8">
     <text style="font-family:DejaVu Sans;font-size:20px;font-stretch:normal;font-style:normal;font-weight:normal;text-anchor:middle;" transform="rotate(-0, 299.846705, 549.684375)" x="299.846705" y="549.684375">Monocyte_effect_score_normed</text>
    </g>
   </g>
   <g id="matplotlib.axis_2">
    <g id="ytick_1">
     <g id="line2d_8">
      <defs>
       <path d="M 0 0 
L -3.5 0 
" id="mb662efa416" style="stroke:#000000;stroke-width:0.8;"/>
      </defs>
      <g>
       <use style="stroke:#000000;stroke-width:0.8;" x="81.996875" xlink:href="#mb662efa416" y="470.649717"/>
      </g>
     </g>
     <g id="text_9">
      <text style="font-family:DejaVu Sans;font-size:20px;font-stretch:normal;font-style:normal;font-weight:normal;text-anchor:end;" transform="rotate(-0, 74.996875, 478.248155)" x="74.996875" y="478.248155">3</text>
     </g>
    </g>
    <g id="ytick_2">
     <g id="line2d_9">
      <g>
       <use style="stroke:#000000;stroke-width:0.8;" x="81.996875" xlink:href="#mb662efa416" y="413.10124"/>
      </g>
     </g>
     <g id="text_10">
      <text style="font-family:DejaVu Sans;font-size:20px;font-stretch:normal;font-style:normal;font-weight:normal;text-anchor:end;" transform="rotate(-0, 74.996875, 420.699677)" x="74.996875" y="420.699677">2</text>
     </g>
    </g>
    <g id="ytick_3">
     <g id="line2d_10">
      <g>
       <use style="stroke:#000000;stroke-width:0.8;" x="81.996875" xlink:href="#mb662efa416" y="355.552763"/>
      </g>
     </g>
     <g id="text_11">
      <text style="font-family:DejaVu Sans;font-size:20px;font-stretch:normal;font-style:normal;font-weight:normal;text-anchor:end;" transform="rotate(-0, 74.996875, 363.1512)" x="74.996875" y="363.1512">1</text>
     </g>
    </g>
    <g id="ytick_4">
     <g id="line2d_11">
      <g>
       <use style="stroke:#000000;stroke-width:0.8;" x="81.996875" xlink:href="#mb662efa416" y="298.004286"/>
      </g>
     </g>
     <g id="text_12">
      <text style="font-family:DejaVu Sans;font-size:20px;font-stretch:normal;font-style:normal;font-weight:normal;text-anchor:end;" transform="rotate(-0, 74.996875, 305.602723)" x="74.996875" y="305.602723">0</text>
     </g>
    </g>
    <g id="ytick_5">
     <g id="line2d_12">
      <g>
       <use style="stroke:#000000;stroke-width:0.8;" x="81.996875" xlink:href="#mb662efa416" y="240.455809"/>
      </g>
     </g>
     <g id="text_13">
      <text style="font-family:DejaVu Sans;font-size:20px;font-stretch:normal;font-style:normal;font-weight:normal;text-anchor:end;" transform="rotate(-0, 74.996875, 248.054246)" x="74.996875" y="248.054246">1</text>
     </g>
    </g>
    <g id="ytick_6">
     <g id="line2d_13">
      <g>
       <use style="stroke:#000000;stroke-width:0.8;" x="81.996875" xlink:href="#mb662efa416" y="182.907332"/>
      </g>
     </g>
     <g id="text_14">
      <text style="font-family:DejaVu Sans;font-size:20px;font-stretch:normal;font-style:normal;font-weight:normal;text-anchor:end;" transform="rotate(-0, 74.996875, 190.505769)" x="74.996875" y="190.505769">2</text>
     </g>
    </g>
    <g id="ytick_7">
     <g id="line2d_14">
      <g>
       <use style="stroke:#000000;stroke-width:0.8;" x="81.996875" xlink:href="#mb662efa416" y="125.358854"/>
      </g>
     </g>
     <g id="text_15">
      <text style="font-family:DejaVu Sans;font-size:20px;font-stretch:normal;font-style:normal;font-weight:normal;text-anchor:end;" transform="rotate(-0, 74.996875, 132.957292)" x="74.996875" y="132.957292">3</text>
     </g>
    </g>
    <g id="ytick_8">
     <g id="line2d_15">
      <g>
       <use style="stroke:#000000;stroke-width:0.8;" x="81.996875" xlink:href="#mb662efa416" y="67.810377"/>
      </g>
     </g>
     <g id="text_16">
      <text style="font-family:DejaVu Sans;font-size:20px;font-stretch:normal;font-style:normal;font-weight:normal;text-anchor:end;" transform="rotate(-0, 74.996875, 75.408815)" x="74.996875" y="75.408815">4</text>
     </g>
    </g>
    <g id="text_17">
     <text style="font-family:DejaVu Sans;font-size:20px;font-stretch:normal;font-style:normal;font-weight:normal;text-anchor:middle;" transform="rotate(-90, 36.796875, 262.865625)" x="36.796875" y="262.865625">dendritic_scatac_effect_score_normed</text>
    </g>
   </g>
   <g id="line2d_16">
    <path clip-path="url(#pb4cb95fb40)" d="M 360.023485 504.13125 
L 360.023485 21.6 
" style="fill:none;stroke:#ff0000;stroke-dasharray:5.55,2.4;stroke-dashoffset:0;stroke-width:1.5;"/>
   </g>
   <g id="line2d_17">
    <path clip-path="url(#pb4cb95fb40)" d="M 231.879542 504.13125 
L 231.879542 21.6 
" style="fill:none;stroke:#ff0000;stroke-dasharray:5.55,2.4;stroke-dashoffset:0;stroke-width:1.5;"/>
   </g>
   <g id="line2d_18">
    <path clip-path="url(#pb4cb95fb40)" d="M 81.996875 182.907332 
L 517.696534 182.907332 
" style="fill:none;stroke:#ff0000;stroke-dasharray:5.55,2.4;stroke-dashoffset:0;stroke-width:1.5;"/>
   </g>
   <g id="line2d_19">
    <path clip-path="url(#pb4cb95fb40)" d="M 81.996875 413.10124 
L 517.696534 413.10124 
" style="fill:none;stroke:#ff0000;stroke-dasharray:5.55,2.4;stroke-dashoffset:0;stroke-width:1.5;"/>
   </g>
   <g id="patch_3">
    <path d="M 81.996875 504.13125 
L 81.996875 21.6 
" style="fill:none;stroke:#000000;stroke-linecap:square;stroke-linejoin:miter;stroke-width:0.8;"/>
   </g>
   <g id="patch_4">
    <path d="M 517.696534 504.13125 
L 517.696534 21.6 
" style="fill:none;stroke:#000000;stroke-linecap:square;stroke-linejoin:miter;stroke-width:0.8;"/>
   </g>
   <g id="patch_5">
    <path d="M 81.996875 504.13125 
L 517.696534 504.13125 
" style="fill:none;stroke:#000000;stroke-linecap:square;stroke-linejoin:miter;stroke-width:0.8;"/>
   </g>
   <g id="patch_6">
    <path d="M 81.996875 21.6 
L 517.696534 21.6 
" style="fill:none;stroke:#000000;stroke-linecap:square;stroke-linejoin:miter;stroke-width:0.8;"/>
   </g>
   <g id="text_18">
    <text style="font-family:DejaVu Sans;font-size:12px;font-stretch:normal;font-style:normal;font-weight:normal;text-anchor:start;" transform="rotate(-0, 497.892004, 43.533239)" x="497.892004" y="43.533239">rs636317</text>
   </g>
   <g id="text_19">
    <text style="font-family:DejaVu Sans;font-size:12px;font-stretch:normal;font-style:normal;font-weight:normal;text-anchor:start;" transform="rotate(-0, 264.009607, 331.574651)" x="264.009607" y="331.574651">rs636341</text>
   </g>
   <g id="text_20">
    <text style="font-family:DejaVu Sans;font-size:12px;font-stretch:normal;font-style:normal;font-weight:normal;text-anchor:start;" transform="rotate(-0, 316.553205, 90.911384)" x="316.553205" y="90.911384">rs514049</text>
   </g>
   <g id="text_21">
    <text style="font-family:DejaVu Sans;font-size:12px;font-stretch:normal;font-style:normal;font-weight:normal;text-anchor:start;" transform="rotate(-0, 304.952152, 268.75814)" x="304.952152" y="268.75814">rs395601</text>
   </g>
   <g id="text_22">
    <text style="font-family:DejaVu Sans;font-size:12px;font-stretch:normal;font-style:normal;font-weight:normal;text-anchor:start;" transform="rotate(-0, 409.09035, 205.967698)" x="409.09035" y="205.967698">rs1010322</text>
   </g>
   <g id="text_23">
    <text style="font-family:DejaVu Sans;font-size:12px;font-stretch:normal;font-style:normal;font-weight:normal;text-anchor:start;" transform="rotate(-0, 420.70612, 102.583452)" x="420.70612" y="102.583452">rs2526377</text>
   </g>
   <g id="text_24">
    <text style="font-family:DejaVu Sans;font-size:12px;font-stretch:normal;font-style:normal;font-weight:normal;text-anchor:start;" transform="rotate(-0, 370.599299, 383.040501)" x="370.599299" y="383.040501">rs76726049</text>
   </g>
   <g id="text_25">
    <text style="font-family:DejaVu Sans;font-size:12px;font-stretch:normal;font-style:normal;font-weight:normal;text-anchor:start;" transform="rotate(-0, 344.731661, 88.285476)" x="344.731661" y="88.285476">rs6064392</text>
   </g>
   <g id="text_26">
    <text style="font-family:DejaVu Sans;font-size:12px;font-stretch:normal;font-style:normal;font-weight:normal;text-anchor:start;" transform="rotate(-0, 326.920602, 181.132555)" x="326.920602" y="181.132555">rs9270920</text>
   </g>
   <g id="text_27">
    <text style="font-family:DejaVu Sans;font-size:12px;font-stretch:normal;font-style:normal;font-weight:normal;text-anchor:start;" transform="rotate(-0, 401.267231, 107.138851)" x="401.267231" y="107.138851">rs9270921</text>
   </g>
   <g id="text_28">
    <text style="font-family:DejaVu Sans;font-size:12px;font-stretch:normal;font-style:normal;font-weight:normal;text-anchor:start;" transform="rotate(-0, 308.184905, 156.549652)" x="308.184905" y="156.549652">rs9271162</text>
   </g>
   <g id="text_29">
    <text style="font-family:DejaVu Sans;font-size:12px;font-stretch:normal;font-style:normal;font-weight:normal;text-anchor:start;" transform="rotate(-0, 303.867395, 245.908307)" x="303.867395" y="245.908307">rs9271171</text>
   </g>
   <g id="text_30">
    <text style="font-family:DejaVu Sans;font-size:12px;font-stretch:normal;font-style:normal;font-weight:normal;text-anchor:start;" transform="rotate(-0, 101.801405, 465.580604)" x="101.801405" y="465.580604">rs9271182</text>
   </g>
   <g id="text_31">
    <text style="font-family:DejaVu Sans;font-size:12px;font-stretch:normal;font-style:normal;font-weight:normal;text-anchor:start;" transform="rotate(-0, 182.961029, 482.198011)" x="182.961029" y="482.198011">rs28834970</text>
   </g>
   <g id="legend_1">
    <g id="patch_7">
     <path d="M 95.996875 156.1375 
L 323.309375 156.1375 
Q 327.309375 156.1375 327.309375 152.1375 
L 327.309375 35.6 
Q 327.309375 31.6 323.309375 31.6 
L 95.996875 31.6 
Q 91.996875 31.6 91.996875 35.6 
L 91.996875 152.1375 
Q 91.996875 156.1375 95.996875 156.1375 
z
" style="fill:#ffffff;opacity:0.8;stroke:#cccccc;stroke-linejoin:miter;"/>
    </g>
    <g id="text_32">
     <text style="font-family:DejaVu Sans;font-size:20px;font-stretch:normal;font-style:normal;font-weight:normal;text-anchor:start;" transform="rotate(-0, 122.548438, 54.796875)" x="122.548438" y="54.796875">cell_type_overlap</text>
    </g>
    <g id="PathCollection_5">
     <defs>
      <path d="M 0 3 
C 0.795609 3 1.55874 2.683901 2.12132 2.12132 
C 2.683901 1.55874 3 0.795609 3 0 
C 3 -0.795609 2.683901 -1.55874 2.12132 -2.12132 
C 1.55874 -2.683901 0.795609 -3 0 -3 
C -0.795609 -3 -1.55874 -2.683901 -2.12132 -2.12132 
C -2.683901 -1.55874 -3 -0.795609 -3 0 
C -3 0.795609 -2.683901 1.55874 -2.12132 2.12132 
C -1.55874 2.683901 -0.795609 3 0 3 
z
" id="m496c7f823c" style="stroke:#333333;"/>
     </defs>
     <g>
      <use style="fill:#333333;stroke:#333333;" x="119.996875" xlink:href="#m496c7f823c" y="79.459375"/>
     </g>
    </g>
    <g id="text_33">
     <text style="font-family:DejaVu Sans;font-size:20px;font-stretch:normal;font-style:normal;font-weight:normal;text-anchor:start;" transform="rotate(-0, 155.996875, 84.709375)" x="155.996875" y="84.709375">Both</text>
    </g>
    <g id="PathCollection_6">
     <defs>
      <path d="M -1.5 3 
L 0 1.5 
L 1.5 3 
L 3 1.5 
L 1.5 0 
L 3 -1.5 
L 1.5 -3 
L 0 -1.5 
L -1.5 -3 
L -3 -1.5 
L -1.5 0 
L -3 1.5 
z
" id="m49904b1bbf" style="stroke:#333333;"/>
     </defs>
     <g>
      <use style="fill:#333333;stroke:#333333;" x="119.996875" xlink:href="#m49904b1bbf" y="108.815625"/>
     </g>
    </g>
    <g id="text_34">
     <text style="font-family:DejaVu Sans;font-size:20px;font-stretch:normal;font-style:normal;font-weight:normal;text-anchor:start;" transform="rotate(-0, 155.996875, 114.065625)" x="155.996875" y="114.065625">Monocyte</text>
    </g>
    <g id="PathCollection_7">
     <defs>
      <path d="M -2.12132 -2.12132 
L -2.12132 2.12132 
L 2.12132 2.12132 
L 2.12132 -2.12132 
z
" id="me5883f0acc" style="stroke:#333333;"/>
     </defs>
     <g>
      <use style="fill:#333333;stroke:#333333;" x="119.996875" xlink:href="#me5883f0acc" y="138.171875"/>
     </g>
    </g>
    <g id="text_35">
     <text style="font-family:DejaVu Sans;font-size:20px;font-stretch:normal;font-style:normal;font-weight:normal;text-anchor:start;" transform="rotate(-0, 155.996875, 143.421875)" x="155.996875" y="143.421875">dendritic_scatac</text>
    </g>
   </g>
  </g>
 </g>
 <defs>
  <clipPath id="pb4cb95fb40">
   <rect height="482.53125" width="435.699659" x="81.996875" y="21.6"/>
  </clipPath>
 </defs>
</svg>
