<?xml version="1.0" encoding="utf-8" standalone="no"?>
<!DOCTYPE svg PUBLIC "-//W3C//DTD SVG 1.1//EN"
  "http://www.w3.org/Graphics/SVG/1.1/DTD/svg11.dtd">
<!-- Created with matplotlib (https://matplotlib.org/) -->
<svg height="360pt" version="1.1" viewBox="0 0 360 360" width="360pt" xmlns="http://www.w3.org/2000/svg" xmlns:xlink="http://www.w3.org/1999/xlink">
 <defs>
  <style type="text/css">
*{stroke-linecap:butt;stroke-linejoin:round;white-space:pre;}
  </style>
 </defs>
 <g id="figure_1">
  <g id="patch_1">
   <path d="M 0 360 
L 360 360 
L 360 0 
L 0 0 
z
" style="fill:#ffffff;"/>
  </g>
  <g id="axes_1">
   <g id="patch_2">
    <path d="M 33.703125 318.84375 
L 349.2 318.84375 
L 349.2 10.8 
L 33.703125 10.8 
z
" style="fill:#ffffff;"/>
   </g>
   <g id="patch_3">
    <path clip-path="url(#p2d68b3b381)" d="M -1 318.79242 
L 13.396484 318.694426 
L 13.396484 318.680427 
L 38.693039 318.647762 
L 38.693039 318.559101 
L 46.824075 318.577767 
L 46.824075 318.447108 
L 58.568904 318.484439 
L 58.568904 318.31645 
L 66.69994 318.339782 
L 66.69994 318.199791 
L 70.313734 318.274453 
L 70.313734 318.349115 
L 71.217182 318.349115 
L 71.217182 318.14846 
L 75.734424 318.16246 
L 75.734424 318.013136 
L 82.962011 317.910475 
L 82.962011 318.14846 
L 83.86546 318.14846 
L 83.86546 317.966472 
L 88.382702 317.901143 
L 88.382702 317.770484 
L 91.996495 317.821814 
L 91.996495 317.579163 
L 92.899944 317.579163 
L 92.899944 317.765818 
L 93.803392 317.765818 
L 93.803392 317.593162 
L 96.513737 317.495168 
L 96.513737 317.425173 
L 101.030979 317.327179 
L 101.030979 317.280515 
L 101.934428 317.280515 
L 101.934428 317.121859 
L 102.837876 317.121859 
L 102.837876 317.238518 
L 103.741324 317.238518 
L 103.741324 317.098527 
L 106.45167 317.047197 
L 106.45167 316.846543 
L 108.258566 316.897873 
L 108.258566 316.706551 
L 110.065463 316.664554 
L 110.065463 316.575893 
L 113.679257 316.487232 
L 113.679257 316.435902 
L 114.582705 316.435902 
L 114.582705 316.211916 
L 116.389602 316.211916 
L 116.389602 316.020595 
L 118.196499 315.950599 
L 118.196499 315.78261 
L 121.810293 315.843272 
L 121.810293 315.423299 
L 123.617189 315.455964 
L 123.617189 315.245977 
L 125.424086 315.175981 
L 125.424086 314.98466 
L 126.327535 314.98466 
L 126.327535 314.784006 
L 128.134431 314.77934 
L 128.134431 314.247373 
L 129.03788 314.247373 
L 129.03788 314.494691 
L 129.941328 314.494691 
L 129.941328 313.729406 
L 130.844777 313.729406 
L 130.844777 314.079384 
L 131.748225 314.079384 
L 131.748225 313.780736 
L 132.651673 313.780736 
L 132.651673 313.463422 
L 133.555122 313.463422 
L 133.555122 313.113445 
L 134.45857 313.113445 
L 134.45857 312.97812 
L 135.362019 312.97812 
L 135.362019 312.819463 
L 136.265467 312.819463 
L 136.265467 312.38549 
L 137.168915 312.38549 
L 137.168915 312.534814 
L 138.072364 312.534814 
L 138.072364 312.002848 
L 139.879261 312.035512 
L 139.879261 311.349556 
L 140.782709 311.349556 
L 140.782709 311.1769 
L 141.686157 311.1769 
L 141.686157 310.509609 
L 142.589606 310.509609 
L 142.589606 310.024306 
L 143.493054 310.024306 
L 143.493054 309.678994 
L 145.299951 309.595 
L 145.299951 309.133029 
L 146.203399 309.133029 
L 146.203399 308.535733 
L 147.106848 308.535733 
L 147.106848 307.513798 
L 148.010296 307.513798 
L 148.010296 307.271146 
L 148.913745 307.271146 
L 148.913745 306.403201 
L 149.817193 306.403201 
L 149.817193 306.221212 
L 150.720641 306.221212 
L 150.720641 305.41393 
L 151.62409 305.41393 
L 151.62409 304.657978 
L 152.527538 304.657978 
L 152.527538 304.046683 
L 153.430987 304.046683 
L 153.430987 303.164738 
L 154.334435 303.164738 
L 154.334435 302.651437 
L 155.237883 302.651437 
L 155.237883 301.498843 
L 156.141332 301.498843 
L 156.141332 299.991605 
L 157.04478 299.991605 
L 157.04478 299.618295 
L 157.948229 299.618295 
L 157.948229 298.535697 
L 158.851677 298.535697 
L 158.851677 296.533823 
L 159.755125 296.533823 
L 159.755125 295.777871 
L 160.658574 295.777871 
L 160.658574 293.83666 
L 161.562022 293.83666 
L 161.562022 293.057375 
L 162.465471 293.057375 
L 162.465471 291.671463 
L 163.368919 291.671463 
L 163.368919 289.426938 
L 164.272367 289.426938 
L 164.272367 287.611719 
L 165.175816 287.611719 
L 165.175816 284.942554 
L 166.079264 284.942554 
L 166.079264 283.071338 
L 166.982713 283.071338 
L 166.982713 280.542164 
L 167.886161 280.542164 
L 167.886161 278.152982 
L 168.789609 278.152982 
L 168.789609 275.7498 
L 169.693058 275.7498 
L 169.693058 272.646662 
L 170.596506 272.646662 
L 170.596506 269.860838 
L 171.499955 269.860838 
L 171.499955 264.401182 
L 172.403403 264.401182 
L 172.403403 260.514094 
L 173.306851 260.514094 
L 173.306851 257.079643 
L 174.2103 257.079643 
L 174.2103 252.357274 
L 175.113748 252.357274 
L 175.113748 247.29426 
L 176.017197 247.29426 
L 176.017197 239.823398 
L 176.920645 239.823398 
L 176.920645 234.886376 
L 177.824093 234.886376 
L 177.824093 229.179402 
L 178.727542 229.179402 
L 178.727542 221.559216 
L 179.63099 221.559216 
L 179.63099 211.101875 
L 180.534439 211.101875 
L 180.534439 203.071048 
L 181.437887 203.071048 
L 181.437887 192.688369 
L 182.341335 192.688369 
L 182.341335 182.637003 
L 183.244784 182.637003 
L 183.244784 169.179184 
L 184.148232 169.179184 
L 184.148232 155.987349 
L 185.051681 155.987349 
L 185.051681 143.378811 
L 185.955129 143.378811 
L 185.955129 126.626533 
L 186.858578 126.626533 
L 186.858578 112.118781 
L 187.762026 112.118781 
L 187.762026 95.347838 
L 188.665474 95.347838 
L 188.665474 77.4523 
L 189.568923 77.4523 
L 189.568923 62.69723 
L 190.472371 62.69723 
L 190.472371 52.029902 
L 191.37582 52.029902 
L 191.37582 49.654719 
L 192.279268 49.654719 
L 192.279268 53.611803 
L 193.182716 53.611803 
L 193.182716 63.513845 
L 194.086165 63.513845 
L 194.086165 76.547023 
L 194.989613 76.547023 
L 194.989613 91.577409 
L 195.893062 91.577409 
L 195.893062 107.415078 
L 196.79651 107.415078 
L 196.79651 121.708177 
L 197.699958 121.708177 
L 197.699958 134.900012 
L 198.603407 134.900012 
L 198.603407 149.729744 
L 199.506855 149.729744 
L 199.506855 161.120359 
L 200.410304 161.120359 
L 200.410304 172.860952 
L 201.313752 172.860952 
L 201.313752 184.578214 
L 202.2172 184.578214 
L 202.2172 194.867565 
L 203.120649 194.867565 
L 203.120649 202.683739 
L 204.024097 202.683739 
L 204.024097 211.890492 
L 204.927546 211.890492 
L 204.927546 219.562008 
L 205.830994 219.562008 
L 205.830994 227.807489 
L 206.734442 227.807489 
L 206.734442 232.646517 
L 207.637891 232.646517 
L 207.637891 238.82946 
L 208.541339 238.82946 
L 208.541339 243.925139 
L 209.444788 243.925139 
L 209.444788 250.014755 
L 210.348236 250.014755 
L 210.348236 253.845847 
L 211.251684 253.845847 
L 211.251684 258.815534 
L 212.155133 258.815534 
L 212.155133 261.424036 
L 213.058581 261.424036 
L 213.058581 265.90842 
L 213.96203 265.90842 
L 213.96203 269.062888 
L 214.865478 269.062888 
L 214.865478 272.828651 
L 215.768926 272.828651 
L 215.768926 275.152504 
L 216.672375 275.152504 
L 216.672375 277.751674 
L 217.575823 277.751674 
L 217.575823 279.277577 
L 218.479272 279.277577 
L 218.479272 281.816084 
L 219.38272 281.816084 
L 219.38272 284.62524 
L 220.286168 284.62524 
L 220.286168 286.832435 
L 221.189617 286.832435 
L 221.189617 288.153018 
L 222.093065 288.153018 
L 222.093065 289.408272 
L 222.996514 289.408272 
L 222.996514 290.808184 
L 223.899962 290.808184 
L 223.899962 292.1381 
L 224.80341 292.1381 
L 224.80341 294.04198 
L 225.706859 294.04198 
L 225.706859 295.399894 
L 226.610307 295.399894 
L 226.610307 297.159117 
L 228.417204 297.177782 
L 228.417204 298.526364 
L 229.320652 298.526364 
L 229.320652 299.874946 
L 230.224101 299.874946 
L 230.224101 300.915547 
L 232.030998 300.971543 
L 232.030998 302.376121 
L 232.934446 302.376121 
L 232.934446 302.637438 
L 233.837894 302.637438 
L 233.837894 303.426055 
L 234.741343 303.426055 
L 234.741343 303.888026 
L 235.644791 303.888026 
L 235.644791 305.390598 
L 236.54824 305.390598 
L 236.54824 305.56792 
L 237.451688 305.56792 
L 237.451688 306.081221 
L 238.355136 306.081221 
L 238.355136 306.921168 
L 239.258585 306.921168 
L 239.258585 307.331809 
L 240.162033 307.331809 
L 240.162033 307.663121 
L 241.96893 307.728451 
L 241.96893 308.381743 
L 242.872378 308.381743 
L 242.872378 308.853046 
L 243.775827 308.853046 
L 243.775827 309.287019 
L 244.679275 309.287019 
L 244.679275 309.595 
L 245.582724 309.595 
L 245.582724 309.870316 
L 246.486172 309.870316 
L 246.486172 310.192295 
L 247.38962 310.192295 
L 247.38962 310.607603 
L 248.293069 310.607603 
L 248.293069 310.766259 
L 249.196517 310.766259 
L 249.196517 311.246896 
L 250.099966 311.246896 
L 250.099966 311.456882 
L 251.003414 311.456882 
L 251.003414 311.214231 
L 251.906863 311.214231 
L 251.906863 311.783528 
L 252.810311 311.783528 
L 252.810311 311.904854 
L 253.713759 311.904854 
L 253.713759 312.142839 
L 255.520656 312.072843 
L 255.520656 312.418155 
L 256.424105 312.418155 
L 256.424105 312.642141 
L 257.327553 312.642141 
L 257.327553 313.309432 
L 259.13445 313.290767 
L 259.13445 313.60808 
L 260.037898 313.60808 
L 260.037898 313.496087 
L 260.941347 313.496087 
L 260.941347 313.752738 
L 261.844795 313.752738 
L 261.844795 313.883396 
L 263.651692 313.87873 
L 263.651692 314.200709 
L 265.458589 314.116715 
L 265.458589 314.336034 
L 267.265485 314.359366 
L 267.265485 314.658014 
L 269.072382 314.66268 
L 269.072382 314.942663 
L 269.975831 314.942663 
L 269.975831 315.082654 
L 270.879279 315.082654 
L 270.879279 314.802671 
L 271.782727 314.802671 
L 271.782727 314.937996 
L 272.686176 314.937996 
L 272.686176 315.119985 
L 274.493073 315.208646 
L 274.493073 315.483962 
L 276.299969 315.51196 
L 276.299969 315.600621 
L 278.106866 315.572623 
L 278.106866 315.927267 
L 279.010315 315.927267 
L 279.010315 315.810608 
L 280.817211 315.88527 
L 280.817211 316.057926 
L 281.72066 316.057926 
L 281.72066 315.721947 
L 283.527557 315.824607 
L 283.527557 316.146587 
L 288.044799 316.146587 
L 288.044799 316.477899 
L 288.948247 316.477899 
L 288.948247 316.356573 
L 289.851695 316.356573 
L 289.851695 316.496565 
L 291.658592 316.533896 
L 291.658592 316.375239 
L 292.562041 316.375239 
L 292.562041 316.552561 
L 294.368937 316.585226 
L 294.368937 316.687886 
L 297.079283 316.753215 
L 297.079283 317.140524 
L 297.982731 317.140524 
L 297.982731 316.893206 
L 300.693076 316.921205 
L 300.693076 317.023865 
L 302.499973 317.107859 
L 302.499973 317.182521 
L 303.403421 317.182521 
L 303.403421 316.963202 
L 304.30687 316.963202 
L 304.30687 317.084528 
L 305.210318 317.084528 
L 305.210318 317.205853 
L 307.017215 317.238518 
L 307.017215 317.387842 
L 311.534457 317.439172 
L 311.534457 317.504501 
L 312.437905 317.504501 
L 312.437905 317.392508 
L 317.858596 317.383175 
L 317.858596 317.513834 
L 319.665493 317.583829 
L 319.665493 317.728487 
L 320.568941 317.728487 
L 320.568941 317.541832 
L 321.47239 317.541832 
L 321.47239 317.667824 
L 326.89308 317.705155 
L 326.89308 317.784483 
L 334.120667 317.84048 
L 334.120667 317.975805 
L 340.444806 317.980471 
L 340.444806 318.153127 
L 342.251703 318.120462 
L 342.251703 318.017802 
L 346.768945 318.073799 
L 346.768945 318.171792 
L 355.803429 318.14846 
L 355.803429 318.321116 
L 357.610326 318.227789 
L 357.610326 318.204457 
L 361 318.241788 
L 361 318.241788 
" style="fill:none;stroke:#6b97ff;stroke-linejoin:miter;stroke-width:2;"/>
   </g>
   <g id="patch_4">
    <path clip-path="url(#p2d68b3b381)" d="M -1 318.686277 
L 22.814787 318.600383 
L 22.814787 318.564594 
L 40.995378 318.457226 
L 40.995378 318.442911 
L 47.8131 318.389227 
L 47.8131 318.310491 
L 58.039683 318.27828 
L 58.039683 318.153018 
L 67.129979 318.049229 
L 67.129979 317.94544 
L 72.811414 317.91323 
L 72.811414 317.802284 
L 80.765423 317.777231 
L 80.765423 317.669863 
L 86.446858 317.626916 
L 86.446858 317.480181 
L 88.719432 317.498075 
L 88.719432 317.340603 
L 92.128293 317.261866 
L 92.128293 317.204604 
L 93.26458 317.204604 
L 93.26458 317.025657 
L 94.400867 317.025657 
L 94.400867 317.190288 
L 96.673441 317.147341 
L 96.673441 316.796606 
L 97.809728 316.796606 
L 97.809728 316.993447 
L 100.082302 316.882501 
L 100.082302 316.828817 
L 103.491163 316.75008 
L 103.491163 316.442293 
L 108.036311 316.342083 
L 108.036311 316.052191 
L 111.445172 315.959139 
L 111.445172 315.72293 
L 113.717746 315.647772 
L 113.717746 315.350722 
L 118.262894 315.254091 
L 118.262894 315.178934 
L 119.399181 315.178934 
L 119.399181 314.813883 
L 121.671755 314.702937 
L 121.671755 314.380834 
L 123.944329 314.277045 
L 123.944329 313.851153 
L 125.080616 313.851153 
L 125.080616 314.287782 
L 126.216903 314.287782 
L 126.216903 313.754522 
L 127.35319 313.754522 
L 127.35319 313.378736 
L 128.489477 313.378736 
L 128.489477 313.503998 
L 129.625764 313.503998 
L 129.625764 313.106738 
L 130.762051 313.106738 
L 130.762051 312.863371 
L 131.898338 312.863371 
L 131.898338 312.405269 
L 134.170912 312.469689 
L 134.170912 311.846957 
L 136.443486 311.907799 
L 136.443486 311.209909 
L 137.579773 311.209909 
L 137.579773 310.916437 
L 138.71606 310.916437 
L 138.71606 310.118337 
L 139.852347 310.118337 
L 139.852347 310.333073 
L 140.988634 310.333073 
L 140.988634 309.248659 
L 142.124921 309.248659 
L 142.124921 308.998135 
L 143.261208 308.998135 
L 143.261208 308.554348 
L 144.397495 308.554348 
L 144.397495 307.68467 
L 145.533782 307.68467 
L 145.533782 307.165726 
L 146.670069 307.165726 
L 146.670069 306.439205 
L 147.806356 306.439205 
L 147.806356 305.834367 
L 148.942643 305.834367 
L 148.942643 305.025531 
L 150.07893 305.025531 
L 150.07893 304.567429 
L 151.215217 304.567429 
L 151.215217 303.296911 
L 152.351504 303.296911 
L 152.351504 302.842388 
L 153.487791 302.842388 
L 153.487791 301.493135 
L 154.624078 301.493135 
L 154.624078 300.494615 
L 155.760365 300.494615 
L 155.760365 298.927047 
L 156.896652 298.927047 
L 156.896652 297.75674 
L 158.032939 297.75674 
L 158.032939 296.840536 
L 159.169226 296.840536 
L 159.169226 295.784753 
L 160.305513 295.784753 
L 160.305513 294.131291 
L 161.4418 294.131291 
L 161.4418 291.969622 
L 162.578087 291.969622 
L 162.578087 289.478692 
L 163.714374 289.478692 
L 163.714374 287.553232 
L 164.850661 287.553232 
L 164.850661 285.846086 
L 165.986948 285.846086 
L 165.986948 282.67874 
L 167.123235 282.67874 
L 167.123235 279.912233 
L 168.259522 279.912233 
L 168.259522 275.746367 
L 169.395809 275.746367 
L 169.395809 273.437962 
L 170.532096 273.437962 
L 170.532096 269.239887 
L 171.668383 269.239887 
L 171.668383 265.886436 
L 172.80467 265.886436 
L 172.80467 259.680585 
L 173.940957 259.680585 
L 173.940957 254.319359 
L 175.077244 254.319359 
L 175.077244 247.938141 
L 176.213531 247.938141 
L 176.213531 241.424502 
L 177.349818 241.424502 
L 177.349818 233.586662 
L 178.486105 233.586662 
L 178.486105 224.088202 
L 179.622392 224.088202 
L 179.622392 214.178167 
L 180.758679 214.178167 
L 180.758679 202.525195 
L 181.894966 202.525195 
L 181.894966 189.92381 
L 183.031253 189.92381 
L 183.031253 174.283919 
L 184.16754 174.283919 
L 184.16754 157.835192 
L 185.303827 157.835192 
L 185.303827 136.286501 
L 186.440114 136.286501 
L 186.440114 112.436563 
L 187.576401 112.436563 
L 187.576401 88.071259 
L 188.712688 88.071259 
L 188.712688 64.264268 
L 189.848975 64.264268 
L 189.848975 39.419389 
L 190.985262 39.419389 
L 190.985262 25.46875 
L 192.121549 25.46875 
L 192.121549 34.552055 
L 193.257836 34.552055 
L 193.257836 55.628328 
L 194.394123 55.628328 
L 194.394123 80.891941 
L 195.53041 80.891941 
L 195.53041 104.845668 
L 196.666697 104.845668 
L 196.666697 126.941935 
L 197.802984 126.941935 
L 197.802984 148.705361 
L 198.939271 148.705361 
L 198.939271 165.687348 
L 200.075558 165.687348 
L 200.075558 181.384501 
L 201.211845 181.384501 
L 201.211845 197.081655 
L 202.348132 197.081655 
L 202.348132 208.365997 
L 203.484419 208.365997 
L 203.484419 219.571602 
L 204.620706 219.571602 
L 204.620706 227.996386 
L 205.756993 227.996386 
L 205.756993 235.358229 
L 206.89328 235.358229 
L 206.89328 243.135227 
L 208.029567 243.135227 
L 208.029567 249.645287 
L 209.165854 249.645287 
L 209.165854 255.321458 
L 210.302141 255.321458 
L 210.302141 261.130049 
L 211.438428 261.130049 
L 211.438428 265.585807 
L 212.574715 265.585807 
L 212.574715 269.365149 
L 213.711002 269.365149 
L 213.711002 272.933334 
L 214.847289 272.933334 
L 214.847289 275.993313 
L 215.983576 275.993313 
L 215.983576 278.999608 
L 217.119863 278.999608 
L 217.119863 281.826956 
L 218.25615 281.826956 
L 218.25615 284.657884 
L 219.392437 284.657884 
L 219.392437 286.508187 
L 220.528724 286.508187 
L 220.528724 288.977643 
L 221.665011 288.977643 
L 221.665011 290.61679 
L 222.801298 290.61679 
L 222.801298 292.123516 
L 223.937585 292.123516 
L 223.937585 294.116976 
L 225.073872 294.116976 
L 225.073872 295.13339 
L 226.210159 295.13339 
L 226.210159 296.59359 
L 227.346446 296.59359 
L 227.346446 298.25421 
L 228.482733 298.25421 
L 228.482733 299.01652 
L 229.61902 299.01652 
L 229.61902 300.329985 
L 230.755307 300.329985 
L 230.755307 301.081558 
L 231.891594 301.081558 
L 231.891594 301.725765 
L 233.027881 301.725765 
L 233.027881 302.667021 
L 234.164168 302.667021 
L 234.164168 303.554594 
L 235.300455 303.554594 
L 235.300455 304.43143 
L 236.436742 304.43143 
L 236.436742 304.810796 
L 237.573029 304.810796 
L 237.573029 305.977524 
L 238.709316 305.977524 
L 238.709316 306.542994 
L 239.845603 306.542994 
L 239.845603 306.840045 
L 240.98189 306.840045 
L 240.98189 307.412672 
L 242.118177 307.412672 
L 242.118177 308.210772 
L 244.390751 308.225087 
L 244.390751 308.804873 
L 245.527038 308.804873 
L 245.527038 309.492026 
L 246.663325 309.492026 
L 246.663325 310.050338 
L 247.799612 310.050338 
L 247.799612 310.172021 
L 248.935899 310.172021 
L 248.935899 310.40823 
L 250.072186 310.40823 
L 250.072186 310.651597 
L 251.208473 310.651597 
L 251.208473 311.23854 
L 252.34476 311.23854 
L 252.34476 311.553485 
L 254.617334 311.607169 
L 254.617334 311.947167 
L 255.753621 311.947167 
L 255.753621 312.215586 
L 258.026195 312.208428 
L 258.026195 312.494742 
L 259.162482 312.494742 
L 259.162482 312.895581 
L 260.298769 312.895581 
L 260.298769 313.106738 
L 262.571343 313.214105 
L 262.571343 313.521892 
L 264.843917 313.532629 
L 264.843917 313.740207 
L 267.116491 313.715154 
L 267.116491 314.026521 
L 268.252778 314.026521 
L 268.252778 314.563359 
L 269.389065 314.563359 
L 269.389065 314.348624 
L 270.525352 314.348624 
L 270.525352 314.599148 
L 271.661639 314.599148 
L 271.661639 314.753042 
L 273.934213 314.821041 
L 273.934213 315.243354 
L 275.0705 315.243354 
L 275.0705 315.114513 
L 276.206787 315.114513 
L 276.206787 315.229038 
L 277.343074 315.229038 
L 277.343074 315.39009 
L 280.751935 315.443774 
L 280.751935 315.75514 
L 281.888222 315.75514 
L 281.888222 315.472405 
L 283.024509 315.472405 
L 283.024509 315.909034 
L 285.297083 315.948402 
L 285.297083 316.181032 
L 286.43337 316.181032 
L 286.43337 316.037875 
L 289.842231 316.070085 
L 289.842231 316.342083 
L 292.114805 316.424399 
L 292.114805 316.470924 
L 293.251092 316.470924 
L 293.251092 316.592608 
L 297.79624 316.503135 
L 297.79624 316.782291 
L 301.205101 316.861027 
L 301.205101 316.954079 
L 302.341388 316.954079 
L 302.341388 317.097236 
L 305.750249 317.086499 
L 305.750249 317.272603 
L 313.704258 317.218919 
L 313.704258 317.422918 
L 319.385693 317.508812 
L 319.385693 317.626916 
L 323.930841 317.637653 
L 323.930841 317.820178 
L 325.067128 317.820178 
L 325.067128 317.644811 
L 326.203415 317.644811 
L 326.203415 317.830915 
L 333.021137 317.916809 
L 333.021137 317.966914 
L 342.111433 318.067124 
L 342.111433 318.138702 
L 348.929155 318.095755 
L 348.929155 318.299754 
L 361 318.306912 
L 361 318.306912 
" style="fill:none;stroke:#ff6b97;stroke-linejoin:miter;stroke-width:2;"/>
   </g>
   <g id="patch_5">
    <path clip-path="url(#p2d68b3b381)" d="M -1 318.714571 
L 27.5706 318.693041 
L 27.5706 318.585393 
L 41.607498 318.526186 
L 41.607498 318.461596 
L 43.479084 318.504656 
L 43.479084 318.58001 
L 45.35067 318.55848 
L 45.35067 318.461596 
L 59.387568 318.353947 
L 59.387568 318.267828 
L 65.002327 318.273211 
L 65.002327 318.111737 
L 74.360259 318.11712 
L 74.360259 317.993323 
L 78.103431 318.025618 
L 78.103431 317.874909 
L 79.975018 317.874909 
L 79.975018 317.756496 
L 83.718191 317.799555 
L 83.718191 317.52505 
L 84.653984 317.52505 
L 84.653984 317.740348 
L 86.52557 317.708054 
L 86.52557 317.487373 
L 88.397156 317.52505 
L 88.397156 317.745731 
L 89.33295 317.745731 
L 89.33295 317.541198 
L 90.268743 317.541198 
L 90.268743 317.428166 
L 91.204536 317.428166 
L 91.204536 317.266693 
L 93.076122 317.196721 
L 93.076122 317.385107 
L 94.011915 317.385107 
L 94.011915 317.094455 
L 98.690881 316.986806 
L 98.690881 316.782273 
L 99.626675 316.782273 
L 99.626675 316.943746 
L 100.562468 316.943746 
L 100.562468 316.79842 
L 101.498261 316.79842 
L 101.498261 316.653094 
L 103.369847 316.550827 
L 103.369847 316.416266 
L 104.30564 316.416266 
L 104.30564 316.599269 
L 105.241434 316.599269 
L 105.241434 316.410884 
L 108.048813 316.303235 
L 108.048813 316.05026 
L 110.856193 316.02873 
L 110.856193 315.883404 
L 112.727779 315.845727 
L 112.727779 315.700401 
L 113.663572 315.700401 
L 113.663572 315.463573 
L 114.599365 315.463573 
L 114.599365 315.28057 
L 115.535159 315.28057 
L 115.535159 315.070654 
L 117.406745 315.000682 
L 117.406745 314.704648 
L 119.278331 314.75309 
L 119.278331 314.51088 
L 121.149918 314.403231 
L 121.149918 314.117961 
L 123.021504 314.187933 
L 123.021504 313.994165 
L 123.957297 313.994165 
L 123.957297 313.778867 
L 124.89309 313.778867 
L 124.89309 313.246005 
L 125.828883 313.246005 
L 125.828883 313.127591 
L 126.764677 313.127591 
L 126.764677 312.64317 
L 127.70047 312.64317 
L 127.70047 312.772349 
L 128.636263 312.772349 
L 128.636263 312.896145 
L 129.572056 312.896145 
L 129.572056 312.131838 
L 130.507849 312.131838 
L 130.507849 311.991894 
L 131.443643 311.991894 
L 131.443643 311.620505 
L 132.379436 311.620505 
L 132.379436 311.448267 
L 133.315229 311.448267 
L 133.315229 310.700107 
L 134.251022 310.700107 
L 134.251022 310.845433 
L 135.186815 310.845433 
L 135.186815 310.11342 
L 136.122608 310.11342 
L 136.122608 309.89274 
L 137.058402 309.89274 
L 137.058402 309.295288 
L 137.994195 309.295288 
L 137.994195 309.036931 
L 138.929988 309.036931 
L 138.929988 308.627865 
L 139.865781 308.627865 
L 139.865781 307.890469 
L 140.801574 307.890469 
L 140.801574 307.545993 
L 141.737367 307.545993 
L 141.737367 307.31993 
L 142.673161 307.31993 
L 142.673161 306.625594 
L 143.608954 306.625594 
L 143.608954 306.033525 
L 144.544747 306.033525 
L 144.544747 305.328424 
L 145.48054 305.328424 
L 145.48054 304.477997 
L 146.416333 304.477997 
L 146.416333 304.020489 
L 147.352127 304.020489 
L 147.352127 303.42842 
L 148.28792 303.42842 
L 148.28792 303.030119 
L 149.223713 303.030119 
L 149.223713 301.307736 
L 150.159506 301.307736 
L 150.159506 300.721049 
L 151.095299 300.721049 
L 151.095299 299.682237 
L 152.031092 299.682237 
L 152.031092 299.429262 
L 152.966886 299.429262 
L 152.966886 298.379684 
L 153.902679 298.379684 
L 153.902679 297.157869 
L 154.838472 297.157869 
L 154.838472 295.844552 
L 155.774265 295.844552 
L 155.774265 295.139451 
L 156.710058 295.139451 
L 156.710058 293.20177 
L 157.645851 293.20177 
L 157.645851 292.179105 
L 158.581645 292.179105 
L 158.581645 290.8927 
L 159.517438 290.8927 
L 159.517438 289.245671 
L 160.453231 289.245671 
L 160.453231 287.673996 
L 161.389024 287.673996 
L 161.389024 285.569459 
L 162.324817 285.569459 
L 162.324817 283.540276 
L 163.26061 283.540276 
L 163.26061 281.715627 
L 164.196404 281.715627 
L 164.196404 280.170864 
L 165.132197 280.170864 
L 165.132197 277.528082 
L 166.06799 277.528082 
L 166.06799 275.74111 
L 167.003783 275.74111 
L 167.003783 273.383598 
L 167.939576 273.383598 
L 167.939576 270.805405 
L 168.87537 270.805405 
L 168.87537 268.028062 
L 169.811163 268.028062 
L 169.811163 263.587543 
L 170.746956 263.587543 
L 170.746956 260.804818 
L 171.682749 260.804818 
L 171.682749 257.456935 
L 172.618542 257.456935 
L 172.618542 254.071376 
L 173.554335 254.071376 
L 173.554335 249.706211 
L 174.490129 249.706211 
L 174.490129 244.156907 
L 175.425922 244.156907 
L 175.425922 240.712141 
L 176.361715 240.712141 
L 176.361715 234.597681 
L 177.297508 234.597681 
L 177.297508 229.145261 
L 178.233301 229.145261 
L 178.233301 222.594822 
L 179.169094 222.594822 
L 179.169094 216.270447 
L 180.104888 216.270447 
L 180.104888 209.138704 
L 181.040681 209.138704 
L 181.040681 198.341514 
L 181.976474 198.341514 
L 181.976474 190.068692 
L 182.912267 190.068692 
L 182.912267 178.415693 
L 183.84806 178.415693 
L 183.84806 165.799236 
L 184.783854 165.799236 
L 184.783854 154.146237 
L 185.719647 154.146237 
L 185.719647 139.312211 
L 186.65544 139.312211 
L 186.65544 121.910758 
L 187.591233 121.910758 
L 187.591233 106.048685 
L 188.527026 106.048685 
L 188.527026 89.416922 
L 189.462819 89.416922 
L 189.462819 73.904708 
L 190.398613 73.904708 
L 190.398613 62.192502 
L 191.334406 62.192502 
L 191.334406 62.370123 
L 192.270199 62.370123 
L 192.270199 71.267309 
L 193.205992 71.267309 
L 193.205992 84.658838 
L 194.141785 84.658838 
L 194.141785 104.864547 
L 195.077578 104.864547 
L 195.077578 119.908488 
L 196.013372 119.908488 
L 196.013372 137.724389 
L 196.949165 137.724389 
L 196.949165 153.145101 
L 197.884958 153.145101 
L 197.884958 165.740029 
L 198.820751 165.740029 
L 198.820751 176.451099 
L 199.756544 176.451099 
L 199.756544 188.061039 
L 200.692338 188.061039 
L 200.692338 198.44378 
L 201.628131 198.44378 
L 201.628131 207.141815 
L 202.563924 207.141815 
L 202.563924 214.284323 
L 203.499717 214.284323 
L 203.499717 220.054307 
L 204.43551 220.054307 
L 204.43551 227.535909 
L 205.371303 227.535909 
L 205.371303 232.396259 
L 206.307097 232.396259 
L 206.307097 238.51072 
L 207.24289 238.51072 
L 207.24289 242.068518 
L 208.178683 242.068518 
L 208.178683 246.842749 
L 209.114476 246.842749 
L 209.114476 250.384399 
L 210.050269 250.384399 
L 210.050269 254.383558 
L 210.986062 254.383558 
L 210.986062 258.226625 
L 211.921856 258.226625 
L 211.921856 261.687539 
L 212.857649 261.687539 
L 212.857649 265.083864 
L 213.793442 265.083864 
L 213.793442 267.113046 
L 214.729235 267.113046 
L 214.729235 268.840812 
L 215.665028 268.840812 
L 215.665028 272.522406 
L 216.600822 272.522406 
L 216.600822 274.433175 
L 217.536615 274.433175 
L 217.536615 276.887571 
L 218.472408 276.887571 
L 218.472408 279.078227 
L 219.408201 279.078227 
L 219.408201 281.075115 
L 220.343994 281.075115 
L 220.343994 282.636025 
L 221.279787 282.636025 
L 221.279787 284.745945 
L 222.215581 284.745945 
L 222.215581 286.096939 
L 223.151374 286.096939 
L 223.151374 287.921589 
L 224.087167 287.921589 
L 224.087167 289.321025 
L 225.02296 289.321025 
L 225.02296 290.919612 
L 225.958753 290.919612 
L 225.958753 291.107998 
L 226.894546 291.107998 
L 226.894546 293.449362 
L 227.83034 293.449362 
L 227.83034 294.49894 
L 228.766133 294.49894 
L 228.766133 295.580812 
L 229.701926 295.580812 
L 229.701926 297.077132 
L 231.573512 297.087897 
L 231.573512 298.977136 
L 232.509306 298.977136 
L 232.509306 299.542293 
L 233.445099 299.542293 
L 233.445099 300.005183 
L 234.380892 300.005183 
L 234.380892 301.054761 
L 235.316685 301.054761 
L 235.316685 301.506886 
L 236.252478 301.506886 
L 236.252478 302.594141 
L 237.188271 302.594141 
L 237.188271 302.782526 
L 238.124065 302.782526 
L 238.124065 304.181963 
L 239.059858 304.181963 
L 239.059858 304.042019 
L 239.995651 304.042019 
L 239.995651 304.860151 
L 240.931444 304.860151 
L 240.931444 305.242305 
L 241.867237 305.242305 
L 241.867237 305.694431 
L 243.738824 305.75902 
L 243.738824 307.045425 
L 244.674617 307.045425 
L 244.674617 307.443726 
L 245.61041 307.443726 
L 245.61041 308.197269 
L 247.481996 308.28877 
L 247.481996 308.557893 
L 248.41779 308.557893 
L 248.41779 308.821633 
L 249.353583 308.821633 
L 249.353583 309.036931 
L 250.289376 309.036931 
L 250.289376 309.58594 
L 251.225169 309.58594 
L 251.225169 309.758178 
L 252.160962 309.758178 
L 252.160962 310.145715 
L 253.096755 310.145715 
L 253.096755 310.522486 
L 254.032549 310.522486 
L 254.032549 310.958464 
L 254.968342 310.958464 
L 254.968342 311.243734 
L 255.904135 311.243734 
L 255.904135 311.744302 
L 257.775721 311.760449 
L 257.775721 311.89501 
L 258.711514 311.89501 
L 258.711514 312.104926 
L 259.647308 312.104926 
L 259.647308 312.696995 
L 261.518894 312.761584 
L 261.518894 312.90691 
L 263.39048 312.982265 
L 263.39048 313.127591 
L 264.326274 313.127591 
L 264.326274 313.563569 
L 265.262067 313.563569 
L 265.262067 313.800397 
L 267.133653 313.725042 
L 267.133653 313.655071 
L 268.069446 313.655071 
L 268.069446 314.101814 
L 269.005239 314.101814 
L 269.005239 314.311729 
L 270.876826 314.419378 
L 270.876826 314.46782 
L 272.748412 314.483967 
L 272.748412 315.01683 
L 274.619998 315.011447 
L 274.619998 315.129861 
L 275.555792 315.129861 
L 275.555792 315.296717 
L 276.491585 315.296717 
L 276.491585 314.957623 
L 277.427378 314.957623 
L 277.427378 315.587369 
L 278.363171 315.587369 
L 278.363171 315.248275 
L 279.298964 315.248275 
L 279.298964 315.581987 
L 283.042137 315.662723 
L 283.042137 315.953376 
L 285.849517 316.02873 
L 285.849517 315.775755 
L 286.78531 315.775755 
L 286.78531 316.351677 
L 291.464276 316.383971 
L 291.464276 316.464708 
L 292.400069 316.464708 
L 292.400069 316.583122 
L 293.335862 316.583122 
L 293.335862 316.733831 
L 295.207448 316.626182 
L 295.207448 316.615417 
L 296.143242 316.615417 
L 296.143242 316.814567 
L 298.014828 316.884539 
L 298.014828 316.932981 
L 301.758001 316.965276 
L 301.758001 317.078307 
L 303.629587 317.029865 
L 303.629587 317.298988 
L 304.56538 317.298988 
L 304.56538 317.175191 
L 306.436966 317.089072 
L 306.436966 317.374342 
L 312.051726 317.266693 
L 312.051726 317.535815 
L 314.859105 317.605787 
L 314.859105 317.708054 
L 320.473864 317.778025 
L 320.473864 317.847997 
L 325.15283 317.81032 
L 325.15283 317.966411 
L 329.831796 317.950264 
L 329.831796 318.079442 
L 330.767589 318.079442 
L 330.767589 317.907204 
L 331.703382 317.907204 
L 331.703382 318.068678 
L 338.253934 318.154797 
L 338.253934 318.224769 
L 341.997107 318.267828 
L 341.997107 318.111737 
L 342.9329 318.111737 
L 342.9329 318.230151 
L 349.483453 318.240916 
L 349.483453 318.348565 
L 360.712971 318.391624 
L 360.712971 318.488508 
L 361 318.488508 
L 361 318.488508 
" style="fill:none;stroke:#97ff6b;stroke-linejoin:miter;stroke-width:2;"/>
   </g>
   <g id="matplotlib.axis_1">
    <g id="xtick_1">
     <g id="line2d_1">
      <defs>
       <path d="M 0 0 
L 0 3.5 
" id="ma9b8de6b42" style="stroke:#000000;stroke-width:0.8;"/>
      </defs>
      <g>
       <use style="stroke:#000000;stroke-width:0.8;" x="65.252812" xlink:href="#ma9b8de6b42" y="318.84375"/>
      </g>
     </g>
     <g id="text_1">
      <text style="font-family:DejaVu Sans;font-size:10px;font-style:normal;font-weight:normal;text-anchor:middle;" transform="rotate(-0, 65.252812, 333.442187)" x="65.252812" y="333.442187">−4</text>
     </g>
    </g>
    <g id="xtick_2">
     <g id="line2d_2">
      <g>
       <use style="stroke:#000000;stroke-width:0.8;" x="128.352187" xlink:href="#ma9b8de6b42" y="318.84375"/>
      </g>
     </g>
     <g id="text_2">
      <text style="font-family:DejaVu Sans;font-size:10px;font-style:normal;font-weight:normal;text-anchor:middle;" transform="rotate(-0, 128.352187, 333.442187)" x="128.352187" y="333.442187">−2</text>
     </g>
    </g>
    <g id="xtick_3">
     <g id="line2d_3">
      <g>
       <use style="stroke:#000000;stroke-width:0.8;" x="191.451562" xlink:href="#ma9b8de6b42" y="318.84375"/>
      </g>
     </g>
     <g id="text_3">
      <text style="font-family:DejaVu Sans;font-size:10px;font-style:normal;font-weight:normal;text-anchor:middle;" transform="rotate(-0, 191.451562, 333.442187)" x="191.451562" y="333.442187">0</text>
     </g>
    </g>
    <g id="xtick_4">
     <g id="line2d_4">
      <g>
       <use style="stroke:#000000;stroke-width:0.8;" x="254.550938" xlink:href="#ma9b8de6b42" y="318.84375"/>
      </g>
     </g>
     <g id="text_4">
      <text style="font-family:DejaVu Sans;font-size:10px;font-style:normal;font-weight:normal;text-anchor:middle;" transform="rotate(-0, 254.550938, 333.442187)" x="254.550938" y="333.442187">2</text>
     </g>
    </g>
    <g id="xtick_5">
     <g id="line2d_5">
      <g>
       <use style="stroke:#000000;stroke-width:0.8;" x="317.650312" xlink:href="#ma9b8de6b42" y="318.84375"/>
      </g>
     </g>
     <g id="text_5">
      <text style="font-family:DejaVu Sans;font-size:10px;font-style:normal;font-weight:normal;text-anchor:middle;" transform="rotate(-0, 317.650312, 333.442187)" x="317.650312" y="333.442187">4</text>
     </g>
    </g>
    <g id="text_6">
     <text style="font-family:DejaVu Sans;font-size:10px;font-style:normal;font-weight:normal;text-anchor:middle;" transform="rotate(-0, 191.451562, 347.120312)" x="191.451562" y="347.120312">Z-score normalized effect (ref/alt)</text>
    </g>
   </g>
   <g id="matplotlib.axis_2">
    <g id="ytick_1">
     <g id="line2d_6">
      <defs>
       <path d="M 0 0 
L -3.5 0 
" id="m47780b8a1c" style="stroke:#000000;stroke-width:0.8;"/>
      </defs>
      <g>
       <use style="stroke:#000000;stroke-width:0.8;" x="33.703125" xlink:href="#m47780b8a1c" y="318.84375"/>
      </g>
     </g>
     <g id="text_7">
      <text style="font-family:DejaVu Sans;font-size:10px;font-style:normal;font-weight:normal;text-anchor:end;" transform="rotate(-0, 26.703125, 322.642969)" x="26.703125" y="322.642969">0.0</text>
     </g>
    </g>
    <g id="ytick_2">
     <g id="line2d_7">
      <g>
       <use style="stroke:#000000;stroke-width:0.8;" x="33.703125" xlink:href="#m47780b8a1c" y="269.164195"/>
      </g>
     </g>
     <g id="text_8">
      <text style="font-family:DejaVu Sans;font-size:10px;font-style:normal;font-weight:normal;text-anchor:end;" transform="rotate(-0, 26.703125, 272.963414)" x="26.703125" y="272.963414">0.2</text>
     </g>
    </g>
    <g id="ytick_3">
     <g id="line2d_8">
      <g>
       <use style="stroke:#000000;stroke-width:0.8;" x="33.703125" xlink:href="#m47780b8a1c" y="219.484641"/>
      </g>
     </g>
     <g id="text_9">
      <text style="font-family:DejaVu Sans;font-size:10px;font-style:normal;font-weight:normal;text-anchor:end;" transform="rotate(-0, 26.703125, 223.28386)" x="26.703125" y="223.28386">0.4</text>
     </g>
    </g>
    <g id="ytick_4">
     <g id="line2d_9">
      <g>
       <use style="stroke:#000000;stroke-width:0.8;" x="33.703125" xlink:href="#m47780b8a1c" y="169.805086"/>
      </g>
     </g>
     <g id="text_10">
      <text style="font-family:DejaVu Sans;font-size:10px;font-style:normal;font-weight:normal;text-anchor:end;" transform="rotate(-0, 26.703125, 173.604305)" x="26.703125" y="173.604305">0.6</text>
     </g>
    </g>
    <g id="ytick_5">
     <g id="line2d_10">
      <g>
       <use style="stroke:#000000;stroke-width:0.8;" x="33.703125" xlink:href="#m47780b8a1c" y="120.125532"/>
      </g>
     </g>
     <g id="text_11">
      <text style="font-family:DejaVu Sans;font-size:10px;font-style:normal;font-weight:normal;text-anchor:end;" transform="rotate(-0, 26.703125, 123.924751)" x="26.703125" y="123.924751">0.8</text>
     </g>
    </g>
    <g id="ytick_6">
     <g id="line2d_11">
      <g>
       <use style="stroke:#000000;stroke-width:0.8;" x="33.703125" xlink:href="#m47780b8a1c" y="70.445977"/>
      </g>
     </g>
     <g id="text_12">
      <text style="font-family:DejaVu Sans;font-size:10px;font-style:normal;font-weight:normal;text-anchor:end;" transform="rotate(-0, 26.703125, 74.245196)" x="26.703125" y="74.245196">1.0</text>
     </g>
    </g>
    <g id="ytick_7">
     <g id="line2d_12">
      <g>
       <use style="stroke:#000000;stroke-width:0.8;" x="33.703125" xlink:href="#m47780b8a1c" y="20.766423"/>
      </g>
     </g>
     <g id="text_13">
      <text style="font-family:DejaVu Sans;font-size:10px;font-style:normal;font-weight:normal;text-anchor:end;" transform="rotate(-0, 26.703125, 24.565642)" x="26.703125" y="24.565642">1.2</text>
     </g>
    </g>
   </g>
   <g id="patch_6">
    <path d="M 33.703125 318.84375 
L 33.703125 10.8 
" style="fill:none;stroke:#000000;stroke-linecap:square;stroke-linejoin:miter;stroke-width:0.8;"/>
   </g>
   <g id="patch_7">
    <path d="M 349.2 318.84375 
L 349.2 10.8 
" style="fill:none;stroke:#000000;stroke-linecap:square;stroke-linejoin:miter;stroke-width:0.8;"/>
   </g>
   <g id="patch_8">
    <path d="M 33.703125 318.84375 
L 349.2 318.84375 
" style="fill:none;stroke:#000000;stroke-linecap:square;stroke-linejoin:miter;stroke-width:0.8;"/>
   </g>
   <g id="patch_9">
    <path d="M 33.703125 10.8 
L 349.2 10.8 
" style="fill:none;stroke:#000000;stroke-linecap:square;stroke-linejoin:miter;stroke-width:0.8;"/>
   </g>
   <g id="legend_1">
    <g id="patch_10">
     <path d="M 222.540625 62.834375 
L 342.2 62.834375 
Q 344.2 62.834375 344.2 60.834375 
L 344.2 17.8 
Q 344.2 15.8 342.2 15.8 
L 222.540625 15.8 
Q 220.540625 15.8 220.540625 17.8 
L 220.540625 60.834375 
Q 220.540625 62.834375 222.540625 62.834375 
z
" style="fill:#ffffff;opacity:0.8;stroke:#cccccc;stroke-linejoin:miter;"/>
    </g>
    <g id="patch_11">
     <path d="M 224.540625 27.398438 
L 244.540625 27.398438 
L 244.540625 20.398438 
L 224.540625 20.398438 
z
" style="fill:none;stroke:#6b97ff;stroke-linejoin:miter;stroke-width:2;"/>
    </g>
    <g id="text_14">
     <text style="font-family:DejaVu Sans;font-size:10px;font-style:normal;font-weight:normal;text-anchor:start;" transform="rotate(-0, 252.540625, 27.398438)" x="252.540625" y="27.398438">Microglia</text>
    </g>
    <g id="patch_12">
     <path d="M 224.540625 42.076563 
L 244.540625 42.076563 
L 244.540625 35.076563 
L 224.540625 35.076563 
z
" style="fill:none;stroke:#ff6b97;stroke-linejoin:miter;stroke-width:2;"/>
    </g>
    <g id="text_15">
     <text style="font-family:DejaVu Sans;font-size:10px;font-style:normal;font-weight:normal;text-anchor:start;" transform="rotate(-0, 252.540625, 42.076563)" x="252.540625" y="42.076563">CD14+ Monocyte</text>
    </g>
    <g id="patch_13">
     <path d="M 224.540625 56.754688 
L 244.540625 56.754688 
L 244.540625 49.754688 
L 224.540625 49.754688 
z
" style="fill:none;stroke:#97ff6b;stroke-linejoin:miter;stroke-width:2;"/>
    </g>
    <g id="text_16">
     <text style="font-family:DejaVu Sans;font-size:10px;font-style:normal;font-weight:normal;text-anchor:start;" transform="rotate(-0, 252.540625, 56.754688)" x="252.540625" y="56.754688">Neuron</text>
    </g>
   </g>
  </g>
 </g>
 <defs>
  <clipPath id="p2d68b3b381">
   <rect height="308.04375" width="315.496875" x="33.703125" y="10.8"/>
  </clipPath>
 </defs>
</svg>
