<?xml version="1.0" encoding="utf-8" standalone="no"?>
<!DOCTYPE svg PUBLIC "-//W3C//DTD SVG 1.1//EN"
  "http://www.w3.org/Graphics/SVG/1.1/DTD/svg11.dtd">
<!-- Created with matplotlib (https://matplotlib.org/) -->
<svg height="576pt" version="1.1" viewBox="0 0 576 576" width="576pt" xmlns="http://www.w3.org/2000/svg" xmlns:xlink="http://www.w3.org/1999/xlink">
 <metadata>
  <rdf:RDF xmlns:cc="http://creativecommons.org/ns#" xmlns:dc="http://purl.org/dc/elements/1.1/" xmlns:rdf="http://www.w3.org/1999/02/22-rdf-syntax-ns#">
   <cc:Work>
    <dc:type rdf:resource="http://purl.org/dc/dcmitype/StillImage"/>
    <dc:date>2022-03-30T23:05:23.289843</dc:date>
    <dc:format>image/svg+xml</dc:format>
    <dc:creator>
     <cc:Agent>
      <dc:title>Matplotlib v3.3.4, https://matplotlib.org/</dc:title>
     </cc:Agent>
    </dc:creator>
   </cc:Work>
  </rdf:RDF>
 </metadata>
 <defs>
  <style type="text/css">*{stroke-linecap:butt;stroke-linejoin:round;}</style>
 </defs>
 <g id="figure_1">
  <g id="patch_1">
   <path d="M 0 576 
L 576 576 
L 576 0 
L 0 0 
z
" style="fill:none;"/>
  </g>
  <g id="axes_1">
   <g id="patch_2">
    <path d="M 81.996875 504.13125 
L 517.696534 504.13125 
L 517.696534 21.6 
L 81.996875 21.6 
z
" style="fill:#ffffff;"/>
   </g>
   <g id="PathCollection_1">
    <path clip-path="url(#p724ce1892f)" d="M 258.554846 353.182277 
L 260.322613 351.41451 
L 262.09038 353.182277 
L 263.858147 351.41451 
L 262.09038 349.646743 
L 263.858147 347.878976 
L 262.09038 346.111209 
L 260.322613 347.878976 
L 258.554846 346.111209 
L 256.787079 347.878976 
L 258.554846 349.646743 
L 256.787079 351.41451 
z
" style="fill:#1f77b4;stroke:#ffffff;stroke-width:0.565685;"/>
    <path clip-path="url(#p724ce1892f)" d="M 299.251038 344.22572 
L 301.018805 342.457953 
L 302.786572 344.22572 
L 304.554339 342.457953 
L 302.786572 340.690186 
L 304.554339 338.922419 
L 302.786572 337.154652 
L 301.018805 338.922419 
L 299.251038 337.154652 
L 297.483271 338.922419 
L 299.251038 340.690186 
L 297.483271 342.457953 
z
" style="fill:#1f77b4;stroke:#ffffff;stroke-width:0.565685;"/>
    <path clip-path="url(#p724ce1892f)" d="M 325.820902 399.768896 
L 327.588669 398.001129 
L 329.356436 399.768896 
L 331.124203 398.001129 
L 329.356436 396.233362 
L 331.124203 394.465595 
L 329.356436 392.697828 
L 327.588669 394.465595 
L 325.820902 392.697828 
L 324.053135 394.465595 
L 325.820902 396.233362 
L 324.053135 398.001129 
z
" style="fill:#1f77b4;stroke:#ffffff;stroke-width:0.565685;"/>
    <path clip-path="url(#p724ce1892f)" d="M 297.740592 347.810323 
L 299.508359 346.042556 
L 301.276125 347.810323 
L 303.043892 346.042556 
L 301.276125 344.274789 
L 303.043892 342.507022 
L 301.276125 340.739255 
L 299.508359 342.507022 
L 297.740592 340.739255 
L 295.972825 342.507022 
L 297.740592 344.274789 
L 295.972825 346.042556 
z
" style="fill:#1f77b4;stroke:#ffffff;stroke-width:0.565685;"/>
    <path clip-path="url(#p724ce1892f)" d="M 347.982585 356.97481 
L 349.750352 355.207043 
L 351.518119 356.97481 
L 353.285886 355.207043 
L 351.518119 353.439276 
L 353.285886 351.671509 
L 351.518119 349.903742 
L 349.750352 351.671509 
L 347.982585 349.903742 
L 346.214818 351.671509 
L 347.982585 353.439276 
L 346.214818 355.207043 
z
" style="fill:#1f77b4;stroke:#ffffff;stroke-width:0.565685;"/>
    <path clip-path="url(#p724ce1892f)" d="M 496.124237 47.068773 
L 497.892004 45.301006 
L 499.659771 47.068773 
L 501.427538 45.301006 
L 499.659771 43.533239 
L 501.427538 41.765472 
L 499.659771 39.997705 
L 497.892004 41.765472 
L 496.124237 39.997705 
L 494.35647 41.765472 
L 496.124237 43.533239 
L 494.35647 45.301006 
z
" style="fill:#1f77b4;stroke:#ffffff;stroke-width:0.565685;"/>
    <path clip-path="url(#p724ce1892f)" d="M 262.24184 396.729901 
L 264.009607 394.962134 
L 265.777374 396.729901 
L 267.545141 394.962134 
L 265.777374 393.194367 
L 267.545141 391.4266 
L 265.777374 389.658833 
L 264.009607 391.4266 
L 262.24184 389.658833 
L 260.474073 391.4266 
L 262.24184 393.194367 
L 260.474073 394.962134 
z
" style="fill:#1f77b4;stroke:#ffffff;stroke-width:0.565685;"/>
    <path clip-path="url(#p724ce1892f)" d="M 301.02113 346.986873 
L 302.788897 345.219107 
L 304.556664 346.986873 
L 306.324431 345.219107 
L 304.556664 343.45134 
L 306.324431 341.683573 
L 304.556664 339.915806 
L 302.788897 341.683573 
L 301.02113 339.915806 
L 299.253363 341.683573 
L 301.02113 343.45134 
L 299.253363 345.219107 
z
" style="fill:#1f77b4;stroke:#ffffff;stroke-width:0.565685;"/>
    <path clip-path="url(#p724ce1892f)" d="M 295.126423 343.384985 
C 296.064058 343.384985 296.963416 343.012459 297.626423 342.349451 
C 298.289431 341.686444 298.661957 340.787086 298.661957 339.849451 
C 298.661957 338.911817 298.289431 338.012459 297.626423 337.349451 
C 296.963416 336.686444 296.064058 336.313918 295.126423 336.313918 
C 294.188789 336.313918 293.289431 336.686444 292.626423 337.349451 
C 291.963416 338.012459 291.59089 338.911817 291.59089 339.849451 
C 291.59089 340.787086 291.963416 341.686444 292.626423 342.349451 
C 293.289431 343.012459 294.188789 343.384985 295.126423 343.384985 
z
" style="fill:#1f77b4;stroke:#ffffff;stroke-width:0.565685;"/>
    <path clip-path="url(#p724ce1892f)" d="M 213.331005 437.992884 
L 213.331005 442.992884 
L 218.331005 442.992884 
L 218.331005 437.992884 
z
" style="fill:#1f77b4;stroke:#ffffff;stroke-width:0.565685;"/>
    <path clip-path="url(#p724ce1892f)" d="M 298.06979 326.869777 
L 299.837557 325.10201 
L 301.605324 326.869777 
L 303.373091 325.10201 
L 301.605324 323.334243 
L 303.373091 321.566476 
L 301.605324 319.798709 
L 299.837557 321.566476 
L 298.06979 319.798709 
L 296.302023 321.566476 
L 298.06979 323.334243 
L 296.302023 325.10201 
z
" style="fill:#1f77b4;stroke:#ffffff;stroke-width:0.565685;"/>
    <path clip-path="url(#p724ce1892f)" d="M 331.347371 272.338147 
L 333.115138 270.57038 
L 334.882905 272.338147 
L 336.650672 270.57038 
L 334.882905 268.802613 
L 336.650672 267.034846 
L 334.882905 265.267079 
L 333.115138 267.034846 
L 331.347371 265.267079 
L 329.579604 267.034846 
L 331.347371 268.802613 
L 329.579604 270.57038 
z
" style="fill:#1f77b4;stroke:#ffffff;stroke-width:0.565685;"/>
    <path clip-path="url(#p724ce1892f)" d="M 325.527871 340.237848 
L 327.295638 338.470082 
L 329.063405 340.237848 
L 330.831172 338.470082 
L 329.063405 336.702315 
L 330.831172 334.934548 
L 329.063405 333.166781 
L 327.295638 334.934548 
L 325.527871 333.166781 
L 323.760104 334.934548 
L 325.527871 336.702315 
L 323.760104 338.470082 
z
" style="fill:#1f77b4;stroke:#ffffff;stroke-width:0.565685;"/>
    <path clip-path="url(#p724ce1892f)" d="M 322.170044 357.941245 
L 322.170044 362.941245 
L 327.170044 362.941245 
L 327.170044 357.941245 
z
" style="fill:#1f77b4;stroke:#ffffff;stroke-width:0.565685;"/>
    <path clip-path="url(#p724ce1892f)" d="M 289.583503 328.848001 
L 291.35127 327.080234 
L 293.119037 328.848001 
L 294.886804 327.080234 
L 293.119037 325.312467 
L 294.886804 323.5447 
L 293.119037 321.776933 
L 291.35127 323.5447 
L 289.583503 321.776933 
L 287.815736 323.5447 
L 289.583503 325.312467 
L 287.815736 327.080234 
z
" style="fill:#1f77b4;stroke:#ffffff;stroke-width:0.565685;"/>
    <path clip-path="url(#p724ce1892f)" d="M 282.327065 340.112507 
L 284.094832 338.34474 
L 285.862599 340.112507 
L 287.630366 338.34474 
L 285.862599 336.576973 
L 287.630366 334.809206 
L 285.862599 333.041439 
L 284.094832 334.809206 
L 282.327065 333.041439 
L 280.559298 334.809206 
L 282.327065 336.576973 
L 280.559298 338.34474 
z
" style="fill:#1f77b4;stroke:#ffffff;stroke-width:0.565685;"/>
    <path clip-path="url(#p724ce1892f)" d="M 324.951712 394.60012 
L 326.719479 392.832353 
L 328.487246 394.60012 
L 330.255013 392.832353 
L 328.487246 391.064586 
L 330.255013 389.296819 
L 328.487246 387.529052 
L 326.719479 389.296819 
L 324.951712 387.529052 
L 323.183945 389.296819 
L 324.951712 391.064586 
L 323.183945 392.832353 
z
" style="fill:#1f77b4;stroke:#ffffff;stroke-width:0.565685;"/>
    <path clip-path="url(#p724ce1892f)" d="M 287.63707 360.733003 
L 289.404837 358.965236 
L 291.172604 360.733003 
L 292.940371 358.965236 
L 291.172604 357.197469 
L 292.940371 355.429702 
L 291.172604 353.661935 
L 289.404837 355.429702 
L 287.63707 353.661935 
L 285.869303 355.429702 
L 287.63707 357.197469 
L 285.869303 358.965236 
z
" style="fill:#1f77b4;stroke:#ffffff;stroke-width:0.565685;"/>
    <path clip-path="url(#p724ce1892f)" d="M 297.100153 358.430263 
L 298.86792 356.662496 
L 300.635687 358.430263 
L 302.403454 356.662496 
L 300.635687 354.894729 
L 302.403454 353.126962 
L 300.635687 351.359195 
L 298.86792 353.126962 
L 297.100153 351.359195 
L 295.332386 353.126962 
L 297.100153 354.894729 
L 295.332386 356.662496 
z
" style="fill:#1f77b4;stroke:#ffffff;stroke-width:0.565685;"/>
    <path clip-path="url(#p724ce1892f)" d="M 302.063542 351.953126 
C 303.001177 351.953126 303.900534 351.5806 304.563542 350.917592 
C 305.22655 350.254585 305.599076 349.355227 305.599076 348.417592 
C 305.599076 347.479958 305.22655 346.5806 304.563542 345.917592 
C 303.900534 345.254585 303.001177 344.882058 302.063542 344.882058 
C 301.125908 344.882058 300.22655 345.254585 299.563542 345.917592 
C 298.900534 346.5806 298.528008 347.479958 298.528008 348.417592 
C 298.528008 349.355227 298.900534 350.254585 299.563542 350.917592 
C 300.22655 351.5806 301.125908 351.953126 302.063542 351.953126 
z
" style="fill:#1f77b4;stroke:#ffffff;stroke-width:0.565685;"/>
    <path clip-path="url(#p724ce1892f)" d="M 292.62319 374.140337 
C 293.560825 374.140337 294.460182 373.767811 295.12319 373.104803 
C 295.786198 372.441795 296.158724 371.542438 296.158724 370.604803 
C 296.158724 369.667169 295.786198 368.767811 295.12319 368.104803 
C 294.460182 367.441795 293.560825 367.069269 292.62319 367.069269 
C 291.685555 367.069269 290.786198 367.441795 290.12319 368.104803 
C 289.460182 368.767811 289.087656 369.667169 289.087656 370.604803 
C 289.087656 371.542438 289.460182 372.441795 290.12319 373.104803 
C 290.786198 373.767811 291.685555 374.140337 292.62319 374.140337 
z
" style="fill:#1f77b4;stroke:#ffffff;stroke-width:0.565685;"/>
    <path clip-path="url(#p724ce1892f)" d="M 316.553205 300.294601 
C 317.49084 300.294601 318.390198 299.922075 319.053205 299.259067 
C 319.716213 298.596059 320.088739 297.696702 320.088739 296.759067 
C 320.088739 295.821433 319.716213 294.922075 319.053205 294.259067 
C 318.390198 293.596059 317.49084 293.223533 316.553205 293.223533 
C 315.615571 293.223533 314.716213 293.596059 314.053205 294.259067 
C 313.390198 294.922075 313.017671 295.821433 313.017671 296.759067 
C 313.017671 297.696702 313.390198 298.596059 314.053205 299.259067 
C 314.716213 299.922075 315.615571 300.294601 316.553205 300.294601 
z
" style="fill:#1f77b4;stroke:#ffffff;stroke-width:0.565685;"/>
    <path clip-path="url(#p724ce1892f)" d="M 304.952152 485.733545 
C 305.889786 485.733545 306.789144 485.361019 307.452152 484.698011 
C 308.11516 484.035004 308.487686 483.135646 308.487686 482.198011 
C 308.487686 481.260377 308.11516 480.361019 307.452152 479.698011 
C 306.789144 479.035004 305.889786 478.662477 304.952152 478.662477 
C 304.014517 478.662477 303.11516 479.035004 302.452152 479.698011 
C 301.789144 480.361019 301.416618 481.260377 301.416618 482.198011 
C 301.416618 483.135646 301.789144 484.035004 302.452152 484.698011 
C 303.11516 485.361019 304.014517 485.733545 304.952152 485.733545 
z
" style="fill:#1f77b4;stroke:#ffffff;stroke-width:0.565685;"/>
    <path clip-path="url(#p724ce1892f)" d="M 283.739933 353.494487 
L 285.5077 351.72672 
L 287.275467 353.494487 
L 289.043234 351.72672 
L 287.275467 349.958953 
L 289.043234 348.191186 
L 287.275467 346.423419 
L 285.5077 348.191186 
L 283.739933 346.423419 
L 281.972166 348.191186 
L 283.739933 349.958953 
L 281.972166 351.72672 
z
" style="fill:#1f77b4;stroke:#ffffff;stroke-width:0.565685;"/>
    <path clip-path="url(#p724ce1892f)" d="M 291.394976 355.022769 
L 293.162743 353.255002 
L 294.93051 355.022769 
L 296.698277 353.255002 
L 294.93051 351.487235 
L 296.698277 349.719468 
L 294.93051 347.951701 
L 293.162743 349.719468 
L 291.394976 347.951701 
L 289.627209 349.719468 
L 291.394976 351.487235 
L 289.627209 353.255002 
z
" style="fill:#1f77b4;stroke:#ffffff;stroke-width:0.565685;"/>
    <path clip-path="url(#p724ce1892f)" d="M 284.180609 353.245463 
L 285.948376 351.477696 
L 287.716143 353.245463 
L 289.48391 351.477696 
L 287.716143 349.709929 
L 289.48391 347.942162 
L 287.716143 346.174395 
L 285.948376 347.942162 
L 284.180609 346.174395 
L 282.412842 347.942162 
L 284.180609 349.709929 
L 282.412842 351.477696 
z
" style="fill:#1f77b4;stroke:#ffffff;stroke-width:0.565685;"/>
    <path clip-path="url(#p724ce1892f)" d="M 407.322583 368.402259 
L 409.09035 366.634492 
L 410.858117 368.402259 
L 412.625884 366.634492 
L 410.858117 364.866725 
L 412.625884 363.098958 
L 410.858117 361.331191 
L 409.09035 363.098958 
L 407.322583 361.331191 
L 405.554816 363.098958 
L 407.322583 364.866725 
L 405.554816 366.634492 
z
" style="fill:#1f77b4;stroke:#ffffff;stroke-width:0.565685;"/>
    <path clip-path="url(#p724ce1892f)" d="M 291.323476 352.849635 
L 293.091243 351.081868 
L 294.85901 352.849635 
L 296.626777 351.081868 
L 294.85901 349.314101 
L 296.626777 347.546334 
L 294.85901 345.778567 
L 293.091243 347.546334 
L 291.323476 345.778567 
L 289.555709 347.546334 
L 291.323476 349.314101 
L 289.555709 351.081868 
z
" style="fill:#1f77b4;stroke:#ffffff;stroke-width:0.565685;"/>
    <path clip-path="url(#p724ce1892f)" d="M 297.55931 323.156797 
L 299.327077 321.38903 
L 301.094844 323.156797 
L 302.862611 321.38903 
L 301.094844 319.621263 
L 302.862611 317.853496 
L 301.094844 316.085729 
L 299.327077 317.853496 
L 297.55931 316.085729 
L 295.791544 317.853496 
L 297.55931 319.621263 
L 295.791544 321.38903 
z
" style="fill:#1f77b4;stroke:#ffffff;stroke-width:0.565685;"/>
    <path clip-path="url(#p724ce1892f)" d="M 297.014316 356.856393 
L 298.782083 355.088626 
L 300.54985 356.856393 
L 302.317617 355.088626 
L 300.54985 353.320859 
L 302.317617 351.553092 
L 300.54985 349.785326 
L 298.782083 351.553092 
L 297.014316 349.785326 
L 295.246549 351.553092 
L 297.014316 353.320859 
L 295.246549 355.088626 
z
" style="fill:#1f77b4;stroke:#ffffff;stroke-width:0.565685;"/>
    <path clip-path="url(#p724ce1892f)" d="M 286.626513 359.86059 
L 288.39428 358.092823 
L 290.162047 359.86059 
L 291.929814 358.092823 
L 290.162047 356.325056 
L 291.929814 354.557289 
L 290.162047 352.789522 
L 288.39428 354.557289 
L 286.626513 352.789522 
L 284.858746 354.557289 
L 286.626513 356.325056 
L 284.858746 358.092823 
z
" style="fill:#1f77b4;stroke:#ffffff;stroke-width:0.565685;"/>
    <path clip-path="url(#p724ce1892f)" d="M 262.278888 389.144264 
L 264.046655 387.376497 
L 265.814422 389.144264 
L 267.582189 387.376497 
L 265.814422 385.60873 
L 267.582189 383.840963 
L 265.814422 382.073196 
L 264.046655 383.840963 
L 262.278888 382.073196 
L 260.511121 383.840963 
L 262.278888 385.60873 
L 260.511121 387.376497 
z
" style="fill:#1f77b4;stroke:#ffffff;stroke-width:0.565685;"/>
    <path clip-path="url(#p724ce1892f)" d="M 418.938353 252.069696 
L 420.70612 250.301929 
L 422.473887 252.069696 
L 424.241654 250.301929 
L 422.473887 248.534162 
L 424.241654 246.766395 
L 422.473887 244.998628 
L 420.70612 246.766395 
L 418.938353 244.998628 
L 417.170586 246.766395 
L 418.938353 248.534162 
L 417.170586 250.301929 
z
" style="fill:#1f77b4;stroke:#ffffff;stroke-width:0.565685;"/>
    <path clip-path="url(#p724ce1892f)" d="M 296.143228 340.162688 
L 296.143228 345.162688 
L 301.143228 345.162688 
L 301.143228 340.162688 
z
" style="fill:#1f77b4;stroke:#ffffff;stroke-width:0.565685;"/>
    <path clip-path="url(#p724ce1892f)" d="M 284.089978 356.020352 
L 285.857745 354.252585 
L 287.625512 356.020352 
L 289.393279 354.252585 
L 287.625512 352.484818 
L 289.393279 350.717051 
L 287.625512 348.949285 
L 285.857745 350.717051 
L 284.089978 348.949285 
L 282.322211 350.717051 
L 284.089978 352.484818 
L 282.322211 354.252585 
z
" style="fill:#1f77b4;stroke:#ffffff;stroke-width:0.565685;"/>
    <path clip-path="url(#p724ce1892f)" d="M 368.831532 347.327929 
L 370.599299 345.560162 
L 372.367066 347.327929 
L 374.134833 345.560162 
L 372.367066 343.792395 
L 374.134833 342.024628 
L 372.367066 340.256861 
L 370.599299 342.024628 
L 368.831532 340.256861 
L 367.063765 342.024628 
L 368.831532 343.792395 
L 367.063765 345.560162 
z
" style="fill:#1f77b4;stroke:#ffffff;stroke-width:0.565685;"/>
    <path clip-path="url(#p724ce1892f)" d="M 290.752402 343.840194 
L 292.520169 342.072427 
L 294.287936 343.840194 
L 296.055703 342.072427 
L 294.287936 340.30466 
L 296.055703 338.536893 
L 294.287936 336.769126 
L 292.520169 338.536893 
L 290.752402 336.769126 
L 288.984635 338.536893 
L 290.752402 340.30466 
L 288.984635 342.072427 
z
" style="fill:#1f77b4;stroke:#ffffff;stroke-width:0.565685;"/>
    <path clip-path="url(#p724ce1892f)" d="M 307.543716 291.406497 
L 309.311483 289.63873 
L 311.07925 291.406497 
L 312.847017 289.63873 
L 311.07925 287.870963 
L 312.847017 286.103196 
L 311.07925 284.335429 
L 309.311483 286.103196 
L 307.543716 284.335429 
L 305.775949 286.103196 
L 307.543716 287.870963 
L 305.775949 289.63873 
z
" style="fill:#1f77b4;stroke:#ffffff;stroke-width:0.565685;"/>
    <path clip-path="url(#p724ce1892f)" d="M 342.963894 273.023753 
L 344.731661 271.255986 
L 346.499428 273.023753 
L 348.267195 271.255986 
L 346.499428 269.488219 
L 348.267195 267.720452 
L 346.499428 265.952685 
L 344.731661 267.720452 
L 342.963894 265.952685 
L 341.196127 267.720452 
L 342.963894 269.488219 
L 341.196127 271.255986 
z
" style="fill:#1f77b4;stroke:#ffffff;stroke-width:0.565685;"/>
    <path clip-path="url(#p724ce1892f)" d="M 325.805496 333.913927 
L 327.573263 332.14616 
L 329.34103 333.913927 
L 331.108797 332.14616 
L 329.34103 330.378394 
L 331.108797 328.610627 
L 329.34103 326.84286 
L 327.573263 328.610627 
L 325.805496 326.84286 
L 324.037729 328.610627 
L 325.805496 330.378394 
L 324.037729 332.14616 
z
" style="fill:#1f77b4;stroke:#ffffff;stroke-width:0.565685;"/>
    <path clip-path="url(#p724ce1892f)" d="M 293.731391 341.256665 
L 295.499158 339.488898 
L 297.266925 341.256665 
L 299.034692 339.488898 
L 297.266925 337.721131 
L 299.034692 335.953364 
L 297.266925 334.185597 
L 295.499158 335.953364 
L 293.731391 334.185597 
L 291.963624 335.953364 
L 293.731391 337.721131 
L 291.963624 339.488898 
z
" style="fill:#1f77b4;stroke:#ffffff;stroke-width:0.565685;"/>
    <path clip-path="url(#p724ce1892f)" d="M 298.643628 373.810213 
L 300.411395 372.042446 
L 302.179162 373.810213 
L 303.946929 372.042446 
L 302.179162 370.274679 
L 303.946929 368.506912 
L 302.179162 366.739145 
L 300.411395 368.506912 
L 298.643628 366.739145 
L 296.875861 368.506912 
L 298.643628 370.274679 
L 296.875861 372.042446 
z
" style="fill:#1f77b4;stroke:#ffffff;stroke-width:0.565685;"/>
    <path clip-path="url(#p724ce1892f)" d="M 277.491185 350.671721 
L 279.258952 348.903954 
L 281.026719 350.671721 
L 282.794486 348.903954 
L 281.026719 347.136187 
L 282.794486 345.36842 
L 281.026719 343.600653 
L 279.258952 345.36842 
L 277.491185 343.600653 
L 275.723418 345.36842 
L 277.491185 347.136187 
L 275.723418 348.903954 
z
" style="fill:#1f77b4;stroke:#ffffff;stroke-width:0.565685;"/>
    <path clip-path="url(#p724ce1892f)" d="M 321.346126 338.580176 
L 321.346126 343.580176 
L 326.346126 343.580176 
L 326.346126 338.580176 
z
" style="fill:#1f77b4;stroke:#ffffff;stroke-width:0.565685;"/>
    <path clip-path="url(#p724ce1892f)" d="M 297.833992 346.99536 
L 297.833992 351.99536 
L 302.833992 351.99536 
L 302.833992 346.99536 
z
" style="fill:#1f77b4;stroke:#ffffff;stroke-width:0.565685;"/>
    <path clip-path="url(#p724ce1892f)" d="M 280.092373 445.487624 
L 281.86014 443.719857 
L 283.627907 445.487624 
L 285.395674 443.719857 
L 283.627907 441.95209 
L 285.395674 440.184323 
L 283.627907 438.416556 
L 281.86014 440.184323 
L 280.092373 438.416556 
L 278.324606 440.184323 
L 280.092373 441.95209 
L 278.324606 443.719857 
z
" style="fill:#1f77b4;stroke:#ffffff;stroke-width:0.565685;"/>
    <path clip-path="url(#p724ce1892f)" d="M 290.577839 359.388126 
L 292.345606 357.620359 
L 294.113373 359.388126 
L 295.88114 357.620359 
L 294.113373 355.852592 
L 295.88114 354.084825 
L 294.113373 352.317058 
L 292.345606 354.084825 
L 290.577839 352.317058 
L 288.810073 354.084825 
L 290.577839 355.852592 
L 288.810073 357.620359 
z
" style="fill:#1f77b4;stroke:#ffffff;stroke-width:0.565685;"/>
    <path clip-path="url(#p724ce1892f)" d="M 318.984377 303.871563 
L 320.752143 302.103796 
L 322.51991 303.871563 
L 324.287677 302.103796 
L 322.51991 300.336029 
L 324.287677 298.568262 
L 322.51991 296.800495 
L 320.752143 298.568262 
L 318.984377 296.800495 
L 317.21661 298.568262 
L 318.984377 300.336029 
L 317.21661 302.103796 
z
" style="fill:#1f77b4;stroke:#ffffff;stroke-width:0.565685;"/>
    <path clip-path="url(#p724ce1892f)" d="M 278.272864 421.490909 
L 280.040631 419.723142 
L 281.808398 421.490909 
L 283.576165 419.723142 
L 281.808398 417.955375 
L 283.576165 416.187608 
L 281.808398 414.419841 
L 280.040631 416.187608 
L 278.272864 414.419841 
L 276.505097 416.187608 
L 278.272864 417.955375 
L 276.505097 419.723142 
z
" style="fill:#1f77b4;stroke:#ffffff;stroke-width:0.565685;"/>
    <path clip-path="url(#p724ce1892f)" d="M 283.293815 257.396097 
L 285.061582 255.62833 
L 286.829349 257.396097 
L 288.597116 255.62833 
L 286.829349 253.860563 
L 288.597116 252.092796 
L 286.829349 250.325029 
L 285.061582 252.092796 
L 283.293815 250.325029 
L 281.526048 252.092796 
L 283.293815 253.860563 
L 281.526048 255.62833 
z
" style="fill:#1f77b4;stroke:#ffffff;stroke-width:0.565685;"/>
    <path clip-path="url(#p724ce1892f)" d="M 302.134583 339.165289 
L 303.90235 337.397522 
L 305.670117 339.165289 
L 307.437884 337.397522 
L 305.670117 335.629755 
L 307.437884 333.861988 
L 305.670117 332.094221 
L 303.90235 333.861988 
L 302.134583 332.094221 
L 300.366816 333.861988 
L 302.134583 335.629755 
L 300.366816 337.397522 
z
" style="fill:#1f77b4;stroke:#ffffff;stroke-width:0.565685;"/>
    <path clip-path="url(#p724ce1892f)" d="M 289.576848 315.894417 
L 291.344615 314.12665 
L 293.112382 315.894417 
L 294.880149 314.12665 
L 293.112382 312.358883 
L 294.880149 310.591116 
L 293.112382 308.823349 
L 291.344615 310.591116 
L 289.576848 308.823349 
L 287.809081 310.591116 
L 289.576848 312.358883 
L 287.809081 314.12665 
z
" style="fill:#1f77b4;stroke:#ffffff;stroke-width:0.565685;"/>
    <path clip-path="url(#p724ce1892f)" d="M 264.507635 349.817966 
L 266.275402 348.050199 
L 268.043169 349.817966 
L 269.810936 348.050199 
L 268.043169 346.282432 
L 269.810936 344.514665 
L 268.043169 342.746898 
L 266.275402 344.514665 
L 264.507635 342.746898 
L 262.739868 344.514665 
L 264.507635 346.282432 
L 262.739868 348.050199 
z
" style="fill:#1f77b4;stroke:#ffffff;stroke-width:0.565685;"/>
    <path clip-path="url(#p724ce1892f)" d="M 297.210458 344.584518 
L 298.978225 342.816751 
L 300.745992 344.584518 
L 302.513759 342.816751 
L 300.745992 341.048984 
L 302.513759 339.281217 
L 300.745992 337.51345 
L 298.978225 339.281217 
L 297.210458 337.51345 
L 295.442691 339.281217 
L 297.210458 341.048984 
L 295.442691 342.816751 
z
" style="fill:#1f77b4;stroke:#ffffff;stroke-width:0.565685;"/>
    <path clip-path="url(#p724ce1892f)" d="M 309.333168 329.764657 
L 311.100935 327.99689 
L 312.868702 329.764657 
L 314.636469 327.99689 
L 312.868702 326.229123 
L 314.636469 324.461356 
L 312.868702 322.693589 
L 311.100935 324.461356 
L 309.333168 322.693589 
L 307.565401 324.461356 
L 309.333168 326.229123 
L 307.565401 327.99689 
z
" style="fill:#1f77b4;stroke:#ffffff;stroke-width:0.565685;"/>
    <path clip-path="url(#p724ce1892f)" d="M 307.34705 415.979308 
L 309.114817 414.211541 
L 310.882584 415.979308 
L 312.650351 414.211541 
L 310.882584 412.443774 
L 312.650351 410.676008 
L 310.882584 408.908241 
L 309.114817 410.676008 
L 307.34705 408.908241 
L 305.579283 410.676008 
L 307.34705 412.443774 
L 305.579283 414.211541 
z
" style="fill:#1f77b4;stroke:#ffffff;stroke-width:0.565685;"/>
    <path clip-path="url(#p724ce1892f)" d="M 289.967394 347.85797 
L 291.735161 346.090203 
L 293.502928 347.85797 
L 295.270695 346.090203 
L 293.502928 344.322436 
L 295.270695 342.554669 
L 293.502928 340.786902 
L 291.735161 342.554669 
L 289.967394 340.786902 
L 288.199627 342.554669 
L 289.967394 344.322436 
L 288.199627 346.090203 
z
" style="fill:#1f77b4;stroke:#ffffff;stroke-width:0.565685;"/>
    <path clip-path="url(#p724ce1892f)" d="M 295.256928 348.658927 
L 297.024695 346.89116 
L 298.792462 348.658927 
L 300.560229 346.89116 
L 298.792462 345.123393 
L 300.560229 343.355626 
L 298.792462 341.587859 
L 297.024695 343.355626 
L 295.256928 341.587859 
L 293.489162 343.355626 
L 295.256928 345.123393 
L 293.489162 346.89116 
z
" style="fill:#1f77b4;stroke:#ffffff;stroke-width:0.565685;"/>
    <path clip-path="url(#p724ce1892f)" d="M 290.089295 356.825773 
L 291.857062 355.058006 
L 293.624829 356.825773 
L 295.392596 355.058006 
L 293.624829 353.290239 
L 295.392596 351.522472 
L 293.624829 349.754705 
L 291.857062 351.522472 
L 290.089295 349.754705 
L 288.321528 351.522472 
L 290.089295 353.290239 
L 288.321528 355.058006 
z
" style="fill:#1f77b4;stroke:#ffffff;stroke-width:0.565685;"/>
    <path clip-path="url(#p724ce1892f)" d="M 287.946196 344.452881 
L 289.713963 342.685114 
L 291.48173 344.452881 
L 293.249497 342.685114 
L 291.48173 340.917347 
L 293.249497 339.14958 
L 291.48173 337.381813 
L 289.713963 339.14958 
L 287.946196 337.381813 
L 286.178429 339.14958 
L 287.946196 340.917347 
L 286.178429 342.685114 
z
" style="fill:#1f77b4;stroke:#ffffff;stroke-width:0.565685;"/>
    <path clip-path="url(#p724ce1892f)" d="M 286.549529 344.040598 
L 288.317296 342.272831 
L 290.085063 344.040598 
L 291.85283 342.272831 
L 290.085063 340.505064 
L 291.85283 338.737297 
L 290.085063 336.96953 
L 288.317296 338.737297 
L 286.549529 336.96953 
L 284.781762 338.737297 
L 286.549529 340.505064 
L 284.781762 342.272831 
z
" style="fill:#1f77b4;stroke:#ffffff;stroke-width:0.565685;"/>
    <path clip-path="url(#p724ce1892f)" d="M 300.100073 346.946008 
L 301.867839 345.178242 
L 303.635606 346.946008 
L 305.403373 345.178242 
L 303.635606 343.410475 
L 305.403373 341.642708 
L 303.635606 339.874941 
L 301.867839 341.642708 
L 300.100073 339.874941 
L 298.332306 341.642708 
L 300.100073 343.410475 
L 298.332306 345.178242 
z
" style="fill:#1f77b4;stroke:#ffffff;stroke-width:0.565685;"/>
    <path clip-path="url(#p724ce1892f)" d="M 308.35788 274.001076 
L 310.125647 272.233309 
L 311.893414 274.001076 
L 313.661181 272.233309 
L 311.893414 270.465543 
L 313.661181 268.697776 
L 311.893414 266.930009 
L 310.125647 268.697776 
L 308.35788 266.930009 
L 306.590113 268.697776 
L 308.35788 270.465543 
L 306.590113 272.233309 
z
" style="fill:#1f77b4;stroke:#ffffff;stroke-width:0.565685;"/>
    <path clip-path="url(#p724ce1892f)" d="M 289.945145 355.409297 
L 291.712912 353.64153 
L 293.480679 355.409297 
L 295.248446 353.64153 
L 293.480679 351.873763 
L 295.248446 350.105996 
L 293.480679 348.338229 
L 291.712912 350.105996 
L 289.945145 348.338229 
L 288.177378 350.105996 
L 289.945145 351.873763 
L 288.177378 353.64153 
z
" style="fill:#1f77b4;stroke:#ffffff;stroke-width:0.565685;"/>
    <path clip-path="url(#p724ce1892f)" d="M 325.152835 314.627633 
L 326.920602 312.859867 
L 328.688369 314.627633 
L 330.456136 312.859867 
L 328.688369 311.0921 
L 330.456136 309.324333 
L 328.688369 307.556566 
L 326.920602 309.324333 
L 325.152835 307.556566 
L 323.385068 309.324333 
L 325.152835 311.0921 
L 323.385068 312.859867 
z
" style="fill:#1f77b4;stroke:#ffffff;stroke-width:0.565685;"/>
    <path clip-path="url(#p724ce1892f)" d="M 399.499464 308.453892 
L 401.267231 306.686125 
L 403.034998 308.453892 
L 404.802765 306.686125 
L 403.034998 304.918358 
L 404.802765 303.150591 
L 403.034998 301.382824 
L 401.267231 303.150591 
L 399.499464 301.382824 
L 397.731698 303.150591 
L 399.499464 304.918358 
L 397.731698 306.686125 
z
" style="fill:#1f77b4;stroke:#ffffff;stroke-width:0.565685;"/>
    <path clip-path="url(#p724ce1892f)" d="M 291.073228 353.447612 
L 292.840995 351.679845 
L 294.608762 353.447612 
L 296.376529 351.679845 
L 294.608762 349.912078 
L 296.376529 348.144311 
L 294.608762 346.376544 
L 292.840995 348.144311 
L 291.073228 346.376544 
L 289.305462 348.144311 
L 291.073228 349.912078 
L 289.305462 351.679845 
z
" style="fill:#1f77b4;stroke:#ffffff;stroke-width:0.565685;"/>
    <path clip-path="url(#p724ce1892f)" d="M 290.622297 343.175882 
L 292.390064 341.408115 
L 294.15783 343.175882 
L 295.925597 341.408115 
L 294.15783 339.640348 
L 295.925597 337.872581 
L 294.15783 336.104814 
L 292.390064 337.872581 
L 290.622297 336.104814 
L 288.85453 337.872581 
L 290.622297 339.640348 
L 288.85453 341.408115 
z
" style="fill:#1f77b4;stroke:#ffffff;stroke-width:0.565685;"/>
    <path clip-path="url(#p724ce1892f)" d="M 288.630778 355.802206 
L 290.398545 354.034439 
L 292.166312 355.802206 
L 293.934079 354.034439 
L 292.166312 352.266672 
L 293.934079 350.498905 
L 292.166312 348.731138 
L 290.398545 350.498905 
L 288.630778 348.731138 
L 286.863011 350.498905 
L 288.630778 352.266672 
L 286.863011 354.034439 
z
" style="fill:#1f77b4;stroke:#ffffff;stroke-width:0.565685;"/>
    <path clip-path="url(#p724ce1892f)" d="M 280.978875 352.321139 
L 282.746642 350.553372 
L 284.514409 352.321139 
L 286.282176 350.553372 
L 284.514409 348.785605 
L 286.282176 347.017838 
L 284.514409 345.250071 
L 282.746642 347.017838 
L 280.978875 345.250071 
L 279.211108 347.017838 
L 280.978875 348.785605 
L 279.211108 350.553372 
z
" style="fill:#1f77b4;stroke:#ffffff;stroke-width:0.565685;"/>
    <path clip-path="url(#p724ce1892f)" d="M 289.892399 372.300102 
L 291.660166 370.532335 
L 293.427933 372.300102 
L 295.1957 370.532335 
L 293.427933 368.764568 
L 295.1957 366.996801 
L 293.427933 365.229034 
L 291.660166 366.996801 
L 289.892399 365.229034 
L 288.124632 366.996801 
L 289.892399 368.764568 
L 288.124632 370.532335 
z
" style="fill:#1f77b4;stroke:#ffffff;stroke-width:0.565685;"/>
    <path clip-path="url(#p724ce1892f)" d="M 342.640303 308.108746 
L 344.40807 306.340979 
L 346.175837 308.108746 
L 347.943604 306.340979 
L 346.175837 304.573212 
L 347.943604 302.805445 
L 346.175837 301.037678 
L 344.40807 302.805445 
L 342.640303 301.037678 
L 340.872536 302.805445 
L 342.640303 304.573212 
L 340.872536 306.340979 
z
" style="fill:#1f77b4;stroke:#ffffff;stroke-width:0.565685;"/>
    <path clip-path="url(#p724ce1892f)" d="M 297.698793 363.855901 
L 299.46656 362.088135 
L 301.234327 363.855901 
L 303.002094 362.088135 
L 301.234327 360.320368 
L 303.002094 358.552601 
L 301.234327 356.784834 
L 299.46656 358.552601 
L 297.698793 356.784834 
L 295.931026 358.552601 
L 297.698793 360.320368 
L 295.931026 362.088135 
z
" style="fill:#1f77b4;stroke:#ffffff;stroke-width:0.565685;"/>
    <path clip-path="url(#p724ce1892f)" d="M 287.596213 378.339115 
L 289.36398 376.571348 
L 291.131747 378.339115 
L 292.899514 376.571348 
L 291.131747 374.803581 
L 292.899514 373.035814 
L 291.131747 371.268047 
L 289.36398 373.035814 
L 287.596213 371.268047 
L 285.828446 373.035814 
L 287.596213 374.803581 
L 285.828446 376.571348 
z
" style="fill:#1f77b4;stroke:#ffffff;stroke-width:0.565685;"/>
    <path clip-path="url(#p724ce1892f)" d="M 292.863623 350.637438 
L 294.63139 348.869671 
L 296.399157 350.637438 
L 298.166924 348.869671 
L 296.399157 347.101904 
L 298.166924 345.334137 
L 296.399157 343.56637 
L 294.63139 345.334137 
L 292.863623 343.56637 
L 291.095856 345.334137 
L 292.863623 347.101904 
L 291.095856 348.869671 
z
" style="fill:#1f77b4;stroke:#ffffff;stroke-width:0.565685;"/>
    <path clip-path="url(#p724ce1892f)" d="M 295.111795 361.160882 
L 296.879562 359.393115 
L 298.647329 361.160882 
L 300.415096 359.393115 
L 298.647329 357.625348 
L 300.415096 355.857581 
L 298.647329 354.089814 
L 296.879562 355.857581 
L 295.111795 354.089814 
L 293.344028 355.857581 
L 295.111795 357.625348 
L 293.344028 359.393115 
z
" style="fill:#1f77b4;stroke:#ffffff;stroke-width:0.565685;"/>
    <path clip-path="url(#p724ce1892f)" d="M 300.397101 396.387842 
L 302.164868 394.620075 
L 303.932635 396.387842 
L 305.700402 394.620075 
L 303.932635 392.852308 
L 305.700402 391.084541 
L 303.932635 389.316774 
L 302.164868 391.084541 
L 300.397101 389.316774 
L 298.629334 391.084541 
L 300.397101 392.852308 
L 298.629334 394.620075 
z
" style="fill:#1f77b4;stroke:#ffffff;stroke-width:0.565685;"/>
    <path clip-path="url(#p724ce1892f)" d="M 288.36839 388.035818 
L 290.136157 386.268051 
L 291.903924 388.035818 
L 293.671691 386.268051 
L 291.903924 384.500284 
L 293.671691 382.732517 
L 291.903924 380.96475 
L 290.136157 382.732517 
L 288.36839 380.96475 
L 286.600623 382.732517 
L 288.36839 384.500284 
L 286.600623 386.268051 
z
" style="fill:#1f77b4;stroke:#ffffff;stroke-width:0.565685;"/>
    <path clip-path="url(#p724ce1892f)" d="M 296.866712 360.595814 
L 298.634479 358.828047 
L 300.402246 360.595814 
L 302.170013 358.828047 
L 300.402246 357.06028 
L 302.170013 355.292513 
L 300.402246 353.524746 
L 298.634479 355.292513 
L 296.866712 353.524746 
L 295.098945 355.292513 
L 296.866712 357.06028 
L 295.098945 358.828047 
z
" style="fill:#1f77b4;stroke:#ffffff;stroke-width:0.565685;"/>
    <path clip-path="url(#p724ce1892f)" d="M 308.184905 419.914292 
C 309.12254 419.914292 310.021898 419.541766 310.684905 418.878758 
C 311.347913 418.21575 311.720439 417.316393 311.720439 416.378758 
C 311.720439 415.441123 311.347913 414.541766 310.684905 413.878758 
C 310.021898 413.21575 309.12254 412.843224 308.184905 412.843224 
C 307.247271 412.843224 306.347913 413.21575 305.684905 413.878758 
C 305.021898 414.541766 304.649371 415.441123 304.649371 416.378758 
C 304.649371 417.316393 305.021898 418.21575 305.684905 418.878758 
C 306.347913 419.541766 307.247271 419.914292 308.184905 419.914292 
z
" style="fill:#1f77b4;stroke:#ffffff;stroke-width:0.565685;"/>
    <path clip-path="url(#p724ce1892f)" d="M 349.227544 370.877101 
C 350.165179 370.877101 351.064536 370.504574 351.727544 369.841567 
C 352.390552 369.178559 352.763078 368.279201 352.763078 367.341567 
C 352.763078 366.403932 352.390552 365.504574 351.727544 364.841567 
C 351.064536 364.178559 350.165179 363.806033 349.227544 363.806033 
C 348.28991 363.806033 347.390552 364.178559 346.727544 364.841567 
C 346.064536 365.504574 345.69201 366.403932 345.69201 367.341567 
C 345.69201 368.279201 346.064536 369.178559 346.727544 369.841567 
C 347.390552 370.504574 348.28991 370.877101 349.227544 370.877101 
z
" style="fill:#1f77b4;stroke:#ffffff;stroke-width:0.565685;"/>
    <path clip-path="url(#p724ce1892f)" d="M 338.020467 297.759694 
C 338.958101 297.759694 339.857459 297.387168 340.520467 296.724161 
C 341.183475 296.061153 341.556001 295.161795 341.556001 294.224161 
C 341.556001 293.286526 341.183475 292.387168 340.520467 291.724161 
C 339.857459 291.061153 338.958101 290.688627 338.020467 290.688627 
C 337.082832 290.688627 336.183475 291.061153 335.520467 291.724161 
C 334.857459 292.387168 334.484933 293.286526 334.484933 294.224161 
C 334.484933 295.161795 334.857459 296.061153 335.520467 296.724161 
C 336.183475 297.387168 337.082832 297.759694 338.020467 297.759694 
z
" style="fill:#1f77b4;stroke:#ffffff;stroke-width:0.565685;"/>
    <path clip-path="url(#p724ce1892f)" d="M 291.501637 380.456877 
C 292.439272 380.456877 293.33863 380.08435 294.001637 379.421343 
C 294.664645 378.758335 295.037171 377.858977 295.037171 376.921343 
C 295.037171 375.983708 294.664645 375.08435 294.001637 374.421343 
C 293.33863 373.758335 292.439272 373.385809 291.501637 373.385809 
C 290.564003 373.385809 289.664645 373.758335 289.001637 374.421343 
C 288.33863 375.08435 287.966103 375.983708 287.966103 376.921343 
C 287.966103 377.858977 288.33863 378.758335 289.001637 379.421343 
C 289.664645 380.08435 290.564003 380.456877 291.501637 380.456877 
z
" style="fill:#1f77b4;stroke:#ffffff;stroke-width:0.565685;"/>
    <path clip-path="url(#p724ce1892f)" d="M 285.252219 387.563695 
C 286.189854 387.563695 287.089211 387.191169 287.752219 386.528162 
C 288.415227 385.865154 288.787753 384.965796 288.787753 384.028162 
C 288.787753 383.090527 288.415227 382.191169 287.752219 381.528162 
C 287.089211 380.865154 286.189854 380.492628 285.252219 380.492628 
C 284.314585 380.492628 283.415227 380.865154 282.752219 381.528162 
C 282.089211 382.191169 281.716685 383.090527 281.716685 384.028162 
C 281.716685 384.965796 282.089211 385.865154 282.752219 386.528162 
C 283.415227 387.191169 284.314585 387.563695 285.252219 387.563695 
z
" style="fill:#1f77b4;stroke:#ffffff;stroke-width:0.565685;"/>
    <path clip-path="url(#p724ce1892f)" d="M 303.867395 428.818997 
C 304.80503 428.818997 305.704388 428.446471 306.367395 427.783463 
C 307.030403 427.120456 307.402929 426.221098 307.402929 425.283463 
C 307.402929 424.345829 307.030403 423.446471 306.367395 422.783463 
C 305.704388 422.120456 304.80503 421.747929 303.867395 421.747929 
C 302.929761 421.747929 302.030403 422.120456 301.367395 422.783463 
C 300.704388 423.446471 300.331861 424.345829 300.331861 425.283463 
C 300.331861 426.221098 300.704388 427.120456 301.367395 427.783463 
C 302.030403 428.446471 302.929761 428.818997 303.867395 428.818997 
z
" style="fill:#1f77b4;stroke:#ffffff;stroke-width:0.565685;"/>
    <path clip-path="url(#p724ce1892f)" d="M 308.044755 313.801266 
L 309.812522 312.033499 
L 311.580289 313.801266 
L 313.348056 312.033499 
L 311.580289 310.265732 
L 313.348056 308.497965 
L 311.580289 306.730198 
L 309.812522 308.497965 
L 308.044755 306.730198 
L 306.276988 308.497965 
L 308.044755 310.265732 
L 306.276988 312.033499 
z
" style="fill:#1f77b4;stroke:#ffffff;stroke-width:0.565685;"/>
    <path clip-path="url(#p724ce1892f)" d="M 288.809003 337.771449 
L 290.57677 336.003682 
L 292.344537 337.771449 
L 294.112304 336.003682 
L 292.344537 334.235915 
L 294.112304 332.468148 
L 292.344537 330.700381 
L 290.57677 332.468148 
L 288.809003 330.700381 
L 287.041236 332.468148 
L 288.809003 334.235915 
L 287.041236 336.003682 
z
" style="fill:#1f77b4;stroke:#ffffff;stroke-width:0.565685;"/>
    <path clip-path="url(#p724ce1892f)" d="M 293.26158 368.422549 
L 295.029347 366.654782 
L 296.797114 368.422549 
L 298.564881 366.654782 
L 296.797114 364.887015 
L 298.564881 363.119248 
L 296.797114 361.351481 
L 295.029347 363.119248 
L 293.26158 361.351481 
L 291.493813 363.119248 
L 293.26158 364.887015 
L 291.493813 366.654782 
z
" style="fill:#1f77b4;stroke:#ffffff;stroke-width:0.565685;"/>
    <path clip-path="url(#p724ce1892f)" d="M 290.954635 479.84915 
L 292.722402 478.081383 
L 294.490169 479.84915 
L 296.257936 478.081383 
L 294.490169 476.313616 
L 296.257936 474.545849 
L 294.490169 472.778082 
L 292.722402 474.545849 
L 290.954635 472.778082 
L 289.186868 474.545849 
L 290.954635 476.313616 
L 289.186868 478.081383 
z
" style="fill:#1f77b4;stroke:#ffffff;stroke-width:0.565685;"/>
    <path clip-path="url(#p724ce1892f)" d="M 327.153226 348.940402 
L 328.920993 347.172635 
L 330.68876 348.940402 
L 332.456527 347.172635 
L 330.68876 345.404868 
L 332.456527 343.637101 
L 330.68876 341.869334 
L 328.920993 343.637101 
L 327.153226 341.869334 
L 325.385459 343.637101 
L 327.153226 345.404868 
L 325.385459 347.172635 
z
" style="fill:#1f77b4;stroke:#ffffff;stroke-width:0.565685;"/>
    <path clip-path="url(#p724ce1892f)" d="M 322.65542 348.441181 
L 324.423187 346.673414 
L 326.190954 348.441181 
L 327.958721 346.673414 
L 326.190954 344.905647 
L 327.958721 343.13788 
L 326.190954 341.370113 
L 324.423187 343.13788 
L 322.65542 341.370113 
L 320.887653 343.13788 
L 322.65542 344.905647 
L 320.887653 346.673414 
z
" style="fill:#1f77b4;stroke:#ffffff;stroke-width:0.565685;"/>
    <path clip-path="url(#p724ce1892f)" d="M 299.582665 362.589549 
L 301.350432 360.821782 
L 303.118199 362.589549 
L 304.885966 360.821782 
L 303.118199 359.054015 
L 304.885966 357.286248 
L 303.118199 355.518481 
L 301.350432 357.286248 
L 299.582665 355.518481 
L 297.814898 357.286248 
L 299.582665 359.054015 
L 297.814898 360.821782 
z
" style="fill:#1f77b4;stroke:#ffffff;stroke-width:0.565685;"/>
    <path clip-path="url(#p724ce1892f)" d="M 100.033638 391.439563 
L 101.801405 389.671796 
L 103.569172 391.439563 
L 105.336939 389.671796 
L 103.569172 387.904029 
L 105.336939 386.136262 
L 103.569172 384.368495 
L 101.801405 386.136262 
L 100.033638 384.368495 
L 98.265871 386.136262 
L 100.033638 387.904029 
L 98.265871 389.671796 
z
" style="fill:#1f77b4;stroke:#ffffff;stroke-width:0.565685;"/>
    <path clip-path="url(#p724ce1892f)" d="M 297.591816 356.975897 
L 299.359583 355.20813 
L 301.12735 356.975897 
L 302.895117 355.20813 
L 301.12735 353.440363 
L 302.895117 351.672596 
L 301.12735 349.904829 
L 299.359583 351.672596 
L 297.591816 349.904829 
L 295.824049 351.672596 
L 297.591816 353.440363 
L 295.824049 355.20813 
z
" style="fill:#1f77b4;stroke:#ffffff;stroke-width:0.565685;"/>
    <path clip-path="url(#p724ce1892f)" d="M 292.729591 348.786431 
L 292.729591 353.786431 
L 297.729591 353.786431 
L 297.729591 348.786431 
z
" style="fill:#1f77b4;stroke:#ffffff;stroke-width:0.565685;"/>
    <path clip-path="url(#p724ce1892f)" d="M 315.956032 350.144713 
L 317.723799 348.376946 
L 319.491566 350.144713 
L 321.259333 348.376946 
L 319.491566 346.609179 
L 321.259333 344.841413 
L 319.491566 343.073646 
L 317.723799 344.841413 
L 315.956032 343.073646 
L 314.188265 344.841413 
L 315.956032 346.609179 
L 314.188265 348.376946 
z
" style="fill:#1f77b4;stroke:#ffffff;stroke-width:0.565685;"/>
    <path clip-path="url(#p724ce1892f)" d="M 299.197288 345.897974 
L 300.965055 344.130207 
L 302.732822 345.897974 
L 304.500589 344.130207 
L 302.732822 342.36244 
L 304.500589 340.594673 
L 302.732822 338.826906 
L 300.965055 340.594673 
L 299.197288 338.826906 
L 297.429521 340.594673 
L 299.197288 342.36244 
L 297.429521 344.130207 
z
" style="fill:#1f77b4;stroke:#ffffff;stroke-width:0.565685;"/>
    <path clip-path="url(#p724ce1892f)" d="M 245.587266 349.27728 
L 247.355033 347.509513 
L 249.1228 349.27728 
L 250.890566 347.509513 
L 249.1228 345.741746 
L 250.890566 343.973979 
L 249.1228 342.206212 
L 247.355033 343.973979 
L 245.587266 342.206212 
L 243.819499 343.973979 
L 245.587266 345.741746 
L 243.819499 347.509513 
z
" style="fill:#1f77b4;stroke:#ffffff;stroke-width:0.565685;"/>
    <path clip-path="url(#p724ce1892f)" d="M 181.193262 284.310117 
L 182.961029 282.54235 
L 184.728796 284.310117 
L 186.496563 282.54235 
L 184.728796 280.774583 
L 186.496563 279.006816 
L 184.728796 277.23905 
L 182.961029 279.006816 
L 181.193262 277.23905 
L 179.425495 279.006816 
L 181.193262 280.774583 
L 179.425495 282.54235 
z
" style="fill:#1f77b4;stroke:#ffffff;stroke-width:0.565685;"/>
    <path clip-path="url(#p724ce1892f)" d="M 290.126803 330.867035 
L 291.89457 329.099268 
L 293.662337 330.867035 
L 295.430104 329.099268 
L 293.662337 327.331501 
L 295.430104 325.563734 
L 293.662337 323.795967 
L 291.89457 325.563734 
L 290.126803 323.795967 
L 288.359036 325.563734 
L 290.126803 327.331501 
L 288.359036 329.099268 
z
" style="fill:#1f77b4;stroke:#ffffff;stroke-width:0.565685;"/>
   </g>
   <g id="PathCollection_2"/>
   <g id="PathCollection_3"/>
   <g id="PathCollection_4"/>
   <g id="matplotlib.axis_1">
    <g id="xtick_1">
     <g id="line2d_1">
      <defs>
       <path d="M 0 0 
L 0 3.5 
" id="md710955606" style="stroke:#000000;stroke-width:0.8;"/>
      </defs>
      <g>
       <use style="stroke:#000000;stroke-width:0.8;" x="103.7356" xlink:href="#md710955606" y="504.13125"/>
      </g>
     </g>
     <g id="text_1">
      <text style="font-family:DejaVu Sans;font-size:20px;font-stretch:normal;font-style:normal;font-weight:normal;text-anchor:middle;" transform="rotate(-0, 103.7356, 526.328125)" x="103.7356" y="526.328125">−6</text>
     </g>
    </g>
    <g id="xtick_2">
     <g id="line2d_2">
      <g>
       <use style="stroke:#000000;stroke-width:0.8;" x="167.807571" xlink:href="#md710955606" y="504.13125"/>
      </g>
     </g>
     <g id="text_2">
      <text style="font-family:DejaVu Sans;font-size:20px;font-stretch:normal;font-style:normal;font-weight:normal;text-anchor:middle;" transform="rotate(-0, 167.807571, 526.328125)" x="167.807571" y="526.328125">−4</text>
     </g>
    </g>
    <g id="xtick_3">
     <g id="line2d_3">
      <g>
       <use style="stroke:#000000;stroke-width:0.8;" x="231.879542" xlink:href="#md710955606" y="504.13125"/>
      </g>
     </g>
     <g id="text_3">
      <text style="font-family:DejaVu Sans;font-size:20px;font-stretch:normal;font-style:normal;font-weight:normal;text-anchor:middle;" transform="rotate(-0, 231.879542, 526.328125)" x="231.879542" y="526.328125">−2</text>
     </g>
    </g>
    <g id="xtick_4">
     <g id="line2d_4">
      <g>
       <use style="stroke:#000000;stroke-width:0.8;" x="295.951513" xlink:href="#md710955606" y="504.13125"/>
      </g>
     </g>
     <g id="text_4">
      <text style="font-family:DejaVu Sans;font-size:20px;font-stretch:normal;font-style:normal;font-weight:normal;text-anchor:middle;" transform="rotate(-0, 295.951513, 526.328125)" x="295.951513" y="526.328125">0</text>
     </g>
    </g>
    <g id="xtick_5">
     <g id="line2d_5">
      <g>
       <use style="stroke:#000000;stroke-width:0.8;" x="360.023485" xlink:href="#md710955606" y="504.13125"/>
      </g>
     </g>
     <g id="text_5">
      <text style="font-family:DejaVu Sans;font-size:20px;font-stretch:normal;font-style:normal;font-weight:normal;text-anchor:middle;" transform="rotate(-0, 360.023485, 526.328125)" x="360.023485" y="526.328125">2</text>
     </g>
    </g>
    <g id="xtick_6">
     <g id="line2d_6">
      <g>
       <use style="stroke:#000000;stroke-width:0.8;" x="424.095456" xlink:href="#md710955606" y="504.13125"/>
      </g>
     </g>
     <g id="text_6">
      <text style="font-family:DejaVu Sans;font-size:20px;font-stretch:normal;font-style:normal;font-weight:normal;text-anchor:middle;" transform="rotate(-0, 424.095456, 526.328125)" x="424.095456" y="526.328125">4</text>
     </g>
    </g>
    <g id="xtick_7">
     <g id="line2d_7">
      <g>
       <use style="stroke:#000000;stroke-width:0.8;" x="488.167427" xlink:href="#md710955606" y="504.13125"/>
      </g>
     </g>
     <g id="text_7">
      <text style="font-family:DejaVu Sans;font-size:20px;font-stretch:normal;font-style:normal;font-weight:normal;text-anchor:middle;" transform="rotate(-0, 488.167427, 526.328125)" x="488.167427" y="526.328125">6</text>
     </g>
    </g>
    <g id="text_8">
     <text style="font-family:DejaVu Sans;font-size:20px;font-stretch:normal;font-style:normal;font-weight:normal;text-anchor:middle;" transform="rotate(-0, 299.846705, 549.684375)" x="299.846705" y="549.684375">Monocyte_effect_score_normed</text>
    </g>
   </g>
   <g id="matplotlib.axis_2">
    <g id="ytick_1">
     <g id="line2d_8">
      <defs>
       <path d="M 0 0 
L -3.5 0 
" id="meaa9a81716" style="stroke:#000000;stroke-width:0.8;"/>
      </defs>
      <g>
       <use style="stroke:#000000;stroke-width:0.8;" x="81.996875" xlink:href="#meaa9a81716" y="455.747803"/>
      </g>
     </g>
     <g id="text_9">
      <text style="font-family:DejaVu Sans;font-size:20px;font-stretch:normal;font-style:normal;font-weight:normal;text-anchor:end;" transform="rotate(-0, 74.996875, 463.34624)" x="74.996875" y="463.34624">−2</text>
     </g>
    </g>
    <g id="ytick_2">
     <g id="line2d_9">
      <g>
       <use style="stroke:#000000;stroke-width:0.8;" x="81.996875" xlink:href="#meaa9a81716" y="401.455645"/>
      </g>
     </g>
     <g id="text_10">
      <text style="font-family:DejaVu Sans;font-size:20px;font-stretch:normal;font-style:normal;font-weight:normal;text-anchor:end;" transform="rotate(-0, 74.996875, 409.054083)" x="74.996875" y="409.054083">−1</text>
     </g>
    </g>
    <g id="ytick_3">
     <g id="line2d_10">
      <g>
       <use style="stroke:#000000;stroke-width:0.8;" x="81.996875" xlink:href="#meaa9a81716" y="347.163488"/>
      </g>
     </g>
     <g id="text_11">
      <text style="font-family:DejaVu Sans;font-size:20px;font-stretch:normal;font-style:normal;font-weight:normal;text-anchor:end;" transform="rotate(-0, 74.996875, 354.761925)" x="74.996875" y="354.761925">0</text>
     </g>
    </g>
    <g id="ytick_4">
     <g id="line2d_11">
      <g>
       <use style="stroke:#000000;stroke-width:0.8;" x="81.996875" xlink:href="#meaa9a81716" y="292.87133"/>
      </g>
     </g>
     <g id="text_12">
      <text style="font-family:DejaVu Sans;font-size:20px;font-stretch:normal;font-style:normal;font-weight:normal;text-anchor:end;" transform="rotate(-0, 74.996875, 300.469768)" x="74.996875" y="300.469768">1</text>
     </g>
    </g>
    <g id="ytick_5">
     <g id="line2d_12">
      <g>
       <use style="stroke:#000000;stroke-width:0.8;" x="81.996875" xlink:href="#meaa9a81716" y="238.579172"/>
      </g>
     </g>
     <g id="text_13">
      <text style="font-family:DejaVu Sans;font-size:20px;font-stretch:normal;font-style:normal;font-weight:normal;text-anchor:end;" transform="rotate(-0, 74.996875, 246.17761)" x="74.996875" y="246.17761">2</text>
     </g>
    </g>
    <g id="ytick_6">
     <g id="line2d_13">
      <g>
       <use style="stroke:#000000;stroke-width:0.8;" x="81.996875" xlink:href="#meaa9a81716" y="184.287015"/>
      </g>
     </g>
     <g id="text_14">
      <text style="font-family:DejaVu Sans;font-size:20px;font-stretch:normal;font-style:normal;font-weight:normal;text-anchor:end;" transform="rotate(-0, 74.996875, 191.885452)" x="74.996875" y="191.885452">3</text>
     </g>
    </g>
    <g id="ytick_7">
     <g id="line2d_14">
      <g>
       <use style="stroke:#000000;stroke-width:0.8;" x="81.996875" xlink:href="#meaa9a81716" y="129.994857"/>
      </g>
     </g>
     <g id="text_15">
      <text style="font-family:DejaVu Sans;font-size:20px;font-stretch:normal;font-style:normal;font-weight:normal;text-anchor:end;" transform="rotate(-0, 74.996875, 137.593295)" x="74.996875" y="137.593295">4</text>
     </g>
    </g>
    <g id="ytick_8">
     <g id="line2d_15">
      <g>
       <use style="stroke:#000000;stroke-width:0.8;" x="81.996875" xlink:href="#meaa9a81716" y="75.7027"/>
      </g>
     </g>
     <g id="text_16">
      <text style="font-family:DejaVu Sans;font-size:20px;font-stretch:normal;font-style:normal;font-weight:normal;text-anchor:end;" transform="rotate(-0, 74.996875, 83.301137)" x="74.996875" y="83.301137">5</text>
     </g>
    </g>
    <g id="text_17">
     <text style="font-family:DejaVu Sans;font-size:20px;font-stretch:normal;font-style:normal;font-weight:normal;text-anchor:middle;" transform="rotate(-90, 36.796875, 262.865625)" x="36.796875" y="262.865625">Neuron_effect_score_normed</text>
    </g>
   </g>
   <g id="line2d_16">
    <path clip-path="url(#p724ce1892f)" d="M 360.023485 504.13125 
L 360.023485 21.6 
" style="fill:none;stroke:#ff0000;stroke-dasharray:5.55,2.4;stroke-dashoffset:0;stroke-width:1.5;"/>
   </g>
   <g id="line2d_17">
    <path clip-path="url(#p724ce1892f)" d="M 231.879542 504.13125 
L 231.879542 21.6 
" style="fill:none;stroke:#ff0000;stroke-dasharray:5.55,2.4;stroke-dashoffset:0;stroke-width:1.5;"/>
   </g>
   <g id="line2d_18">
    <path clip-path="url(#p724ce1892f)" d="M 81.996875 238.579172 
L 517.696534 238.579172 
" style="fill:none;stroke:#ff0000;stroke-dasharray:5.55,2.4;stroke-dashoffset:0;stroke-width:1.5;"/>
   </g>
   <g id="line2d_19">
    <path clip-path="url(#p724ce1892f)" d="M 81.996875 455.747803 
L 517.696534 455.747803 
" style="fill:none;stroke:#ff0000;stroke-dasharray:5.55,2.4;stroke-dashoffset:0;stroke-width:1.5;"/>
   </g>
   <g id="patch_3">
    <path d="M 81.996875 504.13125 
L 81.996875 21.6 
" style="fill:none;stroke:#000000;stroke-linecap:square;stroke-linejoin:miter;stroke-width:0.8;"/>
   </g>
   <g id="patch_4">
    <path d="M 517.696534 504.13125 
L 517.696534 21.6 
" style="fill:none;stroke:#000000;stroke-linecap:square;stroke-linejoin:miter;stroke-width:0.8;"/>
   </g>
   <g id="patch_5">
    <path d="M 81.996875 504.13125 
L 517.696534 504.13125 
" style="fill:none;stroke:#000000;stroke-linecap:square;stroke-linejoin:miter;stroke-width:0.8;"/>
   </g>
   <g id="patch_6">
    <path d="M 81.996875 21.6 
L 517.696534 21.6 
" style="fill:none;stroke:#000000;stroke-linecap:square;stroke-linejoin:miter;stroke-width:0.8;"/>
   </g>
   <g id="text_18">
    <text style="font-family:DejaVu Sans;font-size:12px;font-stretch:normal;font-style:normal;font-weight:normal;text-anchor:start;" transform="rotate(-0, 497.892004, 43.533239)" x="497.892004" y="43.533239">rs636317</text>
   </g>
   <g id="text_19">
    <text style="font-family:DejaVu Sans;font-size:12px;font-stretch:normal;font-style:normal;font-weight:normal;text-anchor:start;" transform="rotate(-0, 264.009607, 393.194367)" x="264.009607" y="393.194367">rs636341</text>
   </g>
   <g id="text_20">
    <text style="font-family:DejaVu Sans;font-size:12px;font-stretch:normal;font-style:normal;font-weight:normal;text-anchor:start;" transform="rotate(-0, 316.553205, 296.759067)" x="316.553205" y="296.759067">rs514049</text>
   </g>
   <g id="text_21">
    <text style="font-family:DejaVu Sans;font-size:12px;font-stretch:normal;font-style:normal;font-weight:normal;text-anchor:start;" transform="rotate(-0, 304.952152, 482.198011)" x="304.952152" y="482.198011">rs395601</text>
   </g>
   <g id="text_22">
    <text style="font-family:DejaVu Sans;font-size:12px;font-stretch:normal;font-style:normal;font-weight:normal;text-anchor:start;" transform="rotate(-0, 409.09035, 364.866725)" x="409.09035" y="364.866725">rs1010322</text>
   </g>
   <g id="text_23">
    <text style="font-family:DejaVu Sans;font-size:12px;font-stretch:normal;font-style:normal;font-weight:normal;text-anchor:start;" transform="rotate(-0, 420.70612, 248.534162)" x="420.70612" y="248.534162">rs2526377</text>
   </g>
   <g id="text_24">
    <text style="font-family:DejaVu Sans;font-size:12px;font-stretch:normal;font-style:normal;font-weight:normal;text-anchor:start;" transform="rotate(-0, 370.599299, 343.792395)" x="370.599299" y="343.792395">rs76726049</text>
   </g>
   <g id="text_25">
    <text style="font-family:DejaVu Sans;font-size:12px;font-stretch:normal;font-style:normal;font-weight:normal;text-anchor:start;" transform="rotate(-0, 344.731661, 269.488219)" x="344.731661" y="269.488219">rs6064392</text>
   </g>
   <g id="text_26">
    <text style="font-family:DejaVu Sans;font-size:12px;font-stretch:normal;font-style:normal;font-weight:normal;text-anchor:start;" transform="rotate(-0, 326.920602, 311.0921)" x="326.920602" y="311.0921">rs9270920</text>
   </g>
   <g id="text_27">
    <text style="font-family:DejaVu Sans;font-size:12px;font-stretch:normal;font-style:normal;font-weight:normal;text-anchor:start;" transform="rotate(-0, 401.267231, 304.918358)" x="401.267231" y="304.918358">rs9270921</text>
   </g>
   <g id="text_28">
    <text style="font-family:DejaVu Sans;font-size:12px;font-stretch:normal;font-style:normal;font-weight:normal;text-anchor:start;" transform="rotate(-0, 308.184905, 416.378758)" x="308.184905" y="416.378758">rs9271162</text>
   </g>
   <g id="text_29">
    <text style="font-family:DejaVu Sans;font-size:12px;font-stretch:normal;font-style:normal;font-weight:normal;text-anchor:start;" transform="rotate(-0, 303.867395, 425.283463)" x="303.867395" y="425.283463">rs9271171</text>
   </g>
   <g id="text_30">
    <text style="font-family:DejaVu Sans;font-size:12px;font-stretch:normal;font-style:normal;font-weight:normal;text-anchor:start;" transform="rotate(-0, 101.801405, 387.904029)" x="101.801405" y="387.904029">rs9271182</text>
   </g>
   <g id="text_31">
    <text style="font-family:DejaVu Sans;font-size:12px;font-stretch:normal;font-style:normal;font-weight:normal;text-anchor:start;" transform="rotate(-0, 182.961029, 280.774583)" x="182.961029" y="280.774583">rs28834970</text>
   </g>
   <g id="legend_1">
    <g id="patch_7">
     <path d="M 95.996875 155.58125 
L 278.20625 155.58125 
Q 282.20625 155.58125 282.20625 151.58125 
L 282.20625 35.6 
Q 282.20625 31.6 278.20625 31.6 
L 95.996875 31.6 
Q 91.996875 31.6 91.996875 35.6 
L 91.996875 151.58125 
Q 91.996875 155.58125 95.996875 155.58125 
z
" style="fill:#ffffff;opacity:0.8;stroke:#cccccc;stroke-linejoin:miter;"/>
    </g>
    <g id="text_32">
     <text style="font-family:DejaVu Sans;font-size:20px;font-stretch:normal;font-style:normal;font-weight:normal;text-anchor:start;" transform="rotate(-0, 99.996875, 54.796875)" x="99.996875" y="54.796875">cell_type_overlap</text>
    </g>
    <g id="PathCollection_5">
     <defs>
      <path d="M 0 3 
C 0.795609 3 1.55874 2.683901 2.12132 2.12132 
C 2.683901 1.55874 3 0.795609 3 0 
C 3 -0.795609 2.683901 -1.55874 2.12132 -2.12132 
C 1.55874 -2.683901 0.795609 -3 0 -3 
C -0.795609 -3 -1.55874 -2.683901 -2.12132 -2.12132 
C -2.683901 -1.55874 -3 -0.795609 -3 0 
C -3 0.795609 -2.683901 1.55874 -2.12132 2.12132 
C -1.55874 2.683901 -0.795609 3 0 3 
z
" id="m19325237c9" style="stroke:#333333;"/>
     </defs>
     <g>
      <use style="fill:#333333;stroke:#333333;" x="130.407813" xlink:href="#m19325237c9" y="79.459375"/>
     </g>
    </g>
    <g id="text_33">
     <text style="font-family:DejaVu Sans;font-size:20px;font-stretch:normal;font-style:normal;font-weight:normal;text-anchor:start;" transform="rotate(-0, 166.407813, 84.709375)" x="166.407813" y="84.709375">Both</text>
    </g>
    <g id="PathCollection_6">
     <defs>
      <path d="M -1.5 3 
L 0 1.5 
L 1.5 3 
L 3 1.5 
L 1.5 0 
L 3 -1.5 
L 1.5 -3 
L 0 -1.5 
L -1.5 -3 
L -3 -1.5 
L -1.5 0 
L -3 1.5 
z
" id="m3677ad35e6" style="stroke:#333333;"/>
     </defs>
     <g>
      <use style="fill:#333333;stroke:#333333;" x="130.407813" xlink:href="#m3677ad35e6" y="108.815625"/>
     </g>
    </g>
    <g id="text_34">
     <text style="font-family:DejaVu Sans;font-size:20px;font-stretch:normal;font-style:normal;font-weight:normal;text-anchor:start;" transform="rotate(-0, 166.407813, 114.065625)" x="166.407813" y="114.065625">Monocyte</text>
    </g>
    <g id="PathCollection_7">
     <defs>
      <path d="M -2.12132 -2.12132 
L -2.12132 2.12132 
L 2.12132 2.12132 
L 2.12132 -2.12132 
z
" id="m866355f26d" style="stroke:#333333;"/>
     </defs>
     <g>
      <use style="fill:#333333;stroke:#333333;" x="130.407813" xlink:href="#m866355f26d" y="138.171875"/>
     </g>
    </g>
    <g id="text_35">
     <text style="font-family:DejaVu Sans;font-size:20px;font-stretch:normal;font-style:normal;font-weight:normal;text-anchor:start;" transform="rotate(-0, 166.407813, 143.421875)" x="166.407813" y="143.421875">Neuron</text>
    </g>
   </g>
  </g>
 </g>
 <defs>
  <clipPath id="p724ce1892f">
   <rect height="482.53125" width="435.699659" x="81.996875" y="21.6"/>
  </clipPath>
 </defs>
</svg>
