<?xml version="1.0" encoding="utf-8" standalone="no"?>
<!DOCTYPE svg PUBLIC "-//W3C//DTD SVG 1.1//EN"
  "http://www.w3.org/Graphics/SVG/1.1/DTD/svg11.dtd">
<!-- Created with matplotlib (https://matplotlib.org/) -->
<svg height="576pt" version="1.1" viewBox="0 0 576 576" width="576pt" xmlns="http://www.w3.org/2000/svg" xmlns:xlink="http://www.w3.org/1999/xlink">
 <metadata>
  <rdf:RDF xmlns:cc="http://creativecommons.org/ns#" xmlns:dc="http://purl.org/dc/elements/1.1/" xmlns:rdf="http://www.w3.org/1999/02/22-rdf-syntax-ns#">
   <cc:Work>
    <dc:type rdf:resource="http://purl.org/dc/dcmitype/StillImage"/>
    <dc:date>2022-03-30T23:30:19.325686</dc:date>
    <dc:format>image/svg+xml</dc:format>
    <dc:creator>
     <cc:Agent>
      <dc:title>Matplotlib v3.3.4, https://matplotlib.org/</dc:title>
     </cc:Agent>
    </dc:creator>
   </cc:Work>
  </rdf:RDF>
 </metadata>
 <defs>
  <style type="text/css">*{stroke-linecap:butt;stroke-linejoin:round;}</style>
 </defs>
 <g id="figure_1">
  <g id="patch_1">
   <path d="M 0 576 
L 576 576 
L 576 0 
L 0 0 
z
" style="fill:none;"/>
  </g>
  <g id="axes_1">
   <g id="patch_2">
    <path d="M 81.996875 504.13125 
L 517.696534 504.13125 
L 517.696534 21.6 
L 81.996875 21.6 
z
" style="fill:#ffffff;"/>
   </g>
   <g id="PathCollection_1">
    <path clip-path="url(#p015362407e)" d="M 238.979067 287.379349 
L 240.746834 285.611582 
L 242.514601 287.379349 
L 244.282368 285.611582 
L 242.514601 283.843815 
L 244.282368 282.076048 
L 242.514601 280.308281 
L 240.746834 282.076048 
L 238.979067 280.308281 
L 237.2113 282.076048 
L 238.979067 283.843815 
L 237.2113 285.611582 
z
" style="fill:#1f77b4;stroke:#ffffff;stroke-width:0.565685;"/>
    <path clip-path="url(#p015362407e)" d="M 275.716553 236.155083 
L 277.48432 234.387316 
L 279.252087 236.155083 
L 281.019854 234.387316 
L 279.252087 232.61955 
L 281.019854 230.851783 
L 279.252087 229.084016 
L 277.48432 230.851783 
L 275.716553 229.084016 
L 273.948787 230.851783 
L 275.716553 232.61955 
L 273.948787 234.387316 
z
" style="fill:#1f77b4;stroke:#ffffff;stroke-width:0.565685;"/>
    <path clip-path="url(#p015362407e)" d="M 191.913215 232.11106 
L 191.913215 237.11106 
L 196.913215 237.11106 
L 196.913215 232.11106 
z
" style="fill:#1f77b4;stroke:#ffffff;stroke-width:0.565685;"/>
    <path clip-path="url(#p015362407e)" d="M 192.833542 295.117429 
L 192.833542 300.117429 
L 197.833542 300.117429 
L 197.833542 295.117429 
z
" style="fill:#1f77b4;stroke:#ffffff;stroke-width:0.565685;"/>
    <path clip-path="url(#p015362407e)" d="M 270.206333 229.690904 
L 271.974099 227.923137 
L 273.741866 229.690904 
L 275.509633 227.923137 
L 273.741866 226.15537 
L 275.509633 224.387603 
L 273.741866 222.619836 
L 271.974099 224.387603 
L 270.206333 222.619836 
L 268.438566 224.387603 
L 270.206333 226.15537 
L 268.438566 227.923137 
z
" style="fill:#1f77b4;stroke:#ffffff;stroke-width:0.565685;"/>
    <path clip-path="url(#p015362407e)" d="M 254.458691 301.487438 
C 255.396326 301.487438 256.295683 301.114912 256.958691 300.451904 
C 257.621699 299.788897 257.994225 298.889539 257.994225 297.951904 
C 257.994225 297.01427 257.621699 296.114912 256.958691 295.451904 
C 256.295683 294.788897 255.396326 294.41637 254.458691 294.41637 
C 253.521057 294.41637 252.621699 294.788897 251.958691 295.451904 
C 251.295683 296.114912 250.923157 297.01427 250.923157 297.951904 
C 250.923157 298.889539 251.295683 299.788897 251.958691 300.451904 
C 252.621699 301.114912 253.521057 301.487438 254.458691 301.487438 
z
" style="fill:#1f77b4;stroke:#ffffff;stroke-width:0.565685;"/>
    <path clip-path="url(#p015362407e)" d="M 258.34594 235.551773 
C 259.283575 235.551773 260.182933 235.179246 260.84594 234.516239 
C 261.508948 233.853231 261.881474 232.953873 261.881474 232.016239 
C 261.881474 231.078604 261.508948 230.179246 260.84594 229.516239 
C 260.182933 228.853231 259.283575 228.480705 258.34594 228.480705 
C 257.408306 228.480705 256.508948 228.853231 255.84594 229.516239 
C 255.182933 230.179246 254.810406 231.078604 254.810406 232.016239 
C 254.810406 232.953873 255.182933 233.853231 255.84594 234.516239 
C 256.508948 235.179246 257.408306 235.551773 258.34594 235.551773 
z
" style="fill:#1f77b4;stroke:#ffffff;stroke-width:0.565685;"/>
    <path clip-path="url(#p015362407e)" d="M 296.102562 296.4467 
L 296.102562 301.4467 
L 301.102562 301.4467 
L 301.102562 296.4467 
z
" style="fill:#1f77b4;stroke:#ffffff;stroke-width:0.565685;"/>
    <path clip-path="url(#p015362407e)" d="M 215.758889 302.137759 
L 217.526656 300.369992 
L 219.294423 302.137759 
L 221.06219 300.369992 
L 219.294423 298.602225 
L 221.06219 296.834458 
L 219.294423 295.066691 
L 217.526656 296.834458 
L 215.758889 295.066691 
L 213.991122 296.834458 
L 215.758889 298.602225 
L 213.991122 300.369992 
z
" style="fill:#1f77b4;stroke:#ffffff;stroke-width:0.565685;"/>
    <path clip-path="url(#p015362407e)" d="M 195.771713 271.551219 
L 197.53948 269.783452 
L 199.307247 271.551219 
L 201.075014 269.783452 
L 199.307247 268.015685 
L 201.075014 266.247918 
L 199.307247 264.480151 
L 197.53948 266.247918 
L 195.771713 264.480151 
L 194.003946 266.247918 
L 195.771713 268.015685 
L 194.003946 269.783452 
z
" style="fill:#1f77b4;stroke:#ffffff;stroke-width:0.565685;"/>
    <path clip-path="url(#p015362407e)" d="M 283.239635 295.79731 
C 284.17727 295.79731 285.076627 295.424784 285.739635 294.761776 
C 286.402643 294.098768 286.775169 293.199411 286.775169 292.261776 
C 286.775169 291.324142 286.402643 290.424784 285.739635 289.761776 
C 285.076627 289.098768 284.17727 288.726242 283.239635 288.726242 
C 282.302 288.726242 281.402643 289.098768 280.739635 289.761776 
C 280.076627 290.424784 279.704101 291.324142 279.704101 292.261776 
C 279.704101 293.199411 280.076627 294.098768 280.739635 294.761776 
C 281.402643 295.424784 282.302 295.79731 283.239635 295.79731 
z
" style="fill:#1f77b4;stroke:#ffffff;stroke-width:0.565685;"/>
    <path clip-path="url(#p015362407e)" d="M 243.830265 195.92707 
C 244.7679 195.92707 245.667258 195.554544 246.330265 194.891536 
C 246.993273 194.228529 247.365799 193.329171 247.365799 192.391536 
C 247.365799 191.453902 246.993273 190.554544 246.330265 189.891536 
C 245.667258 189.228529 244.7679 188.856002 243.830265 188.856002 
C 242.892631 188.856002 241.993273 189.228529 241.330265 189.891536 
C 240.667258 190.554544 240.294731 191.453902 240.294731 192.391536 
C 240.294731 193.329171 240.667258 194.228529 241.330265 194.891536 
C 241.993273 195.554544 242.892631 195.92707 243.830265 195.92707 
z
" style="fill:#1f77b4;stroke:#ffffff;stroke-width:0.565685;"/>
    <path clip-path="url(#p015362407e)" d="M 228.225652 239.906938 
L 229.993419 238.139171 
L 231.761186 239.906938 
L 233.528953 238.139171 
L 231.761186 236.371404 
L 233.528953 234.603637 
L 231.761186 232.835871 
L 229.993419 234.603637 
L 228.225652 232.835871 
L 226.457885 234.603637 
L 228.225652 236.371404 
L 226.457885 238.139171 
z
" style="fill:#1f77b4;stroke:#ffffff;stroke-width:0.565685;"/>
    <path clip-path="url(#p015362407e)" d="M 247.970558 332.106738 
L 249.738325 330.338971 
L 251.506092 332.106738 
L 253.273859 330.338971 
L 251.506092 328.571204 
L 253.273859 326.803437 
L 251.506092 325.03567 
L 249.738325 326.803437 
L 247.970558 325.03567 
L 246.202792 326.803437 
L 247.970558 328.571204 
L 246.202792 330.338971 
z
" style="fill:#1f77b4;stroke:#ffffff;stroke-width:0.565685;"/>
    <path clip-path="url(#p015362407e)" d="M 274.876858 204.285625 
C 275.814492 204.285625 276.71385 203.913099 277.376858 203.250091 
C 278.039865 202.587083 278.412391 201.687725 278.412391 200.750091 
C 278.412391 199.812456 278.039865 198.913099 277.376858 198.250091 
C 276.71385 197.587083 275.814492 197.214557 274.876858 197.214557 
C 273.939223 197.214557 273.039865 197.587083 272.376858 198.250091 
C 271.71385 198.913099 271.341324 199.812456 271.341324 200.750091 
C 271.341324 201.687725 271.71385 202.587083 272.376858 203.250091 
C 273.039865 203.913099 273.939223 204.285625 274.876858 204.285625 
z
" style="fill:#1f77b4;stroke:#ffffff;stroke-width:0.565685;"/>
    <path clip-path="url(#p015362407e)" d="M 497.892004 217.485274 
C 498.829639 217.485274 499.728996 217.112748 500.392004 216.44974 
C 501.055012 215.786732 501.427538 214.887374 501.427538 213.94974 
C 501.427538 213.012105 501.055012 212.112748 500.392004 211.44974 
C 499.728996 210.786732 498.829639 210.414206 497.892004 210.414206 
C 496.95437 210.414206 496.055012 210.786732 495.392004 211.44974 
C 494.728996 212.112748 494.35647 213.012105 494.35647 213.94974 
C 494.35647 214.887374 494.728996 215.786732 495.392004 216.44974 
C 496.055012 217.112748 496.95437 217.485274 497.892004 217.485274 
z
" style="fill:#1f77b4;stroke:#ffffff;stroke-width:0.565685;"/>
    <path clip-path="url(#p015362407e)" d="M 150.840659 350.08161 
C 151.778294 350.08161 152.677651 349.709084 153.340659 349.046076 
C 154.003667 348.383068 154.376193 347.483711 154.376193 346.546076 
C 154.376193 345.608442 154.003667 344.709084 153.340659 344.046076 
C 152.677651 343.383068 151.778294 343.010542 150.840659 343.010542 
C 149.903024 343.010542 149.003667 343.383068 148.340659 344.046076 
C 147.677651 344.709084 147.305125 345.608442 147.305125 346.546076 
C 147.305125 347.483711 147.677651 348.383068 148.340659 349.046076 
C 149.003667 349.709084 149.903024 350.08161 150.840659 350.08161 
z
" style="fill:#1f77b4;stroke:#ffffff;stroke-width:0.565685;"/>
    <path clip-path="url(#p015362407e)" d="M 257.802362 270.40197 
L 259.570129 268.634203 
L 261.337896 270.40197 
L 263.105663 268.634203 
L 261.337896 266.866436 
L 263.105663 265.098669 
L 261.337896 263.330903 
L 259.570129 265.098669 
L 257.802362 263.330903 
L 256.034595 265.098669 
L 257.802362 266.866436 
L 256.034595 268.634203 
z
" style="fill:#1f77b4;stroke:#ffffff;stroke-width:0.565685;"/>
    <path clip-path="url(#p015362407e)" d="M 253.109667 251.417749 
L 254.877434 249.649982 
L 256.645201 251.417749 
L 258.412968 249.649982 
L 256.645201 247.882215 
L 258.412968 246.114448 
L 256.645201 244.346681 
L 254.877434 246.114448 
L 253.109667 244.346681 
L 251.3419 246.114448 
L 253.109667 247.882215 
L 251.3419 249.649982 
z
" style="fill:#1f77b4;stroke:#ffffff;stroke-width:0.565685;"/>
    <path clip-path="url(#p015362407e)" d="M 246.793058 227.21472 
L 248.560825 225.446953 
L 250.328592 227.21472 
L 252.096359 225.446953 
L 250.328592 223.679186 
L 252.096359 221.911419 
L 250.328592 220.143652 
L 248.560825 221.911419 
L 246.793058 220.143652 
L 245.025292 221.911419 
L 246.793058 223.679186 
L 245.025292 225.446953 
z
" style="fill:#1f77b4;stroke:#ffffff;stroke-width:0.565685;"/>
    <path clip-path="url(#p015362407e)" d="M 312.485241 197.656033 
C 313.422875 197.656033 314.322233 197.283507 314.985241 196.620499 
C 315.648248 195.957491 316.020775 195.058134 316.020775 194.120499 
C 316.020775 193.182864 315.648248 192.283507 314.985241 191.620499 
C 314.322233 190.957491 313.422875 190.584965 312.485241 190.584965 
C 311.547606 190.584965 310.648248 190.957491 309.985241 191.620499 
C 309.322233 192.283507 308.949707 193.182864 308.949707 194.120499 
C 308.949707 195.058134 309.322233 195.957491 309.985241 196.620499 
C 310.648248 197.283507 311.547606 197.656033 312.485241 197.656033 
z
" style="fill:#1f77b4;stroke:#ffffff;stroke-width:0.565685;"/>
    <path clip-path="url(#p015362407e)" d="M 262.24508 188.897306 
L 264.012847 187.129539 
L 265.780614 188.897306 
L 267.548381 187.129539 
L 265.780614 185.361773 
L 267.548381 183.594006 
L 265.780614 181.826239 
L 264.012847 183.594006 
L 262.24508 181.826239 
L 260.477313 183.594006 
L 262.24508 185.361773 
L 260.477313 187.129539 
z
" style="fill:#1f77b4;stroke:#ffffff;stroke-width:0.565685;"/>
    <path clip-path="url(#p015362407e)" d="M 220.066593 327.804632 
L 221.83436 326.036866 
L 223.602127 327.804632 
L 225.369893 326.036866 
L 223.602127 324.269099 
L 225.369893 322.501332 
L 223.602127 320.733565 
L 221.83436 322.501332 
L 220.066593 320.733565 
L 218.298826 322.501332 
L 220.066593 324.269099 
L 218.298826 326.036866 
z
" style="fill:#1f77b4;stroke:#ffffff;stroke-width:0.565685;"/>
    <path clip-path="url(#p015362407e)" d="M 231.889481 339.794423 
L 233.657248 338.026656 
L 235.425015 339.794423 
L 237.192782 338.026656 
L 235.425015 336.258889 
L 237.192782 334.491122 
L 235.425015 332.723355 
L 233.657248 334.491122 
L 231.889481 332.723355 
L 230.121715 334.491122 
L 231.889481 336.258889 
L 230.121715 338.026656 
z
" style="fill:#1f77b4;stroke:#ffffff;stroke-width:0.565685;"/>
    <path clip-path="url(#p015362407e)" d="M 282.628721 91.712439 
L 284.396488 89.944672 
L 286.164255 91.712439 
L 287.932022 89.944672 
L 286.164255 88.176905 
L 287.932022 86.409139 
L 286.164255 84.641372 
L 284.396488 86.409139 
L 282.628721 84.641372 
L 280.860954 86.409139 
L 282.628721 88.176905 
L 280.860954 89.944672 
z
" style="fill:#1f77b4;stroke:#ffffff;stroke-width:0.565685;"/>
    <path clip-path="url(#p015362407e)" d="M 266.713412 181.03092 
L 268.481179 179.263153 
L 270.248946 181.03092 
L 272.016713 179.263153 
L 270.248946 177.495386 
L 272.016713 175.727619 
L 270.248946 173.959852 
L 268.481179 175.727619 
L 266.713412 173.959852 
L 264.945645 175.727619 
L 266.713412 177.495386 
L 264.945645 179.263153 
z
" style="fill:#1f77b4;stroke:#ffffff;stroke-width:0.565685;"/>
    <path clip-path="url(#p015362407e)" d="M 218.733231 261.574823 
L 218.733231 266.574823 
L 223.733231 266.574823 
L 223.733231 261.574823 
z
" style="fill:#1f77b4;stroke:#ffffff;stroke-width:0.565685;"/>
    <path clip-path="url(#p015362407e)" d="M 260.285178 272.415102 
L 262.052945 270.647335 
L 263.820712 272.415102 
L 265.588479 270.647335 
L 263.820712 268.879568 
L 265.588479 267.111801 
L 263.820712 265.344034 
L 262.052945 267.111801 
L 260.285178 265.344034 
L 258.517411 267.111801 
L 260.285178 268.879568 
L 258.517411 270.647335 
z
" style="fill:#1f77b4;stroke:#ffffff;stroke-width:0.565685;"/>
    <path clip-path="url(#p015362407e)" d="M 272.192415 243.386331 
L 272.192415 248.386331 
L 277.192415 248.386331 
L 277.192415 243.386331 
z
" style="fill:#1f77b4;stroke:#ffffff;stroke-width:0.565685;"/>
    <path clip-path="url(#p015362407e)" d="M 249.871692 248.737167 
L 251.639459 246.9694 
L 253.407226 248.737167 
L 255.174993 246.9694 
L 253.407226 245.201633 
L 255.174993 243.433866 
L 253.407226 241.666099 
L 251.639459 243.433866 
L 249.871692 241.666099 
L 248.103925 243.433866 
L 249.871692 245.201633 
L 248.103925 246.9694 
z
" style="fill:#1f77b4;stroke:#ffffff;stroke-width:0.565685;"/>
    <path clip-path="url(#p015362407e)" d="M 264.295875 273.932661 
L 266.063642 272.164894 
L 267.831409 273.932661 
L 269.599175 272.164894 
L 267.831409 270.397127 
L 269.599175 268.62936 
L 267.831409 266.861593 
L 266.063642 268.62936 
L 264.295875 266.861593 
L 262.528108 268.62936 
L 264.295875 270.397127 
L 262.528108 272.164894 
z
" style="fill:#1f77b4;stroke:#ffffff;stroke-width:0.565685;"/>
    <path clip-path="url(#p015362407e)" d="M 275.328668 242.278259 
C 276.266302 242.278259 277.16566 241.905732 277.828668 241.242725 
C 278.491676 240.579717 278.864202 239.680359 278.864202 238.742725 
C 278.864202 237.80509 278.491676 236.905732 277.828668 236.242725 
C 277.16566 235.579717 276.266302 235.207191 275.328668 235.207191 
C 274.391033 235.207191 273.491676 235.579717 272.828668 236.242725 
C 272.16566 236.905732 271.793134 237.80509 271.793134 238.742725 
C 271.793134 239.680359 272.16566 240.579717 272.828668 241.242725 
C 273.491676 241.905732 274.391033 242.278259 275.328668 242.278259 
z
" style="fill:#1f77b4;stroke:#ffffff;stroke-width:0.565685;"/>
    <path clip-path="url(#p015362407e)" d="M 197.399498 259.73989 
C 198.337133 259.73989 199.23649 259.367364 199.899498 258.704356 
C 200.562506 258.041348 200.935032 257.141991 200.935032 256.204356 
C 200.935032 255.266722 200.562506 254.367364 199.899498 253.704356 
C 199.23649 253.041348 198.337133 252.668822 197.399498 252.668822 
C 196.461863 252.668822 195.562506 253.041348 194.899498 253.704356 
C 194.23649 254.367364 193.863964 255.266722 193.863964 256.204356 
C 193.863964 257.141991 194.23649 258.041348 194.899498 258.704356 
C 195.562506 259.367364 196.461863 259.73989 197.399498 259.73989 
z
" style="fill:#1f77b4;stroke:#ffffff;stroke-width:0.565685;"/>
    <path clip-path="url(#p015362407e)" d="M 224.073519 394.750428 
L 225.841286 392.982661 
L 227.609053 394.750428 
L 229.37682 392.982661 
L 227.609053 391.214894 
L 229.37682 389.447127 
L 227.609053 387.67936 
L 225.841286 389.447127 
L 224.073519 387.67936 
L 222.305752 389.447127 
L 224.073519 391.214894 
L 222.305752 392.982661 
z
" style="fill:#1f77b4;stroke:#ffffff;stroke-width:0.565685;"/>
    <path clip-path="url(#p015362407e)" d="M 267.830534 289.426795 
C 268.768169 289.426795 269.667526 289.054269 270.330534 288.391262 
C 270.993542 287.728254 271.366068 286.828896 271.366068 285.891262 
C 271.366068 284.953627 270.993542 284.054269 270.330534 283.391262 
C 269.667526 282.728254 268.768169 282.355728 267.830534 282.355728 
C 266.8929 282.355728 265.993542 282.728254 265.330534 283.391262 
C 264.667526 284.054269 264.295 284.953627 264.295 285.891262 
C 264.295 286.828896 264.667526 287.728254 265.330534 288.391262 
C 265.993542 289.054269 266.8929 289.426795 267.830534 289.426795 
z
" style="fill:#1f77b4;stroke:#ffffff;stroke-width:0.565685;"/>
    <path clip-path="url(#p015362407e)" d="M 291.377345 228.252155 
L 293.145112 226.484388 
L 294.912879 228.252155 
L 296.680646 226.484388 
L 294.912879 224.716621 
L 296.680646 222.948854 
L 294.912879 221.181087 
L 293.145112 222.948854 
L 291.377345 221.181087 
L 289.609579 222.948854 
L 291.377345 224.716621 
L 289.609579 226.484388 
z
" style="fill:#1f77b4;stroke:#ffffff;stroke-width:0.565685;"/>
    <path clip-path="url(#p015362407e)" d="M 231.447437 306.352428 
L 233.215204 304.584661 
L 234.982971 306.352428 
L 236.750738 304.584661 
L 234.982971 302.816894 
L 236.750738 301.049127 
L 234.982971 299.28136 
L 233.215204 301.049127 
L 231.447437 299.28136 
L 229.67967 301.049127 
L 231.447437 302.816894 
L 229.67967 304.584661 
z
" style="fill:#1f77b4;stroke:#ffffff;stroke-width:0.565685;"/>
    <path clip-path="url(#p015362407e)" d="M 286.209538 200.629944 
L 287.977305 198.862177 
L 289.745072 200.629944 
L 291.512839 198.862177 
L 289.745072 197.09441 
L 291.512839 195.326643 
L 289.745072 193.558876 
L 287.977305 195.326643 
L 286.209538 193.558876 
L 284.441771 195.326643 
L 286.209538 197.09441 
L 284.441771 198.862177 
z
" style="fill:#1f77b4;stroke:#ffffff;stroke-width:0.565685;"/>
    <path clip-path="url(#p015362407e)" d="M 224.508644 338.59619 
C 225.446278 338.59619 226.345636 338.223664 227.008644 337.560656 
C 227.671651 336.897648 228.044178 335.998291 228.044178 335.060656 
C 228.044178 334.123022 227.671651 333.223664 227.008644 332.560656 
C 226.345636 331.897648 225.446278 331.525122 224.508644 331.525122 
C 223.571009 331.525122 222.671651 331.897648 222.008644 332.560656 
C 221.345636 333.223664 220.97311 334.123022 220.97311 335.060656 
C 220.97311 335.998291 221.345636 336.897648 222.008644 337.560656 
C 222.671651 338.223664 223.571009 338.59619 224.508644 338.59619 
z
" style="fill:#1f77b4;stroke:#ffffff;stroke-width:0.565685;"/>
    <path clip-path="url(#p015362407e)" d="M 272.966968 228.623582 
L 274.734735 226.855815 
L 276.502502 228.623582 
L 278.270269 226.855815 
L 276.502502 225.088048 
L 278.270269 223.320281 
L 276.502502 221.552514 
L 274.734735 223.320281 
L 272.966968 221.552514 
L 271.199202 223.320281 
L 272.966968 225.088048 
L 271.199202 226.855815 
z
" style="fill:#1f77b4;stroke:#ffffff;stroke-width:0.565685;"/>
    <path clip-path="url(#p015362407e)" d="M 237.947288 258.045602 
L 239.715055 256.277835 
L 241.482822 258.045602 
L 243.250589 256.277835 
L 241.482822 254.510068 
L 243.250589 252.742301 
L 241.482822 250.974534 
L 239.715055 252.742301 
L 237.947288 250.974534 
L 236.179521 252.742301 
L 237.947288 254.510068 
L 236.179521 256.277835 
z
" style="fill:#1f77b4;stroke:#ffffff;stroke-width:0.565685;"/>
    <path clip-path="url(#p015362407e)" d="M 266.937621 199.343914 
C 267.875256 199.343914 268.774613 198.971388 269.437621 198.30838 
C 270.100629 197.645373 270.473155 196.746015 270.473155 195.80838 
C 270.473155 194.870746 270.100629 193.971388 269.437621 193.30838 
C 268.774613 192.645373 267.875256 192.272846 266.937621 192.272846 
C 265.999987 192.272846 265.100629 192.645373 264.437621 193.30838 
C 263.774613 193.971388 263.402087 194.870746 263.402087 195.80838 
C 263.402087 196.746015 263.774613 197.645373 264.437621 198.30838 
C 265.100629 198.971388 265.999987 199.343914 266.937621 199.343914 
z
" style="fill:#1f77b4;stroke:#ffffff;stroke-width:0.565685;"/>
    <path clip-path="url(#p015362407e)" d="M 361.223373 203.981395 
C 362.161008 203.981395 363.060365 203.608869 363.723373 202.945861 
C 364.386381 202.282854 364.758907 201.383496 364.758907 200.445861 
C 364.758907 199.508227 364.386381 198.608869 363.723373 197.945861 
C 363.060365 197.282854 362.161008 196.910328 361.223373 196.910328 
C 360.285738 196.910328 359.386381 197.282854 358.723373 197.945861 
C 358.060365 198.608869 357.687839 199.508227 357.687839 200.445861 
C 357.687839 201.383496 358.060365 202.282854 358.723373 202.945861 
C 359.386381 203.608869 360.285738 203.981395 361.223373 203.981395 
z
" style="fill:#1f77b4;stroke:#ffffff;stroke-width:0.565685;"/>
    <path clip-path="url(#p015362407e)" d="M 249.136065 249.630097 
L 250.903832 247.86233 
L 252.671599 249.630097 
L 254.439366 247.86233 
L 252.671599 246.094563 
L 254.439366 244.326796 
L 252.671599 242.559029 
L 250.903832 244.326796 
L 249.136065 242.559029 
L 247.368298 244.326796 
L 249.136065 246.094563 
L 247.368298 247.86233 
z
" style="fill:#1f77b4;stroke:#ffffff;stroke-width:0.565685;"/>
    <path clip-path="url(#p015362407e)" d="M 238.595808 262.906402 
C 239.533443 262.906402 240.432801 262.533876 241.095808 261.870868 
C 241.758816 261.207861 242.131342 260.308503 242.131342 259.370868 
C 242.131342 258.433234 241.758816 257.533876 241.095808 256.870868 
C 240.432801 256.207861 239.533443 255.835334 238.595808 255.835334 
C 237.658174 255.835334 236.758816 256.207861 236.095808 256.870868 
C 235.432801 257.533876 235.060275 258.433234 235.060275 259.370868 
C 235.060275 260.308503 235.432801 261.207861 236.095808 261.870868 
C 236.758816 262.533876 237.658174 262.906402 238.595808 262.906402 
z
" style="fill:#1f77b4;stroke:#ffffff;stroke-width:0.565685;"/>
    <path clip-path="url(#p015362407e)" d="M 242.03351 265.885074 
L 242.03351 270.885074 
L 247.03351 270.885074 
L 247.03351 265.885074 
z
" style="fill:#1f77b4;stroke:#ffffff;stroke-width:0.565685;"/>
    <path clip-path="url(#p015362407e)" d="M 255.932583 269.439452 
L 257.70035 267.671685 
L 259.468117 269.439452 
L 261.235884 267.671685 
L 259.468117 265.903918 
L 261.235884 264.136151 
L 259.468117 262.368384 
L 257.70035 264.136151 
L 255.932583 262.368384 
L 254.164816 264.136151 
L 255.932583 265.903918 
L 254.164816 267.671685 
z
" style="fill:#1f77b4;stroke:#ffffff;stroke-width:0.565685;"/>
    <path clip-path="url(#p015362407e)" d="M 206.43595 477.851346 
L 208.203716 476.083579 
L 209.971483 477.851346 
L 211.73925 476.083579 
L 209.971483 474.315812 
L 211.73925 472.548045 
L 209.971483 470.780278 
L 208.203716 472.548045 
L 206.43595 470.780278 
L 204.668183 472.548045 
L 206.43595 474.315812 
L 204.668183 476.083579 
z
" style="fill:#1f77b4;stroke:#ffffff;stroke-width:0.565685;"/>
    <path clip-path="url(#p015362407e)" d="M 245.179596 320.85536 
L 246.947363 319.087593 
L 248.71513 320.85536 
L 250.482897 319.087593 
L 248.71513 317.319826 
L 250.482897 315.552059 
L 248.71513 313.784292 
L 246.947363 315.552059 
L 245.179596 313.784292 
L 243.411829 315.552059 
L 245.179596 317.319826 
L 243.411829 319.087593 
z
" style="fill:#1f77b4;stroke:#ffffff;stroke-width:0.565685;"/>
    <path clip-path="url(#p015362407e)" d="M 227.023738 277.900174 
L 228.791505 276.132407 
L 230.559272 277.900174 
L 232.327039 276.132407 
L 230.559272 274.36464 
L 232.327039 272.596873 
L 230.559272 270.829106 
L 228.791505 272.596873 
L 227.023738 270.829106 
L 225.255971 272.596873 
L 227.023738 274.36464 
L 225.255971 276.132407 
z
" style="fill:#1f77b4;stroke:#ffffff;stroke-width:0.565685;"/>
    <path clip-path="url(#p015362407e)" d="M 228.708818 299.323747 
L 230.476584 297.55598 
L 232.244351 299.323747 
L 234.012118 297.55598 
L 232.244351 295.788213 
L 234.012118 294.020446 
L 232.244351 292.25268 
L 230.476584 294.020446 
L 228.708818 292.25268 
L 226.941051 294.020446 
L 228.708818 295.788213 
L 226.941051 297.55598 
z
" style="fill:#1f77b4;stroke:#ffffff;stroke-width:0.565685;"/>
    <path clip-path="url(#p015362407e)" d="M 279.814973 235.260236 
L 281.58274 233.49247 
L 283.350507 235.260236 
L 285.118274 233.49247 
L 283.350507 231.724703 
L 285.118274 229.956936 
L 283.350507 228.189169 
L 281.58274 229.956936 
L 279.814973 228.189169 
L 278.047206 229.956936 
L 279.814973 231.724703 
L 278.047206 233.49247 
z
" style="fill:#1f77b4;stroke:#ffffff;stroke-width:0.565685;"/>
    <path clip-path="url(#p015362407e)" d="M 263.665722 194.789082 
C 264.603356 194.789082 265.502714 194.416556 266.165722 193.753548 
C 266.82873 193.090541 267.201256 192.191183 267.201256 191.253548 
C 267.201256 190.315914 266.82873 189.416556 266.165722 188.753548 
C 265.502714 188.090541 264.603356 187.718015 263.665722 187.718015 
C 262.728087 187.718015 261.82873 188.090541 261.165722 188.753548 
C 260.502714 189.416556 260.130188 190.315914 260.130188 191.253548 
C 260.130188 192.191183 260.502714 193.090541 261.165722 193.753548 
C 261.82873 194.416556 262.728087 194.789082 263.665722 194.789082 
z
" style="fill:#1f77b4;stroke:#ffffff;stroke-width:0.565685;"/>
    <path clip-path="url(#p015362407e)" d="M 370.514869 58.959285 
C 371.452504 58.959285 372.351861 58.586759 373.014869 57.923751 
C 373.677877 57.260743 374.050403 56.361386 374.050403 55.423751 
C 374.050403 54.486116 373.677877 53.586759 373.014869 52.923751 
C 372.351861 52.260743 371.452504 51.888217 370.514869 51.888217 
C 369.577235 51.888217 368.677877 52.260743 368.014869 52.923751 
C 367.351861 53.586759 366.979335 54.486116 366.979335 55.423751 
C 366.979335 56.361386 367.351861 57.260743 368.014869 57.923751 
C 368.677877 58.586759 369.577235 58.959285 370.514869 58.959285 
z
" style="fill:#1f77b4;stroke:#ffffff;stroke-width:0.565685;"/>
    <path clip-path="url(#p015362407e)" d="M 283.379359 201.040899 
C 284.316994 201.040899 285.216352 200.668372 285.879359 200.005365 
C 286.542367 199.342357 286.914893 198.442999 286.914893 197.505365 
C 286.914893 196.56773 286.542367 195.668372 285.879359 195.005365 
C 285.216352 194.342357 284.316994 193.969831 283.379359 193.969831 
C 282.441725 193.969831 281.542367 194.342357 280.879359 195.005365 
C 280.216352 195.668372 279.843826 196.56773 279.843826 197.505365 
C 279.843826 198.442999 280.216352 199.342357 280.879359 200.005365 
C 281.542367 200.668372 282.441725 201.040899 283.379359 201.040899 
z
" style="fill:#1f77b4;stroke:#ffffff;stroke-width:0.565685;"/>
    <path clip-path="url(#p015362407e)" d="M 248.003626 299.210379 
L 249.771393 297.442612 
L 251.53916 299.210379 
L 253.306927 297.442612 
L 251.53916 295.674845 
L 253.306927 293.907079 
L 251.53916 292.139312 
L 249.771393 293.907079 
L 248.003626 292.139312 
L 246.235859 293.907079 
L 248.003626 295.674845 
L 246.235859 297.442612 
z
" style="fill:#1f77b4;stroke:#ffffff;stroke-width:0.565685;"/>
    <path clip-path="url(#p015362407e)" d="M 245.830755 289.217428 
L 247.598522 287.449661 
L 249.366289 289.217428 
L 251.134056 287.449661 
L 249.366289 285.681894 
L 251.134056 283.914127 
L 249.366289 282.14636 
L 247.598522 283.914127 
L 245.830755 282.14636 
L 244.062988 283.914127 
L 245.830755 285.681894 
L 244.062988 287.449661 
z
" style="fill:#1f77b4;stroke:#ffffff;stroke-width:0.565685;"/>
    <path clip-path="url(#p015362407e)" d="M 296.489382 282.735941 
L 298.257149 280.968174 
L 300.024916 282.735941 
L 301.792683 280.968174 
L 300.024916 279.200407 
L 301.792683 277.43264 
L 300.024916 275.664873 
L 298.257149 277.43264 
L 296.489382 275.664873 
L 294.721616 277.43264 
L 296.489382 279.200407 
L 294.721616 280.968174 
z
" style="fill:#1f77b4;stroke:#ffffff;stroke-width:0.565685;"/>
    <path clip-path="url(#p015362407e)" d="M 295.423851 259.679283 
L 297.191618 257.911516 
L 298.959385 259.679283 
L 300.727152 257.911516 
L 298.959385 256.143749 
L 300.727152 254.375982 
L 298.959385 252.608215 
L 297.191618 254.375982 
L 295.423851 252.608215 
L 293.656084 254.375982 
L 295.423851 256.143749 
L 293.656084 257.911516 
z
" style="fill:#1f77b4;stroke:#ffffff;stroke-width:0.565685;"/>
    <path clip-path="url(#p015362407e)" d="M 262.652685 238.830753 
L 264.420452 237.062986 
L 266.188219 238.830753 
L 267.955986 237.062986 
L 266.188219 235.295219 
L 267.955986 233.527452 
L 266.188219 231.759685 
L 264.420452 233.527452 
L 262.652685 231.759685 
L 260.884918 233.527452 
L 262.652685 235.295219 
L 260.884918 237.062986 
z
" style="fill:#1f77b4;stroke:#ffffff;stroke-width:0.565685;"/>
    <path clip-path="url(#p015362407e)" d="M 260.455099 229.933268 
L 262.222866 228.165501 
L 263.990633 229.933268 
L 265.7584 228.165501 
L 263.990633 226.397734 
L 265.7584 224.629967 
L 263.990633 222.8622 
L 262.222866 224.629967 
L 260.455099 222.8622 
L 258.687333 224.629967 
L 260.455099 226.397734 
L 258.687333 228.165501 
z
" style="fill:#1f77b4;stroke:#ffffff;stroke-width:0.565685;"/>
    <path clip-path="url(#p015362407e)" d="M 255.148725 234.192856 
L 256.916492 232.425089 
L 258.684259 234.192856 
L 260.452026 232.425089 
L 258.684259 230.657322 
L 260.452026 228.889555 
L 258.684259 227.121788 
L 256.916492 228.889555 
L 255.148725 227.121788 
L 253.380958 228.889555 
L 255.148725 230.657322 
L 253.380958 232.425089 
z
" style="fill:#1f77b4;stroke:#ffffff;stroke-width:0.565685;"/>
    <path clip-path="url(#p015362407e)" d="M 259.977289 283.432257 
L 261.745056 281.66449 
L 263.512823 283.432257 
L 265.28059 281.66449 
L 263.512823 279.896723 
L 265.28059 278.128957 
L 263.512823 276.36119 
L 261.745056 278.128957 
L 259.977289 276.36119 
L 258.209522 278.128957 
L 259.977289 279.896723 
L 258.209522 281.66449 
z
" style="fill:#1f77b4;stroke:#ffffff;stroke-width:0.565685;"/>
    <path clip-path="url(#p015362407e)" d="M 234.353965 212.610337 
L 236.121732 210.84257 
L 237.889499 212.610337 
L 239.657266 210.84257 
L 237.889499 209.074803 
L 239.657266 207.307036 
L 237.889499 205.539269 
L 236.121732 207.307036 
L 234.353965 205.539269 
L 232.586198 207.307036 
L 234.353965 209.074803 
L 232.586198 210.84257 
z
" style="fill:#1f77b4;stroke:#ffffff;stroke-width:0.565685;"/>
    <path clip-path="url(#p015362407e)" d="M 239.588935 342.715277 
L 241.356701 340.94751 
L 243.124468 342.715277 
L 244.892235 340.94751 
L 243.124468 339.179744 
L 244.892235 337.411977 
L 243.124468 335.64421 
L 241.356701 337.411977 
L 239.588935 335.64421 
L 237.821168 337.411977 
L 239.588935 339.179744 
L 237.821168 340.94751 
z
" style="fill:#1f77b4;stroke:#ffffff;stroke-width:0.565685;"/>
    <path clip-path="url(#p015362407e)" d="M 252.459194 318.722392 
L 254.226961 316.954625 
L 255.994728 318.722392 
L 257.762494 316.954625 
L 255.994728 315.186858 
L 257.762494 313.419091 
L 255.994728 311.651324 
L 254.226961 313.419091 
L 252.459194 311.651324 
L 250.691427 313.419091 
L 252.459194 315.186858 
L 250.691427 316.954625 
z
" style="fill:#1f77b4;stroke:#ffffff;stroke-width:0.565685;"/>
    <path clip-path="url(#p015362407e)" d="M 246.414323 267.033277 
L 248.18209 265.26551 
L 249.949856 267.033277 
L 251.717623 265.26551 
L 249.949856 263.497743 
L 251.717623 261.729976 
L 249.949856 259.962209 
L 248.18209 261.729976 
L 246.414323 259.962209 
L 244.646556 261.729976 
L 246.414323 263.497743 
L 244.646556 265.26551 
z
" style="fill:#1f77b4;stroke:#ffffff;stroke-width:0.565685;"/>
    <path clip-path="url(#p015362407e)" d="M 253.027512 212.437321 
L 254.795279 210.669554 
L 256.563046 212.437321 
L 258.330813 210.669554 
L 256.563046 208.901787 
L 258.330813 207.13402 
L 256.563046 205.366253 
L 254.795279 207.13402 
L 253.027512 205.366253 
L 251.259745 207.13402 
L 253.027512 208.901787 
L 251.259745 210.669554 
z
" style="fill:#1f77b4;stroke:#ffffff;stroke-width:0.565685;"/>
    <path clip-path="url(#p015362407e)" d="M 255.249385 188.893477 
L 257.017152 187.12571 
L 258.784919 188.893477 
L 260.552685 187.12571 
L 258.784919 185.357943 
L 260.552685 183.590176 
L 258.784919 181.822409 
L 257.017152 183.590176 
L 255.249385 181.822409 
L 253.481618 183.590176 
L 255.249385 185.357943 
L 253.481618 187.12571 
z
" style="fill:#1f77b4;stroke:#ffffff;stroke-width:0.565685;"/>
    <path clip-path="url(#p015362407e)" d="M 322.654986 126.785672 
L 324.422753 125.017905 
L 326.19052 126.785672 
L 327.958287 125.017905 
L 326.19052 123.250139 
L 327.958287 121.482372 
L 326.19052 119.714605 
L 324.422753 121.482372 
L 322.654986 119.714605 
L 320.887219 121.482372 
L 322.654986 123.250139 
L 320.887219 125.017905 
z
" style="fill:#1f77b4;stroke:#ffffff;stroke-width:0.565685;"/>
    <path clip-path="url(#p015362407e)" d="M 239.250119 295.603272 
L 241.017886 293.835505 
L 242.785653 295.603272 
L 244.55342 293.835505 
L 242.785653 292.067738 
L 244.55342 290.299972 
L 242.785653 288.532205 
L 241.017886 290.299972 
L 239.250119 288.532205 
L 237.482352 290.299972 
L 239.250119 292.067738 
L 237.482352 293.835505 
z
" style="fill:#1f77b4;stroke:#ffffff;stroke-width:0.565685;"/>
    <path clip-path="url(#p015362407e)" d="M 241.109362 315.456108 
L 242.877129 313.688342 
L 244.644895 315.456108 
L 246.412662 313.688342 
L 244.644895 311.920575 
L 246.412662 310.152808 
L 244.644895 308.385041 
L 242.877129 310.152808 
L 241.109362 308.385041 
L 239.341595 310.152808 
L 241.109362 311.920575 
L 239.341595 313.688342 
z
" style="fill:#1f77b4;stroke:#ffffff;stroke-width:0.565685;"/>
    <path clip-path="url(#p015362407e)" d="M 196.672425 262.97707 
L 198.440192 261.209303 
L 200.207959 262.97707 
L 201.975725 261.209303 
L 200.207959 259.441536 
L 201.975725 257.673769 
L 200.207959 255.906002 
L 198.440192 257.673769 
L 196.672425 255.906002 
L 194.904658 257.673769 
L 196.672425 259.441536 
L 194.904658 261.209303 
z
" style="fill:#1f77b4;stroke:#ffffff;stroke-width:0.565685;"/>
    <path clip-path="url(#p015362407e)" d="M 242.46822 47.068773 
L 244.235986 45.301006 
L 246.003753 47.068773 
L 247.77152 45.301006 
L 246.003753 43.533239 
L 247.77152 41.765472 
L 246.003753 39.997705 
L 244.235986 41.765472 
L 242.46822 39.997705 
L 240.700453 41.765472 
L 242.46822 43.533239 
L 240.700453 45.301006 
z
" style="fill:#1f77b4;stroke:#ffffff;stroke-width:0.565685;"/>
    <path clip-path="url(#p015362407e)" d="M 257.385076 321.571262 
L 259.152843 319.803495 
L 260.92061 321.571262 
L 262.688377 319.803495 
L 260.92061 318.035728 
L 262.688377 316.267961 
L 260.92061 314.500194 
L 259.152843 316.267961 
L 257.385076 314.500194 
L 255.617309 316.267961 
L 257.385076 318.035728 
L 255.617309 319.803495 
z
" style="fill:#1f77b4;stroke:#ffffff;stroke-width:0.565685;"/>
    <path clip-path="url(#p015362407e)" d="M 245.151755 305.405062 
L 246.919522 303.637295 
L 248.687289 305.405062 
L 250.455055 303.637295 
L 248.687289 301.869528 
L 250.455055 300.101762 
L 248.687289 298.333995 
L 246.919522 300.101762 
L 245.151755 298.333995 
L 243.383988 300.101762 
L 245.151755 301.869528 
L 243.383988 303.637295 
z
" style="fill:#1f77b4;stroke:#ffffff;stroke-width:0.565685;"/>
    <path clip-path="url(#p015362407e)" d="M 236.619785 295.073984 
L 238.387552 293.306218 
L 240.155319 295.073984 
L 241.923086 293.306218 
L 240.155319 291.538451 
L 241.923086 289.770684 
L 240.155319 288.002917 
L 238.387552 289.770684 
L 236.619785 288.002917 
L 234.852018 289.770684 
L 236.619785 291.538451 
L 234.852018 293.306218 
z
" style="fill:#1f77b4;stroke:#ffffff;stroke-width:0.565685;"/>
    <path clip-path="url(#p015362407e)" d="M 237.373401 287.24466 
L 239.141168 285.476893 
L 240.908935 287.24466 
L 242.676702 285.476893 
L 240.908935 283.709126 
L 242.676702 281.941359 
L 240.908935 280.173592 
L 239.141168 281.941359 
L 237.373401 280.173592 
L 235.605634 281.941359 
L 237.373401 283.709126 
L 235.605634 285.476893 
z
" style="fill:#1f77b4;stroke:#ffffff;stroke-width:0.565685;"/>
    <path clip-path="url(#p015362407e)" d="M 263.34445 221.836665 
L 265.112217 220.068898 
L 266.879984 221.836665 
L 268.647751 220.068898 
L 266.879984 218.301131 
L 268.647751 216.533364 
L 266.879984 214.765597 
L 265.112217 216.533364 
L 263.34445 214.765597 
L 261.576683 216.533364 
L 263.34445 218.301131 
L 261.576683 220.068898 
z
" style="fill:#1f77b4;stroke:#ffffff;stroke-width:0.565685;"/>
    <path clip-path="url(#p015362407e)" d="M 257.930264 248.311184 
L 259.69803 246.543417 
L 261.465797 248.311184 
L 263.233564 246.543417 
L 261.465797 244.775651 
L 263.233564 243.007884 
L 261.465797 241.240117 
L 259.69803 243.007884 
L 257.930264 241.240117 
L 256.162497 243.007884 
L 257.930264 244.775651 
L 256.162497 246.543417 
z
" style="fill:#1f77b4;stroke:#ffffff;stroke-width:0.565685;"/>
    <path clip-path="url(#p015362407e)" d="M 284.674377 320.261631 
L 286.442144 318.493864 
L 288.209911 320.261631 
L 289.977678 318.493864 
L 288.209911 316.726097 
L 289.977678 314.95833 
L 288.209911 313.190563 
L 286.442144 314.95833 
L 284.674377 313.190563 
L 282.90661 314.95833 
L 284.674377 316.726097 
L 282.90661 318.493864 
z
" style="fill:#1f77b4;stroke:#ffffff;stroke-width:0.565685;"/>
    <path clip-path="url(#p015362407e)" d="M 285.798507 242.957148 
L 287.566274 241.189381 
L 289.334041 242.957148 
L 291.101808 241.189381 
L 289.334041 239.421614 
L 291.101808 237.653847 
L 289.334041 235.88608 
L 287.566274 237.653847 
L 285.798507 235.88608 
L 284.03074 237.653847 
L 285.798507 239.421614 
L 284.03074 241.189381 
z
" style="fill:#1f77b4;stroke:#ffffff;stroke-width:0.565685;"/>
    <path clip-path="url(#p015362407e)" d="M 240.755212 303.538477 
L 242.522979 301.77071 
L 244.290746 303.538477 
L 246.058513 301.77071 
L 244.290746 300.002943 
L 246.058513 298.235176 
L 244.290746 296.467409 
L 242.522979 298.235176 
L 240.755212 296.467409 
L 238.987445 298.235176 
L 240.755212 300.002943 
L 238.987445 301.77071 
z
" style="fill:#1f77b4;stroke:#ffffff;stroke-width:0.565685;"/>
    <path clip-path="url(#p015362407e)" d="M 249.950592 321.145099 
L 251.718359 319.377332 
L 253.486126 321.145099 
L 255.253893 319.377332 
L 253.486126 317.609565 
L 255.253893 315.841798 
L 253.486126 314.074031 
L 251.718359 315.841798 
L 249.950592 314.074031 
L 248.182825 315.841798 
L 249.950592 317.609565 
L 248.182825 319.377332 
z
" style="fill:#1f77b4;stroke:#ffffff;stroke-width:0.565685;"/>
    <path clip-path="url(#p015362407e)" d="M 252.843155 231.142106 
L 254.610922 229.37434 
L 256.378689 231.142106 
L 258.146456 229.37434 
L 256.378689 227.606573 
L 258.146456 225.838806 
L 256.378689 224.071039 
L 254.610922 225.838806 
L 252.843155 224.071039 
L 251.075388 225.838806 
L 252.843155 227.606573 
L 251.075388 229.37434 
z
" style="fill:#1f77b4;stroke:#ffffff;stroke-width:0.565685;"/>
    <path clip-path="url(#p015362407e)" d="M 237.86856 338.172962 
L 239.636327 336.405195 
L 241.404094 338.172962 
L 243.171861 336.405195 
L 241.404094 334.637428 
L 243.171861 332.869661 
L 241.404094 331.101894 
L 239.636327 332.869661 
L 237.86856 331.101894 
L 236.100793 332.869661 
L 237.86856 334.637428 
L 236.100793 336.405195 
z
" style="fill:#1f77b4;stroke:#ffffff;stroke-width:0.565685;"/>
    <path clip-path="url(#p015362407e)" d="M 224.085941 285.501085 
L 225.853708 283.733318 
L 227.621475 285.501085 
L 229.389242 283.733318 
L 227.621475 281.965551 
L 229.389242 280.197784 
L 227.621475 278.430017 
L 225.853708 280.197784 
L 224.085941 278.430017 
L 222.318174 280.197784 
L 224.085941 281.965551 
L 222.318174 283.733318 
z
" style="fill:#1f77b4;stroke:#ffffff;stroke-width:0.565685;"/>
    <path clip-path="url(#p015362407e)" d="M 263.659193 267.38404 
L 265.42696 265.616273 
L 267.194727 267.38404 
L 268.962494 265.616273 
L 267.194727 263.848506 
L 268.962494 262.080739 
L 267.194727 260.312972 
L 265.42696 262.080739 
L 263.659193 260.312972 
L 261.891426 262.080739 
L 263.659193 263.848506 
L 261.891426 265.616273 
z
" style="fill:#1f77b4;stroke:#ffffff;stroke-width:0.565685;"/>
    <path clip-path="url(#p015362407e)" d="M 283.688515 222.367752 
L 285.456282 220.599985 
L 287.224049 222.367752 
L 288.991816 220.599985 
L 287.224049 218.832218 
L 288.991816 217.064451 
L 287.224049 215.296684 
L 285.456282 217.064451 
L 283.688515 215.296684 
L 281.920748 217.064451 
L 283.688515 218.832218 
L 281.920748 220.599985 
z
" style="fill:#1f77b4;stroke:#ffffff;stroke-width:0.565685;"/>
    <path clip-path="url(#p015362407e)" d="M 299.184824 242.334374 
L 300.952591 240.566607 
L 302.720358 242.334374 
L 304.488125 240.566607 
L 302.720358 238.79884 
L 304.488125 237.031073 
L 302.720358 235.263306 
L 300.952591 237.031073 
L 299.184824 235.263306 
L 297.417057 237.031073 
L 299.184824 238.79884 
L 297.417057 240.566607 
z
" style="fill:#1f77b4;stroke:#ffffff;stroke-width:0.565685;"/>
    <path clip-path="url(#p015362407e)" d="M 308.271151 241.015702 
L 310.038917 239.247935 
L 311.806684 241.015702 
L 313.574451 239.247935 
L 311.806684 237.480169 
L 313.574451 235.712402 
L 311.806684 233.944635 
L 310.038917 235.712402 
L 308.271151 233.944635 
L 306.503384 235.712402 
L 308.271151 237.480169 
L 306.503384 239.247935 
z
" style="fill:#1f77b4;stroke:#ffffff;stroke-width:0.565685;"/>
    <path clip-path="url(#p015362407e)" d="M 322.863586 109.526447 
L 324.631353 107.75868 
L 326.39912 109.526447 
L 328.166887 107.75868 
L 326.39912 105.990913 
L 328.166887 104.223146 
L 326.39912 102.455379 
L 324.631353 104.223146 
L 322.863586 102.455379 
L 321.095819 104.223146 
L 322.863586 105.990913 
L 321.095819 107.75868 
z
" style="fill:#1f77b4;stroke:#ffffff;stroke-width:0.565685;"/>
    <path clip-path="url(#p015362407e)" d="M 238.265372 268.4737 
L 240.033139 266.705933 
L 241.800906 268.4737 
L 243.568673 266.705933 
L 241.800906 264.938166 
L 243.568673 263.170399 
L 241.800906 261.402632 
L 240.033139 263.170399 
L 238.265372 261.402632 
L 236.497605 263.170399 
L 238.265372 264.938166 
L 236.497605 266.705933 
z
" style="fill:#1f77b4;stroke:#ffffff;stroke-width:0.565685;"/>
    <path clip-path="url(#p015362407e)" d="M 230.883915 308.029771 
L 232.651682 306.262004 
L 234.419449 308.029771 
L 236.187216 306.262004 
L 234.419449 304.494237 
L 236.187216 302.72647 
L 234.419449 300.958703 
L 232.651682 302.72647 
L 230.883915 300.958703 
L 229.116148 302.72647 
L 230.883915 304.494237 
L 229.116148 306.262004 
z
" style="fill:#1f77b4;stroke:#ffffff;stroke-width:0.565685;"/>
    <path clip-path="url(#p015362407e)" d="M 231.170731 305.5782 
L 232.938498 303.810433 
L 234.706265 305.5782 
L 236.474032 303.810433 
L 234.706265 302.042666 
L 236.474032 300.274899 
L 234.706265 298.507133 
L 232.938498 300.274899 
L 231.170731 298.507133 
L 229.402964 300.274899 
L 231.170731 302.042666 
L 229.402964 303.810433 
z
" style="fill:#1f77b4;stroke:#ffffff;stroke-width:0.565685;"/>
    <path clip-path="url(#p015362407e)" d="M 242.871542 250.659569 
L 244.639309 248.891802 
L 246.407076 250.659569 
L 248.174843 248.891802 
L 246.407076 247.124035 
L 248.174843 245.356268 
L 246.407076 243.588501 
L 244.639309 245.356268 
L 242.871542 243.588501 
L 241.103775 245.356268 
L 242.871542 247.124035 
L 241.103775 248.891802 
z
" style="fill:#1f77b4;stroke:#ffffff;stroke-width:0.565685;"/>
    <path clip-path="url(#p015362407e)" d="M 243.303135 401.979556 
L 245.070902 400.211789 
L 246.838669 401.979556 
L 248.606436 400.211789 
L 246.838669 398.444022 
L 248.606436 396.676255 
L 246.838669 394.908488 
L 245.070902 396.676255 
L 243.303135 394.908488 
L 241.535368 396.676255 
L 243.303135 398.444022 
L 241.535368 400.211789 
z
" style="fill:#1f77b4;stroke:#ffffff;stroke-width:0.565685;"/>
    <path clip-path="url(#p015362407e)" d="M 302.102831 127.033008 
L 303.870598 125.265241 
L 305.638365 127.033008 
L 307.406132 125.265241 
L 305.638365 123.497474 
L 307.406132 121.729707 
L 305.638365 119.96194 
L 303.870598 121.729707 
L 302.102831 119.96194 
L 300.335064 121.729707 
L 302.102831 123.497474 
L 300.335064 125.265241 
z
" style="fill:#1f77b4;stroke:#ffffff;stroke-width:0.565685;"/>
    <path clip-path="url(#p015362407e)" d="M 247.394787 269.208944 
L 249.162554 267.441177 
L 250.930321 269.208944 
L 252.698088 267.441177 
L 250.930321 265.67341 
L 252.698088 263.905643 
L 250.930321 262.137876 
L 249.162554 263.905643 
L 247.394787 262.137876 
L 245.62702 263.905643 
L 247.394787 265.67341 
L 245.62702 267.441177 
z
" style="fill:#1f77b4;stroke:#ffffff;stroke-width:0.565685;"/>
    <path clip-path="url(#p015362407e)" d="M 255.748655 228.60837 
L 257.516422 226.840603 
L 259.284189 228.60837 
L 261.051956 226.840603 
L 259.284189 225.072836 
L 261.051956 223.305069 
L 259.284189 221.537302 
L 257.516422 223.305069 
L 255.748655 221.537302 
L 253.980888 223.305069 
L 255.748655 225.072836 
L 253.980888 226.840603 
z
" style="fill:#1f77b4;stroke:#ffffff;stroke-width:0.565685;"/>
    <path clip-path="url(#p015362407e)" d="M 242.414164 328.844406 
L 244.181931 327.076639 
L 245.949698 328.844406 
L 247.717465 327.076639 
L 245.949698 325.308872 
L 247.717465 323.541105 
L 245.949698 321.773338 
L 244.181931 323.541105 
L 242.414164 321.773338 
L 240.646397 323.541105 
L 242.414164 325.308872 
L 240.646397 327.076639 
z
" style="fill:#1f77b4;stroke:#ffffff;stroke-width:0.565685;"/>
    <path clip-path="url(#p015362407e)" d="M 260.126265 250.470263 
L 261.894032 248.702496 
L 263.661799 250.470263 
L 265.429566 248.702496 
L 263.661799 246.934729 
L 265.429566 245.166962 
L 263.661799 243.399195 
L 261.894032 245.166962 
L 260.126265 243.399195 
L 258.358498 245.166962 
L 260.126265 246.934729 
L 258.358498 248.702496 
z
" style="fill:#1f77b4;stroke:#ffffff;stroke-width:0.565685;"/>
    <path clip-path="url(#p015362407e)" d="M 237.149895 282.759117 
L 238.917662 280.99135 
L 240.685429 282.759117 
L 242.453196 280.99135 
L 240.685429 279.223583 
L 242.453196 277.455816 
L 240.685429 275.688049 
L 238.917662 277.455816 
L 237.149895 275.688049 
L 235.382128 277.455816 
L 237.149895 279.223583 
L 235.382128 280.99135 
z
" style="fill:#1f77b4;stroke:#ffffff;stroke-width:0.565685;"/>
    <path clip-path="url(#p015362407e)" d="M 240.558862 309.81401 
L 242.326629 308.046244 
L 244.094396 309.81401 
L 245.862163 308.046244 
L 244.094396 306.278477 
L 245.862163 304.51071 
L 244.094396 302.742943 
L 242.326629 304.51071 
L 240.558862 302.742943 
L 238.791095 304.51071 
L 240.558862 306.278477 
L 238.791095 308.046244 
z
" style="fill:#1f77b4;stroke:#ffffff;stroke-width:0.565685;"/>
    <path clip-path="url(#p015362407e)" d="M 271.457507 224.955628 
L 273.225274 223.187861 
L 274.993041 224.955628 
L 276.760808 223.187861 
L 274.993041 221.420094 
L 276.760808 219.652327 
L 274.993041 217.88456 
L 273.225274 219.652327 
L 271.457507 217.88456 
L 269.68974 219.652327 
L 271.457507 221.420094 
L 269.68974 223.187861 
z
" style="fill:#1f77b4;stroke:#ffffff;stroke-width:0.565685;"/>
    <path clip-path="url(#p015362407e)" d="M 253.126029 218.537501 
L 254.893796 216.769734 
L 256.661563 218.537501 
L 258.42933 216.769734 
L 256.661563 215.001967 
L 258.42933 213.2342 
L 256.661563 211.466433 
L 254.893796 213.2342 
L 253.126029 211.466433 
L 251.358263 213.2342 
L 253.126029 215.001967 
L 251.358263 216.769734 
z
" style="fill:#1f77b4;stroke:#ffffff;stroke-width:0.565685;"/>
    <path clip-path="url(#p015362407e)" d="M 275.503242 127.511388 
L 277.271009 125.743621 
L 279.038776 127.511388 
L 280.806543 125.743621 
L 279.038776 123.975854 
L 280.806543 122.208087 
L 279.038776 120.44032 
L 277.271009 122.208087 
L 275.503242 120.44032 
L 273.735475 122.208087 
L 275.503242 123.975854 
L 273.735475 125.743621 
z
" style="fill:#1f77b4;stroke:#ffffff;stroke-width:0.565685;"/>
    <path clip-path="url(#p015362407e)" d="M 265.145353 285.78669 
L 266.91312 284.018923 
L 268.680887 285.78669 
L 270.448654 284.018923 
L 268.680887 282.251156 
L 270.448654 280.483389 
L 268.680887 278.715622 
L 266.91312 280.483389 
L 265.145353 278.715622 
L 263.377586 280.483389 
L 265.145353 282.251156 
L 263.377586 284.018923 
z
" style="fill:#1f77b4;stroke:#ffffff;stroke-width:0.565685;"/>
    <path clip-path="url(#p015362407e)" d="M 255.157549 244.867932 
L 256.925316 243.100165 
L 258.693083 244.867932 
L 260.46085 243.100165 
L 258.693083 241.332398 
L 260.46085 239.564631 
L 258.693083 237.796864 
L 256.925316 239.564631 
L 255.157549 237.796864 
L 253.389782 239.564631 
L 255.157549 241.332398 
L 253.389782 243.100165 
z
" style="fill:#1f77b4;stroke:#ffffff;stroke-width:0.565685;"/>
    <path clip-path="url(#p015362407e)" d="M 222.75561 241.962411 
L 224.523377 240.194644 
L 226.291144 241.962411 
L 228.058911 240.194644 
L 226.291144 238.426877 
L 228.058911 236.65911 
L 226.291144 234.891343 
L 224.523377 236.65911 
L 222.75561 234.891343 
L 220.987844 236.65911 
L 222.75561 238.426877 
L 220.987844 240.194644 
z
" style="fill:#1f77b4;stroke:#ffffff;stroke-width:0.565685;"/>
    <path clip-path="url(#p015362407e)" d="M 237.362008 248.280823 
L 239.129775 246.513056 
L 240.897542 248.280823 
L 242.665309 246.513056 
L 240.897542 244.745289 
L 242.665309 242.977522 
L 240.897542 241.209755 
L 239.129775 242.977522 
L 237.362008 241.209755 
L 235.594241 242.977522 
L 237.362008 244.745289 
L 235.594241 246.513056 
z
" style="fill:#1f77b4;stroke:#ffffff;stroke-width:0.565685;"/>
    <path clip-path="url(#p015362407e)" d="M 248.863814 290.867398 
L 250.631581 289.099631 
L 252.399347 290.867398 
L 254.167114 289.099631 
L 252.399347 287.331864 
L 254.167114 285.564097 
L 252.399347 283.79633 
L 250.631581 285.564097 
L 248.863814 283.79633 
L 247.096047 285.564097 
L 248.863814 287.331864 
L 247.096047 289.099631 
z
" style="fill:#1f77b4;stroke:#ffffff;stroke-width:0.565685;"/>
    <path clip-path="url(#p015362407e)" d="M 278.716545 172.056059 
L 280.484312 170.288292 
L 282.252078 172.056059 
L 284.019845 170.288292 
L 282.252078 168.520525 
L 284.019845 166.752758 
L 282.252078 164.984991 
L 280.484312 166.752758 
L 278.716545 164.984991 
L 276.948778 166.752758 
L 278.716545 168.520525 
L 276.948778 170.288292 
z
" style="fill:#1f77b4;stroke:#ffffff;stroke-width:0.565685;"/>
    <path clip-path="url(#p015362407e)" d="M 258.590675 218.134935 
L 260.358442 216.367168 
L 262.126209 218.134935 
L 263.893975 216.367168 
L 262.126209 214.599402 
L 263.893975 212.831635 
L 262.126209 211.063868 
L 260.358442 212.831635 
L 258.590675 211.063868 
L 256.822908 212.831635 
L 258.590675 214.599402 
L 256.822908 216.367168 
z
" style="fill:#1f77b4;stroke:#ffffff;stroke-width:0.565685;"/>
    <path clip-path="url(#p015362407e)" d="M 256.900455 204.519667 
L 258.668222 202.7519 
L 260.435989 204.519667 
L 262.203756 202.7519 
L 260.435989 200.984133 
L 262.203756 199.216366 
L 260.435989 197.448599 
L 258.668222 199.216366 
L 256.900455 197.448599 
L 255.132688 199.216366 
L 256.900455 200.984133 
L 255.132688 202.7519 
z
" style="fill:#1f77b4;stroke:#ffffff;stroke-width:0.565685;"/>
    <path clip-path="url(#p015362407e)" d="M 250.7198 281.032849 
L 252.487567 279.265082 
L 254.255334 281.032849 
L 256.023101 279.265082 
L 254.255334 277.497315 
L 256.023101 275.729548 
L 254.255334 273.961781 
L 252.487567 275.729548 
L 250.7198 273.961781 
L 248.952033 275.729548 
L 250.7198 277.497315 
L 248.952033 279.265082 
z
" style="fill:#1f77b4;stroke:#ffffff;stroke-width:0.565685;"/>
    <path clip-path="url(#p015362407e)" d="M 234.159669 318.052487 
L 235.927436 316.28472 
L 237.695203 318.052487 
L 239.46297 316.28472 
L 237.695203 314.516953 
L 239.46297 312.749187 
L 237.695203 310.98142 
L 235.927436 312.749187 
L 234.159669 310.98142 
L 232.391903 312.749187 
L 234.159669 314.516953 
L 232.391903 316.28472 
z
" style="fill:#1f77b4;stroke:#ffffff;stroke-width:0.565685;"/>
    <path clip-path="url(#p015362407e)" d="M 255.581603 234.031038 
L 257.34937 232.263271 
L 259.117137 234.031038 
L 260.884904 232.263271 
L 259.117137 230.495504 
L 260.884904 228.727737 
L 259.117137 226.95997 
L 257.34937 228.727737 
L 255.581603 226.95997 
L 253.813836 228.727737 
L 255.581603 230.495504 
L 253.813836 232.263271 
z
" style="fill:#1f77b4;stroke:#ffffff;stroke-width:0.565685;"/>
    <path clip-path="url(#p015362407e)" d="M 261.010354 265.743172 
L 262.778121 263.975405 
L 264.545888 265.743172 
L 266.313654 263.975405 
L 264.545888 262.207638 
L 266.313654 260.439871 
L 264.545888 258.672104 
L 262.778121 260.439871 
L 261.010354 258.672104 
L 259.242587 260.439871 
L 261.010354 262.207638 
L 259.242587 263.975405 
z
" style="fill:#1f77b4;stroke:#ffffff;stroke-width:0.565685;"/>
    <path clip-path="url(#p015362407e)" d="M 238.420515 284.790275 
L 240.188282 283.022508 
L 241.956049 284.790275 
L 243.723816 283.022508 
L 241.956049 281.254741 
L 243.723816 279.486974 
L 241.956049 277.719207 
L 240.188282 279.486974 
L 238.420515 277.719207 
L 236.652748 279.486974 
L 238.420515 281.254741 
L 236.652748 283.022508 
z
" style="fill:#1f77b4;stroke:#ffffff;stroke-width:0.565685;"/>
    <path clip-path="url(#p015362407e)" d="M 269.92166 298.680911 
L 271.689427 296.913144 
L 273.457193 298.680911 
L 275.22496 296.913144 
L 273.457193 295.145377 
L 275.22496 293.37761 
L 273.457193 291.609843 
L 271.689427 293.37761 
L 269.92166 291.609843 
L 268.153893 293.37761 
L 269.92166 295.145377 
L 268.153893 296.913144 
z
" style="fill:#1f77b4;stroke:#ffffff;stroke-width:0.565685;"/>
    <path clip-path="url(#p015362407e)" d="M 251.586927 261.160072 
L 253.354694 259.392305 
L 255.122461 261.160072 
L 256.890228 259.392305 
L 255.122461 257.624538 
L 256.890228 255.856771 
L 255.122461 254.089004 
L 253.354694 255.856771 
L 251.586927 254.089004 
L 249.81916 255.856771 
L 251.586927 257.624538 
L 249.81916 259.392305 
z
" style="fill:#1f77b4;stroke:#ffffff;stroke-width:0.565685;"/>
    <path clip-path="url(#p015362407e)" d="M 245.728297 293.812027 
L 247.496064 292.04426 
L 249.263831 293.812027 
L 251.031598 292.04426 
L 249.263831 290.276493 
L 251.031598 288.508726 
L 249.263831 286.740959 
L 247.496064 288.508726 
L 245.728297 286.740959 
L 243.96053 288.508726 
L 245.728297 290.276493 
L 243.96053 292.04426 
z
" style="fill:#1f77b4;stroke:#ffffff;stroke-width:0.565685;"/>
    <path clip-path="url(#p015362407e)" d="M 244.4145 227.935707 
L 246.182267 226.16794 
L 247.950034 227.935707 
L 249.717801 226.16794 
L 247.950034 224.400173 
L 249.717801 222.632406 
L 247.950034 220.864639 
L 246.182267 222.632406 
L 244.4145 220.864639 
L 242.646733 222.632406 
L 244.4145 224.400173 
L 242.646733 226.16794 
z
" style="fill:#1f77b4;stroke:#ffffff;stroke-width:0.565685;"/>
    <path clip-path="url(#p015362407e)" d="M 233.325097 281.861757 
L 235.092864 280.09399 
L 236.860631 281.861757 
L 238.628398 280.09399 
L 236.860631 278.326223 
L 238.628398 276.558456 
L 236.860631 274.790689 
L 235.092864 276.558456 
L 233.325097 274.790689 
L 231.55733 276.558456 
L 233.325097 278.326223 
L 231.55733 280.09399 
z
" style="fill:#1f77b4;stroke:#ffffff;stroke-width:0.565685;"/>
    <path clip-path="url(#p015362407e)" d="M 240.505491 257.674476 
L 242.273258 255.906709 
L 244.041025 257.674476 
L 245.808792 255.906709 
L 244.041025 254.138942 
L 245.808792 252.371176 
L 244.041025 250.603409 
L 242.273258 252.371176 
L 240.505491 250.603409 
L 238.737724 252.371176 
L 240.505491 254.138942 
L 238.737724 255.906709 
z
" style="fill:#1f77b4;stroke:#ffffff;stroke-width:0.565685;"/>
    <path clip-path="url(#p015362407e)" d="M 258.730398 283.688697 
L 260.498165 281.92093 
L 262.265932 283.688697 
L 264.033699 281.92093 
L 262.265932 280.153163 
L 264.033699 278.385396 
L 262.265932 276.617629 
L 260.498165 278.385396 
L 258.730398 276.617629 
L 256.962631 278.385396 
L 258.730398 280.153163 
L 256.962631 281.92093 
z
" style="fill:#1f77b4;stroke:#ffffff;stroke-width:0.565685;"/>
    <path clip-path="url(#p015362407e)" d="M 244.28814 127.958456 
L 246.055907 126.190689 
L 247.823674 127.958456 
L 249.591441 126.190689 
L 247.823674 124.422922 
L 249.591441 122.655155 
L 247.823674 120.887388 
L 246.055907 122.655155 
L 244.28814 120.887388 
L 242.520373 122.655155 
L 244.28814 124.422922 
L 242.520373 126.190689 
z
" style="fill:#1f77b4;stroke:#ffffff;stroke-width:0.565685;"/>
    <path clip-path="url(#p015362407e)" d="M 327.719134 201.501315 
L 329.486901 199.733549 
L 331.254668 201.501315 
L 333.022435 199.733549 
L 331.254668 197.965782 
L 333.022435 196.198015 
L 331.254668 194.430248 
L 329.486901 196.198015 
L 327.719134 194.430248 
L 325.951367 196.198015 
L 327.719134 197.965782 
L 325.951367 199.733549 
z
" style="fill:#1f77b4;stroke:#ffffff;stroke-width:0.565685;"/>
    <path clip-path="url(#p015362407e)" d="M 375.512101 247.797527 
L 377.279868 246.02976 
L 379.047635 247.797527 
L 380.815402 246.02976 
L 379.047635 244.261993 
L 380.815402 242.494226 
L 379.047635 240.726459 
L 377.279868 242.494226 
L 375.512101 240.726459 
L 373.744335 242.494226 
L 375.512101 244.261993 
L 373.744335 246.02976 
z
" style="fill:#1f77b4;stroke:#ffffff;stroke-width:0.565685;"/>
    <path clip-path="url(#p015362407e)" d="M 225.806574 303.374923 
L 227.574341 301.607156 
L 229.342108 303.374923 
L 231.109875 301.607156 
L 229.342108 299.839389 
L 231.109875 298.071622 
L 229.342108 296.303855 
L 227.574341 298.071622 
L 225.806574 296.303855 
L 224.038807 298.071622 
L 225.806574 299.839389 
L 224.038807 301.607156 
z
" style="fill:#1f77b4;stroke:#ffffff;stroke-width:0.565685;"/>
    <path clip-path="url(#p015362407e)" d="M 243.744495 302.047449 
L 245.512262 300.279682 
L 247.280028 302.047449 
L 249.047795 300.279682 
L 247.280028 298.511915 
L 249.047795 296.744148 
L 247.280028 294.976381 
L 245.512262 296.744148 
L 243.744495 294.976381 
L 241.976728 296.744148 
L 243.744495 298.511915 
L 241.976728 300.279682 
z
" style="fill:#1f77b4;stroke:#ffffff;stroke-width:0.565685;"/>
    <path clip-path="url(#p015362407e)" d="M 247.134872 290.645155 
L 248.902639 288.877388 
L 250.670406 290.645155 
L 252.438173 288.877388 
L 250.670406 287.109621 
L 252.438173 285.341854 
L 250.670406 283.574087 
L 248.902639 285.341854 
L 247.134872 283.574087 
L 245.367105 285.341854 
L 247.134872 287.109621 
L 245.367105 288.877388 
z
" style="fill:#1f77b4;stroke:#ffffff;stroke-width:0.565685;"/>
    <path clip-path="url(#p015362407e)" d="M 255.777182 271.04313 
L 257.544949 269.275363 
L 259.312716 271.04313 
L 261.080483 269.275363 
L 259.312716 267.507596 
L 261.080483 265.739829 
L 259.312716 263.972062 
L 257.544949 265.739829 
L 255.777182 263.972062 
L 254.009415 265.739829 
L 255.777182 267.507596 
L 254.009415 269.275363 
z
" style="fill:#1f77b4;stroke:#ffffff;stroke-width:0.565685;"/>
    <path clip-path="url(#p015362407e)" d="M 266.119067 212.337309 
C 267.056702 212.337309 267.956059 211.964783 268.619067 211.301775 
C 269.282075 210.638767 269.654601 209.73941 269.654601 208.801775 
C 269.654601 207.864141 269.282075 206.964783 268.619067 206.301775 
C 267.956059 205.638767 267.056702 205.266241 266.119067 205.266241 
C 265.181433 205.266241 264.282075 205.638767 263.619067 206.301775 
C 262.956059 206.964783 262.583533 207.864141 262.583533 208.801775 
C 262.583533 209.73941 262.956059 210.638767 263.619067 211.301775 
C 264.282075 211.964783 265.181433 212.337309 266.119067 212.337309 
z
" style="fill:#1f77b4;stroke:#ffffff;stroke-width:0.565685;"/>
    <path clip-path="url(#p015362407e)" d="M 318.164398 144.406115 
C 319.102033 144.406115 320.001391 144.033589 320.664398 143.370581 
C 321.327406 142.707574 321.699932 141.808216 321.699932 140.870581 
C 321.699932 139.932947 321.327406 139.033589 320.664398 138.370581 
C 320.001391 137.707574 319.102033 137.335047 318.164398 137.335047 
C 317.226764 137.335047 316.327406 137.707574 315.664398 138.370581 
C 315.001391 139.033589 314.628864 139.932947 314.628864 140.870581 
C 314.628864 141.808216 315.001391 142.707574 315.664398 143.370581 
C 316.327406 144.033589 317.226764 144.406115 318.164398 144.406115 
z
" style="fill:#1f77b4;stroke:#ffffff;stroke-width:0.565685;"/>
    <path clip-path="url(#p015362407e)" d="M 286.848207 248.018034 
C 287.785841 248.018034 288.685199 247.645508 289.348207 246.9825 
C 290.011215 246.319492 290.383741 245.420134 290.383741 244.4825 
C 290.383741 243.544865 290.011215 242.645508 289.348207 241.9825 
C 288.685199 241.319492 287.785841 240.946966 286.848207 240.946966 
C 285.910572 240.946966 285.011215 241.319492 284.348207 241.9825 
C 283.685199 242.645508 283.312673 243.544865 283.312673 244.4825 
C 283.312673 245.420134 283.685199 246.319492 284.348207 246.9825 
C 285.011215 247.645508 285.910572 248.018034 286.848207 248.018034 
z
" style="fill:#1f77b4;stroke:#ffffff;stroke-width:0.565685;"/>
    <path clip-path="url(#p015362407e)" d="M 262.351068 307.959222 
C 263.288702 307.959222 264.18806 307.586696 264.851068 306.923688 
C 265.514075 306.26068 265.886602 305.361323 265.886602 304.423688 
C 265.886602 303.486054 265.514075 302.586696 264.851068 301.923688 
C 264.18806 301.26068 263.288702 300.888154 262.351068 300.888154 
C 261.413433 300.888154 260.514075 301.26068 259.851068 301.923688 
C 259.18806 302.586696 258.815534 303.486054 258.815534 304.423688 
C 258.815534 305.361323 259.18806 306.26068 259.851068 306.923688 
C 260.514075 307.586696 261.413433 307.959222 262.351068 307.959222 
z
" style="fill:#1f77b4;stroke:#ffffff;stroke-width:0.565685;"/>
    <path clip-path="url(#p015362407e)" d="M 205.02545 223.943222 
C 205.963085 223.943222 206.862443 223.570696 207.52545 222.907689 
C 208.188458 222.244681 208.560984 221.345323 208.560984 220.407689 
C 208.560984 219.470054 208.188458 218.570696 207.52545 217.907689 
C 206.862443 217.244681 205.963085 216.872155 205.02545 216.872155 
C 204.087816 216.872155 203.188458 217.244681 202.52545 217.907689 
C 201.862443 218.570696 201.489916 219.470054 201.489916 220.407689 
C 201.489916 221.345323 201.862443 222.244681 202.52545 222.907689 
C 203.188458 223.570696 204.087816 223.943222 205.02545 223.943222 
z
" style="fill:#1f77b4;stroke:#ffffff;stroke-width:0.565685;"/>
    <path clip-path="url(#p015362407e)" d="M 185.952781 351.244388 
C 186.890415 351.244388 187.789773 350.871862 188.452781 350.208854 
C 189.115789 349.545846 189.488315 348.646489 189.488315 347.708854 
C 189.488315 346.77122 189.115789 345.871862 188.452781 345.208854 
C 187.789773 344.545846 186.890415 344.17332 185.952781 344.17332 
C 185.015146 344.17332 184.115789 344.545846 183.452781 345.208854 
C 182.789773 345.871862 182.417247 346.77122 182.417247 347.708854 
C 182.417247 348.646489 182.789773 349.545846 183.452781 350.208854 
C 184.115789 350.871862 185.015146 351.244388 185.952781 351.244388 
z
" style="fill:#1f77b4;stroke:#ffffff;stroke-width:0.565685;"/>
    <path clip-path="url(#p015362407e)" d="M 273.989086 60.492172 
C 274.926721 60.492172 275.826078 60.119645 276.489086 59.456638 
C 277.152094 58.79363 277.52462 57.894272 277.52462 56.956638 
C 277.52462 56.019003 277.152094 55.119645 276.489086 54.456638 
C 275.826078 53.79363 274.926721 53.421104 273.989086 53.421104 
C 273.051451 53.421104 272.152094 53.79363 271.489086 54.456638 
C 270.826078 55.119645 270.453552 56.019003 270.453552 56.956638 
C 270.453552 57.894272 270.826078 58.79363 271.489086 59.456638 
C 272.152094 60.119645 273.051451 60.492172 273.989086 60.492172 
z
" style="fill:#1f77b4;stroke:#ffffff;stroke-width:0.565685;"/>
    <path clip-path="url(#p015362407e)" d="M 243.239502 259.677846 
C 244.177137 259.677846 245.076494 259.30532 245.739502 258.642312 
C 246.40251 257.979305 246.775036 257.079947 246.775036 256.142312 
C 246.775036 255.204678 246.40251 254.30532 245.739502 253.642312 
C 245.076494 252.979305 244.177137 252.606778 243.239502 252.606778 
C 242.301868 252.606778 241.40251 252.979305 240.739502 253.642312 
C 240.076494 254.30532 239.703968 255.204678 239.703968 256.142312 
C 239.703968 257.079947 240.076494 257.979305 240.739502 258.642312 
C 241.40251 259.30532 242.301868 259.677846 243.239502 259.677846 
z
" style="fill:#1f77b4;stroke:#ffffff;stroke-width:0.565685;"/>
    <path clip-path="url(#p015362407e)" d="M 263.710954 234.466841 
C 264.648589 234.466841 265.547946 234.094315 266.210954 233.431307 
C 266.873962 232.768299 267.246488 231.868942 267.246488 230.931307 
C 267.246488 229.993673 266.873962 229.094315 266.210954 228.431307 
C 265.547946 227.768299 264.648589 227.395773 263.710954 227.395773 
C 262.77332 227.395773 261.873962 227.768299 261.210954 228.431307 
C 260.547946 229.094315 260.17542 229.993673 260.17542 230.931307 
C 260.17542 231.868942 260.547946 232.768299 261.210954 233.431307 
C 261.873962 234.094315 262.77332 234.466841 263.710954 234.466841 
z
" style="fill:#1f77b4;stroke:#ffffff;stroke-width:0.565685;"/>
    <path clip-path="url(#p015362407e)" d="M 242.374261 271.258667 
C 243.311895 271.258667 244.211253 270.88614 244.874261 270.223133 
C 245.537268 269.560125 245.909794 268.660767 245.909794 267.723133 
C 245.909794 266.785498 245.537268 265.88614 244.874261 265.223133 
C 244.211253 264.560125 243.311895 264.187599 242.374261 264.187599 
C 241.436626 264.187599 240.537268 264.560125 239.874261 265.223133 
C 239.211253 265.88614 238.838727 266.785498 238.838727 267.723133 
C 238.838727 268.660767 239.211253 269.560125 239.874261 270.223133 
C 240.537268 270.88614 241.436626 271.258667 242.374261 271.258667 
z
" style="fill:#1f77b4;stroke:#ffffff;stroke-width:0.565685;"/>
    <path clip-path="url(#p015362407e)" d="M 275.256793 272.574942 
C 276.194428 272.574942 277.093786 272.202416 277.756793 271.539409 
C 278.419801 270.876401 278.792327 269.977043 278.792327 269.039409 
C 278.792327 268.101774 278.419801 267.202416 277.756793 266.539409 
C 277.093786 265.876401 276.194428 265.503875 275.256793 265.503875 
C 274.319159 265.503875 273.419801 265.876401 272.756793 266.539409 
C 272.093786 267.202416 271.721259 268.101774 271.721259 269.039409 
C 271.721259 269.977043 272.093786 270.876401 272.756793 271.539409 
C 273.419801 272.202416 274.319159 272.574942 275.256793 272.574942 
z
" style="fill:#1f77b4;stroke:#ffffff;stroke-width:0.565685;"/>
    <path clip-path="url(#p015362407e)" d="M 235.140221 188.551399 
L 236.907988 186.783632 
L 238.675755 188.551399 
L 240.443521 186.783632 
L 238.675755 185.015865 
L 240.443521 183.248098 
L 238.675755 181.480331 
L 236.907988 183.248098 
L 235.140221 181.480331 
L 233.372454 183.248098 
L 235.140221 185.015865 
L 233.372454 186.783632 
z
" style="fill:#1f77b4;stroke:#ffffff;stroke-width:0.565685;"/>
    <path clip-path="url(#p015362407e)" d="M 257.791243 254.826448 
C 258.728878 254.826448 259.628235 254.453922 260.291243 253.790914 
C 260.954251 253.127906 261.326777 252.228549 261.326777 251.290914 
C 261.326777 250.353279 260.954251 249.453922 260.291243 248.790914 
C 259.628235 248.127906 258.728878 247.75538 257.791243 247.75538 
C 256.853609 247.75538 255.954251 248.127906 255.291243 248.790914 
C 254.628235 249.453922 254.255709 250.353279 254.255709 251.290914 
C 254.255709 252.228549 254.628235 253.127906 255.291243 253.790914 
C 255.954251 254.453922 256.853609 254.826448 257.791243 254.826448 
z
" style="fill:#1f77b4;stroke:#ffffff;stroke-width:0.565685;"/>
    <path clip-path="url(#p015362407e)" d="M 270.174379 269.870825 
L 271.942146 268.103058 
L 273.709913 269.870825 
L 275.47768 268.103058 
L 273.709913 266.335291 
L 275.47768 264.567524 
L 273.709913 262.799757 
L 271.942146 264.567524 
L 270.174379 262.799757 
L 268.406612 264.567524 
L 270.174379 266.335291 
L 268.406612 268.103058 
z
" style="fill:#1f77b4;stroke:#ffffff;stroke-width:0.565685;"/>
    <path clip-path="url(#p015362407e)" d="M 228.138957 276.386148 
L 229.906724 274.618381 
L 231.674491 276.386148 
L 233.442258 274.618381 
L 231.674491 272.850614 
L 233.442258 271.082847 
L 231.674491 269.31508 
L 229.906724 271.082847 
L 228.138957 269.31508 
L 226.37119 271.082847 
L 228.138957 272.850614 
L 226.37119 274.618381 
z
" style="fill:#1f77b4;stroke:#ffffff;stroke-width:0.565685;"/>
    <path clip-path="url(#p015362407e)" d="M 212.846705 378.298861 
L 214.614472 376.531094 
L 216.382239 378.298861 
L 218.150006 376.531094 
L 216.382239 374.763327 
L 218.150006 372.99556 
L 216.382239 371.227793 
L 214.614472 372.99556 
L 212.846705 371.227793 
L 211.078938 372.99556 
L 212.846705 374.763327 
L 211.078938 376.531094 
z
" style="fill:#1f77b4;stroke:#ffffff;stroke-width:0.565685;"/>
    <path clip-path="url(#p015362407e)" d="M 231.97018 347.76934 
L 233.737947 346.001573 
L 235.505714 347.76934 
L 237.273481 346.001573 
L 235.505714 344.233806 
L 237.273481 342.466039 
L 235.505714 340.698272 
L 233.737947 342.466039 
L 231.97018 340.698272 
L 230.202413 342.466039 
L 231.97018 344.233806 
L 230.202413 346.001573 
z
" style="fill:#1f77b4;stroke:#ffffff;stroke-width:0.565685;"/>
    <path clip-path="url(#p015362407e)" d="M 183.644793 349.698561 
L 185.41256 347.930794 
L 187.180327 349.698561 
L 188.948094 347.930794 
L 187.180327 346.163027 
L 188.948094 344.39526 
L 187.180327 342.627493 
L 185.41256 344.39526 
L 183.644793 342.627493 
L 181.877026 344.39526 
L 183.644793 346.163027 
L 181.877026 347.930794 
z
" style="fill:#1f77b4;stroke:#ffffff;stroke-width:0.565685;"/>
    <path clip-path="url(#p015362407e)" d="M 266.505771 261.458013 
C 267.443406 261.458013 268.342764 261.085487 269.005771 260.422479 
C 269.668779 259.759472 270.041305 258.860114 270.041305 257.922479 
C 270.041305 256.984845 269.668779 256.085487 269.005771 255.422479 
C 268.342764 254.759472 267.443406 254.386946 266.505771 254.386946 
C 265.568137 254.386946 264.668779 254.759472 264.005771 255.422479 
C 263.342764 256.085487 262.970238 256.984845 262.970238 257.922479 
C 262.970238 258.860114 263.342764 259.759472 264.005771 260.422479 
C 264.668779 261.085487 265.568137 261.458013 266.505771 261.458013 
z
" style="fill:#1f77b4;stroke:#ffffff;stroke-width:0.565685;"/>
    <path clip-path="url(#p015362407e)" d="M 101.801405 485.733545 
C 102.73904 485.733545 103.638397 485.361019 104.301405 484.698011 
C 104.964413 484.035004 105.336939 483.135646 105.336939 482.198011 
C 105.336939 481.260377 104.964413 480.361019 104.301405 479.698011 
C 103.638397 479.035004 102.73904 478.662477 101.801405 478.662477 
C 100.86377 478.662477 99.964413 479.035004 99.301405 479.698011 
C 98.638397 480.361019 98.265871 481.260377 98.265871 482.198011 
C 98.265871 483.135646 98.638397 484.035004 99.301405 484.698011 
C 99.964413 485.361019 100.86377 485.733545 101.801405 485.733545 
z
" style="fill:#1f77b4;stroke:#ffffff;stroke-width:0.565685;"/>
    <path clip-path="url(#p015362407e)" d="M 232.838334 297.450335 
L 234.606101 295.682568 
L 236.373868 297.450335 
L 238.141635 295.682568 
L 236.373868 293.914801 
L 238.141635 292.147034 
L 236.373868 290.379267 
L 234.606101 292.147034 
L 232.838334 290.379267 
L 231.070567 292.147034 
L 232.838334 293.914801 
L 231.070567 295.682568 
z
" style="fill:#1f77b4;stroke:#ffffff;stroke-width:0.565685;"/>
    <path clip-path="url(#p015362407e)" d="M 277.69352 229.82637 
C 278.631155 229.82637 279.530513 229.453844 280.19352 228.790836 
C 280.856528 228.127829 281.229054 227.228471 281.229054 226.290836 
C 281.229054 225.353202 280.856528 224.453844 280.19352 223.790836 
C 279.530513 223.127829 278.631155 222.755302 277.69352 222.755302 
C 276.755886 222.755302 275.856528 223.127829 275.19352 223.790836 
C 274.530513 224.453844 274.157986 225.353202 274.157986 226.290836 
C 274.157986 227.228471 274.530513 228.127829 275.19352 228.790836 
C 275.856528 229.453844 276.755886 229.82637 277.69352 229.82637 
z
" style="fill:#1f77b4;stroke:#ffffff;stroke-width:0.565685;"/>
   </g>
   <g id="PathCollection_2"/>
   <g id="PathCollection_3"/>
   <g id="PathCollection_4"/>
   <g id="matplotlib.axis_1">
    <g id="xtick_1">
     <g id="line2d_1">
      <defs>
       <path d="M 0 0 
L 0 3.5 
" id="m5a49a95688" style="stroke:#000000;stroke-width:0.8;"/>
      </defs>
      <g>
       <use style="stroke:#000000;stroke-width:0.8;" x="161.423064" xlink:href="#m5a49a95688" y="504.13125"/>
      </g>
     </g>
     <g id="text_1">
      <text style="font-family:DejaVu Sans;font-size:20px;font-stretch:normal;font-style:normal;font-weight:normal;text-anchor:middle;" transform="rotate(-0, 161.423064, 526.328125)" x="161.423064" y="526.328125">2</text>
     </g>
    </g>
    <g id="xtick_2">
     <g id="line2d_2">
      <g>
       <use style="stroke:#000000;stroke-width:0.8;" x="252.48594" xlink:href="#m5a49a95688" y="504.13125"/>
      </g>
     </g>
     <g id="text_2">
      <text style="font-family:DejaVu Sans;font-size:20px;font-stretch:normal;font-style:normal;font-weight:normal;text-anchor:middle;" transform="rotate(-0, 252.48594, 526.328125)" x="252.48594" y="526.328125">0</text>
     </g>
    </g>
    <g id="xtick_3">
     <g id="line2d_3">
      <g>
       <use style="stroke:#000000;stroke-width:0.8;" x="343.548816" xlink:href="#m5a49a95688" y="504.13125"/>
      </g>
     </g>
     <g id="text_3">
      <text style="font-family:DejaVu Sans;font-size:20px;font-stretch:normal;font-style:normal;font-weight:normal;text-anchor:middle;" transform="rotate(-0, 343.548816, 526.328125)" x="343.548816" y="526.328125">2</text>
     </g>
    </g>
    <g id="xtick_4">
     <g id="line2d_4">
      <g>
       <use style="stroke:#000000;stroke-width:0.8;" x="434.611692" xlink:href="#m5a49a95688" y="504.13125"/>
      </g>
     </g>
     <g id="text_4">
      <text style="font-family:DejaVu Sans;font-size:20px;font-stretch:normal;font-style:normal;font-weight:normal;text-anchor:middle;" transform="rotate(-0, 434.611692, 526.328125)" x="434.611692" y="526.328125">4</text>
     </g>
    </g>
    <g id="text_5">
     <text style="font-family:DejaVu Sans;font-size:20px;font-stretch:normal;font-style:normal;font-weight:normal;text-anchor:middle;" transform="rotate(-0, 299.846705, 549.684375)" x="299.846705" y="549.684375">mono_scatac_effect_score_normed</text>
    </g>
   </g>
   <g id="matplotlib.axis_2">
    <g id="ytick_1">
     <g id="line2d_5">
      <defs>
       <path d="M 0 0 
L -3.5 0 
" id="m40c507e116" style="stroke:#000000;stroke-width:0.8;"/>
      </defs>
      <g>
       <use style="stroke:#000000;stroke-width:0.8;" x="81.996875" xlink:href="#m40c507e116" y="465.066636"/>
      </g>
     </g>
     <g id="text_6">
      <text style="font-family:DejaVu Sans;font-size:20px;font-stretch:normal;font-style:normal;font-weight:normal;text-anchor:end;" transform="rotate(-0, 74.996875, 472.665074)" x="74.996875" y="472.665074">3</text>
     </g>
    </g>
    <g id="ytick_2">
     <g id="line2d_6">
      <g>
       <use style="stroke:#000000;stroke-width:0.8;" x="81.996875" xlink:href="#m40c507e116" y="399.237578"/>
      </g>
     </g>
     <g id="text_7">
      <text style="font-family:DejaVu Sans;font-size:20px;font-stretch:normal;font-style:normal;font-weight:normal;text-anchor:end;" transform="rotate(-0, 74.996875, 406.836016)" x="74.996875" y="406.836016">2</text>
     </g>
    </g>
    <g id="ytick_3">
     <g id="line2d_7">
      <g>
       <use style="stroke:#000000;stroke-width:0.8;" x="81.996875" xlink:href="#m40c507e116" y="333.40852"/>
      </g>
     </g>
     <g id="text_8">
      <text style="font-family:DejaVu Sans;font-size:20px;font-stretch:normal;font-style:normal;font-weight:normal;text-anchor:end;" transform="rotate(-0, 74.996875, 341.006957)" x="74.996875" y="341.006957">1</text>
     </g>
    </g>
    <g id="ytick_4">
     <g id="line2d_8">
      <g>
       <use style="stroke:#000000;stroke-width:0.8;" x="81.996875" xlink:href="#m40c507e116" y="267.579462"/>
      </g>
     </g>
     <g id="text_9">
      <text style="font-family:DejaVu Sans;font-size:20px;font-stretch:normal;font-style:normal;font-weight:normal;text-anchor:end;" transform="rotate(-0, 74.996875, 275.177899)" x="74.996875" y="275.177899">0</text>
     </g>
    </g>
    <g id="ytick_5">
     <g id="line2d_9">
      <g>
       <use style="stroke:#000000;stroke-width:0.8;" x="81.996875" xlink:href="#m40c507e116" y="201.750403"/>
      </g>
     </g>
     <g id="text_10">
      <text style="font-family:DejaVu Sans;font-size:20px;font-stretch:normal;font-style:normal;font-weight:normal;text-anchor:end;" transform="rotate(-0, 74.996875, 209.348841)" x="74.996875" y="209.348841">1</text>
     </g>
    </g>
    <g id="ytick_6">
     <g id="line2d_10">
      <g>
       <use style="stroke:#000000;stroke-width:0.8;" x="81.996875" xlink:href="#m40c507e116" y="135.921345"/>
      </g>
     </g>
     <g id="text_11">
      <text style="font-family:DejaVu Sans;font-size:20px;font-stretch:normal;font-style:normal;font-weight:normal;text-anchor:end;" transform="rotate(-0, 74.996875, 143.519783)" x="74.996875" y="143.519783">2</text>
     </g>
    </g>
    <g id="ytick_7">
     <g id="line2d_11">
      <g>
       <use style="stroke:#000000;stroke-width:0.8;" x="81.996875" xlink:href="#m40c507e116" y="70.092287"/>
      </g>
     </g>
     <g id="text_12">
      <text style="font-family:DejaVu Sans;font-size:20px;font-stretch:normal;font-style:normal;font-weight:normal;text-anchor:end;" transform="rotate(-0, 74.996875, 77.690724)" x="74.996875" y="77.690724">3</text>
     </g>
    </g>
    <g id="text_13">
     <text style="font-family:DejaVu Sans;font-size:20px;font-stretch:normal;font-style:normal;font-weight:normal;text-anchor:middle;" transform="rotate(-90, 36.796875, 262.865625)" x="36.796875" y="262.865625">basophil_scatac_effect_score_normed</text>
    </g>
   </g>
   <g id="line2d_12">
    <path clip-path="url(#p015362407e)" d="M 343.548816 504.13125 
L 343.548816 21.6 
" style="fill:none;stroke:#ff0000;stroke-dasharray:5.55,2.4;stroke-dashoffset:0;stroke-width:1.5;"/>
   </g>
   <g id="line2d_13">
    <path clip-path="url(#p015362407e)" d="M 161.423064 504.13125 
L 161.423064 21.6 
" style="fill:none;stroke:#ff0000;stroke-dasharray:5.55,2.4;stroke-dashoffset:0;stroke-width:1.5;"/>
   </g>
   <g id="line2d_14">
    <path clip-path="url(#p015362407e)" d="M 81.996875 135.921345 
L 517.696534 135.921345 
" style="fill:none;stroke:#ff0000;stroke-dasharray:5.55,2.4;stroke-dashoffset:0;stroke-width:1.5;"/>
   </g>
   <g id="line2d_15">
    <path clip-path="url(#p015362407e)" d="M 81.996875 399.237578 
L 517.696534 399.237578 
" style="fill:none;stroke:#ff0000;stroke-dasharray:5.55,2.4;stroke-dashoffset:0;stroke-width:1.5;"/>
   </g>
   <g id="patch_3">
    <path d="M 81.996875 504.13125 
L 81.996875 21.6 
" style="fill:none;stroke:#000000;stroke-linecap:square;stroke-linejoin:miter;stroke-width:0.8;"/>
   </g>
   <g id="patch_4">
    <path d="M 517.696534 504.13125 
L 517.696534 21.6 
" style="fill:none;stroke:#000000;stroke-linecap:square;stroke-linejoin:miter;stroke-width:0.8;"/>
   </g>
   <g id="patch_5">
    <path d="M 81.996875 504.13125 
L 517.696534 504.13125 
" style="fill:none;stroke:#000000;stroke-linecap:square;stroke-linejoin:miter;stroke-width:0.8;"/>
   </g>
   <g id="patch_6">
    <path d="M 81.996875 21.6 
L 517.696534 21.6 
" style="fill:none;stroke:#000000;stroke-linecap:square;stroke-linejoin:miter;stroke-width:0.8;"/>
   </g>
   <g id="text_14">
    <text style="font-family:DejaVu Sans;font-size:12px;font-stretch:normal;font-style:normal;font-weight:normal;text-anchor:start;" transform="rotate(-0, 497.892004, 213.94974)" x="497.892004" y="213.94974">rs636317</text>
   </g>
   <g id="text_15">
    <text style="font-family:DejaVu Sans;font-size:12px;font-stretch:normal;font-style:normal;font-weight:normal;text-anchor:start;" transform="rotate(-0, 150.840659, 346.546076)" x="150.840659" y="346.546076">rs636341</text>
   </g>
   <g id="text_16">
    <text style="font-family:DejaVu Sans;font-size:12px;font-stretch:normal;font-style:normal;font-weight:normal;text-anchor:start;" transform="rotate(-0, 267.830534, 285.891262)" x="267.830534" y="285.891262">rs395601</text>
   </g>
   <g id="text_17">
    <text style="font-family:DejaVu Sans;font-size:12px;font-stretch:normal;font-style:normal;font-weight:normal;text-anchor:start;" transform="rotate(-0, 293.145112, 224.716621)" x="293.145112" y="224.716621">rs1010322</text>
   </g>
   <g id="text_18">
    <text style="font-family:DejaVu Sans;font-size:12px;font-stretch:normal;font-style:normal;font-weight:normal;text-anchor:start;" transform="rotate(-0, 361.223373, 200.445861)" x="361.223373" y="200.445861">rs2526377</text>
   </g>
   <g id="text_19">
    <text style="font-family:DejaVu Sans;font-size:12px;font-stretch:normal;font-style:normal;font-weight:normal;text-anchor:start;" transform="rotate(-0, 370.514869, 55.423751)" x="370.514869" y="55.423751">rs6064392</text>
   </g>
   <g id="text_20">
    <text style="font-family:DejaVu Sans;font-size:12px;font-stretch:normal;font-style:normal;font-weight:normal;text-anchor:start;" transform="rotate(-0, 310.038917, 237.480169)" x="310.038917" y="237.480169">rs9270920</text>
   </g>
   <g id="text_21">
    <text style="font-family:DejaVu Sans;font-size:12px;font-stretch:normal;font-style:normal;font-weight:normal;text-anchor:start;" transform="rotate(-0, 324.631353, 105.990913)" x="324.631353" y="105.990913">rs9270921</text>
   </g>
   <g id="text_22">
    <text style="font-family:DejaVu Sans;font-size:12px;font-stretch:normal;font-style:normal;font-weight:normal;text-anchor:start;" transform="rotate(-0, 377.279868, 244.261993)" x="377.279868" y="244.261993">rs9271145</text>
   </g>
   <g id="text_23">
    <text style="font-family:DejaVu Sans;font-size:12px;font-stretch:normal;font-style:normal;font-weight:normal;text-anchor:start;" transform="rotate(-0, 318.164398, 140.870581)" x="318.164398" y="140.870581">rs9271162</text>
   </g>
   <g id="text_24">
    <text style="font-family:DejaVu Sans;font-size:12px;font-stretch:normal;font-style:normal;font-weight:normal;text-anchor:start;" transform="rotate(-0, 273.989086, 56.956638)" x="273.989086" y="56.956638">rs9271171</text>
   </g>
   <g id="text_25">
    <text style="font-family:DejaVu Sans;font-size:12px;font-stretch:normal;font-style:normal;font-weight:normal;text-anchor:start;" transform="rotate(-0, 101.801405, 482.198011)" x="101.801405" y="482.198011">rs28834970</text>
   </g>
   <g id="legend_1">
    <g id="patch_7">
     <path d="M 280.837159 494.13125 
L 503.696534 494.13125 
Q 507.696534 494.13125 507.696534 490.13125 
L 507.696534 373.0375 
Q 507.696534 369.0375 503.696534 369.0375 
L 280.837159 369.0375 
Q 276.837159 369.0375 276.837159 373.0375 
L 276.837159 490.13125 
Q 276.837159 494.13125 280.837159 494.13125 
z
" style="fill:#ffffff;opacity:0.8;stroke:#cccccc;stroke-linejoin:miter;"/>
    </g>
    <g id="text_26">
     <text style="font-family:DejaVu Sans;font-size:20px;font-stretch:normal;font-style:normal;font-weight:normal;text-anchor:start;" transform="rotate(-0, 305.162159, 392.234375)" x="305.162159" y="392.234375">cell_type_overlap</text>
    </g>
    <g id="PathCollection_5">
     <defs>
      <path d="M 0 3 
C 0.795609 3 1.55874 2.683901 2.12132 2.12132 
C 2.683901 1.55874 3 0.795609 3 0 
C 3 -0.795609 2.683901 -1.55874 2.12132 -2.12132 
C 1.55874 -2.683901 0.795609 -3 0 -3 
C -0.795609 -3 -1.55874 -2.683901 -2.12132 -2.12132 
C -2.683901 -1.55874 -3 -0.795609 -3 0 
C -3 0.795609 -2.683901 1.55874 -2.12132 2.12132 
C -1.55874 2.683901 -0.795609 3 0 3 
z
" id="mfddfd62ea5" style="stroke:#333333;"/>
     </defs>
     <g>
      <use style="fill:#333333;stroke:#333333;" x="304.837159" xlink:href="#mfddfd62ea5" y="416.896875"/>
     </g>
    </g>
    <g id="text_27">
     <text style="font-family:DejaVu Sans;font-size:20px;font-stretch:normal;font-style:normal;font-weight:normal;text-anchor:start;" transform="rotate(-0, 340.837159, 422.146875)" x="340.837159" y="422.146875">Both</text>
    </g>
    <g id="PathCollection_6">
     <defs>
      <path d="M -1.5 3 
L 0 1.5 
L 1.5 3 
L 3 1.5 
L 1.5 0 
L 3 -1.5 
L 1.5 -3 
L 0 -1.5 
L -1.5 -3 
L -3 -1.5 
L -1.5 0 
L -3 1.5 
z
" id="ma6ea105129" style="stroke:#333333;"/>
     </defs>
     <g>
      <use style="fill:#333333;stroke:#333333;" x="304.837159" xlink:href="#ma6ea105129" y="446.253125"/>
     </g>
    </g>
    <g id="text_28">
     <text style="font-family:DejaVu Sans;font-size:20px;font-stretch:normal;font-style:normal;font-weight:normal;text-anchor:start;" transform="rotate(-0, 340.837159, 451.503125)" x="340.837159" y="451.503125">mono_scatac</text>
    </g>
    <g id="PathCollection_7">
     <defs>
      <path d="M -2.12132 -2.12132 
L -2.12132 2.12132 
L 2.12132 2.12132 
L 2.12132 -2.12132 
z
" id="mde42e06409" style="stroke:#333333;"/>
     </defs>
     <g>
      <use style="fill:#333333;stroke:#333333;" x="304.837159" xlink:href="#mde42e06409" y="476.165625"/>
     </g>
    </g>
    <g id="text_29">
     <text style="font-family:DejaVu Sans;font-size:20px;font-stretch:normal;font-style:normal;font-weight:normal;text-anchor:start;" transform="rotate(-0, 340.837159, 481.415625)" x="340.837159" y="481.415625">basophil_scatac</text>
    </g>
   </g>
  </g>
 </g>
 <defs>
  <clipPath id="p015362407e">
   <rect height="482.53125" width="435.699659" x="81.996875" y="21.6"/>
  </clipPath>
 </defs>
</svg>
