<?xml version="1.0" encoding="utf-8" standalone="no"?>
<!DOCTYPE svg PUBLIC "-//W3C//DTD SVG 1.1//EN"
  "http://www.w3.org/Graphics/SVG/1.1/DTD/svg11.dtd">
<!-- Created with matplotlib (https://matplotlib.org/) -->
<svg height="576pt" version="1.1" viewBox="0 0 576 576" width="576pt" xmlns="http://www.w3.org/2000/svg" xmlns:xlink="http://www.w3.org/1999/xlink">
 <metadata>
  <rdf:RDF xmlns:cc="http://creativecommons.org/ns#" xmlns:dc="http://purl.org/dc/elements/1.1/" xmlns:rdf="http://www.w3.org/1999/02/22-rdf-syntax-ns#">
   <cc:Work>
    <dc:type rdf:resource="http://purl.org/dc/dcmitype/StillImage"/>
    <dc:date>2022-03-30T23:05:29.531403</dc:date>
    <dc:format>image/svg+xml</dc:format>
    <dc:creator>
     <cc:Agent>
      <dc:title>Matplotlib v3.3.4, https://matplotlib.org/</dc:title>
     </cc:Agent>
    </dc:creator>
   </cc:Work>
  </rdf:RDF>
 </metadata>
 <defs>
  <style type="text/css">*{stroke-linecap:butt;stroke-linejoin:round;}</style>
 </defs>
 <g id="figure_1">
  <g id="patch_1">
   <path d="M 0 576 
L 576 576 
L 576 0 
L 0 0 
z
" style="fill:none;"/>
  </g>
  <g id="axes_1">
   <g id="patch_2">
    <path d="M 81.996875 504.13125 
L 517.696534 504.13125 
L 517.696534 21.6 
L 81.996875 21.6 
z
" style="fill:#ffffff;"/>
   </g>
   <g id="PathCollection_1">
    <path clip-path="url(#p35b0dc579b)" d="M 260.322613 331.853435 
C 261.260248 331.853435 262.159606 331.480909 262.822613 330.817901 
C 263.485621 330.154894 263.858147 329.255536 263.858147 328.317901 
C 263.858147 327.380267 263.485621 326.480909 262.822613 325.817901 
C 262.159606 325.154894 261.260248 324.782367 260.322613 324.782367 
C 259.384979 324.782367 258.485621 325.154894 257.822613 325.817901 
C 257.159606 326.480909 256.787079 327.380267 256.787079 328.317901 
C 256.787079 329.255536 257.159606 330.154894 257.822613 330.817901 
C 258.485621 331.480909 259.384979 331.853435 260.322613 331.853435 
z
" style="fill:#1f77b4;stroke:#ffffff;stroke-width:0.565685;"/>
    <path clip-path="url(#p35b0dc579b)" d="M 301.145739 285.131651 
L 301.145739 290.131651 
L 306.145739 290.131651 
L 306.145739 285.131651 
z
" style="fill:#1f77b4;stroke:#ffffff;stroke-width:0.565685;"/>
    <path clip-path="url(#p35b0dc579b)" d="M 297.042392 291.234143 
L 297.042392 296.234143 
L 302.042392 296.234143 
L 302.042392 291.234143 
z
" style="fill:#1f77b4;stroke:#ffffff;stroke-width:0.565685;"/>
    <path clip-path="url(#p35b0dc579b)" d="M 277.662364 310.632212 
L 277.662364 315.632212 
L 282.662364 315.632212 
L 282.662364 310.632212 
z
" style="fill:#1f77b4;stroke:#ffffff;stroke-width:0.565685;"/>
    <path clip-path="url(#p35b0dc579b)" d="M 302.319284 306.327138 
L 302.319284 311.327138 
L 307.319284 311.327138 
L 307.319284 306.327138 
z
" style="fill:#1f77b4;stroke:#ffffff;stroke-width:0.565685;"/>
    <path clip-path="url(#p35b0dc579b)" d="M 301.018805 357.569456 
C 301.956439 357.569456 302.855797 357.19693 303.518805 356.533922 
C 304.181812 355.870915 304.554339 354.971557 304.554339 354.033922 
C 304.554339 353.096288 304.181812 352.19693 303.518805 351.533922 
C 302.855797 350.870915 301.956439 350.498388 301.018805 350.498388 
C 300.08117 350.498388 299.181812 350.870915 298.518805 351.533922 
C 297.855797 352.19693 297.483271 353.096288 297.483271 354.033922 
C 297.483271 354.971557 297.855797 355.870915 298.518805 356.533922 
C 299.181812 357.19693 300.08117 357.569456 301.018805 357.569456 
z
" style="fill:#1f77b4;stroke:#ffffff;stroke-width:0.565685;"/>
    <path clip-path="url(#p35b0dc579b)" d="M 267.195464 373.669438 
L 267.195464 378.669438 
L 272.195464 378.669438 
L 272.195464 373.669438 
z
" style="fill:#1f77b4;stroke:#ffffff;stroke-width:0.565685;"/>
    <path clip-path="url(#p35b0dc579b)" d="M 327.588669 284.793255 
C 328.526303 284.793255 329.425661 284.420729 330.088669 283.757721 
C 330.751677 283.094713 331.124203 282.195356 331.124203 281.257721 
C 331.124203 280.320087 330.751677 279.420729 330.088669 278.757721 
C 329.425661 278.094713 328.526303 277.722187 327.588669 277.722187 
C 326.651034 277.722187 325.751677 278.094713 325.088669 278.757721 
C 324.425661 279.420729 324.053135 280.320087 324.053135 281.257721 
C 324.053135 282.195356 324.425661 283.094713 325.088669 283.757721 
C 325.751677 284.420729 326.651034 284.793255 327.588669 284.793255 
z
" style="fill:#1f77b4;stroke:#ffffff;stroke-width:0.565685;"/>
    <path clip-path="url(#p35b0dc579b)" d="M 299.508359 328.438578 
C 300.445993 328.438578 301.345351 328.066052 302.008359 327.403044 
C 302.671366 326.740036 303.043892 325.840679 303.043892 324.903044 
C 303.043892 323.96541 302.671366 323.066052 302.008359 322.403044 
C 301.345351 321.740036 300.445993 321.36751 299.508359 321.36751 
C 298.570724 321.36751 297.671366 321.740036 297.008359 322.403044 
C 296.345351 323.066052 295.972825 323.96541 295.972825 324.903044 
C 295.972825 325.840679 296.345351 326.740036 297.008359 327.403044 
C 297.671366 328.066052 298.570724 328.438578 299.508359 328.438578 
z
" style="fill:#1f77b4;stroke:#ffffff;stroke-width:0.565685;"/>
    <path clip-path="url(#p35b0dc579b)" d="M 245.196309 337.727157 
L 245.196309 342.727157 
L 250.196309 342.727157 
L 250.196309 337.727157 
z
" style="fill:#1f77b4;stroke:#ffffff;stroke-width:0.565685;"/>
    <path clip-path="url(#p35b0dc579b)" d="M 241.177188 315.859951 
L 241.177188 320.859951 
L 246.177188 320.859951 
L 246.177188 315.859951 
z
" style="fill:#1f77b4;stroke:#ffffff;stroke-width:0.565685;"/>
    <path clip-path="url(#p35b0dc579b)" d="M 349.750352 294.054914 
C 350.687987 294.054914 351.587344 293.682387 352.250352 293.01938 
C 352.91336 292.356372 353.285886 291.457014 353.285886 290.51938 
C 353.285886 289.581745 352.91336 288.682387 352.250352 288.01938 
C 351.587344 287.356372 350.687987 286.983846 349.750352 286.983846 
C 348.812718 286.983846 347.91336 287.356372 347.250352 288.01938 
C 346.587344 288.682387 346.214818 289.581745 346.214818 290.51938 
C 346.214818 291.457014 346.587344 292.356372 347.250352 293.01938 
C 347.91336 293.682387 348.812718 294.054914 349.750352 294.054914 
z
" style="fill:#1f77b4;stroke:#ffffff;stroke-width:0.565685;"/>
    <path clip-path="url(#p35b0dc579b)" d="M 497.892004 47.068773 
C 498.829639 47.068773 499.728996 46.696246 500.392004 46.033239 
C 501.055012 45.370231 501.427538 44.470873 501.427538 43.533239 
C 501.427538 42.595604 501.055012 41.696246 500.392004 41.033239 
C 499.728996 40.370231 498.829639 39.997705 497.892004 39.997705 
C 496.95437 39.997705 496.055012 40.370231 495.392004 41.033239 
C 494.728996 41.696246 494.35647 42.595604 494.35647 43.533239 
C 494.35647 44.470873 494.728996 45.370231 495.392004 46.033239 
C 496.055012 46.696246 496.95437 47.068773 497.892004 47.068773 
z
" style="fill:#1f77b4;stroke:#ffffff;stroke-width:0.565685;"/>
    <path clip-path="url(#p35b0dc579b)" d="M 264.009607 431.42326 
C 264.947241 431.42326 265.846599 431.050734 266.509607 430.387727 
C 267.172614 429.724719 267.545141 428.825361 267.545141 427.887727 
C 267.545141 426.950092 267.172614 426.050734 266.509607 425.387727 
C 265.846599 424.724719 264.947241 424.352193 264.009607 424.352193 
C 263.071972 424.352193 262.172614 424.724719 261.509607 425.387727 
C 260.846599 426.050734 260.474073 426.950092 260.474073 427.887727 
C 260.474073 428.825361 260.846599 429.724719 261.509607 430.387727 
C 262.172614 431.050734 263.071972 431.42326 264.009607 431.42326 
z
" style="fill:#1f77b4;stroke:#ffffff;stroke-width:0.565685;"/>
    <path clip-path="url(#p35b0dc579b)" d="M 302.788897 311.0069 
C 303.726532 311.0069 304.625889 310.634374 305.288897 309.971366 
C 305.951905 309.308359 306.324431 308.409001 306.324431 307.471366 
C 306.324431 306.533732 305.951905 305.634374 305.288897 304.971366 
C 304.625889 304.308359 303.726532 303.935832 302.788897 303.935832 
C 301.851263 303.935832 300.951905 304.308359 300.288897 304.971366 
C 299.625889 305.634374 299.253363 306.533732 299.253363 307.471366 
C 299.253363 308.409001 299.625889 309.308359 300.288897 309.971366 
C 300.951905 310.634374 301.851263 311.0069 302.788897 311.0069 
z
" style="fill:#1f77b4;stroke:#ffffff;stroke-width:0.565685;"/>
    <path clip-path="url(#p35b0dc579b)" d="M 295.126423 316.203994 
C 296.064058 316.203994 296.963416 315.831468 297.626423 315.16846 
C 298.289431 314.505453 298.661957 313.606095 298.661957 312.66846 
C 298.661957 311.730826 298.289431 310.831468 297.626423 310.16846 
C 296.963416 309.505453 296.064058 309.132926 295.126423 309.132926 
C 294.188789 309.132926 293.289431 309.505453 292.626423 310.16846 
C 291.963416 310.831468 291.59089 311.730826 291.59089 312.66846 
C 291.59089 313.606095 291.963416 314.505453 292.626423 315.16846 
C 293.289431 315.831468 294.188789 316.203994 295.126423 316.203994 
z
" style="fill:#1f77b4;stroke:#ffffff;stroke-width:0.565685;"/>
    <path clip-path="url(#p35b0dc579b)" d="M 213.331005 317.164015 
L 213.331005 322.164015 
L 218.331005 322.164015 
L 218.331005 317.164015 
z
" style="fill:#1f77b4;stroke:#ffffff;stroke-width:0.565685;"/>
    <path clip-path="url(#p35b0dc579b)" d="M 299.837557 252.404158 
C 300.775192 252.404158 301.67455 252.031632 302.337557 251.368624 
C 303.000565 250.705616 303.373091 249.806258 303.373091 248.868624 
C 303.373091 247.930989 303.000565 247.031632 302.337557 246.368624 
C 301.67455 245.705616 300.775192 245.33309 299.837557 245.33309 
C 298.899923 245.33309 298.000565 245.705616 297.337557 246.368624 
C 296.67455 247.031632 296.302023 247.930989 296.302023 248.868624 
C 296.302023 249.806258 296.67455 250.705616 297.337557 251.368624 
C 298.000565 252.031632 298.899923 252.404158 299.837557 252.404158 
z
" style="fill:#1f77b4;stroke:#ffffff;stroke-width:0.565685;"/>
    <path clip-path="url(#p35b0dc579b)" d="M 333.115138 306.086653 
C 334.052773 306.086653 334.952131 305.714127 335.615138 305.051119 
C 336.278146 304.388111 336.650672 303.488754 336.650672 302.551119 
C 336.650672 301.613484 336.278146 300.714127 335.615138 300.051119 
C 334.952131 299.388111 334.052773 299.015585 333.115138 299.015585 
C 332.177504 299.015585 331.278146 299.388111 330.615138 300.051119 
C 329.952131 300.714127 329.579604 301.613484 329.579604 302.551119 
C 329.579604 303.488754 329.952131 304.388111 330.615138 305.051119 
C 331.278146 305.714127 332.177504 306.086653 333.115138 306.086653 
z
" style="fill:#1f77b4;stroke:#ffffff;stroke-width:0.565685;"/>
    <path clip-path="url(#p35b0dc579b)" d="M 325.527871 291.423159 
L 327.295638 289.655392 
L 329.063405 291.423159 
L 330.831172 289.655392 
L 329.063405 287.887625 
L 330.831172 286.119858 
L 329.063405 284.352091 
L 327.295638 286.119858 
L 325.527871 284.352091 
L 323.760104 286.119858 
L 325.527871 287.887625 
L 323.760104 289.655392 
z
" style="fill:#1f77b4;stroke:#ffffff;stroke-width:0.565685;"/>
    <path clip-path="url(#p35b0dc579b)" d="M 291.35127 352.798735 
C 292.288905 352.798735 293.188263 352.426209 293.85127 351.763201 
C 294.514278 351.100193 294.886804 350.200835 294.886804 349.263201 
C 294.886804 348.325566 294.514278 347.426209 293.85127 346.763201 
C 293.188263 346.100193 292.288905 345.727667 291.35127 345.727667 
C 290.413636 345.727667 289.514278 346.100193 288.85127 346.763201 
C 288.188263 347.426209 287.815736 348.325566 287.815736 349.263201 
C 287.815736 350.200835 288.188263 351.100193 288.85127 351.763201 
C 289.514278 352.426209 290.413636 352.798735 291.35127 352.798735 
z
" style="fill:#1f77b4;stroke:#ffffff;stroke-width:0.565685;"/>
    <path clip-path="url(#p35b0dc579b)" d="M 284.094832 339.705051 
C 285.032467 339.705051 285.931824 339.332525 286.594832 338.669518 
C 287.25784 338.00651 287.630366 337.107152 287.630366 336.169518 
C 287.630366 335.231883 287.25784 334.332525 286.594832 333.669518 
C 285.931824 333.00651 285.032467 332.633984 284.094832 332.633984 
C 283.157198 332.633984 282.25784 333.00651 281.594832 333.669518 
C 280.931824 334.332525 280.559298 335.231883 280.559298 336.169518 
C 280.559298 337.107152 280.931824 338.00651 281.594832 338.669518 
C 282.25784 339.332525 283.157198 339.705051 284.094832 339.705051 
z
" style="fill:#1f77b4;stroke:#ffffff;stroke-width:0.565685;"/>
    <path clip-path="url(#p35b0dc579b)" d="M 313.40722 277.476522 
L 313.40722 282.476522 
L 318.40722 282.476522 
L 318.40722 277.476522 
z
" style="fill:#1f77b4;stroke:#ffffff;stroke-width:0.565685;"/>
    <path clip-path="url(#p35b0dc579b)" d="M 326.719479 301.138038 
C 327.657113 301.138038 328.556471 300.765512 329.219479 300.102504 
C 329.882487 299.439496 330.255013 298.540139 330.255013 297.602504 
C 330.255013 296.66487 329.882487 295.765512 329.219479 295.102504 
C 328.556471 294.439496 327.657113 294.06697 326.719479 294.06697 
C 325.781844 294.06697 324.882487 294.439496 324.219479 295.102504 
C 323.556471 295.765512 323.183945 296.66487 323.183945 297.602504 
C 323.183945 298.540139 323.556471 299.439496 324.219479 300.102504 
C 324.882487 300.765512 325.781844 301.138038 326.719479 301.138038 
z
" style="fill:#1f77b4;stroke:#ffffff;stroke-width:0.565685;"/>
    <path clip-path="url(#p35b0dc579b)" d="M 289.404837 308.257217 
C 290.342471 308.257217 291.241829 307.884691 291.904837 307.221683 
C 292.567844 306.558675 292.940371 305.659318 292.940371 304.721683 
C 292.940371 303.784048 292.567844 302.884691 291.904837 302.221683 
C 291.241829 301.558675 290.342471 301.186149 289.404837 301.186149 
C 288.467202 301.186149 287.567844 301.558675 286.904837 302.221683 
C 286.241829 302.884691 285.869303 303.784048 285.869303 304.721683 
C 285.869303 305.659318 286.241829 306.558675 286.904837 307.221683 
C 287.567844 307.884691 288.467202 308.257217 289.404837 308.257217 
z
" style="fill:#1f77b4;stroke:#ffffff;stroke-width:0.565685;"/>
    <path clip-path="url(#p35b0dc579b)" d="M 284.812976 313.754472 
L 284.812976 318.754472 
L 289.812976 318.754472 
L 289.812976 313.754472 
z
" style="fill:#1f77b4;stroke:#ffffff;stroke-width:0.565685;"/>
    <path clip-path="url(#p35b0dc579b)" d="M 325.501087 297.779893 
L 325.501087 302.779893 
L 330.501087 302.779893 
L 330.501087 297.779893 
z
" style="fill:#1f77b4;stroke:#ffffff;stroke-width:0.565685;"/>
    <path clip-path="url(#p35b0dc579b)" d="M 297.100153 343.777396 
L 298.86792 342.009629 
L 300.635687 343.777396 
L 302.403454 342.009629 
L 300.635687 340.241862 
L 302.403454 338.474095 
L 300.635687 336.706328 
L 298.86792 338.474095 
L 297.100153 336.706328 
L 295.332386 338.474095 
L 297.100153 340.241862 
L 295.332386 342.009629 
z
" style="fill:#1f77b4;stroke:#ffffff;stroke-width:0.565685;"/>
    <path clip-path="url(#p35b0dc579b)" d="M 302.063542 293.55454 
C 303.001177 293.55454 303.900534 293.182014 304.563542 292.519006 
C 305.22655 291.855998 305.599076 290.956641 305.599076 290.019006 
C 305.599076 289.081372 305.22655 288.182014 304.563542 287.519006 
C 303.900534 286.855998 303.001177 286.483472 302.063542 286.483472 
C 301.125908 286.483472 300.22655 286.855998 299.563542 287.519006 
C 298.900534 288.182014 298.528008 289.081372 298.528008 290.019006 
C 298.528008 290.956641 298.900534 291.855998 299.563542 292.519006 
C 300.22655 293.182014 301.125908 293.55454 302.063542 293.55454 
z
" style="fill:#1f77b4;stroke:#ffffff;stroke-width:0.565685;"/>
    <path clip-path="url(#p35b0dc579b)" d="M 292.62319 379.860001 
C 293.560825 379.860001 294.460182 379.487474 295.12319 378.824467 
C 295.786198 378.161459 296.158724 377.262101 296.158724 376.324467 
C 296.158724 375.386832 295.786198 374.487474 295.12319 373.824467 
C 294.460182 373.161459 293.560825 372.788933 292.62319 372.788933 
C 291.685555 372.788933 290.786198 373.161459 290.12319 373.824467 
C 289.460182 374.487474 289.087656 375.386832 289.087656 376.324467 
C 289.087656 377.262101 289.460182 378.161459 290.12319 378.824467 
C 290.786198 379.487474 291.685555 379.860001 292.62319 379.860001 
z
" style="fill:#1f77b4;stroke:#ffffff;stroke-width:0.565685;"/>
    <path clip-path="url(#p35b0dc579b)" d="M 314.785438 270.598351 
L 316.553205 268.830584 
L 318.320972 270.598351 
L 320.088739 268.830584 
L 318.320972 267.062817 
L 320.088739 265.29505 
L 318.320972 263.527283 
L 316.553205 265.29505 
L 314.785438 263.527283 
L 313.017671 265.29505 
L 314.785438 267.062817 
L 313.017671 268.830584 
z
" style="fill:#1f77b4;stroke:#ffffff;stroke-width:0.565685;"/>
    <path clip-path="url(#p35b0dc579b)" d="M 280.029381 342.325586 
L 280.029381 347.325586 
L 285.029381 347.325586 
L 285.029381 342.325586 
z
" style="fill:#1f77b4;stroke:#ffffff;stroke-width:0.565685;"/>
    <path clip-path="url(#p35b0dc579b)" d="M 304.952152 301.858618 
C 305.889786 301.858618 306.789144 301.486092 307.452152 300.823084 
C 308.11516 300.160076 308.487686 299.260718 308.487686 298.323084 
C 308.487686 297.385449 308.11516 296.486092 307.452152 295.823084 
C 306.789144 295.160076 305.889786 294.78755 304.952152 294.78755 
C 304.014517 294.78755 303.11516 295.160076 302.452152 295.823084 
C 301.789144 296.486092 301.416618 297.385449 301.416618 298.323084 
C 301.416618 299.260718 301.789144 300.160076 302.452152 300.823084 
C 303.11516 301.486092 304.014517 301.858618 304.952152 301.858618 
z
" style="fill:#1f77b4;stroke:#ffffff;stroke-width:0.565685;"/>
    <path clip-path="url(#p35b0dc579b)" d="M 283.739933 287.354802 
L 285.5077 285.587035 
L 287.275467 287.354802 
L 289.043234 285.587035 
L 287.275467 283.819268 
L 289.043234 282.051501 
L 287.275467 280.283734 
L 285.5077 282.051501 
L 283.739933 280.283734 
L 281.972166 282.051501 
L 283.739933 283.819268 
L 281.972166 285.587035 
z
" style="fill:#1f77b4;stroke:#ffffff;stroke-width:0.565685;"/>
    <path clip-path="url(#p35b0dc579b)" d="M 291.394976 334.44534 
L 293.162743 332.677573 
L 294.93051 334.44534 
L 296.698277 332.677573 
L 294.93051 330.909806 
L 296.698277 329.142039 
L 294.93051 327.374272 
L 293.162743 329.142039 
L 291.394976 327.374272 
L 289.627209 329.142039 
L 291.394976 330.909806 
L 289.627209 332.677573 
z
" style="fill:#1f77b4;stroke:#ffffff;stroke-width:0.565685;"/>
    <path clip-path="url(#p35b0dc579b)" d="M 284.180609 331.839488 
L 285.948376 330.071721 
L 287.716143 331.839488 
L 289.48391 330.071721 
L 287.716143 328.303954 
L 289.48391 326.536187 
L 287.716143 324.76842 
L 285.948376 326.536187 
L 284.180609 324.76842 
L 282.412842 326.536187 
L 284.180609 328.303954 
L 282.412842 330.071721 
z
" style="fill:#1f77b4;stroke:#ffffff;stroke-width:0.565685;"/>
    <path clip-path="url(#p35b0dc579b)" d="M 409.09035 273.823078 
C 410.027985 273.823078 410.927342 273.450552 411.59035 272.787544 
C 412.253358 272.124536 412.625884 271.225179 412.625884 270.287544 
C 412.625884 269.34991 412.253358 268.450552 411.59035 267.787544 
C 410.927342 267.124536 410.027985 266.75201 409.09035 266.75201 
C 408.152716 266.75201 407.253358 267.124536 406.59035 267.787544 
C 405.927342 268.450552 405.554816 269.34991 405.554816 270.287544 
C 405.554816 271.225179 405.927342 272.124536 406.59035 272.787544 
C 407.253358 273.450552 408.152716 273.823078 409.09035 273.823078 
z
" style="fill:#1f77b4;stroke:#ffffff;stroke-width:0.565685;"/>
    <path clip-path="url(#p35b0dc579b)" d="M 291.323476 345.888662 
L 293.091243 344.120895 
L 294.85901 345.888662 
L 296.626777 344.120895 
L 294.85901 342.353128 
L 296.626777 340.585361 
L 294.85901 338.817594 
L 293.091243 340.585361 
L 291.323476 338.817594 
L 289.555709 340.585361 
L 291.323476 342.353128 
L 289.555709 344.120895 
z
" style="fill:#1f77b4;stroke:#ffffff;stroke-width:0.565685;"/>
    <path clip-path="url(#p35b0dc579b)" d="M 301.36074 334.159076 
L 301.36074 339.159076 
L 306.36074 339.159076 
L 306.36074 334.159076 
z
" style="fill:#1f77b4;stroke:#ffffff;stroke-width:0.565685;"/>
    <path clip-path="url(#p35b0dc579b)" d="M 297.55931 314.32024 
L 299.327077 312.552473 
L 301.094844 314.32024 
L 302.862611 312.552473 
L 301.094844 310.784706 
L 302.862611 309.016939 
L 301.094844 307.249172 
L 299.327077 309.016939 
L 297.55931 307.249172 
L 295.791544 309.016939 
L 297.55931 310.784706 
L 295.791544 312.552473 
z
" style="fill:#1f77b4;stroke:#ffffff;stroke-width:0.565685;"/>
    <path clip-path="url(#p35b0dc579b)" d="M 298.782083 279.546352 
C 299.719717 279.546352 300.619075 279.173826 301.282083 278.510818 
C 301.94509 277.84781 302.317617 276.948453 302.317617 276.010818 
C 302.317617 275.073184 301.94509 274.173826 301.282083 273.510818 
C 300.619075 272.84781 299.719717 272.475284 298.782083 272.475284 
C 297.844448 272.475284 296.94509 272.84781 296.282083 273.510818 
C 295.619075 274.173826 295.246549 275.073184 295.246549 276.010818 
C 295.246549 276.948453 295.619075 277.84781 296.282083 278.510818 
C 296.94509 279.173826 297.844448 279.546352 298.782083 279.546352 
z
" style="fill:#1f77b4;stroke:#ffffff;stroke-width:0.565685;"/>
    <path clip-path="url(#p35b0dc579b)" d="M 286.626513 395.146538 
L 288.39428 393.378771 
L 290.162047 395.146538 
L 291.929814 393.378771 
L 290.162047 391.611004 
L 291.929814 389.843237 
L 290.162047 388.07547 
L 288.39428 389.843237 
L 286.626513 388.07547 
L 284.858746 389.843237 
L 286.626513 391.611004 
L 284.858746 393.378771 
z
" style="fill:#1f77b4;stroke:#ffffff;stroke-width:0.565685;"/>
    <path clip-path="url(#p35b0dc579b)" d="M 264.046655 349.837003 
C 264.984289 349.837003 265.883647 349.464476 266.546655 348.801469 
C 267.209662 348.138461 267.582189 347.239103 267.582189 346.301469 
C 267.582189 345.363834 267.209662 344.464476 266.546655 343.801469 
C 265.883647 343.138461 264.984289 342.765935 264.046655 342.765935 
C 263.10902 342.765935 262.209662 343.138461 261.546655 343.801469 
C 260.883647 344.464476 260.511121 345.363834 260.511121 346.301469 
C 260.511121 347.239103 260.883647 348.138461 261.546655 348.801469 
C 262.209662 349.464476 263.10902 349.837003 264.046655 349.837003 
z
" style="fill:#1f77b4;stroke:#ffffff;stroke-width:0.565685;"/>
    <path clip-path="url(#p35b0dc579b)" d="M 293.463779 288.176778 
L 293.463779 293.176778 
L 298.463779 293.176778 
L 298.463779 288.176778 
z
" style="fill:#1f77b4;stroke:#ffffff;stroke-width:0.565685;"/>
    <path clip-path="url(#p35b0dc579b)" d="M 291.660365 326.960581 
L 291.660365 331.960581 
L 296.660365 331.960581 
L 296.660365 326.960581 
z
" style="fill:#1f77b4;stroke:#ffffff;stroke-width:0.565685;"/>
    <path clip-path="url(#p35b0dc579b)" d="M 294.960913 296.811972 
L 294.960913 301.811972 
L 299.960913 301.811972 
L 299.960913 296.811972 
z
" style="fill:#1f77b4;stroke:#ffffff;stroke-width:0.565685;"/>
    <path clip-path="url(#p35b0dc579b)" d="M 420.70612 198.427361 
C 421.643755 198.427361 422.543112 198.054835 423.20612 197.391827 
C 423.869128 196.728819 424.241654 195.829462 424.241654 194.891827 
C 424.241654 193.954193 423.869128 193.054835 423.20612 192.391827 
C 422.543112 191.728819 421.643755 191.356293 420.70612 191.356293 
C 419.768486 191.356293 418.869128 191.728819 418.20612 192.391827 
C 417.543112 193.054835 417.170586 193.954193 417.170586 194.891827 
C 417.170586 195.829462 417.543112 196.728819 418.20612 197.391827 
C 418.869128 198.054835 419.768486 198.427361 420.70612 198.427361 
z
" style="fill:#1f77b4;stroke:#ffffff;stroke-width:0.565685;"/>
    <path clip-path="url(#p35b0dc579b)" d="M 285.857745 320.604703 
C 286.79538 320.604703 287.694738 320.232176 288.357745 319.569169 
C 289.020753 318.906161 289.393279 318.006803 289.393279 317.069169 
C 289.393279 316.131534 289.020753 315.232176 288.357745 314.569169 
C 287.694738 313.906161 286.79538 313.533635 285.857745 313.533635 
C 284.920111 313.533635 284.020753 313.906161 283.357745 314.569169 
C 282.694738 315.232176 282.322211 316.131534 282.322211 317.069169 
C 282.322211 318.006803 282.694738 318.906161 283.357745 319.569169 
C 284.020753 320.232176 284.920111 320.604703 285.857745 320.604703 
z
" style="fill:#1f77b4;stroke:#ffffff;stroke-width:0.565685;"/>
    <path clip-path="url(#p35b0dc579b)" d="M 368.831532 386.864948 
L 370.599299 385.097181 
L 372.367066 386.864948 
L 374.134833 385.097181 
L 372.367066 383.329414 
L 374.134833 381.561647 
L 372.367066 379.79388 
L 370.599299 381.561647 
L 368.831532 379.79388 
L 367.063765 381.561647 
L 368.831532 383.329414 
L 367.063765 385.097181 
z
" style="fill:#1f77b4;stroke:#ffffff;stroke-width:0.565685;"/>
    <path clip-path="url(#p35b0dc579b)" d="M 292.520169 334.235666 
C 293.457804 334.235666 294.357161 333.86314 295.020169 333.200132 
C 295.683177 332.537124 296.055703 331.637766 296.055703 330.700132 
C 296.055703 329.762497 295.683177 328.86314 295.020169 328.200132 
C 294.357161 327.537124 293.457804 327.164598 292.520169 327.164598 
C 291.582534 327.164598 290.683177 327.537124 290.020169 328.200132 
C 289.357161 328.86314 288.984635 329.762497 288.984635 330.700132 
C 288.984635 331.637766 289.357161 332.537124 290.020169 333.200132 
C 290.683177 333.86314 291.582534 334.235666 292.520169 334.235666 
z
" style="fill:#1f77b4;stroke:#ffffff;stroke-width:0.565685;"/>
    <path clip-path="url(#p35b0dc579b)" d="M 291.500098 307.042121 
L 291.500098 312.042121 
L 296.500098 312.042121 
L 296.500098 307.042121 
z
" style="fill:#1f77b4;stroke:#ffffff;stroke-width:0.565685;"/>
    <path clip-path="url(#p35b0dc579b)" d="M 299.177747 361.858946 
L 299.177747 366.858946 
L 304.177747 366.858946 
L 304.177747 361.858946 
z
" style="fill:#1f77b4;stroke:#ffffff;stroke-width:0.565685;"/>
    <path clip-path="url(#p35b0dc579b)" d="M 294.021081 318.950902 
L 294.021081 323.950902 
L 299.021081 323.950902 
L 299.021081 318.950902 
z
" style="fill:#1f77b4;stroke:#ffffff;stroke-width:0.565685;"/>
    <path clip-path="url(#p35b0dc579b)" d="M 292.711026 339.05826 
L 292.711026 344.05826 
L 297.711026 344.05826 
L 297.711026 339.05826 
z
" style="fill:#1f77b4;stroke:#ffffff;stroke-width:0.565685;"/>
    <path clip-path="url(#p35b0dc579b)" d="M 284.769525 337.192058 
L 284.769525 342.192058 
L 289.769525 342.192058 
L 289.769525 337.192058 
z
" style="fill:#1f77b4;stroke:#ffffff;stroke-width:0.565685;"/>
    <path clip-path="url(#p35b0dc579b)" d="M 295.770096 280.592709 
L 295.770096 285.592709 
L 300.770096 285.592709 
L 300.770096 280.592709 
z
" style="fill:#1f77b4;stroke:#ffffff;stroke-width:0.565685;"/>
    <path clip-path="url(#p35b0dc579b)" d="M 309.311483 306.471089 
C 310.249117 306.471089 311.148475 306.098563 311.811483 305.435555 
C 312.47449 304.772547 312.847017 303.87319 312.847017 302.935555 
C 312.847017 301.99792 312.47449 301.098563 311.811483 300.435555 
C 311.148475 299.772547 310.249117 299.400021 309.311483 299.400021 
C 308.373848 299.400021 307.47449 299.772547 306.811483 300.435555 
C 306.148475 301.098563 305.775949 301.99792 305.775949 302.935555 
C 305.775949 303.87319 306.148475 304.772547 306.811483 305.435555 
C 307.47449 306.098563 308.373848 306.471089 309.311483 306.471089 
z
" style="fill:#1f77b4;stroke:#ffffff;stroke-width:0.565685;"/>
    <path clip-path="url(#p35b0dc579b)" d="M 344.731661 188.13716 
C 345.669295 188.13716 346.568653 187.764634 347.231661 187.101626 
C 347.894668 186.438618 348.267195 185.53926 348.267195 184.601626 
C 348.267195 183.663991 347.894668 182.764634 347.231661 182.101626 
C 346.568653 181.438618 345.669295 181.066092 344.731661 181.066092 
C 343.794026 181.066092 342.894668 181.438618 342.231661 182.101626 
C 341.568653 182.764634 341.196127 183.663991 341.196127 184.601626 
C 341.196127 185.53926 341.568653 186.438618 342.231661 187.101626 
C 342.894668 187.764634 343.794026 188.13716 344.731661 188.13716 
z
" style="fill:#1f77b4;stroke:#ffffff;stroke-width:0.565685;"/>
    <path clip-path="url(#p35b0dc579b)" d="M 327.573263 284.638512 
C 328.510898 284.638512 329.410255 284.265986 330.073263 283.602978 
C 330.736271 282.939971 331.108797 282.040613 331.108797 281.102978 
C 331.108797 280.165344 330.736271 279.265986 330.073263 278.602978 
C 329.410255 277.939971 328.510898 277.567444 327.573263 277.567444 
C 326.635628 277.567444 325.736271 277.939971 325.073263 278.602978 
C 324.410255 279.265986 324.037729 280.165344 324.037729 281.102978 
C 324.037729 282.040613 324.410255 282.939971 325.073263 283.602978 
C 325.736271 284.265986 326.635628 284.638512 327.573263 284.638512 
z
" style="fill:#1f77b4;stroke:#ffffff;stroke-width:0.565685;"/>
    <path clip-path="url(#p35b0dc579b)" d="M 290.488599 315.823329 
L 290.488599 320.823329 
L 295.488599 320.823329 
L 295.488599 315.823329 
z
" style="fill:#1f77b4;stroke:#ffffff;stroke-width:0.565685;"/>
    <path clip-path="url(#p35b0dc579b)" d="M 296.448042 318.229753 
L 296.448042 323.229753 
L 301.448042 323.229753 
L 301.448042 318.229753 
z
" style="fill:#1f77b4;stroke:#ffffff;stroke-width:0.565685;"/>
    <path clip-path="url(#p35b0dc579b)" d="M 295.499158 268.161569 
C 296.436793 268.161569 297.33615 267.789043 297.999158 267.126035 
C 298.662166 266.463027 299.034692 265.56367 299.034692 264.626035 
C 299.034692 263.6884 298.662166 262.789043 297.999158 262.126035 
C 297.33615 261.463027 296.436793 261.090501 295.499158 261.090501 
C 294.561524 261.090501 293.662166 261.463027 292.999158 262.126035 
C 292.33615 262.789043 291.963624 263.6884 291.963624 264.626035 
C 291.963624 265.56367 292.33615 266.463027 292.999158 267.126035 
C 293.662166 267.789043 294.561524 268.161569 295.499158 268.161569 
z
" style="fill:#1f77b4;stroke:#ffffff;stroke-width:0.565685;"/>
    <path clip-path="url(#p35b0dc579b)" d="M 300.411395 269.34163 
C 301.349029 269.34163 302.248387 268.969103 302.911395 268.306096 
C 303.574403 267.643088 303.946929 266.74373 303.946929 265.806096 
C 303.946929 264.868461 303.574403 263.969103 302.911395 263.306096 
C 302.248387 262.643088 301.349029 262.270562 300.411395 262.270562 
C 299.47376 262.270562 298.574403 262.643088 297.911395 263.306096 
C 297.248387 263.969103 296.875861 264.868461 296.875861 265.806096 
C 296.875861 266.74373 297.248387 267.643088 297.911395 268.306096 
C 298.574403 268.969103 299.47376 269.34163 300.411395 269.34163 
z
" style="fill:#1f77b4;stroke:#ffffff;stroke-width:0.565685;"/>
    <path clip-path="url(#p35b0dc579b)" d="M 279.258952 305.635236 
C 280.196586 305.635236 281.095944 305.26271 281.758952 304.599702 
C 282.42196 303.936694 282.794486 303.037337 282.794486 302.099702 
C 282.794486 301.162067 282.42196 300.26271 281.758952 299.599702 
C 281.095944 298.936694 280.196586 298.564168 279.258952 298.564168 
C 278.321317 298.564168 277.42196 298.936694 276.758952 299.599702 
C 276.095944 300.26271 275.723418 301.162067 275.723418 302.099702 
C 275.723418 303.037337 276.095944 303.936694 276.758952 304.599702 
C 277.42196 305.26271 278.321317 305.635236 279.258952 305.635236 
z
" style="fill:#1f77b4;stroke:#ffffff;stroke-width:0.565685;"/>
    <path clip-path="url(#p35b0dc579b)" d="M 287.900743 302.033497 
L 287.900743 307.033497 
L 292.900743 307.033497 
L 292.900743 302.033497 
z
" style="fill:#1f77b4;stroke:#ffffff;stroke-width:0.565685;"/>
    <path clip-path="url(#p35b0dc579b)" d="M 292.086222 307.910232 
L 292.086222 312.910232 
L 297.086222 312.910232 
L 297.086222 307.910232 
z
" style="fill:#1f77b4;stroke:#ffffff;stroke-width:0.565685;"/>
    <path clip-path="url(#p35b0dc579b)" d="M 286.886543 302.562666 
L 286.886543 307.562666 
L 291.886543 307.562666 
L 291.886543 302.562666 
z
" style="fill:#1f77b4;stroke:#ffffff;stroke-width:0.565685;"/>
    <path clip-path="url(#p35b0dc579b)" d="M 292.262208 330.940137 
L 292.262208 335.940137 
L 297.262208 335.940137 
L 297.262208 330.940137 
z
" style="fill:#1f77b4;stroke:#ffffff;stroke-width:0.565685;"/>
    <path clip-path="url(#p35b0dc579b)" d="M 231.334547 325.142481 
L 231.334547 330.142481 
L 236.334547 330.142481 
L 236.334547 325.142481 
z
" style="fill:#1f77b4;stroke:#ffffff;stroke-width:0.565685;"/>
    <path clip-path="url(#p35b0dc579b)" d="M 281.86014 316.924384 
C 282.797775 316.924384 283.697133 316.551858 284.36014 315.88885 
C 285.023148 315.225843 285.395674 314.326485 285.395674 313.38885 
C 285.395674 312.451216 285.023148 311.551858 284.36014 310.88885 
C 283.697133 310.225843 282.797775 309.853316 281.86014 309.853316 
C 280.922506 309.853316 280.023148 310.225843 279.36014 310.88885 
C 278.697133 311.551858 278.324606 312.451216 278.324606 313.38885 
C 278.324606 314.326485 278.697133 315.225843 279.36014 315.88885 
C 280.023148 316.551858 280.922506 316.924384 281.86014 316.924384 
z
" style="fill:#1f77b4;stroke:#ffffff;stroke-width:0.565685;"/>
    <path clip-path="url(#p35b0dc579b)" d="M 292.345606 323.618994 
C 293.283241 323.618994 294.182599 323.246468 294.845606 322.58346 
C 295.508614 321.920452 295.88114 321.021095 295.88114 320.08346 
C 295.88114 319.145826 295.508614 318.246468 294.845606 317.58346 
C 294.182599 316.920452 293.283241 316.547926 292.345606 316.547926 
C 291.407972 316.547926 290.508614 316.920452 289.845606 317.58346 
C 289.182599 318.246468 288.810073 319.145826 288.810073 320.08346 
C 288.810073 321.021095 289.182599 321.920452 289.845606 322.58346 
C 290.508614 323.246468 291.407972 323.618994 292.345606 323.618994 
z
" style="fill:#1f77b4;stroke:#ffffff;stroke-width:0.565685;"/>
    <path clip-path="url(#p35b0dc579b)" d="M 320.752143 316.29498 
C 321.689778 316.29498 322.589136 315.922454 323.252143 315.259446 
C 323.915151 314.596438 324.287677 313.69708 324.287677 312.759446 
C 324.287677 311.821811 323.915151 310.922454 323.252143 310.259446 
C 322.589136 309.596438 321.689778 309.223912 320.752143 309.223912 
C 319.814509 309.223912 318.915151 309.596438 318.252143 310.259446 
C 317.589136 310.922454 317.21661 311.821811 317.21661 312.759446 
C 317.21661 313.69708 317.589136 314.596438 318.252143 315.259446 
C 318.915151 315.922454 319.814509 316.29498 320.752143 316.29498 
z
" style="fill:#1f77b4;stroke:#ffffff;stroke-width:0.565685;"/>
    <path clip-path="url(#p35b0dc579b)" d="M 280.040631 313.834287 
C 280.978265 313.834287 281.877623 313.461761 282.540631 312.798753 
C 283.203639 312.135745 283.576165 311.236388 283.576165 310.298753 
C 283.576165 309.361119 283.203639 308.461761 282.540631 307.798753 
C 281.877623 307.135745 280.978265 306.763219 280.040631 306.763219 
C 279.102996 306.763219 278.203639 307.135745 277.540631 307.798753 
C 276.877623 308.461761 276.505097 309.361119 276.505097 310.298753 
C 276.505097 311.236388 276.877623 312.135745 277.540631 312.798753 
C 278.203639 313.461761 279.102996 313.834287 280.040631 313.834287 
z
" style="fill:#1f77b4;stroke:#ffffff;stroke-width:0.565685;"/>
    <path clip-path="url(#p35b0dc579b)" d="M 285.061582 239.18353 
C 285.999217 239.18353 286.898574 238.811004 287.561582 238.147996 
C 288.22459 237.484989 288.597116 236.585631 288.597116 235.647996 
C 288.597116 234.710362 288.22459 233.811004 287.561582 233.147996 
C 286.898574 232.484989 285.999217 232.112462 285.061582 232.112462 
C 284.123947 232.112462 283.22459 232.484989 282.561582 233.147996 
C 281.898574 233.811004 281.526048 234.710362 281.526048 235.647996 
C 281.526048 236.585631 281.898574 237.484989 282.561582 238.147996 
C 283.22459 238.811004 284.123947 239.18353 285.061582 239.18353 
z
" style="fill:#1f77b4;stroke:#ffffff;stroke-width:0.565685;"/>
    <path clip-path="url(#p35b0dc579b)" d="M 303.90235 331.553249 
C 304.839985 331.553249 305.739342 331.180723 306.40235 330.517715 
C 307.065358 329.854707 307.437884 328.95535 307.437884 328.017715 
C 307.437884 327.080081 307.065358 326.180723 306.40235 325.517715 
C 305.739342 324.854707 304.839985 324.482181 303.90235 324.482181 
C 302.964715 324.482181 302.065358 324.854707 301.40235 325.517715 
C 300.739342 326.180723 300.366816 327.080081 300.366816 328.017715 
C 300.366816 328.95535 300.739342 329.854707 301.40235 330.517715 
C 302.065358 331.180723 302.964715 331.553249 303.90235 331.553249 
z
" style="fill:#1f77b4;stroke:#ffffff;stroke-width:0.565685;"/>
    <path clip-path="url(#p35b0dc579b)" d="M 291.344615 329.494164 
C 292.282249 329.494164 293.181607 329.121638 293.844615 328.45863 
C 294.507623 327.795622 294.880149 326.896264 294.880149 325.95863 
C 294.880149 325.020995 294.507623 324.121638 293.844615 323.45863 
C 293.181607 322.795622 292.282249 322.423096 291.344615 322.423096 
C 290.40698 322.423096 289.507623 322.795622 288.844615 323.45863 
C 288.181607 324.121638 287.809081 325.020995 287.809081 325.95863 
C 287.809081 326.896264 288.181607 327.795622 288.844615 328.45863 
C 289.507623 329.121638 290.40698 329.494164 291.344615 329.494164 
z
" style="fill:#1f77b4;stroke:#ffffff;stroke-width:0.565685;"/>
    <path clip-path="url(#p35b0dc579b)" d="M 266.275402 378.707447 
C 267.213037 378.707447 268.112394 378.334921 268.775402 377.671913 
C 269.43841 377.008905 269.810936 376.109548 269.810936 375.171913 
C 269.810936 374.234279 269.43841 373.334921 268.775402 372.671913 
C 268.112394 372.008905 267.213037 371.636379 266.275402 371.636379 
C 265.337768 371.636379 264.43841 372.008905 263.775402 372.671913 
C 263.112394 373.334921 262.739868 374.234279 262.739868 375.171913 
C 262.739868 376.109548 263.112394 377.008905 263.775402 377.671913 
C 264.43841 378.334921 265.337768 378.707447 266.275402 378.707447 
z
" style="fill:#1f77b4;stroke:#ffffff;stroke-width:0.565685;"/>
    <path clip-path="url(#p35b0dc579b)" d="M 239.428718 321.953714 
L 239.428718 326.953714 
L 244.428718 326.953714 
L 244.428718 321.953714 
z
" style="fill:#1f77b4;stroke:#ffffff;stroke-width:0.565685;"/>
    <path clip-path="url(#p35b0dc579b)" d="M 286.789927 305.433505 
L 286.789927 310.433505 
L 291.789927 310.433505 
L 291.789927 305.433505 
z
" style="fill:#1f77b4;stroke:#ffffff;stroke-width:0.565685;"/>
    <path clip-path="url(#p35b0dc579b)" d="M 300.273345 318.981736 
L 300.273345 323.981736 
L 305.273345 323.981736 
L 305.273345 318.981736 
z
" style="fill:#1f77b4;stroke:#ffffff;stroke-width:0.565685;"/>
    <path clip-path="url(#p35b0dc579b)" d="M 278.504157 328.430773 
L 278.504157 333.430773 
L 283.504157 333.430773 
L 283.504157 328.430773 
z
" style="fill:#1f77b4;stroke:#ffffff;stroke-width:0.565685;"/>
    <path clip-path="url(#p35b0dc579b)" d="M 276.061288 327.596154 
L 276.061288 332.596154 
L 281.061288 332.596154 
L 281.061288 327.596154 
z
" style="fill:#1f77b4;stroke:#ffffff;stroke-width:0.565685;"/>
    <path clip-path="url(#p35b0dc579b)" d="M 295.627557 298.833582 
L 295.627557 303.833582 
L 300.627557 303.833582 
L 300.627557 298.833582 
z
" style="fill:#1f77b4;stroke:#ffffff;stroke-width:0.565685;"/>
    <path clip-path="url(#p35b0dc579b)" d="M 285.507836 304.829717 
L 285.507836 309.829717 
L 290.507836 309.829717 
L 290.507836 304.829717 
z
" style="fill:#1f77b4;stroke:#ffffff;stroke-width:0.565685;"/>
    <path clip-path="url(#p35b0dc579b)" d="M 298.978225 281.246521 
C 299.915859 281.246521 300.815217 280.873995 301.478225 280.210987 
C 302.141232 279.547979 302.513759 278.648622 302.513759 277.710987 
C 302.513759 276.773352 302.141232 275.873995 301.478225 275.210987 
C 300.815217 274.547979 299.915859 274.175453 298.978225 274.175453 
C 298.04059 274.175453 297.141232 274.547979 296.478225 275.210987 
C 295.815217 275.873995 295.442691 276.773352 295.442691 277.710987 
C 295.442691 278.648622 295.815217 279.547979 296.478225 280.210987 
C 297.141232 280.873995 298.04059 281.246521 298.978225 281.246521 
z
" style="fill:#1f77b4;stroke:#ffffff;stroke-width:0.565685;"/>
    <path clip-path="url(#p35b0dc579b)" d="M 311.100935 280.001564 
C 312.038569 280.001564 312.937927 279.629037 313.600935 278.96603 
C 314.263943 278.303022 314.636469 277.403664 314.636469 276.46603 
C 314.636469 275.528395 314.263943 274.629037 313.600935 273.96603 
C 312.937927 273.303022 312.038569 272.930496 311.100935 272.930496 
C 310.1633 272.930496 309.263943 273.303022 308.600935 273.96603 
C 307.937927 274.629037 307.565401 275.528395 307.565401 276.46603 
C 307.565401 277.403664 307.937927 278.303022 308.600935 278.96603 
C 309.263943 279.629037 310.1633 280.001564 311.100935 280.001564 
z
" style="fill:#1f77b4;stroke:#ffffff;stroke-width:0.565685;"/>
    <path clip-path="url(#p35b0dc579b)" d="M 309.114817 329.88638 
C 310.052452 329.88638 310.951809 329.513854 311.614817 328.850846 
C 312.277825 328.187838 312.650351 327.28848 312.650351 326.350846 
C 312.650351 325.413211 312.277825 324.513854 311.614817 323.850846 
C 310.951809 323.187838 310.052452 322.815312 309.114817 322.815312 
C 308.177183 322.815312 307.277825 323.187838 306.614817 323.850846 
C 305.951809 324.513854 305.579283 325.413211 305.579283 326.350846 
C 305.579283 327.28848 305.951809 328.187838 306.614817 328.850846 
C 307.277825 329.513854 308.177183 329.88638 309.114817 329.88638 
z
" style="fill:#1f77b4;stroke:#ffffff;stroke-width:0.565685;"/>
    <path clip-path="url(#p35b0dc579b)" d="M 291.735161 319.702626 
C 292.672796 319.702626 293.572153 319.3301 294.235161 318.667092 
C 294.898169 318.004084 295.270695 317.104726 295.270695 316.167092 
C 295.270695 315.229457 294.898169 314.3301 294.235161 313.667092 
C 293.572153 313.004084 292.672796 312.631558 291.735161 312.631558 
C 290.797527 312.631558 289.898169 313.004084 289.235161 313.667092 
C 288.572153 314.3301 288.199627 315.229457 288.199627 316.167092 
C 288.199627 317.104726 288.572153 318.004084 289.235161 318.667092 
C 289.898169 319.3301 290.797527 319.702626 291.735161 319.702626 
z
" style="fill:#1f77b4;stroke:#ffffff;stroke-width:0.565685;"/>
    <path clip-path="url(#p35b0dc579b)" d="M 297.024695 316.499152 
C 297.96233 316.499152 298.861688 316.126626 299.524695 315.463618 
C 300.187703 314.800611 300.560229 313.901253 300.560229 312.963618 
C 300.560229 312.025984 300.187703 311.126626 299.524695 310.463618 
C 298.861688 309.800611 297.96233 309.428084 297.024695 309.428084 
C 296.087061 309.428084 295.187703 309.800611 294.524695 310.463618 
C 293.861688 311.126626 293.489162 312.025984 293.489162 312.963618 
C 293.489162 313.901253 293.861688 314.800611 294.524695 315.463618 
C 295.187703 316.126626 296.087061 316.499152 297.024695 316.499152 
z
" style="fill:#1f77b4;stroke:#ffffff;stroke-width:0.565685;"/>
    <path clip-path="url(#p35b0dc579b)" d="M 290.089295 321.427274 
L 291.857062 319.659507 
L 293.624829 321.427274 
L 295.392596 319.659507 
L 293.624829 317.89174 
L 295.392596 316.123973 
L 293.624829 314.356206 
L 291.857062 316.123973 
L 290.089295 314.356206 
L 288.321528 316.123973 
L 290.089295 317.89174 
L 288.321528 319.659507 
z
" style="fill:#1f77b4;stroke:#ffffff;stroke-width:0.565685;"/>
    <path clip-path="url(#p35b0dc579b)" d="M 289.713963 333.083306 
C 290.651598 333.083306 291.550955 332.71078 292.213963 332.047772 
C 292.876971 331.384764 293.249497 330.485407 293.249497 329.547772 
C 293.249497 328.610138 292.876971 327.71078 292.213963 327.047772 
C 291.550955 326.384764 290.651598 326.012238 289.713963 326.012238 
C 288.776329 326.012238 287.876971 326.384764 287.213963 327.047772 
C 286.550955 327.71078 286.178429 328.610138 286.178429 329.547772 
C 286.178429 330.485407 286.550955 331.384764 287.213963 332.047772 
C 287.876971 332.71078 288.776329 333.083306 289.713963 333.083306 
z
" style="fill:#1f77b4;stroke:#ffffff;stroke-width:0.565685;"/>
    <path clip-path="url(#p35b0dc579b)" d="M 288.317296 348.347363 
C 289.254931 348.347363 290.154288 347.974837 290.817296 347.311829 
C 291.480304 346.648822 291.85283 345.749464 291.85283 344.811829 
C 291.85283 343.874195 291.480304 342.974837 290.817296 342.311829 
C 290.154288 341.648822 289.254931 341.276295 288.317296 341.276295 
C 287.379662 341.276295 286.480304 341.648822 285.817296 342.311829 
C 285.154288 342.974837 284.781762 343.874195 284.781762 344.811829 
C 284.781762 345.749464 285.154288 346.648822 285.817296 347.311829 
C 286.480304 347.974837 287.379662 348.347363 288.317296 348.347363 
z
" style="fill:#1f77b4;stroke:#ffffff;stroke-width:0.565685;"/>
    <path clip-path="url(#p35b0dc579b)" d="M 301.867839 304.520542 
C 302.805474 304.520542 303.704832 304.148016 304.367839 303.485008 
C 305.030847 302.822001 305.403373 301.922643 305.403373 300.985008 
C 305.403373 300.047374 305.030847 299.148016 304.367839 298.485008 
C 303.704832 297.822001 302.805474 297.449474 301.867839 297.449474 
C 300.930205 297.449474 300.030847 297.822001 299.367839 298.485008 
C 298.704832 299.148016 298.332306 300.047374 298.332306 300.985008 
C 298.332306 301.922643 298.704832 302.822001 299.367839 303.485008 
C 300.030847 304.148016 300.930205 304.520542 301.867839 304.520542 
z
" style="fill:#1f77b4;stroke:#ffffff;stroke-width:0.565685;"/>
    <path clip-path="url(#p35b0dc579b)" d="M 310.125647 282.338349 
C 311.063281 282.338349 311.962639 281.965823 312.625647 281.302816 
C 313.288654 280.639808 313.661181 279.74045 313.661181 278.802816 
C 313.661181 277.865181 313.288654 276.965823 312.625647 276.302816 
C 311.962639 275.639808 311.063281 275.267282 310.125647 275.267282 
C 309.188012 275.267282 308.288654 275.639808 307.625647 276.302816 
C 306.962639 276.965823 306.590113 277.865181 306.590113 278.802816 
C 306.590113 279.74045 306.962639 280.639808 307.625647 281.302816 
C 308.288654 281.965823 309.188012 282.338349 310.125647 282.338349 
z
" style="fill:#1f77b4;stroke:#ffffff;stroke-width:0.565685;"/>
    <path clip-path="url(#p35b0dc579b)" d="M 291.712912 265.176405 
C 292.650547 265.176405 293.549904 264.803879 294.212912 264.140871 
C 294.87592 263.477863 295.248446 262.578506 295.248446 261.640871 
C 295.248446 260.703237 294.87592 259.803879 294.212912 259.140871 
C 293.549904 258.477863 292.650547 258.105337 291.712912 258.105337 
C 290.775278 258.105337 289.87592 258.477863 289.212912 259.140871 
C 288.549904 259.803879 288.177378 260.703237 288.177378 261.640871 
C 288.177378 262.578506 288.549904 263.477863 289.212912 264.140871 
C 289.87592 264.803879 290.775278 265.176405 291.712912 265.176405 
z
" style="fill:#1f77b4;stroke:#ffffff;stroke-width:0.565685;"/>
    <path clip-path="url(#p35b0dc579b)" d="M 326.920602 255.113426 
C 327.858237 255.113426 328.757594 254.7409 329.420602 254.077892 
C 330.08361 253.414885 330.456136 252.515527 330.456136 251.577892 
C 330.456136 250.640258 330.08361 249.7409 329.420602 249.077892 
C 328.757594 248.414885 327.858237 248.042358 326.920602 248.042358 
C 325.982967 248.042358 325.08361 248.414885 324.420602 249.077892 
C 323.757594 249.7409 323.385068 250.640258 323.385068 251.577892 
C 323.385068 252.515527 323.757594 253.414885 324.420602 254.077892 
C 325.08361 254.7409 325.982967 255.113426 326.920602 255.113426 
z
" style="fill:#1f77b4;stroke:#ffffff;stroke-width:0.565685;"/>
    <path clip-path="url(#p35b0dc579b)" d="M 401.267231 238.952509 
C 402.204866 238.952509 403.104224 238.579983 403.767231 237.916975 
C 404.430239 237.253967 404.802765 236.354609 404.802765 235.416975 
C 404.802765 234.47934 404.430239 233.579983 403.767231 232.916975 
C 403.104224 232.253967 402.204866 231.881441 401.267231 231.881441 
C 400.329597 231.881441 399.430239 232.253967 398.767231 232.916975 
C 398.104224 233.579983 397.731698 234.47934 397.731698 235.416975 
C 397.731698 236.354609 398.104224 237.253967 398.767231 237.916975 
C 399.430239 238.579983 400.329597 238.952509 401.267231 238.952509 
z
" style="fill:#1f77b4;stroke:#ffffff;stroke-width:0.565685;"/>
    <path clip-path="url(#p35b0dc579b)" d="M 292.840995 332.643842 
C 293.77863 332.643842 294.677988 332.271316 295.340995 331.608308 
C 296.004003 330.945301 296.376529 330.045943 296.376529 329.108308 
C 296.376529 328.170674 296.004003 327.271316 295.340995 326.608308 
C 294.677988 325.945301 293.77863 325.572774 292.840995 325.572774 
C 291.903361 325.572774 291.004003 325.945301 290.340995 326.608308 
C 289.677988 327.271316 289.305462 328.170674 289.305462 329.108308 
C 289.305462 330.045943 289.677988 330.945301 290.340995 331.608308 
C 291.004003 332.271316 291.903361 332.643842 292.840995 332.643842 
z
" style="fill:#1f77b4;stroke:#ffffff;stroke-width:0.565685;"/>
    <path clip-path="url(#p35b0dc579b)" d="M 292.390064 340.818702 
C 293.327698 340.818702 294.227056 340.446176 294.890064 339.783168 
C 295.553071 339.12016 295.925597 338.220803 295.925597 337.283168 
C 295.925597 336.345534 295.553071 335.446176 294.890064 334.783168 
C 294.227056 334.12016 293.327698 333.747634 292.390064 333.747634 
C 291.452429 333.747634 290.553071 334.12016 289.890064 334.783168 
C 289.227056 335.446176 288.85453 336.345534 288.85453 337.283168 
C 288.85453 338.220803 289.227056 339.12016 289.890064 339.783168 
C 290.553071 340.446176 291.452429 340.818702 292.390064 340.818702 
z
" style="fill:#1f77b4;stroke:#ffffff;stroke-width:0.565685;"/>
    <path clip-path="url(#p35b0dc579b)" d="M 290.398545 340.501058 
C 291.336179 340.501058 292.235537 340.128532 292.898545 339.465524 
C 293.561553 338.802516 293.934079 337.903159 293.934079 336.965524 
C 293.934079 336.027889 293.561553 335.128532 292.898545 334.465524 
C 292.235537 333.802516 291.336179 333.42999 290.398545 333.42999 
C 289.46091 333.42999 288.561553 333.802516 287.898545 334.465524 
C 287.235537 335.128532 286.863011 336.027889 286.863011 336.965524 
C 286.863011 337.903159 287.235537 338.802516 287.898545 339.465524 
C 288.561553 340.128532 289.46091 340.501058 290.398545 340.501058 
z
" style="fill:#1f77b4;stroke:#ffffff;stroke-width:0.565685;"/>
    <path clip-path="url(#p35b0dc579b)" d="M 282.746642 327.542574 
C 283.684276 327.542574 284.583634 327.170047 285.246642 326.50704 
C 285.90965 325.844032 286.282176 324.944674 286.282176 324.00704 
C 286.282176 323.069405 285.90965 322.170047 285.246642 321.50704 
C 284.583634 320.844032 283.684276 320.471506 282.746642 320.471506 
C 281.809007 320.471506 280.90965 320.844032 280.246642 321.50704 
C 279.583634 322.170047 279.211108 323.069405 279.211108 324.00704 
C 279.211108 324.944674 279.583634 325.844032 280.246642 326.50704 
C 280.90965 327.170047 281.809007 327.542574 282.746642 327.542574 
z
" style="fill:#1f77b4;stroke:#ffffff;stroke-width:0.565685;"/>
    <path clip-path="url(#p35b0dc579b)" d="M 291.660166 327.06459 
C 292.597801 327.06459 293.497159 326.692064 294.160166 326.029056 
C 294.823174 325.366048 295.1957 324.466691 295.1957 323.529056 
C 295.1957 322.591422 294.823174 321.692064 294.160166 321.029056 
C 293.497159 320.366048 292.597801 319.993522 291.660166 319.993522 
C 290.722532 319.993522 289.823174 320.366048 289.160166 321.029056 
C 288.497159 321.692064 288.124632 322.591422 288.124632 323.529056 
C 288.124632 324.466691 288.497159 325.366048 289.160166 326.029056 
C 289.823174 326.692064 290.722532 327.06459 291.660166 327.06459 
z
" style="fill:#1f77b4;stroke:#ffffff;stroke-width:0.565685;"/>
    <path clip-path="url(#p35b0dc579b)" d="M 344.40807 261.944753 
C 345.345705 261.944753 346.245063 261.572227 346.90807 260.909219 
C 347.571078 260.246211 347.943604 259.346854 347.943604 258.409219 
C 347.943604 257.471585 347.571078 256.572227 346.90807 255.909219 
C 346.245063 255.246211 345.345705 254.873685 344.40807 254.873685 
C 343.470436 254.873685 342.571078 255.246211 341.90807 255.909219 
C 341.245063 256.572227 340.872536 257.471585 340.872536 258.409219 
C 340.872536 259.346854 341.245063 260.246211 341.90807 260.909219 
C 342.571078 261.572227 343.470436 261.944753 344.40807 261.944753 
z
" style="fill:#1f77b4;stroke:#ffffff;stroke-width:0.565685;"/>
    <path clip-path="url(#p35b0dc579b)" d="M 299.46656 322.533143 
C 300.404194 322.533143 301.303552 322.160617 301.96656 321.497609 
C 302.629568 320.834602 303.002094 319.935244 303.002094 318.997609 
C 303.002094 318.059975 302.629568 317.160617 301.96656 316.497609 
C 301.303552 315.834602 300.404194 315.462075 299.46656 315.462075 
C 298.528925 315.462075 297.629568 315.834602 296.96656 316.497609 
C 296.303552 317.160617 295.931026 318.059975 295.931026 318.997609 
C 295.931026 319.935244 296.303552 320.834602 296.96656 321.497609 
C 297.629568 322.160617 298.528925 322.533143 299.46656 322.533143 
z
" style="fill:#1f77b4;stroke:#ffffff;stroke-width:0.565685;"/>
    <path clip-path="url(#p35b0dc579b)" d="M 294.409597 307.245818 
L 294.409597 312.245818 
L 299.409597 312.245818 
L 299.409597 307.245818 
z
" style="fill:#1f77b4;stroke:#ffffff;stroke-width:0.565685;"/>
    <path clip-path="url(#p35b0dc579b)" d="M 283.938929 322.01358 
L 283.938929 327.01358 
L 288.938929 327.01358 
L 288.938929 322.01358 
z
" style="fill:#1f77b4;stroke:#ffffff;stroke-width:0.565685;"/>
    <path clip-path="url(#p35b0dc579b)" d="M 296.411079 302.397677 
L 296.411079 307.397677 
L 301.411079 307.397677 
L 301.411079 302.397677 
z
" style="fill:#1f77b4;stroke:#ffffff;stroke-width:0.565685;"/>
    <path clip-path="url(#p35b0dc579b)" d="M 295.019142 327.843684 
L 295.019142 332.843684 
L 300.019142 332.843684 
L 300.019142 327.843684 
z
" style="fill:#1f77b4;stroke:#ffffff;stroke-width:0.565685;"/>
    <path clip-path="url(#p35b0dc579b)" d="M 298.656613 324.0683 
L 298.656613 329.0683 
L 303.656613 329.0683 
L 303.656613 324.0683 
z
" style="fill:#1f77b4;stroke:#ffffff;stroke-width:0.565685;"/>
    <path clip-path="url(#p35b0dc579b)" d="M 293.344432 289.848485 
L 293.344432 294.848485 
L 298.344432 294.848485 
L 298.344432 289.848485 
z
" style="fill:#1f77b4;stroke:#ffffff;stroke-width:0.565685;"/>
    <path clip-path="url(#p35b0dc579b)" d="M 289.36398 316.185873 
C 290.301615 316.185873 291.200973 315.813347 291.86398 315.150339 
C 292.526988 314.487331 292.899514 313.587974 292.899514 312.650339 
C 292.899514 311.712705 292.526988 310.813347 291.86398 310.150339 
C 291.200973 309.487331 290.301615 309.114805 289.36398 309.114805 
C 288.426346 309.114805 287.526988 309.487331 286.86398 310.150339 
C 286.200973 310.813347 285.828446 311.712705 285.828446 312.650339 
C 285.828446 313.587974 286.200973 314.487331 286.86398 315.150339 
C 287.526988 315.813347 288.426346 316.185873 289.36398 316.185873 
z
" style="fill:#1f77b4;stroke:#ffffff;stroke-width:0.565685;"/>
    <path clip-path="url(#p35b0dc579b)" d="M 291.408715 285.367891 
L 291.408715 290.367891 
L 296.408715 290.367891 
L 296.408715 285.367891 
z
" style="fill:#1f77b4;stroke:#ffffff;stroke-width:0.565685;"/>
    <path clip-path="url(#p35b0dc579b)" d="M 295.986582 296.839107 
L 295.986582 301.839107 
L 300.986582 301.839107 
L 300.986582 296.839107 
z
" style="fill:#1f77b4;stroke:#ffffff;stroke-width:0.565685;"/>
    <path clip-path="url(#p35b0dc579b)" d="M 310.068724 307.90046 
L 310.068724 312.90046 
L 315.068724 312.90046 
L 315.068724 307.90046 
z
" style="fill:#1f77b4;stroke:#ffffff;stroke-width:0.565685;"/>
    <path clip-path="url(#p35b0dc579b)" d="M 297.945219 343.785151 
L 297.945219 348.785151 
L 302.945219 348.785151 
L 302.945219 343.785151 
z
" style="fill:#1f77b4;stroke:#ffffff;stroke-width:0.565685;"/>
    <path clip-path="url(#p35b0dc579b)" d="M 289.650658 327.608771 
L 289.650658 332.608771 
L 294.650658 332.608771 
L 294.650658 327.608771 
z
" style="fill:#1f77b4;stroke:#ffffff;stroke-width:0.565685;"/>
    <path clip-path="url(#p35b0dc579b)" d="M 290.05797 314.870683 
L 290.05797 319.870683 
L 295.05797 319.870683 
L 295.05797 314.870683 
z
" style="fill:#1f77b4;stroke:#ffffff;stroke-width:0.565685;"/>
    <path clip-path="url(#p35b0dc579b)" d="M 311.21596 281.809203 
L 311.21596 286.809203 
L 316.21596 286.809203 
L 316.21596 281.809203 
z
" style="fill:#1f77b4;stroke:#ffffff;stroke-width:0.565685;"/>
    <path clip-path="url(#p35b0dc579b)" d="M 301.883296 304.098321 
L 301.883296 309.098321 
L 306.883296 309.098321 
L 306.883296 304.098321 
z
" style="fill:#1f77b4;stroke:#ffffff;stroke-width:0.565685;"/>
    <path clip-path="url(#p35b0dc579b)" d="M 308.248084 305.970216 
L 308.248084 310.970216 
L 313.248084 310.970216 
L 313.248084 305.970216 
z
" style="fill:#1f77b4;stroke:#ffffff;stroke-width:0.565685;"/>
    <path clip-path="url(#p35b0dc579b)" d="M 302.753304 312.815204 
L 302.753304 317.815204 
L 307.753304 317.815204 
L 307.753304 312.815204 
z
" style="fill:#1f77b4;stroke:#ffffff;stroke-width:0.565685;"/>
    <path clip-path="url(#p35b0dc579b)" d="M 260.89579 331.155316 
L 260.89579 336.155316 
L 265.89579 336.155316 
L 265.89579 331.155316 
z
" style="fill:#1f77b4;stroke:#ffffff;stroke-width:0.565685;"/>
    <path clip-path="url(#p35b0dc579b)" d="M 305.608843 307.430826 
L 305.608843 312.430826 
L 310.608843 312.430826 
L 310.608843 307.430826 
z
" style="fill:#1f77b4;stroke:#ffffff;stroke-width:0.565685;"/>
    <path clip-path="url(#p35b0dc579b)" d="M 285.142343 301.418561 
L 285.142343 306.418561 
L 290.142343 306.418561 
L 290.142343 301.418561 
z
" style="fill:#1f77b4;stroke:#ffffff;stroke-width:0.565685;"/>
    <path clip-path="url(#p35b0dc579b)" d="M 275.046984 326.436489 
L 275.046984 331.436489 
L 280.046984 331.436489 
L 280.046984 326.436489 
z
" style="fill:#1f77b4;stroke:#ffffff;stroke-width:0.565685;"/>
    <path clip-path="url(#p35b0dc579b)" d="M 308.773781 291.549415 
L 308.773781 296.549415 
L 313.773781 296.549415 
L 313.773781 291.549415 
z
" style="fill:#1f77b4;stroke:#ffffff;stroke-width:0.565685;"/>
    <path clip-path="url(#p35b0dc579b)" d="M 284.287866 311.854874 
L 284.287866 316.854874 
L 289.287866 316.854874 
L 289.287866 311.854874 
z
" style="fill:#1f77b4;stroke:#ffffff;stroke-width:0.565685;"/>
    <path clip-path="url(#p35b0dc579b)" d="M 285.5844 318.343224 
L 285.5844 323.343224 
L 290.5844 323.343224 
L 290.5844 318.343224 
z
" style="fill:#1f77b4;stroke:#ffffff;stroke-width:0.565685;"/>
    <path clip-path="url(#p35b0dc579b)" d="M 285.368687 319.798236 
L 285.368687 324.798236 
L 290.368687 324.798236 
L 290.368687 319.798236 
z
" style="fill:#1f77b4;stroke:#ffffff;stroke-width:0.565685;"/>
    <path clip-path="url(#p35b0dc579b)" d="M 286.288426 332.079594 
L 286.288426 337.079594 
L 291.288426 337.079594 
L 291.288426 332.079594 
z
" style="fill:#1f77b4;stroke:#ffffff;stroke-width:0.565685;"/>
    <path clip-path="url(#p35b0dc579b)" d="M 289.095742 324.127408 
L 289.095742 329.127408 
L 294.095742 329.127408 
L 294.095742 324.127408 
z
" style="fill:#1f77b4;stroke:#ffffff;stroke-width:0.565685;"/>
    <path clip-path="url(#p35b0dc579b)" d="M 300.509675 303.943579 
L 300.509675 308.943579 
L 305.509675 308.943579 
L 305.509675 303.943579 
z
" style="fill:#1f77b4;stroke:#ffffff;stroke-width:0.565685;"/>
    <path clip-path="url(#p35b0dc579b)" d="M 285.116221 319.938177 
L 285.116221 324.938177 
L 290.116221 324.938177 
L 290.116221 319.938177 
z
" style="fill:#1f77b4;stroke:#ffffff;stroke-width:0.565685;"/>
    <path clip-path="url(#p35b0dc579b)" d="M 379.726205 227.539524 
L 379.726205 232.539524 
L 384.726205 232.539524 
L 384.726205 227.539524 
z
" style="fill:#1f77b4;stroke:#ffffff;stroke-width:0.565685;"/>
    <path clip-path="url(#p35b0dc579b)" d="M 285.855704 174.609484 
L 285.855704 179.609484 
L 290.855704 179.609484 
L 290.855704 174.609484 
z
" style="fill:#1f77b4;stroke:#ffffff;stroke-width:0.565685;"/>
    <path clip-path="url(#p35b0dc579b)" d="M 280.799046 340.406252 
L 280.799046 345.406252 
L 285.799046 345.406252 
L 285.799046 340.406252 
z
" style="fill:#1f77b4;stroke:#ffffff;stroke-width:0.565685;"/>
    <path clip-path="url(#p35b0dc579b)" d="M 294.63139 326.575791 
C 295.569025 326.575791 296.468383 326.203265 297.13139 325.540257 
C 297.794398 324.877249 298.166924 323.977892 298.166924 323.040257 
C 298.166924 322.102623 297.794398 321.203265 297.13139 320.540257 
C 296.468383 319.877249 295.569025 319.504723 294.63139 319.504723 
C 293.693756 319.504723 292.794398 319.877249 292.13139 320.540257 
C 291.468383 321.203265 291.095856 322.102623 291.095856 323.040257 
C 291.095856 323.977892 291.468383 324.877249 292.13139 325.540257 
C 292.794398 326.203265 293.693756 326.575791 294.63139 326.575791 
z
" style="fill:#1f77b4;stroke:#ffffff;stroke-width:0.565685;"/>
    <path clip-path="url(#p35b0dc579b)" d="M 296.879562 322.820996 
C 297.817196 322.820996 298.716554 322.44847 299.379562 321.785462 
C 300.042569 321.122454 300.415096 320.223096 300.415096 319.285462 
C 300.415096 318.347827 300.042569 317.44847 299.379562 316.785462 
C 298.716554 316.122454 297.817196 315.749928 296.879562 315.749928 
C 295.941927 315.749928 295.042569 316.122454 294.379562 316.785462 
C 293.716554 317.44847 293.344028 318.347827 293.344028 319.285462 
C 293.344028 320.223096 293.716554 321.122454 294.379562 321.785462 
C 295.042569 322.44847 295.941927 322.820996 296.879562 322.820996 
z
" style="fill:#1f77b4;stroke:#ffffff;stroke-width:0.565685;"/>
    <path clip-path="url(#p35b0dc579b)" d="M 302.164868 313.249759 
C 303.102502 313.249759 304.00186 312.877233 304.664868 312.214225 
C 305.327876 311.551217 305.700402 310.651859 305.700402 309.714225 
C 305.700402 308.77659 305.327876 307.877233 304.664868 307.214225 
C 304.00186 306.551217 303.102502 306.178691 302.164868 306.178691 
C 301.227233 306.178691 300.327876 306.551217 299.664868 307.214225 
C 299.00186 307.877233 298.629334 308.77659 298.629334 309.714225 
C 298.629334 310.651859 299.00186 311.551217 299.664868 312.214225 
C 300.327876 312.877233 301.227233 313.249759 302.164868 313.249759 
z
" style="fill:#1f77b4;stroke:#ffffff;stroke-width:0.565685;"/>
    <path clip-path="url(#p35b0dc579b)" d="M 288.36839 311.74266 
L 290.136157 309.974893 
L 291.903924 311.74266 
L 293.671691 309.974893 
L 291.903924 308.207126 
L 293.671691 306.439359 
L 291.903924 304.671592 
L 290.136157 306.439359 
L 288.36839 304.671592 
L 286.600623 306.439359 
L 288.36839 308.207126 
L 286.600623 309.974893 
z
" style="fill:#1f77b4;stroke:#ffffff;stroke-width:0.565685;"/>
    <path clip-path="url(#p35b0dc579b)" d="M 298.634479 303.754043 
C 299.572114 303.754043 300.471471 303.381517 301.134479 302.718509 
C 301.797487 302.055502 302.170013 301.156144 302.170013 300.218509 
C 302.170013 299.280875 301.797487 298.381517 301.134479 297.718509 
C 300.471471 297.055502 299.572114 296.682975 298.634479 296.682975 
C 297.696844 296.682975 296.797487 297.055502 296.134479 297.718509 
C 295.471471 298.381517 295.098945 299.280875 295.098945 300.218509 
C 295.098945 301.156144 295.471471 302.055502 296.134479 302.718509 
C 296.797487 303.381517 297.696844 303.754043 298.634479 303.754043 
z
" style="fill:#1f77b4;stroke:#ffffff;stroke-width:0.565685;"/>
    <path clip-path="url(#p35b0dc579b)" d="M 308.184905 246.11457 
C 309.12254 246.11457 310.021898 245.742044 310.684905 245.079037 
C 311.347913 244.416029 311.720439 243.516671 311.720439 242.579037 
C 311.720439 241.641402 311.347913 240.742044 310.684905 240.079037 
C 310.021898 239.416029 309.12254 239.043503 308.184905 239.043503 
C 307.247271 239.043503 306.347913 239.416029 305.684905 240.079037 
C 305.021898 240.742044 304.649371 241.641402 304.649371 242.579037 
C 304.649371 243.516671 305.021898 244.416029 305.684905 245.079037 
C 306.347913 245.742044 307.247271 246.11457 308.184905 246.11457 
z
" style="fill:#1f77b4;stroke:#ffffff;stroke-width:0.565685;"/>
    <path clip-path="url(#p35b0dc579b)" d="M 349.227544 280.796813 
C 350.165179 280.796813 351.064536 280.424286 351.727544 279.761279 
C 352.390552 279.098271 352.763078 278.198913 352.763078 277.261279 
C 352.763078 276.323644 352.390552 275.424286 351.727544 274.761279 
C 351.064536 274.098271 350.165179 273.725745 349.227544 273.725745 
C 348.28991 273.725745 347.390552 274.098271 346.727544 274.761279 
C 346.064536 275.424286 345.69201 276.323644 345.69201 277.261279 
C 345.69201 278.198913 346.064536 279.098271 346.727544 279.761279 
C 347.390552 280.424286 348.28991 280.796813 349.227544 280.796813 
z
" style="fill:#1f77b4;stroke:#ffffff;stroke-width:0.565685;"/>
    <path clip-path="url(#p35b0dc579b)" d="M 338.020467 307.92705 
C 338.958101 307.92705 339.857459 307.554524 340.520467 306.891516 
C 341.183475 306.228508 341.556001 305.329151 341.556001 304.391516 
C 341.556001 303.453881 341.183475 302.554524 340.520467 301.891516 
C 339.857459 301.228508 338.958101 300.855982 338.020467 300.855982 
C 337.082832 300.855982 336.183475 301.228508 335.520467 301.891516 
C 334.857459 302.554524 334.484933 303.453881 334.484933 304.391516 
C 334.484933 305.329151 334.857459 306.228508 335.520467 306.891516 
C 336.183475 307.554524 337.082832 307.92705 338.020467 307.92705 
z
" style="fill:#1f77b4;stroke:#ffffff;stroke-width:0.565685;"/>
    <path clip-path="url(#p35b0dc579b)" d="M 291.501637 371.414366 
C 292.439272 371.414366 293.33863 371.041839 294.001637 370.378832 
C 294.664645 369.715824 295.037171 368.816466 295.037171 367.878832 
C 295.037171 366.941197 294.664645 366.041839 294.001637 365.378832 
C 293.33863 364.715824 292.439272 364.343298 291.501637 364.343298 
C 290.564003 364.343298 289.664645 364.715824 289.001637 365.378832 
C 288.33863 366.041839 287.966103 366.941197 287.966103 367.878832 
C 287.966103 368.816466 288.33863 369.715824 289.001637 370.378832 
C 289.664645 371.041839 290.564003 371.414366 291.501637 371.414366 
z
" style="fill:#1f77b4;stroke:#ffffff;stroke-width:0.565685;"/>
    <path clip-path="url(#p35b0dc579b)" d="M 285.252219 392.537079 
C 286.189854 392.537079 287.089211 392.164553 287.752219 391.501545 
C 288.415227 390.838537 288.787753 389.93918 288.787753 389.001545 
C 288.787753 388.063911 288.415227 387.164553 287.752219 386.501545 
C 287.089211 385.838537 286.189854 385.466011 285.252219 385.466011 
C 284.314585 385.466011 283.415227 385.838537 282.752219 386.501545 
C 282.089211 387.164553 281.716685 388.063911 281.716685 389.001545 
C 281.716685 389.93918 282.089211 390.838537 282.752219 391.501545 
C 283.415227 392.164553 284.314585 392.537079 285.252219 392.537079 
z
" style="fill:#1f77b4;stroke:#ffffff;stroke-width:0.565685;"/>
    <path clip-path="url(#p35b0dc579b)" d="M 303.867395 295.038108 
C 304.80503 295.038108 305.704388 294.665582 306.367395 294.002574 
C 307.030403 293.339566 307.402929 292.440209 307.402929 291.502574 
C 307.402929 290.56494 307.030403 289.665582 306.367395 289.002574 
C 305.704388 288.339566 304.80503 287.96704 303.867395 287.96704 
C 302.929761 287.96704 302.030403 288.339566 301.367395 289.002574 
C 300.704388 289.665582 300.331861 290.56494 300.331861 291.502574 
C 300.331861 292.440209 300.704388 293.339566 301.367395 294.002574 
C 302.030403 294.665582 302.929761 295.038108 303.867395 295.038108 
z
" style="fill:#1f77b4;stroke:#ffffff;stroke-width:0.565685;"/>
    <path clip-path="url(#p35b0dc579b)" d="M 309.812522 329.09284 
C 310.750157 329.09284 311.649514 328.720314 312.312522 328.057306 
C 312.97553 327.394299 313.348056 326.494941 313.348056 325.557306 
C 313.348056 324.619672 312.97553 323.720314 312.312522 323.057306 
C 311.649514 322.394299 310.750157 322.021772 309.812522 322.021772 
C 308.874888 322.021772 307.97553 322.394299 307.312522 323.057306 
C 306.649514 323.720314 306.276988 324.619672 306.276988 325.557306 
C 306.276988 326.494941 306.649514 327.394299 307.312522 328.057306 
C 307.97553 328.720314 308.874888 329.09284 309.812522 329.09284 
z
" style="fill:#1f77b4;stroke:#ffffff;stroke-width:0.565685;"/>
    <path clip-path="url(#p35b0dc579b)" d="M 290.57677 306.420995 
C 291.514405 306.420995 292.413763 306.048469 293.07677 305.385461 
C 293.739778 304.722453 294.112304 303.823095 294.112304 302.885461 
C 294.112304 301.947826 293.739778 301.048469 293.07677 300.385461 
C 292.413763 299.722453 291.514405 299.349927 290.57677 299.349927 
C 289.639136 299.349927 288.739778 299.722453 288.07677 300.385461 
C 287.413763 301.048469 287.041236 301.947826 287.041236 302.885461 
C 287.041236 303.823095 287.413763 304.722453 288.07677 305.385461 
C 288.739778 306.048469 289.639136 306.420995 290.57677 306.420995 
z
" style="fill:#1f77b4;stroke:#ffffff;stroke-width:0.565685;"/>
    <path clip-path="url(#p35b0dc579b)" d="M 295.029347 330.051083 
C 295.966981 330.051083 296.866339 329.678557 297.529347 329.015549 
C 298.192354 328.352541 298.564881 327.453184 298.564881 326.515549 
C 298.564881 325.577915 298.192354 324.678557 297.529347 324.015549 
C 296.866339 323.352541 295.966981 322.980015 295.029347 322.980015 
C 294.091712 322.980015 293.192354 323.352541 292.529347 324.015549 
C 291.866339 324.678557 291.493813 325.577915 291.493813 326.515549 
C 291.493813 327.453184 291.866339 328.352541 292.529347 329.015549 
C 293.192354 329.678557 294.091712 330.051083 295.029347 330.051083 
z
" style="fill:#1f77b4;stroke:#ffffff;stroke-width:0.565685;"/>
    <path clip-path="url(#p35b0dc579b)" d="M 292.722402 293.63414 
C 293.660036 293.63414 294.559394 293.261614 295.222402 292.598606 
C 295.88541 291.935598 296.257936 291.036241 296.257936 290.098606 
C 296.257936 289.160972 295.88541 288.261614 295.222402 287.598606 
C 294.559394 286.935598 293.660036 286.563072 292.722402 286.563072 
C 291.784767 286.563072 290.88541 286.935598 290.222402 287.598606 
C 289.559394 288.261614 289.186868 289.160972 289.186868 290.098606 
C 289.186868 291.036241 289.559394 291.935598 290.222402 292.598606 
C 290.88541 293.261614 291.784767 293.63414 292.722402 293.63414 
z
" style="fill:#1f77b4;stroke:#ffffff;stroke-width:0.565685;"/>
    <path clip-path="url(#p35b0dc579b)" d="M 327.153226 307.960256 
L 328.920993 306.192489 
L 330.68876 307.960256 
L 332.456527 306.192489 
L 330.68876 304.424722 
L 332.456527 302.656956 
L 330.68876 300.889189 
L 328.920993 302.656956 
L 327.153226 300.889189 
L 325.385459 302.656956 
L 327.153226 304.424722 
L 325.385459 306.192489 
z
" style="fill:#1f77b4;stroke:#ffffff;stroke-width:0.565685;"/>
    <path clip-path="url(#p35b0dc579b)" d="M 322.65542 308.879126 
L 324.423187 307.111359 
L 326.190954 308.879126 
L 327.958721 307.111359 
L 326.190954 305.343592 
L 327.958721 303.575825 
L 326.190954 301.808058 
L 324.423187 303.575825 
L 322.65542 301.808058 
L 320.887653 303.575825 
L 322.65542 305.343592 
L 320.887653 307.111359 
z
" style="fill:#1f77b4;stroke:#ffffff;stroke-width:0.565685;"/>
    <path clip-path="url(#p35b0dc579b)" d="M 299.582665 312.094364 
L 301.350432 310.326597 
L 303.118199 312.094364 
L 304.885966 310.326597 
L 303.118199 308.55883 
L 304.885966 306.791063 
L 303.118199 305.023296 
L 301.350432 306.791063 
L 299.582665 305.023296 
L 297.814898 306.791063 
L 299.582665 308.55883 
L 297.814898 310.326597 
z
" style="fill:#1f77b4;stroke:#ffffff;stroke-width:0.565685;"/>
    <path clip-path="url(#p35b0dc579b)" d="M 100.033638 431.76044 
L 101.801405 429.992673 
L 103.569172 431.76044 
L 105.336939 429.992673 
L 103.569172 428.224906 
L 105.336939 426.457139 
L 103.569172 424.689372 
L 101.801405 426.457139 
L 100.033638 424.689372 
L 98.265871 426.457139 
L 100.033638 428.224906 
L 98.265871 429.992673 
z
" style="fill:#1f77b4;stroke:#ffffff;stroke-width:0.565685;"/>
    <path clip-path="url(#p35b0dc579b)" d="M 232.334491 330.06937 
L 232.334491 335.06937 
L 237.334491 335.06937 
L 237.334491 330.06937 
z
" style="fill:#1f77b4;stroke:#ffffff;stroke-width:0.565685;"/>
    <path clip-path="url(#p35b0dc579b)" d="M 299.359583 312.976991 
C 300.297217 312.976991 301.196575 312.604465 301.859583 311.941457 
C 302.52259 311.27845 302.895117 310.379092 302.895117 309.441457 
C 302.895117 308.503823 302.52259 307.604465 301.859583 306.941457 
C 301.196575 306.27845 300.297217 305.905924 299.359583 305.905924 
C 298.421948 305.905924 297.52259 306.27845 296.859583 306.941457 
C 296.196575 307.604465 295.824049 308.503823 295.824049 309.441457 
C 295.824049 310.379092 296.196575 311.27845 296.859583 311.941457 
C 297.52259 312.604465 298.421948 312.976991 299.359583 312.976991 
z
" style="fill:#1f77b4;stroke:#ffffff;stroke-width:0.565685;"/>
    <path clip-path="url(#p35b0dc579b)" d="M 315.956032 299.472687 
L 317.723799 297.70492 
L 319.491566 299.472687 
L 321.259333 297.70492 
L 319.491566 295.937154 
L 321.259333 294.169387 
L 319.491566 292.40162 
L 317.723799 294.169387 
L 315.956032 292.40162 
L 314.188265 294.169387 
L 315.956032 295.937154 
L 314.188265 297.70492 
z
" style="fill:#1f77b4;stroke:#ffffff;stroke-width:0.565685;"/>
    <path clip-path="url(#p35b0dc579b)" d="M 300.965055 297.305065 
C 301.902689 297.305065 302.802047 296.932539 303.465055 296.269531 
C 304.128063 295.606523 304.500589 294.707166 304.500589 293.769531 
C 304.500589 292.831897 304.128063 291.932539 303.465055 291.269531 
C 302.802047 290.606523 301.902689 290.233997 300.965055 290.233997 
C 300.02742 290.233997 299.128063 290.606523 298.465055 291.269531 
C 297.802047 291.932539 297.429521 292.831897 297.429521 293.769531 
C 297.429521 294.707166 297.802047 295.606523 298.465055 296.269531 
C 299.128063 296.932539 300.02742 297.305065 300.965055 297.305065 
z
" style="fill:#1f77b4;stroke:#ffffff;stroke-width:0.565685;"/>
    <path clip-path="url(#p35b0dc579b)" d="M 247.355033 343.858704 
C 248.292667 343.858704 249.192025 343.486178 249.855033 342.82317 
C 250.51804 342.160163 250.890566 341.260805 250.890566 340.32317 
C 250.890566 339.385536 250.51804 338.486178 249.855033 337.82317 
C 249.192025 337.160163 248.292667 336.787637 247.355033 336.787637 
C 246.417398 336.787637 245.51804 337.160163 244.855033 337.82317 
C 244.192025 338.486178 243.819499 339.385536 243.819499 340.32317 
C 243.819499 341.260805 244.192025 342.160163 244.855033 342.82317 
C 245.51804 343.486178 246.417398 343.858704 247.355033 343.858704 
z
" style="fill:#1f77b4;stroke:#ffffff;stroke-width:0.565685;"/>
    <path clip-path="url(#p35b0dc579b)" d="M 286.434146 354.759124 
L 286.434146 359.759124 
L 291.434146 359.759124 
L 291.434146 354.759124 
z
" style="fill:#1f77b4;stroke:#ffffff;stroke-width:0.565685;"/>
    <path clip-path="url(#p35b0dc579b)" d="M 292.011562 333.580145 
L 292.011562 338.580145 
L 297.011562 338.580145 
L 297.011562 333.580145 
z
" style="fill:#1f77b4;stroke:#ffffff;stroke-width:0.565685;"/>
    <path clip-path="url(#p35b0dc579b)" d="M 288.462147 387.099832 
L 288.462147 392.099832 
L 293.462147 392.099832 
L 293.462147 387.099832 
z
" style="fill:#1f77b4;stroke:#ffffff;stroke-width:0.565685;"/>
    <path clip-path="url(#p35b0dc579b)" d="M 292.35221 297.29024 
L 292.35221 302.29024 
L 297.35221 302.29024 
L 297.35221 297.29024 
z
" style="fill:#1f77b4;stroke:#ffffff;stroke-width:0.565685;"/>
    <path clip-path="url(#p35b0dc579b)" d="M 182.961029 485.733545 
C 183.898664 485.733545 184.798021 485.361019 185.461029 484.698011 
C 186.124037 484.035004 186.496563 483.135646 186.496563 482.198011 
C 186.496563 481.260377 186.124037 480.361019 185.461029 479.698011 
C 184.798021 479.035004 183.898664 478.662477 182.961029 478.662477 
C 182.023395 478.662477 181.124037 479.035004 180.461029 479.698011 
C 179.798021 480.361019 179.425495 481.260377 179.425495 482.198011 
C 179.425495 483.135646 179.798021 484.035004 180.461029 484.698011 
C 181.124037 485.361019 182.023395 485.733545 182.961029 485.733545 
z
" style="fill:#1f77b4;stroke:#ffffff;stroke-width:0.565685;"/>
    <path clip-path="url(#p35b0dc579b)" d="M 264.794394 332.618676 
L 264.794394 337.618676 
L 269.794394 337.618676 
L 269.794394 332.618676 
z
" style="fill:#1f77b4;stroke:#ffffff;stroke-width:0.565685;"/>
    <path clip-path="url(#p35b0dc579b)" d="M 291.89457 290.935499 
C 292.832205 290.935499 293.731562 290.562973 294.39457 289.899965 
C 295.057578 289.236958 295.430104 288.3376 295.430104 287.399965 
C 295.430104 286.462331 295.057578 285.562973 294.39457 284.899965 
C 293.731562 284.236958 292.832205 283.864431 291.89457 283.864431 
C 290.956935 283.864431 290.057578 284.236958 289.39457 284.899965 
C 288.731562 285.562973 288.359036 286.462331 288.359036 287.399965 
C 288.359036 288.3376 288.731562 289.236958 289.39457 289.899965 
C 290.057578 290.562973 290.956935 290.935499 291.89457 290.935499 
z
" style="fill:#1f77b4;stroke:#ffffff;stroke-width:0.565685;"/>
   </g>
   <g id="PathCollection_2"/>
   <g id="PathCollection_3"/>
   <g id="PathCollection_4"/>
   <g id="matplotlib.axis_1">
    <g id="xtick_1">
     <g id="line2d_1">
      <defs>
       <path d="M 0 0 
L 0 3.5 
" id="m85f82d67b7" style="stroke:#000000;stroke-width:0.8;"/>
      </defs>
      <g>
       <use style="stroke:#000000;stroke-width:0.8;" x="103.7356" xlink:href="#m85f82d67b7" y="504.13125"/>
      </g>
     </g>
     <g id="text_1">
      <text style="font-family:DejaVu Sans;font-size:20px;font-stretch:normal;font-style:normal;font-weight:normal;text-anchor:middle;" transform="rotate(-0, 103.7356, 526.328125)" x="103.7356" y="526.328125">6</text>
     </g>
    </g>
    <g id="xtick_2">
     <g id="line2d_2">
      <g>
       <use style="stroke:#000000;stroke-width:0.8;" x="167.807571" xlink:href="#m85f82d67b7" y="504.13125"/>
      </g>
     </g>
     <g id="text_2">
      <text style="font-family:DejaVu Sans;font-size:20px;font-stretch:normal;font-style:normal;font-weight:normal;text-anchor:middle;" transform="rotate(-0, 167.807571, 526.328125)" x="167.807571" y="526.328125">4</text>
     </g>
    </g>
    <g id="xtick_3">
     <g id="line2d_3">
      <g>
       <use style="stroke:#000000;stroke-width:0.8;" x="231.879542" xlink:href="#m85f82d67b7" y="504.13125"/>
      </g>
     </g>
     <g id="text_3">
      <text style="font-family:DejaVu Sans;font-size:20px;font-stretch:normal;font-style:normal;font-weight:normal;text-anchor:middle;" transform="rotate(-0, 231.879542, 526.328125)" x="231.879542" y="526.328125">2</text>
     </g>
    </g>
    <g id="xtick_4">
     <g id="line2d_4">
      <g>
       <use style="stroke:#000000;stroke-width:0.8;" x="295.951513" xlink:href="#m85f82d67b7" y="504.13125"/>
      </g>
     </g>
     <g id="text_4">
      <text style="font-family:DejaVu Sans;font-size:20px;font-stretch:normal;font-style:normal;font-weight:normal;text-anchor:middle;" transform="rotate(-0, 295.951513, 526.328125)" x="295.951513" y="526.328125">0</text>
     </g>
    </g>
    <g id="xtick_5">
     <g id="line2d_5">
      <g>
       <use style="stroke:#000000;stroke-width:0.8;" x="360.023485" xlink:href="#m85f82d67b7" y="504.13125"/>
      </g>
     </g>
     <g id="text_5">
      <text style="font-family:DejaVu Sans;font-size:20px;font-stretch:normal;font-style:normal;font-weight:normal;text-anchor:middle;" transform="rotate(-0, 360.023485, 526.328125)" x="360.023485" y="526.328125">2</text>
     </g>
    </g>
    <g id="xtick_6">
     <g id="line2d_6">
      <g>
       <use style="stroke:#000000;stroke-width:0.8;" x="424.095456" xlink:href="#m85f82d67b7" y="504.13125"/>
      </g>
     </g>
     <g id="text_6">
      <text style="font-family:DejaVu Sans;font-size:20px;font-stretch:normal;font-style:normal;font-weight:normal;text-anchor:middle;" transform="rotate(-0, 424.095456, 526.328125)" x="424.095456" y="526.328125">4</text>
     </g>
    </g>
    <g id="xtick_7">
     <g id="line2d_7">
      <g>
       <use style="stroke:#000000;stroke-width:0.8;" x="488.167427" xlink:href="#m85f82d67b7" y="504.13125"/>
      </g>
     </g>
     <g id="text_7">
      <text style="font-family:DejaVu Sans;font-size:20px;font-stretch:normal;font-style:normal;font-weight:normal;text-anchor:middle;" transform="rotate(-0, 488.167427, 526.328125)" x="488.167427" y="526.328125">6</text>
     </g>
    </g>
    <g id="text_8">
     <text style="font-family:DejaVu Sans;font-size:20px;font-stretch:normal;font-style:normal;font-weight:normal;text-anchor:middle;" transform="rotate(-0, 299.846705, 549.684375)" x="299.846705" y="549.684375">Monocyte_effect_score_normed</text>
    </g>
   </g>
   <g id="matplotlib.axis_2">
    <g id="ytick_1">
     <g id="line2d_8">
      <defs>
       <path d="M 0 0 
L -3.5 0 
" id="m42594755bf" style="stroke:#000000;stroke-width:0.8;"/>
      </defs>
      <g>
       <use style="stroke:#000000;stroke-width:0.8;" x="81.996875" xlink:href="#m42594755bf" y="416.167862"/>
      </g>
     </g>
     <g id="text_9">
      <text style="font-family:DejaVu Sans;font-size:20px;font-stretch:normal;font-style:normal;font-weight:normal;text-anchor:end;" transform="rotate(-0, 74.996875, 423.7663)" x="74.996875" y="423.7663">2</text>
     </g>
    </g>
    <g id="ytick_2">
     <g id="line2d_9">
      <g>
       <use style="stroke:#000000;stroke-width:0.8;" x="81.996875" xlink:href="#m42594755bf" y="315.317007"/>
      </g>
     </g>
     <g id="text_10">
      <text style="font-family:DejaVu Sans;font-size:20px;font-stretch:normal;font-style:normal;font-weight:normal;text-anchor:end;" transform="rotate(-0, 74.996875, 322.915444)" x="74.996875" y="322.915444">0</text>
     </g>
    </g>
    <g id="ytick_3">
     <g id="line2d_10">
      <g>
       <use style="stroke:#000000;stroke-width:0.8;" x="81.996875" xlink:href="#m42594755bf" y="214.466151"/>
      </g>
     </g>
     <g id="text_11">
      <text style="font-family:DejaVu Sans;font-size:20px;font-stretch:normal;font-style:normal;font-weight:normal;text-anchor:end;" transform="rotate(-0, 74.996875, 222.064588)" x="74.996875" y="222.064588">2</text>
     </g>
    </g>
    <g id="ytick_4">
     <g id="line2d_11">
      <g>
       <use style="stroke:#000000;stroke-width:0.8;" x="81.996875" xlink:href="#m42594755bf" y="113.615295"/>
      </g>
     </g>
     <g id="text_12">
      <text style="font-family:DejaVu Sans;font-size:20px;font-stretch:normal;font-style:normal;font-weight:normal;text-anchor:end;" transform="rotate(-0, 74.996875, 121.213733)" x="74.996875" y="121.213733">4</text>
     </g>
    </g>
    <g id="text_13">
     <text style="font-family:DejaVu Sans;font-size:20px;font-stretch:normal;font-style:normal;font-weight:normal;text-anchor:middle;" transform="rotate(-90, 36.796875, 262.865625)" x="36.796875" y="262.865625">mono_scatac_effect_score_normed</text>
    </g>
   </g>
   <g id="line2d_12">
    <path clip-path="url(#p35b0dc579b)" d="M 360.023485 504.13125 
L 360.023485 21.6 
" style="fill:none;stroke:#ff0000;stroke-dasharray:5.55,2.4;stroke-dashoffset:0;stroke-width:1.5;"/>
   </g>
   <g id="line2d_13">
    <path clip-path="url(#p35b0dc579b)" d="M 231.879542 504.13125 
L 231.879542 21.6 
" style="fill:none;stroke:#ff0000;stroke-dasharray:5.55,2.4;stroke-dashoffset:0;stroke-width:1.5;"/>
   </g>
   <g id="line2d_14">
    <path clip-path="url(#p35b0dc579b)" d="M 81.996875 214.466151 
L 517.696534 214.466151 
" style="fill:none;stroke:#ff0000;stroke-dasharray:5.55,2.4;stroke-dashoffset:0;stroke-width:1.5;"/>
   </g>
   <g id="line2d_15">
    <path clip-path="url(#p35b0dc579b)" d="M 81.996875 416.167862 
L 517.696534 416.167862 
" style="fill:none;stroke:#ff0000;stroke-dasharray:5.55,2.4;stroke-dashoffset:0;stroke-width:1.5;"/>
   </g>
   <g id="patch_3">
    <path d="M 81.996875 504.13125 
L 81.996875 21.6 
" style="fill:none;stroke:#000000;stroke-linecap:square;stroke-linejoin:miter;stroke-width:0.8;"/>
   </g>
   <g id="patch_4">
    <path d="M 517.696534 504.13125 
L 517.696534 21.6 
" style="fill:none;stroke:#000000;stroke-linecap:square;stroke-linejoin:miter;stroke-width:0.8;"/>
   </g>
   <g id="patch_5">
    <path d="M 81.996875 504.13125 
L 517.696534 504.13125 
" style="fill:none;stroke:#000000;stroke-linecap:square;stroke-linejoin:miter;stroke-width:0.8;"/>
   </g>
   <g id="patch_6">
    <path d="M 81.996875 21.6 
L 517.696534 21.6 
" style="fill:none;stroke:#000000;stroke-linecap:square;stroke-linejoin:miter;stroke-width:0.8;"/>
   </g>
   <g id="text_14">
    <text style="font-family:DejaVu Sans;font-size:12px;font-stretch:normal;font-style:normal;font-weight:normal;text-anchor:start;" transform="rotate(-0, 497.892004, 43.533239)" x="497.892004" y="43.533239">rs636317</text>
   </g>
   <g id="text_15">
    <text style="font-family:DejaVu Sans;font-size:12px;font-stretch:normal;font-style:normal;font-weight:normal;text-anchor:start;" transform="rotate(-0, 264.009607, 427.887727)" x="264.009607" y="427.887727">rs636341</text>
   </g>
   <g id="text_16">
    <text style="font-family:DejaVu Sans;font-size:12px;font-stretch:normal;font-style:normal;font-weight:normal;text-anchor:start;" transform="rotate(-0, 316.553205, 267.062817)" x="316.553205" y="267.062817">rs514049</text>
   </g>
   <g id="text_17">
    <text style="font-family:DejaVu Sans;font-size:12px;font-stretch:normal;font-style:normal;font-weight:normal;text-anchor:start;" transform="rotate(-0, 304.952152, 298.323084)" x="304.952152" y="298.323084">rs395601</text>
   </g>
   <g id="text_18">
    <text style="font-family:DejaVu Sans;font-size:12px;font-stretch:normal;font-style:normal;font-weight:normal;text-anchor:start;" transform="rotate(-0, 409.09035, 270.287544)" x="409.09035" y="270.287544">rs1010322</text>
   </g>
   <g id="text_19">
    <text style="font-family:DejaVu Sans;font-size:12px;font-stretch:normal;font-style:normal;font-weight:normal;text-anchor:start;" transform="rotate(-0, 420.70612, 194.891827)" x="420.70612" y="194.891827">rs2526377</text>
   </g>
   <g id="text_20">
    <text style="font-family:DejaVu Sans;font-size:12px;font-stretch:normal;font-style:normal;font-weight:normal;text-anchor:start;" transform="rotate(-0, 370.599299, 383.329414)" x="370.599299" y="383.329414">rs76726049</text>
   </g>
   <g id="text_21">
    <text style="font-family:DejaVu Sans;font-size:12px;font-stretch:normal;font-style:normal;font-weight:normal;text-anchor:start;" transform="rotate(-0, 344.731661, 184.601626)" x="344.731661" y="184.601626">rs6064392</text>
   </g>
   <g id="text_22">
    <text style="font-family:DejaVu Sans;font-size:12px;font-stretch:normal;font-style:normal;font-weight:normal;text-anchor:start;" transform="rotate(-0, 326.920602, 251.577892)" x="326.920602" y="251.577892">rs9270920</text>
   </g>
   <g id="text_23">
    <text style="font-family:DejaVu Sans;font-size:12px;font-stretch:normal;font-style:normal;font-weight:normal;text-anchor:start;" transform="rotate(-0, 401.267231, 235.416975)" x="401.267231" y="235.416975">rs9270921</text>
   </g>
   <g id="text_24">
    <text style="font-family:DejaVu Sans;font-size:12px;font-stretch:normal;font-style:normal;font-weight:normal;text-anchor:start;" transform="rotate(-0, 288.355704, 177.109484)" x="288.355704" y="177.109484">rs9271145</text>
   </g>
   <g id="text_25">
    <text style="font-family:DejaVu Sans;font-size:12px;font-stretch:normal;font-style:normal;font-weight:normal;text-anchor:start;" transform="rotate(-0, 308.184905, 242.579037)" x="308.184905" y="242.579037">rs9271162</text>
   </g>
   <g id="text_26">
    <text style="font-family:DejaVu Sans;font-size:12px;font-stretch:normal;font-style:normal;font-weight:normal;text-anchor:start;" transform="rotate(-0, 303.867395, 291.502574)" x="303.867395" y="291.502574">rs9271171</text>
   </g>
   <g id="text_27">
    <text style="font-family:DejaVu Sans;font-size:12px;font-stretch:normal;font-style:normal;font-weight:normal;text-anchor:start;" transform="rotate(-0, 101.801405, 428.224906)" x="101.801405" y="428.224906">rs9271182</text>
   </g>
   <g id="text_28">
    <text style="font-family:DejaVu Sans;font-size:12px;font-stretch:normal;font-style:normal;font-weight:normal;text-anchor:start;" transform="rotate(-0, 182.961029, 482.198011)" x="182.961029" y="482.198011">rs28834970</text>
   </g>
   <g id="legend_1">
    <g id="patch_7">
     <path d="M 95.996875 156.1375 
L 291.39375 156.1375 
Q 295.39375 156.1375 295.39375 152.1375 
L 295.39375 35.6 
Q 295.39375 31.6 291.39375 31.6 
L 95.996875 31.6 
Q 91.996875 31.6 91.996875 35.6 
L 91.996875 152.1375 
Q 91.996875 156.1375 95.996875 156.1375 
z
" style="fill:#ffffff;opacity:0.8;stroke:#cccccc;stroke-linejoin:miter;"/>
    </g>
    <g id="text_29">
     <text style="font-family:DejaVu Sans;font-size:20px;font-stretch:normal;font-style:normal;font-weight:normal;text-anchor:start;" transform="rotate(-0, 106.590625, 54.796875)" x="106.590625" y="54.796875">cell_type_overlap</text>
    </g>
    <g id="PathCollection_5">
     <defs>
      <path d="M 0 3 
C 0.795609 3 1.55874 2.683901 2.12132 2.12132 
C 2.683901 1.55874 3 0.795609 3 0 
C 3 -0.795609 2.683901 -1.55874 2.12132 -2.12132 
C 1.55874 -2.683901 0.795609 -3 0 -3 
C -0.795609 -3 -1.55874 -2.683901 -2.12132 -2.12132 
C -2.683901 -1.55874 -3 -0.795609 -3 0 
C -3 0.795609 -2.683901 1.55874 -2.12132 2.12132 
C -1.55874 2.683901 -0.795609 3 0 3 
z
" id="m3c956fd8db" style="stroke:#333333;"/>
     </defs>
     <g>
      <use style="fill:#333333;stroke:#333333;" x="119.996875" xlink:href="#m3c956fd8db" y="79.459375"/>
     </g>
    </g>
    <g id="text_30">
     <text style="font-family:DejaVu Sans;font-size:20px;font-stretch:normal;font-style:normal;font-weight:normal;text-anchor:start;" transform="rotate(-0, 155.996875, 84.709375)" x="155.996875" y="84.709375">Both</text>
    </g>
    <g id="PathCollection_6">
     <defs>
      <path d="M -1.5 3 
L 0 1.5 
L 1.5 3 
L 3 1.5 
L 1.5 0 
L 3 -1.5 
L 1.5 -3 
L 0 -1.5 
L -1.5 -3 
L -3 -1.5 
L -1.5 0 
L -3 1.5 
z
" id="meb30633e59" style="stroke:#333333;"/>
     </defs>
     <g>
      <use style="fill:#333333;stroke:#333333;" x="119.996875" xlink:href="#meb30633e59" y="108.815625"/>
     </g>
    </g>
    <g id="text_31">
     <text style="font-family:DejaVu Sans;font-size:20px;font-stretch:normal;font-style:normal;font-weight:normal;text-anchor:start;" transform="rotate(-0, 155.996875, 114.065625)" x="155.996875" y="114.065625">Monocyte</text>
    </g>
    <g id="PathCollection_7">
     <defs>
      <path d="M -2.12132 -2.12132 
L -2.12132 2.12132 
L 2.12132 2.12132 
L 2.12132 -2.12132 
z
" id="m164d95e035" style="stroke:#333333;"/>
     </defs>
     <g>
      <use style="fill:#333333;stroke:#333333;" x="119.996875" xlink:href="#m164d95e035" y="138.171875"/>
     </g>
    </g>
    <g id="text_32">
     <text style="font-family:DejaVu Sans;font-size:20px;font-stretch:normal;font-style:normal;font-weight:normal;text-anchor:start;" transform="rotate(-0, 155.996875, 143.421875)" x="155.996875" y="143.421875">mono_scatac</text>
    </g>
   </g>
  </g>
 </g>
 <defs>
  <clipPath id="p35b0dc579b">
   <rect height="482.53125" width="435.699659" x="81.996875" y="21.6"/>
  </clipPath>
 </defs>
</svg>
