<?xml version="1.0" encoding="utf-8" standalone="no"?>
<!DOCTYPE svg PUBLIC "-//W3C//DTD SVG 1.1//EN"
  "http://www.w3.org/Graphics/SVG/1.1/DTD/svg11.dtd">
<!-- Created with matplotlib (https://matplotlib.org/) -->
<svg height="576pt" version="1.1" viewBox="0 0 720 576" width="720pt" xmlns="http://www.w3.org/2000/svg" xmlns:xlink="http://www.w3.org/1999/xlink">
 <defs>
  <style type="text/css">
*{stroke-linecap:butt;stroke-linejoin:round;white-space:pre;}
  </style>
 </defs>
 <g id="figure_1">
  <g id="patch_1">
   <path d="M 0 576 
L 720 576 
L 720 0 
L 0 0 
z
" style="fill:#ffffff;"/>
  </g>
  <g id="axes_1">
   <g id="patch_2">
    <path d="M 82.640625 532.165625 
L 691.635937 532.165625 
L 691.635937 24.469375 
L 82.640625 24.469375 
z
" style="fill:#ffffff;"/>
   </g>
   <g id="patch_3">
    <path clip-path="url(#pf5edf4f751)" d="M 110.32223 532.165625 
L 114.355979 532.165625 
L 114.355979 225.336063 
L 110.32223 225.336063 
z
" style="fill:#31688e;"/>
   </g>
   <g id="patch_4">
    <path clip-path="url(#pf5edf4f751)" d="M 115.364417 532.165625 
L 119.398166 532.165625 
L 119.398166 242.760354 
L 115.364417 242.760354 
z
" style="fill:#31688e;"/>
   </g>
   <g id="patch_5">
    <path clip-path="url(#pf5edf4f751)" d="M 120.406604 532.165625 
L 124.440353 532.165625 
L 124.440353 442.554025 
L 120.406604 442.554025 
z
" style="fill:#31688e;"/>
   </g>
   <g id="patch_6">
    <path clip-path="url(#pf5edf4f751)" d="M 125.44879 532.165625 
L 129.48254 532.165625 
L 129.48254 511.524512 
L 125.44879 511.524512 
z
" style="fill:#31688e;"/>
   </g>
   <g id="patch_7">
    <path clip-path="url(#pf5edf4f751)" d="M 130.490977 532.165625 
L 134.524726 532.165625 
L 134.524726 519.864308 
L 130.490977 519.864308 
z
" style="fill:#31688e;"/>
   </g>
   <g id="patch_8">
    <path clip-path="url(#pf5edf4f751)" d="M 135.533164 532.165625 
L 139.566913 532.165625 
L 139.566913 519.864308 
L 135.533164 519.864308 
z
" style="fill:#31688e;"/>
   </g>
   <g id="patch_9">
    <path clip-path="url(#pf5edf4f751)" d="M 140.57535 532.165625 
L 144.6091 532.165625 
L 144.6091 520.259423 
L 140.57535 520.259423 
z
" style="fill:#31688e;"/>
   </g>
   <g id="patch_10">
    <path clip-path="url(#pf5edf4f751)" d="M 145.617537 532.165625 
L 149.651287 532.165625 
L 149.651287 520.259423 
L 145.617537 520.259423 
z
" style="fill:#31688e;"/>
   </g>
   <g id="patch_11">
    <path clip-path="url(#pf5edf4f751)" d="M 150.659724 532.165625 
L 154.693473 532.165625 
L 154.693473 520.619339 
L 150.659724 520.619339 
z
" style="fill:#31688e;"/>
   </g>
   <g id="patch_12">
    <path clip-path="url(#pf5edf4f751)" d="M 155.701911 532.165625 
L 159.73566 532.165625 
L 159.73566 520.619339 
L 155.701911 520.619339 
z
" style="fill:#31688e;"/>
   </g>
   <g id="patch_13">
    <path clip-path="url(#pf5edf4f751)" d="M 160.744097 532.165625 
L 164.777847 532.165625 
L 164.777847 520.839811 
L 160.744097 520.839811 
z
" style="fill:#31688e;"/>
   </g>
   <g id="patch_14">
    <path clip-path="url(#pf5edf4f751)" d="M 165.786284 532.165625 
L 169.820033 532.165625 
L 169.820033 529.548577 
L 165.786284 529.548577 
z
" style="fill:#31688e;"/>
   </g>
   <g id="patch_15">
    <path clip-path="url(#pf5edf4f751)" d="M 170.828471 532.165625 
L 174.86222 532.165625 
L 174.86222 529.548577 
L 170.828471 529.548577 
z
" style="fill:#31688e;"/>
   </g>
   <g id="patch_16">
    <path clip-path="url(#pf5edf4f751)" d="M 175.870658 532.165625 
L 179.904407 532.165625 
L 179.904407 530.496877 
L 175.870658 530.496877 
z
" style="fill:#31688e;"/>
   </g>
   <g id="patch_17">
    <path clip-path="url(#pf5edf4f751)" d="M 180.912844 532.165625 
L 184.946594 532.165625 
L 184.946594 530.496877 
L 180.912844 530.496877 
z
" style="fill:#31688e;"/>
   </g>
   <g id="patch_18">
    <path clip-path="url(#pf5edf4f751)" d="M 185.955031 532.165625 
L 189.98878 532.165625 
L 189.98878 532.01447 
L 185.955031 532.01447 
z
" style="fill:#31688e;"/>
   </g>
   <g id="patch_19">
    <path clip-path="url(#pf5edf4f751)" d="M 190.997218 532.165625 
L 195.030967 532.165625 
L 195.030967 532.01447 
L 190.997218 532.01447 
z
" style="fill:#31688e;"/>
   </g>
   <g id="patch_20">
    <path clip-path="url(#pf5edf4f751)" d="M 196.039404 532.165625 
L 200.073154 532.165625 
L 200.073154 532.01447 
L 196.039404 532.01447 
z
" style="fill:#31688e;"/>
   </g>
   <g id="patch_21">
    <path clip-path="url(#pf5edf4f751)" d="M 201.081591 532.165625 
L 205.115341 532.165625 
L 205.115341 532.01447 
L 201.081591 532.01447 
z
" style="fill:#31688e;"/>
   </g>
   <g id="patch_22">
    <path clip-path="url(#pf5edf4f751)" d="M 206.123778 532.165625 
L 210.157527 532.165625 
L 210.157527 532.01447 
L 206.123778 532.01447 
z
" style="fill:#31688e;"/>
   </g>
   <g id="patch_23">
    <path clip-path="url(#pf5edf4f751)" d="M 211.165965 532.165625 
L 215.199714 532.165625 
L 215.199714 532.01447 
L 211.165965 532.01447 
z
" style="fill:#31688e;"/>
   </g>
   <g id="patch_24">
    <path clip-path="url(#pf5edf4f751)" d="M 216.208151 532.165625 
L 220.241901 532.165625 
L 220.241901 48.645387 
L 216.208151 48.645387 
z
" style="fill:#35b779;"/>
   </g>
   <g id="patch_25">
    <path clip-path="url(#pf5edf4f751)" d="M 221.250338 532.165625 
L 225.284087 532.165625 
L 225.284087 48.645387 
L 221.250338 48.645387 
z
" style="fill:#35b779;"/>
   </g>
   <g id="patch_26">
    <path clip-path="url(#pf5edf4f751)" d="M 226.292525 532.165625 
L 230.326274 532.165625 
L 230.326274 405.392061 
L 226.292525 405.392061 
z
" style="fill:#35b779;"/>
   </g>
   <g id="patch_27">
    <path clip-path="url(#pf5edf4f751)" d="M 231.334711 532.165625 
L 235.368461 532.165625 
L 235.368461 417.220695 
L 231.334711 417.220695 
z
" style="fill:#35b779;"/>
   </g>
   <g id="patch_28">
    <path clip-path="url(#pf5edf4f751)" d="M 236.376898 532.165625 
L 240.410648 532.165625 
L 240.410648 525.445556 
L 236.376898 525.445556 
z
" style="fill:#35b779;"/>
   </g>
   <g id="patch_29">
    <path clip-path="url(#pf5edf4f751)" d="M 241.419085 532.165625 
L 245.452834 532.165625 
L 245.452834 529.548577 
L 241.419085 529.548577 
z
" style="fill:#35b779;"/>
   </g>
   <g id="patch_30">
    <path clip-path="url(#pf5edf4f751)" d="M 246.461272 532.165625 
L 250.495021 532.165625 
L 250.495021 529.548577 
L 246.461272 529.548577 
z
" style="fill:#35b779;"/>
   </g>
   <g id="patch_31">
    <path clip-path="url(#pf5edf4f751)" d="M 251.503458 532.165625 
L 255.537208 532.165625 
L 255.537208 530.496877 
L 251.503458 530.496877 
z
" style="fill:#35b779;"/>
   </g>
   <g id="patch_32">
    <path clip-path="url(#pf5edf4f751)" d="M 256.545645 532.165625 
L 260.579394 532.165625 
L 260.579394 532.01447 
L 256.545645 532.01447 
z
" style="fill:#35b779;"/>
   </g>
   <g id="patch_33">
    <path clip-path="url(#pf5edf4f751)" d="M 261.587832 532.165625 
L 265.621581 532.165625 
L 265.621581 532.01447 
L 261.587832 532.01447 
z
" style="fill:#35b779;"/>
   </g>
   <g id="patch_34">
    <path clip-path="url(#pf5edf4f751)" d="M 266.630019 532.165625 
L 270.663768 532.165625 
L 270.663768 532.01447 
L 266.630019 532.01447 
z
" style="fill:#35b779;"/>
   </g>
   <g id="patch_35">
    <path clip-path="url(#pf5edf4f751)" d="M 271.672205 532.165625 
L 275.705955 532.165625 
L 275.705955 532.01447 
L 271.672205 532.01447 
z
" style="fill:#35b779;"/>
   </g>
   <g id="patch_36">
    <path clip-path="url(#pf5edf4f751)" d="M 276.714392 532.165625 
L 280.748141 532.165625 
L 280.748141 519.864308 
L 276.714392 519.864308 
z
" style="fill:#440154;"/>
   </g>
   <g id="patch_37">
    <path clip-path="url(#pf5edf4f751)" d="M 281.756579 532.165625 
L 285.790328 532.165625 
L 285.790328 519.864308 
L 281.756579 519.864308 
z
" style="fill:#440154;"/>
   </g>
   <g id="patch_38">
    <path clip-path="url(#pf5edf4f751)" d="M 286.798765 532.165625 
L 290.832515 532.165625 
L 290.832515 520.259423 
L 286.798765 520.259423 
z
" style="fill:#440154;"/>
   </g>
   <g id="patch_39">
    <path clip-path="url(#pf5edf4f751)" d="M 291.840952 532.165625 
L 295.874702 532.165625 
L 295.874702 520.259423 
L 291.840952 520.259423 
z
" style="fill:#440154;"/>
   </g>
   <g id="patch_40">
    <path clip-path="url(#pf5edf4f751)" d="M 296.883139 532.165625 
L 300.916888 532.165625 
L 300.916888 520.259423 
L 296.883139 520.259423 
z
" style="fill:#440154;"/>
   </g>
   <g id="patch_41">
    <path clip-path="url(#pf5edf4f751)" d="M 301.925326 532.165625 
L 305.959075 532.165625 
L 305.959075 520.259423 
L 301.925326 520.259423 
z
" style="fill:#440154;"/>
   </g>
   <g id="patch_42">
    <path clip-path="url(#pf5edf4f751)" d="M 306.967512 532.165625 
L 311.001262 532.165625 
L 311.001262 520.839811 
L 306.967512 520.839811 
z
" style="fill:#440154;"/>
   </g>
   <g id="patch_43">
    <path clip-path="url(#pf5edf4f751)" d="M 312.009699 532.165625 
L 316.043448 532.165625 
L 316.043448 532.01447 
L 312.009699 532.01447 
z
" style="fill:#440154;"/>
   </g>
   <g id="patch_44">
    <path clip-path="url(#pf5edf4f751)" d="M 317.051886 532.165625 
L 321.085635 532.165625 
L 321.085635 304.987284 
L 317.051886 304.987284 
z
" style="fill:#fde725;"/>
   </g>
   <g id="patch_45">
    <path clip-path="url(#pf5edf4f751)" d="M 322.094073 532.165625 
L 326.127822 532.165625 
L 326.127822 418.442543 
L 322.094073 418.442543 
z
" style="fill:#fde725;"/>
   </g>
   <g id="patch_46">
    <path clip-path="url(#pf5edf4f751)" d="M 327.136259 532.165625 
L 331.170009 532.165625 
L 331.170009 459.426388 
L 327.136259 459.426388 
z
" style="fill:#fde725;"/>
   </g>
   <g id="patch_47">
    <path clip-path="url(#pf5edf4f751)" d="M 332.178446 532.165625 
L 336.212195 532.165625 
L 336.212195 490.644962 
L 332.178446 490.644962 
z
" style="fill:#fde725;"/>
   </g>
   <g id="patch_48">
    <path clip-path="url(#pf5edf4f751)" d="M 337.220633 532.165625 
L 341.254382 532.165625 
L 341.254382 516.57699 
L 337.220633 516.57699 
z
" style="fill:#fde725;"/>
   </g>
   <g id="patch_49">
    <path clip-path="url(#pf5edf4f751)" d="M 342.262819 532.165625 
L 346.296569 532.165625 
L 346.296569 519.864308 
L 342.262819 519.864308 
z
" style="fill:#fde725;"/>
   </g>
   <g id="patch_50">
    <path clip-path="url(#pf5edf4f751)" d="M 347.305006 532.165625 
L 351.338756 532.165625 
L 351.338756 519.864308 
L 347.305006 519.864308 
z
" style="fill:#fde725;"/>
   </g>
   <g id="patch_51">
    <path clip-path="url(#pf5edf4f751)" d="M 352.347193 532.165625 
L 356.380942 532.165625 
L 356.380942 519.864308 
L 352.347193 519.864308 
z
" style="fill:#fde725;"/>
   </g>
   <g id="patch_52">
    <path clip-path="url(#pf5edf4f751)" d="M 357.38938 532.165625 
L 361.423129 532.165625 
L 361.423129 519.864308 
L 357.38938 519.864308 
z
" style="fill:#fde725;"/>
   </g>
   <g id="patch_53">
    <path clip-path="url(#pf5edf4f751)" d="M 362.431566 532.165625 
L 366.465316 532.165625 
L 366.465316 520.259423 
L 362.431566 520.259423 
z
" style="fill:#fde725;"/>
   </g>
   <g id="patch_54">
    <path clip-path="url(#pf5edf4f751)" d="M 367.473753 532.165625 
L 371.507502 532.165625 
L 371.507502 520.259423 
L 367.473753 520.259423 
z
" style="fill:#fde725;"/>
   </g>
   <g id="patch_55">
    <path clip-path="url(#pf5edf4f751)" d="M 372.51594 532.165625 
L 376.549689 532.165625 
L 376.549689 520.259423 
L 372.51594 520.259423 
z
" style="fill:#fde725;"/>
   </g>
   <g id="patch_56">
    <path clip-path="url(#pf5edf4f751)" d="M 377.558126 532.165625 
L 381.591876 532.165625 
L 381.591876 520.259423 
L 377.558126 520.259423 
z
" style="fill:#fde725;"/>
   </g>
   <g id="patch_57">
    <path clip-path="url(#pf5edf4f751)" d="M 382.600313 532.165625 
L 386.634063 532.165625 
L 386.634063 520.259423 
L 382.600313 520.259423 
z
" style="fill:#fde725;"/>
   </g>
   <g id="patch_58">
    <path clip-path="url(#pf5edf4f751)" d="M 387.6425 532.165625 
L 391.676249 532.165625 
L 391.676249 520.259423 
L 387.6425 520.259423 
z
" style="fill:#fde725;"/>
   </g>
   <g id="patch_59">
    <path clip-path="url(#pf5edf4f751)" d="M 392.684687 532.165625 
L 396.718436 532.165625 
L 396.718436 520.259423 
L 392.684687 520.259423 
z
" style="fill:#fde725;"/>
   </g>
   <g id="patch_60">
    <path clip-path="url(#pf5edf4f751)" d="M 397.726873 532.165625 
L 401.760623 532.165625 
L 401.760623 520.259423 
L 397.726873 520.259423 
z
" style="fill:#fde725;"/>
   </g>
   <g id="patch_61">
    <path clip-path="url(#pf5edf4f751)" d="M 402.76906 532.165625 
L 406.802809 532.165625 
L 406.802809 520.259423 
L 402.76906 520.259423 
z
" style="fill:#fde725;"/>
   </g>
   <g id="patch_62">
    <path clip-path="url(#pf5edf4f751)" d="M 407.811247 532.165625 
L 411.844996 532.165625 
L 411.844996 520.259423 
L 407.811247 520.259423 
z
" style="fill:#fde725;"/>
   </g>
   <g id="patch_63">
    <path clip-path="url(#pf5edf4f751)" d="M 412.853434 532.165625 
L 416.887183 532.165625 
L 416.887183 520.619339 
L 412.853434 520.619339 
z
" style="fill:#fde725;"/>
   </g>
   <g id="patch_64">
    <path clip-path="url(#pf5edf4f751)" d="M 417.89562 532.165625 
L 421.92937 532.165625 
L 421.92937 520.619339 
L 417.89562 520.619339 
z
" style="fill:#fde725;"/>
   </g>
   <g id="patch_65">
    <path clip-path="url(#pf5edf4f751)" d="M 422.937807 532.165625 
L 426.971556 532.165625 
L 426.971556 520.839811 
L 422.937807 520.839811 
z
" style="fill:#fde725;"/>
   </g>
   <g id="patch_66">
    <path clip-path="url(#pf5edf4f751)" d="M 427.979994 532.165625 
L 432.013743 532.165625 
L 432.013743 520.839811 
L 427.979994 520.839811 
z
" style="fill:#fde725;"/>
   </g>
   <g id="patch_67">
    <path clip-path="url(#pf5edf4f751)" d="M 433.02218 532.165625 
L 437.05593 532.165625 
L 437.05593 520.839811 
L 433.02218 520.839811 
z
" style="fill:#fde725;"/>
   </g>
   <g id="patch_68">
    <path clip-path="url(#pf5edf4f751)" d="M 438.064367 532.165625 
L 442.098117 532.165625 
L 442.098117 521.283122 
L 438.064367 521.283122 
z
" style="fill:#fde725;"/>
   </g>
   <g id="patch_69">
    <path clip-path="url(#pf5edf4f751)" d="M 443.106554 532.165625 
L 447.140303 532.165625 
L 447.140303 525.419848 
L 443.106554 525.419848 
z
" style="fill:#fde725;"/>
   </g>
   <g id="patch_70">
    <path clip-path="url(#pf5edf4f751)" d="M 448.148741 532.165625 
L 452.18249 532.165625 
L 452.18249 525.445556 
L 448.148741 525.445556 
z
" style="fill:#fde725;"/>
   </g>
   <g id="patch_71">
    <path clip-path="url(#pf5edf4f751)" d="M 453.190927 532.165625 
L 457.224677 532.165625 
L 457.224677 529.548577 
L 453.190927 529.548577 
z
" style="fill:#fde725;"/>
   </g>
   <g id="patch_72">
    <path clip-path="url(#pf5edf4f751)" d="M 458.233114 532.165625 
L 462.266863 532.165625 
L 462.266863 529.548577 
L 458.233114 529.548577 
z
" style="fill:#fde725;"/>
   </g>
   <g id="patch_73">
    <path clip-path="url(#pf5edf4f751)" d="M 463.275301 532.165625 
L 467.30905 532.165625 
L 467.30905 529.548577 
L 463.275301 529.548577 
z
" style="fill:#fde725;"/>
   </g>
   <g id="patch_74">
    <path clip-path="url(#pf5edf4f751)" d="M 468.317488 532.165625 
L 472.351237 532.165625 
L 472.351237 530.496877 
L 468.317488 530.496877 
z
" style="fill:#fde725;"/>
   </g>
   <g id="patch_75">
    <path clip-path="url(#pf5edf4f751)" d="M 473.359674 532.165625 
L 477.393424 532.165625 
L 477.393424 530.496877 
L 473.359674 530.496877 
z
" style="fill:#fde725;"/>
   </g>
   <g id="patch_76">
    <path clip-path="url(#pf5edf4f751)" d="M 478.401861 532.165625 
L 482.43561 532.165625 
L 482.43561 530.496877 
L 478.401861 530.496877 
z
" style="fill:#fde725;"/>
   </g>
   <g id="patch_77">
    <path clip-path="url(#pf5edf4f751)" d="M 483.444048 532.165625 
L 487.477797 532.165625 
L 487.477797 530.919309 
L 483.444048 530.919309 
z
" style="fill:#fde725;"/>
   </g>
   <g id="patch_78">
    <path clip-path="url(#pf5edf4f751)" d="M 488.486234 532.165625 
L 492.519984 532.165625 
L 492.519984 531.104232 
L 488.486234 531.104232 
z
" style="fill:#fde725;"/>
   </g>
   <g id="patch_79">
    <path clip-path="url(#pf5edf4f751)" d="M 493.528421 532.165625 
L 497.562171 532.165625 
L 497.562171 531.104232 
L 493.528421 531.104232 
z
" style="fill:#fde725;"/>
   </g>
   <g id="patch_80">
    <path clip-path="url(#pf5edf4f751)" d="M 498.570608 532.165625 
L 502.604357 532.165625 
L 502.604357 531.104232 
L 498.570608 531.104232 
z
" style="fill:#fde725;"/>
   </g>
   <g id="patch_81">
    <path clip-path="url(#pf5edf4f751)" d="M 503.612795 532.165625 
L 507.646544 532.165625 
L 507.646544 532.01447 
L 503.612795 532.01447 
z
" style="fill:#fde725;"/>
   </g>
   <g id="patch_82">
    <path clip-path="url(#pf5edf4f751)" d="M 508.654981 532.165625 
L 512.688731 532.165625 
L 512.688731 532.01447 
L 508.654981 532.01447 
z
" style="fill:#fde725;"/>
   </g>
   <g id="patch_83">
    <path clip-path="url(#pf5edf4f751)" d="M 513.697168 532.165625 
L 517.730917 532.165625 
L 517.730917 532.01447 
L 513.697168 532.01447 
z
" style="fill:#fde725;"/>
   </g>
   <g id="patch_84">
    <path clip-path="url(#pf5edf4f751)" d="M 518.739355 532.165625 
L 522.773104 532.165625 
L 522.773104 532.01447 
L 518.739355 532.01447 
z
" style="fill:#fde725;"/>
   </g>
   <g id="patch_85">
    <path clip-path="url(#pf5edf4f751)" d="M 523.781541 532.165625 
L 527.815291 532.165625 
L 527.815291 532.01447 
L 523.781541 532.01447 
z
" style="fill:#fde725;"/>
   </g>
   <g id="patch_86">
    <path clip-path="url(#pf5edf4f751)" d="M 528.823728 532.165625 
L 532.857478 532.165625 
L 532.857478 532.01447 
L 528.823728 532.01447 
z
" style="fill:#fde725;"/>
   </g>
   <g id="patch_87">
    <path clip-path="url(#pf5edf4f751)" d="M 533.865915 532.165625 
L 537.899664 532.165625 
L 537.899664 532.01447 
L 533.865915 532.01447 
z
" style="fill:#fde725;"/>
   </g>
   <g id="patch_88">
    <path clip-path="url(#pf5edf4f751)" d="M 538.908102 532.165625 
L 542.941851 532.165625 
L 542.941851 532.01447 
L 538.908102 532.01447 
z
" style="fill:#fde725;"/>
   </g>
   <g id="patch_89">
    <path clip-path="url(#pf5edf4f751)" d="M 543.950288 532.165625 
L 547.984038 532.165625 
L 547.984038 532.01447 
L 543.950288 532.01447 
z
" style="fill:#fde725;"/>
   </g>
   <g id="patch_90">
    <path clip-path="url(#pf5edf4f751)" d="M 548.992475 532.165625 
L 553.026224 532.165625 
L 553.026224 532.01447 
L 548.992475 532.01447 
z
" style="fill:#fde725;"/>
   </g>
   <g id="patch_91">
    <path clip-path="url(#pf5edf4f751)" d="M 554.034662 532.165625 
L 558.068411 532.165625 
L 558.068411 532.01447 
L 554.034662 532.01447 
z
" style="fill:#fde725;"/>
   </g>
   <g id="patch_92">
    <path clip-path="url(#pf5edf4f751)" d="M 559.076849 532.165625 
L 563.110598 532.165625 
L 563.110598 532.01447 
L 559.076849 532.01447 
z
" style="fill:#fde725;"/>
   </g>
   <g id="patch_93">
    <path clip-path="url(#pf5edf4f751)" d="M 564.119035 532.165625 
L 568.152785 532.165625 
L 568.152785 532.01447 
L 564.119035 532.01447 
z
" style="fill:#fde725;"/>
   </g>
   <g id="patch_94">
    <path clip-path="url(#pf5edf4f751)" d="M 569.161222 532.165625 
L 573.194971 532.165625 
L 573.194971 532.01447 
L 569.161222 532.01447 
z
" style="fill:#fde725;"/>
   </g>
   <g id="patch_95">
    <path clip-path="url(#pf5edf4f751)" d="M 574.203409 532.165625 
L 578.237158 532.165625 
L 578.237158 532.01447 
L 574.203409 532.01447 
z
" style="fill:#fde725;"/>
   </g>
   <g id="patch_96">
    <path clip-path="url(#pf5edf4f751)" d="M 579.245595 532.165625 
L 583.279345 532.165625 
L 583.279345 532.01447 
L 579.245595 532.01447 
z
" style="fill:#fde725;"/>
   </g>
   <g id="patch_97">
    <path clip-path="url(#pf5edf4f751)" d="M 584.287782 532.165625 
L 588.321532 532.165625 
L 588.321532 532.01447 
L 584.287782 532.01447 
z
" style="fill:#fde725;"/>
   </g>
   <g id="patch_98">
    <path clip-path="url(#pf5edf4f751)" d="M 589.329969 532.165625 
L 593.363718 532.165625 
L 593.363718 532.01447 
L 589.329969 532.01447 
z
" style="fill:#fde725;"/>
   </g>
   <g id="patch_99">
    <path clip-path="url(#pf5edf4f751)" d="M 594.372156 532.165625 
L 598.405905 532.165625 
L 598.405905 532.01447 
L 594.372156 532.01447 
z
" style="fill:#fde725;"/>
   </g>
   <g id="patch_100">
    <path clip-path="url(#pf5edf4f751)" d="M 599.414342 532.165625 
L 603.448092 532.165625 
L 603.448092 532.01447 
L 599.414342 532.01447 
z
" style="fill:#fde725;"/>
   </g>
   <g id="patch_101">
    <path clip-path="url(#pf5edf4f751)" d="M 604.456529 532.165625 
L 608.490278 532.165625 
L 608.490278 532.01447 
L 604.456529 532.01447 
z
" style="fill:#fde725;"/>
   </g>
   <g id="patch_102">
    <path clip-path="url(#pf5edf4f751)" d="M 609.498716 532.165625 
L 613.532465 532.165625 
L 613.532465 532.01447 
L 609.498716 532.01447 
z
" style="fill:#fde725;"/>
   </g>
   <g id="patch_103">
    <path clip-path="url(#pf5edf4f751)" d="M 614.540902 532.165625 
L 618.574652 532.165625 
L 618.574652 532.01447 
L 614.540902 532.01447 
z
" style="fill:#fde725;"/>
   </g>
   <g id="patch_104">
    <path clip-path="url(#pf5edf4f751)" d="M 619.583089 532.165625 
L 623.616839 532.165625 
L 623.616839 532.01447 
L 619.583089 532.01447 
z
" style="fill:#fde725;"/>
   </g>
   <g id="patch_105">
    <path clip-path="url(#pf5edf4f751)" d="M 624.625276 532.165625 
L 628.659025 532.165625 
L 628.659025 532.01447 
L 624.625276 532.01447 
z
" style="fill:#fde725;"/>
   </g>
   <g id="patch_106">
    <path clip-path="url(#pf5edf4f751)" d="M 629.667463 532.165625 
L 633.701212 532.165625 
L 633.701212 532.01447 
L 629.667463 532.01447 
z
" style="fill:#fde725;"/>
   </g>
   <g id="patch_107">
    <path clip-path="url(#pf5edf4f751)" d="M 634.709649 532.165625 
L 638.743399 532.165625 
L 638.743399 532.01447 
L 634.709649 532.01447 
z
" style="fill:#fde725;"/>
   </g>
   <g id="patch_108">
    <path clip-path="url(#pf5edf4f751)" d="M 639.751836 532.165625 
L 643.785585 532.165625 
L 643.785585 532.01447 
L 639.751836 532.01447 
z
" style="fill:#fde725;"/>
   </g>
   <g id="patch_109">
    <path clip-path="url(#pf5edf4f751)" d="M 644.794023 532.165625 
L 648.827772 532.165625 
L 648.827772 532.01447 
L 644.794023 532.01447 
z
" style="fill:#fde725;"/>
   </g>
   <g id="patch_110">
    <path clip-path="url(#pf5edf4f751)" d="M 649.83621 532.165625 
L 653.869959 532.165625 
L 653.869959 532.01447 
L 649.83621 532.01447 
z
" style="fill:#fde725;"/>
   </g>
   <g id="patch_111">
    <path clip-path="url(#pf5edf4f751)" d="M 654.878396 532.165625 
L 658.912146 532.165625 
L 658.912146 532.01447 
L 654.878396 532.01447 
z
" style="fill:#fde725;"/>
   </g>
   <g id="patch_112">
    <path clip-path="url(#pf5edf4f751)" d="M 659.920583 532.165625 
L 663.954332 532.165625 
L 663.954332 532.135708 
L 659.920583 532.135708 
z
" style="fill:#fde725;"/>
   </g>
   <g id="matplotlib.axis_1">
    <g id="xtick_1">
     <g id="line2d_1">
      <defs>
       <path d="M 0 0 
L 0 3.5 
" id="m6241b5c039" style="stroke:#000000;stroke-width:0.8;"/>
      </defs>
      <g>
       <use style="stroke:#000000;stroke-width:0.8;" x="112.339105" xlink:href="#m6241b5c039" y="532.165625"/>
      </g>
     </g>
    </g>
    <g id="xtick_2">
     <g id="line2d_2">
      <g>
       <use style="stroke:#000000;stroke-width:0.8;" x="213.182839" xlink:href="#m6241b5c039" y="532.165625"/>
      </g>
     </g>
    </g>
    <g id="xtick_3">
     <g id="line2d_3">
      <g>
       <use style="stroke:#000000;stroke-width:0.8;" x="314.026574" xlink:href="#m6241b5c039" y="532.165625"/>
      </g>
     </g>
    </g>
    <g id="xtick_4">
     <g id="line2d_4">
      <g>
       <use style="stroke:#000000;stroke-width:0.8;" x="414.870308" xlink:href="#m6241b5c039" y="532.165625"/>
      </g>
     </g>
    </g>
    <g id="xtick_5">
     <g id="line2d_5">
      <g>
       <use style="stroke:#000000;stroke-width:0.8;" x="515.714043" xlink:href="#m6241b5c039" y="532.165625"/>
      </g>
     </g>
    </g>
    <g id="xtick_6">
     <g id="line2d_6">
      <g>
       <use style="stroke:#000000;stroke-width:0.8;" x="616.557777" xlink:href="#m6241b5c039" y="532.165625"/>
      </g>
     </g>
    </g>
    <g id="text_1">
     <text style="font-family:DejaVu Sans;font-size:30px;font-style:normal;font-weight:normal;text-anchor:middle;" transform="rotate(-0, 387.138281, 558.960938)" x="387.138281" y="558.960938">Epigenome Roadmap cell type (H3K27ac)</text>
    </g>
   </g>
   <g id="matplotlib.axis_2">
    <g id="ytick_1">
     <g id="line2d_7">
      <defs>
       <path d="M 0 0 
L -3.5 0 
" id="m2219e2a7fd" style="stroke:#000000;stroke-width:0.8;"/>
      </defs>
      <g>
       <use style="stroke:#000000;stroke-width:0.8;" x="82.640625" xlink:href="#m2219e2a7fd" y="532.165625"/>
      </g>
     </g>
     <g id="text_2">
      <text style="font-family:DejaVu Sans;font-size:20px;font-style:normal;font-weight:normal;text-anchor:end;" transform="rotate(-0, 75.640625, 539.764063)" x="75.640625" y="539.764063">0.0</text>
     </g>
    </g>
    <g id="ytick_2">
     <g id="line2d_8">
      <g>
       <use style="stroke:#000000;stroke-width:0.8;" x="82.640625" xlink:href="#m2219e2a7fd" y="467.654798"/>
      </g>
     </g>
     <g id="text_3">
      <text style="font-family:DejaVu Sans;font-size:20px;font-style:normal;font-weight:normal;text-anchor:end;" transform="rotate(-0, 75.640625, 475.253235)" x="75.640625" y="475.253235">0.5</text>
     </g>
    </g>
    <g id="ytick_3">
     <g id="line2d_9">
      <g>
       <use style="stroke:#000000;stroke-width:0.8;" x="82.640625" xlink:href="#m2219e2a7fd" y="403.143971"/>
      </g>
     </g>
     <g id="text_4">
      <text style="font-family:DejaVu Sans;font-size:20px;font-style:normal;font-weight:normal;text-anchor:end;" transform="rotate(-0, 75.640625, 410.742408)" x="75.640625" y="410.742408">1.0</text>
     </g>
    </g>
    <g id="ytick_4">
     <g id="line2d_10">
      <g>
       <use style="stroke:#000000;stroke-width:0.8;" x="82.640625" xlink:href="#m2219e2a7fd" y="338.633143"/>
      </g>
     </g>
     <g id="text_5">
      <text style="font-family:DejaVu Sans;font-size:20px;font-style:normal;font-weight:normal;text-anchor:end;" transform="rotate(-0, 75.640625, 346.231581)" x="75.640625" y="346.231581">1.5</text>
     </g>
    </g>
    <g id="ytick_5">
     <g id="line2d_11">
      <g>
       <use style="stroke:#000000;stroke-width:0.8;" x="82.640625" xlink:href="#m2219e2a7fd" y="274.122316"/>
      </g>
     </g>
     <g id="text_6">
      <text style="font-family:DejaVu Sans;font-size:20px;font-style:normal;font-weight:normal;text-anchor:end;" transform="rotate(-0, 75.640625, 281.720754)" x="75.640625" y="281.720754">2.0</text>
     </g>
    </g>
    <g id="ytick_6">
     <g id="line2d_12">
      <g>
       <use style="stroke:#000000;stroke-width:0.8;" x="82.640625" xlink:href="#m2219e2a7fd" y="209.611489"/>
      </g>
     </g>
     <g id="text_7">
      <text style="font-family:DejaVu Sans;font-size:20px;font-style:normal;font-weight:normal;text-anchor:end;" transform="rotate(-0, 75.640625, 217.209926)" x="75.640625" y="217.209926">2.5</text>
     </g>
    </g>
    <g id="ytick_7">
     <g id="line2d_13">
      <g>
       <use style="stroke:#000000;stroke-width:0.8;" x="82.640625" xlink:href="#m2219e2a7fd" y="145.100662"/>
      </g>
     </g>
     <g id="text_8">
      <text style="font-family:DejaVu Sans;font-size:20px;font-style:normal;font-weight:normal;text-anchor:end;" transform="rotate(-0, 75.640625, 152.699099)" x="75.640625" y="152.699099">3.0</text>
     </g>
    </g>
    <g id="ytick_8">
     <g id="line2d_14">
      <g>
       <use style="stroke:#000000;stroke-width:0.8;" x="82.640625" xlink:href="#m2219e2a7fd" y="80.589835"/>
      </g>
     </g>
     <g id="text_9">
      <text style="font-family:DejaVu Sans;font-size:20px;font-style:normal;font-weight:normal;text-anchor:end;" transform="rotate(-0, 75.640625, 88.188272)" x="75.640625" y="88.188272">3.5</text>
     </g>
    </g>
    <g id="text_10">
     <text style="font-family:DejaVu Sans;font-size:30px;font-style:normal;font-weight:normal;text-anchor:middle;" transform="rotate(-90, 33.595313, 278.3175)" x="33.595313" y="278.3175">LDSC FDR -log10q (Jansen GWAS)</text>
    </g>
   </g>
   <g id="line2d_15">
    <path clip-path="url(#pf5edf4f751)" d="M 82.640625 364.304583 
L 691.635937 364.304583 
" style="fill:none;stroke:#000000;stroke-dasharray:5.55,2.4;stroke-dashoffset:0;stroke-width:1.5;"/>
   </g>
   <g id="patch_113">
    <path d="M 82.640625 532.165625 
L 82.640625 24.469375 
" style="fill:none;stroke:#000000;stroke-linecap:square;stroke-linejoin:miter;stroke-width:0.8;"/>
   </g>
   <g id="patch_114">
    <path d="M 691.635937 532.165625 
L 691.635937 24.469375 
" style="fill:none;stroke:#000000;stroke-linecap:square;stroke-linejoin:miter;stroke-width:0.8;"/>
   </g>
   <g id="patch_115">
    <path d="M 82.640625 532.165625 
L 691.635938 532.165625 
" style="fill:none;stroke:#000000;stroke-linecap:square;stroke-linejoin:miter;stroke-width:0.8;"/>
   </g>
   <g id="patch_116">
    <path d="M 82.640625 24.469375 
L 691.635938 24.469375 
" style="fill:none;stroke:#000000;stroke-linecap:square;stroke-linejoin:miter;stroke-width:0.8;"/>
   </g>
   <g id="legend_1">
    <g id="patch_117">
     <path d="M 556.326563 124.538125 
L 681.135937 124.538125 
Q 684.135937 124.538125 684.135937 121.538125 
L 684.135937 34.969375 
Q 684.135937 31.969375 681.135937 31.969375 
L 556.326563 31.969375 
Q 553.326563 31.969375 553.326563 34.969375 
L 553.326563 121.538125 
Q 553.326563 124.538125 556.326563 124.538125 
z
" style="fill:#ffffff;opacity:0.8;stroke:#cccccc;stroke-linejoin:miter;"/>
    </g>
    <g id="patch_118">
     <path d="M 559.326563 49.367031 
L 589.326563 49.367031 
L 589.326563 38.867031 
L 559.326563 38.867031 
z
" style="fill:#440154;stroke:#440154;stroke-linejoin:miter;"/>
    </g>
    <g id="text_11">
     <text style="font-family:DejaVu Sans;font-size:15px;font-style:normal;font-weight:normal;text-anchor:start;" transform="rotate(-0, 601.326563, 49.367031)" x="601.326563" y="49.367031">Brain</text>
    </g>
    <g id="patch_119">
     <path d="M 559.326563 71.384219 
L 589.326563 71.384219 
L 589.326563 60.884219 
L 559.326563 60.884219 
z
" style="fill:#31688e;stroke:#31688e;stroke-linejoin:miter;"/>
    </g>
    <g id="text_12">
     <text style="font-family:DejaVu Sans;font-size:15px;font-style:normal;font-weight:normal;text-anchor:start;" transform="rotate(-0, 601.326563, 71.384219)" x="601.326563" y="71.384219">Blood</text>
    </g>
    <g id="patch_120">
     <path d="M 559.326563 93.401406 
L 589.326563 93.401406 
L 589.326563 82.901406 
L 559.326563 82.901406 
z
" style="fill:#35b779;stroke:#35b779;stroke-linejoin:miter;"/>
    </g>
    <g id="text_13">
     <text style="font-family:DejaVu Sans;font-size:15px;font-style:normal;font-weight:normal;text-anchor:start;" transform="rotate(-0, 601.326563, 93.401406)" x="601.326563" y="93.401406">Brain New</text>
    </g>
    <g id="patch_121">
     <path d="M 559.326563 115.418594 
L 589.326563 115.418594 
L 589.326563 104.918594 
L 559.326563 104.918594 
z
" style="fill:#fde725;stroke:#fde725;stroke-linejoin:miter;"/>
    </g>
    <g id="text_14">
     <text style="font-family:DejaVu Sans;font-size:15px;font-style:normal;font-weight:normal;text-anchor:start;" transform="rotate(-0, 601.326563, 115.418594)" x="601.326563" y="115.418594">Other</text>
    </g>
   </g>
  </g>
 </g>
 <defs>
  <clipPath id="pf5edf4f751">
   <rect height="507.69625" width="608.995312" x="82.640625" y="24.469375"/>
  </clipPath>
 </defs>
</svg>
