<?xml version="1.0" encoding="utf-8" standalone="no"?>
<!DOCTYPE svg PUBLIC "-//W3C//DTD SVG 1.1//EN"
  "http://www.w3.org/Graphics/SVG/1.1/DTD/svg11.dtd">
<!-- Created with matplotlib (https://matplotlib.org/) -->
<svg height="288pt" version="1.1" viewBox="0 0 432 288" width="432pt" xmlns="http://www.w3.org/2000/svg" xmlns:xlink="http://www.w3.org/1999/xlink">
 <defs>
  <style type="text/css">
*{stroke-linecap:butt;stroke-linejoin:round;}
  </style>
 </defs>
 <g id="figure_1">
  <g id="patch_1">
   <path d="M 0 288 
L 432 288 
L 432 0 
L 0 0 
z
" style="fill:#ffffff;"/>
  </g>
  <g id="axes_1">
   <g id="patch_2">
    <path d="M 47.38125 246.84375 
L 417.7 246.84375 
L 417.7 25.918125 
L 47.38125 25.918125 
z
" style="fill:#ffffff;"/>
   </g>
   <g id="matplotlib.axis_1">
    <g id="xtick_1">
     <g id="line2d_1">
      <defs>
       <path d="M 0 0 
L 0 3.5 
" id="mf9ec7f5a9b" style="stroke:#000000;stroke-width:0.8;"/>
      </defs>
      <g>
       <use style="stroke:#000000;stroke-width:0.8;" x="64.21392" xlink:href="#mf9ec7f5a9b" y="246.84375"/>
      </g>
     </g>
     <g id="text_1">
      <text style="font-family:DejaVu Sans;font-size:10px;font-style:normal;font-weight:normal;text-anchor:middle;" transform="rotate(-0, 64.21392, 261.442187)" x="64.21392" y="261.442187">0.0</text>
     </g>
    </g>
    <g id="xtick_2">
     <g id="line2d_2">
      <g>
       <use style="stroke:#000000;stroke-width:0.8;" x="131.544602" xlink:href="#mf9ec7f5a9b" y="246.84375"/>
      </g>
     </g>
     <g id="text_2">
      <text style="font-family:DejaVu Sans;font-size:10px;font-style:normal;font-weight:normal;text-anchor:middle;" transform="rotate(-0, 131.544602, 261.442187)" x="131.544602" y="261.442187">0.2</text>
     </g>
    </g>
    <g id="xtick_3">
     <g id="line2d_3">
      <g>
       <use style="stroke:#000000;stroke-width:0.8;" x="198.875284" xlink:href="#mf9ec7f5a9b" y="246.84375"/>
      </g>
     </g>
     <g id="text_3">
      <text style="font-family:DejaVu Sans;font-size:10px;font-style:normal;font-weight:normal;text-anchor:middle;" transform="rotate(-0, 198.875284, 261.442187)" x="198.875284" y="261.442187">0.4</text>
     </g>
    </g>
    <g id="xtick_4">
     <g id="line2d_4">
      <g>
       <use style="stroke:#000000;stroke-width:0.8;" x="266.205966" xlink:href="#mf9ec7f5a9b" y="246.84375"/>
      </g>
     </g>
     <g id="text_4">
      <text style="font-family:DejaVu Sans;font-size:10px;font-style:normal;font-weight:normal;text-anchor:middle;" transform="rotate(-0, 266.205966, 261.442187)" x="266.205966" y="261.442187">0.6</text>
     </g>
    </g>
    <g id="xtick_5">
     <g id="line2d_5">
      <g>
       <use style="stroke:#000000;stroke-width:0.8;" x="333.536648" xlink:href="#mf9ec7f5a9b" y="246.84375"/>
      </g>
     </g>
     <g id="text_5">
      <text style="font-family:DejaVu Sans;font-size:10px;font-style:normal;font-weight:normal;text-anchor:middle;" transform="rotate(-0, 333.536648, 261.442187)" x="333.536648" y="261.442187">0.8</text>
     </g>
    </g>
    <g id="xtick_6">
     <g id="line2d_6">
      <g>
       <use style="stroke:#000000;stroke-width:0.8;" x="400.86733" xlink:href="#mf9ec7f5a9b" y="246.84375"/>
      </g>
     </g>
     <g id="text_6">
      <text style="font-family:DejaVu Sans;font-size:10px;font-style:normal;font-weight:normal;text-anchor:middle;" transform="rotate(-0, 400.86733, 261.442187)" x="400.86733" y="261.442187">1.0</text>
     </g>
    </g>
    <g id="text_7">
     <text style="font-family:DejaVu Sans;font-size:10px;font-style:normal;font-weight:normal;text-anchor:middle;" transform="rotate(-0, 232.540625, 275.120313)" x="232.540625" y="275.120313">False Positive Rate</text>
    </g>
   </g>
   <g id="matplotlib.axis_2">
    <g id="ytick_1">
     <g id="line2d_7">
      <defs>
       <path d="M 0 0 
L -3.5 0 
" id="m2e72c6e882" style="stroke:#000000;stroke-width:0.8;"/>
      </defs>
      <g>
       <use style="stroke:#000000;stroke-width:0.8;" x="47.38125" xlink:href="#m2e72c6e882" y="236.801676"/>
      </g>
     </g>
     <g id="text_8">
      <text style="font-family:DejaVu Sans;font-size:10px;font-style:normal;font-weight:normal;text-anchor:end;" transform="rotate(-0, 40.38125, 240.600895)" x="40.38125" y="240.600895">0.0</text>
     </g>
    </g>
    <g id="ytick_2">
     <g id="line2d_8">
      <g>
       <use style="stroke:#000000;stroke-width:0.8;" x="47.38125" xlink:href="#m2e72c6e882" y="196.633381"/>
      </g>
     </g>
     <g id="text_9">
      <text style="font-family:DejaVu Sans;font-size:10px;font-style:normal;font-weight:normal;text-anchor:end;" transform="rotate(-0, 40.38125, 200.432599)" x="40.38125" y="200.432599">0.2</text>
     </g>
    </g>
    <g id="ytick_3">
     <g id="line2d_9">
      <g>
       <use style="stroke:#000000;stroke-width:0.8;" x="47.38125" xlink:href="#m2e72c6e882" y="156.465085"/>
      </g>
     </g>
     <g id="text_10">
      <text style="font-family:DejaVu Sans;font-size:10px;font-style:normal;font-weight:normal;text-anchor:end;" transform="rotate(-0, 40.38125, 160.264304)" x="40.38125" y="160.264304">0.4</text>
     </g>
    </g>
    <g id="ytick_4">
     <g id="line2d_10">
      <g>
       <use style="stroke:#000000;stroke-width:0.8;" x="47.38125" xlink:href="#m2e72c6e882" y="116.29679"/>
      </g>
     </g>
     <g id="text_11">
      <text style="font-family:DejaVu Sans;font-size:10px;font-style:normal;font-weight:normal;text-anchor:end;" transform="rotate(-0, 40.38125, 120.096009)" x="40.38125" y="120.096009">0.6</text>
     </g>
    </g>
    <g id="ytick_5">
     <g id="line2d_11">
      <g>
       <use style="stroke:#000000;stroke-width:0.8;" x="47.38125" xlink:href="#m2e72c6e882" y="76.128494"/>
      </g>
     </g>
     <g id="text_12">
      <text style="font-family:DejaVu Sans;font-size:10px;font-style:normal;font-weight:normal;text-anchor:end;" transform="rotate(-0, 40.38125, 79.927713)" x="40.38125" y="79.927713">0.8</text>
     </g>
    </g>
    <g id="ytick_6">
     <g id="line2d_12">
      <g>
       <use style="stroke:#000000;stroke-width:0.8;" x="47.38125" xlink:href="#m2e72c6e882" y="35.960199"/>
      </g>
     </g>
     <g id="text_13">
      <text style="font-family:DejaVu Sans;font-size:10px;font-style:normal;font-weight:normal;text-anchor:end;" transform="rotate(-0, 40.38125, 39.759418)" x="40.38125" y="39.759418">1.0</text>
     </g>
    </g>
    <g id="text_14">
     <text style="font-family:DejaVu Sans;font-size:10px;font-style:normal;font-weight:normal;text-anchor:middle;" transform="rotate(-90, 18.398438, 136.380937)" x="18.398438" y="136.380937">True Positive Rate</text>
    </g>
   </g>
   <g id="line2d_13">
    <path clip-path="url(#p0d13e03db1)" d="M 64.21392 236.801676 
L 64.362053 211.756339 
L 64.373448 211.050546 
L 64.481698 204.244389 
L 64.49879 204.087546 
L 64.607041 199.964229 
L 64.612738 199.572122 
L 64.720989 197.011042 
L 64.743778 196.373352 
L 64.852029 192.838195 
L 64.857726 192.646269 
L 64.965977 188.178309 
L 64.983069 187.924472 
L 65.091319 185.530553 
L 65.097017 185.367519 
L 65.205267 183.943551 
L 65.216662 183.821791 
L 65.324913 181.363898 
L 65.33061 181.223565 
L 65.438861 179.617988 
L 65.450255 179.473528 
L 65.558506 177.663643 
L 65.564203 177.663643 
L 65.564203 177.55633 
L 65.672454 175.674215 
L 65.678151 175.515308 
L 65.786402 172.712773 
L 65.809191 172.613714 
L 65.809191 172.607523 
L 65.917442 171.121643 
L 65.928837 171.086559 
L 65.928837 171.012265 
L 66.037087 169.258101 
L 66.054179 169.181743 
L 66.054179 169.150788 
L 66.16243 167.842388 
L 66.185219 167.7165 
L 66.29347 166.164581 
L 66.310562 166.08616 
L 66.310562 166.057268 
L 66.418813 164.129751 
L 66.430207 164.109114 
L 66.430207 164.038947 
L 66.538458 162.375587 
L 66.561247 162.278592 
L 66.561247 162.266209 
L 66.669498 161.073378 
L 66.680893 160.951618 
L 66.783446 159.670046 
L 66.806235 159.564796 
L 66.914486 158.060343 
L 66.94867 157.950965 
L 67.051223 156.768452 
L 67.062618 156.768452 
L 67.062618 156.659075 
L 67.170869 155.412587 
L 67.182264 155.292891 
L 67.290514 154.552014 
L 67.324698 154.459147 
L 67.324698 154.446765 
L 67.432949 153.542854 
L 67.455739 153.431413 
L 67.563989 152.356214 
L 67.575384 152.234454 
L 67.683634 151.181956 
L 67.706424 151.093215 
L 67.706424 151.072578 
L 67.808977 150.298682 
L 67.843161 150.203751 
L 67.843161 150.191369 
L 67.951412 149.140934 
L 67.957109 149.140934 
L 67.957109 149.03362 
L 68.06536 148.05748 
L 68.099544 147.960485 
L 68.207795 147.077211 
L 68.21919 146.994663 
L 68.21919 146.986408 
L 68.32744 145.950419 
L 68.338835 145.938037 
L 68.338835 145.849296 
L 68.447085 144.920621 
L 68.45848 144.819499 
L 68.45848 144.811244 
L 68.566731 143.818594 
L 68.61231 143.663814 
L 68.72056 142.782605 
L 68.74335 142.677355 
L 68.8516 141.69915 
L 68.862995 141.604219 
L 68.971246 140.737456 
L 68.982641 140.650779 
L 68.982641 140.644588 
L 69.090891 139.620982 
L 69.107983 139.538433 
L 69.107983 139.530178 
L 69.216234 138.44466 
L 69.239023 138.343538 
L 69.341577 137.499475 
L 69.381458 137.423117 
L 69.489709 136.845275 
L 69.512498 136.775109 
L 69.620749 135.906281 
L 69.637841 135.834051 
L 69.746092 135.066346 
L 69.763184 135.008562 
L 69.871434 134.205774 
L 69.877132 134.205774 
L 69.877132 134.121161 
L 69.985382 133.423623 
L 70.008172 133.336947 
L 70.116422 132.598134 
L 70.156304 132.490821 
L 70.264555 131.450704 
L 70.298739 131.341327 
L 70.406989 130.971921 
L 70.446871 130.885244 
L 70.446871 130.876989 
L 70.555122 130.257873 
L 70.566517 130.150559 
L 70.674767 129.533506 
L 70.697557 129.43032 
L 70.805807 128.683252 
L 70.839992 128.592449 
L 70.839992 128.578003 
L 70.948242 128.128111 
L 70.993821 128.04969 
L 70.993821 128.018734 
L 71.102072 127.32945 
L 71.141954 127.246902 
L 71.141954 127.220073 
L 71.250204 126.510153 
L 71.284388 126.406966 
L 71.392639 125.767212 
L 71.415429 125.66609 
L 71.415429 125.657835 
L 71.523679 125.27811 
L 71.563561 125.168733 
L 71.671811 124.564062 
L 71.700298 124.475322 
L 71.700298 124.458812 
L 71.808549 123.975901 
L 71.831338 123.905735 
L 71.939589 123.228834 
L 71.973773 123.131839 
L 72.082024 122.423982 
L 72.116208 122.316668 
L 72.224459 121.784228 
L 72.281433 121.683106 
L 72.389683 121.160984 
L 72.423868 121.057798 
L 72.532118 120.539803 
L 72.572 120.4717 
L 72.572 120.43249 
L 72.68025 120.201353 
L 72.720132 120.112613 
L 72.720132 120.108485 
L 72.828383 119.40682 
L 72.862567 119.299506 
L 72.970818 118.781512 
L 73.005002 118.73611 
L 73.005002 118.674198 
L 73.113252 118.346066 
L 73.141739 118.238753 
L 73.24999 117.792989 
L 73.278477 117.722822 
L 73.386727 117.262612 
L 73.432307 117.169744 
L 73.540557 116.748745 
L 73.563347 116.682706 
L 73.671597 116.142011 
L 73.705782 116.073908 
L 73.705782 116.045016 
L 73.814032 115.454791 
L 73.836822 115.417644 
L 73.836822 115.384624 
L 73.945072 115.106022 
L 73.979257 115.006963 
L 74.08181 114.614856 
L 74.115994 114.538498 
L 74.224245 114.082415 
L 74.264126 113.993675 
L 74.372377 113.616014 
L 74.400864 113.554103 
L 74.509114 113.058809 
L 74.543299 112.953559 
L 74.651549 112.419055 
L 74.680036 112.344761 
L 74.788287 112.078541 
L 74.822471 111.975355 
L 74.930722 111.515145 
L 74.964906 111.405767 
L 75.073156 110.85269 
L 75.113038 110.74744 
L 75.221289 110.332632 
L 75.238381 110.248019 
L 75.346631 109.746534 
L 75.392211 109.647476 
L 75.500461 109.30077 
L 75.557435 109.199648 
L 75.659988 108.852943 
L 75.682778 108.753884 
L 75.791028 108.403051 
L 75.825213 108.320502 
L 75.933463 107.897439 
L 75.967648 107.808699 
L 76.075898 107.367062 
L 76.155662 107.222602 
L 76.263912 106.884151 
L 76.309491 106.778901 
L 76.412044 106.560147 
L 76.440531 106.492044 
L 76.537387 106.095809 
L 76.605756 106.007069 
L 76.605756 105.998814 
L 76.714006 105.584006 
L 76.759586 105.524158 
L 76.759586 105.478756 
L 76.867836 105.262065 
L 76.907718 105.18158 
L 77.015968 104.973144 
L 77.07864 104.869958 
L 77.18689 104.558336 
L 77.232469 104.448959 
L 77.34072 104.096062 
L 77.386299 104.017641 
L 77.488852 103.780313 
L 77.517339 103.724592 
L 77.62559 103.470754 
L 77.659774 103.37995 
L 77.768025 103.157068 
L 77.813604 103.053882 
L 77.921854 102.789726 
L 77.973131 102.68654 
L 77.973131 102.682412 
L 78.081381 102.463658 
L 78.138355 102.362535 
L 78.246606 102.079805 
L 78.332067 101.976619 
L 78.440317 101.669124 
L 78.480199 101.574193 
L 78.58845 101.25638 
L 78.673911 101.15113 
L 78.782161 100.843635 
L 78.85053 100.744577 
L 78.85053 100.734258 
L 78.95878 100.455656 
L 79.004359 100.366916 
L 79.11261 100.104823 
L 79.175281 100.014019 
L 79.283532 99.73748 
L 79.334808 99.650804 
L 79.443059 99.374265 
L 79.522822 99.273143 
L 79.631073 99.023432 
L 79.722231 98.918182 
L 79.819087 98.699428 
L 79.893153 98.596242 
L 80.001404 98.294938 
L 80.069772 98.191752 
L 80.178023 97.830601 
L 80.217905 97.727414 
L 80.326155 97.593272 
L 80.394524 97.485959 
L 80.502774 97.13719 
L 80.536959 97.034004 
L 80.645209 96.792548 
L 80.73067 96.685235 
L 80.838921 96.381867 
L 80.90729 96.280745 
L 81.01554 96.045481 
L 81.066817 95.962932 
L 81.175067 95.655437 
L 81.232041 95.54606 
L 81.340292 95.265393 
L 81.391568 95.186972 
L 81.499819 94.951708 
L 81.573885 94.844394 
L 81.682135 94.629767 
L 81.767596 94.534836 
L 81.875847 94.27687 
L 81.949913 94.175748 
L 82.058163 93.948738 
L 82.13223 93.84968 
L 82.24048 93.651562 
L 82.320244 93.556631 
L 82.428494 93.292475 
L 82.519653 93.183097 
L 82.627903 93.024191 
L 82.701969 92.918941 
L 82.81022 92.679549 
L 82.872891 92.586682 
L 82.981142 92.374118 
L 83.077997 92.270932 
L 83.186248 91.97582 
L 83.300196 91.895334 
L 83.408446 91.651815 
L 83.48821 91.55482 
L 83.59646 91.350512 
L 83.676224 91.265899 
L 83.784474 91.051272 
L 83.864238 90.941895 
L 83.972488 90.683929 
L 84.075042 90.574552 
L 84.183292 90.434219 
L 84.234569 90.333097 
L 84.234569 90.326905 
L 84.337122 90.172126 
L 84.422583 90.071004 
L 84.525136 89.804784 
L 84.593505 89.707789 
L 84.701755 89.550946 
L 84.770124 89.443632 
L 84.878374 89.29298 
L 84.969533 89.183603 
L 85.077783 89.012314 
L 85.12906 88.913255 
L 85.23731 88.721329 
L 85.294284 88.614016 
L 85.402535 88.450982 
L 85.482298 88.345732 
L 85.590549 88.157933 
L 85.710194 88.060938 
L 85.818445 87.904095 
L 85.909603 87.805036 
L 86.012156 87.660576 
L 86.080525 87.578027 
L 86.177381 87.43563 
L 86.262841 87.326253 
L 86.371092 87.1529 
L 86.410974 87.082734 
L 86.410974 87.045587 
L 86.519224 86.896999 
L 86.61608 86.793812 
L 86.724331 86.686499 
L 86.809791 86.62046 
L 86.918042 86.447107 
L 87.0092 86.348048 
L 87.117451 86.149931 
L 87.197214 86.065318 
L 87.197214 86.050872 
L 87.305465 85.875456 
L 87.385228 85.774333 
L 87.493479 85.524623 
L 87.613124 85.415246 
L 87.721375 85.213001 
L 87.829625 85.105687 
L 87.932178 84.893124 
L 88.017639 84.789938 
L 88.12589 84.614521 
L 88.228443 84.513399 
L 88.336693 84.393703 
L 88.399365 84.30909 
L 88.507615 84.119228 
L 88.558892 84.016042 
L 88.667142 83.828243 
L 88.769696 83.718866 
L 88.877946 83.607425 
L 88.980499 83.506302 
L 89.08875 83.341205 
L 89.179908 83.231827 
L 89.282461 83.060538 
L 89.385014 82.951161 
L 89.493265 82.798446 
L 89.61291 82.699387 
L 89.721161 82.507461 
L 89.812319 82.406338 
L 89.920569 82.288706 
L 90.045912 82.183456 
L 90.142768 82.055505 
L 90.233926 81.960574 
L 90.342177 81.801668 
L 90.461822 81.69229 
L 90.564375 81.574658 
L 90.627046 81.471472 
L 90.735297 81.33733 
L 90.820758 81.234144 
L 90.923311 81.104129 
L 91.082838 80.996816 
L 91.191089 80.875056 
L 91.299339 80.769806 
L 91.40759 80.600581 
L 91.510143 80.513905 
L 91.618393 80.357062 
L 91.681065 80.29515 
L 91.789315 80.099096 
L 91.943145 79.991783 
L 92.051395 79.828749 
L 92.171041 79.723499 
L 92.267896 79.595548 
L 92.381844 79.488235 
L 92.484397 79.37473 
L 92.63253 79.275671 
L 92.74078 79.176613 
L 92.883215 79.069299 
L 92.985768 78.972304 
L 93.128203 78.862927 
L 93.236454 78.751486 
L 93.350402 78.652427 
L 93.458652 78.507966 
L 93.583995 78.398589 
L 93.692245 78.305722 
L 93.823285 78.202535 
L 93.925839 78.111732 
L 94.022694 78.004418 
L 94.108155 77.892977 
L 94.279077 77.7836 
L 94.387328 77.655649 
L 94.484183 77.554527 
L 94.586736 77.410066 
L 94.763356 77.304816 
L 94.871606 77.209885 
L 95.008344 77.100508 
L 95.110897 76.999385 
L 95.264727 76.890008 
L 95.372977 76.788886 
L 95.447043 76.685699 
L 95.543899 76.54743 
L 95.680636 76.44218 
L 95.788887 76.343121 
L 95.857256 76.233744 
L 95.965506 76.130558 
L 96.090849 76.025308 
L 96.199099 75.922122 
L 96.352929 75.825127 
L 96.455482 75.719877 
L 96.563733 75.633201 
L 96.563733 75.616691 
L 96.671983 75.503186 
L 96.803023 75.393809 
L 96.911274 75.286496 
L 97.087893 75.179182 
L 97.196144 75.111079 
L 97.327184 75.007893 
L 97.429737 74.925344 
L 97.549382 74.818031 
L 97.651935 74.774692 
L 97.765883 74.671506 
L 97.868436 74.576575 
L 98.033661 74.469261 
L 98.141911 74.359884 
L 98.324228 74.256698 
L 98.432478 74.143193 
L 98.6034 74.040007 
L 98.711651 73.971904 
L 98.871178 73.866654 
L 98.979428 73.761405 
L 99.167443 73.652027 
L 99.275693 73.524076 
L 99.372549 73.414699 
L 99.480799 73.344533 
L 99.623234 73.247538 
L 99.731485 73.158798 
L 99.913801 73.04942 
L 100.022052 72.981317 
L 100.210066 72.882259 
L 100.318316 72.814156 
L 100.500633 72.704779 
L 100.603186 72.649058 
L 100.774108 72.545872 
L 100.882359 72.417921 
L 101.064675 72.314735 
L 101.172926 72.203294 
L 101.309663 72.09598 
L 101.417914 71.986603 
L 101.560349 71.877226 
L 101.668599 71.782295 
L 101.873705 71.681172 
L 101.981956 71.602751 
L 102.164273 71.495437 
L 102.272523 71.377805 
L 102.477629 71.268428 
L 102.58588 71.142541 
L 102.722617 71.057928 
L 102.830868 70.973315 
L 103.007487 70.868066 
L 103.115738 70.78758 
L 103.298054 70.684394 
L 103.406305 70.603909 
L 103.543042 70.508978 
L 103.645595 70.403728 
L 103.793728 70.294351 
L 103.901978 70.213866 
L 104.050111 70.104488 
L 104.158361 69.990983 
L 104.289401 69.881606 
L 104.397652 69.799057 
L 104.608455 69.691744 
L 104.716706 69.594749 
L 104.853443 69.489499 
L 104.961694 69.394568 
L 105.161103 69.291382 
L 105.257958 69.22947 
L 105.531433 69.122156 
L 105.633987 69.008652 
L 105.753632 68.905465 
L 105.861882 68.829108 
L 106.135357 68.71973 
L 106.243608 68.66401 
L 106.477201 68.554633 
L 106.579754 68.500976 
L 106.78486 68.391599 
L 106.893111 68.271903 
L 107.121007 68.162525 
L 107.229257 68.075849 
L 107.491337 67.966472 
L 107.593891 67.912815 
L 107.753418 67.803438 
L 107.844576 67.760099 
L 108.026893 67.663104 
L 108.129446 67.60532 
L 108.31746 67.504198 
L 108.420013 67.417521 
L 108.750462 67.308144 
L 108.853015 67.240041 
L 109.012542 67.130664 
L 109.115095 67.060497 
L 109.274622 66.953184 
L 109.382873 66.876826 
L 109.593676 66.771576 
L 109.69623 66.6849 
L 109.929823 66.57965 
L 110.038073 66.519802 
L 110.186206 66.412489 
L 110.283061 66.346449 
L 110.556536 66.249455 
L 110.664787 66.177224 
L 110.909775 66.067847 
L 111.006631 66.010063 
L 111.211737 65.900685 
L 111.319987 65.834646 
L 111.513699 65.729396 
L 111.621949 65.648911 
L 111.804266 65.547789 
L 111.912516 65.479686 
L 112.129018 65.372372 
L 112.231571 65.314588 
L 112.51644 65.205211 
L 112.624691 65.130917 
L 112.8241 65.031858 
L 112.93235 64.943118 
L 113.19443 64.841996 
L 113.296984 64.728491 
L 113.507787 64.619114 
L 113.616038 64.553075 
L 113.912302 64.443697 
L 114.020553 64.396232 
L 114.28833 64.286854 
L 114.396581 64.224943 
L 114.624477 64.121757 
L 114.721333 64.037144 
L 114.932136 63.940149 
L 115.006202 63.882365 
L 115.319559 63.772987 
L 115.42781 63.731713 
L 115.701285 63.626463 
L 115.79814 63.576934 
L 116.065918 63.475811 
L 116.168471 63.428346 
L 116.47613 63.318969 
L 116.578683 63.267375 
L 116.852158 63.170381 
L 116.949014 63.09815 
L 117.273766 62.988773 
L 117.382016 62.916543 
L 117.632702 62.813357 
L 117.72386 62.720489 
L 118.003032 62.611112 
L 118.111283 62.557455 
L 118.407547 62.450141 
L 118.515798 62.386166 
L 118.68672 62.285044 
L 118.783576 62.221068 
L 119.057051 62.119946 
L 119.165301 62.049779 
L 119.438776 61.940402 
L 119.547027 61.901191 
L 119.752133 61.791814 
L 119.860383 61.750539 
L 120.111069 61.641162 
L 120.219319 61.593696 
L 120.498492 61.488447 
L 120.606742 61.426535 
L 120.846033 61.319221 
L 120.942889 61.267628 
L 121.222061 61.160315 
L 121.330311 61.11904 
L 121.700642 61.009663 
L 121.803195 60.972516 
L 122.150736 60.867266 
L 122.25329 60.805354 
L 122.526765 60.702168 
L 122.635015 60.634066 
L 122.914187 60.528816 
L 123.022438 60.485477 
L 123.375676 60.3761 
L 123.47823 60.328635 
L 123.831468 60.219257 
L 123.934021 60.171792 
L 124.281562 60.062414 
L 124.389813 60.025267 
L 124.566432 59.924145 
L 124.65759 59.884934 
L 124.856999 59.777621 
L 124.948158 59.742537 
L 125.215935 59.643479 
L 125.324186 59.556802 
L 125.62045 59.447425 
L 125.728701 59.393768 
L 126.05915 59.284391 
L 126.1674 59.247244 
L 126.349717 59.137867 
L 126.457967 59.106911 
L 126.822601 59.001661 
L 126.930851 58.939749 
L 127.181537 58.830372 
L 127.266998 58.799416 
L 127.67721 58.692103 
L 127.785461 58.671465 
L 127.984869 58.57447 
L 128.087423 58.527005 
L 128.446359 58.417628 
L 128.548912 58.382544 
L 128.907848 58.273167 
L 128.993309 58.244275 
L 129.329455 58.136961 
L 129.437705 58.103942 
L 129.75676 57.994564 
L 129.853615 57.926462 
L 130.28092 57.823275 
L 130.38917 57.790256 
L 130.56579 57.682942 
L 130.668343 57.627222 
L 130.890541 57.521972 
L 130.993094 57.462124 
L 131.363425 57.352747 
L 131.460281 57.325918 
L 131.927467 57.216541 
L 132.018626 57.171139 
L 132.394654 57.061762 
L 132.502904 57.018424 
L 132.86184 56.909046 
L 132.970091 56.873963 
L 133.272053 56.764586 
L 133.380303 56.725375 
L 133.602502 56.615998 
L 133.705055 56.580914 
L 134.001319 56.483919 
L 134.10957 56.41788 
L 134.50269 56.308503 
L 134.605243 56.254846 
L 134.986969 56.145469 
L 135.078127 56.118641 
L 135.642169 56.009263 
L 135.75042 55.982435 
L 136.097961 55.875121 
L 136.183422 55.825592 
L 136.701885 55.716215 
L 136.810135 55.681131 
L 137.151979 55.571754 
L 137.26023 55.536671 
L 137.790087 55.427294 
L 137.886943 55.386019 
L 138.274366 55.276642 
L 138.371222 55.235367 
L 138.690276 55.12599 
L 138.798526 55.095034 
L 139.311292 54.989784 
L 139.413845 54.94851 
L 139.835452 54.841196 
L 139.943703 54.814368 
L 140.285547 54.704991 
L 140.3881 54.651334 
L 140.826799 54.548148 
L 140.93505 54.494491 
L 141.396539 54.385114 
L 141.487697 54.341775 
L 141.994765 54.236526 
L 142.097318 54.213825 
L 142.55311 54.104447 
L 142.655663 54.056982 
L 143.12285 53.955859 
L 143.2311 53.898075 
L 143.692589 53.788698 
L 143.80084 53.761869 
L 144.290816 53.652492 
L 144.399066 53.619473 
L 145.065662 53.510095 
L 145.173912 53.477076 
L 145.635401 53.367698 
L 145.743652 53.338806 
L 146.131075 53.233556 
L 146.233628 53.200537 
L 146.734998 53.09116 
L 146.826157 53.070522 
L 147.287646 52.9694 
L 147.390199 52.93638 
L 147.800411 52.827003 
L 147.908662 52.800175 
L 148.318874 52.690797 
L 148.427125 52.666033 
L 148.922798 52.558719 
L 149.013957 52.538082 
L 149.583696 52.428705 
L 149.691947 52.399813 
L 150.227502 52.290435 
L 150.31866 52.263607 
L 150.666201 52.15423 
L 150.763057 52.12121 
L 151.418258 52.011833 
L 151.515113 51.991196 
L 152.056366 51.881818 
L 152.164616 51.85499 
L 152.6375 51.745613 
L 152.734356 51.712593 
L 153.150266 51.603216 
L 153.258516 51.568132 
L 153.7314 51.458755 
L 153.822559 51.421608 
L 154.443575 51.318422 
L 154.551825 51.277148 
L 155.041801 51.169834 
L 155.150052 51.145069 
L 155.674212 51.035692 
L 155.771068 51.012991 
L 156.300926 50.903614 
L 156.386387 50.897423 
L 157.024495 50.790109 
L 157.121351 50.763281 
L 157.679695 50.653903 
L 157.787946 50.631202 
L 158.26083 50.521825 
L 158.363383 50.501188 
L 158.944517 50.393874 
L 159.04707 50.379428 
L 159.582626 50.274178 
L 159.690876 50.23084 
L 160.203642 50.123527 
L 160.220734 50.111144 
L 160.801868 50.001767 
L 160.904421 49.977002 
L 161.439977 49.869689 
L 161.54253 49.84286 
L 162.026808 49.733483 
L 162.123664 49.704591 
L 162.835838 49.595214 
L 162.921299 49.562194 
L 163.639171 49.452817 
L 163.747422 49.43218 
L 164.322859 49.324866 
L 164.431109 49.298038 
L 165.035033 49.18866 
L 165.143284 49.168023 
L 165.792787 49.06071 
L 165.889642 49.048327 
L 166.556238 48.943077 
L 166.647396 48.918313 
L 167.268412 48.808935 
L 167.365268 48.796553 
L 167.940705 48.693367 
L 168.026166 48.670666 
L 168.772525 48.561289 
L 168.857986 48.532397 
L 169.387843 48.425083 
L 169.479002 48.412701 
L 170.054439 48.307451 
L 170.162689 48.286814 
L 170.988812 48.177436 
L 171.097062 48.150608 
L 171.740868 48.041231 
L 171.826329 48.028848 
L 172.749307 47.919471 
L 172.846163 47.892643 
L 173.672285 47.783265 
L 173.780535 47.777074 
L 174.321788 47.673888 
L 174.424341 47.651187 
L 175.335924 47.54181 
L 175.444175 47.519109 
L 176.196231 47.415923 
L 176.293087 47.395285 
L 176.959682 47.285908 
L 177.05084 47.261143 
L 177.808594 47.155894 
L 177.899752 47.12081 
L 178.617624 47.013497 
L 178.725875 46.980477 
L 179.495023 46.8711 
L 179.597576 46.840144 
L 180.469278 46.732831 
L 180.566134 46.712193 
L 181.170057 46.60488 
L 181.261216 46.584242 
L 182.093036 46.474865 
L 182.184194 46.470738 
L 182.839394 46.363424 
L 182.947645 46.344851 
L 183.853531 46.235473 
L 183.956084 46.214836 
L 184.879062 46.105459 
L 184.981615 46.086885 
L 185.807738 45.977508 
L 185.898896 45.958935 
L 186.884545 45.849557 
L 186.987098 45.830984 
L 187.579628 45.725734 
L 187.647996 45.692714 
L 188.542487 45.583337 
L 188.605159 45.577146 
L 189.436979 45.467769 
L 189.522439 45.461577 
L 190.46251 45.354264 
L 190.57076 45.337754 
L 191.681752 45.228377 
L 191.715937 45.220122 
L 192.485085 45.110745 
L 192.593336 45.098362 
L 193.3283 44.991049 
L 193.385274 44.974539 
L 194.262673 44.867225 
L 194.359528 44.852779 
L 195.117282 44.743402 
L 195.219835 44.722765 
L 196.233971 44.615451 
L 196.32513 44.601005 
L 197.105673 44.491628 
L 197.202529 44.466863 
L 197.971677 44.357486 
L 198.079928 44.347167 
L 199.151038 44.23779 
L 199.236499 44.217153 
L 200.085411 44.107775 
L 200.182267 44.091266 
L 200.934323 43.981888 
L 200.996994 43.961251 
L 201.90288 43.853938 
L 201.982644 43.845683 
L 202.951201 43.736305 
L 203.042359 43.730114 
L 204.130562 43.620737 
L 204.227418 43.610418 
L 205.378291 43.503105 
L 205.486542 43.480404 
L 206.54056 43.371026 
L 206.591837 43.364835 
L 208.107344 43.255458 
L 208.187107 43.243076 
L 209.497508 43.135762 
L 209.594364 43.117189 
L 210.693962 43.007811 
L 210.802212 43.00162 
L 212.038547 42.892243 
L 212.055639 42.886052 
L 213.593936 42.776674 
L 213.668002 42.758101 
L 214.835968 42.654915 
L 214.87585 42.636341 
L 216.260317 42.531091 
L 216.334383 42.514582 
L 217.621995 42.405204 
L 217.690363 42.388695 
L 219.091923 42.279317 
L 219.165989 42.271062 
L 220.596035 42.161685 
L 220.704286 42.15343 
L 222.088753 42.044053 
L 222.185608 42.037862 
L 223.461825 41.928484 
L 223.552983 41.909911 
L 225.062793 41.800534 
L 225.165346 41.779896 
L 226.874565 41.670519 
L 226.982816 41.660201 
L 228.048229 41.550823 
L 228.048229 41.548759 
L 229.694776 41.439382 
L 229.803026 41.422872 
L 231.267257 41.313495 
L 231.318534 41.299049 
L 233.061937 41.189672 
L 233.1417 41.177289 
L 234.594536 41.067912 
L 234.657207 41.057594 
L 236.252478 40.95028 
L 236.320847 40.939961 
L 237.995881 40.830584 
L 238.08704 40.820265 
L 239.739284 40.710888 
L 239.750679 40.704697 
L 241.368739 40.59532 
L 241.408621 40.587065 
L 243.567934 40.477687 
L 243.676185 40.467369 
L 245.778524 40.362119 
L 245.881077 40.347673 
L 248.006205 40.238296 
L 248.068877 40.230041 
L 250.005991 40.120663 
L 250.005991 40.1186 
L 251.874737 40.009222 
L 251.960198 39.998904 
L 253.777667 39.889527 
L 253.868825 39.883335 
L 255.093766 39.773958 
L 255.162134 39.767767 
L 257.235986 39.660453 
L 257.344237 39.646007 
L 259.298443 39.53663 
L 259.315536 39.532503 
L 261.292532 39.423125 
L 261.303927 39.418998 
L 262.904895 39.309621 
L 262.996053 39.303429 
L 264.767943 39.194052 
L 264.864799 39.187861 
L 266.813308 39.078484 
L 266.813308 39.07642 
L 269.553756 38.967043 
L 269.656309 38.958788 
L 271.445291 38.84941 
L 271.456686 38.843219 
L 274.031909 38.733842 
L 274.140159 38.729715 
L 276.52167 38.620337 
L 276.52167 38.618273 
L 279.478619 38.508896 
L 279.501408 38.504769 
L 282.521028 38.397455 
L 282.543818 38.391264 
L 285.489371 38.28395 
L 285.523555 38.277759 
L 287.386604 38.170446 
L 287.420788 38.160127 
L 290.423316 38.05075 
L 290.463197 38.044559 
L 293.881635 37.937245 
L 293.972793 37.931054 
L 297.157637 37.821677 
L 297.237401 37.815485 
L 297.265888 37.815485 
L 300.188652 37.706108 
L 300.27981 37.699917 
L 303.504536 37.59054 
L 303.612787 37.582285 
L 307.316094 37.472907 
L 307.316094 37.470844 
L 311.839826 37.361466 
L 311.919589 37.357339 
L 315.189894 37.250025 
L 315.298145 37.241771 
L 318.859017 37.132393 
L 318.910294 37.126202 
L 322.676272 37.016825 
L 322.744641 37.012697 
L 326.624567 36.90332 
L 326.687239 36.899193 
L 331.131207 36.789815 
L 331.176786 36.785688 
L 336.162008 36.676311 
L 336.236074 36.670119 
L 341.443493 36.560742 
L 341.528954 36.554551 
L 347.049731 36.445174 
L 347.061125 36.441046 
L 354.724123 36.331669 
L 354.724123 36.329605 
L 363.418348 36.220228 
L 363.418348 36.218164 
L 371.907468 36.108787 
L 371.907468 36.106723 
L 389.922633 35.997346 
L 389.922633 35.995282 
L 400.86733 35.960199 
L 400.86733 35.960199 
" style="fill:none;stroke:#1f77b4;stroke-linecap:square;stroke-width:1.5;"/>
   </g>
   <g id="line2d_14">
    <path clip-path="url(#p0d13e03db1)" d="M 64.21392 236.801676 
L 400.86733 35.960199 
" style="fill:none;stroke:#ff7f0e;stroke-dasharray:5.55,2.4;stroke-dashoffset:0;stroke-width:1.5;"/>
   </g>
   <g id="patch_3">
    <path d="M 47.38125 246.84375 
L 47.38125 25.918125 
" style="fill:none;stroke:#000000;stroke-linecap:square;stroke-linejoin:miter;stroke-width:0.8;"/>
   </g>
   <g id="patch_4">
    <path d="M 417.7 246.84375 
L 417.7 25.918125 
" style="fill:none;stroke:#000000;stroke-linecap:square;stroke-linejoin:miter;stroke-width:0.8;"/>
   </g>
   <g id="patch_5">
    <path d="M 47.38125 246.84375 
L 417.7 246.84375 
" style="fill:none;stroke:#000000;stroke-linecap:square;stroke-linejoin:miter;stroke-width:0.8;"/>
   </g>
   <g id="patch_6">
    <path d="M 47.38125 25.918125 
L 417.7 25.918125 
" style="fill:none;stroke:#000000;stroke-linecap:square;stroke-linejoin:miter;stroke-width:0.8;"/>
   </g>
   <g id="text_15">
    <text style="font-family:DejaVu Sans;font-size:12px;font-style:normal;font-weight:normal;text-anchor:middle;" transform="rotate(-0, 232.540625, 19.918125)" x="232.540625" y="19.918125">ROC (AUC: 0.93)</text>
   </g>
  </g>
 </g>
 <defs>
  <clipPath id="p0d13e03db1">
   <rect height="220.925625" width="370.31875" x="47.38125" y="25.918125"/>
  </clipPath>
 </defs>
</svg>
