<?xml version="1.0" encoding="utf-8" standalone="no"?>
<!DOCTYPE svg PUBLIC "-//W3C//DTD SVG 1.1//EN"
  "http://www.w3.org/Graphics/SVG/1.1/DTD/svg11.dtd">
<!-- Created with matplotlib (https://matplotlib.org/) -->
<svg height="720pt" version="1.1" viewBox="0 0 720 720" width="720pt" xmlns="http://www.w3.org/2000/svg" xmlns:xlink="http://www.w3.org/1999/xlink">
 <defs>
  <style type="text/css">
*{stroke-linecap:butt;stroke-linejoin:round;white-space:pre;}
  </style>
 </defs>
 <g id="figure_1">
  <g id="patch_1">
   <path d="M 0 720 
L 720 720 
L 720 0 
L 0 0 
z
" style="fill:#ffffff;"/>
  </g>
  <g id="axes_1">
   <g id="patch_2">
    <path d="M 90 630 
L 648 630 
L 648 86.4 
L 90 86.4 
z
" style="fill:#ffffff;"/>
   </g>
   <g id="matplotlib.axis_1">
    <g id="xtick_1">
     <g id="text_1">
      <text style="fill:#262626;font-family:DejaVu Sans;font-size:22px;font-style:normal;font-weight:normal;text-anchor:middle;" transform="rotate(-0, 90, 656.216563)" x="90" y="656.216563">−2.0</text>
     </g>
    </g>
    <g id="xtick_2">
     <g id="text_2">
      <text style="fill:#262626;font-family:DejaVu Sans;font-size:22px;font-style:normal;font-weight:normal;text-anchor:middle;" transform="rotate(-0, 159.75, 656.216563)" x="159.75" y="656.216563">−1.5</text>
     </g>
    </g>
    <g id="xtick_3">
     <g id="text_3">
      <text style="fill:#262626;font-family:DejaVu Sans;font-size:22px;font-style:normal;font-weight:normal;text-anchor:middle;" transform="rotate(-0, 229.5, 656.216563)" x="229.5" y="656.216563">−1.0</text>
     </g>
    </g>
    <g id="xtick_4">
     <g id="text_4">
      <text style="fill:#262626;font-family:DejaVu Sans;font-size:22px;font-style:normal;font-weight:normal;text-anchor:middle;" transform="rotate(-0, 299.25, 656.216563)" x="299.25" y="656.216563">−0.5</text>
     </g>
    </g>
    <g id="xtick_5">
     <g id="text_5">
      <text style="fill:#262626;font-family:DejaVu Sans;font-size:22px;font-style:normal;font-weight:normal;text-anchor:middle;" transform="rotate(-0, 369, 656.216563)" x="369" y="656.216563">0.0</text>
     </g>
    </g>
    <g id="xtick_6">
     <g id="text_6">
      <text style="fill:#262626;font-family:DejaVu Sans;font-size:22px;font-style:normal;font-weight:normal;text-anchor:middle;" transform="rotate(-0, 438.75, 656.216563)" x="438.75" y="656.216563">0.5</text>
     </g>
    </g>
    <g id="xtick_7">
     <g id="text_7">
      <text style="fill:#262626;font-family:DejaVu Sans;font-size:22px;font-style:normal;font-weight:normal;text-anchor:middle;" transform="rotate(-0, 508.5, 656.216563)" x="508.5" y="656.216563">1.0</text>
     </g>
    </g>
    <g id="xtick_8">
     <g id="text_8">
      <text style="fill:#262626;font-family:DejaVu Sans;font-size:22px;font-style:normal;font-weight:normal;text-anchor:middle;" transform="rotate(-0, 578.25, 656.216563)" x="578.25" y="656.216563">1.5</text>
     </g>
    </g>
    <g id="xtick_9">
     <g id="text_9">
      <text style="fill:#262626;font-family:DejaVu Sans;font-size:22px;font-style:normal;font-weight:normal;text-anchor:middle;" transform="rotate(-0, 648, 656.216563)" x="648" y="656.216563">2.0</text>
     </g>
    </g>
    <g id="text_10">
     <text style="fill:#262626;font-family:DejaVu Sans;font-size:24px;font-style:normal;font-weight:normal;text-anchor:middle;" transform="rotate(-0, 369, 683.028125)" x="369" y="683.028125">Sampled or true variant effect score (DNase_model)</text>
    </g>
   </g>
   <g id="matplotlib.axis_2">
    <g id="ytick_1">
     <g id="text_11">
      <text style="fill:#262626;font-family:DejaVu Sans;font-size:22px;font-style:normal;font-weight:normal;text-anchor:end;" transform="rotate(-0, 80.5, 638.358281)" x="80.5" y="638.358281">0.0</text>
     </g>
    </g>
    <g id="ytick_2">
     <g id="text_12">
      <text style="fill:#262626;font-family:DejaVu Sans;font-size:22px;font-style:normal;font-weight:normal;text-anchor:end;" transform="rotate(-0, 80.5, 523.130482)" x="80.5" y="523.130482">0.5</text>
     </g>
    </g>
    <g id="ytick_3">
     <g id="text_13">
      <text style="fill:#262626;font-family:DejaVu Sans;font-size:22px;font-style:normal;font-weight:normal;text-anchor:end;" transform="rotate(-0, 80.5, 407.902682)" x="80.5" y="407.902682">1.0</text>
     </g>
    </g>
    <g id="ytick_4">
     <g id="text_14">
      <text style="fill:#262626;font-family:DejaVu Sans;font-size:22px;font-style:normal;font-weight:normal;text-anchor:end;" transform="rotate(-0, 80.5, 292.674883)" x="80.5" y="292.674883">1.5</text>
     </g>
    </g>
    <g id="ytick_5">
     <g id="text_15">
      <text style="fill:#262626;font-family:DejaVu Sans;font-size:22px;font-style:normal;font-weight:normal;text-anchor:end;" transform="rotate(-0, 80.5, 177.447084)" x="80.5" y="177.447084">2.0</text>
     </g>
    </g>
   </g>
   <g id="patch_3">
    <path clip-path="url(#p529e566701)" d="M -1 630 
L 5.306484 630 
L 5.306484 629.138579 
L 8.08278 629.138579 
L 8.08278 630 
L 13.635371 630 
L 13.635371 629.138579 
L 16.411667 629.138579 
L 16.411667 630 
L 19.187963 630 
L 19.187963 628.277157 
L 20.576111 628.277157 
L 20.576111 630 
L 23.352407 630 
L 23.352407 629.138579 
L 28.904999 629.138579 
L 28.904999 630 
L 31.681295 630 
L 31.681295 629.138579 
L 35.845738 629.138579 
L 35.845738 630 
L 40.010182 630 
L 40.010182 629.138579 
L 42.786478 629.138579 
L 42.786478 630 
L 51.115366 630 
L 51.115366 629.138579 
L 52.503514 629.138579 
L 52.503514 630 
L 53.891662 630 
L 53.891662 628.277157 
L 55.27981 628.277157 
L 55.27981 629.138579 
L 62.220549 629.138579 
L 62.220549 630 
L 63.608697 630 
L 63.608697 629.138579 
L 64.996845 629.138579 
L 64.996845 630 
L 67.773141 630 
L 67.773141 629.138579 
L 69.161289 629.138579 
L 69.161289 628.277157 
L 70.549437 628.277157 
L 70.549437 629.138579 
L 71.937585 629.138579 
L 71.937585 627.415736 
L 73.325733 627.415736 
L 73.325733 629.138579 
L 74.713881 629.138579 
L 74.713881 630 
L 77.490177 630 
L 77.490177 629.138579 
L 80.266473 629.138579 
L 80.266473 628.277157 
L 81.65462 628.277157 
L 81.65462 630 
L 83.042768 630 
L 83.042768 629.138579 
L 84.430916 629.138579 
L 84.430916 628.277157 
L 85.819064 628.277157 
L 85.819064 630 
L 87.207212 630 
L 87.207212 628.277157 
L 88.59536 628.277157 
L 88.59536 629.138579 
L 91.371656 629.138579 
L 91.371656 630 
L 92.759804 630 
L 92.759804 627.415736 
L 94.147952 627.415736 
L 94.147952 629.138579 
L 96.924248 629.138579 
L 96.924248 630 
L 98.312396 630 
L 98.312396 628.277157 
L 99.700544 628.277157 
L 99.700544 630 
L 102.47684 630 
L 102.47684 627.415736 
L 103.864988 627.415736 
L 103.864988 628.277157 
L 105.253135 628.277157 
L 105.253135 630 
L 106.641283 630 
L 106.641283 629.138579 
L 108.029431 629.138579 
L 108.029431 628.277157 
L 112.193875 628.277157 
L 112.193875 629.138579 
L 113.582023 629.138579 
L 113.582023 627.415736 
L 114.970171 627.415736 
L 114.970171 630 
L 116.358319 630 
L 116.358319 628.277157 
L 117.746467 628.277157 
L 117.746467 629.138579 
L 119.134615 629.138579 
L 119.134615 625.692893 
L 120.522763 625.692893 
L 120.522763 627.415736 
L 121.910911 627.415736 
L 121.910911 629.138579 
L 123.299059 629.138579 
L 123.299059 627.415736 
L 124.687207 627.415736 
L 124.687207 630 
L 126.075355 630 
L 126.075355 627.415736 
L 128.85165 627.415736 
L 128.85165 630 
L 130.239798 630 
L 130.239798 629.138579 
L 131.627946 629.138579 
L 131.627946 628.277157 
L 138.568686 628.277157 
L 138.568686 629.138579 
L 139.956834 629.138579 
L 139.956834 626.554314 
L 141.344982 626.554314 
L 141.344982 625.692893 
L 142.73313 625.692893 
L 142.73313 629.138579 
L 144.121278 629.138579 
L 144.121278 628.277157 
L 145.509426 628.277157 
L 145.509426 629.138579 
L 146.897574 629.138579 
L 146.897574 628.277157 
L 148.285722 628.277157 
L 148.285722 630 
L 149.67387 630 
L 149.67387 629.138579 
L 151.062018 629.138579 
L 151.062018 628.277157 
L 152.450165 628.277157 
L 152.450165 624.831471 
L 153.838313 624.831471 
L 153.838313 628.277157 
L 155.226461 628.277157 
L 155.226461 624.831471 
L 156.614609 624.831471 
L 156.614609 625.692893 
L 158.002757 625.692893 
L 158.002757 626.554314 
L 159.390905 626.554314 
L 159.390905 628.277157 
L 162.167201 628.277157 
L 162.167201 627.415736 
L 163.555349 627.415736 
L 163.555349 629.138579 
L 164.943497 629.138579 
L 164.943497 628.277157 
L 166.331645 628.277157 
L 166.331645 623.108628 
L 167.719793 623.108628 
L 167.719793 628.277157 
L 169.107941 628.277157 
L 169.107941 630 
L 170.496089 630 
L 170.496089 626.554314 
L 171.884237 626.554314 
L 171.884237 623.97005 
L 173.272385 623.97005 
L 173.272385 622.247207 
L 174.660533 622.247207 
L 174.660533 626.554314 
L 176.04868 626.554314 
L 176.04868 625.692893 
L 180.213124 625.692893 
L 180.213124 628.277157 
L 181.601272 628.277157 
L 181.601272 626.554314 
L 184.377568 626.554314 
L 184.377568 624.831471 
L 185.765716 624.831471 
L 185.765716 625.692893 
L 187.153864 625.692893 
L 187.153864 623.97005 
L 188.542012 623.97005 
L 188.542012 623.108628 
L 189.93016 623.108628 
L 189.93016 625.692893 
L 194.094604 625.692893 
L 194.094604 626.554314 
L 195.482752 626.554314 
L 195.482752 625.692893 
L 199.647195 625.692893 
L 199.647195 627.415736 
L 201.035343 627.415736 
L 201.035343 624.831471 
L 202.423491 624.831471 
L 202.423491 625.692893 
L 205.199787 625.692893 
L 205.199787 622.247207 
L 206.587935 622.247207 
L 206.587935 627.415736 
L 207.976083 627.415736 
L 207.976083 625.692893 
L 209.364231 625.692893 
L 209.364231 623.108628 
L 210.752379 623.108628 
L 210.752379 620.524364 
L 212.140527 620.524364 
L 212.140527 625.692893 
L 213.528675 625.692893 
L 213.528675 622.247207 
L 214.916823 622.247207 
L 214.916823 625.692893 
L 216.304971 625.692893 
L 216.304971 615.355836 
L 217.693119 615.355836 
L 217.693119 626.554314 
L 219.081267 626.554314 
L 219.081267 617.078678 
L 220.469415 617.078678 
L 220.469415 620.524364 
L 223.24571 620.524364 
L 223.24571 625.692893 
L 224.633858 625.692893 
L 224.633858 618.801521 
L 226.022006 618.801521 
L 226.022006 617.078678 
L 227.410154 617.078678 
L 227.410154 623.108628 
L 228.798302 623.108628 
L 228.798302 620.524364 
L 230.18645 620.524364 
L 230.18645 616.217257 
L 231.574598 616.217257 
L 231.574598 623.97005 
L 232.962746 623.97005 
L 232.962746 620.524364 
L 234.350894 620.524364 
L 234.350894 618.801521 
L 235.739042 618.801521 
L 235.739042 616.217257 
L 237.12719 616.217257 
L 237.12719 626.554314 
L 238.515338 626.554314 
L 238.515338 617.078678 
L 239.903486 617.078678 
L 239.903486 617.9401 
L 241.291634 617.9401 
L 241.291634 617.078678 
L 242.679782 617.078678 
L 242.679782 617.9401 
L 244.06793 617.9401 
L 244.06793 618.801521 
L 245.456078 618.801521 
L 245.456078 611.91015 
L 246.844226 611.91015 
L 246.844226 612.771571 
L 248.232373 612.771571 
L 248.232373 616.217257 
L 249.620521 616.217257 
L 249.620521 615.355836 
L 252.396817 615.355836 
L 252.396817 611.91015 
L 253.784965 611.91015 
L 253.784965 615.355836 
L 255.173113 615.355836 
L 255.173113 612.771571 
L 256.561261 612.771571 
L 256.561261 609.325885 
L 257.949409 609.325885 
L 257.949409 599.85025 
L 259.337557 599.85025 
L 259.337557 608.464464 
L 260.725705 608.464464 
L 260.725705 604.157357 
L 263.502001 604.157357 
L 263.502001 611.048728 
L 264.890149 611.048728 
L 264.890149 606.741621 
L 266.278297 606.741621 
L 266.278297 604.157357 
L 269.054593 604.157357 
L 269.054593 605.018778 
L 270.442741 605.018778 
L 270.442741 606.741621 
L 271.830888 606.741621 
L 271.830888 596.404564 
L 273.219036 596.404564 
L 273.219036 605.8802 
L 274.607184 605.8802 
L 274.607184 598.127407 
L 275.995332 598.127407 
L 275.995332 600.711671 
L 277.38348 600.711671 
L 277.38348 599.85025 
L 278.771628 599.85025 
L 278.771628 598.988828 
L 280.159776 598.988828 
L 280.159776 585.206085 
L 281.547924 585.206085 
L 281.547924 594.681721 
L 282.936072 594.681721 
L 282.936072 592.958878 
L 284.32422 592.958878 
L 284.32422 594.681721 
L 285.712368 594.681721 
L 285.712368 579.176135 
L 287.100516 579.176135 
L 287.100516 594.681721 
L 288.488664 594.681721 
L 288.488664 587.790349 
L 289.876812 587.790349 
L 289.876812 580.898978 
L 291.26496 580.898978 
L 291.26496 580.037556 
L 295.429403 580.037556 
L 295.429403 569.700499 
L 296.817551 569.700499 
L 296.817551 581.760399 
L 298.205699 581.760399 
L 298.205699 586.928928 
L 299.593847 586.928928 
L 299.593847 574.007606 
L 300.981995 574.007606 
L 300.981995 553.333492 
L 302.370143 553.333492 
L 302.370143 561.086285 
L 303.758291 561.086285 
L 303.758291 565.393392 
L 305.146439 565.393392 
L 305.146439 561.086285 
L 306.534587 561.086285 
L 306.534587 556.779178 
L 307.922735 556.779178 
L 307.922735 559.363442 
L 309.310883 559.363442 
L 309.310883 552.47207 
L 310.699031 552.47207 
L 310.699031 559.363442 
L 312.087179 559.363442 
L 312.087179 555.056335 
L 313.475327 555.056335 
L 313.475327 549.887806 
L 314.863475 549.887806 
L 314.863475 549.026385 
L 316.251623 549.026385 
L 316.251623 538.689327 
L 317.639771 538.689327 
L 317.639771 535.243642 
L 319.027918 535.243642 
L 319.027918 528.35227 
L 320.416066 528.35227 
L 320.416066 513.708106 
L 321.804214 513.708106 
L 321.804214 514.569527 
L 323.192362 514.569527 
L 323.192362 530.936534 
L 324.58051 530.936534 
L 324.58051 520.599477 
L 325.968658 520.599477 
L 325.968658 518.876634 
L 327.356806 518.876634 
L 327.356806 516.29237 
L 328.744954 516.29237 
L 328.744954 508.539577 
L 330.133102 508.539577 
L 330.133102 504.23247 
L 331.52125 504.23247 
L 331.52125 487.004041 
L 332.909398 487.004041 
L 332.909398 474.082719 
L 334.297546 474.082719 
L 334.297546 490.449727 
L 335.685694 490.449727 
L 335.685694 468.052769 
L 337.073842 468.052769 
L 337.073842 457.715712 
L 338.46199 457.715712 
L 338.46199 449.962919 
L 339.850138 449.962919 
L 339.850138 445.655812 
L 341.238286 445.655812 
L 341.238286 429.288804 
L 342.626433 429.288804 
L 342.626433 432.73449 
L 344.014581 432.73449 
L 344.014581 427.565961 
L 345.402729 427.565961 
L 345.402729 400.000475 
L 346.790877 400.000475 
L 346.790877 416.367483 
L 348.179025 416.367483 
L 348.179025 395.693368 
L 349.567173 395.693368 
L 349.567173 373.296411 
L 350.955321 373.296411 
L 350.955321 363.820775 
L 353.731617 363.820775 
L 353.731617 373.296411 
L 355.119765 373.296411 
L 355.119765 337.11671 
L 356.507913 337.11671 
L 356.507913 320.749703 
L 357.896061 320.749703 
L 357.896061 312.99691 
L 359.284209 312.99691 
L 359.284209 306.96696 
L 360.672357 306.96696 
L 360.672357 262.173045 
L 362.060505 262.173045 
L 362.060505 219.101973 
L 363.448653 219.101973 
L 363.448653 263.895888 
L 364.836801 263.895888 
L 364.836801 254.420252 
L 366.224948 254.420252 
L 366.224948 216.517709 
L 367.613096 216.517709 
L 367.613096 136.405515 
L 369.001244 136.405515 
L 369.001244 112.285714 
L 370.389392 112.285714 
L 370.389392 171.723794 
L 371.77754 171.723794 
L 371.77754 197.566437 
L 373.165688 197.566437 
L 373.165688 242.360352 
L 374.553836 242.360352 
L 374.553836 237.191823 
L 375.941984 237.191823 
L 375.941984 275.094367 
L 377.330132 275.094367 
L 377.330132 279.401474 
L 378.71828 279.401474 
L 378.71828 288.015688 
L 380.106428 288.015688 
L 380.106428 321.611124 
L 381.494576 321.611124 
L 381.494576 312.99691 
L 382.882724 312.99691 
L 382.882724 324.195389 
L 384.270872 324.195389 
L 384.270872 353.483718 
L 385.65902 353.483718 
L 385.65902 334.532446 
L 387.047168 334.532446 
L 387.047168 379.326361 
L 388.435316 379.326361 
L 388.435316 415.506061 
L 389.823463 415.506061 
L 389.823463 393.109104 
L 391.211611 393.109104 
L 391.211611 403.446161 
L 392.599759 403.446161 
L 392.599759 433.595912 
L 393.987907 433.595912 
L 393.987907 411.198954 
L 395.376055 411.198954 
L 395.376055 445.655812 
L 396.764203 445.655812 
L 396.764203 435.318754 
L 398.152351 435.318754 
L 398.152351 430.150226 
L 399.540499 430.150226 
L 399.540499 468.914191 
L 400.928647 468.914191 
L 400.928647 458.577133 
L 402.316795 458.577133 
L 402.316795 453.408605 
L 403.704943 453.408605 
L 403.704943 480.112669 
L 405.093091 480.112669 
L 405.093091 474.082719 
L 406.481239 474.082719 
L 406.481239 487.865462 
L 407.869387 487.865462 
L 407.869387 493.895412 
L 409.257535 493.895412 
L 409.257535 490.449727 
L 410.645683 490.449727 
L 410.645683 505.093891 
L 412.033831 505.093891 
L 412.033831 497.341098 
L 413.421978 497.341098 
L 413.421978 492.17257 
L 414.810126 492.17257 
L 414.810126 507.678155 
L 416.198274 507.678155 
L 416.198274 516.29237 
L 417.586422 516.29237 
L 417.586422 513.708106 
L 418.97457 513.708106 
L 418.97457 510.26242 
L 420.362718 510.26242 
L 420.362718 522.32232 
L 421.750866 522.32232 
L 421.750866 536.105063 
L 423.139014 536.105063 
L 423.139014 519.738056 
L 424.527162 519.738056 
L 424.527162 528.35227 
L 425.91531 528.35227 
L 425.91531 539.550749 
L 427.303458 539.550749 
L 427.303458 544.719277 
L 428.691606 544.719277 
L 428.691606 551.610649 
L 430.079754 551.610649 
L 430.079754 573.146185 
L 431.467902 573.146185 
L 431.467902 550.749227 
L 432.85605 550.749227 
L 432.85605 567.116235 
L 434.244198 567.116235 
L 434.244198 559.363442 
L 435.632346 559.363442 
L 435.632346 543.857856 
L 437.020493 543.857856 
L 437.020493 572.284763 
L 439.796789 572.284763 
L 439.796789 560.224863 
L 441.184937 560.224863 
L 441.184937 577.453292 
L 442.573085 577.453292 
L 442.573085 580.898978 
L 443.961233 580.898978 
L 443.961233 567.977656 
L 445.349381 567.977656 
L 445.349381 561.086285 
L 446.737529 561.086285 
L 446.737529 564.531971 
L 448.125677 564.531971 
L 448.125677 578.314714 
L 449.513825 578.314714 
L 449.513825 567.977656 
L 450.901973 567.977656 
L 450.901973 579.176135 
L 452.290121 579.176135 
L 452.290121 580.037556 
L 453.678269 580.037556 
L 453.678269 590.374614 
L 455.066417 590.374614 
L 455.066417 591.236035 
L 456.454565 591.236035 
L 456.454565 586.067507 
L 457.842713 586.067507 
L 457.842713 580.037556 
L 459.230861 580.037556 
L 459.230861 584.344664 
L 460.619008 584.344664 
L 460.619008 588.651771 
L 462.007156 588.651771 
L 462.007156 593.8203 
L 463.395304 593.8203 
L 463.395304 596.404564 
L 464.783452 596.404564 
L 464.783452 595.543142 
L 466.1716 595.543142 
L 466.1716 598.127407 
L 467.559748 598.127407 
L 467.559748 600.711671 
L 468.947896 600.711671 
L 468.947896 596.404564 
L 470.336044 596.404564 
L 470.336044 600.711671 
L 471.724192 600.711671 
L 471.724192 598.127407 
L 473.11234 598.127407 
L 473.11234 596.404564 
L 474.500488 596.404564 
L 474.500488 606.741621 
L 475.888636 606.741621 
L 475.888636 600.711671 
L 477.276784 600.711671 
L 477.276784 606.741621 
L 478.664932 606.741621 
L 478.664932 604.157357 
L 480.05308 604.157357 
L 480.05308 603.295935 
L 481.441228 603.295935 
L 481.441228 605.8802 
L 482.829376 605.8802 
L 482.829376 610.187307 
L 484.217523 610.187307 
L 484.217523 606.741621 
L 486.993819 606.741621 
L 486.993819 611.91015 
L 488.381967 611.91015 
L 488.381967 612.771571 
L 489.770115 612.771571 
L 489.770115 610.187307 
L 491.158263 610.187307 
L 491.158263 612.771571 
L 492.546411 612.771571 
L 492.546411 609.325885 
L 493.934559 609.325885 
L 493.934559 605.018778 
L 495.322707 605.018778 
L 495.322707 617.9401 
L 496.710855 617.9401 
L 496.710855 618.801521 
L 498.099003 618.801521 
L 498.099003 610.187307 
L 499.487151 610.187307 
L 499.487151 611.91015 
L 500.875299 611.91015 
L 500.875299 610.187307 
L 503.651595 610.187307 
L 503.651595 613.632993 
L 505.039743 613.632993 
L 505.039743 620.524364 
L 506.427891 620.524364 
L 506.427891 613.632993 
L 507.816038 613.632993 
L 507.816038 608.464464 
L 509.204186 608.464464 
L 509.204186 620.524364 
L 510.592334 620.524364 
L 510.592334 611.048728 
L 511.980482 611.048728 
L 511.980482 612.771571 
L 513.36863 612.771571 
L 513.36863 617.9401 
L 514.756778 617.9401 
L 514.756778 620.524364 
L 516.144926 620.524364 
L 516.144926 622.247207 
L 517.533074 622.247207 
L 517.533074 617.078678 
L 518.921222 617.078678 
L 518.921222 622.247207 
L 520.30937 622.247207 
L 520.30937 614.494414 
L 521.697518 614.494414 
L 521.697518 622.247207 
L 523.085666 622.247207 
L 523.085666 617.9401 
L 525.861962 617.9401 
L 525.861962 613.632993 
L 527.25011 613.632993 
L 527.25011 617.9401 
L 528.638258 617.9401 
L 528.638258 622.247207 
L 530.026406 622.247207 
L 530.026406 617.9401 
L 532.802701 617.9401 
L 532.802701 622.247207 
L 534.190849 622.247207 
L 534.190849 616.217257 
L 535.578997 616.217257 
L 535.578997 623.108628 
L 536.967145 623.108628 
L 536.967145 620.524364 
L 538.355293 620.524364 
L 538.355293 619.662943 
L 541.131589 619.662943 
L 541.131589 622.247207 
L 542.519737 622.247207 
L 542.519737 621.385786 
L 543.907885 621.385786 
L 543.907885 624.831471 
L 545.296033 624.831471 
L 545.296033 621.385786 
L 546.684181 621.385786 
L 546.684181 623.97005 
L 548.072329 623.97005 
L 548.072329 619.662943 
L 549.460477 619.662943 
L 549.460477 624.831471 
L 550.848625 624.831471 
L 550.848625 623.108628 
L 552.236773 623.108628 
L 552.236773 623.97005 
L 553.624921 623.97005 
L 553.624921 623.108628 
L 556.401216 623.108628 
L 556.401216 625.692893 
L 557.789364 625.692893 
L 557.789364 623.97005 
L 559.177512 623.97005 
L 559.177512 624.831471 
L 560.56566 624.831471 
L 560.56566 623.97005 
L 561.953808 623.97005 
L 561.953808 620.524364 
L 563.341956 620.524364 
L 563.341956 623.97005 
L 566.118252 623.97005 
L 566.118252 623.108628 
L 567.5064 623.108628 
L 567.5064 626.554314 
L 570.282696 626.554314 
L 570.282696 624.831471 
L 571.670844 624.831471 
L 571.670844 623.97005 
L 573.058992 623.97005 
L 573.058992 626.554314 
L 574.44714 626.554314 
L 574.44714 629.138579 
L 575.835288 629.138579 
L 575.835288 624.831471 
L 577.223436 624.831471 
L 577.223436 625.692893 
L 578.611583 625.692893 
L 578.611583 626.554314 
L 579.999731 626.554314 
L 579.999731 627.415736 
L 582.776027 627.415736 
L 582.776027 625.692893 
L 584.164175 625.692893 
L 584.164175 626.554314 
L 586.940471 626.554314 
L 586.940471 627.415736 
L 588.328619 627.415736 
L 588.328619 625.692893 
L 589.716767 625.692893 
L 589.716767 628.277157 
L 591.104915 628.277157 
L 591.104915 626.554314 
L 592.493063 626.554314 
L 592.493063 625.692893 
L 596.657507 625.692893 
L 596.657507 626.554314 
L 599.433803 626.554314 
L 599.433803 627.415736 
L 600.821951 627.415736 
L 600.821951 625.692893 
L 602.210098 625.692893 
L 602.210098 626.554314 
L 604.986394 626.554314 
L 604.986394 628.277157 
L 606.374542 628.277157 
L 606.374542 629.138579 
L 607.76269 629.138579 
L 607.76269 625.692893 
L 609.150838 625.692893 
L 609.150838 628.277157 
L 610.538986 628.277157 
L 610.538986 629.138579 
L 611.927134 629.138579 
L 611.927134 630 
L 613.315282 630 
L 613.315282 626.554314 
L 614.70343 626.554314 
L 614.70343 629.138579 
L 616.091578 629.138579 
L 616.091578 627.415736 
L 618.867874 627.415736 
L 618.867874 629.138579 
L 620.256022 629.138579 
L 620.256022 625.692893 
L 621.64417 625.692893 
L 621.64417 628.277157 
L 623.032318 628.277157 
L 623.032318 627.415736 
L 625.808613 627.415736 
L 625.808613 625.692893 
L 627.196761 625.692893 
L 627.196761 629.138579 
L 628.584909 629.138579 
L 628.584909 627.415736 
L 631.361205 627.415736 
L 631.361205 626.554314 
L 632.749353 626.554314 
L 632.749353 629.138579 
L 634.137501 629.138579 
L 634.137501 628.277157 
L 635.525649 628.277157 
L 635.525649 623.97005 
L 636.913797 623.97005 
L 636.913797 629.138579 
L 639.690093 629.138579 
L 639.690093 626.554314 
L 641.078241 626.554314 
L 641.078241 629.138579 
L 642.466389 629.138579 
L 642.466389 628.277157 
L 643.854537 628.277157 
L 643.854537 627.415736 
L 645.242685 627.415736 
L 645.242685 628.277157 
L 648.018981 628.277157 
L 648.018981 629.138579 
L 649.407128 629.138579 
L 649.407128 628.277157 
L 650.795276 628.277157 
L 650.795276 629.138579 
L 652.183424 629.138579 
L 652.183424 627.415736 
L 653.571572 627.415736 
L 653.571572 626.554314 
L 654.95972 626.554314 
L 654.95972 628.277157 
L 656.347868 628.277157 
L 656.347868 626.554314 
L 657.736016 626.554314 
L 657.736016 628.277157 
L 659.124164 628.277157 
L 659.124164 629.138579 
L 663.288608 629.138579 
L 663.288608 627.415736 
L 664.676756 627.415736 
L 664.676756 629.138579 
L 667.453052 629.138579 
L 667.453052 630 
L 671.617496 630 
L 671.617496 629.138579 
L 673.005643 629.138579 
L 673.005643 628.277157 
L 675.781939 628.277157 
L 675.781939 630 
L 677.170087 630 
L 677.170087 627.415736 
L 678.558235 627.415736 
L 678.558235 629.138579 
L 679.946383 629.138579 
L 679.946383 630 
L 681.334531 630 
L 681.334531 629.138579 
L 682.722679 629.138579 
L 682.722679 630 
L 684.110827 630 
L 684.110827 629.138579 
L 685.498975 629.138579 
L 685.498975 628.277157 
L 686.887123 628.277157 
L 686.887123 629.138579 
L 688.275271 629.138579 
L 688.275271 628.277157 
L 689.663419 628.277157 
L 689.663419 629.138579 
L 693.827863 629.138579 
L 693.827863 630 
L 696.604158 630 
L 696.604158 628.277157 
L 697.992306 628.277157 
L 697.992306 626.554314 
L 699.380454 626.554314 
L 699.380454 630 
L 700.768602 630 
L 700.768602 629.138579 
L 702.15675 629.138579 
L 702.15675 628.277157 
L 703.544898 628.277157 
L 703.544898 629.138579 
L 704.933046 629.138579 
L 704.933046 628.277157 
L 706.321194 628.277157 
L 706.321194 627.415736 
L 707.709342 627.415736 
L 707.709342 628.277157 
L 709.09749 628.277157 
L 709.09749 627.415736 
L 710.485638 627.415736 
L 710.485638 628.277157 
L 711.873786 628.277157 
L 711.873786 630 
L 714.650082 630 
L 714.650082 628.277157 
L 716.03823 628.277157 
L 716.03823 629.138579 
L 717.426378 629.138579 
L 717.426378 630 
L 720.202674 630 
L 720.202674 629.138579 
L 721 629.138579 
L 721 629.138579 
" style="fill:none;stroke:#4c72b0;stroke-linejoin:miter;"/>
   </g>
   <g id="patch_4">
    <path clip-path="url(#p529e566701)" d="M -1 630 
L 6.741869 630 
L 6.741869 628.827637 
L 7.761844 628.827637 
L 7.761844 630 
L 9.801793 630 
L 9.801793 628.827637 
L 10.821767 628.827637 
L 10.821767 630 
L 14.901665 630 
L 14.901665 628.827637 
L 15.921639 628.827637 
L 15.921639 630 
L 17.961588 630 
L 17.961588 628.827637 
L 21.021512 628.827637 
L 21.021512 630 
L 31.221256 630 
L 31.221256 628.827637 
L 32.241231 628.827637 
L 32.241231 630 
L 34.28118 630 
L 34.28118 628.827637 
L 35.301154 628.827637 
L 35.301154 630 
L 36.321129 630 
L 36.321129 628.827637 
L 37.341103 628.827637 
L 37.341103 630 
L 49.580796 630 
L 49.580796 628.827637 
L 50.600771 628.827637 
L 50.600771 630 
L 52.64072 630 
L 52.64072 628.827637 
L 53.660694 628.827637 
L 53.660694 630 
L 54.680669 630 
L 54.680669 628.827637 
L 55.700643 628.827637 
L 55.700643 630 
L 57.740592 630 
L 57.740592 628.827637 
L 59.780541 628.827637 
L 59.780541 630 
L 60.800515 630 
L 60.800515 628.827637 
L 61.82049 628.827637 
L 61.82049 627.655274 
L 62.840464 627.655274 
L 62.840464 628.827637 
L 63.860439 628.827637 
L 63.860439 630 
L 65.900388 630 
L 65.900388 628.827637 
L 66.920362 628.827637 
L 66.920362 630 
L 67.940337 630 
L 67.940337 627.655274 
L 68.960311 627.655274 
L 68.960311 630 
L 69.980286 630 
L 69.980286 628.827637 
L 73.040209 628.827637 
L 73.040209 630 
L 74.060183 630 
L 74.060183 628.827637 
L 75.080158 628.827637 
L 75.080158 627.655274 
L 76.100132 627.655274 
L 76.100132 630 
L 79.160056 630 
L 79.160056 628.827637 
L 81.200005 628.827637 
L 81.200005 630 
L 83.239953 630 
L 83.239953 628.827637 
L 84.259928 628.827637 
L 84.259928 630 
L 86.299877 630 
L 86.299877 628.827637 
L 87.319851 628.827637 
L 87.319851 630 
L 89.3598 630 
L 89.3598 628.827637 
L 91.399749 628.827637 
L 91.399749 630 
L 92.419724 630 
L 92.419724 627.655274 
L 93.439698 627.655274 
L 93.439698 628.827637 
L 94.459672 628.827637 
L 94.459672 630 
L 97.519596 630 
L 97.519596 627.655274 
L 98.53957 627.655274 
L 98.53957 628.827637 
L 104.659417 628.827637 
L 104.659417 630 
L 105.679391 630 
L 105.679391 626.482911 
L 106.699366 626.482911 
L 106.699366 628.827637 
L 107.71934 628.827637 
L 107.71934 630 
L 109.759289 630 
L 109.759289 628.827637 
L 113.839187 628.827637 
L 113.839187 626.482911 
L 114.859162 626.482911 
L 114.859162 627.655274 
L 115.879136 627.655274 
L 115.879136 628.827637 
L 117.919085 628.827637 
L 117.919085 627.655274 
L 118.939059 627.655274 
L 118.939059 630 
L 119.959034 630 
L 119.959034 627.655274 
L 120.979008 627.655274 
L 120.979008 626.482911 
L 121.998983 626.482911 
L 121.998983 628.827637 
L 123.018957 628.827637 
L 123.018957 626.482911 
L 124.038932 626.482911 
L 124.038932 628.827637 
L 125.058906 628.827637 
L 125.058906 625.310548 
L 126.078881 625.310548 
L 126.078881 628.827637 
L 127.098855 628.827637 
L 127.098855 627.655274 
L 128.118829 627.655274 
L 128.118829 630 
L 129.138804 630 
L 129.138804 628.827637 
L 130.158778 628.827637 
L 130.158778 626.482911 
L 131.178753 626.482911 
L 131.178753 627.655274 
L 132.198727 627.655274 
L 132.198727 630 
L 133.218702 630 
L 133.218702 626.482911 
L 134.238676 626.482911 
L 134.238676 627.655274 
L 135.258651 627.655274 
L 135.258651 628.827637 
L 136.278625 628.827637 
L 136.278625 626.482911 
L 138.318574 626.482911 
L 138.318574 628.827637 
L 139.338548 628.827637 
L 139.338548 626.482911 
L 141.378497 626.482911 
L 141.378497 628.827637 
L 143.418446 628.827637 
L 143.418446 622.965821 
L 144.438421 622.965821 
L 144.438421 626.482911 
L 145.458395 626.482911 
L 145.458395 624.138185 
L 146.47837 624.138185 
L 146.47837 627.655274 
L 147.498344 627.655274 
L 147.498344 626.482911 
L 148.518319 626.482911 
L 148.518319 622.965821 
L 149.538293 622.965821 
L 149.538293 626.482911 
L 150.558267 626.482911 
L 150.558267 625.310548 
L 151.578242 625.310548 
L 151.578242 626.482911 
L 152.598216 626.482911 
L 152.598216 624.138185 
L 153.618191 624.138185 
L 153.618191 627.655274 
L 154.638165 627.655274 
L 154.638165 626.482911 
L 155.65814 626.482911 
L 155.65814 628.827637 
L 156.678114 628.827637 
L 156.678114 626.482911 
L 157.698089 626.482911 
L 157.698089 625.310548 
L 159.738038 625.310548 
L 159.738038 624.138185 
L 161.777986 624.138185 
L 161.777986 625.310548 
L 162.797961 625.310548 
L 162.797961 627.655274 
L 163.817935 627.655274 
L 163.817935 621.793458 
L 164.83791 621.793458 
L 164.83791 624.138185 
L 165.857884 624.138185 
L 165.857884 622.965821 
L 166.877859 622.965821 
L 166.877859 621.793458 
L 167.897833 621.793458 
L 167.897833 626.482911 
L 168.917808 626.482911 
L 168.917808 621.793458 
L 169.937782 621.793458 
L 169.937782 625.310548 
L 170.957757 625.310548 
L 170.957757 621.793458 
L 171.977731 621.793458 
L 171.977731 622.965821 
L 172.997705 622.965821 
L 172.997705 626.482911 
L 174.01768 626.482911 
L 174.01768 625.310548 
L 175.037654 625.310548 
L 175.037654 627.655274 
L 176.057629 627.655274 
L 176.057629 618.276369 
L 177.077603 618.276369 
L 177.077603 624.138185 
L 178.097578 624.138185 
L 178.097578 619.448732 
L 179.117552 619.448732 
L 179.117552 620.621095 
L 180.137527 620.621095 
L 180.137527 621.793458 
L 181.157501 621.793458 
L 181.157501 625.310548 
L 182.177476 625.310548 
L 182.177476 622.965821 
L 183.19745 622.965821 
L 183.19745 624.138185 
L 184.217424 624.138185 
L 184.217424 626.482911 
L 185.237399 626.482911 
L 185.237399 619.448732 
L 186.257373 619.448732 
L 186.257373 622.965821 
L 187.277348 622.965821 
L 187.277348 620.621095 
L 188.297322 620.621095 
L 188.297322 617.104006 
L 189.317297 617.104006 
L 189.317297 625.310548 
L 190.337271 625.310548 
L 190.337271 621.793458 
L 191.357246 621.793458 
L 191.357246 620.621095 
L 192.37722 620.621095 
L 192.37722 611.242191 
L 193.397194 611.242191 
L 193.397194 622.965821 
L 194.417169 622.965821 
L 194.417169 618.276369 
L 195.437143 618.276369 
L 195.437143 624.138185 
L 196.457118 624.138185 
L 196.457118 618.276369 
L 197.477092 618.276369 
L 197.477092 617.104006 
L 198.497067 617.104006 
L 198.497067 620.621095 
L 199.517041 620.621095 
L 199.517041 615.931643 
L 200.537016 615.931643 
L 200.537016 614.75928 
L 201.55699 614.75928 
L 201.55699 615.931643 
L 202.576965 615.931643 
L 202.576965 621.793458 
L 203.596939 621.793458 
L 203.596939 618.276369 
L 204.616913 618.276369 
L 204.616913 622.965821 
L 205.636888 622.965821 
L 205.636888 615.931643 
L 206.656862 615.931643 
L 206.656862 619.448732 
L 207.676837 619.448732 
L 207.676837 611.242191 
L 208.696811 611.242191 
L 208.696811 612.414554 
L 209.716786 612.414554 
L 209.716786 614.75928 
L 210.73676 614.75928 
L 210.73676 625.310548 
L 211.756735 625.310548 
L 211.756735 613.586917 
L 212.776709 613.586917 
L 212.776709 620.621095 
L 213.796684 620.621095 
L 213.796684 617.104006 
L 214.816658 617.104006 
L 214.816658 607.725101 
L 215.836632 607.725101 
L 215.836632 614.75928 
L 217.876581 614.75928 
L 217.876581 615.931643 
L 218.896556 615.931643 
L 218.896556 617.104006 
L 219.91653 617.104006 
L 219.91653 615.931643 
L 220.936505 615.931643 
L 220.936505 606.552738 
L 221.956479 606.552738 
L 221.956479 618.276369 
L 222.976454 618.276369 
L 222.976454 611.242191 
L 223.996428 611.242191 
L 223.996428 604.208012 
L 225.016403 604.208012 
L 225.016403 618.276369 
L 226.036377 618.276369 
L 226.036377 613.586917 
L 227.056351 613.586917 
L 227.056351 606.552738 
L 229.0963 606.552738 
L 229.0963 617.104006 
L 230.116275 617.104006 
L 230.116275 604.208012 
L 231.136249 604.208012 
L 231.136249 614.75928 
L 232.156224 614.75928 
L 232.156224 617.104006 
L 233.176198 617.104006 
L 233.176198 615.931643 
L 234.196173 615.931643 
L 234.196173 614.75928 
L 235.216147 614.75928 
L 235.216147 598.346197 
L 236.236122 598.346197 
L 236.236122 613.586917 
L 237.256096 613.586917 
L 237.256096 603.035649 
L 238.27607 603.035649 
L 238.27607 610.069828 
L 239.296045 610.069828 
L 239.296045 615.931643 
L 240.316019 615.931643 
L 240.316019 604.208012 
L 241.335994 604.208012 
L 241.335994 591.312018 
L 242.355968 591.312018 
L 242.355968 599.51856 
L 243.375943 599.51856 
L 243.375943 603.035649 
L 244.395917 603.035649 
L 244.395917 610.069828 
L 245.415892 610.069828 
L 245.415892 603.035649 
L 246.435866 603.035649 
L 246.435866 597.173834 
L 247.455841 597.173834 
L 247.455841 610.069828 
L 248.475815 610.069828 
L 248.475815 591.312018 
L 249.495789 591.312018 
L 249.495789 597.173834 
L 250.515764 597.173834 
L 250.515764 603.035649 
L 251.535738 603.035649 
L 251.535738 604.208012 
L 252.555713 604.208012 
L 252.555713 598.346197 
L 254.595662 598.346197 
L 254.595662 593.656744 
L 255.615636 593.656744 
L 255.615636 594.829107 
L 256.635611 594.829107 
L 256.635611 597.173834 
L 257.655585 597.173834 
L 257.655585 585.450203 
L 258.67556 585.450203 
L 258.67556 594.829107 
L 259.695534 594.829107 
L 259.695534 605.380375 
L 260.715508 605.380375 
L 260.715508 596.00147 
L 261.735483 596.00147 
L 261.735483 607.725101 
L 262.755457 607.725101 
L 262.755457 586.622566 
L 263.775432 586.622566 
L 263.775432 603.035649 
L 264.795406 603.035649 
L 264.795406 587.794929 
L 265.815381 587.794929 
L 265.815381 588.967292 
L 266.835355 588.967292 
L 266.835355 601.863286 
L 267.85533 601.863286 
L 267.85533 590.139655 
L 268.875304 590.139655 
L 268.875304 573.726572 
L 269.895279 573.726572 
L 269.895279 590.139655 
L 270.915253 590.139655 
L 270.915253 588.967292 
L 271.935227 588.967292 
L 271.935227 594.829107 
L 272.955202 594.829107 
L 272.955202 588.967292 
L 273.975176 588.967292 
L 273.975176 587.794929 
L 274.995151 587.794929 
L 274.995151 580.76075 
L 276.015125 580.76075 
L 276.015125 588.967292 
L 277.0351 588.967292 
L 277.0351 566.692393 
L 279.075049 566.692393 
L 279.075049 585.450203 
L 280.095023 585.450203 
L 280.095023 579.588387 
L 281.114998 579.588387 
L 281.114998 566.692393 
L 282.134972 566.692393 
L 282.134972 586.622566 
L 283.154946 586.622566 
L 283.154946 579.588387 
L 284.174921 579.588387 
L 284.174921 574.898935 
L 285.194895 574.898935 
L 285.194895 560.830578 
L 286.21487 560.830578 
L 286.21487 566.692393 
L 287.234844 566.692393 
L 287.234844 556.141126 
L 288.254819 556.141126 
L 288.254819 562.002941 
L 289.274793 562.002941 
L 289.274793 578.416024 
L 290.294768 578.416024 
L 290.294768 556.141126 
L 291.314742 556.141126 
L 291.314742 564.347667 
L 293.354691 564.347667 
L 293.354691 556.141126 
L 294.374665 556.141126 
L 294.374665 564.347667 
L 295.39464 564.347667 
L 295.39464 562.002941 
L 296.414614 562.002941 
L 296.414614 556.141126 
L 297.434589 556.141126 
L 297.434589 545.589858 
L 298.454563 545.589858 
L 298.454563 554.968762 
L 299.474538 554.968762 
L 299.474538 542.072769 
L 300.494512 542.072769 
L 300.494512 545.589858 
L 301.514487 545.589858 
L 301.514487 543.245132 
L 302.534461 543.245132 
L 302.534461 550.27931 
L 303.554436 550.27931 
L 303.554436 524.487322 
L 304.57441 524.487322 
L 304.57441 552.624036 
L 305.594384 552.624036 
L 305.594384 533.866227 
L 306.614359 533.866227 
L 306.614359 519.79787 
L 307.634333 519.79787 
L 307.634333 516.280781 
L 308.654308 516.280781 
L 308.654308 535.03859 
L 309.674282 535.03859 
L 309.674282 532.693864 
L 310.694257 532.693864 
L 310.694257 540.900405 
L 311.714231 540.900405 
L 311.714231 522.142596 
L 312.734206 522.142596 
L 312.734206 528.004411 
L 313.75418 528.004411 
L 313.75418 525.659685 
L 314.774155 525.659685 
L 314.774155 540.900405 
L 315.794129 540.900405 
L 315.794129 528.004411 
L 316.814103 528.004411 
L 316.814103 508.074239 
L 318.854052 508.074239 
L 318.854052 509.246602 
L 319.874027 509.246602 
L 319.874027 506.901876 
L 320.894001 506.901876 
L 320.894001 515.108418 
L 321.913976 515.108418 
L 321.913976 510.418965 
L 322.93395 510.418965 
L 322.93395 502.212424 
L 323.953925 502.212424 
L 323.953925 510.418965 
L 324.973899 510.418965 
L 324.973899 502.212424 
L 325.993874 502.212424 
L 325.993874 506.901876 
L 327.013848 506.901876 
L 327.013848 494.005882 
L 328.033822 494.005882 
L 328.033822 481.109888 
L 329.053797 481.109888 
L 329.053797 495.178245 
L 330.073771 495.178245 
L 330.073771 476.420436 
L 331.093746 476.420436 
L 331.093746 490.488793 
L 332.11372 490.488793 
L 332.11372 455.3179 
L 333.133695 455.3179 
L 333.133695 471.730983 
L 334.153669 471.730983 
L 334.153669 445.938995 
L 335.173644 445.938995 
L 335.173644 477.592799 
L 336.193618 477.592799 
L 336.193618 462.352079 
L 337.213593 462.352079 
L 337.213593 427.181186 
L 338.233567 427.181186 
L 338.233567 452.973174 
L 339.253541 452.973174 
L 339.253541 474.07571 
L 341.29349 474.07571 
L 341.29349 420.147008 
L 342.313465 420.147008 
L 342.313465 447.111359 
L 343.333439 447.111359 
L 343.333439 434.215365 
L 344.353414 434.215365 
L 344.353414 430.698275 
L 345.373388 430.698275 
L 345.373388 428.353549 
L 346.393363 428.353549 
L 346.393363 413.112829 
L 347.413337 413.112829 
L 347.413337 444.766632 
L 348.433312 444.766632 
L 348.433312 415.457555 
L 349.453286 415.457555 
L 349.453286 369.735395 
L 350.47326 369.735395 
L 350.47326 417.802281 
L 351.493235 417.802281 
L 351.493235 410.768103 
L 352.513209 410.768103 
L 352.513209 365.045942 
L 353.533184 365.045942 
L 353.533184 388.493204 
L 354.553158 388.493204 
L 354.553158 409.59574 
L 355.573133 409.59574 
L 355.573133 354.494675 
L 356.593107 354.494675 
L 356.593107 368.563032 
L 357.613082 368.563032 
L 357.613082 356.839401 
L 358.633056 356.839401 
L 358.633056 381.459026 
L 359.653031 381.459026 
L 359.653031 346.288133 
L 360.673005 346.288133 
L 360.673005 343.943407 
L 361.692979 343.943407 
L 361.692979 360.35649 
L 362.712954 360.35649 
L 362.712954 340.426318 
L 363.732928 340.426318 
L 363.732928 336.909228 
L 364.752903 336.909228 
L 364.752903 321.668508 
L 365.772877 321.668508 
L 365.772877 298.221247 
L 366.792852 298.221247 
L 366.792852 326.357961 
L 367.812826 326.357961 
L 367.812826 313.461967 
L 368.832801 313.461967 
L 368.832801 304.083062 
L 369.852775 304.083062 
L 369.852775 314.63433 
L 370.87275 314.63433 
L 370.87275 332.219776 
L 371.892724 332.219776 
L 371.892724 333.392139 
L 372.912698 333.392139 
L 372.912698 339.253955 
L 373.932673 339.253955 
L 373.932673 326.357961 
L 374.952647 326.357961 
L 374.952647 328.702687 
L 375.972622 328.702687 
L 375.972622 372.080121 
L 376.992596 372.080121 
L 376.992596 313.461967 
L 378.012571 313.461967 
L 378.012571 397.872109 
L 379.032545 397.872109 
L 379.032545 381.459026 
L 380.05252 381.459026 
L 380.05252 341.598681 
L 381.072494 341.598681 
L 381.072494 381.459026 
L 382.092469 381.459026 
L 382.092469 375.59721 
L 383.112443 375.59721 
L 383.112443 369.735395 
L 384.132417 369.735395 
L 384.132417 389.665567 
L 385.152392 389.665567 
L 385.152392 395.527383 
L 386.172366 395.527383 
L 386.172366 370.907758 
L 387.192341 370.907758 
L 387.192341 387.320841 
L 388.212315 387.320841 
L 388.212315 410.768103 
L 389.23229 410.768103 
L 389.23229 384.976115 
L 390.252264 384.976115 
L 390.252264 444.766632 
L 391.272239 444.766632 
L 391.272239 415.457555 
L 392.292213 415.457555 
L 392.292213 434.215365 
L 393.312188 434.215365 
L 393.312188 449.456085 
L 394.332162 449.456085 
L 394.332162 411.940466 
L 395.352136 411.940466 
L 395.352136 435.387728 
L 396.372111 435.387728 
L 396.372111 442.421906 
L 397.392085 442.421906 
L 397.392085 462.352079 
L 398.41206 462.352079 
L 398.41206 470.55862 
L 399.432034 470.55862 
L 399.432034 437.732454 
L 400.452009 437.732454 
L 400.452009 445.938995 
L 401.471983 445.938995 
L 401.471983 467.041531 
L 402.491958 467.041531 
L 402.491958 452.973174 
L 403.511932 452.973174 
L 403.511932 478.765162 
L 404.531907 478.765162 
L 404.531907 458.834989 
L 405.551881 458.834989 
L 405.551881 478.765162 
L 406.571855 478.765162 
L 406.571855 472.903346 
L 407.59183 472.903346 
L 407.59183 458.834989 
L 408.611804 458.834989 
L 408.611804 461.179716 
L 409.631779 461.179716 
L 409.631779 501.04006 
L 410.651753 501.04006 
L 410.651753 489.31643 
L 411.671728 489.31643 
L 411.671728 496.350608 
L 412.691702 496.350608 
L 412.691702 498.695334 
L 413.711677 498.695334 
L 413.711677 513.936054 
L 414.731651 513.936054 
L 414.731651 483.454614 
L 415.751626 483.454614 
L 415.751626 517.453144 
L 416.7716 517.453144 
L 416.7716 497.522971 
L 417.791574 497.522971 
L 417.791574 519.79787 
L 418.811549 519.79787 
L 418.811549 518.625507 
L 419.831523 518.625507 
L 419.831523 522.142596 
L 420.851498 522.142596 
L 420.851498 506.901876 
L 421.871472 506.901876 
L 421.871472 519.79787 
L 422.891447 519.79787 
L 422.891447 499.867697 
L 423.911421 499.867697 
L 423.911421 516.280781 
L 424.931396 516.280781 
L 424.931396 533.866227 
L 425.95137 533.866227 
L 425.95137 518.625507 
L 426.971345 518.625507 
L 426.971345 529.176775 
L 427.991319 529.176775 
L 427.991319 519.79787 
L 429.011293 519.79787 
L 429.011293 532.693864 
L 430.031268 532.693864 
L 430.031268 544.417495 
L 431.051242 544.417495 
L 431.051242 554.968762 
L 432.071217 554.968762 
L 432.071217 547.934584 
L 433.091191 547.934584 
L 433.091191 533.866227 
L 434.111166 533.866227 
L 434.111166 528.004411 
L 435.13114 528.004411 
L 435.13114 547.934584 
L 436.151115 547.934584 
L 436.151115 533.866227 
L 437.171089 533.866227 
L 437.171089 538.555679 
L 438.191064 538.555679 
L 438.191064 557.313489 
L 439.211038 557.313489 
L 439.211038 564.347667 
L 440.231012 564.347667 
L 440.231012 552.624036 
L 441.250987 552.624036 
L 441.250987 557.313489 
L 442.270961 557.313489 
L 442.270961 567.864756 
L 443.290936 567.864756 
L 443.290936 574.898935 
L 444.31091 574.898935 
L 444.31091 564.347667 
L 445.330885 564.347667 
L 445.330885 569.03712 
L 446.350859 569.03712 
L 446.350859 580.76075 
L 447.370834 580.76075 
L 447.370834 570.209483 
L 448.390808 570.209483 
L 448.390808 567.864756 
L 449.410782 567.864756 
L 449.410782 572.554209 
L 450.430757 572.554209 
L 450.430757 549.106947 
L 451.450731 549.106947 
L 451.450731 567.864756 
L 452.470706 567.864756 
L 452.470706 576.071298 
L 453.49068 576.071298 
L 453.49068 565.52003 
L 454.510655 565.52003 
L 454.510655 581.933113 
L 455.530629 581.933113 
L 455.530629 588.967292 
L 456.550604 588.967292 
L 456.550604 584.27784 
L 457.570578 584.27784 
L 457.570578 578.416024 
L 458.590553 578.416024 
L 458.590553 585.450203 
L 459.610527 585.450203 
L 459.610527 583.105477 
L 460.630501 583.105477 
L 460.630501 576.071298 
L 461.650476 576.071298 
L 461.650476 583.105477 
L 462.67045 583.105477 
L 462.67045 578.416024 
L 463.690425 578.416024 
L 463.690425 574.898935 
L 464.710399 574.898935 
L 464.710399 587.794929 
L 465.730374 587.794929 
L 465.730374 583.105477 
L 466.750348 583.105477 
L 466.750348 592.484381 
L 467.770323 592.484381 
L 467.770323 567.864756 
L 468.790297 567.864756 
L 468.790297 587.794929 
L 471.85022 587.794929 
L 471.85022 593.656744 
L 472.870195 593.656744 
L 472.870195 587.794929 
L 473.890169 587.794929 
L 473.890169 604.208012 
L 474.910144 604.208012 
L 474.910144 590.139655 
L 475.930118 590.139655 
L 475.930118 593.656744 
L 477.970067 593.656744 
L 477.970067 596.00147 
L 478.990042 596.00147 
L 478.990042 592.484381 
L 482.049965 592.484381 
L 482.049965 594.829107 
L 483.069939 594.829107 
L 483.069939 593.656744 
L 484.089914 593.656744 
L 484.089914 608.897464 
L 485.109888 608.897464 
L 485.109888 605.380375 
L 487.149837 605.380375 
L 487.149837 594.829107 
L 489.189786 594.829107 
L 489.189786 604.208012 
L 490.209761 604.208012 
L 490.209761 611.242191 
L 491.229735 611.242191 
L 491.229735 598.346197 
L 492.24971 598.346197 
L 492.24971 604.208012 
L 493.269684 604.208012 
L 493.269684 601.863286 
L 494.289658 601.863286 
L 494.289658 610.069828 
L 495.309633 610.069828 
L 495.309633 607.725101 
L 496.329607 607.725101 
L 496.329607 588.967292 
L 497.349582 588.967292 
L 497.349582 600.690923 
L 498.369556 600.690923 
L 498.369556 607.725101 
L 499.389531 607.725101 
L 499.389531 613.586917 
L 500.409505 613.586917 
L 500.409505 603.035649 
L 501.42948 603.035649 
L 501.42948 611.242191 
L 502.449454 611.242191 
L 502.449454 606.552738 
L 503.469429 606.552738 
L 503.469429 604.208012 
L 504.489403 604.208012 
L 504.489403 610.069828 
L 505.509377 610.069828 
L 505.509377 611.242191 
L 506.529352 611.242191 
L 506.529352 619.448732 
L 507.549326 619.448732 
L 507.549326 612.414554 
L 509.589275 612.414554 
L 509.589275 605.380375 
L 510.60925 605.380375 
L 510.60925 608.897464 
L 511.629224 608.897464 
L 511.629224 617.104006 
L 513.669173 617.104006 
L 513.669173 619.448732 
L 514.689148 619.448732 
L 514.689148 617.104006 
L 515.709122 617.104006 
L 515.709122 606.552738 
L 516.729096 606.552738 
L 516.729096 614.75928 
L 517.749071 614.75928 
L 517.749071 612.414554 
L 518.769045 612.414554 
L 518.769045 621.793458 
L 519.78902 621.793458 
L 519.78902 613.586917 
L 521.828969 613.586917 
L 521.828969 611.242191 
L 522.848943 611.242191 
L 522.848943 617.104006 
L 523.868918 617.104006 
L 523.868918 605.380375 
L 524.888892 605.380375 
L 524.888892 624.138185 
L 525.908867 624.138185 
L 525.908867 618.276369 
L 526.928841 618.276369 
L 526.928841 620.621095 
L 527.948815 620.621095 
L 527.948815 615.931643 
L 528.96879 615.931643 
L 528.96879 613.586917 
L 529.988764 613.586917 
L 529.988764 622.965821 
L 531.008739 622.965821 
L 531.008739 614.75928 
L 532.028713 614.75928 
L 532.028713 622.965821 
L 533.048688 622.965821 
L 533.048688 620.621095 
L 534.068662 620.621095 
L 534.068662 619.448732 
L 535.088637 619.448732 
L 535.088637 614.75928 
L 536.108611 614.75928 
L 536.108611 615.931643 
L 537.128586 615.931643 
L 537.128586 619.448732 
L 539.168534 619.448732 
L 539.168534 611.242191 
L 540.188509 611.242191 
L 540.188509 618.276369 
L 541.208483 618.276369 
L 541.208483 622.965821 
L 542.228458 622.965821 
L 542.228458 624.138185 
L 543.248432 624.138185 
L 543.248432 619.448732 
L 544.268407 619.448732 
L 544.268407 622.965821 
L 545.288381 622.965821 
L 545.288381 625.310548 
L 546.308356 625.310548 
L 546.308356 619.448732 
L 547.32833 619.448732 
L 547.32833 617.104006 
L 548.348305 617.104006 
L 548.348305 613.586917 
L 549.368279 613.586917 
L 549.368279 627.655274 
L 550.388253 627.655274 
L 550.388253 620.621095 
L 551.408228 620.621095 
L 551.408228 618.276369 
L 552.428202 618.276369 
L 552.428202 621.793458 
L 553.448177 621.793458 
L 553.448177 625.310548 
L 554.468151 625.310548 
L 554.468151 624.138185 
L 555.488126 624.138185 
L 555.488126 621.793458 
L 556.5081 621.793458 
L 556.5081 622.965821 
L 557.528075 622.965821 
L 557.528075 619.448732 
L 558.548049 619.448732 
L 558.548049 622.965821 
L 559.568024 622.965821 
L 559.568024 625.310548 
L 560.587998 625.310548 
L 560.587998 622.965821 
L 561.607972 622.965821 
L 561.607972 625.310548 
L 562.627947 625.310548 
L 562.627947 621.793458 
L 564.667896 621.793458 
L 564.667896 624.138185 
L 565.68787 624.138185 
L 565.68787 627.655274 
L 566.707845 627.655274 
L 566.707845 621.793458 
L 567.727819 621.793458 
L 567.727819 627.655274 
L 568.747794 627.655274 
L 568.747794 621.793458 
L 570.787743 621.793458 
L 570.787743 627.655274 
L 572.827691 627.655274 
L 572.827691 625.310548 
L 573.847666 625.310548 
L 573.847666 627.655274 
L 574.86764 627.655274 
L 574.86764 625.310548 
L 575.887615 625.310548 
L 575.887615 626.482911 
L 576.907589 626.482911 
L 576.907589 627.655274 
L 577.927564 627.655274 
L 577.927564 621.793458 
L 578.947538 621.793458 
L 578.947538 626.482911 
L 580.987487 626.482911 
L 580.987487 627.655274 
L 583.027436 627.655274 
L 583.027436 624.138185 
L 584.04741 624.138185 
L 584.04741 625.310548 
L 585.067385 625.310548 
L 585.067385 627.655274 
L 586.087359 627.655274 
L 586.087359 625.310548 
L 587.107334 625.310548 
L 587.107334 627.655274 
L 589.147283 627.655274 
L 589.147283 628.827637 
L 590.167257 628.827637 
L 590.167257 626.482911 
L 591.187232 626.482911 
L 591.187232 627.655274 
L 592.207206 627.655274 
L 592.207206 624.138185 
L 593.227181 624.138185 
L 593.227181 627.655274 
L 594.247155 627.655274 
L 594.247155 628.827637 
L 595.267129 628.827637 
L 595.267129 626.482911 
L 596.287104 626.482911 
L 596.287104 621.793458 
L 597.307078 621.793458 
L 597.307078 628.827637 
L 599.347027 628.827637 
L 599.347027 625.310548 
L 600.367002 625.310548 
L 600.367002 627.655274 
L 601.386976 627.655274 
L 601.386976 626.482911 
L 602.406951 626.482911 
L 602.406951 627.655274 
L 605.466874 627.655274 
L 605.466874 624.138185 
L 607.506823 624.138185 
L 607.506823 627.655274 
L 610.566746 627.655274 
L 610.566746 628.827637 
L 611.586721 628.827637 
L 611.586721 627.655274 
L 612.606695 627.655274 
L 612.606695 630 
L 613.62667 630 
L 613.62667 626.482911 
L 614.646644 626.482911 
L 614.646644 628.827637 
L 615.666619 628.827637 
L 615.666619 625.310548 
L 616.686593 625.310548 
L 616.686593 628.827637 
L 617.706567 628.827637 
L 617.706567 627.655274 
L 618.726542 627.655274 
L 618.726542 628.827637 
L 619.746516 628.827637 
L 619.746516 627.655274 
L 621.786465 627.655274 
L 621.786465 630 
L 623.826414 630 
L 623.826414 628.827637 
L 624.846389 628.827637 
L 624.846389 627.655274 
L 625.866363 627.655274 
L 625.866363 628.827637 
L 628.926286 628.827637 
L 628.926286 630 
L 630.966235 630 
L 630.966235 628.827637 
L 631.98621 628.827637 
L 631.98621 627.655274 
L 633.006184 627.655274 
L 633.006184 630 
L 634.026159 630 
L 634.026159 628.827637 
L 636.066108 628.827637 
L 636.066108 627.655274 
L 637.086082 627.655274 
L 637.086082 630 
L 640.146005 630 
L 640.146005 628.827637 
L 641.16598 628.827637 
L 641.16598 630 
L 642.185954 630 
L 642.185954 628.827637 
L 643.205929 628.827637 
L 643.205929 630 
L 644.225903 630 
L 644.225903 627.655274 
L 645.245878 627.655274 
L 645.245878 630 
L 646.265852 630 
L 646.265852 628.827637 
L 649.325776 628.827637 
L 649.325776 627.655274 
L 650.34575 627.655274 
L 650.34575 630 
L 651.365724 630 
L 651.365724 628.827637 
L 656.465597 628.827637 
L 656.465597 630 
L 657.485571 630 
L 657.485571 628.827637 
L 658.505546 628.827637 
L 658.505546 627.655274 
L 659.52552 627.655274 
L 659.52552 628.827637 
L 660.545495 628.827637 
L 660.545495 630 
L 661.565469 630 
L 661.565469 628.827637 
L 663.605418 628.827637 
L 663.605418 630 
L 666.665341 630 
L 666.665341 628.827637 
L 667.685316 628.827637 
L 667.685316 630 
L 671.765214 630 
L 671.765214 628.827637 
L 674.825137 628.827637 
L 674.825137 630 
L 676.865086 630 
L 676.865086 628.827637 
L 677.88506 628.827637 
L 677.88506 630 
L 679.925009 630 
L 679.925009 627.655274 
L 680.944984 627.655274 
L 680.944984 628.827637 
L 681.964958 628.827637 
L 681.964958 630 
L 687.06483 630 
L 687.06483 627.655274 
L 688.084805 627.655274 
L 688.084805 628.827637 
L 690.124754 628.827637 
L 690.124754 630 
L 696.2446 630 
L 696.2446 628.827637 
L 697.264575 628.827637 
L 697.264575 630 
L 699.304524 630 
L 699.304524 627.655274 
L 700.324498 627.655274 
L 700.324498 630 
L 704.404396 630 
L 704.404396 628.827637 
L 705.424371 628.827637 
L 705.424371 630 
L 706.444345 630 
L 706.444345 628.827637 
L 707.464319 628.827637 
L 707.464319 630 
L 710.524243 630 
L 710.524243 628.827637 
L 711.544217 628.827637 
L 711.544217 630 
L 712.564192 630 
L 712.564192 628.827637 
L 713.584166 628.827637 
L 713.584166 630 
L 715.624115 630 
L 715.624115 628.827637 
L 716.644089 628.827637 
L 716.644089 630 
L 721 630 
L 721 630 
" style="fill:none;stroke:#dd8452;stroke-linejoin:miter;"/>
   </g>
   <g id="patch_5">
    <path clip-path="url(#p529e566701)" d="M 103.920229 630 
L 103.920229 627.719731 
L 104.444632 627.719731 
L 104.444632 630 
L 114.408293 630 
L 114.408293 625.439462 
L 114.932696 625.439462 
L 114.932696 630 
L 125.945162 630 
L 125.945162 627.719731 
L 126.469566 627.719731 
L 126.469566 630 
L 128.042775 630 
L 128.042775 627.719731 
L 128.567178 627.719731 
L 128.567178 630 
L 135.38442 630 
L 135.38442 625.439462 
L 135.908823 625.439462 
L 135.908823 630 
L 138.530839 630 
L 138.530839 625.439462 
L 139.055242 625.439462 
L 139.055242 627.719731 
L 139.579645 627.719731 
L 139.579645 630 
L 140.104048 630 
L 140.104048 627.719731 
L 140.628452 627.719731 
L 140.628452 630 
L 142.726064 630 
L 142.726064 627.719731 
L 143.250467 627.719731 
L 143.250467 630 
L 147.970096 630 
L 147.970096 625.439462 
L 148.494499 625.439462 
L 148.494499 630 
L 149.543306 630 
L 149.543306 625.439462 
L 150.067709 625.439462 
L 150.067709 627.719731 
L 150.592112 627.719731 
L 150.592112 623.159193 
L 151.116515 623.159193 
L 151.116515 627.719731 
L 151.640918 627.719731 
L 151.640918 625.439462 
L 152.165321 625.439462 
L 152.165321 630 
L 152.689725 630 
L 152.689725 627.719731 
L 153.214128 627.719731 
L 153.214128 630 
L 153.738531 630 
L 153.738531 625.439462 
L 154.262934 625.439462 
L 154.262934 627.719731 
L 154.787337 627.719731 
L 154.787337 630 
L 155.311741 630 
L 155.311741 627.719731 
L 155.836144 627.719731 
L 155.836144 630 
L 156.88495 630 
L 156.88495 625.439462 
L 157.409353 625.439462 
L 157.409353 630 
L 159.506966 630 
L 159.506966 627.719731 
L 161.604579 627.719731 
L 161.604579 623.159193 
L 162.128982 623.159193 
L 162.128982 630 
L 162.653385 630 
L 162.653385 625.439462 
L 163.177788 625.439462 
L 163.177788 627.719731 
L 163.702191 627.719731 
L 163.702191 630 
L 165.275401 630 
L 165.275401 627.719731 
L 166.324207 627.719731 
L 166.324207 623.159193 
L 166.84861 623.159193 
L 166.84861 627.719731 
L 167.897417 627.719731 
L 167.897417 625.439462 
L 168.42182 625.439462 
L 168.42182 630 
L 168.946223 630 
L 168.946223 627.719731 
L 169.470626 627.719731 
L 169.470626 630 
L 170.519433 630 
L 170.519433 625.439462 
L 171.043836 625.439462 
L 171.043836 627.719731 
L 171.568239 627.719731 
L 171.568239 623.159193 
L 172.092642 623.159193 
L 172.092642 630 
L 172.617045 630 
L 172.617045 627.719731 
L 173.141449 627.719731 
L 173.141449 630 
L 173.665852 630 
L 173.665852 625.439462 
L 174.190255 625.439462 
L 174.190255 627.719731 
L 174.714658 627.719731 
L 174.714658 625.439462 
L 175.239061 625.439462 
L 175.239061 623.159193 
L 175.763464 623.159193 
L 175.763464 630 
L 176.287868 630 
L 176.287868 623.159193 
L 176.812271 623.159193 
L 176.812271 627.719731 
L 179.434287 627.719731 
L 179.434287 625.439462 
L 179.95869 625.439462 
L 179.95869 627.719731 
L 180.483093 627.719731 
L 180.483093 623.159193 
L 181.007496 623.159193 
L 181.007496 630 
L 181.531899 630 
L 181.531899 627.719731 
L 182.056303 627.719731 
L 182.056303 616.318385 
L 182.580706 616.318385 
L 182.580706 627.719731 
L 183.629512 627.719731 
L 183.629512 625.439462 
L 184.678319 625.439462 
L 184.678319 620.878923 
L 185.202722 620.878923 
L 185.202722 630 
L 185.727125 630 
L 185.727125 620.878923 
L 186.251528 620.878923 
L 186.251528 614.038116 
L 186.775931 614.038116 
L 186.775931 620.878923 
L 187.824738 620.878923 
L 187.824738 630 
L 188.349141 630 
L 188.349141 623.159193 
L 189.397947 623.159193 
L 189.397947 620.878923 
L 189.92235 620.878923 
L 189.92235 623.159193 
L 190.971157 623.159193 
L 190.971157 620.878923 
L 191.49556 620.878923 
L 191.49556 616.318385 
L 192.019963 616.318385 
L 192.019963 614.038116 
L 192.544366 614.038116 
L 192.544366 630 
L 193.068769 630 
L 193.068769 627.719731 
L 193.593173 627.719731 
L 193.593173 618.598654 
L 194.117576 618.598654 
L 194.117576 620.878923 
L 194.641979 620.878923 
L 194.641979 616.318385 
L 195.166382 616.318385 
L 195.166382 623.159193 
L 195.690785 623.159193 
L 195.690785 614.038116 
L 196.215188 614.038116 
L 196.215188 625.439462 
L 196.739592 625.439462 
L 196.739592 616.318385 
L 197.263995 616.318385 
L 197.263995 625.439462 
L 197.788398 625.439462 
L 197.788398 627.719731 
L 198.312801 627.719731 
L 198.312801 620.878923 
L 198.837204 620.878923 
L 198.837204 616.318385 
L 199.361608 616.318385 
L 199.361608 618.598654 
L 199.886011 618.598654 
L 199.886011 627.719731 
L 200.934817 627.719731 
L 200.934817 614.038116 
L 201.45922 614.038116 
L 201.45922 625.439462 
L 201.983623 625.439462 
L 201.983623 614.038116 
L 202.508027 614.038116 
L 202.508027 625.439462 
L 203.03243 625.439462 
L 203.03243 618.598654 
L 203.556833 618.598654 
L 203.556833 623.159193 
L 204.081236 623.159193 
L 204.081236 625.439462 
L 204.605639 625.439462 
L 204.605639 623.159193 
L 205.130043 623.159193 
L 205.130043 620.878923 
L 205.654446 620.878923 
L 205.654446 625.439462 
L 206.178849 625.439462 
L 206.178849 620.878923 
L 206.703252 620.878923 
L 206.703252 623.159193 
L 207.227655 623.159193 
L 207.227655 616.318385 
L 207.752058 616.318385 
L 207.752058 618.598654 
L 208.276462 618.598654 
L 208.276462 614.038116 
L 208.800865 614.038116 
L 208.800865 616.318385 
L 209.849671 616.318385 
L 209.849671 614.038116 
L 210.374074 614.038116 
L 210.374074 620.878923 
L 210.898477 620.878923 
L 210.898477 607.197308 
L 211.422881 607.197308 
L 211.422881 611.757847 
L 211.947284 611.757847 
L 211.947284 604.917039 
L 212.471687 604.917039 
L 212.471687 611.757847 
L 212.99609 611.757847 
L 212.99609 618.598654 
L 213.520493 618.598654 
L 213.520493 623.159193 
L 214.044897 623.159193 
L 214.044897 611.757847 
L 215.093703 611.757847 
L 215.093703 620.878923 
L 215.618106 620.878923 
L 215.618106 609.477578 
L 216.142509 609.477578 
L 216.142509 616.318385 
L 217.191316 616.318385 
L 217.191316 609.477578 
L 217.715719 609.477578 
L 217.715719 620.878923 
L 218.240122 620.878923 
L 218.240122 604.917039 
L 218.764525 604.917039 
L 218.764525 620.878923 
L 219.288928 620.878923 
L 219.288928 616.318385 
L 219.813332 616.318385 
L 219.813332 607.197308 
L 220.337735 607.197308 
L 220.337735 609.477578 
L 220.862138 609.477578 
L 220.862138 604.917039 
L 221.910944 604.917039 
L 221.910944 607.197308 
L 222.435347 607.197308 
L 222.435347 604.917039 
L 222.959751 604.917039 
L 222.959751 611.757847 
L 223.484154 611.757847 
L 223.484154 607.197308 
L 224.008557 607.197308 
L 224.008557 611.757847 
L 225.057363 611.757847 
L 225.057363 614.038116 
L 225.581767 614.038116 
L 225.581767 604.917039 
L 226.10617 604.917039 
L 226.10617 616.318385 
L 226.630573 616.318385 
L 226.630573 614.038116 
L 227.154976 614.038116 
L 227.154976 616.318385 
L 227.679379 616.318385 
L 227.679379 609.477578 
L 228.203782 609.477578 
L 228.203782 602.63677 
L 228.728186 602.63677 
L 228.728186 607.197308 
L 229.252589 607.197308 
L 229.252589 602.63677 
L 229.776992 602.63677 
L 229.776992 595.795963 
L 230.301395 595.795963 
L 230.301395 607.197308 
L 230.825798 607.197308 
L 230.825798 593.515693 
L 231.350201 593.515693 
L 231.350201 607.197308 
L 231.874605 607.197308 
L 231.874605 614.038116 
L 232.399008 614.038116 
L 232.399008 600.356501 
L 232.923411 600.356501 
L 232.923411 593.515693 
L 233.447814 593.515693 
L 233.447814 600.356501 
L 233.972217 600.356501 
L 233.972217 598.076232 
L 234.496621 598.076232 
L 234.496621 602.63677 
L 235.021024 602.63677 
L 235.021024 598.076232 
L 235.545427 598.076232 
L 235.545427 588.955155 
L 236.06983 588.955155 
L 236.06983 607.197308 
L 236.594233 607.197308 
L 236.594233 611.757847 
L 237.118636 611.757847 
L 237.118636 593.515693 
L 238.167443 593.515693 
L 238.167443 600.356501 
L 238.691846 600.356501 
L 238.691846 591.235424 
L 239.216249 591.235424 
L 239.216249 593.515693 
L 239.740652 593.515693 
L 239.740652 609.477578 
L 240.265056 609.477578 
L 240.265056 575.27354 
L 240.789459 575.27354 
L 240.789459 600.356501 
L 241.313862 600.356501 
L 241.313862 593.515693 
L 241.838265 593.515693 
L 241.838265 600.356501 
L 242.362668 600.356501 
L 242.362668 614.038116 
L 242.887071 614.038116 
L 242.887071 600.356501 
L 243.411475 600.356501 
L 243.411475 591.235424 
L 243.935878 591.235424 
L 243.935878 588.955155 
L 244.460281 588.955155 
L 244.460281 602.63677 
L 244.984684 602.63677 
L 244.984684 598.076232 
L 246.03349 598.076232 
L 246.03349 602.63677 
L 246.557894 602.63677 
L 246.557894 577.553809 
L 247.082297 577.553809 
L 247.082297 595.795963 
L 247.6067 595.795963 
L 247.6067 588.955155 
L 248.131103 588.955155 
L 248.131103 604.917039 
L 248.655506 604.917039 
L 248.655506 598.076232 
L 249.17991 598.076232 
L 249.17991 577.553809 
L 250.228716 577.553809 
L 250.228716 591.235424 
L 251.277522 591.235424 
L 251.277522 584.394617 
L 251.801925 584.394617 
L 251.801925 593.515693 
L 252.326329 593.515693 
L 252.326329 577.553809 
L 252.850732 577.553809 
L 252.850732 584.394617 
L 253.375135 584.394617 
L 253.375135 586.674886 
L 253.899538 586.674886 
L 253.899538 588.955155 
L 254.423941 588.955155 
L 254.423941 579.834078 
L 254.948345 579.834078 
L 254.948345 566.152463 
L 255.472748 566.152463 
L 255.472748 593.515693 
L 255.997151 593.515693 
L 255.997151 563.872194 
L 256.521554 563.872194 
L 256.521554 566.152463 
L 257.045957 566.152463 
L 257.045957 595.795963 
L 257.57036 595.795963 
L 257.57036 579.834078 
L 258.094764 579.834078 
L 258.094764 575.27354 
L 258.619167 575.27354 
L 258.619167 586.674886 
L 259.14357 586.674886 
L 259.14357 593.515693 
L 259.667973 593.515693 
L 259.667973 568.432733 
L 260.192376 568.432733 
L 260.192376 561.591925 
L 260.716779 561.591925 
L 260.716779 557.031387 
L 261.241183 557.031387 
L 261.241183 559.311656 
L 261.765586 559.311656 
L 261.765586 568.432733 
L 262.289989 568.432733 
L 262.289989 557.031387 
L 262.814392 557.031387 
L 262.814392 575.27354 
L 263.338795 575.27354 
L 263.338795 572.993271 
L 263.863199 572.993271 
L 263.863199 563.872194 
L 264.387602 563.872194 
L 264.387602 566.152463 
L 264.912005 566.152463 
L 264.912005 568.432733 
L 265.436408 568.432733 
L 265.436408 570.713002 
L 265.960811 570.713002 
L 265.960811 572.993271 
L 266.485214 572.993271 
L 266.485214 561.591925 
L 267.009618 561.591925 
L 267.009618 557.031387 
L 267.534021 557.031387 
L 267.534021 545.630041 
L 268.058424 545.630041 
L 268.058424 557.031387 
L 268.582827 557.031387 
L 268.582827 547.91031 
L 269.10723 547.91031 
L 269.10723 570.713002 
L 270.156037 570.713002 
L 270.156037 561.591925 
L 271.204843 561.591925 
L 271.204843 559.311656 
L 271.729246 559.311656 
L 271.729246 579.834078 
L 272.253649 579.834078 
L 272.253649 559.311656 
L 272.778053 559.311656 
L 272.778053 547.91031 
L 273.302456 547.91031 
L 273.302456 568.432733 
L 273.826859 568.432733 
L 273.826859 559.311656 
L 274.351262 559.311656 
L 274.351262 552.470848 
L 274.875665 552.470848 
L 274.875665 541.069503 
L 275.400069 541.069503 
L 275.400069 568.432733 
L 275.924472 568.432733 
L 275.924472 554.751118 
L 276.448875 554.751118 
L 276.448875 552.470848 
L 276.973278 552.470848 
L 276.973278 545.630041 
L 277.497681 545.630041 
L 277.497681 570.713002 
L 278.022084 570.713002 
L 278.022084 566.152463 
L 278.546488 566.152463 
L 278.546488 577.553809 
L 279.070891 577.553809 
L 279.070891 531.948426 
L 279.595294 531.948426 
L 279.595294 554.751118 
L 280.119697 554.751118 
L 280.119697 534.228695 
L 280.6441 534.228695 
L 280.6441 550.190579 
L 281.168503 550.190579 
L 281.168503 541.069503 
L 281.692907 541.069503 
L 281.692907 559.311656 
L 282.21731 559.311656 
L 282.21731 525.107618 
L 282.741713 525.107618 
L 282.741713 547.91031 
L 283.266116 547.91031 
L 283.266116 545.630041 
L 283.790519 545.630041 
L 283.790519 554.751118 
L 284.314923 554.751118 
L 284.314923 538.789233 
L 284.839326 538.789233 
L 284.839326 520.54708 
L 285.363729 520.54708 
L 285.363729 538.789233 
L 285.888132 538.789233 
L 285.888132 543.349772 
L 286.412535 543.349772 
L 286.412535 550.190579 
L 286.936938 550.190579 
L 286.936938 552.470848 
L 287.461342 552.470848 
L 287.461342 545.630041 
L 287.985745 545.630041 
L 287.985745 547.91031 
L 289.034551 547.91031 
L 289.034551 561.591925 
L 289.558954 561.591925 
L 289.558954 541.069503 
L 290.083358 541.069503 
L 290.083358 545.630041 
L 290.607761 545.630041 
L 290.607761 559.311656 
L 291.132164 559.311656 
L 291.132164 545.630041 
L 291.656567 545.630041 
L 291.656567 529.668157 
L 292.18097 529.668157 
L 292.18097 545.630041 
L 292.705373 545.630041 
L 292.705373 552.470848 
L 293.229777 552.470848 
L 293.229777 545.630041 
L 293.75418 545.630041 
L 293.75418 513.706273 
L 294.802986 513.706273 
L 294.802986 531.948426 
L 295.327389 531.948426 
L 295.327389 509.145734 
L 295.851792 509.145734 
L 295.851792 538.789233 
L 296.376196 538.789233 
L 296.376196 488.623312 
L 296.900599 488.623312 
L 296.900599 513.706273 
L 297.425002 513.706273 
L 297.425002 520.54708 
L 297.949405 520.54708 
L 297.949405 468.100889 
L 298.473808 468.100889 
L 298.473808 513.706273 
L 298.998212 513.706273 
L 298.998212 511.426003 
L 299.522615 511.426003 
L 299.522615 518.266811 
L 300.047018 518.266811 
L 300.047018 534.228695 
L 300.571421 534.228695 
L 300.571421 495.464119 
L 301.095824 495.464119 
L 301.095824 515.986542 
L 301.620227 515.986542 
L 301.620227 525.107618 
L 302.144631 525.107618 
L 302.144631 504.585196 
L 302.669034 504.585196 
L 302.669034 502.304927 
L 303.193437 502.304927 
L 303.193437 500.024658 
L 303.71784 500.024658 
L 303.71784 515.986542 
L 304.242243 515.986542 
L 304.242243 486.343043 
L 304.766647 486.343043 
L 304.766647 465.82062 
L 305.29105 465.82062 
L 305.29105 531.948426 
L 305.815453 531.948426 
L 305.815453 513.706273 
L 306.339856 513.706273 
L 306.339856 495.464119 
L 306.864259 495.464119 
L 306.864259 520.54708 
L 307.388662 520.54708 
L 307.388662 497.744388 
L 307.913066 497.744388 
L 307.913066 493.18385 
L 308.961872 493.18385 
L 308.961872 504.585196 
L 309.486275 504.585196 
L 309.486275 490.903581 
L 310.010678 490.903581 
L 310.010678 509.145734 
L 310.535082 509.145734 
L 310.535082 522.827349 
L 311.059485 522.827349 
L 311.059485 495.464119 
L 311.583888 495.464119 
L 311.583888 515.986542 
L 312.108291 515.986542 
L 312.108291 502.304927 
L 312.632694 502.304927 
L 312.632694 513.706273 
L 313.157097 513.706273 
L 313.157097 511.426003 
L 313.681501 511.426003 
L 313.681501 502.304927 
L 314.205904 502.304927 
L 314.205904 490.903581 
L 314.730307 490.903581 
L 314.730307 484.062773 
L 315.25471 484.062773 
L 315.25471 461.260082 
L 315.779113 461.260082 
L 315.779113 465.82062 
L 316.303516 465.82062 
L 316.303516 495.464119 
L 316.82792 495.464119 
L 316.82792 506.865465 
L 317.352323 506.865465 
L 317.352323 502.304927 
L 317.876726 502.304927 
L 317.876726 495.464119 
L 318.401129 495.464119 
L 318.401129 509.145734 
L 318.925532 509.145734 
L 318.925532 490.903581 
L 319.449936 490.903581 
L 319.449936 488.623312 
L 319.974339 488.623312 
L 319.974339 472.661428 
L 320.498742 472.661428 
L 320.498742 458.979813 
L 321.023145 458.979813 
L 321.023145 493.18385 
L 321.547548 493.18385 
L 321.547548 486.343043 
L 322.071951 486.343043 
L 322.071951 443.017928 
L 322.596355 443.017928 
L 322.596355 502.304927 
L 323.120758 502.304927 
L 323.120758 456.699543 
L 323.645161 456.699543 
L 323.645161 509.145734 
L 324.169564 509.145734 
L 324.169564 438.45739 
L 324.693967 438.45739 
L 324.693967 431.616583 
L 325.218371 431.616583 
L 325.218371 486.343043 
L 325.742774 486.343043 
L 325.742774 427.056044 
L 326.267177 427.056044 
L 326.267177 481.782504 
L 326.79158 481.782504 
L 326.79158 472.661428 
L 327.315983 472.661428 
L 327.315983 504.585196 
L 327.840386 504.585196 
L 327.840386 468.100889 
L 328.36479 468.100889 
L 328.36479 463.540351 
L 328.889193 463.540351 
L 328.889193 479.502235 
L 329.413596 479.502235 
L 329.413596 454.419274 
L 329.937999 454.419274 
L 329.937999 479.502235 
L 330.462402 479.502235 
L 330.462402 456.699543 
L 330.986805 456.699543 
L 330.986805 458.979813 
L 331.511209 458.979813 
L 331.511209 436.177121 
L 332.035612 436.177121 
L 332.035612 479.502235 
L 332.560015 479.502235 
L 332.560015 456.699543 
L 333.084418 456.699543 
L 333.084418 438.45739 
L 333.608821 438.45739 
L 333.608821 440.737659 
L 334.133225 440.737659 
L 334.133225 490.903581 
L 334.657628 490.903581 
L 334.657628 458.979813 
L 335.182031 458.979813 
L 335.182031 470.381158 
L 335.706434 470.381158 
L 335.706434 452.139005 
L 336.230837 452.139005 
L 336.230837 477.221966 
L 336.75524 477.221966 
L 336.75524 465.82062 
L 337.279644 465.82062 
L 337.279644 484.062773 
L 337.804047 484.062773 
L 337.804047 486.343043 
L 338.32845 486.343043 
L 338.32845 438.45739 
L 338.852853 438.45739 
L 338.852853 440.737659 
L 339.377256 440.737659 
L 339.377256 468.100889 
L 339.90166 468.100889 
L 339.90166 456.699543 
L 340.426063 456.699543 
L 340.426063 443.017928 
L 340.950466 443.017928 
L 340.950466 438.45739 
L 341.474869 438.45739 
L 341.474869 484.062773 
L 341.999272 484.062773 
L 341.999272 472.661428 
L 342.523675 472.661428 
L 342.523675 447.578467 
L 343.048079 447.578467 
L 343.048079 468.100889 
L 343.572482 468.100889 
L 343.572482 458.979813 
L 344.096885 458.979813 
L 344.096885 456.699543 
L 344.621288 456.699543 
L 344.621288 422.495506 
L 345.145691 422.495506 
L 345.145691 461.260082 
L 345.670094 461.260082 
L 345.670094 438.45739 
L 346.194498 438.45739 
L 346.194498 477.221966 
L 347.243304 477.221966 
L 347.243304 502.304927 
L 347.767707 502.304927 
L 347.767707 468.100889 
L 348.29211 468.100889 
L 348.29211 422.495506 
L 348.816514 422.495506 
L 348.816514 433.896852 
L 349.340917 433.896852 
L 349.340917 474.941697 
L 349.86532 474.941697 
L 349.86532 470.381158 
L 350.389723 470.381158 
L 350.389723 431.616583 
L 350.914126 431.616583 
L 350.914126 456.699543 
L 351.438529 456.699543 
L 351.438529 445.298198 
L 351.962933 445.298198 
L 351.962933 465.82062 
L 352.487336 465.82062 
L 352.487336 443.017928 
L 353.011739 443.017928 
L 353.011739 452.139005 
L 353.536142 452.139005 
L 353.536142 429.336313 
L 354.060545 429.336313 
L 354.060545 438.45739 
L 354.584949 438.45739 
L 354.584949 443.017928 
L 355.109352 443.017928 
L 355.109352 427.056044 
L 355.633755 427.056044 
L 355.633755 465.82062 
L 356.158158 465.82062 
L 356.158158 468.100889 
L 356.682561 468.100889 
L 356.682561 463.540351 
L 357.206964 463.540351 
L 357.206964 445.298198 
L 358.255771 445.298198 
L 358.255771 443.017928 
L 358.780174 443.017928 
L 358.780174 465.82062 
L 359.304577 465.82062 
L 359.304577 445.298198 
L 359.82898 445.298198 
L 359.82898 427.056044 
L 360.353384 427.056044 
L 360.353384 470.381158 
L 360.877787 470.381158 
L 360.877787 452.139005 
L 361.40219 452.139005 
L 361.40219 458.979813 
L 361.926593 458.979813 
L 361.926593 420.215237 
L 362.450996 420.215237 
L 362.450996 443.017928 
L 362.975399 443.017928 
L 362.975399 438.45739 
L 363.499803 438.45739 
L 363.499803 424.775775 
L 364.024206 424.775775 
L 364.024206 445.298198 
L 364.548609 445.298198 
L 364.548609 463.540351 
L 365.073012 463.540351 
L 365.073012 488.623312 
L 365.597415 488.623312 
L 365.597415 422.495506 
L 366.121818 422.495506 
L 366.121818 413.374429 
L 366.646222 413.374429 
L 366.646222 477.221966 
L 367.170625 477.221966 
L 367.170625 440.737659 
L 367.695028 440.737659 
L 367.695028 429.336313 
L 368.219431 429.336313 
L 368.219431 443.017928 
L 368.743834 443.017928 
L 368.743834 452.139005 
L 369.268238 452.139005 
L 369.268238 447.578467 
L 369.792641 447.578467 
L 369.792641 481.782504 
L 370.317044 481.782504 
L 370.317044 429.336313 
L 370.841447 429.336313 
L 370.841447 438.45739 
L 371.36585 438.45739 
L 371.36585 449.858736 
L 371.890253 449.858736 
L 371.890253 454.419274 
L 372.414657 454.419274 
L 372.414657 443.017928 
L 372.93906 443.017928 
L 372.93906 431.616583 
L 373.463463 431.616583 
L 373.463463 481.782504 
L 373.987866 481.782504 
L 373.987866 440.737659 
L 374.512269 440.737659 
L 374.512269 404.253353 
L 375.036673 404.253353 
L 375.036673 456.699543 
L 375.561076 456.699543 
L 375.561076 424.775775 
L 376.085479 424.775775 
L 376.085479 458.979813 
L 376.609882 458.979813 
L 376.609882 463.540351 
L 377.134285 463.540351 
L 377.134285 454.419274 
L 377.658688 454.419274 
L 377.658688 415.654698 
L 378.183092 415.654698 
L 378.183092 431.616583 
L 378.707495 431.616583 
L 378.707495 411.09416 
L 379.231898 411.09416 
L 379.231898 395.132276 
L 379.756301 395.132276 
L 379.756301 440.737659 
L 380.280704 440.737659 
L 380.280704 449.858736 
L 380.805107 449.858736 
L 380.805107 454.419274 
L 381.329511 454.419274 
L 381.329511 431.616583 
L 381.853914 431.616583 
L 381.853914 429.336313 
L 382.378317 429.336313 
L 382.378317 445.298198 
L 382.90272 445.298198 
L 382.90272 429.336313 
L 383.427123 429.336313 
L 383.427123 440.737659 
L 383.951527 440.737659 
L 383.951527 465.82062 
L 384.47593 465.82062 
L 384.47593 427.056044 
L 385.000333 427.056044 
L 385.000333 458.979813 
L 385.524736 458.979813 
L 385.524736 463.540351 
L 386.049139 463.540351 
L 386.049139 443.017928 
L 386.573542 443.017928 
L 386.573542 422.495506 
L 387.097946 422.495506 
L 387.097946 438.45739 
L 387.622349 438.45739 
L 387.622349 449.858736 
L 388.146752 449.858736 
L 388.146752 436.177121 
L 388.671155 436.177121 
L 388.671155 477.221966 
L 389.195558 477.221966 
L 389.195558 454.419274 
L 389.719962 454.419274 
L 389.719962 468.100889 
L 390.244365 468.100889 
L 390.244365 447.578467 
L 390.768768 447.578467 
L 390.768768 427.056044 
L 391.293171 427.056044 
L 391.293171 479.502235 
L 391.817574 479.502235 
L 391.817574 458.979813 
L 392.341977 458.979813 
L 392.341977 452.139005 
L 392.866381 452.139005 
L 392.866381 429.336313 
L 393.390784 429.336313 
L 393.390784 472.661428 
L 393.915187 472.661428 
L 393.915187 454.419274 
L 394.43959 454.419274 
L 394.43959 468.100889 
L 394.963993 468.100889 
L 394.963993 420.215237 
L 395.488396 420.215237 
L 395.488396 470.381158 
L 396.0128 470.381158 
L 396.0128 438.45739 
L 396.537203 438.45739 
L 396.537203 470.381158 
L 397.061606 470.381158 
L 397.061606 456.699543 
L 397.586009 456.699543 
L 397.586009 458.979813 
L 398.110412 458.979813 
L 398.110412 436.177121 
L 398.634816 436.177121 
L 398.634816 461.260082 
L 399.159219 461.260082 
L 399.159219 488.623312 
L 399.683622 488.623312 
L 399.683622 443.017928 
L 400.208025 443.017928 
L 400.208025 474.941697 
L 400.732428 474.941697 
L 400.732428 479.502235 
L 401.256831 479.502235 
L 401.256831 531.948426 
L 401.781235 531.948426 
L 401.781235 474.941697 
L 402.305638 474.941697 
L 402.305638 465.82062 
L 402.830041 465.82062 
L 402.830041 456.699543 
L 403.354444 456.699543 
L 403.354444 470.381158 
L 403.878847 470.381158 
L 403.878847 484.062773 
L 404.403251 484.062773 
L 404.403251 461.260082 
L 404.927654 461.260082 
L 404.927654 472.661428 
L 405.452057 472.661428 
L 405.452057 484.062773 
L 405.97646 484.062773 
L 405.97646 465.82062 
L 406.500863 465.82062 
L 406.500863 454.419274 
L 407.025266 454.419274 
L 407.025266 463.540351 
L 407.54967 463.540351 
L 407.54967 436.177121 
L 408.074073 436.177121 
L 408.074073 470.381158 
L 408.598476 470.381158 
L 408.598476 465.82062 
L 409.122879 465.82062 
L 409.122879 484.062773 
L 409.647282 484.062773 
L 409.647282 500.024658 
L 410.171686 500.024658 
L 410.171686 463.540351 
L 410.696089 463.540351 
L 410.696089 479.502235 
L 411.220492 479.502235 
L 411.220492 472.661428 
L 411.744895 472.661428 
L 411.744895 515.986542 
L 412.269298 515.986542 
L 412.269298 468.100889 
L 412.793701 468.100889 
L 412.793701 481.782504 
L 413.318105 481.782504 
L 413.318105 490.903581 
L 413.842508 490.903581 
L 413.842508 509.145734 
L 414.366911 509.145734 
L 414.366911 486.343043 
L 414.891314 486.343043 
L 414.891314 497.744388 
L 415.415717 497.744388 
L 415.415717 513.706273 
L 415.94012 513.706273 
L 415.94012 500.024658 
L 416.464524 500.024658 
L 416.464524 463.540351 
L 416.988927 463.540351 
L 416.988927 479.502235 
L 417.51333 479.502235 
L 417.51333 486.343043 
L 418.037733 486.343043 
L 418.037733 495.464119 
L 418.562136 495.464119 
L 418.562136 484.062773 
L 420.135346 484.062773 
L 420.135346 465.82062 
L 420.659749 465.82062 
L 420.659749 484.062773 
L 421.184152 484.062773 
L 421.184152 495.464119 
L 421.708555 495.464119 
L 421.708555 506.865465 
L 422.232959 506.865465 
L 422.232959 463.540351 
L 422.757362 463.540351 
L 422.757362 490.903581 
L 423.281765 490.903581 
L 423.281765 477.221966 
L 423.806168 477.221966 
L 423.806168 468.100889 
L 424.330571 468.100889 
L 424.330571 481.782504 
L 424.854975 481.782504 
L 424.854975 534.228695 
L 425.379378 534.228695 
L 425.379378 502.304927 
L 425.903781 502.304927 
L 425.903781 481.782504 
L 426.428184 481.782504 
L 426.428184 522.827349 
L 426.952587 522.827349 
L 426.952587 504.585196 
L 427.47699 504.585196 
L 427.47699 497.744388 
L 428.001394 497.744388 
L 428.001394 520.54708 
L 428.525797 520.54708 
L 428.525797 484.062773 
L 429.0502 484.062773 
L 429.0502 529.668157 
L 429.574603 529.668157 
L 429.574603 511.426003 
L 430.099006 511.426003 
L 430.099006 534.228695 
L 430.623409 534.228695 
L 430.623409 506.865465 
L 431.147813 506.865465 
L 431.147813 497.744388 
L 431.672216 497.744388 
L 431.672216 513.706273 
L 432.196619 513.706273 
L 432.196619 511.426003 
L 432.721022 511.426003 
L 432.721022 515.986542 
L 433.245425 515.986542 
L 433.245425 518.266811 
L 433.769829 518.266811 
L 433.769829 522.827349 
L 434.294232 522.827349 
L 434.294232 493.18385 
L 434.818635 493.18385 
L 434.818635 506.865465 
L 435.343038 506.865465 
L 435.343038 522.827349 
L 435.867441 522.827349 
L 435.867441 502.304927 
L 436.391844 502.304927 
L 436.391844 518.266811 
L 437.440651 518.266811 
L 437.440651 520.54708 
L 437.965054 520.54708 
L 437.965054 538.789233 
L 438.489457 538.789233 
L 438.489457 529.668157 
L 439.01386 529.668157 
L 439.01386 520.54708 
L 439.538264 520.54708 
L 439.538264 506.865465 
L 440.062667 506.865465 
L 440.062667 520.54708 
L 440.58707 520.54708 
L 440.58707 506.865465 
L 441.111473 506.865465 
L 441.111473 522.827349 
L 442.160279 522.827349 
L 442.160279 527.387888 
L 443.209086 527.387888 
L 443.209086 522.827349 
L 444.257892 522.827349 
L 444.257892 531.948426 
L 444.782295 531.948426 
L 444.782295 511.426003 
L 445.306699 511.426003 
L 445.306699 531.948426 
L 445.831102 531.948426 
L 445.831102 559.311656 
L 446.355505 559.311656 
L 446.355505 511.426003 
L 446.879908 511.426003 
L 446.879908 543.349772 
L 447.404311 543.349772 
L 447.404311 509.145734 
L 447.928714 509.145734 
L 447.928714 536.508964 
L 448.453118 536.508964 
L 448.453118 527.387888 
L 448.977521 527.387888 
L 448.977521 534.228695 
L 449.501924 534.228695 
L 449.501924 536.508964 
L 450.026327 536.508964 
L 450.026327 538.789233 
L 451.075133 538.789233 
L 451.075133 552.470848 
L 451.599537 552.470848 
L 451.599537 550.190579 
L 452.12394 550.190579 
L 452.12394 536.508964 
L 452.648343 536.508964 
L 452.648343 552.470848 
L 453.172746 552.470848 
L 453.172746 538.789233 
L 453.697149 538.789233 
L 453.697149 525.107618 
L 454.221553 525.107618 
L 454.221553 577.553809 
L 454.745956 577.553809 
L 454.745956 543.349772 
L 455.270359 543.349772 
L 455.270359 561.591925 
L 455.794762 561.591925 
L 455.794762 536.508964 
L 456.319165 536.508964 
L 456.319165 554.751118 
L 456.843568 554.751118 
L 456.843568 561.591925 
L 457.367972 561.591925 
L 457.367972 570.713002 
L 457.892375 570.713002 
L 457.892375 534.228695 
L 458.416778 534.228695 
L 458.416778 550.190579 
L 458.941181 550.190579 
L 458.941181 557.031387 
L 459.465584 557.031387 
L 459.465584 538.789233 
L 459.989988 538.789233 
L 459.989988 541.069503 
L 460.514391 541.069503 
L 460.514391 543.349772 
L 461.038794 543.349772 
L 461.038794 566.152463 
L 461.563197 566.152463 
L 461.563197 541.069503 
L 462.0876 541.069503 
L 462.0876 543.349772 
L 463.136407 543.349772 
L 463.136407 547.91031 
L 463.66081 547.91031 
L 463.66081 559.311656 
L 464.185213 559.311656 
L 464.185213 547.91031 
L 464.709616 547.91031 
L 464.709616 557.031387 
L 465.234019 557.031387 
L 465.234019 559.311656 
L 466.282826 559.311656 
L 466.282826 554.751118 
L 466.807229 554.751118 
L 466.807229 534.228695 
L 467.331632 534.228695 
L 467.331632 559.311656 
L 467.856035 559.311656 
L 467.856035 547.91031 
L 468.380438 547.91031 
L 468.380438 557.031387 
L 468.904842 557.031387 
L 468.904842 575.27354 
L 469.429245 575.27354 
L 469.429245 563.872194 
L 471.002454 563.872194 
L 471.002454 568.432733 
L 471.526857 568.432733 
L 471.526857 559.311656 
L 472.051261 559.311656 
L 472.051261 568.432733 
L 472.575664 568.432733 
L 472.575664 566.152463 
L 473.100067 566.152463 
L 473.100067 572.993271 
L 474.148873 572.993271 
L 474.148873 559.311656 
L 474.673277 559.311656 
L 474.673277 584.394617 
L 475.19768 584.394617 
L 475.19768 568.432733 
L 475.722083 568.432733 
L 475.722083 559.311656 
L 476.246486 559.311656 
L 476.246486 563.872194 
L 476.770889 563.872194 
L 476.770889 588.955155 
L 477.295292 588.955155 
L 477.295292 577.553809 
L 477.819696 577.553809 
L 477.819696 593.515693 
L 478.344099 593.515693 
L 478.344099 588.955155 
L 478.868502 588.955155 
L 478.868502 566.152463 
L 479.392905 566.152463 
L 479.392905 584.394617 
L 479.917308 584.394617 
L 479.917308 600.356501 
L 480.441711 600.356501 
L 480.441711 602.63677 
L 480.966115 602.63677 
L 480.966115 575.27354 
L 481.490518 575.27354 
L 481.490518 595.795963 
L 482.014921 595.795963 
L 482.014921 584.394617 
L 482.539324 584.394617 
L 482.539324 595.795963 
L 483.063727 595.795963 
L 483.063727 582.114348 
L 483.588131 582.114348 
L 483.588131 584.394617 
L 484.112534 584.394617 
L 484.112534 586.674886 
L 485.16134 586.674886 
L 485.16134 566.152463 
L 485.685743 566.152463 
L 485.685743 595.795963 
L 486.73455 595.795963 
L 486.73455 588.955155 
L 487.258953 588.955155 
L 487.258953 598.076232 
L 487.783356 598.076232 
L 487.783356 591.235424 
L 488.307759 591.235424 
L 488.307759 570.713002 
L 488.832162 570.713002 
L 488.832162 593.515693 
L 489.356566 593.515693 
L 489.356566 584.394617 
L 489.880969 584.394617 
L 489.880969 600.356501 
L 490.405372 600.356501 
L 490.405372 595.795963 
L 490.929775 595.795963 
L 490.929775 591.235424 
L 491.454178 591.235424 
L 491.454178 588.955155 
L 491.978581 588.955155 
L 491.978581 582.114348 
L 492.502985 582.114348 
L 492.502985 600.356501 
L 493.027388 600.356501 
L 493.027388 598.076232 
L 493.551791 598.076232 
L 493.551791 593.515693 
L 494.076194 593.515693 
L 494.076194 616.318385 
L 494.600597 616.318385 
L 494.600597 588.955155 
L 495.649404 588.955155 
L 495.649404 609.477578 
L 496.173807 609.477578 
L 496.173807 588.955155 
L 496.69821 588.955155 
L 496.69821 591.235424 
L 497.222613 591.235424 
L 497.222613 588.955155 
L 497.747016 588.955155 
L 497.747016 618.598654 
L 498.27142 618.598654 
L 498.27142 607.197308 
L 498.795823 607.197308 
L 498.795823 602.63677 
L 499.320226 602.63677 
L 499.320226 582.114348 
L 499.844629 582.114348 
L 499.844629 607.197308 
L 500.369032 607.197308 
L 500.369032 614.038116 
L 500.893435 614.038116 
L 500.893435 602.63677 
L 501.417839 602.63677 
L 501.417839 614.038116 
L 501.942242 614.038116 
L 501.942242 616.318385 
L 502.466645 616.318385 
L 502.466645 604.917039 
L 502.991048 604.917039 
L 502.991048 593.515693 
L 503.515451 593.515693 
L 503.515451 591.235424 
L 504.039855 591.235424 
L 504.039855 609.477578 
L 504.564258 609.477578 
L 504.564258 598.076232 
L 505.613064 598.076232 
L 505.613064 586.674886 
L 506.137467 586.674886 
L 506.137467 602.63677 
L 506.66187 602.63677 
L 506.66187 611.757847 
L 507.186274 611.757847 
L 507.186274 607.197308 
L 507.710677 607.197308 
L 507.710677 598.076232 
L 508.759483 598.076232 
L 508.759483 600.356501 
L 509.283886 600.356501 
L 509.283886 595.795963 
L 509.80829 595.795963 
L 509.80829 604.917039 
L 510.332693 604.917039 
L 510.332693 598.076232 
L 510.857096 598.076232 
L 510.857096 604.917039 
L 511.381499 604.917039 
L 511.381499 598.076232 
L 511.905902 598.076232 
L 511.905902 609.477578 
L 512.430305 609.477578 
L 512.430305 604.917039 
L 512.954709 604.917039 
L 512.954709 598.076232 
L 513.479112 598.076232 
L 513.479112 620.878923 
L 514.003515 620.878923 
L 514.003515 623.159193 
L 514.527918 623.159193 
L 514.527918 611.757847 
L 515.052321 611.757847 
L 515.052321 614.038116 
L 515.576724 614.038116 
L 515.576724 609.477578 
L 516.101128 609.477578 
L 516.101128 618.598654 
L 517.149934 618.598654 
L 517.149934 602.63677 
L 517.674337 602.63677 
L 517.674337 611.757847 
L 518.19874 611.757847 
L 518.19874 614.038116 
L 518.723144 614.038116 
L 518.723144 620.878923 
L 519.247547 620.878923 
L 519.247547 611.757847 
L 519.77195 611.757847 
L 519.77195 604.917039 
L 520.296353 604.917039 
L 520.296353 611.757847 
L 520.820756 611.757847 
L 520.820756 618.598654 
L 521.345159 618.598654 
L 521.345159 616.318385 
L 522.393966 616.318385 
L 522.393966 607.197308 
L 522.918369 607.197308 
L 522.918369 614.038116 
L 523.442772 614.038116 
L 523.442772 618.598654 
L 523.967175 618.598654 
L 523.967175 611.757847 
L 524.491579 611.757847 
L 524.491579 623.159193 
L 525.015982 623.159193 
L 525.015982 614.038116 
L 526.064788 614.038116 
L 526.064788 625.439462 
L 526.589191 625.439462 
L 526.589191 602.63677 
L 527.113594 602.63677 
L 527.113594 625.439462 
L 527.637998 625.439462 
L 527.637998 611.757847 
L 528.162401 611.757847 
L 528.162401 620.878923 
L 528.686804 620.878923 
L 528.686804 616.318385 
L 529.73561 616.318385 
L 529.73561 614.038116 
L 530.260014 614.038116 
L 530.260014 627.719731 
L 530.784417 627.719731 
L 530.784417 618.598654 
L 531.30882 618.598654 
L 531.30882 630 
L 531.833223 630 
L 531.833223 625.439462 
L 532.357626 625.439462 
L 532.357626 623.159193 
L 532.882029 623.159193 
L 532.882029 616.318385 
L 533.406433 616.318385 
L 533.406433 620.878923 
L 533.930836 620.878923 
L 533.930836 618.598654 
L 534.455239 618.598654 
L 534.455239 623.159193 
L 534.979642 623.159193 
L 534.979642 620.878923 
L 536.552852 620.878923 
L 536.552852 618.598654 
L 537.077255 618.598654 
L 537.077255 620.878923 
L 537.601658 620.878923 
L 537.601658 614.038116 
L 538.126061 614.038116 
L 538.126061 625.439462 
L 538.650464 625.439462 
L 538.650464 623.159193 
L 539.174868 623.159193 
L 539.174868 620.878923 
L 540.223674 620.878923 
L 540.223674 623.159193 
L 540.748077 623.159193 
L 540.748077 618.598654 
L 541.27248 618.598654 
L 541.27248 627.719731 
L 541.796883 627.719731 
L 541.796883 623.159193 
L 542.84569 623.159193 
L 542.84569 620.878923 
L 543.370093 620.878923 
L 543.370093 625.439462 
L 543.894496 625.439462 
L 543.894496 620.878923 
L 544.418899 620.878923 
L 544.418899 627.719731 
L 544.943303 627.719731 
L 544.943303 623.159193 
L 545.467706 623.159193 
L 545.467706 616.318385 
L 545.992109 616.318385 
L 545.992109 623.159193 
L 546.516512 623.159193 
L 546.516512 625.439462 
L 547.040915 625.439462 
L 547.040915 630 
L 547.565318 630 
L 547.565318 620.878923 
L 548.089722 620.878923 
L 548.089722 623.159193 
L 548.614125 623.159193 
L 548.614125 620.878923 
L 549.138528 620.878923 
L 549.138528 625.439462 
L 551.236141 625.439462 
L 551.236141 623.159193 
L 551.760544 623.159193 
L 551.760544 627.719731 
L 552.80935 627.719731 
L 552.80935 625.439462 
L 553.333753 625.439462 
L 553.333753 627.719731 
L 554.38256 627.719731 
L 554.38256 630 
L 554.906963 630 
L 554.906963 627.719731 
L 555.431366 627.719731 
L 555.431366 625.439462 
L 556.480172 625.439462 
L 556.480172 630 
L 557.004576 630 
L 557.004576 625.439462 
L 557.528979 625.439462 
L 557.528979 627.719731 
L 558.053382 627.719731 
L 558.053382 625.439462 
L 558.577785 625.439462 
L 558.577785 630 
L 559.102188 630 
L 559.102188 627.719731 
L 559.626592 627.719731 
L 559.626592 625.439462 
L 560.675398 625.439462 
L 560.675398 627.719731 
L 561.199801 627.719731 
L 561.199801 625.439462 
L 561.724204 625.439462 
L 561.724204 627.719731 
L 562.248607 627.719731 
L 562.248607 623.159193 
L 562.773011 623.159193 
L 562.773011 630 
L 563.821817 630 
L 563.821817 623.159193 
L 564.870623 623.159193 
L 564.870623 625.439462 
L 565.395026 625.439462 
L 565.395026 627.719731 
L 566.968236 627.719731 
L 566.968236 630 
L 567.492639 630 
L 567.492639 623.159193 
L 568.017042 623.159193 
L 568.017042 630 
L 569.065849 630 
L 569.065849 627.719731 
L 569.590252 627.719731 
L 569.590252 630 
L 570.639058 630 
L 570.639058 625.439462 
L 571.163461 625.439462 
L 571.163461 627.719731 
L 573.261074 627.719731 
L 573.261074 630 
L 573.785477 630 
L 573.785477 625.439462 
L 574.309881 625.439462 
L 574.309881 627.719731 
L 577.4563 627.719731 
L 577.4563 630 
L 577.980703 630 
L 577.980703 627.719731 
L 578.505106 627.719731 
L 578.505106 630 
L 579.553912 630 
L 579.553912 627.719731 
L 581.127122 627.719731 
L 581.127122 630 
L 582.700331 630 
L 582.700331 625.439462 
L 583.224735 625.439462 
L 583.224735 630 
L 583.749138 630 
L 583.749138 627.719731 
L 584.797944 627.719731 
L 584.797944 630 
L 585.84675 630 
L 585.84675 627.719731 
L 586.371154 627.719731 
L 586.371154 630 
L 587.944363 630 
L 587.944363 627.719731 
L 588.468766 627.719731 
L 588.468766 630 
L 588.99317 630 
L 588.99317 627.719731 
L 589.517573 627.719731 
L 589.517573 630 
L 590.041976 630 
L 590.041976 627.719731 
L 590.566379 627.719731 
L 590.566379 630 
L 591.090782 630 
L 591.090782 625.439462 
L 591.615185 625.439462 
L 591.615185 630 
L 594.237201 630 
L 594.237201 627.719731 
L 595.286008 627.719731 
L 595.286008 630 
L 595.810411 630 
L 595.810411 627.719731 
L 596.859217 627.719731 
L 596.859217 630 
L 598.432427 630 
L 598.432427 627.719731 
L 598.95683 627.719731 
L 598.95683 630 
L 599.481233 630 
L 599.481233 627.719731 
L 600.005636 627.719731 
L 600.005636 630 
L 601.054443 630 
L 601.054443 623.159193 
L 601.578846 623.159193 
L 601.578846 627.719731 
L 602.627652 627.719731 
L 602.627652 630 
L 606.298474 630 
L 606.298474 627.719731 
L 607.347281 627.719731 
L 607.347281 630 
L 618.884151 630 
L 618.884151 627.719731 
L 619.408554 627.719731 
L 619.408554 630 
L 624.128183 630 
L 624.128183 625.439462 
L 624.652586 625.439462 
L 624.652586 630 
L 627.799005 630 
L 627.799005 627.719731 
L 628.323408 627.719731 
L 628.323408 630 
L 628.323408 630 
" style="fill:none;stroke:#55a868;stroke-linejoin:miter;"/>
   </g>
   <g id="patch_6">
    <path d="M 90 630 
L 90 86.4 
" style="fill:none;stroke:#262626;stroke-linecap:square;stroke-linejoin:miter;stroke-width:1.25;"/>
   </g>
   <g id="patch_7">
    <path d="M 648 630 
L 648 86.4 
" style="fill:none;stroke:#262626;stroke-linecap:square;stroke-linejoin:miter;stroke-width:1.25;"/>
   </g>
   <g id="patch_8">
    <path d="M 90 630 
L 648 630 
" style="fill:none;stroke:#262626;stroke-linecap:square;stroke-linejoin:miter;stroke-width:1.25;"/>
   </g>
   <g id="patch_9">
    <path d="M 90 86.4 
L 648 86.4 
" style="fill:none;stroke:#262626;stroke-linecap:square;stroke-linejoin:miter;stroke-width:1.25;"/>
   </g>
   <g id="legend_1">
    <g id="patch_10">
     <path d="M 464.351562 200.875625 
L 632.6 200.875625 
Q 637 200.875625 637 196.475625 
L 637 101.8 
Q 637 97.4 632.6 97.4 
L 464.351562 97.4 
Q 459.951563 97.4 459.951563 101.8 
L 459.951563 196.475625 
Q 459.951563 200.875625 464.351562 200.875625 
z
" style="fill:#ffffff;opacity:0.8;stroke:#cccccc;stroke-linejoin:miter;"/>
    </g>
    <g id="patch_11">
     <path d="M 468.751563 122.916563 
L 512.751563 122.916563 
L 512.751563 107.516563 
L 468.751563 107.516563 
z
" style="fill:none;stroke:#4c72b0;stroke-linejoin:miter;"/>
    </g>
    <g id="text_16">
     <text style="fill:#262626;font-family:DejaVu Sans;font-size:22px;font-style:normal;font-weight:normal;text-anchor:start;" transform="rotate(-0, 530.351562, 122.916563)" x="530.351562" y="122.916563">scores</text>
    </g>
    <g id="patch_12">
     <path d="M 468.751563 155.208438 
L 512.751563 155.208438 
L 512.751563 139.808438 
L 468.751563 139.808438 
z
" style="fill:none;stroke:#dd8452;stroke-linejoin:miter;"/>
    </g>
    <g id="text_17">
     <text style="fill:#262626;font-family:DejaVu Sans;font-size:22px;font-style:normal;font-weight:normal;text-anchor:start;" transform="rotate(-0, 530.351562, 155.208438)" x="530.351562" y="155.208438">laplace</text>
    </g>
    <g id="patch_13">
     <path d="M 468.751563 187.500313 
L 512.751563 187.500313 
L 512.751563 172.100313 
L 468.751563 172.100313 
z
" style="fill:none;stroke:#55a868;stroke-linejoin:miter;"/>
    </g>
    <g id="text_18">
     <text style="fill:#262626;font-family:DejaVu Sans;font-size:22px;font-style:normal;font-weight:normal;text-anchor:start;" transform="rotate(-0, 530.351562, 187.500313)" x="530.351562" y="187.500313">gaussian</text>
    </g>
   </g>
  </g>
 </g>
 <defs>
  <clipPath id="p529e566701">
   <rect height="543.6" width="558" x="90" y="86.4"/>
  </clipPath>
 </defs>
</svg>
