<?xml version="1.0" encoding="utf-8" standalone="no"?>
<!DOCTYPE svg PUBLIC "-//W3C//DTD SVG 1.1//EN"
  "http://www.w3.org/Graphics/SVG/1.1/DTD/svg11.dtd">
<!-- Created with matplotlib (https://matplotlib.org/) -->
<svg height="576pt" version="1.1" viewBox="0 0 576 576" width="576pt" xmlns="http://www.w3.org/2000/svg" xmlns:xlink="http://www.w3.org/1999/xlink">
 <defs>
  <style type="text/css">
*{stroke-linecap:butt;stroke-linejoin:round;white-space:pre;}
  </style>
 </defs>
 <g id="figure_1">
  <g id="patch_1">
   <path d="M 0 576 
L 576 576 
L 576 0 
L 0 0 
z
" style="fill:#ffffff;"/>
  </g>
  <g id="axes_1">
   <g id="patch_2">
    <path d="M 72 504 
L 518.4 504 
L 518.4 69.12 
L 72 69.12 
z
" style="fill:#ffffff;"/>
   </g>
   <g id="matplotlib.axis_1">
    <g id="xtick_1">
     <g id="text_1">
      <text style="fill:#262626;font-family:DejaVu Sans;font-size:22px;font-style:normal;font-weight:normal;text-anchor:middle;" transform="rotate(-0, 72, 530.216563)" x="72" y="530.216563">−3</text>
     </g>
    </g>
    <g id="xtick_2">
     <g id="text_2">
      <text style="fill:#262626;font-family:DejaVu Sans;font-size:22px;font-style:normal;font-weight:normal;text-anchor:middle;" transform="rotate(-0, 146.4, 530.216563)" x="146.4" y="530.216563">−2</text>
     </g>
    </g>
    <g id="xtick_3">
     <g id="text_3">
      <text style="fill:#262626;font-family:DejaVu Sans;font-size:22px;font-style:normal;font-weight:normal;text-anchor:middle;" transform="rotate(-0, 220.8, 530.216563)" x="220.8" y="530.216563">−1</text>
     </g>
    </g>
    <g id="xtick_4">
     <g id="text_4">
      <text style="fill:#262626;font-family:DejaVu Sans;font-size:22px;font-style:normal;font-weight:normal;text-anchor:middle;" transform="rotate(-0, 295.2, 530.216563)" x="295.2" y="530.216563">0</text>
     </g>
    </g>
    <g id="xtick_5">
     <g id="text_5">
      <text style="fill:#262626;font-family:DejaVu Sans;font-size:22px;font-style:normal;font-weight:normal;text-anchor:middle;" transform="rotate(-0, 369.6, 530.216563)" x="369.6" y="530.216563">1</text>
     </g>
    </g>
    <g id="xtick_6">
     <g id="text_6">
      <text style="fill:#262626;font-family:DejaVu Sans;font-size:22px;font-style:normal;font-weight:normal;text-anchor:middle;" transform="rotate(-0, 444, 530.216563)" x="444" y="530.216563">2</text>
     </g>
    </g>
    <g id="xtick_7">
     <g id="text_7">
      <text style="fill:#262626;font-family:DejaVu Sans;font-size:22px;font-style:normal;font-weight:normal;text-anchor:middle;" transform="rotate(-0, 518.4, 530.216563)" x="518.4" y="530.216563">3</text>
     </g>
    </g>
    <g id="text_8">
     <text style="fill:#262626;font-family:DejaVu Sans;font-size:24px;font-style:normal;font-weight:normal;text-anchor:middle;" transform="rotate(-0, 295.2, 557.028125)" x="295.2" y="557.028125">Z-score normalized effect (ref/alt)</text>
    </g>
   </g>
   <g id="matplotlib.axis_2">
    <g id="ytick_1">
     <g id="text_9">
      <text style="fill:#262626;font-family:DejaVu Sans;font-size:22px;font-style:normal;font-weight:normal;text-anchor:end;" transform="rotate(-0, 62.5, 512.358281)" x="62.5" y="512.358281">0.0</text>
     </g>
    </g>
    <g id="ytick_2">
     <g id="text_10">
      <text style="fill:#262626;font-family:DejaVu Sans;font-size:22px;font-style:normal;font-weight:normal;text-anchor:end;" transform="rotate(-0, 62.5, 449.691378)" x="62.5" y="449.691378">0.2</text>
     </g>
    </g>
    <g id="ytick_3">
     <g id="text_11">
      <text style="fill:#262626;font-family:DejaVu Sans;font-size:22px;font-style:normal;font-weight:normal;text-anchor:end;" transform="rotate(-0, 62.5, 387.024475)" x="62.5" y="387.024475">0.4</text>
     </g>
    </g>
    <g id="ytick_4">
     <g id="text_12">
      <text style="fill:#262626;font-family:DejaVu Sans;font-size:22px;font-style:normal;font-weight:normal;text-anchor:end;" transform="rotate(-0, 62.5, 324.357572)" x="62.5" y="324.357572">0.6</text>
     </g>
    </g>
    <g id="ytick_5">
     <g id="text_13">
      <text style="fill:#262626;font-family:DejaVu Sans;font-size:22px;font-style:normal;font-weight:normal;text-anchor:end;" transform="rotate(-0, 62.5, 261.690668)" x="62.5" y="261.690668">0.8</text>
     </g>
    </g>
    <g id="ytick_6">
     <g id="text_14">
      <text style="fill:#262626;font-family:DejaVu Sans;font-size:22px;font-style:normal;font-weight:normal;text-anchor:end;" transform="rotate(-0, 62.5, 199.023765)" x="62.5" y="199.023765">1.0</text>
     </g>
    </g>
    <g id="ytick_7">
     <g id="text_15">
      <text style="fill:#262626;font-family:DejaVu Sans;font-size:22px;font-style:normal;font-weight:normal;text-anchor:end;" transform="rotate(-0, 62.5, 136.356862)" x="62.5" y="136.356862">1.2</text>
     </g>
    </g>
   </g>
   <g id="patch_3">
    <path clip-path="url(#p6d5c61137b)" d="M -1 503.425342 
L -0.543708 503.425342 
L -0.543708 504 
L 0.965196 504 
L 0.965196 502.850683 
L 2.474099 502.850683 
L 2.474099 504 
L 5.491906 504 
L 5.491906 502.276025 
L 7.000809 502.276025 
L 7.000809 502.850683 
L 8.509713 502.850683 
L 8.509713 504 
L 10.018616 504 
L 10.018616 503.425342 
L 11.527519 503.425342 
L 11.527519 502.850683 
L 16.054229 502.850683 
L 16.054229 503.425342 
L 17.563133 503.425342 
L 17.563133 502.276025 
L 19.072036 502.276025 
L 19.072036 504 
L 20.580939 504 
L 20.580939 502.850683 
L 22.089843 502.850683 
L 22.089843 503.425342 
L 23.598746 503.425342 
L 23.598746 501.126708 
L 25.10765 501.126708 
L 25.10765 502.276025 
L 26.616553 502.276025 
L 26.616553 503.425342 
L 28.125456 503.425342 
L 28.125456 502.276025 
L 29.63436 502.276025 
L 29.63436 504 
L 31.143263 504 
L 31.143263 502.276025 
L 34.16107 502.276025 
L 34.16107 504 
L 35.669973 504 
L 35.669973 503.425342 
L 37.178877 503.425342 
L 37.178877 502.850683 
L 44.723393 502.850683 
L 44.723393 503.425342 
L 46.232297 503.425342 
L 46.232297 501.701367 
L 47.7412 501.701367 
L 47.7412 501.126708 
L 49.250104 501.126708 
L 49.250104 503.425342 
L 50.759007 503.425342 
L 50.759007 502.850683 
L 52.26791 502.850683 
L 52.26791 503.425342 
L 53.776814 503.425342 
L 53.776814 502.850683 
L 55.285717 502.850683 
L 55.285717 504 
L 56.79462 504 
L 56.79462 503.425342 
L 58.303524 503.425342 
L 58.303524 502.850683 
L 59.812427 502.850683 
L 59.812427 500.55205 
L 61.32133 500.55205 
L 61.32133 502.850683 
L 62.830234 502.850683 
L 62.830234 500.55205 
L 64.339137 500.55205 
L 64.339137 501.126708 
L 65.848041 501.126708 
L 65.848041 501.701367 
L 67.356944 501.701367 
L 67.356944 502.850683 
L 70.374751 502.850683 
L 70.374751 502.276025 
L 71.883654 502.276025 
L 71.883654 503.425342 
L 73.392557 503.425342 
L 73.392557 502.850683 
L 74.901461 502.850683 
L 74.901461 499.402733 
L 76.410364 499.402733 
L 76.410364 502.850683 
L 77.919268 502.850683 
L 77.919268 504 
L 79.428171 504 
L 79.428171 501.701367 
L 80.937074 501.701367 
L 80.937074 499.977392 
L 82.445978 499.977392 
L 82.445978 498.828075 
L 83.954881 498.828075 
L 83.954881 501.701367 
L 85.463784 501.701367 
L 85.463784 501.126708 
L 89.990494 501.126708 
L 89.990494 502.850683 
L 91.499398 502.850683 
L 91.499398 501.701367 
L 94.517205 501.701367 
L 94.517205 500.55205 
L 96.026108 500.55205 
L 96.026108 501.126708 
L 97.535011 501.126708 
L 97.535011 499.977392 
L 99.043915 499.977392 
L 99.043915 499.402733 
L 100.552818 499.402733 
L 100.552818 501.126708 
L 105.079528 501.126708 
L 105.079528 501.701367 
L 106.588432 501.701367 
L 106.588432 501.126708 
L 111.115142 501.126708 
L 111.115142 502.276025 
L 112.624045 502.276025 
L 112.624045 500.55205 
L 114.132948 500.55205 
L 114.132948 501.126708 
L 117.150755 501.126708 
L 117.150755 498.828075 
L 118.659658 498.828075 
L 118.659658 502.276025 
L 120.168562 502.276025 
L 120.168562 501.126708 
L 121.677465 501.126708 
L 121.677465 499.402733 
L 123.186369 499.402733 
L 123.186369 497.678758 
L 124.695272 497.678758 
L 124.695272 501.126708 
L 126.204175 501.126708 
L 126.204175 498.828075 
L 127.713079 498.828075 
L 127.713079 501.126708 
L 129.221982 501.126708 
L 129.221982 494.230808 
L 130.730885 494.230808 
L 130.730885 501.701367 
L 132.239789 501.701367 
L 132.239789 495.380125 
L 133.748692 495.380125 
L 133.748692 497.678758 
L 136.766499 497.678758 
L 136.766499 501.126708 
L 138.275402 501.126708 
L 138.275402 496.529442 
L 139.784306 496.529442 
L 139.784306 495.380125 
L 141.293209 495.380125 
L 141.293209 499.402733 
L 142.802112 499.402733 
L 142.802112 497.678758 
L 144.311016 497.678758 
L 144.311016 494.805467 
L 145.819919 494.805467 
L 145.819919 499.977392 
L 147.328822 499.977392 
L 147.328822 497.678758 
L 148.837726 497.678758 
L 148.837726 496.529442 
L 150.346629 496.529442 
L 150.346629 494.805467 
L 151.855533 494.805467 
L 151.855533 501.701367 
L 153.364436 501.701367 
L 153.364436 495.380125 
L 154.873339 495.380125 
L 154.873339 495.954783 
L 156.382243 495.954783 
L 156.382243 495.380125 
L 157.891146 495.380125 
L 157.891146 495.954783 
L 159.400049 495.954783 
L 159.400049 496.529442 
L 160.908953 496.529442 
L 160.908953 491.932175 
L 162.417856 491.932175 
L 162.417856 492.506833 
L 163.92676 492.506833 
L 163.92676 494.805467 
L 165.435663 494.805467 
L 165.435663 494.230808 
L 168.45347 494.230808 
L 168.45347 491.932175 
L 169.962373 491.932175 
L 169.962373 494.230808 
L 171.471276 494.230808 
L 171.471276 492.506833 
L 172.98018 492.506833 
L 172.98018 490.2082 
L 174.489083 490.2082 
L 174.489083 483.886959 
L 175.997986 483.886959 
L 175.997986 489.633542 
L 177.50689 489.633542 
L 177.50689 486.76025 
L 180.524697 486.76025 
L 180.524697 491.357517 
L 182.0336 491.357517 
L 182.0336 488.484225 
L 183.542503 488.484225 
L 183.542503 486.76025 
L 186.56031 486.76025 
L 186.56031 487.334908 
L 188.069213 487.334908 
L 188.069213 488.484225 
L 189.578117 488.484225 
L 189.578117 481.588325 
L 191.08702 481.588325 
L 191.08702 487.909567 
L 192.595924 487.909567 
L 192.595924 482.737642 
L 194.104827 482.737642 
L 194.104827 484.461617 
L 195.61373 484.461617 
L 195.61373 483.886959 
L 197.122634 483.886959 
L 197.122634 483.3123 
L 198.631537 483.3123 
L 198.631537 474.117767 
L 200.14044 474.117767 
L 200.14044 480.439009 
L 201.649344 480.439009 
L 201.649344 479.289692 
L 203.158247 479.289692 
L 203.158247 480.439009 
L 204.66715 480.439009 
L 204.66715 470.095159 
L 206.176054 470.095159 
L 206.176054 480.439009 
L 207.684957 480.439009 
L 207.684957 475.841742 
L 209.193861 475.841742 
L 209.193861 471.244475 
L 210.702764 471.244475 
L 210.702764 470.669817 
L 215.229474 470.669817 
L 215.229474 463.773917 
L 216.738377 463.773917 
L 216.738377 471.819134 
L 218.247281 471.819134 
L 218.247281 475.267084 
L 219.756184 475.267084 
L 219.756184 466.647209 
L 221.265088 466.647209 
L 221.265088 452.855409 
L 222.773991 452.855409 
L 222.773991 458.027334 
L 224.282894 458.027334 
L 224.282894 460.900625 
L 225.791798 460.900625 
L 225.791798 458.027334 
L 227.300701 458.027334 
L 227.300701 455.154042 
L 228.809604 455.154042 
L 228.809604 456.878017 
L 230.318508 456.878017 
L 230.318508 452.28075 
L 231.827411 452.28075 
L 231.827411 456.878017 
L 233.336314 456.878017 
L 233.336314 454.004725 
L 234.845218 454.004725 
L 234.845218 450.556775 
L 236.354121 450.556775 
L 236.354121 449.982117 
L 237.863025 449.982117 
L 237.863025 443.086217 
L 239.371928 443.086217 
L 239.371928 440.787584 
L 240.880831 440.787584 
L 240.880831 436.190317 
L 242.389735 436.190317 
L 242.389735 426.421126 
L 243.898638 426.421126 
L 243.898638 426.995784 
L 245.407541 426.995784 
L 245.407541 437.914292 
L 246.916445 437.914292 
L 246.916445 431.018392 
L 248.425348 431.018392 
L 248.425348 429.869076 
L 249.934252 429.869076 
L 249.934252 428.145101 
L 251.443155 428.145101 
L 251.443155 422.973176 
L 252.952058 422.973176 
L 252.952058 420.099884 
L 254.460962 420.099884 
L 254.460962 408.606718 
L 255.969865 408.606718 
L 255.969865 399.986843 
L 257.478768 399.986843 
L 257.478768 410.905351 
L 258.987672 410.905351 
L 258.987672 395.964234 
L 260.496575 395.964234 
L 260.496575 389.068334 
L 262.005478 389.068334 
L 262.005478 383.896409 
L 263.514382 383.896409 
L 263.514382 381.023118 
L 265.023285 381.023118 
L 265.023285 370.10461 
L 266.532189 370.10461 
L 266.532189 372.403243 
L 268.041092 372.403243 
L 268.041092 368.955293 
L 269.549995 368.955293 
L 269.549995 350.566226 
L 271.058899 350.566226 
L 271.058899 361.484735 
L 272.567802 361.484735 
L 272.567802 347.692935 
L 274.076705 347.692935 
L 274.076705 332.751818 
L 275.585609 332.751818 
L 275.585609 326.430577 
L 278.603416 326.430577 
L 278.603416 332.751818 
L 280.112319 332.751818 
L 280.112319 308.616168 
L 281.621222 308.616168 
L 281.621222 297.69766 
L 283.130126 297.69766 
L 283.130126 292.525735 
L 284.639029 292.525735 
L 284.639029 288.503127 
L 286.147932 288.503127 
L 286.147932 258.620894 
L 287.656836 258.620894 
L 287.656836 229.887977 
L 289.165739 229.887977 
L 289.165739 259.770211 
L 290.674642 259.770211 
L 290.674642 253.448969 
L 292.183546 253.448969 
L 292.183546 228.164003 
L 293.692449 228.164003 
L 293.692449 174.720778 
L 295.201353 174.720778 
L 295.201353 158.630345 
L 296.710256 158.630345 
L 296.710256 198.281769 
L 298.219159 198.281769 
L 298.219159 215.521519 
L 299.728063 215.521519 
L 299.728063 245.403752 
L 301.236966 245.403752 
L 301.236966 241.955802 
L 302.745869 241.955802 
L 302.745869 267.240769 
L 304.254773 267.240769 
L 304.254773 270.11406 
L 305.763676 270.11406 
L 305.763676 275.860644 
L 307.27258 275.860644 
L 307.27258 298.272319 
L 308.781483 298.272319 
L 308.781483 292.525735 
L 310.290386 292.525735 
L 310.290386 299.996294 
L 311.79929 299.996294 
L 311.79929 319.534677 
L 313.308193 319.534677 
L 313.308193 306.892193 
L 314.817096 306.892193 
L 314.817096 336.774427 
L 316.326 336.774427 
L 316.326 360.910076 
L 317.834903 360.910076 
L 317.834903 345.96896 
L 319.343806 345.96896 
L 319.343806 352.86486 
L 320.85271 352.86486 
L 320.85271 372.977901 
L 322.361613 372.977901 
L 322.361613 358.036785 
L 323.870517 358.036785 
L 323.870517 381.023118 
L 325.37942 381.023118 
L 325.37942 374.127218 
L 326.888323 374.127218 
L 326.888323 370.679268 
L 328.397227 370.679268 
L 328.397227 396.538893 
L 329.90613 396.538893 
L 329.90613 389.642993 
L 331.415033 389.642993 
L 331.415033 386.195043 
L 332.923937 386.195043 
L 332.923937 404.009451 
L 334.43284 404.009451 
L 334.43284 399.986843 
L 335.941744 399.986843 
L 335.941744 409.181376 
L 337.450647 409.181376 
L 337.450647 413.203984 
L 338.95955 413.203984 
L 338.95955 410.905351 
L 340.468454 410.905351 
L 340.468454 420.674542 
L 341.977357 420.674542 
L 341.977357 415.502617 
L 343.48626 415.502617 
L 343.48626 412.054668 
L 344.995164 412.054668 
L 344.995164 422.398517 
L 346.504067 422.398517 
L 346.504067 428.145101 
L 348.01297 428.145101 
L 348.01297 426.421126 
L 349.521874 426.421126 
L 349.521874 424.122492 
L 351.030777 424.122492 
L 351.030777 432.167709 
L 352.539681 432.167709 
L 352.539681 441.362242 
L 354.048584 441.362242 
L 354.048584 430.443734 
L 355.557487 430.443734 
L 355.557487 436.190317 
L 357.066391 436.190317 
L 357.066391 443.660876 
L 358.575294 443.660876 
L 358.575294 447.108826 
L 360.084197 447.108826 
L 360.084197 451.706092 
L 361.593101 451.706092 
L 361.593101 466.07255 
L 363.102004 466.07255 
L 363.102004 451.131434 
L 364.610908 451.131434 
L 364.610908 462.049942 
L 366.119811 462.049942 
L 366.119811 456.878017 
L 367.628714 456.878017 
L 367.628714 446.534167 
L 369.137618 446.534167 
L 369.137618 465.497892 
L 372.155424 465.497892 
L 372.155424 457.452675 
L 373.664328 457.452675 
L 373.664328 468.945842 
L 375.173231 468.945842 
L 375.173231 471.244475 
L 376.682134 471.244475 
L 376.682134 462.6246 
L 378.191038 462.6246 
L 378.191038 458.027334 
L 379.699941 458.027334 
L 379.699941 460.325967 
L 381.208845 460.325967 
L 381.208845 469.5205 
L 382.717748 469.5205 
L 382.717748 462.6246 
L 384.226651 462.6246 
L 384.226651 470.095159 
L 385.735555 470.095159 
L 385.735555 470.669817 
L 387.244458 470.669817 
L 387.244458 477.565717 
L 388.753361 477.565717 
L 388.753361 478.140375 
L 390.262265 478.140375 
L 390.262265 474.692425 
L 391.771168 474.692425 
L 391.771168 470.669817 
L 393.280072 470.669817 
L 393.280072 473.543109 
L 394.788975 473.543109 
L 394.788975 476.4164 
L 396.297878 476.4164 
L 396.297878 479.86435 
L 397.806782 479.86435 
L 397.806782 481.588325 
L 399.315685 481.588325 
L 399.315685 481.013667 
L 400.824588 481.013667 
L 400.824588 482.737642 
L 402.333492 482.737642 
L 402.333492 484.461617 
L 403.842395 484.461617 
L 403.842395 481.588325 
L 405.351298 481.588325 
L 405.351298 484.461617 
L 406.860202 484.461617 
L 406.860202 482.737642 
L 408.369105 482.737642 
L 408.369105 481.588325 
L 409.878009 481.588325 
L 409.878009 488.484225 
L 411.386912 488.484225 
L 411.386912 484.461617 
L 412.895815 484.461617 
L 412.895815 488.484225 
L 414.404719 488.484225 
L 414.404719 486.76025 
L 415.913622 486.76025 
L 415.913622 486.185592 
L 417.422525 486.185592 
L 417.422525 487.909567 
L 418.931429 487.909567 
L 418.931429 490.782858 
L 420.440332 490.782858 
L 420.440332 488.484225 
L 423.458139 488.484225 
L 423.458139 491.932175 
L 424.967042 491.932175 
L 424.967042 492.506833 
L 426.475946 492.506833 
L 426.475946 490.782858 
L 427.984849 490.782858 
L 427.984849 492.506833 
L 429.493752 492.506833 
L 429.493752 490.2082 
L 431.002656 490.2082 
L 431.002656 487.334908 
L 432.511559 487.334908 
L 432.511559 495.954783 
L 434.020462 495.954783 
L 434.020462 496.529442 
L 435.529366 496.529442 
L 435.529366 490.782858 
L 437.038269 490.782858 
L 437.038269 491.932175 
L 438.547173 491.932175 
L 438.547173 490.782858 
L 441.564979 490.782858 
L 441.564979 493.081492 
L 443.073883 493.081492 
L 443.073883 497.678758 
L 444.582786 497.678758 
L 444.582786 493.081492 
L 446.091689 493.081492 
L 446.091689 489.633542 
L 447.600593 489.633542 
L 447.600593 497.678758 
L 449.109496 497.678758 
L 449.109496 491.357517 
L 450.6184 491.357517 
L 450.6184 492.506833 
L 452.127303 492.506833 
L 452.127303 495.954783 
L 453.636206 495.954783 
L 453.636206 497.678758 
L 455.14511 497.678758 
L 455.14511 498.828075 
L 456.654013 498.828075 
L 456.654013 495.380125 
L 458.162916 495.380125 
L 458.162916 498.828075 
L 459.67182 498.828075 
L 459.67182 493.65615 
L 461.180723 493.65615 
L 461.180723 498.828075 
L 462.689627 498.828075 
L 462.689627 495.954783 
L 465.707433 495.954783 
L 465.707433 493.081492 
L 467.216337 493.081492 
L 467.216337 495.954783 
L 468.72524 495.954783 
L 468.72524 498.828075 
L 470.234143 498.828075 
L 470.234143 495.954783 
L 473.25195 495.954783 
L 473.25195 498.828075 
L 474.760853 498.828075 
L 474.760853 494.805467 
L 476.269757 494.805467 
L 476.269757 499.402733 
L 477.77866 499.402733 
L 477.77866 497.678758 
L 479.287564 497.678758 
L 479.287564 497.1041 
L 482.30537 497.1041 
L 482.30537 498.828075 
L 483.814274 498.828075 
L 483.814274 498.253417 
L 485.323177 498.253417 
L 485.323177 500.55205 
L 486.83208 500.55205 
L 486.83208 498.253417 
L 488.340984 498.253417 
L 488.340984 499.977392 
L 489.849887 499.977392 
L 489.849887 497.1041 
L 491.358791 497.1041 
L 491.358791 500.55205 
L 492.867694 500.55205 
L 492.867694 499.402733 
L 494.376597 499.402733 
L 494.376597 499.977392 
L 495.885501 499.977392 
L 495.885501 499.402733 
L 498.903307 499.402733 
L 498.903307 501.126708 
L 500.412211 501.126708 
L 500.412211 499.977392 
L 501.921114 499.977392 
L 501.921114 500.55205 
L 503.430017 500.55205 
L 503.430017 499.977392 
L 504.938921 499.977392 
L 504.938921 497.678758 
L 506.447824 497.678758 
L 506.447824 499.977392 
L 509.465631 499.977392 
L 509.465631 499.402733 
L 510.974534 499.402733 
L 510.974534 501.701367 
L 513.992341 501.701367 
L 513.992341 500.55205 
L 515.501244 500.55205 
L 515.501244 499.977392 
L 517.010148 499.977392 
L 517.010148 501.701367 
L 518.519051 501.701367 
L 518.519051 503.425342 
L 520.027955 503.425342 
L 520.027955 500.55205 
L 521.536858 500.55205 
L 521.536858 501.126708 
L 523.045761 501.126708 
L 523.045761 501.701367 
L 524.554665 501.701367 
L 524.554665 502.276025 
L 527.572471 502.276025 
L 527.572471 501.126708 
L 529.081375 501.126708 
L 529.081375 501.701367 
L 532.099181 501.701367 
L 532.099181 502.276025 
L 533.608085 502.276025 
L 533.608085 501.126708 
L 535.116988 501.126708 
L 535.116988 502.850683 
L 536.625892 502.850683 
L 536.625892 501.701367 
L 538.134795 501.701367 
L 538.134795 501.126708 
L 542.661505 501.126708 
L 542.661505 501.701367 
L 545.679312 501.701367 
L 545.679312 502.276025 
L 547.188215 502.276025 
L 547.188215 501.126708 
L 548.697119 501.126708 
L 548.697119 501.701367 
L 551.714925 501.701367 
L 551.714925 502.850683 
L 553.223829 502.850683 
L 553.223829 503.425342 
L 554.732732 503.425342 
L 554.732732 501.126708 
L 556.241635 501.126708 
L 556.241635 502.850683 
L 557.750539 502.850683 
L 557.750539 503.425342 
L 559.259442 503.425342 
L 559.259442 504 
L 560.768345 504 
L 560.768345 501.701367 
L 562.277249 501.701367 
L 562.277249 503.425342 
L 563.786152 503.425342 
L 563.786152 502.276025 
L 566.803959 502.276025 
L 566.803959 503.425342 
L 568.312862 503.425342 
L 568.312862 501.126708 
L 569.821766 501.126708 
L 569.821766 502.850683 
L 571.330669 502.850683 
L 571.330669 502.276025 
L 574.348476 502.276025 
L 574.348476 501.126708 
L 575.857379 501.126708 
L 575.857379 503.425342 
L 577 503.425342 
L 577 503.425342 
" style="fill:none;stroke:#1f77b4;stroke-linejoin:miter;stroke-width:2;"/>
   </g>
   <g id="patch_4">
    <path clip-path="url(#p6d5c61137b)" d="M -1 503.685718 
L 0.455292 503.685718 
L 0.455292 501.800023 
L 3.214288 501.800023 
L 3.214288 503.685718 
L 5.973284 503.685718 
L 5.973284 503.371435 
L 11.491276 503.371435 
L 11.491276 502.74287 
L 14.250273 502.74287 
L 14.250273 503.371435 
L 17.009269 503.371435 
L 17.009269 504 
L 19.768265 504 
L 19.768265 502.74287 
L 25.286257 502.74287 
L 25.286257 503.685718 
L 28.045253 503.685718 
L 28.045253 502.114306 
L 30.804249 502.114306 
L 30.804249 503.057153 
L 33.563245 503.057153 
L 33.563245 502.74287 
L 36.322242 502.74287 
L 36.322242 503.371435 
L 39.081238 503.371435 
L 39.081238 502.114306 
L 41.840234 502.114306 
L 41.840234 501.171459 
L 44.59923 501.171459 
L 44.59923 503.057153 
L 47.358226 503.057153 
L 47.358226 502.428588 
L 50.117222 502.428588 
L 50.117222 503.371435 
L 55.635214 503.371435 
L 55.635214 503.057153 
L 58.394211 503.057153 
L 58.394211 502.74287 
L 61.153207 502.74287 
L 61.153207 501.800023 
L 63.912203 501.800023 
L 63.912203 502.114306 
L 69.430195 502.114306 
L 69.430195 502.74287 
L 72.189191 502.74287 
L 72.189191 500.228611 
L 74.948187 500.228611 
L 74.948187 502.74287 
L 77.707184 502.74287 
L 77.707184 502.114306 
L 80.46618 502.114306 
L 80.46618 502.428588 
L 83.225176 502.428588 
L 83.225176 502.114306 
L 85.984172 502.114306 
L 85.984172 501.800023 
L 88.743168 501.800023 
L 88.743168 500.228611 
L 91.502164 500.228611 
L 91.502164 502.114306 
L 97.020156 502.114306 
L 97.020156 500.542894 
L 99.779153 500.542894 
L 99.779153 501.800023 
L 102.538149 501.800023 
L 102.538149 502.428588 
L 105.297145 502.428588 
L 105.297145 500.542894 
L 108.056141 500.542894 
L 108.056141 500.857176 
L 110.815137 500.857176 
L 110.815137 499.914329 
L 113.574133 499.914329 
L 113.574133 502.114306 
L 116.333129 502.114306 
L 116.333129 500.542894 
L 119.092126 500.542894 
L 119.092126 502.74287 
L 121.851122 502.74287 
L 121.851122 499.600047 
L 127.369114 499.600047 
L 127.369114 501.171459 
L 130.12811 501.171459 
L 130.12811 500.542894 
L 132.887106 500.542894 
L 132.887106 500.857176 
L 135.646102 500.857176 
L 135.646102 500.228611 
L 138.405098 500.228611 
L 138.405098 499.285764 
L 143.923091 499.285764 
L 143.923091 498.971482 
L 146.682087 498.971482 
L 146.682087 497.714352 
L 149.441083 497.714352 
L 149.441083 500.542894 
L 152.200079 500.542894 
L 152.200079 497.085788 
L 154.959075 497.085788 
L 154.959075 498.971482 
L 157.718071 498.971482 
L 157.718071 499.285764 
L 160.477068 499.285764 
L 160.477068 495.514376 
L 163.236064 495.514376 
L 163.236064 495.828658 
L 165.99506 495.828658 
L 165.99506 493.942964 
L 168.754056 493.942964 
L 168.754056 494.571528 
L 171.513052 494.571528 
L 171.513052 494.885811 
L 174.272048 494.885811 
L 174.272048 494.571528 
L 177.031044 494.571528 
L 177.031044 491.742987 
L 179.79004 491.742987 
L 179.79004 492.057269 
L 182.549037 492.057269 
L 182.549037 495.200093 
L 185.308033 495.200093 
L 185.308033 493.000116 
L 188.067029 493.000116 
L 188.067029 492.371552 
L 190.826025 492.371552 
L 190.826025 490.171575 
L 193.585021 490.171575 
L 193.585021 491.114422 
L 196.344017 491.114422 
L 196.344017 488.285881 
L 199.103013 488.285881 
L 199.103013 488.600163 
L 201.862009 488.600163 
L 201.862009 482.314515 
L 204.621006 482.314515 
L 204.621006 489.228728 
L 207.380002 489.228728 
L 207.380002 483.885927 
L 210.138998 483.885927 
L 210.138998 485.143057 
L 212.897994 485.143057 
L 212.897994 483.885927 
L 215.65699 483.885927 
L 215.65699 474.143173 
L 218.415986 474.143173 
L 218.415986 479.171692 
L 221.174982 479.171692 
L 221.174982 475.400303 
L 223.933979 475.400303 
L 223.933979 473.200326 
L 226.692975 473.200326 
L 226.692975 468.48609 
L 229.451971 468.48609 
L 229.451971 474.143173 
L 232.210967 474.143173 
L 232.210967 465.028984 
L 234.969963 465.028984 
L 234.969963 459.686184 
L 237.728959 459.686184 
L 237.728959 457.800489 
L 240.487955 457.800489 
L 240.487955 454.029101 
L 243.246951 454.029101 
L 243.246951 448.6863 
L 246.005948 448.6863 
L 246.005948 447.114888 
L 248.764944 447.114888 
L 248.764944 445.543476 
L 251.52394 445.543476 
L 251.52394 434.22931 
L 254.282936 434.22931 
L 254.282936 426.372251 
L 257.041932 426.372251 
L 257.041932 424.172274 
L 259.800928 424.172274 
L 259.800928 406.886743 
L 262.559924 406.886743 
L 262.559924 396.515424 
L 265.318921 396.515424 
L 265.318921 390.544059 
L 268.077917 390.544059 
L 268.077917 367.915727 
L 270.836913 367.915727 
L 270.836913 363.515773 
L 273.595909 363.515773 
L 273.595909 336.801771 
L 276.354905 336.801771 
L 276.354905 319.201957 
L 279.113901 319.201957 
L 279.113901 285.888024 
L 281.872897 285.888024 
L 281.872897 263.888257 
L 284.631893 263.888257 
L 284.631893 235.28856 
L 287.39089 235.28856 
L 287.39089 177.774883 
L 290.149886 177.774883 
L 290.149886 143.518103 
L 292.908882 143.518103 
L 292.908882 107.061347 
L 295.667878 107.061347 
L 295.667878 117.432665 
L 298.426874 117.432665 
L 298.426874 138.803868 
L 301.18587 138.803868 
L 301.18587 179.346295 
L 303.944866 179.346295 
L 303.944866 221.460135 
L 306.703862 221.460135 
L 306.703862 245.345596 
L 309.462859 245.345596 
L 309.462859 267.973928 
L 312.221855 267.973928 
L 312.221855 299.087884 
L 314.980851 299.087884 
L 314.980851 317.944828 
L 317.739847 317.944828 
L 317.739847 339.31603 
L 320.498843 339.31603 
L 320.498843 362.258644 
L 323.257839 362.258644 
L 323.257839 374.829939 
L 326.016835 374.829939 
L 326.016835 391.486906 
L 328.775832 391.486906 
L 328.775832 388.344082 
L 331.534828 388.344082 
L 331.534828 401.858225 
L 334.293824 401.858225 
L 334.293824 412.229543 
L 337.05282 412.229543 
L 337.05282 420.086603 
L 339.811816 420.086603 
L 339.811816 426.057968 
L 342.570812 426.057968 
L 342.570812 428.572227 
L 345.329808 428.572227 
L 345.329808 433.915028 
L 348.088804 433.915028 
L 348.088804 438.314981 
L 350.847801 438.314981 
L 350.847801 444.600629 
L 353.606797 444.600629 
L 353.606797 452.771971 
L 356.365793 452.771971 
L 356.365793 460.000466 
L 359.124789 460.000466 
L 359.124789 461.88616 
L 361.883785 461.88616 
L 361.883785 459.057619 
L 364.642781 459.057619 
L 364.642781 465.971831 
L 367.401777 465.971831 
L 367.401777 461.88616 
L 370.160774 461.88616 
L 370.160774 470.057502 
L 372.91977 470.057502 
L 372.91977 472.257479 
L 375.678766 472.257479 
L 375.678766 473.514609 
L 378.437762 473.514609 
L 378.437762 477.285997 
L 381.196758 477.285997 
L 381.196758 475.400303 
L 383.955754 475.400303 
L 383.955754 473.200326 
L 386.71475 473.200326 
L 386.71475 477.914562 
L 389.473746 477.914562 
L 389.473746 478.228844 
L 392.232743 478.228844 
L 392.232743 479.485974 
L 394.991739 479.485974 
L 394.991739 489.54301 
L 397.750735 489.54301 
L 397.750735 485.771622 
L 400.509731 485.771622 
L 400.509731 485.457339 
L 403.268727 485.457339 
L 403.268727 489.54301 
L 406.027723 489.54301 
L 406.027723 487.028751 
L 408.786719 487.028751 
L 408.786719 489.54301 
L 411.545716 489.54301 
L 411.545716 491.742987 
L 414.304712 491.742987 
L 414.304712 492.685834 
L 417.063708 492.685834 
L 417.063708 491.114422 
L 419.822704 491.114422 
L 419.822704 490.485857 
L 422.5817 490.485857 
L 422.5817 494.885811 
L 425.340696 494.885811 
L 425.340696 494.257246 
L 428.099692 494.257246 
L 428.099692 492.685834 
L 430.858688 492.685834 
L 430.858688 493.314399 
L 433.617685 493.314399 
L 433.617685 495.514376 
L 436.376681 495.514376 
L 436.376681 497.085788 
L 439.135677 497.085788 
L 439.135677 495.828658 
L 444.653669 495.828658 
L 444.653669 494.885811 
L 447.412665 494.885811 
L 447.412665 499.914329 
L 450.171661 499.914329 
L 450.171661 494.885811 
L 452.930657 494.885811 
L 452.930657 496.14294 
L 455.689654 496.14294 
L 455.689654 497.714352 
L 458.44865 497.714352 
L 458.44865 497.40007 
L 461.207646 497.40007 
L 461.207646 500.228611 
L 463.966642 500.228611 
L 463.966642 495.514376 
L 466.725638 495.514376 
L 466.725638 496.457223 
L 469.484634 496.457223 
L 469.484634 499.914329 
L 472.24363 499.914329 
L 472.24363 498.028635 
L 475.002627 498.028635 
L 475.002627 500.228611 
L 477.761623 500.228611 
L 477.761623 500.542894 
L 480.520619 500.542894 
L 480.520619 498.657199 
L 483.279615 498.657199 
L 483.279615 501.171459 
L 486.038611 501.171459 
L 486.038611 501.485741 
L 488.797607 501.485741 
L 488.797607 500.228611 
L 491.556603 500.228611 
L 491.556603 500.857176 
L 494.315599 500.857176 
L 494.315599 500.542894 
L 497.074596 500.542894 
L 497.074596 499.600047 
L 499.833592 499.600047 
L 499.833592 500.857176 
L 505.351584 500.857176 
L 505.351584 499.914329 
L 508.11058 499.914329 
L 508.11058 501.800023 
L 510.869576 501.800023 
L 510.869576 500.542894 
L 513.628572 500.542894 
L 513.628572 500.857176 
L 516.387569 500.857176 
L 516.387569 499.285764 
L 519.146565 499.285764 
L 519.146565 502.428588 
L 521.905561 502.428588 
L 521.905561 503.057153 
L 524.664557 503.057153 
L 524.664557 502.428588 
L 527.423553 502.428588 
L 527.423553 501.171459 
L 530.182549 501.171459 
L 530.182549 501.800023 
L 532.941545 501.800023 
L 532.941545 503.057153 
L 538.459538 503.057153 
L 538.459538 501.171459 
L 541.218534 501.171459 
L 541.218534 501.485741 
L 543.97753 501.485741 
L 543.97753 502.74287 
L 546.736526 502.74287 
L 546.736526 503.057153 
L 549.495522 503.057153 
L 549.495522 500.542894 
L 552.254518 500.542894 
L 552.254518 503.371435 
L 555.013514 503.371435 
L 555.013514 503.057153 
L 557.77251 503.057153 
L 557.77251 502.428588 
L 560.531507 502.428588 
L 560.531507 504 
L 563.290503 504 
L 563.290503 503.371435 
L 566.049499 503.371435 
L 566.049499 500.857176 
L 568.808495 500.857176 
L 568.808495 503.371435 
L 571.567491 503.371435 
L 571.567491 500.542894 
L 574.326487 500.542894 
L 574.326487 501.485741 
L 577 501.485741 
L 577 501.485741 
" style="fill:none;stroke:#aa0000;stroke-linejoin:miter;stroke-width:2;"/>
   </g>
   <g id="patch_5">
    <path clip-path="url(#p6d5c61137b)" d="M -1 504 
L -0.279885 504 
L -0.279885 503.129702 
L 2.709105 503.129702 
L 2.709105 502.549504 
L 5.698096 502.549504 
L 5.698096 502.839603 
L 8.687086 502.839603 
L 8.687086 503.709901 
L 11.676077 503.709901 
L 11.676077 503.419802 
L 14.665068 503.419802 
L 14.665068 503.129702 
L 17.654058 503.129702 
L 17.654058 503.419802 
L 20.643049 503.419802 
L 20.643049 502.259405 
L 23.632039 502.259405 
L 23.632039 502.839603 
L 26.62103 502.839603 
L 26.62103 502.259405 
L 29.61002 502.259405 
L 29.61002 502.839603 
L 32.599011 502.839603 
L 32.599011 503.419802 
L 35.588002 503.419802 
L 35.588002 503.129702 
L 41.565983 503.129702 
L 41.565983 503.419802 
L 44.554973 503.419802 
L 44.554973 502.549504 
L 47.543964 502.549504 
L 47.543964 503.419802 
L 50.532954 503.419802 
L 50.532954 502.549504 
L 56.510936 502.549504 
L 56.510936 502.839603 
L 59.499926 502.839603 
L 59.499926 502.549504 
L 62.488917 502.549504 
L 62.488917 503.129702 
L 65.477907 503.129702 
L 65.477907 501.969305 
L 68.466898 501.969305 
L 68.466898 501.679206 
L 71.455888 501.679206 
L 71.455888 502.549504 
L 74.444879 502.549504 
L 74.444879 502.839603 
L 77.43387 502.839603 
L 77.43387 502.549504 
L 80.42286 502.549504 
L 80.42286 501.389107 
L 86.400841 501.389107 
L 86.400841 500.22871 
L 89.389832 500.22871 
L 89.389832 502.549504 
L 92.378823 502.549504 
L 92.378823 501.099008 
L 95.367813 501.099008 
L 95.367813 501.969305 
L 98.356804 501.969305 
L 98.356804 502.549504 
L 101.345794 502.549504 
L 101.345794 500.22871 
L 104.334785 500.22871 
L 104.334785 501.969305 
L 107.323775 501.969305 
L 107.323775 502.549504 
L 110.312766 502.549504 
L 110.312766 500.22871 
L 113.301757 500.22871 
L 113.301757 501.389107 
L 116.290747 501.389107 
L 116.290747 500.518809 
L 122.268728 500.518809 
L 122.268728 498.778214 
L 125.257719 498.778214 
L 125.257719 499.358412 
L 128.246709 499.358412 
L 128.246709 497.907916 
L 131.2357 497.907916 
L 131.2357 499.358412 
L 134.224691 499.358412 
L 134.224691 500.518809 
L 137.213681 500.518809 
L 137.213681 498.488114 
L 143.191662 498.488114 
L 143.191662 498.778214 
L 146.180653 498.778214 
L 146.180653 498.198015 
L 149.169643 498.198015 
L 149.169643 498.778214 
L 152.158634 498.778214 
L 152.158634 497.617817 
L 155.147625 497.617817 
L 155.147625 499.068313 
L 158.136615 499.068313 
L 158.136615 495.587122 
L 161.125606 495.587122 
L 161.125606 494.426725 
L 164.114596 494.426725 
L 164.114596 493.846527 
L 167.103587 493.846527 
L 167.103587 494.136626 
L 170.092578 494.136626 
L 170.092578 497.617817 
L 173.081568 497.617817 
L 173.081568 492.105931 
L 176.070559 492.105931 
L 176.070559 491.235634 
L 179.059549 491.235634 
L 179.059549 492.396031 
L 182.04854 492.396031 
L 182.04854 491.235634 
L 185.03753 491.235634 
L 185.03753 490.365336 
L 188.026521 490.365336 
L 188.026521 489.495038 
L 191.015512 489.495038 
L 191.015512 486.884145 
L 194.004502 486.884145 
L 194.004502 489.495038 
L 196.993493 489.495038 
L 196.993493 483.693053 
L 199.982483 483.693053 
L 199.982483 484.563351 
L 202.971474 484.563351 
L 202.971474 481.372259 
L 205.960464 481.372259 
L 205.960464 476.150473 
L 208.949455 476.150473 
L 208.949455 477.31087 
L 211.938446 477.31087 
L 211.938446 479.051466 
L 214.927436 479.051466 
L 214.927436 474.119779 
L 217.916427 474.119779 
L 217.916427 473.249481 
L 220.905417 473.249481 
L 220.905417 467.447496 
L 223.894408 467.447496 
L 223.894408 472.959382 
L 226.883399 472.959382 
L 226.883399 466.287099 
L 229.872389 466.287099 
L 229.872389 463.386107 
L 232.86138 463.386107 
L 232.86138 458.744519 
L 235.85037 458.744519 
L 235.85037 454.102931 
L 238.839361 454.102931 
L 238.839361 451.782137 
L 241.828351 451.782137 
L 241.828351 439.888069 
L 244.817342 439.888069 
L 244.817342 430.314794 
L 250.795323 430.314794 
L 250.795323 412.908839 
L 253.784314 412.908839 
L 253.784314 411.458343 
L 256.773304 411.458343 
L 256.773304 410.297946 
L 259.762295 410.297946 
L 259.762295 400.724671 
L 262.751285 400.724671 
L 262.751285 381.578122 
L 265.740276 381.578122 
L 265.740276 366.783061 
L 268.729267 366.783061 
L 268.729267 350.537503 
L 274.707248 350.537503 
L 274.707248 301.220633 
L 277.696238 301.220633 
L 277.696238 302.961228 
L 280.685229 302.961228 
L 280.685229 285.265175 
L 283.674219 285.265175 
L 283.674219 265.828526 
L 286.66321 265.828526 
L 286.66321 247.842373 
L 289.652201 247.842373 
L 289.652201 229.276022 
L 292.641191 229.276022 
L 292.641191 221.443343 
L 295.630182 221.443343 
L 295.630182 217.381953 
L 298.619172 217.381953 
L 298.619172 221.153244 
L 301.608163 221.153244 
L 301.608163 246.101778 
L 304.597154 246.101778 
L 304.597154 248.132473 
L 307.586144 248.132473 
L 307.586144 271.630511 
L 310.575135 271.630511 
L 310.575135 292.807755 
L 313.564125 292.807755 
L 313.564125 305.862221 
L 316.553116 305.862221 
L 316.553116 326.749366 
L 319.542106 326.749366 
L 319.542106 345.605816 
L 322.531097 345.605816 
L 322.531097 348.21671 
L 325.520088 348.21671 
L 325.520088 351.407801 
L 328.509078 351.407801 
L 328.509078 372.294946 
L 331.498069 372.294946 
L 331.498069 382.44842 
L 334.487059 382.44842 
L 334.487059 395.792984 
L 337.47605 395.792984 
L 337.47605 408.267252 
L 340.46504 408.267252 
L 340.46504 408.84745 
L 343.454031 408.84745 
L 343.454031 424.512809 
L 346.443022 424.512809 
L 346.443022 433.215786 
L 352.421003 433.215786 
L 352.421003 442.208862 
L 355.409993 442.208862 
L 355.409993 441.918763 
L 358.398984 441.918763 
L 358.398984 445.109855 
L 361.387974 445.109855 
L 361.387974 447.720748 
L 364.376965 447.720748 
L 364.376965 452.072237 
L 367.365956 452.072237 
L 367.365956 464.836603 
L 370.354946 464.836603 
L 370.354946 465.706901 
L 373.343937 465.706901 
L 373.343937 461.935611 
L 376.332927 461.935611 
L 376.332927 468.897992 
L 379.321918 468.897992 
L 379.321918 470.058389 
L 382.310909 470.058389 
L 382.310909 474.990076 
L 385.299899 474.990076 
L 385.299899 472.669282 
L 388.28889 472.669282 
L 388.28889 479.341565 
L 391.27788 479.341565 
L 391.27788 477.31087 
L 394.266871 477.31087 
L 394.266871 477.600969 
L 397.255861 477.600969 
L 397.255861 484.273252 
L 400.244852 484.273252 
L 400.244852 488.044542 
L 403.233843 488.044542 
L 403.233843 483.983153 
L 406.222833 483.983153 
L 406.222833 486.303947 
L 409.211824 486.303947 
L 409.211824 490.655435 
L 412.200814 490.655435 
L 412.200814 490.365336 
L 415.189805 490.365336 
L 415.189805 489.495038 
L 418.178795 489.495038 
L 418.178795 490.945534 
L 421.167786 490.945534 
L 421.167786 492.976229 
L 424.156777 492.976229 
L 424.156777 493.846527 
L 427.145767 493.846527 
L 427.145767 492.105931 
L 430.134758 492.105931 
L 430.134758 493.846527 
L 433.123748 493.846527 
L 433.123748 492.976229 
L 436.112739 492.976229 
L 436.112739 495.006924 
L 439.10173 495.006924 
L 439.10173 497.037618 
L 442.09072 497.037618 
L 442.09072 494.426725 
L 445.079711 494.426725 
L 445.079711 494.716824 
L 448.068701 494.716824 
L 448.068701 496.747519 
L 451.057692 496.747519 
L 451.057692 498.488114 
L 454.046682 498.488114 
L 454.046682 497.327718 
L 457.035673 497.327718 
L 457.035673 499.648511 
L 460.024664 499.648511 
L 460.024664 500.518809 
L 463.013654 500.518809 
L 463.013654 499.358412 
L 468.991635 499.358412 
L 468.991635 497.037618 
L 471.980626 497.037618 
L 471.980626 498.198015 
L 474.969616 498.198015 
L 474.969616 499.938611 
L 477.958607 499.938611 
L 477.958607 500.518809 
L 480.947598 500.518809 
L 480.947598 497.907916 
L 483.936588 497.907916 
L 483.936588 499.938611 
L 486.925579 499.938611 
L 486.925579 498.778214 
L 489.914569 498.778214 
L 489.914569 501.679206 
L 492.90356 501.679206 
L 492.90356 499.068313 
L 495.89255 499.068313 
L 495.89255 500.22871 
L 498.881541 500.22871 
L 498.881541 501.099008 
L 501.870532 501.099008 
L 501.870532 500.518809 
L 504.859522 500.518809 
L 504.859522 501.389107 
L 507.848513 501.389107 
L 507.848513 500.518809 
L 510.837503 500.518809 
L 510.837503 501.969305 
L 513.826494 501.969305 
L 513.826494 499.068313 
L 516.815485 499.068313 
L 516.815485 500.808908 
L 519.804475 500.808908 
L 519.804475 503.419802 
L 522.793466 503.419802 
L 522.793466 501.969305 
L 528.771447 501.969305 
L 528.771447 501.389107 
L 531.760437 501.389107 
L 531.760437 501.679206 
L 537.738419 501.679206 
L 537.738419 503.129702 
L 540.727409 503.129702 
L 540.727409 500.808908 
L 543.7164 500.808908 
L 543.7164 502.549504 
L 549.694381 502.549504 
L 549.694381 501.389107 
L 552.683371 501.389107 
L 552.683371 503.129702 
L 558.661353 503.129702 
L 558.661353 501.679206 
L 561.650343 501.679206 
L 561.650343 503.129702 
L 564.639334 503.129702 
L 564.639334 501.679206 
L 567.628324 501.679206 
L 567.628324 503.419802 
L 570.617315 503.419802 
L 570.617315 502.259405 
L 573.606305 502.259405 
L 573.606305 501.969305 
L 576.595296 501.969305 
L 576.595296 501.099008 
L 577 501.099008 
L 577 501.099008 
" style="fill:none;stroke:#d00000;stroke-linejoin:miter;stroke-width:2;"/>
   </g>
   <g id="patch_6">
    <path clip-path="url(#p6d5c61137b)" d="M -1 503.651957 
L 3.875652 503.651957 
L 3.875652 503.535942 
L 11.349757 503.535942 
L 11.349757 504 
L 18.823862 504 
L 18.823862 503.535942 
L 26.297968 503.535942 
L 26.297968 503.651957 
L 41.246178 503.651957 
L 41.246178 503.535942 
L 48.720284 503.535942 
L 48.720284 503.767971 
L 56.194389 503.767971 
L 56.194389 503.535942 
L 63.668494 503.535942 
L 63.668494 503.071885 
L 71.1426 503.071885 
L 71.1426 503.419928 
L 78.616705 503.419928 
L 78.616705 503.303914 
L 86.09081 503.303914 
L 86.09081 502.839856 
L 93.564916 502.839856 
L 93.564916 503.187899 
L 101.039021 503.187899 
L 101.039021 502.723842 
L 115.987231 502.723842 
L 115.987231 502.259784 
L 123.461337 502.259784 
L 123.461337 502.491813 
L 130.935442 502.491813 
L 130.935442 501.795726 
L 138.409547 501.795726 
L 138.409547 501.563697 
L 145.883653 501.563697 
L 145.883653 500.751597 
L 153.357758 500.751597 
L 153.357758 501.09964 
L 160.831863 501.09964 
L 160.831863 500.403553 
L 168.305969 500.403553 
L 168.305969 499.359424 
L 175.780074 499.359424 
L 175.780074 499.127395 
L 183.254179 499.127395 
L 183.254179 497.503193 
L 190.728285 497.503193 
L 190.728285 493.790732 
L 198.20239 493.790732 
L 198.20239 494.950876 
L 205.676495 494.950876 
L 205.676495 489.846242 
L 213.150601 489.846242 
L 213.150601 488.106026 
L 220.624706 488.106026 
L 220.624706 481.725234 
L 228.098811 481.725234 
L 228.098811 479.056903 
L 235.572917 479.056903 
L 235.572917 467.571477 
L 243.047022 467.571477 
L 243.047022 451.677503 
L 250.521127 451.677503 
L 250.521127 438.68389 
L 257.995233 438.68389 
L 257.995233 405.271741 
L 265.469338 405.271741 
L 265.469338 357.937863 
L 272.943443 357.937863 
L 272.943443 293.549868 
L 280.417548 293.549868 
L 280.417548 204.566819 
L 287.891654 204.566819 
L 287.891654 112.683409 
L 295.365759 112.683409 
L 295.365759 89.828571 
L 302.839864 89.828571 
L 302.839864 172.082785 
L 310.31397 172.082785 
L 310.31397 267.910684 
L 317.788075 267.910684 
L 317.788075 331.370564 
L 325.26218 331.370564 
L 325.26218 381.720816 
L 332.736286 381.720816 
L 332.736286 417.10521 
L 340.210391 417.10521 
L 340.210391 442.396351 
L 347.684496 442.396351 
L 347.684496 459.566483 
L 355.158602 459.566483 
L 355.158602 468.151549 
L 362.632707 468.151549 
L 362.632707 479.404946 
L 370.106812 479.404946 
L 370.106812 486.713854 
L 377.580918 486.713854 
L 377.580918 489.150156 
L 385.055023 489.150156 
L 385.055023 489.382185 
L 392.529128 489.382185 
L 392.529128 491.934502 
L 400.003234 491.934502 
L 400.003234 494.834862 
L 407.477339 494.834862 
L 407.477339 495.646963 
L 414.951444 495.646963 
L 414.951444 498.19928 
L 429.899655 498.19928 
L 429.899655 498.083265 
L 437.37376 498.083265 
L 437.37376 499.707467 
L 444.847865 499.707467 
L 444.847865 501.09964 
L 459.796076 501.09964 
L 459.796076 501.331669 
L 467.270181 501.331669 
L 467.270181 501.447683 
L 474.744287 501.447683 
L 474.744287 502.723842 
L 482.218392 502.723842 
L 482.218392 501.563697 
L 489.692497 501.563697 
L 489.692497 502.375798 
L 497.166603 502.375798 
L 497.166603 503.071885 
L 504.640708 503.071885 
L 504.640708 502.607827 
L 512.114813 502.607827 
L 512.114813 502.95587 
L 519.588919 502.95587 
L 519.588919 502.375798 
L 527.063024 502.375798 
L 527.063024 502.607827 
L 534.537129 502.607827 
L 534.537129 503.187899 
L 542.011235 503.187899 
L 542.011235 503.419928 
L 556.959445 503.419928 
L 556.959445 502.723842 
L 564.433551 502.723842 
L 564.433551 503.187899 
L 571.907656 503.187899 
L 571.907656 502.607827 
L 577 502.607827 
L 577 502.607827 
" style="fill:none;stroke:#f70000;stroke-linejoin:miter;stroke-width:2;"/>
   </g>
   <g id="patch_7">
    <path clip-path="url(#p6d5c61137b)" d="M -1 502.842839 
L 0.77632 502.842839 
L 0.77632 503.228559 
L 5.272344 503.228559 
L 5.272344 503.035699 
L 9.768369 503.035699 
L 9.768369 502.842839 
L 14.264393 502.842839 
L 14.264393 502.649979 
L 18.760418 502.649979 
L 18.760418 503.61428 
L 23.256442 503.61428 
L 23.256442 503.035699 
L 27.752466 503.035699 
L 27.752466 503.61428 
L 32.248491 503.61428 
L 32.248491 503.228559 
L 36.744515 503.228559 
L 36.744515 503.42142 
L 45.736564 503.42142 
L 45.736564 503.035699 
L 50.232588 503.035699 
L 50.232588 502.842839 
L 54.728613 502.842839 
L 54.728613 502.264259 
L 63.720662 502.264259 
L 63.720662 502.842839 
L 68.216686 502.842839 
L 68.216686 502.264259 
L 72.71271 502.264259 
L 72.71271 502.842839 
L 77.208735 502.842839 
L 77.208735 502.649979 
L 81.704759 502.649979 
L 81.704759 501.878538 
L 86.200784 501.878538 
L 86.200784 501.492818 
L 90.696808 501.492818 
L 90.696808 501.299958 
L 95.192832 501.299958 
L 95.192832 500.914238 
L 99.688857 500.914238 
L 99.688857 501.299958 
L 104.184881 501.299958 
L 104.184881 501.107098 
L 108.680906 501.107098 
L 108.680906 501.492818 
L 113.17693 501.492818 
L 113.17693 499.564217 
L 117.672954 499.564217 
L 117.672954 498.407056 
L 122.168979 498.407056 
L 122.168979 498.599916 
L 126.665003 498.599916 
L 126.665003 499.371357 
L 131.161028 499.371357 
L 131.161028 499.757077 
L 135.657052 499.757077 
L 135.657052 498.214196 
L 140.153076 498.214196 
L 140.153076 500.335657 
L 144.649101 500.335657 
L 144.649101 498.021336 
L 149.145125 498.021336 
L 149.145125 497.828476 
L 158.137174 497.828476 
L 158.137174 494.356993 
L 162.633198 494.356993 
L 162.633198 494.935574 
L 167.129223 494.935574 
L 167.129223 493.971273 
L 171.625247 493.971273 
L 171.625247 491.656951 
L 176.121272 491.656951 
L 176.121272 487.799748 
L 180.617296 487.799748 
L 180.617296 490.49979 
L 185.11332 490.49979 
L 185.11332 488.378329 
L 189.609345 488.378329 
L 189.609345 486.064007 
L 194.105369 486.064007 
L 194.105369 487.414028 
L 198.601394 487.414028 
L 198.601394 483.171105 
L 203.097418 483.171105 
L 203.097418 477.385301 
L 207.593442 477.385301 
L 207.593442 472.949518 
L 212.089467 472.949518 
L 212.089467 473.913818 
L 216.585491 473.913818 
L 216.585491 466.777993 
L 221.081516 466.777993 
L 221.081516 464.077951 
L 225.57754 464.077951 
L 225.57754 461.95649 
L 230.073564 461.95649 
L 230.073564 445.370518 
L 234.569589 445.370518 
L 234.569589 445.949098 
L 239.065613 445.949098 
L 239.065613 441.706175 
L 243.561638 441.706175 
L 243.561638 422.034441 
L 248.057662 422.034441 
L 248.057662 410.077113 
L 252.553686 410.077113 
L 252.553686 400.626966 
L 257.049711 400.626966 
L 257.049711 394.455441 
L 261.545735 394.455441 
L 261.545735 369.383623 
L 266.04176 369.383623 
L 266.04176 355.497694 
L 270.537784 355.497694 
L 270.537784 332.740197 
L 275.033808 332.740197 
L 275.033808 316.732806 
L 279.529833 316.732806 
L 279.529833 289.925247 
L 284.025857 289.925247 
L 284.025857 266.78203 
L 288.521882 266.78203 
L 288.521882 255.789002 
L 293.017906 255.789002 
L 293.017906 238.045869 
L 297.51393 238.045869 
L 297.51393 257.331883 
L 302.009955 257.331883 
L 302.009955 268.903491 
L 306.505979 268.903491 
L 306.505979 293.589589 
L 311.002004 293.589589 
L 311.002004 299.182533 
L 315.498028 299.182533 
L 315.498028 325.025792 
L 319.994052 325.025792 
L 319.994052 340.261743 
L 324.490077 340.261743 
L 324.490077 371.505085 
L 328.986101 371.505085 
L 328.986101 377.483749 
L 333.482125 377.483749 
L 333.482125 390.983959 
L 337.97815 390.983959 
L 337.97815 410.269973 
L 342.474174 410.269973 
L 342.474174 414.512896 
L 346.970199 414.512896 
L 346.970199 427.820245 
L 351.466223 427.820245 
L 351.466223 439.391854 
L 355.962247 439.391854 
L 355.962247 442.863336 
L 360.458272 442.863336 
L 360.458272 453.470644 
L 364.954296 453.470644 
L 364.954296 452.506343 
L 369.450321 452.506343 
L 369.450321 459.449308 
L 373.946345 459.449308 
L 373.946345 471.792357 
L 378.442369 471.792357 
L 378.442369 469.285175 
L 382.938394 469.285175 
L 382.938394 473.528098 
L 387.434418 473.528098 
L 387.434418 479.699623 
L 391.930443 479.699623 
L 391.930443 481.242504 
L 396.426467 481.242504 
L 396.426467 485.292567 
L 400.922491 485.292567 
L 400.922491 484.521126 
L 405.418516 484.521126 
L 405.418516 488.764049 
L 409.91454 488.764049 
L 409.91454 487.606888 
L 414.410565 487.606888 
L 414.410565 491.849811 
L 418.906589 491.849811 
L 418.906589 489.92121 
L 423.402613 489.92121 
L 423.402613 492.235532 
L 427.898638 492.235532 
L 427.898638 495.321294 
L 432.394662 495.321294 
L 432.394662 493.778413 
L 436.890687 493.778413 
L 436.890687 495.128434 
L 441.386711 495.128434 
L 441.386711 494.935574 
L 445.882735 494.935574 
L 445.882735 497.057035 
L 450.37876 497.057035 
L 450.37876 496.671315 
L 454.874784 496.671315 
L 454.874784 498.792776 
L 459.370809 498.792776 
L 459.370809 497.442755 
L 463.866833 497.442755 
L 463.866833 496.092734 
L 468.362857 496.092734 
L 468.362857 499.371357 
L 472.858882 499.371357 
L 472.858882 498.792776 
L 477.354906 498.792776 
L 477.354906 500.335657 
L 481.850931 500.335657 
L 481.850931 499.371357 
L 486.346955 499.371357 
L 486.346955 499.178497 
L 490.842979 499.178497 
L 490.842979 498.792776 
L 495.339004 498.792776 
L 495.339004 501.299958 
L 499.835028 501.299958 
L 499.835028 500.528518 
L 504.331053 500.528518 
L 504.331053 501.685678 
L 508.827077 501.685678 
L 508.827077 501.299958 
L 513.323101 501.299958 
L 513.323101 501.492818 
L 517.819126 501.492818 
L 517.819126 502.649979 
L 522.31515 502.649979 
L 522.31515 500.914238 
L 526.811175 500.914238 
L 526.811175 501.878538 
L 531.307199 501.878538 
L 531.307199 501.492818 
L 535.803223 501.492818 
L 535.803223 502.457119 
L 540.299248 502.457119 
L 540.299248 502.842839 
L 544.795272 502.842839 
L 544.795272 502.264259 
L 549.291297 502.264259 
L 549.291297 502.842839 
L 558.283345 502.842839 
L 558.283345 502.457119 
L 562.77937 502.457119 
L 562.77937 502.071399 
L 567.275394 502.071399 
L 567.275394 502.457119 
L 571.771419 502.457119 
L 571.771419 503.035699 
L 576.267443 503.035699 
L 576.267443 502.842839 
L 577 502.842839 
L 577 502.842839 
" style="fill:none;stroke:#ff5353;stroke-linejoin:miter;stroke-width:2;"/>
   </g>
   <g id="patch_8">
    <path clip-path="url(#p6d5c61137b)" d="M -1 503.136704 
L 6.770494 503.136704 
L 6.770494 504 
L 10.788139 504 
L 10.788139 502.92088 
L 18.823427 502.92088 
L 18.823427 503.352528 
L 22.841072 503.352528 
L 22.841072 502.489232 
L 26.858716 502.489232 
L 26.858716 501.84176 
L 30.87636 501.84176 
L 30.87636 503.568352 
L 34.894005 503.568352 
L 34.894005 503.352528 
L 38.911649 503.352528 
L 38.911649 503.136704 
L 42.929293 503.136704 
L 42.929293 502.273408 
L 46.946938 502.273408 
L 46.946938 503.352528 
L 50.964582 503.352528 
L 50.964582 502.705056 
L 58.999871 502.705056 
L 58.999871 502.92088 
L 63.017515 502.92088 
L 63.017515 500.762641 
L 67.035159 500.762641 
L 67.035159 502.489232 
L 71.052804 502.489232 
L 71.052804 501.625937 
L 75.070448 501.625937 
L 75.070448 502.489232 
L 79.088092 502.489232 
L 79.088092 502.273408 
L 83.105737 502.273408 
L 83.105737 501.410113 
L 87.123381 501.410113 
L 87.123381 500.762641 
L 91.141025 500.762641 
L 91.141025 501.410113 
L 95.15867 501.410113 
L 95.15867 502.273408 
L 99.176314 502.273408 
L 99.176314 501.84176 
L 103.193958 501.84176 
L 103.193958 501.625937 
L 107.211603 501.625937 
L 107.211603 499.467697 
L 111.229247 499.467697 
L 111.229247 502.273408 
L 115.246891 502.273408 
L 115.246891 500.330993 
L 123.28218 500.330993 
L 123.28218 501.84176 
L 127.299824 501.84176 
L 127.299824 498.388577 
L 131.317469 498.388577 
L 131.317469 498.820225 
L 135.335113 498.820225 
L 135.335113 499.683521 
L 139.352757 499.683521 
L 139.352757 497.525281 
L 143.370402 497.525281 
L 143.370402 498.388577 
L 147.388046 498.388577 
L 147.388046 498.172753 
L 151.40569 498.172753 
L 151.40569 497.741105 
L 155.423335 497.741105 
L 155.423335 497.093633 
L 159.440979 497.093633 
L 159.440979 495.582866 
L 163.458624 495.582866 
L 163.458624 496.87781 
L 167.476268 496.87781 
L 167.476268 496.446162 
L 171.493912 496.446162 
L 171.493912 492.777154 
L 175.511557 492.777154 
L 175.511557 494.71957 
L 179.529201 494.71957 
L 179.529201 492.777154 
L 183.546845 492.777154 
L 183.546845 490.403091 
L 187.56449 490.403091 
L 187.56449 491.482211 
L 191.582134 491.482211 
L 191.582134 489.323971 
L 195.599778 489.323971 
L 195.599778 486.302436 
L 199.617423 486.302436 
L 199.617423 481.770133 
L 203.635067 481.770133 
L 203.635067 485.223316 
L 207.652711 485.223316 
L 207.652711 479.180245 
L 211.670356 479.180245 
L 211.670356 472.489703 
L 215.688 472.489703 
L 215.688 475.727062 
L 219.705644 475.727062 
L 219.705644 472.489703 
L 223.723289 472.489703 
L 223.723289 473.352999 
L 227.740933 473.352999 
L 227.740933 461.266857 
L 231.758577 461.266857 
L 231.758577 455.43961 
L 235.776222 455.43961 
L 235.776222 447.885772 
L 239.793866 447.885772 
L 239.793866 451.123131 
L 243.81151 451.123131 
L 243.81151 440.331934 
L 247.829155 440.331934 
L 247.829155 433.209743 
L 251.846799 433.209743 
L 251.846799 423.929313 
L 255.864443 423.929313 
L 255.864443 406.015925 
L 259.882088 406.015925 
L 259.882088 386.160121 
L 263.899732 386.160121 
L 263.899732 376.663867 
L 267.917376 376.663867 
L 267.917376 361.124543 
L 271.935021 361.124543 
L 271.935021 339.757971 
L 275.952665 339.757971 
L 275.952665 308.247674 
L 279.970309 308.247674 
L 279.970309 281.917151 
L 283.987954 281.917151 
L 283.987954 256.234101 
L 288.005598 256.234101 
L 288.005598 227.097867 
L 292.023242 227.097867 
L 292.023242 205.083824 
L 296.040887 205.083824 
L 296.040887 215.011726 
L 300.058531 215.011726 
L 300.058531 230.55105 
L 304.076175 230.55105 
L 304.076175 249.543558 
L 308.09382 249.543558 
L 308.09382 279.327264 
L 312.111464 279.327264 
L 312.111464 292.276701 
L 316.129108 292.276701 
L 316.129108 320.549639 
L 320.146753 320.549639 
L 320.146753 340.405443 
L 324.164397 340.405443 
L 324.164397 366.951789 
L 328.182042 366.951789 
L 328.182042 381.843642 
L 332.199686 381.843642 
L 332.199686 391.987368 
L 336.21733 391.987368 
L 336.21733 398.893734 
L 340.234975 398.893734 
L 340.234975 410.332404 
L 344.252619 410.332404 
L 344.252619 428.893264 
L 348.270263 428.893264 
L 348.270263 432.130623 
L 352.287908 432.130623 
L 352.287908 443.785117 
L 356.305552 443.785117 
L 356.305552 440.547758 
L 360.323196 440.547758 
L 360.323196 446.806652 
L 364.340841 446.806652 
L 364.340841 457.382026 
L 368.358485 457.382026 
L 368.358485 461.914329 
L 372.376129 461.914329 
L 372.376129 467.309928 
L 376.393774 467.309928 
L 376.393774 471.842231 
L 380.411418 471.842231 
L 380.411418 472.921351 
L 384.429062 472.921351 
L 384.429062 477.23783 
L 388.446707 477.23783 
L 388.446707 478.532773 
L 392.464351 478.532773 
L 392.464351 482.849253 
L 396.481995 482.849253 
L 396.481995 483.065076 
L 400.49964 483.065076 
L 400.49964 483.2809 
L 404.517284 483.2809 
L 404.517284 489.539795 
L 408.534928 489.539795 
L 408.534928 489.108147 
L 412.552573 489.108147 
L 412.552573 490.403091 
L 416.570217 490.403091 
L 416.570217 489.539795 
L 420.587861 489.539795 
L 420.587861 492.345506 
L 424.605506 492.345506 
L 424.605506 491.266387 
L 428.62315 491.266387 
L 428.62315 492.992978 
L 432.640794 492.992978 
L 432.640794 493.208802 
L 436.658439 493.208802 
L 436.658439 494.072098 
L 440.676083 494.072098 
L 440.676083 496.014514 
L 444.693727 496.014514 
L 444.693727 499.036049 
L 448.711372 499.036049 
L 448.711372 496.661986 
L 452.729016 496.661986 
L 452.729016 497.741105 
L 456.74666 497.741105 
L 456.74666 499.251873 
L 460.764305 499.251873 
L 460.764305 497.956929 
L 464.781949 497.956929 
L 464.781949 496.87781 
L 468.799593 496.87781 
L 468.799593 500.330993 
L 472.817238 500.330993 
L 472.817238 498.820225 
L 476.834882 498.820225 
L 476.834882 497.525281 
L 480.852526 497.525281 
L 480.852526 500.546817 
L 484.870171 500.546817 
L 484.870171 499.899345 
L 488.887815 499.899345 
L 488.887815 499.467697 
L 492.90546 499.467697 
L 492.90546 500.330993 
L 496.923104 500.330993 
L 496.923104 497.956929 
L 500.940748 497.956929 
L 500.940748 498.172753 
L 504.958393 498.172753 
L 504.958393 500.330993 
L 508.976037 500.330993 
L 508.976037 500.978465 
L 512.993681 500.978465 
L 512.993681 500.546817 
L 517.011326 500.546817 
L 517.011326 502.057584 
L 521.02897 502.057584 
L 521.02897 501.84176 
L 525.046614 501.84176 
L 525.046614 500.978465 
L 529.064259 500.978465 
L 529.064259 501.410113 
L 533.081903 501.410113 
L 533.081903 501.625937 
L 541.117192 501.625937 
L 541.117192 502.92088 
L 545.134836 502.92088 
L 545.134836 502.489232 
L 549.15248 502.489232 
L 549.15248 502.057584 
L 553.170125 502.057584 
L 553.170125 501.84176 
L 557.187769 501.84176 
L 557.187769 502.489232 
L 561.205413 502.489232 
L 561.205413 503.136704 
L 565.223058 503.136704 
L 565.223058 502.273408 
L 569.240702 502.273408 
L 569.240702 503.136704 
L 573.258346 503.136704 
L 573.258346 502.489232 
L 577 502.489232 
L 577 502.489232 
" style="fill:none;stroke:#d95353;stroke-linejoin:miter;stroke-width:2;"/>
   </g>
   <g id="patch_9">
    <path d="M 72 504 
L 72 69.12 
" style="fill:none;stroke:#262626;stroke-linecap:square;stroke-linejoin:miter;stroke-width:1.25;"/>
   </g>
   <g id="patch_10">
    <path d="M 518.4 504 
L 518.4 69.12 
" style="fill:none;stroke:#262626;stroke-linecap:square;stroke-linejoin:miter;stroke-width:1.25;"/>
   </g>
   <g id="patch_11">
    <path d="M 72 504 
L 518.4 504 
" style="fill:none;stroke:#262626;stroke-linecap:square;stroke-linejoin:miter;stroke-width:1.25;"/>
   </g>
   <g id="patch_12">
    <path d="M 72 69.12 
L 518.4 69.12 
" style="fill:none;stroke:#262626;stroke-linecap:square;stroke-linejoin:miter;stroke-width:1.25;"/>
   </g>
   <g id="legend_1">
    <g id="patch_13">
     <path d="M 360.721875 280.47125 
L 503 280.47125 
Q 507.4 280.47125 507.4 276.07125 
L 507.4 84.52 
Q 507.4 80.12 503 80.12 
L 360.721875 80.12 
Q 356.321875 80.12 356.321875 84.52 
L 356.321875 276.07125 
Q 356.321875 280.47125 360.721875 280.47125 
z
" style="fill:#ffffff;opacity:0.8;stroke:#cccccc;stroke-linejoin:miter;"/>
    </g>
    <g id="patch_14">
     <path d="M 365.121875 105.636563 
L 409.121875 105.636563 
L 409.121875 90.236563 
L 365.121875 90.236563 
z
" style="fill:none;stroke:#1f77b4;stroke-linejoin:miter;stroke-width:2;"/>
    </g>
    <g id="text_16">
     <text style="fill:#262626;font-family:DejaVu Sans;font-size:22px;font-style:normal;font-weight:normal;text-anchor:start;" transform="rotate(-0, 426.721875, 105.636563)" x="426.721875" y="105.636563">DNase</text>
    </g>
    <g id="patch_15">
     <path d="M 365.121875 137.928438 
L 409.121875 137.928438 
L 409.121875 122.528438 
L 365.121875 122.528438 
z
" style="fill:none;stroke:#aa0000;stroke-linejoin:miter;stroke-width:2;"/>
    </g>
    <g id="text_17">
     <text style="fill:#262626;font-family:DejaVu Sans;font-size:22px;font-style:normal;font-weight:normal;text-anchor:start;" transform="rotate(-0, 426.721875, 137.928438)" x="426.721875" y="137.928438">TL0</text>
    </g>
    <g id="patch_16">
     <path d="M 365.121875 170.220313 
L 409.121875 170.220313 
L 409.121875 154.820313 
L 365.121875 154.820313 
z
" style="fill:none;stroke:#d00000;stroke-linejoin:miter;stroke-width:2;"/>
    </g>
    <g id="text_18">
     <text style="fill:#262626;font-family:DejaVu Sans;font-size:22px;font-style:normal;font-weight:normal;text-anchor:start;" transform="rotate(-0, 426.721875, 170.220313)" x="426.721875" y="170.220313">TL1</text>
    </g>
    <g id="patch_17">
     <path d="M 365.121875 202.512188 
L 409.121875 202.512188 
L 409.121875 187.112188 
L 365.121875 187.112188 
z
" style="fill:none;stroke:#f70000;stroke-linejoin:miter;stroke-width:2;"/>
    </g>
    <g id="text_19">
     <text style="fill:#262626;font-family:DejaVu Sans;font-size:22px;font-style:normal;font-weight:normal;text-anchor:start;" transform="rotate(-0, 426.721875, 202.512188)" x="426.721875" y="202.512188">TL2</text>
    </g>
    <g id="patch_18">
     <path d="M 365.121875 234.804063 
L 409.121875 234.804063 
L 409.121875 219.404063 
L 365.121875 219.404063 
z
" style="fill:none;stroke:#ff5353;stroke-linejoin:miter;stroke-width:2;"/>
    </g>
    <g id="text_20">
     <text style="fill:#262626;font-family:DejaVu Sans;font-size:22px;font-style:normal;font-weight:normal;text-anchor:start;" transform="rotate(-0, 426.721875, 234.804063)" x="426.721875" y="234.804063">TL3</text>
    </g>
    <g id="patch_19">
     <path d="M 365.121875 267.095938 
L 409.121875 267.095938 
L 409.121875 251.695938 
L 365.121875 251.695938 
z
" style="fill:none;stroke:#d95353;stroke-linejoin:miter;stroke-width:2;"/>
    </g>
    <g id="text_21">
     <text style="fill:#262626;font-family:DejaVu Sans;font-size:22px;font-style:normal;font-weight:normal;text-anchor:start;" transform="rotate(-0, 426.721875, 267.095938)" x="426.721875" y="267.095938">TLavg</text>
    </g>
   </g>
  </g>
 </g>
 <defs>
  <clipPath id="p6d5c61137b">
   <rect height="434.88" width="446.4" x="72" y="69.12"/>
  </clipPath>
 </defs>
</svg>
