<?xml version="1.0" encoding="utf-8" standalone="no"?>
<!DOCTYPE svg PUBLIC "-//W3C//DTD SVG 1.1//EN"
  "http://www.w3.org/Graphics/SVG/1.1/DTD/svg11.dtd">
<!-- Created with matplotlib (https://matplotlib.org/) -->
<svg height="288pt" version="1.1" viewBox="0 0 432 288" width="432pt" xmlns="http://www.w3.org/2000/svg" xmlns:xlink="http://www.w3.org/1999/xlink">
 <defs>
  <style type="text/css">
*{stroke-linecap:butt;stroke-linejoin:round;}
  </style>
 </defs>
 <g id="figure_1">
  <g id="patch_1">
   <path d="M 0 288 
L 432 288 
L 432 0 
L 0 0 
z
" style="fill:#ffffff;"/>
  </g>
  <g id="axes_1">
   <g id="patch_2">
    <path d="M 47.38125 246.84375 
L 417.7 246.84375 
L 417.7 25.918125 
L 47.38125 25.918125 
z
" style="fill:#ffffff;"/>
   </g>
   <g id="matplotlib.axis_1">
    <g id="xtick_1">
     <g id="line2d_1">
      <defs>
       <path d="M 0 0 
L 0 3.5 
" id="m89223ad0b3" style="stroke:#000000;stroke-width:0.8;"/>
      </defs>
      <g>
       <use style="stroke:#000000;stroke-width:0.8;" x="64.21392" xlink:href="#m89223ad0b3" y="246.84375"/>
      </g>
     </g>
     <g id="text_1">
      <text style="font-family:DejaVu Sans;font-size:10px;font-style:normal;font-weight:normal;text-anchor:middle;" transform="rotate(-0, 64.21392, 261.442187)" x="64.21392" y="261.442187">0.0</text>
     </g>
    </g>
    <g id="xtick_2">
     <g id="line2d_2">
      <g>
       <use style="stroke:#000000;stroke-width:0.8;" x="131.544602" xlink:href="#m89223ad0b3" y="246.84375"/>
      </g>
     </g>
     <g id="text_2">
      <text style="font-family:DejaVu Sans;font-size:10px;font-style:normal;font-weight:normal;text-anchor:middle;" transform="rotate(-0, 131.544602, 261.442187)" x="131.544602" y="261.442187">0.2</text>
     </g>
    </g>
    <g id="xtick_3">
     <g id="line2d_3">
      <g>
       <use style="stroke:#000000;stroke-width:0.8;" x="198.875284" xlink:href="#m89223ad0b3" y="246.84375"/>
      </g>
     </g>
     <g id="text_3">
      <text style="font-family:DejaVu Sans;font-size:10px;font-style:normal;font-weight:normal;text-anchor:middle;" transform="rotate(-0, 198.875284, 261.442187)" x="198.875284" y="261.442187">0.4</text>
     </g>
    </g>
    <g id="xtick_4">
     <g id="line2d_4">
      <g>
       <use style="stroke:#000000;stroke-width:0.8;" x="266.205966" xlink:href="#m89223ad0b3" y="246.84375"/>
      </g>
     </g>
     <g id="text_4">
      <text style="font-family:DejaVu Sans;font-size:10px;font-style:normal;font-weight:normal;text-anchor:middle;" transform="rotate(-0, 266.205966, 261.442187)" x="266.205966" y="261.442187">0.6</text>
     </g>
    </g>
    <g id="xtick_5">
     <g id="line2d_5">
      <g>
       <use style="stroke:#000000;stroke-width:0.8;" x="333.536648" xlink:href="#m89223ad0b3" y="246.84375"/>
      </g>
     </g>
     <g id="text_5">
      <text style="font-family:DejaVu Sans;font-size:10px;font-style:normal;font-weight:normal;text-anchor:middle;" transform="rotate(-0, 333.536648, 261.442187)" x="333.536648" y="261.442187">0.8</text>
     </g>
    </g>
    <g id="xtick_6">
     <g id="line2d_6">
      <g>
       <use style="stroke:#000000;stroke-width:0.8;" x="400.86733" xlink:href="#m89223ad0b3" y="246.84375"/>
      </g>
     </g>
     <g id="text_6">
      <text style="font-family:DejaVu Sans;font-size:10px;font-style:normal;font-weight:normal;text-anchor:middle;" transform="rotate(-0, 400.86733, 261.442187)" x="400.86733" y="261.442187">1.0</text>
     </g>
    </g>
    <g id="text_7">
     <text style="font-family:DejaVu Sans;font-size:10px;font-style:normal;font-weight:normal;text-anchor:middle;" transform="rotate(-0, 232.540625, 275.120313)" x="232.540625" y="275.120313">False Positive Rate</text>
    </g>
   </g>
   <g id="matplotlib.axis_2">
    <g id="ytick_1">
     <g id="line2d_7">
      <defs>
       <path d="M 0 0 
L -3.5 0 
" id="m41d2d6b02e" style="stroke:#000000;stroke-width:0.8;"/>
      </defs>
      <g>
       <use style="stroke:#000000;stroke-width:0.8;" x="47.38125" xlink:href="#m41d2d6b02e" y="236.801676"/>
      </g>
     </g>
     <g id="text_8">
      <text style="font-family:DejaVu Sans;font-size:10px;font-style:normal;font-weight:normal;text-anchor:end;" transform="rotate(-0, 40.38125, 240.600895)" x="40.38125" y="240.600895">0.0</text>
     </g>
    </g>
    <g id="ytick_2">
     <g id="line2d_8">
      <g>
       <use style="stroke:#000000;stroke-width:0.8;" x="47.38125" xlink:href="#m41d2d6b02e" y="196.633381"/>
      </g>
     </g>
     <g id="text_9">
      <text style="font-family:DejaVu Sans;font-size:10px;font-style:normal;font-weight:normal;text-anchor:end;" transform="rotate(-0, 40.38125, 200.432599)" x="40.38125" y="200.432599">0.2</text>
     </g>
    </g>
    <g id="ytick_3">
     <g id="line2d_9">
      <g>
       <use style="stroke:#000000;stroke-width:0.8;" x="47.38125" xlink:href="#m41d2d6b02e" y="156.465085"/>
      </g>
     </g>
     <g id="text_10">
      <text style="font-family:DejaVu Sans;font-size:10px;font-style:normal;font-weight:normal;text-anchor:end;" transform="rotate(-0, 40.38125, 160.264304)" x="40.38125" y="160.264304">0.4</text>
     </g>
    </g>
    <g id="ytick_4">
     <g id="line2d_10">
      <g>
       <use style="stroke:#000000;stroke-width:0.8;" x="47.38125" xlink:href="#m41d2d6b02e" y="116.29679"/>
      </g>
     </g>
     <g id="text_11">
      <text style="font-family:DejaVu Sans;font-size:10px;font-style:normal;font-weight:normal;text-anchor:end;" transform="rotate(-0, 40.38125, 120.096009)" x="40.38125" y="120.096009">0.6</text>
     </g>
    </g>
    <g id="ytick_5">
     <g id="line2d_11">
      <g>
       <use style="stroke:#000000;stroke-width:0.8;" x="47.38125" xlink:href="#m41d2d6b02e" y="76.128494"/>
      </g>
     </g>
     <g id="text_12">
      <text style="font-family:DejaVu Sans;font-size:10px;font-style:normal;font-weight:normal;text-anchor:end;" transform="rotate(-0, 40.38125, 79.927713)" x="40.38125" y="79.927713">0.8</text>
     </g>
    </g>
    <g id="ytick_6">
     <g id="line2d_12">
      <g>
       <use style="stroke:#000000;stroke-width:0.8;" x="47.38125" xlink:href="#m41d2d6b02e" y="35.960199"/>
      </g>
     </g>
     <g id="text_13">
      <text style="font-family:DejaVu Sans;font-size:10px;font-style:normal;font-weight:normal;text-anchor:end;" transform="rotate(-0, 40.38125, 39.759418)" x="40.38125" y="39.759418">1.0</text>
     </g>
    </g>
    <g id="text_14">
     <text style="font-family:DejaVu Sans;font-size:10px;font-style:normal;font-weight:normal;text-anchor:middle;" transform="rotate(-90, 18.398438, 136.380937)" x="18.398438" y="136.380937">True Positive Rate</text>
    </g>
   </g>
   <g id="line2d_13">
    <path clip-path="url(#p1af9198534)" d="M 64.21392 236.801676 
L 64.322171 224.229478 
L 64.327868 224.229478 
L 64.327868 224.120101 
L 64.436119 217.897978 
L 64.441816 217.897978 
L 64.441816 217.809238 
L 64.550067 213.634327 
L 64.561462 213.601307 
L 64.561462 213.539396 
L 64.669712 210.883385 
L 64.681107 210.774008 
L 64.789357 208.751559 
L 64.795055 208.751559 
L 64.795055 208.642182 
L 64.903305 207.040733 
L 64.920398 206.947866 
L 64.920398 206.941675 
L 65.028648 204.956374 
L 65.034345 204.956374 
L 65.034345 204.875888 
L 65.142596 203.084577 
L 65.165386 202.9752 
L 65.273636 201.130232 
L 65.279333 201.130232 
L 65.279333 201.043556 
L 65.387584 199.815641 
L 65.410374 199.790876 
L 65.410374 199.778494 
L 65.518624 198.565025 
L 65.535716 198.465966 
L 65.632572 197.361875 
L 65.678151 197.260752 
L 65.786402 196.251592 
L 65.803494 196.164916 
L 65.803494 196.156661 
L 65.911744 195.081461 
L 65.917442 195.081461 
L 65.917442 195.069079 
L 66.025692 193.665748 
L 66.037087 193.66162 
L 66.037087 193.62241 
L 66.145338 192.522445 
L 66.16243 192.462597 
L 66.16243 192.437833 
L 66.27068 191.540113 
L 66.287772 191.436927 
L 66.396023 190.167738 
L 66.418813 190.081062 
L 66.527063 189.455754 
L 66.549853 189.375269 
L 66.658103 188.293878 
L 66.692288 188.225775 
L 66.692288 188.207202 
L 66.800538 187.299164 
L 66.811933 187.272335 
L 66.811933 187.220742 
L 66.920183 186.6429 
L 66.960065 186.543841 
L 66.960065 186.533523 
L 67.068316 185.476897 
L 67.1025 185.375774 
L 67.210751 184.432653 
L 67.250632 184.333594 
L 67.358883 183.594782 
L 67.375975 183.495723 
L 67.484226 182.560857 
L 67.49562 182.461798 
L 67.603871 181.846809 
L 67.632358 181.749814 
L 67.740608 181.161653 
L 67.774793 181.058467 
L 67.883043 180.121537 
L 67.905833 180.038988 
L 68.014083 179.159842 
L 68.031176 179.075229 
L 68.139426 178.241485 
L 68.167913 178.148618 
L 68.270466 177.306619 
L 68.287558 177.288046 
L 68.395809 176.759733 
L 68.424296 176.660674 
L 68.532546 175.837249 
L 68.566731 175.746445 
L 68.674981 175.296553 
L 68.692073 175.255279 
L 68.800324 174.673309 
L 68.817416 174.596951 
L 68.817416 174.57425 
L 68.925667 174.136741 
L 68.971246 174.037683 
L 69.079496 173.490796 
L 69.107983 173.424757 
L 69.216234 172.915018 
L 69.239023 172.826277 
L 69.347274 172.330984 
L 69.358669 172.242244 
L 69.449827 171.77997 
L 69.478314 171.775843 
L 69.586565 171.193873 
L 69.597959 171.131961 
L 69.70621 170.463315 
L 69.757486 170.36632 
L 69.865737 169.738949 
L 69.894224 169.672909 
L 70.002474 169.161106 
L 70.042356 169.051729 
L 70.144909 168.50897 
L 70.196186 168.405784 
L 70.304436 168.067333 
L 70.327226 167.96002 
L 70.429779 167.582359 
L 70.452569 167.4833 
L 70.560819 167.091193 
L 70.612096 166.983879 
L 70.720346 166.573198 
L 70.737438 166.54637 
L 70.845689 166.05314 
L 70.879873 165.974719 
L 70.982426 165.514509 
L 71.016611 165.413386 
L 71.124861 164.946985 
L 71.159046 164.8665 
L 71.261599 164.480584 
L 71.307178 164.404226 
L 71.415429 163.991481 
L 71.438218 163.900678 
L 71.546469 163.533335 
L 71.563561 163.45285 
L 71.671811 162.930728 
L 71.711693 162.864689 
L 71.819944 162.480836 
L 71.876918 162.400351 
L 71.985168 162.099048 
L 72.047839 161.995862 
L 72.15609 161.45723 
L 72.184577 161.358171 
L 72.292827 160.920662 
L 72.349801 160.813349 
L 72.458052 160.303609 
L 72.515026 160.212805 
L 72.623276 159.845463 
L 72.646066 159.752595 
L 72.754316 159.298576 
L 72.799896 159.19539 
L 72.908146 158.708352 
L 72.942331 158.605165 
L 73.050581 158.140828 
L 73.079068 158.039706 
L 73.187319 157.761103 
L 73.215806 157.664108 
L 73.324056 157.228663 
L 73.392425 157.139922 
L 73.500675 156.727178 
L 73.540557 156.619864 
L 73.648808 156.29586 
L 73.688689 156.196801 
L 73.79694 155.862478 
L 73.859611 155.757228 
L 73.967862 155.373376 
L 74.002046 155.266062 
L 74.110297 154.828553 
L 74.161573 154.731558 
L 74.269824 154.366279 
L 74.326798 154.263093 
L 74.435048 153.862731 
L 74.457838 153.792565 
L 74.566088 153.493325 
L 74.634457 153.383947 
L 74.742708 153.066134 
L 74.771195 152.989776 
L 74.771195 152.967076 
L 74.879445 152.649262 
L 74.925024 152.541949 
L 75.033275 152.166351 
L 75.078854 152.063165 
L 75.187104 151.656612 
L 75.232684 151.580254 
L 75.340934 151.233549 
L 75.380816 151.132426 
L 75.483369 150.928118 
L 75.528948 150.841441 
L 75.528948 150.826995 
L 75.637199 150.564902 
L 75.728357 150.46378 
L 75.836607 150.156285 
L 75.899279 150.055163 
L 76.007529 149.739413 
L 76.070201 149.634164 
L 76.172754 149.252375 
L 76.252517 149.151253 
L 76.360768 148.785974 
L 76.406347 148.680724 
L 76.514598 148.300999 
L 76.548782 148.220514 
L 76.657032 147.979058 
L 76.691217 147.869681 
L 76.799467 147.681882 
L 76.862139 147.582823 
L 76.970389 147.256755 
L 77.021666 147.174206 
L 77.129916 146.846074 
L 77.164101 146.744952 
L 77.272351 146.447776 
L 77.31793 146.369355 
L 77.426181 146.086625 
L 77.47176 145.979311 
L 77.580011 145.768811 
L 77.614195 145.686262 
L 77.722445 145.411787 
L 77.796512 145.312729 
L 77.904762 145.034126 
L 77.933249 144.976342 
L 78.0415 144.710122 
L 78.087079 144.6317 
L 78.195329 144.355161 
L 78.258001 144.264358 
L 78.366251 144.053858 
L 78.428922 143.946544 
L 78.537173 143.688579 
L 78.58845 143.591584 
L 78.6967 143.389339 
L 78.747977 143.327428 
L 78.856227 142.98485 
L 78.941688 142.883727 
L 79.044241 142.671164 
L 79.106913 142.578296 
L 79.215163 142.227463 
L 79.272137 142.151106 
L 79.380388 141.884886 
L 79.431664 141.775508 
L 79.539915 141.593901 
L 79.631073 141.484523 
L 79.733626 141.222431 
L 79.7906 141.117181 
L 79.898851 140.896362 
L 79.938732 140.799367 
L 80.041285 140.535211 
L 80.115352 140.477427 
L 80.217905 140.209143 
L 80.291971 140.101829 
L 80.400221 139.953241 
L 80.474288 139.85831 
L 80.582538 139.579707 
L 80.611025 139.47033 
L 80.719276 139.32587 
L 80.759157 139.249512 
L 80.867408 138.935826 
L 80.901592 138.842958 
L 81.009843 138.560228 
L 81.101001 138.450851 
L 81.209252 138.230033 
L 81.260528 138.197013 
L 81.368779 137.95143 
L 81.448542 137.858563 
L 81.556793 137.534558 
L 81.602372 137.441691 
L 81.710622 137.268338 
L 81.767596 137.167216 
L 81.870149 136.995927 
L 81.961308 136.905123 
L 82.069558 136.789555 
L 82.149322 136.688432 
L 82.257572 136.442849 
L 82.303152 136.333472 
L 82.411402 136.114717 
L 82.468376 136.023914 
L 82.576626 135.75563 
L 82.605113 135.658635 
L 82.713364 135.431625 
L 82.776035 135.330503 
L 82.884286 135.117939 
L 82.94126 135.016817 
L 83.04951 134.800126 
L 83.123576 134.69694 
L 83.231827 134.554543 
L 83.294498 134.449293 
L 83.397051 134.298641 
L 83.48821 134.189264 
L 83.59646 133.999402 
L 83.624947 133.898279 
L 83.733198 133.702226 
L 83.761685 133.603167 
L 83.761685 133.59904 
L 83.869935 133.40505 
L 83.921212 133.310118 
L 84.029462 133.128511 
L 84.092134 133.019133 
L 84.200384 132.884992 
L 84.217476 132.866418 
L 84.325727 132.649727 
L 84.371306 132.54035 
L 84.479557 132.263811 
L 84.55932 132.175071 
L 84.667571 131.979017 
L 84.735939 131.871704 
L 84.838493 131.698351 
L 84.906861 131.588974 
L 85.015112 131.397048 
L 85.083481 131.28767 
L 85.191731 131.068916 
L 85.220218 130.963666 
L 85.220218 130.959538 
L 85.328469 130.784122 
L 85.419627 130.678872 
L 85.527877 130.445671 
L 85.573457 130.348677 
L 85.681707 130.200089 
L 85.738681 130.092775 
L 85.841234 129.956569 
L 85.926695 129.853383 
L 86.034946 129.566526 
L 86.143196 129.457148 
L 86.245749 129.30856 
L 86.297026 129.201247 
L 86.405276 128.974237 
L 86.473645 128.873115 
L 86.581896 128.701826 
L 86.707238 128.592449 
L 86.815489 128.373694 
L 86.866765 128.278763 
L 86.975016 128.115729 
L 87.020595 128.014606 
L 87.128846 127.868082 
L 87.18582 127.762832 
L 87.288373 127.599798 
L 87.351044 127.494548 
L 87.459295 127.308813 
L 87.539058 127.207691 
L 87.647309 127.021956 
L 87.704283 126.916706 
L 87.812533 126.770182 
L 87.852415 126.660804 
L 87.960665 126.460623 
L 88.017639 126.361565 
L 88.120192 126.24806 
L 88.171469 126.163447 
L 88.274022 125.996286 
L 88.376575 125.886908 
L 88.484826 125.721811 
L 88.553194 125.639262 
L 88.661445 125.470036 
L 88.763998 125.377169 
L 88.872249 125.203816 
L 88.963407 125.113012 
L 89.071657 124.848856 
L 89.145724 124.741542 
L 89.248277 124.502151 
L 89.35083 124.392773 
L 89.45908 124.26895 
L 89.573028 124.1637 
L 89.681279 124.00273 
L 89.818016 123.893352 
L 89.926267 123.748892 
L 89.988938 123.664279 
L 90.097189 123.462034 
L 90.171255 123.379486 
L 90.273808 123.164858 
L 90.359269 123.061672 
L 90.467519 122.939913 
L 90.587165 122.836726 
L 90.695415 122.628291 
L 90.797968 122.523041 
L 90.906219 122.331114 
L 90.980285 122.23412 
L 91.088536 122.058703 
L 91.151207 121.963772 
L 91.259457 121.804865 
L 91.310734 121.705807 
L 91.418984 121.526263 
L 91.498748 121.431331 
L 91.606999 121.206386 
L 91.686762 121.105263 
L 91.795013 120.865871 
L 91.874776 120.760622 
L 91.983027 120.614097 
L 92.068488 120.510911 
L 92.176738 120.368514 
L 92.267896 120.261201 
L 92.376147 120.069275 
L 92.450213 119.961961 
L 92.558464 119.823692 
L 92.655319 119.714314 
L 92.76357 119.56779 
L 92.860426 119.460476 
L 92.968676 119.336653 
L 93.105414 119.229339 
L 93.213664 119.055987 
L 93.321915 118.950737 
L 93.430165 118.839296 
L 93.54981 118.754683 
L 93.658061 118.546247 
L 93.715035 118.440997 
L 93.823285 118.232562 
L 93.948628 118.129375 
L 94.045484 118.055081 
L 94.170827 117.949832 
L 94.279077 117.739332 
L 94.375933 117.632018 
L 94.484183 117.49994 
L 94.563947 117.392626 
L 94.672197 117.198637 
L 94.740566 117.099578 
L 94.848817 116.953054 
L 94.92858 116.843676 
L 95.036831 116.707471 
L 95.122292 116.612539 
L 95.230542 116.435059 
L 95.304608 116.325682 
L 95.412859 116.183285 
L 95.526807 116.073908 
L 95.635057 115.898491 
L 95.709123 115.805624 
L 95.811676 115.671482 
L 95.91423 115.568296 
L 96.016783 115.421771 
L 96.090849 115.351605 
L 96.199099 115.139041 
L 96.301653 115.029664 
L 96.409903 114.936797 
L 96.529548 114.827419 
L 96.637799 114.682959 
L 96.746049 114.579773 
L 96.8543 114.46214 
L 96.922669 114.361018 
L 97.030919 114.224812 
L 97.161959 114.12369 
L 97.27021 113.981293 
L 97.344276 113.890489 
L 97.452526 113.760475 
L 97.503803 113.657289 
L 97.606356 113.543784 
L 97.691817 113.459171 
L 97.79437 113.351858 
L 97.965292 113.248672 
L 98.073543 113.058809 
L 98.221675 112.951496 
L 98.329925 112.823545 
L 98.403991 112.728614 
L 98.512242 112.563516 
L 98.609098 112.466521 
L 98.717348 112.326188 
L 98.876875 112.223001 
L 98.985126 112.113624 
L 99.076284 112.010438 
L 99.184535 111.870105 
L 99.258601 111.760728 
L 99.366851 111.614203 
L 99.497891 111.508953 
L 99.606142 111.356238 
L 99.708695 111.250988 
L 99.816946 111.11891 
L 99.959381 111.009533 
L 100.067631 110.860945 
L 100.198671 110.753631 
L 100.301224 110.607107 
L 100.443659 110.505984 
L 100.55191 110.355333 
L 100.671555 110.245955 
L 100.768411 110.18198 
L 100.927938 110.087049 
L 101.036188 109.938461 
L 101.127347 109.833211 
L 101.235597 109.707324 
L 101.309663 109.602074 
L 101.417914 109.515398 
L 101.503375 109.412211 
L 101.611625 109.335854 
L 101.805337 109.226476 
L 101.913587 109.117099 
L 102.033233 109.009785 
L 102.141483 108.908663 
L 102.249734 108.799286 
L 102.346589 108.687845 
L 102.489024 108.586722 
L 102.574485 108.479409 
L 102.711223 108.378286 
L 102.813776 108.264782 
L 102.944816 108.16985 
L 103.053066 108.048091 
L 103.206896 107.938713 
L 103.315147 107.810763 
L 103.491766 107.703449 
L 103.577227 107.602327 
L 103.67978 107.495013 
L 103.782333 107.37119 
L 103.896281 107.261813 
L 104.004531 107.14418 
L 104.129874 107.040994 
L 104.238125 106.941936 
L 104.346375 106.832558 
L 104.454626 106.690161 
L 104.614153 106.584912 
L 104.722403 106.454897 
L 104.790772 106.347583 
L 104.893325 106.283608 
L 105.052852 106.178358 
L 105.161103 106.027706 
L 105.252261 105.922457 
L 105.252261 105.918329 
L 105.354814 105.850226 
L 105.457367 105.744976 
L 105.565618 105.662428 
L 105.679566 105.555114 
L 105.787816 105.456055 
L 105.930251 105.365251 
L 106.038502 105.243492 
L 106.180937 105.148561 
L 106.289187 105.068075 
L 106.357556 104.958698 
L 106.465806 104.851385 
L 106.562662 104.770899 
L 106.665215 104.663586 
L 106.733584 104.562463 
L 106.83044 104.467532 
L 106.944388 104.360219 
L 107.052638 104.22814 
L 107.132402 104.129082 
L 107.240652 104.019704 
L 107.314718 103.910327 
L 107.417271 103.794759 
L 107.582496 103.689509 
L 107.673654 103.609024 
L 107.855971 103.503774 
L 107.964221 103.355186 
L 108.043985 103.264382 
L 108.152235 103.099284 
L 108.328855 102.989907 
L 108.437105 102.907358 
L 108.528263 102.797981 
L 108.636514 102.721623 
L 108.767554 102.612246 
L 108.870107 102.517314 
L 109.046726 102.407937 
L 109.154977 102.304751 
L 109.308807 102.20982 
L 109.41136 102.131398 
L 109.553795 102.030276 
L 109.662045 101.933281 
L 109.775993 101.834222 
L 109.884244 101.731036 
L 110.049468 101.623723 
L 110.157719 101.528791 
L 110.328641 101.425605 
L 110.436891 101.32861 
L 110.573629 101.22336 
L 110.676182 101.128429 
L 110.778735 101.027307 
L 110.886985 100.934439 
L 111.046512 100.827126 
L 111.149065 100.756959 
L 111.240224 100.651709 
L 111.348474 100.579479 
L 111.485212 100.476293 
L 111.582068 100.338023 
L 111.741595 100.228646 
L 111.827056 100.166734 
L 111.997977 100.067676 
L 112.106228 99.976872 
L 112.214478 99.873686 
L 112.322729 99.774627 
L 112.465164 99.675568 
L 112.573414 99.54349 
L 112.750034 99.442368 
L 112.858284 99.337118 
L 112.977929 99.229804 
L 113.080483 99.169956 
L 113.342563 99.060579 
L 113.450813 98.982158 
L 113.564761 98.87278 
L 113.661617 98.823251 
L 113.792657 98.722129 
L 113.900908 98.618943 
L 114.071829 98.513693 
L 114.174383 98.451781 
L 114.328212 98.342404 
L 114.436463 98.239218 
L 114.590292 98.140159 
L 114.698543 98.036973 
L 114.852373 97.931723 
L 114.960623 97.830601 
L 115.131545 97.735669 
L 115.239796 97.630419 
L 115.422112 97.527233 
L 115.530363 97.452939 
L 115.701285 97.347689 
L 115.809535 97.261013 
L 115.92918 97.1537 
L 116.037431 97.036067 
L 116.242537 96.932881 
L 116.339393 96.823504 
L 116.487525 96.71619 
L 116.595776 96.62745 
L 116.772395 96.5222 
L 116.874948 96.464416 
L 117.125633 96.355039 
L 117.233884 96.253916 
L 117.393411 96.146603 
L 117.501662 96.070245 
L 117.661189 95.960868 
L 117.769439 95.896892 
L 117.894782 95.79577 
L 118.003032 95.694648 
L 118.179652 95.587334 
L 118.287902 95.45732 
L 118.447429 95.35207 
L 118.549982 95.298413 
L 118.726602 95.189036 
L 118.834852 95.127124 
L 118.965892 95.023938 
L 119.074143 94.893923 
L 119.182393 94.788673 
L 119.290644 94.728826 
L 119.438776 94.625639 
L 119.547027 94.522453 
L 119.752133 94.423395 
L 119.860383 94.322272 
L 120.031305 94.225277 
L 120.128161 94.136537 
L 120.321872 94.039542 
L 120.418728 93.917783 
L 120.595347 93.808405 
L 120.703598 93.71141 
L 120.868822 93.612352 
L 120.965678 93.515357 
L 121.11381 93.405979 
L 121.222061 93.302793 
L 121.353101 93.19548 
L 121.461352 93.117058 
L 121.626576 93.007681 
L 121.729129 92.925132 
L 121.900051 92.815755 
L 122.002604 92.73527 
L 122.202013 92.63002 
L 122.310263 92.557789 
L 122.521067 92.448412 
L 122.629318 92.398883 
L 122.800239 92.289506 
L 122.897095 92.229658 
L 123.06232 92.124408 
L 123.159175 92.054241 
L 123.307308 91.944864 
L 123.415558 91.864379 
L 123.58648 91.761193 
L 123.694731 91.688962 
L 123.837165 91.579585 
L 123.945416 91.521801 
L 124.030877 91.428933 
L 124.13343 91.338129 
L 124.349931 91.234943 
L 124.458182 91.129693 
L 124.589222 91.020316 
L 124.697472 90.962532 
L 124.862697 90.855218 
L 124.970947 90.760287 
L 125.130474 90.65091 
L 125.233027 90.588998 
L 125.403949 90.481685 
L 125.5122 90.421837 
L 125.671727 90.324842 
L 125.779977 90.242293 
L 125.950899 90.134979 
L 126.05915 90.075131 
L 126.315533 89.965754 
L 126.423783 89.922416 
L 126.58331 89.815102 
L 126.685863 89.685088 
L 126.913759 89.579838 
L 127.016312 89.464269 
L 127.238511 89.356956 
L 127.346761 89.270279 
L 127.472104 89.160902 
L 127.580354 89.088672 
L 127.802553 88.979295 
L 127.910803 88.86579 
L 128.064633 88.758476 
L 128.172884 88.669736 
L 128.343805 88.562423 
L 128.446359 88.471619 
L 128.622978 88.362242 
L 128.725531 88.287948 
L 128.845176 88.182698 
L 128.947729 88.147614 
L 129.124349 88.040301 
L 129.221204 87.968071 
L 129.409218 87.862821 
L 129.511772 87.817419 
L 129.71118 87.710105 
L 129.819431 87.639939 
L 130.013142 87.530561 
L 130.121393 87.46865 
L 130.28092 87.361336 
L 130.38917 87.307679 
L 130.560092 87.198302 
L 130.662645 87.144645 
L 130.867752 87.041459 
L 130.976002 86.979547 
L 131.107042 86.87017 
L 131.215293 86.795876 
L 131.426096 86.688563 
L 131.534347 86.599822 
L 131.79073 86.492509 
L 131.89898 86.438852 
L 132.064205 86.333602 
L 132.172455 86.294392 
L 132.354772 86.197397 
L 132.451628 86.14374 
L 132.668129 86.036426 
L 132.764984 85.972451 
L 132.975788 85.867201 
L 133.084039 85.774333 
L 133.283447 85.669084 
L 133.391698 85.611299 
L 133.642383 85.520496 
L 133.739239 85.44001 
L 133.995622 85.330633 
L 134.098175 85.287295 
L 134.297584 85.177918 
L 134.405834 85.074732 
L 134.616638 84.965354 
L 134.724889 84.909634 
L 134.981271 84.800256 
L 135.083824 84.752791 
L 135.31172 84.643414 
L 135.419971 84.604203 
L 135.642169 84.494825 
L 135.75042 84.43085 
L 135.98971 84.321473 
L 136.097961 84.257497 
L 136.331554 84.150184 
L 136.439805 84.108909 
L 136.627819 84.001596 
L 136.736069 83.935557 
L 136.918386 83.830307 
L 137.026636 83.753949 
L 137.226045 83.644572 
L 137.334296 83.551704 
L 137.49952 83.444391 
L 137.607771 83.386606 
L 137.795785 83.279293 
L 137.904035 83.182298 
L 138.04647 83.077048 
L 138.149023 83.008945 
L 138.337037 82.905759 
L 138.422498 82.837656 
L 138.610512 82.732406 
L 138.718763 82.682877 
L 138.935264 82.5735 
L 139.043514 82.476505 
L 139.220134 82.371255 
L 139.328384 82.303152 
L 139.482214 82.197902 
L 139.590464 82.135991 
L 139.778478 82.028677 
L 139.886729 81.937873 
L 140.137414 81.828496 
L 140.245665 81.737692 
L 140.587509 81.630379 
L 140.695759 81.591168 
L 140.878076 81.481791 
L 140.986326 81.434325 
L 141.214222 81.331139 
L 141.311078 81.279546 
L 141.527579 81.17636 
L 141.635829 81.102066 
L 141.823843 80.992688 
L 141.932094 80.908076 
L 142.165687 80.80489 
L 142.262543 80.732659 
L 142.53032 80.623282 
L 142.638571 80.56137 
L 142.849375 80.458184 
L 142.957625 80.394209 
L 143.196916 80.284832 
L 143.299469 80.208474 
L 143.618523 80.109415 
L 143.726774 80.024802 
L 143.960367 79.92368 
L 144.06292 79.830813 
L 144.239539 79.723499 
L 144.330697 79.671906 
L 144.649752 79.564592 
L 144.758002 79.510936 
L 144.968806 79.401558 
L 145.071359 79.343774 
L 145.379018 79.238524 
L 145.481571 79.18074 
L 145.726559 79.073426 
L 145.83481 79.023897 
L 146.091193 78.916583 
L 146.199443 78.848481 
L 146.450129 78.741167 
L 146.546984 78.701956 
L 146.814762 78.596706 
L 146.911618 78.534795 
L 147.19079 78.429545 
L 147.293343 78.369697 
L 147.589608 78.26032 
L 147.686464 78.204599 
L 147.931452 78.095222 
L 148.02261 78.047756 
L 148.233413 77.938379 
L 148.341664 77.905359 
L 148.558165 77.795982 
L 148.666416 77.705178 
L 148.951285 77.597865 
L 149.053838 77.502934 
L 149.37859 77.397684 
L 149.486841 77.350218 
L 149.879961 77.242904 
L 149.988211 77.162419 
L 150.290173 77.053042 
L 150.392726 76.989067 
L 150.683294 76.879689 
L 150.780149 76.811586 
L 151.01944 76.702209 
L 151.12769 76.646489 
L 151.378376 76.543303 
L 151.475232 76.499964 
L 151.839865 76.390587 
L 151.936721 76.328675 
L 152.181709 76.219298 
L 152.289959 76.132622 
L 152.512158 76.029436 
L 152.614711 75.996416 
L 152.967949 75.889103 
L 153.0762 75.841637 
L 153.332583 75.73226 
L 153.429438 75.686858 
L 153.748492 75.581608 
L 153.839651 75.50525 
L 154.153008 75.404128 
L 154.261258 75.333961 
L 154.472062 75.232839 
L 154.580312 75.168863 
L 154.870879 75.059486 
L 154.97913 75.030594 
L 155.252605 74.921217 
L 155.360855 74.882006 
L 155.65712 74.785011 
L 155.759673 74.721036 
L 156.038845 74.613722 
L 156.141399 74.562129 
L 156.386387 74.454815 
L 156.494637 74.417668 
L 156.813691 74.316546 
L 156.916244 74.240188 
L 157.184022 74.134938 
L 157.292273 74.099855 
L 157.58284 73.992541 
L 157.69109 73.932694 
L 157.97596 73.82538 
L 158.061421 73.775851 
L 158.351988 73.670601 
L 158.460239 73.623135 
L 158.773595 73.513758 
L 158.881846 73.499312 
L 159.195203 73.389935 
L 159.297756 73.317704 
L 159.514257 73.212454 
L 159.622507 73.164989 
L 159.964351 73.055611 
L 160.072602 73.008146 
L 160.346077 72.898769 
L 160.454327 72.843048 
L 160.84175 72.733671 
L 160.95 72.665568 
L 161.343121 72.556191 
L 161.451371 72.514916 
L 161.741938 72.409666 
L 161.833097 72.349818 
L 162.100874 72.246632 
L 162.209125 72.184721 
L 162.511087 72.075343 
L 162.619337 72.019623 
L 162.852931 71.912309 
L 162.955484 71.881353 
L 163.257446 71.778167 
L 163.359999 71.732765 
L 163.587895 71.625452 
L 163.696145 71.553221 
L 163.986712 71.445908 
L 164.083568 71.419079 
L 164.414017 71.309702 
L 164.51657 71.272555 
L 164.790045 71.163178 
L 164.892598 71.128095 
L 165.200258 71.024908 
L 165.308508 70.979507 
L 165.581983 70.872193 
L 165.684536 70.812345 
L 165.980801 70.705031 
L 166.077657 70.667884 
L 166.385316 70.558507 
L 166.465079 70.527551 
L 166.761344 70.43262 
L 166.869595 70.378963 
L 167.194346 70.269586 
L 167.302597 70.234503 
L 167.570374 70.125125 
L 167.678625 70.067341 
L 167.986284 69.957964 
L 168.094535 69.920817 
L 168.34522 69.81144 
L 168.447773 69.766038 
L 168.766827 69.660788 
L 168.863683 69.627768 
L 169.114368 69.522518 
L 169.222619 69.47918 
L 169.553068 69.37393 
L 169.661318 69.332656 
L 169.923399 69.233597 
L 170.031649 69.194387 
L 170.384888 69.095328 
L 170.493138 69.012779 
L 170.721034 68.905465 
L 170.829284 68.837363 
L 171.176826 68.727985 
L 171.279379 68.694966 
L 171.552854 68.589716 
L 171.615525 68.573206 
L 171.974461 68.465893 
L 172.04283 68.437 
L 172.373279 68.327623 
L 172.475832 68.288412 
L 172.817676 68.179035 
L 172.925926 68.133633 
L 173.330441 68.024256 
L 173.432994 67.980918 
L 173.746351 67.873604 
L 173.854602 67.834393 
L 174.162261 67.725016 
L 174.264814 67.685805 
L 174.561079 67.576428 
L 174.657934 67.545472 
L 174.988383 67.438159 
L 175.096634 67.394821 
L 175.398596 67.285443 
L 175.501149 67.225595 
L 175.842993 67.118282 
L 175.939848 67.081135 
L 176.287389 66.980012 
L 176.39564 66.949056 
L 176.714694 66.849998 
L 176.822945 66.816978 
L 177.130604 66.707601 
L 177.238855 66.674581 
L 177.592093 66.565204 
L 177.700344 66.525993 
L 178.03649 66.416616 
L 178.14474 66.38566 
L 178.520769 66.284538 
L 178.629019 66.220562 
L 178.862612 66.117376 
L 178.970863 66.051337 
L 179.426654 65.94196 
L 179.529208 65.90894 
L 179.922328 65.799563 
L 179.990697 65.778926 
L 180.423699 65.669549 
L 180.531949 65.62621 
L 180.87949 65.518897 
L 180.987741 65.475559 
L 181.209939 65.368245 
L 181.284005 65.331098 
L 181.585967 65.223784 
L 181.694218 65.186637 
L 181.990482 65.079324 
L 182.081641 65.031858 
L 182.469064 64.922481 
L 182.577314 64.82755 
L 182.919158 64.720236 
L 183.021711 64.697535 
L 183.488898 64.592285 
L 183.597148 64.548947 
L 183.916202 64.43957 
L 184.024453 64.402423 
L 184.548613 64.293046 
L 184.656864 64.260026 
L 184.99301 64.154776 
L 185.095563 64.109374 
L 185.448802 64.006188 
L 185.557052 63.952531 
L 185.961567 63.849345 
L 186.069818 63.791561 
L 186.50282 63.684247 
L 186.605373 63.6471 
L 187.095349 63.537723 
L 187.192205 63.490258 
L 187.591022 63.38088 
L 187.687878 63.345797 
L 188.01263 63.23642 
L 188.115183 63.18689 
L 188.462724 63.077513 
L 188.565277 63.044493 
L 188.9527 62.939244 
L 189.06095 62.885587 
L 189.408492 62.778273 
L 189.471163 62.753509 
L 190.001021 62.644131 
L 190.109271 62.611112 
L 190.513786 62.505862 
L 190.622037 62.462524 
L 191.00946 62.357274 
L 191.11771 62.315999 
L 191.607686 62.206622 
L 191.715937 62.169475 
L 192.017899 62.066289 
L 192.126149 62.031206 
L 192.445203 61.921828 
L 192.553454 61.895 
L 192.923785 61.791814 
L 193.032035 61.723711 
L 193.465037 61.620525 
L 193.573288 61.54004 
L 193.932224 61.43479 
L 194.023382 61.414153 
L 194.513358 61.304775 
L 194.615911 61.280011 
L 195.0774 61.170633 
L 195.185651 61.11904 
L 195.521797 61.009663 
L 195.62435 60.97458 
L 196.097234 60.865202 
L 196.182695 60.832183 
L 196.615697 60.722806 
L 196.71825 60.67534 
L 197.122765 60.565963 
L 197.208226 60.545325 
L 197.692505 60.440076 
L 197.78936 60.417375 
L 198.245152 60.310061 
L 198.307823 60.285296 
L 198.951629 60.180047 
L 199.03709 60.149091 
L 199.447303 60.039713 
L 199.544158 60.008758 
L 199.994253 59.901444 
L 200.102503 59.862233 
L 200.541203 59.75492 
L 200.649453 59.732219 
L 201.036876 59.624905 
L 201.145127 59.585694 
L 201.561036 59.482508 
L 201.66359 59.45568 
L 202.16496 59.346303 
L 202.273211 59.296773 
L 202.780279 59.187396 
L 202.877135 59.162631 
L 203.406993 59.053254 
L 203.515243 59.018171 
L 203.93685 58.908793 
L 204.033706 58.87371 
L 204.466708 58.766397 
L 204.569261 58.739568 
L 204.939592 58.630191 
L 205.047842 58.60749 
L 205.526424 58.498113 
L 205.623279 58.471284 
L 206.005005 58.361907 
L 206.107558 58.339206 
L 206.643113 58.233956 
L 206.751364 58.190618 
L 207.167274 58.085368 
L 207.269827 58.054412 
L 207.737013 57.945035 
L 207.845264 57.909952 
L 208.226989 57.800574 
L 208.323845 57.767555 
L 208.734057 57.658178 
L 208.836611 57.608648 
L 209.292402 57.499271 
L 209.400653 57.478634 
L 209.879234 57.373384 
L 209.987484 57.334173 
L 210.477461 57.228923 
L 210.585711 57.208286 
L 210.973134 57.098909 
L 211.075687 57.07208 
L 211.520084 56.962703 
L 211.61694 56.933811 
L 212.067034 56.824434 
L 212.175284 56.776968 
L 212.613984 56.669655 
L 212.71084 56.624253 
L 213.138144 56.516939 
L 213.189421 56.492174 
L 213.645212 56.382797 
L 213.719279 56.366287 
L 214.289018 56.261037 
L 214.397269 56.228018 
L 214.727718 56.120704 
L 214.830271 56.093876 
L 215.274668 55.988626 
L 215.377221 55.94116 
L 215.827315 55.831783 
L 215.935566 55.817337 
L 216.368568 55.714151 
L 216.465423 55.677004 
L 216.955399 55.567627 
L 217.06365 55.540798 
L 217.593508 55.433485 
L 217.696061 55.402529 
L 218.106273 55.295215 
L 218.203129 55.272514 
L 218.767171 55.163137 
L 218.869724 55.138372 
L 219.416674 55.03725 
L 219.51353 55.012485 
L 220.014901 54.903108 
L 220.123151 54.865961 
L 220.578943 54.756584 
L 220.687193 54.733883 
L 221.382276 54.630697 
L 221.490526 54.574976 
L 221.957713 54.465599 
L 222.060266 54.43877 
L 222.481873 54.331457 
L 222.590124 54.306692 
L 223.119981 54.197315 
L 223.21114 54.184933 
L 223.957499 54.075555 
L 224.060052 54.046663 
L 224.515843 53.937286 
L 224.589909 53.914585 
L 225.11407 53.805208 
L 225.210926 53.776316 
L 225.752178 53.666938 
L 225.860429 53.642174 
L 226.276339 53.532796 
L 226.378892 53.491522 
L 226.931539 53.384208 
L 227.03979 53.344998 
L 227.592437 53.23562 
L 227.683595 53.208792 
L 228.179269 53.099415 
L 228.281822 53.07465 
L 228.840167 52.965273 
L 228.948417 52.919871 
L 229.432696 52.810493 
L 229.535249 52.781601 
L 230.03662 52.678415 
L 230.14487 52.643332 
L 230.743097 52.533955 
L 230.828558 52.513317 
L 231.472363 52.408067 
L 231.574916 52.364729 
L 232.093379 52.255352 
L 232.20163 52.238842 
L 232.754277 52.131529 
L 232.862528 52.1047 
L 233.512031 51.995323 
L 233.574702 51.980877 
L 234.019099 51.8715 
L 234.121652 51.848799 
L 234.708484 51.739421 
L 234.811037 51.722912 
L 235.340895 51.613534 
L 235.432053 51.57226 
L 236.041675 51.462883 
L 236.149925 51.43399 
L 236.713967 51.324613 
L 236.810823 51.28953 
L 237.340681 51.182216 
L 237.448931 51.143006 
L 237.984487 51.035692 
L 238.08704 51.010927 
L 238.662477 50.90155 
L 238.747938 50.882977 
L 239.460112 50.773599 
L 239.568362 50.752962 
L 240.143799 50.643585 
L 240.25205 50.614693 
L 240.77621 50.507379 
L 240.878763 50.478487 
L 241.442806 50.373237 
L 241.516872 50.356727 
L 242.041032 50.249414 
L 242.126493 50.234968 
L 242.958313 50.12559 
L 243.032379 50.109081 
L 243.824317 49.999703 
L 243.875594 49.983194 
L 244.582071 49.87588 
L 244.690321 49.849052 
L 245.362614 49.741738 
L 245.45947 49.716973 
L 246.200131 49.611723 
L 246.308381 49.57664 
L 246.918003 49.467263 
L 247.026253 49.444562 
L 247.658664 49.335185 
L 247.75552 49.324866 
L 247.766915 49.324866 
L 248.530366 49.161832 
L 249.276725 49.052455 
L 249.384975 49.017371 
L 250.057268 48.907994 
L 250.165518 48.889421 
L 250.911877 48.780043 
L 251.003035 48.759406 
L 251.521498 48.650029 
L 251.624052 48.631455 
L 252.398897 48.522078 
L 252.501451 48.497313 
L 253.162348 48.387936 
L 253.264902 48.377617 
L 254.051142 48.26824 
L 254.113813 48.257921 
L 254.655066 48.148544 
L 254.717737 48.136162 
L 255.503978 48.026785 
L 255.595136 48.016466 
L 256.181968 47.907089 
L 256.233245 47.900897 
L 256.916932 47.79152 
L 257.025183 47.772947 
L 257.697475 47.665633 
L 257.805726 47.636741 
L 258.643243 47.527364 
L 258.740099 47.510854 
L 259.543431 47.401477 
L 259.651682 47.370521 
L 260.460712 47.263207 
L 260.563265 47.22606 
L 261.463454 47.116683 
L 261.571704 47.098109 
L 262.460498 46.988732 
L 262.563051 46.963967 
L 263.44045 46.856654 
L 263.548701 46.836017 
L 264.562837 46.726639 
L 264.642601 46.714257 
L 265.491512 46.60488 
L 265.599763 46.582179 
L 266.311937 46.472801 
L 266.403096 46.46661 
L 267.183639 46.359297 
L 267.29189 46.334532 
L 268.004064 46.225155 
L 268.106617 46.202454 
L 268.944134 46.093077 
L 269.012503 46.07863 
L 269.656309 45.969253 
L 269.753164 45.944488 
L 270.539405 45.835111 
L 270.596379 45.818601 
L 271.342738 45.713352 
L 271.439594 45.676205 
L 272.2999 45.568891 
L 272.385361 45.550317 
L 273.28555 45.443004 
L 273.376708 45.426494 
L 274.436424 45.317117 
L 274.544674 45.292352 
L 275.313823 45.182975 
L 275.416376 45.172656 
L 276.202616 45.063279 
L 276.293775 45.042642 
L 277.074318 44.933264 
L 277.182568 44.92501 
L 278.025783 44.815632 
L 278.128336 44.792931 
L 278.897484 44.685618 
L 278.988643 44.675299 
L 279.774883 44.570049 
L 279.774883 44.565922 
L 279.883134 44.543221 
L 280.92006 44.433844 
L 281.02831 44.41527 
L 282.201974 44.305893 
L 282.310224 44.289383 
L 283.08507 44.182069 
L 283.193321 44.161432 
L 283.945377 44.052055 
L 284.030838 44.037609 
L 284.737315 43.928232 
L 284.828473 43.909658 
L 285.814123 43.800281 
L 285.899584 43.783771 
L 286.976391 43.674394 
L 287.06755 43.657884 
L 287.893672 43.548507 
L 287.996225 43.523742 
L 288.993269 43.414365 
L 289.090125 43.391664 
L 290.013103 43.282286 
L 290.109959 43.257522 
L 291.283622 43.148144 
L 291.351991 43.137826 
L 292.314851 43.030512 
L 292.406009 43.014002 
L 293.158066 42.904625 
L 293.266316 42.869542 
L 294.103833 42.762228 
L 294.172202 42.753973 
L 295.043904 42.64666 
L 295.140759 42.626023 
L 296.109316 42.518709 
L 296.21187 42.500136 
L 297.180427 42.390758 
L 297.265888 42.382503 
L 298.325603 42.273126 
L 298.416762 42.248361 
L 299.664491 42.141048 
L 299.772742 42.120411 
L 300.71851 42.013097 
L 300.752694 42.006906 
L 301.840896 41.901656 
L 301.869383 41.893401 
L 303.185482 41.786088 
L 303.293732 41.767514 
L 304.450304 41.658137 
L 304.52437 41.645754 
L 305.686639 41.536377 
L 305.772099 41.517804 
L 306.905881 41.408426 
L 307.014132 41.385725 
L 308.085242 41.276348 
L 308.165006 41.263966 
L 309.68621 41.154588 
L 309.703302 41.146334 
L 311.144744 41.03902 
L 311.201717 41.026638 
L 312.517816 40.919324 
L 312.603277 40.906942 
L 313.845309 40.797564 
L 313.942165 40.781055 
L 315.269658 40.671677 
L 315.332329 40.659295 
L 316.540177 40.549918 
L 316.614243 40.537535 
L 317.953131 40.428158 
L 318.04429 40.419903 
L 319.22365 40.310526 
L 319.24644 40.306399 
L 320.73346 40.197021 
L 320.841711 40.186703 
L 322.123625 40.077325 
L 322.203388 40.067007 
L 323.508092 39.957629 
L 323.547974 39.949375 
L 324.727335 39.842061 
L 324.807098 39.829679 
L 326.04913 39.720301 
L 326.157381 39.705855 
L 327.604519 39.596478 
L 327.678586 39.582032 
L 328.869341 39.472655 
L 328.954802 39.462336 
L 330.18544 39.355022 
L 330.248111 39.346768 
L 331.888961 39.23739 
L 331.928843 39.229135 
L 333.256336 39.123886 
L 333.364586 39.109439 
L 334.77754 39.000062 
L 334.880094 38.981489 
L 336.344324 38.872111 
L 336.406996 38.859729 
L 337.905411 38.752415 
L 337.996569 38.735906 
L 339.597537 38.626528 
L 339.682998 38.61621 
L 341.244085 38.506832 
L 341.278269 38.500641 
L 342.867842 38.391264 
L 342.970395 38.378882 
L 344.913207 38.269504 
L 344.970181 38.257122 
L 347.078218 38.147745 
L 347.180771 38.13949 
L 348.525356 38.030113 
L 348.60512 38.025985 
L 350.22318 37.916608 
L 350.308641 37.904225 
L 352.530625 37.796912 
L 352.610389 37.78453 
L 354.638662 37.675152 
L 354.684241 37.664834 
L 356.678329 37.555456 
L 356.746698 37.547201 
L 358.210929 37.437824 
L 358.267903 37.431633 
L 360.546861 37.322256 
L 360.655111 37.305746 
L 363.139176 37.196369 
L 363.207545 37.188114 
L 365.526385 37.078736 
L 365.560569 37.070482 
L 367.754066 36.961104 
L 367.862317 36.956977 
L 370.745199 36.8476 
L 370.802173 36.841408 
L 373.679358 36.732031 
L 373.759121 36.72584 
L 376.436897 36.616463 
L 376.493871 36.610271 
L 379.638834 36.502958 
L 379.747084 36.494703 
L 383.683984 36.385326 
L 383.695379 36.379135 
L 387.182185 36.269757 
L 387.19358 36.26563 
L 387.227764 36.26563 
L 391.990787 36.156253 
L 391.990787 36.154189 
L 396.787994 36.044811 
L 396.822179 36.040684 
L 400.86733 35.960199 
L 400.86733 35.960199 
" style="fill:none;stroke:#1f77b4;stroke-linecap:square;stroke-width:1.5;"/>
   </g>
   <g id="line2d_14">
    <path clip-path="url(#p1af9198534)" d="M 64.21392 236.801676 
L 400.86733 35.960199 
" style="fill:none;stroke:#ff7f0e;stroke-dasharray:5.55,2.4;stroke-dashoffset:0;stroke-width:1.5;"/>
   </g>
   <g id="patch_3">
    <path d="M 47.38125 246.84375 
L 47.38125 25.918125 
" style="fill:none;stroke:#000000;stroke-linecap:square;stroke-linejoin:miter;stroke-width:0.8;"/>
   </g>
   <g id="patch_4">
    <path d="M 417.7 246.84375 
L 417.7 25.918125 
" style="fill:none;stroke:#000000;stroke-linecap:square;stroke-linejoin:miter;stroke-width:0.8;"/>
   </g>
   <g id="patch_5">
    <path d="M 47.38125 246.84375 
L 417.7 246.84375 
" style="fill:none;stroke:#000000;stroke-linecap:square;stroke-linejoin:miter;stroke-width:0.8;"/>
   </g>
   <g id="patch_6">
    <path d="M 47.38125 25.918125 
L 417.7 25.918125 
" style="fill:none;stroke:#000000;stroke-linecap:square;stroke-linejoin:miter;stroke-width:0.8;"/>
   </g>
   <g id="text_15">
    <text style="font-family:DejaVu Sans;font-size:12px;font-style:normal;font-weight:normal;text-anchor:middle;" transform="rotate(-0, 232.540625, 19.918125)" x="232.540625" y="19.918125">ROC (AUC: 0.85)</text>
   </g>
  </g>
 </g>
 <defs>
  <clipPath id="p1af9198534">
   <rect height="220.925625" width="370.31875" x="47.38125" y="25.918125"/>
  </clipPath>
 </defs>
</svg>
