<?xml version="1.0" encoding="utf-8" standalone="no"?>
<!DOCTYPE svg PUBLIC "-//W3C//DTD SVG 1.1//EN"
  "http://www.w3.org/Graphics/SVG/1.1/DTD/svg11.dtd">
<!-- Created with matplotlib (https://matplotlib.org/) -->
<svg height="576pt" version="1.1" viewBox="0 0 576 576" width="576pt" xmlns="http://www.w3.org/2000/svg" xmlns:xlink="http://www.w3.org/1999/xlink">
 <metadata>
  <rdf:RDF xmlns:cc="http://creativecommons.org/ns#" xmlns:dc="http://purl.org/dc/elements/1.1/" xmlns:rdf="http://www.w3.org/1999/02/22-rdf-syntax-ns#">
   <cc:Work>
    <dc:type rdf:resource="http://purl.org/dc/dcmitype/StillImage"/>
    <dc:date>2024-02-19T16:50:29.613837</dc:date>
    <dc:format>image/svg+xml</dc:format>
    <dc:creator>
     <cc:Agent>
      <dc:title>Matplotlib v3.3.4, https://matplotlib.org/</dc:title>
     </cc:Agent>
    </dc:creator>
   </cc:Work>
  </rdf:RDF>
 </metadata>
 <defs>
  <style type="text/css">*{stroke-linecap:butt;stroke-linejoin:round;}</style>
 </defs>
 <g id="figure_1">
  <g id="patch_1">
   <path d="M 0 576 
L 576 576 
L 576 0 
L 0 0 
z
" style="fill:none;"/>
  </g>
  <g id="axes_1">
   <g id="patch_2">
    <path d="M 81.996875 504.13125 
L 517.696534 504.13125 
L 517.696534 21.6 
L 81.996875 21.6 
z
" style="fill:#ffffff;"/>
   </g>
   <g id="PathCollection_1">
    <path clip-path="url(#p3005b3fb27)" d="M 190.020122 310.173535 
C 190.957756 310.173535 191.857114 309.801008 192.520122 309.138001 
C 193.183129 308.474993 193.555656 307.575635 193.555656 306.638001 
C 193.555656 305.700366 193.183129 304.801008 192.520122 304.138001 
C 191.857114 303.474993 190.957756 303.102467 190.020122 303.102467 
C 189.082487 303.102467 188.183129 303.474993 187.520122 304.138001 
C 186.857114 304.801008 186.484588 305.700366 186.484588 306.638001 
C 186.484588 307.575635 186.857114 308.474993 187.520122 309.138001 
C 188.183129 309.801008 189.082487 310.173535 190.020122 310.173535 
z
" style="fill:#1f77b4;stroke:#ffffff;stroke-width:0.565685;"/>
    <path clip-path="url(#p3005b3fb27)" d="M 214.551476 269.543671 
L 216.319243 267.775904 
L 218.08701 269.543671 
L 219.854777 267.775904 
L 218.08701 266.008137 
L 219.854777 264.24037 
L 218.08701 262.472603 
L 216.319243 264.24037 
L 214.551476 262.472603 
L 212.783709 264.24037 
L 214.551476 266.008137 
L 212.783709 267.775904 
z
" style="fill:#1f77b4;stroke:#ffffff;stroke-width:0.565685;"/>
    <path clip-path="url(#p3005b3fb27)" d="M 192.820072 265.103074 
C 193.757707 265.103074 194.657065 264.730548 195.320072 264.067541 
C 195.98308 263.404533 196.355606 262.505175 196.355606 261.567541 
C 196.355606 260.629906 195.98308 259.730548 195.320072 259.067541 
C 194.657065 258.404533 193.757707 258.032007 192.820072 258.032007 
C 191.882438 258.032007 190.98308 258.404533 190.320072 259.067541 
C 189.657065 259.730548 189.284538 260.629906 189.284538 261.567541 
C 189.284538 262.505175 189.657065 263.404533 190.320072 264.067541 
C 190.98308 264.730548 191.882438 265.103074 192.820072 265.103074 
z
" style="fill:#1f77b4;stroke:#ffffff;stroke-width:0.565685;"/>
    <path clip-path="url(#p3005b3fb27)" d="M 223.654507 229.641789 
L 223.654507 234.641789 
L 228.654507 234.641789 
L 228.654507 229.641789 
z
" style="fill:#1f77b4;stroke:#ffffff;stroke-width:0.565685;"/>
    <path clip-path="url(#p3005b3fb27)" d="M 208.807455 260.740338 
L 208.807455 265.740338 
L 213.807455 265.740338 
L 213.807455 260.740338 
z
" style="fill:#1f77b4;stroke:#ffffff;stroke-width:0.565685;"/>
    <path clip-path="url(#p3005b3fb27)" d="M 226.176143 211.133571 
C 227.113778 211.133571 228.013135 210.761044 228.676143 210.098037 
C 229.339151 209.435029 229.711677 208.535671 229.711677 207.598037 
C 229.711677 206.660402 229.339151 205.761044 228.676143 205.098037 
C 228.013135 204.435029 227.113778 204.062503 226.176143 204.062503 
C 225.238508 204.062503 224.339151 204.435029 223.676143 205.098037 
C 223.013135 205.761044 222.640609 206.660402 222.640609 207.598037 
C 222.640609 208.535671 223.013135 209.435029 223.676143 210.098037 
C 224.339151 210.761044 225.238508 211.133571 226.176143 211.133571 
z
" style="fill:#1f77b4;stroke:#ffffff;stroke-width:0.565685;"/>
    <path clip-path="url(#p3005b3fb27)" d="M 497.892004 47.068773 
C 498.829639 47.068773 499.728996 46.696246 500.392004 46.033239 
C 501.055012 45.370231 501.427538 44.470873 501.427538 43.533239 
C 501.427538 42.595604 501.055012 41.696246 500.392004 41.033239 
C 499.728996 40.370231 498.829639 39.997705 497.892004 39.997705 
C 496.95437 39.997705 496.055012 40.370231 495.392004 41.033239 
C 494.728996 41.696246 494.35647 42.595604 494.35647 43.533239 
C 494.35647 44.470873 494.728996 45.370231 495.392004 46.033239 
C 496.055012 46.696246 496.95437 47.068773 497.892004 47.068773 
z
" style="fill:#1f77b4;stroke:#ffffff;stroke-width:0.565685;"/>
    <path clip-path="url(#p3005b3fb27)" d="M 177.290454 306.090241 
C 178.228089 306.090241 179.127447 305.717715 179.790454 305.054707 
C 180.453462 304.3917 180.825988 303.492342 180.825988 302.554707 
C 180.825988 301.617073 180.453462 300.717715 179.790454 300.054707 
C 179.127447 299.3917 178.228089 299.019173 177.290454 299.019173 
C 176.35282 299.019173 175.453462 299.3917 174.790454 300.054707 
C 174.127447 300.717715 173.75492 301.617073 173.75492 302.554707 
C 173.75492 303.492342 174.127447 304.3917 174.790454 305.054707 
C 175.453462 305.717715 176.35282 306.090241 177.290454 306.090241 
z
" style="fill:#1f77b4;stroke:#ffffff;stroke-width:0.565685;"/>
    <path clip-path="url(#p3005b3fb27)" d="M 213.688412 263.142722 
C 214.626046 263.142722 215.525404 262.770196 216.188412 262.107188 
C 216.85142 261.44418 217.223946 260.544823 217.223946 259.607188 
C 217.223946 258.669554 216.85142 257.770196 216.188412 257.107188 
C 215.525404 256.44418 214.626046 256.071654 213.688412 256.071654 
C 212.750777 256.071654 211.85142 256.44418 211.188412 257.107188 
C 210.525404 257.770196 210.152878 258.669554 210.152878 259.607188 
C 210.152878 260.544823 210.525404 261.44418 211.188412 262.107188 
C 211.85142 262.770196 212.750777 263.142722 213.688412 263.142722 
z
" style="fill:#1f77b4;stroke:#ffffff;stroke-width:0.565685;"/>
    <path clip-path="url(#p3005b3fb27)" d="M 214.50342 265.59327 
L 214.50342 270.59327 
L 219.50342 270.59327 
L 219.50342 265.59327 
z
" style="fill:#1f77b4;stroke:#ffffff;stroke-width:0.565685;"/>
    <path clip-path="url(#p3005b3fb27)" d="M 241.764324 266.411289 
C 242.701958 266.411289 243.601316 266.038763 244.264324 265.375755 
C 244.927331 264.712748 245.299858 263.81339 245.299858 262.875755 
C 245.299858 261.938121 244.927331 261.038763 244.264324 260.375755 
C 243.601316 259.712748 242.701958 259.340221 241.764324 259.340221 
C 240.826689 259.340221 239.927331 259.712748 239.264324 260.375755 
C 238.601316 261.038763 238.22879 261.938121 238.22879 262.875755 
C 238.22879 263.81339 238.601316 264.712748 239.264324 265.375755 
C 239.927331 266.038763 240.826689 266.411289 241.764324 266.411289 
z
" style="fill:#1f77b4;stroke:#ffffff;stroke-width:0.565685;"/>
    <path clip-path="url(#p3005b3fb27)" d="M 243.671692 229.556836 
C 244.609326 229.556836 245.508684 229.18431 246.171692 228.521302 
C 246.8347 227.858294 247.207226 226.958937 247.207226 226.021302 
C 247.207226 225.083667 246.8347 224.18431 246.171692 223.521302 
C 245.508684 222.858294 244.609326 222.485768 243.671692 222.485768 
C 242.734057 222.485768 241.8347 222.858294 241.171692 223.521302 
C 240.508684 224.18431 240.136158 225.083667 240.136158 226.021302 
C 240.136158 226.958937 240.508684 227.858294 241.171692 228.521302 
C 241.8347 229.18431 242.734057 229.556836 243.671692 229.556836 
z
" style="fill:#1f77b4;stroke:#ffffff;stroke-width:0.565685;"/>
    <path clip-path="url(#p3005b3fb27)" d="M 226.404805 229.966317 
L 226.404805 234.966317 
L 231.404805 234.966317 
L 231.404805 229.966317 
z
" style="fill:#1f77b4;stroke:#ffffff;stroke-width:0.565685;"/>
    <path clip-path="url(#p3005b3fb27)" d="M 199.676401 275.809733 
C 200.614035 275.809733 201.513393 275.437207 202.176401 274.774199 
C 202.839408 274.111191 203.211935 273.211834 203.211935 272.274199 
C 203.211935 271.336564 202.839408 270.437207 202.176401 269.774199 
C 201.513393 269.111191 200.614035 268.738665 199.676401 268.738665 
C 198.738766 268.738665 197.839408 269.111191 197.176401 269.774199 
C 196.513393 270.437207 196.140867 271.336564 196.140867 272.274199 
C 196.140867 273.211834 196.513393 274.111191 197.176401 274.774199 
C 197.839408 275.437207 198.738766 275.809733 199.676401 275.809733 
z
" style="fill:#1f77b4;stroke:#ffffff;stroke-width:0.565685;"/>
    <path clip-path="url(#p3005b3fb27)" d="M 203.711108 283.846136 
C 204.648742 283.846136 205.5481 283.47361 206.211108 282.810602 
C 206.874116 282.147595 207.246642 281.248237 207.246642 280.310602 
C 207.246642 279.372968 206.874116 278.47361 206.211108 277.810602 
C 205.5481 277.147595 204.648742 276.775068 203.711108 276.775068 
C 202.773473 276.775068 201.874116 277.147595 201.211108 277.810602 
C 200.5481 278.47361 200.175574 279.372968 200.175574 280.310602 
C 200.175574 281.248237 200.5481 282.147595 201.211108 282.810602 
C 201.874116 283.47361 202.773473 283.846136 203.711108 283.846136 
z
" style="fill:#1f77b4;stroke:#ffffff;stroke-width:0.565685;"/>
    <path clip-path="url(#p3005b3fb27)" d="M 253.556107 236.639939 
C 254.493741 236.639939 255.393099 236.267413 256.056107 235.604405 
C 256.719114 234.941397 257.091641 234.04204 257.091641 233.104405 
C 257.091641 232.166771 256.719114 231.267413 256.056107 230.604405 
C 255.393099 229.941397 254.493741 229.568871 253.556107 229.568871 
C 252.618472 229.568871 251.719114 229.941397 251.056107 230.604405 
C 250.393099 231.267413 250.020573 232.166771 250.020573 233.104405 
C 250.020573 234.04204 250.393099 234.941397 251.056107 235.604405 
C 251.719114 236.267413 252.618472 236.639939 253.556107 236.639939 
z
" style="fill:#1f77b4;stroke:#ffffff;stroke-width:0.565685;"/>
    <path clip-path="url(#p3005b3fb27)" d="M 211.921078 269.775893 
L 213.688845 268.008126 
L 215.456612 269.775893 
L 217.224379 268.008126 
L 215.456612 266.240359 
L 217.224379 264.472593 
L 215.456612 262.704826 
L 213.688845 264.472593 
L 211.921078 262.704826 
L 210.153311 264.472593 
L 211.921078 266.240359 
L 210.153311 268.008126 
z
" style="fill:#1f77b4;stroke:#ffffff;stroke-width:0.565685;"/>
    <path clip-path="url(#p3005b3fb27)" d="M 225.189275 271.929847 
L 225.189275 276.929847 
L 230.189275 276.929847 
L 230.189275 271.929847 
z
" style="fill:#1f77b4;stroke:#ffffff;stroke-width:0.565685;"/>
    <path clip-path="url(#p3005b3fb27)" d="M 217.190015 267.485149 
C 218.127649 267.485149 219.027007 267.112623 219.690015 266.449616 
C 220.353022 265.786608 220.725549 264.88725 220.725549 263.949616 
C 220.725549 263.011981 220.353022 262.112623 219.690015 261.449616 
C 219.027007 260.786608 218.127649 260.414082 217.190015 260.414082 
C 216.25238 260.414082 215.353022 260.786608 214.690015 261.449616 
C 214.027007 262.112623 213.654481 263.011981 213.654481 263.949616 
C 213.654481 264.88725 214.027007 265.786608 214.690015 266.449616 
C 215.353022 267.112623 216.25238 267.485149 217.190015 267.485149 
z
" style="fill:#1f77b4;stroke:#ffffff;stroke-width:0.565685;"/>
    <path clip-path="url(#p3005b3fb27)" d="M 219.600877 263.946043 
C 220.538512 263.946043 221.437869 263.573516 222.100877 262.910509 
C 222.763885 262.247501 223.136411 261.348143 223.136411 260.410509 
C 223.136411 259.472874 222.763885 258.573516 222.100877 257.910509 
C 221.437869 257.247501 220.538512 256.874975 219.600877 256.874975 
C 218.663243 256.874975 217.763885 257.247501 217.100877 257.910509 
C 216.437869 258.573516 216.065343 259.472874 216.065343 260.410509 
C 216.065343 261.348143 216.437869 262.247501 217.100877 262.910509 
C 217.763885 263.573516 218.663243 263.946043 219.600877 263.946043 
z
" style="fill:#1f77b4;stroke:#ffffff;stroke-width:0.565685;"/>
    <path clip-path="url(#p3005b3fb27)" d="M 212.641395 274.4011 
C 213.579029 274.4011 214.478387 274.028574 215.141395 273.365566 
C 215.804403 272.702558 216.176929 271.8032 216.176929 270.865566 
C 216.176929 269.927931 215.804403 269.028574 215.141395 268.365566 
C 214.478387 267.702558 213.579029 267.330032 212.641395 267.330032 
C 211.70376 267.330032 210.804403 267.702558 210.141395 268.365566 
C 209.478387 269.028574 209.105861 269.927931 209.105861 270.865566 
C 209.105861 271.8032 209.478387 272.702558 210.141395 273.365566 
C 210.804403 274.028574 211.70376 274.4011 212.641395 274.4011 
z
" style="fill:#1f77b4;stroke:#ffffff;stroke-width:0.565685;"/>
    <path clip-path="url(#p3005b3fb27)" d="M 222.72551 247.898944 
C 223.663145 247.898944 224.562503 247.526418 225.22551 246.86341 
C 225.888518 246.200402 226.261044 245.301045 226.261044 244.36341 
C 226.261044 243.425776 225.888518 242.526418 225.22551 241.86341 
C 224.562503 241.200402 223.663145 240.827876 222.72551 240.827876 
C 221.787876 240.827876 220.888518 241.200402 220.22551 241.86341 
C 219.562503 242.526418 219.189976 243.425776 219.189976 244.36341 
C 219.189976 245.301045 219.562503 246.200402 220.22551 246.86341 
C 220.888518 247.526418 221.787876 247.898944 222.72551 247.898944 
z
" style="fill:#1f77b4;stroke:#ffffff;stroke-width:0.565685;"/>
    <path clip-path="url(#p3005b3fb27)" d="M 222.637926 260.746948 
C 223.57556 260.746948 224.474918 260.374422 225.137926 259.711414 
C 225.800933 259.048406 226.173459 258.149048 226.173459 257.211414 
C 226.173459 256.273779 225.800933 255.374422 225.137926 254.711414 
C 224.474918 254.048406 223.57556 253.67588 222.637926 253.67588 
C 221.700291 253.67588 220.800933 254.048406 220.137926 254.711414 
C 219.474918 255.374422 219.102392 256.273779 219.102392 257.211414 
C 219.102392 258.149048 219.474918 259.048406 220.137926 259.711414 
C 220.800933 260.374422 221.700291 260.746948 222.637926 260.746948 
z
" style="fill:#1f77b4;stroke:#ffffff;stroke-width:0.565685;"/>
    <path clip-path="url(#p3005b3fb27)" d="M 216.915869 282.281405 
C 217.853504 282.281405 218.752861 281.908879 219.415869 281.245871 
C 220.078877 280.582863 220.451403 279.683506 220.451403 278.745871 
C 220.451403 277.808237 220.078877 276.908879 219.415869 276.245871 
C 218.752861 275.582863 217.853504 275.210337 216.915869 275.210337 
C 215.978234 275.210337 215.078877 275.582863 214.415869 276.245871 
C 213.752861 276.908879 213.380335 277.808237 213.380335 278.745871 
C 213.380335 279.683506 213.752861 280.582863 214.415869 281.245871 
C 215.078877 281.908879 215.978234 282.281405 216.915869 282.281405 
z
" style="fill:#1f77b4;stroke:#ffffff;stroke-width:0.565685;"/>
    <path clip-path="url(#p3005b3fb27)" d="M 220.895255 273.803552 
C 221.832889 273.803552 222.732247 273.431026 223.395255 272.768019 
C 224.058263 272.105011 224.430789 271.205653 224.430789 270.268019 
C 224.430789 269.330384 224.058263 268.431026 223.395255 267.768019 
C 222.732247 267.105011 221.832889 266.732485 220.895255 266.732485 
C 219.95762 266.732485 219.058263 267.105011 218.395255 267.768019 
C 217.732247 268.431026 217.359721 269.330384 217.359721 270.268019 
C 217.359721 271.205653 217.732247 272.105011 218.395255 272.768019 
C 219.058263 273.431026 219.95762 273.803552 220.895255 273.803552 
z
" style="fill:#1f77b4;stroke:#ffffff;stroke-width:0.565685;"/>
    <path clip-path="url(#p3005b3fb27)" d="M 195.84012 275.757829 
L 195.84012 280.757829 
L 200.84012 280.757829 
L 200.84012 275.757829 
z
" style="fill:#1f77b4;stroke:#ffffff;stroke-width:0.565685;"/>
    <path clip-path="url(#p3005b3fb27)" d="M 242.554999 145.415357 
C 243.492633 145.415357 244.391991 145.04283 245.054999 144.379823 
C 245.718007 143.716815 246.090533 142.817457 246.090533 141.879823 
C 246.090533 140.942188 245.718007 140.04283 245.054999 139.379823 
C 244.391991 138.716815 243.492633 138.344289 242.554999 138.344289 
C 241.617364 138.344289 240.718007 138.716815 240.054999 139.379823 
C 239.391991 140.04283 239.019465 140.942188 239.019465 141.879823 
C 239.019465 142.817457 239.391991 143.716815 240.054999 144.379823 
C 240.718007 145.04283 241.617364 145.415357 242.554999 145.415357 
z
" style="fill:#1f77b4;stroke:#ffffff;stroke-width:0.565685;"/>
    <path clip-path="url(#p3005b3fb27)" d="M 213.096311 273.882737 
C 214.033945 273.882737 214.933303 273.510211 215.596311 272.847203 
C 216.259318 272.184196 216.631844 271.284838 216.631844 270.347203 
C 216.631844 269.409569 216.259318 268.510211 215.596311 267.847203 
C 214.933303 267.184196 214.033945 266.811669 213.096311 266.811669 
C 212.158676 266.811669 211.259318 267.184196 210.596311 267.847203 
C 209.933303 268.510211 209.560777 269.409569 209.560777 270.347203 
C 209.560777 271.284838 209.933303 272.184196 210.596311 272.847203 
C 211.259318 273.510211 212.158676 273.882737 213.096311 273.882737 
z
" style="fill:#1f77b4;stroke:#ffffff;stroke-width:0.565685;"/>
    <path clip-path="url(#p3005b3fb27)" d="M 222.556087 260.941105 
L 222.556087 265.941105 
L 227.556087 265.941105 
L 227.556087 260.941105 
z
" style="fill:#1f77b4;stroke:#ffffff;stroke-width:0.565685;"/>
    <path clip-path="url(#p3005b3fb27)" d="M 224.268253 267.580213 
C 225.205888 267.580213 226.105246 267.207687 226.768253 266.544679 
C 227.431261 265.881671 227.803787 264.982313 227.803787 264.044679 
C 227.803787 263.107044 227.431261 262.207687 226.768253 261.544679 
C 226.105246 260.881671 225.205888 260.509145 224.268253 260.509145 
C 223.330619 260.509145 222.431261 260.881671 221.768253 261.544679 
C 221.105246 262.207687 220.732719 263.107044 220.732719 264.044679 
C 220.732719 264.982313 221.105246 265.881671 221.768253 266.544679 
C 222.431261 267.207687 223.330619 267.580213 224.268253 267.580213 
z
" style="fill:#1f77b4;stroke:#ffffff;stroke-width:0.565685;"/>
    <path clip-path="url(#p3005b3fb27)" d="M 194.200387 279.084558 
C 195.138021 279.084558 196.037379 278.712032 196.700387 278.049025 
C 197.363395 277.386017 197.735921 276.486659 197.735921 275.549025 
C 197.735921 274.61139 197.363395 273.712032 196.700387 273.049025 
C 196.037379 272.386017 195.138021 272.013491 194.200387 272.013491 
C 193.262752 272.013491 192.363395 272.386017 191.700387 273.049025 
C 191.037379 273.712032 190.664853 274.61139 190.664853 275.549025 
C 190.664853 276.486659 191.037379 277.386017 191.700387 278.049025 
C 192.363395 278.712032 193.262752 279.084558 194.200387 279.084558 
z
" style="fill:#1f77b4;stroke:#ffffff;stroke-width:0.565685;"/>
    <path clip-path="url(#p3005b3fb27)" d="M 208.755593 306.049211 
C 209.693228 306.049211 210.592585 305.676685 211.255593 305.013677 
C 211.918601 304.350669 212.291127 303.451312 212.291127 302.513677 
C 212.291127 301.576043 211.918601 300.676685 211.255593 300.013677 
C 210.592585 299.350669 209.693228 298.978143 208.755593 298.978143 
C 207.817958 298.978143 206.918601 299.350669 206.255593 300.013677 
C 205.592585 300.676685 205.220059 301.576043 205.220059 302.513677 
C 205.220059 303.451312 205.592585 304.350669 206.255593 305.013677 
C 206.918601 305.676685 207.817958 306.049211 208.755593 306.049211 
z
" style="fill:#1f77b4;stroke:#ffffff;stroke-width:0.565685;"/>
    <path clip-path="url(#p3005b3fb27)" d="M 248.452625 132.551055 
C 249.390259 132.551055 250.289617 132.178528 250.952625 131.515521 
C 251.615632 130.852513 251.988158 129.953155 251.988158 129.015521 
C 251.988158 128.077886 251.615632 127.178528 250.952625 126.515521 
C 250.289617 125.852513 249.390259 125.479987 248.452625 125.479987 
C 247.51499 125.479987 246.615632 125.852513 245.952625 126.515521 
C 245.289617 127.178528 244.917091 128.077886 244.917091 129.015521 
C 244.917091 129.953155 245.289617 130.852513 245.952625 131.515521 
C 246.615632 132.178528 247.51499 132.551055 248.452625 132.551055 
z
" style="fill:#1f77b4;stroke:#ffffff;stroke-width:0.565685;"/>
    <path clip-path="url(#p3005b3fb27)" d="M 220.794641 275.858201 
L 220.794641 280.858201 
L 225.794641 280.858201 
L 225.794641 275.858201 
z
" style="fill:#1f77b4;stroke:#ffffff;stroke-width:0.565685;"/>
    <path clip-path="url(#p3005b3fb27)" d="M 233.435612 182.008121 
L 233.435612 187.008121 
L 238.435612 187.008121 
L 238.435612 182.008121 
z
" style="fill:#1f77b4;stroke:#ffffff;stroke-width:0.565685;"/>
    <path clip-path="url(#p3005b3fb27)" d="M 206.199578 268.47966 
L 206.199578 273.47966 
L 211.199578 273.47966 
L 211.199578 268.47966 
z
" style="fill:#1f77b4;stroke:#ffffff;stroke-width:0.565685;"/>
    <path clip-path="url(#p3005b3fb27)" d="M 204.964681 271.535108 
L 206.732448 269.767341 
L 208.500215 271.535108 
L 210.267982 269.767341 
L 208.500215 267.999574 
L 210.267982 266.231807 
L 208.500215 264.46404 
L 206.732448 266.231807 
L 204.964681 264.46404 
L 203.196915 266.231807 
L 204.964681 267.999574 
L 203.196915 269.767341 
z
" style="fill:#1f77b4;stroke:#ffffff;stroke-width:0.565685;"/>
    <path clip-path="url(#p3005b3fb27)" d="M 221.957864 268.147231 
L 223.725631 266.379464 
L 225.493398 268.147231 
L 227.261165 266.379464 
L 225.493398 264.611697 
L 227.261165 262.84393 
L 225.493398 261.076163 
L 223.725631 262.84393 
L 221.957864 261.076163 
L 220.190097 262.84393 
L 221.957864 264.611697 
L 220.190097 266.379464 
z
" style="fill:#1f77b4;stroke:#ffffff;stroke-width:0.565685;"/>
    <path clip-path="url(#p3005b3fb27)" d="M 228.576326 255.91905 
C 229.513961 255.91905 230.413318 255.546524 231.076326 254.883516 
C 231.739334 254.220509 232.11186 253.321151 232.11186 252.383516 
C 232.11186 251.445882 231.739334 250.546524 231.076326 249.883516 
C 230.413318 249.220509 229.513961 248.847982 228.576326 248.847982 
C 227.638692 248.847982 226.739334 249.220509 226.076326 249.883516 
C 225.413318 250.546524 225.040792 251.445882 225.040792 252.383516 
C 225.040792 253.321151 225.413318 254.220509 226.076326 254.883516 
C 226.739334 255.546524 227.638692 255.91905 228.576326 255.91905 
z
" style="fill:#1f77b4;stroke:#ffffff;stroke-width:0.565685;"/>
    <path clip-path="url(#p3005b3fb27)" d="M 319.148433 216.691701 
C 320.086068 216.691701 320.985425 216.319174 321.648433 215.656167 
C 322.311441 214.993159 322.683967 214.093801 322.683967 213.156167 
C 322.683967 212.218532 322.311441 211.319174 321.648433 210.656167 
C 320.985425 209.993159 320.086068 209.620633 319.148433 209.620633 
C 318.210798 209.620633 317.311441 209.993159 316.648433 210.656167 
C 315.985425 211.319174 315.612899 212.218532 315.612899 213.156167 
C 315.612899 214.093801 315.985425 214.993159 316.648433 215.656167 
C 317.311441 216.319174 318.210798 216.691701 319.148433 216.691701 
z
" style="fill:#1f77b4;stroke:#ffffff;stroke-width:0.565685;"/>
    <path clip-path="url(#p3005b3fb27)" d="M 216.20912 235.694385 
C 217.146755 235.694385 218.046112 235.321859 218.70912 234.658851 
C 219.372128 233.995843 219.744654 233.096486 219.744654 232.158851 
C 219.744654 231.221217 219.372128 230.321859 218.70912 229.658851 
C 218.046112 228.995843 217.146755 228.623317 216.20912 228.623317 
C 215.271485 228.623317 214.372128 228.995843 213.70912 229.658851 
C 213.046112 230.321859 212.673586 231.221217 212.673586 232.158851 
C 212.673586 233.096486 213.046112 233.995843 213.70912 234.658851 
C 214.372128 235.321859 215.271485 235.694385 216.20912 235.694385 
z
" style="fill:#1f77b4;stroke:#ffffff;stroke-width:0.565685;"/>
    <path clip-path="url(#p3005b3fb27)" d="M 223.928177 271.216005 
C 224.865811 271.216005 225.765169 270.843479 226.428177 270.180472 
C 227.091184 269.517464 227.463711 268.618106 227.463711 267.680472 
C 227.463711 266.742837 227.091184 265.843479 226.428177 265.180472 
C 225.765169 264.517464 224.865811 264.144938 223.928177 264.144938 
C 222.990542 264.144938 222.091184 264.517464 221.428177 265.180472 
C 220.765169 265.843479 220.392643 266.742837 220.392643 267.680472 
C 220.392643 268.618106 220.765169 269.517464 221.428177 270.180472 
C 222.091184 270.843479 222.990542 271.216005 223.928177 271.216005 
z
" style="fill:#1f77b4;stroke:#ffffff;stroke-width:0.565685;"/>
    <path clip-path="url(#p3005b3fb27)" d="M 227.104941 265.775772 
C 228.042576 265.775772 228.941934 265.403246 229.604941 264.740239 
C 230.267949 264.077231 230.640475 263.177873 230.640475 262.240239 
C 230.640475 261.302604 230.267949 260.403246 229.604941 259.740239 
C 228.941934 259.077231 228.042576 258.704705 227.104941 258.704705 
C 226.167307 258.704705 225.267949 259.077231 224.604941 259.740239 
C 223.941934 260.403246 223.569407 261.302604 223.569407 262.240239 
C 223.569407 263.177873 223.941934 264.077231 224.604941 264.740239 
C 225.267949 265.403246 226.167307 265.775772 227.104941 265.775772 
z
" style="fill:#1f77b4;stroke:#ffffff;stroke-width:0.565685;"/>
    <path clip-path="url(#p3005b3fb27)" d="M 207.98571 269.863377 
L 209.753477 268.09561 
L 211.521244 269.863377 
L 213.289011 268.09561 
L 211.521244 266.327843 
L 213.289011 264.560076 
L 211.521244 262.792309 
L 209.753477 264.560076 
L 207.98571 262.792309 
L 206.217943 264.560076 
L 207.98571 266.327843 
L 206.217943 268.09561 
z
" style="fill:#1f77b4;stroke:#ffffff;stroke-width:0.565685;"/>
    <path clip-path="url(#p3005b3fb27)" d="M 221.56499 289.201806 
C 222.502624 289.201806 223.401982 288.82928 224.06499 288.166272 
C 224.727997 287.503264 225.100524 286.603906 225.100524 285.666272 
C 225.100524 284.728637 224.727997 283.82928 224.06499 283.166272 
C 223.401982 282.503264 222.502624 282.130738 221.56499 282.130738 
C 220.627355 282.130738 219.727997 282.503264 219.06499 283.166272 
C 218.401982 283.82928 218.029456 284.728637 218.029456 285.666272 
C 218.029456 286.603906 218.401982 287.503264 219.06499 288.166272 
C 219.727997 288.82928 220.627355 289.201806 221.56499 289.201806 
z
" style="fill:#1f77b4;stroke:#ffffff;stroke-width:0.565685;"/>
    <path clip-path="url(#p3005b3fb27)" d="M 186.870548 235.908895 
L 188.638315 234.141129 
L 190.406082 235.908895 
L 192.173849 234.141129 
L 190.406082 232.373362 
L 192.173849 230.605595 
L 190.406082 228.837828 
L 188.638315 230.605595 
L 186.870548 228.837828 
L 185.102781 230.605595 
L 186.870548 232.373362 
L 185.102781 234.141129 
z
" style="fill:#1f77b4;stroke:#ffffff;stroke-width:0.565685;"/>
    <path clip-path="url(#p3005b3fb27)" d="M 203.055424 280.285492 
L 203.055424 285.285492 
L 208.055424 285.285492 
L 208.055424 280.285492 
z
" style="fill:#1f77b4;stroke:#ffffff;stroke-width:0.565685;"/>
    <path clip-path="url(#p3005b3fb27)" d="M 207.77937 268.672986 
L 207.77937 273.672986 
L 212.77937 273.672986 
L 212.77937 268.672986 
z
" style="fill:#1f77b4;stroke:#ffffff;stroke-width:0.565685;"/>
    <path clip-path="url(#p3005b3fb27)" d="M 232.56718 237.213145 
L 232.56718 242.213145 
L 237.56718 242.213145 
L 237.56718 237.213145 
z
" style="fill:#1f77b4;stroke:#ffffff;stroke-width:0.565685;"/>
    <path clip-path="url(#p3005b3fb27)" d="M 207.631696 282.300573 
L 207.631696 287.300573 
L 212.631696 287.300573 
L 212.631696 282.300573 
z
" style="fill:#1f77b4;stroke:#ffffff;stroke-width:0.565685;"/>
    <path clip-path="url(#p3005b3fb27)" d="M 226.770957 276.73994 
L 226.770957 281.73994 
L 231.770957 281.73994 
L 231.770957 276.73994 
z
" style="fill:#1f77b4;stroke:#ffffff;stroke-width:0.565685;"/>
    <path clip-path="url(#p3005b3fb27)" d="M 214.568051 255.874055 
L 214.568051 260.874055 
L 219.568051 260.874055 
L 219.568051 255.874055 
z
" style="fill:#1f77b4;stroke:#ffffff;stroke-width:0.565685;"/>
    <path clip-path="url(#p3005b3fb27)" d="M 221.364395 269.78157 
L 221.364395 274.78157 
L 226.364395 274.78157 
L 226.364395 269.78157 
z
" style="fill:#1f77b4;stroke:#ffffff;stroke-width:0.565685;"/>
    <path clip-path="url(#p3005b3fb27)" d="M 188.035612 297.545371 
L 188.035612 302.545371 
L 193.035612 302.545371 
L 193.035612 297.545371 
z
" style="fill:#1f77b4;stroke:#ffffff;stroke-width:0.565685;"/>
    <path clip-path="url(#p3005b3fb27)" d="M 212.994604 261.327454 
L 212.994604 266.327454 
L 217.994604 266.327454 
L 217.994604 261.327454 
z
" style="fill:#1f77b4;stroke:#ffffff;stroke-width:0.565685;"/>
    <path clip-path="url(#p3005b3fb27)" d="M 209.838661 247.901723 
L 209.838661 252.901723 
L 214.838661 252.901723 
L 214.838661 247.901723 
z
" style="fill:#1f77b4;stroke:#ffffff;stroke-width:0.565685;"/>
    <path clip-path="url(#p3005b3fb27)" d="M 203.398379 250.101321 
L 203.398379 255.101321 
L 208.398379 255.101321 
L 208.398379 250.101321 
z
" style="fill:#1f77b4;stroke:#ffffff;stroke-width:0.565685;"/>
    <path clip-path="url(#p3005b3fb27)" d="M 213.545045 269.349045 
L 213.545045 274.349045 
L 218.545045 274.349045 
L 218.545045 269.349045 
z
" style="fill:#1f77b4;stroke:#ffffff;stroke-width:0.565685;"/>
    <path clip-path="url(#p3005b3fb27)" d="M 219.017626 263.49096 
L 219.017626 268.49096 
L 224.017626 268.49096 
L 224.017626 263.49096 
z
" style="fill:#1f77b4;stroke:#ffffff;stroke-width:0.565685;"/>
    <path clip-path="url(#p3005b3fb27)" d="M 221.77401 269.214042 
L 221.77401 274.214042 
L 226.77401 274.214042 
L 226.77401 269.214042 
z
" style="fill:#1f77b4;stroke:#ffffff;stroke-width:0.565685;"/>
    <path clip-path="url(#p3005b3fb27)" d="M 211.576356 271.587494 
L 211.576356 276.587494 
L 216.576356 276.587494 
L 216.576356 271.587494 
z
" style="fill:#1f77b4;stroke:#ffffff;stroke-width:0.565685;"/>
    <path clip-path="url(#p3005b3fb27)" d="M 201.9414 273.134283 
L 201.9414 278.134283 
L 206.9414 278.134283 
L 206.9414 273.134283 
z
" style="fill:#1f77b4;stroke:#ffffff;stroke-width:0.565685;"/>
    <path clip-path="url(#p3005b3fb27)" d="M 210.116309 258.127246 
L 210.116309 263.127246 
L 215.116309 263.127246 
L 215.116309 258.127246 
z
" style="fill:#1f77b4;stroke:#ffffff;stroke-width:0.565685;"/>
    <path clip-path="url(#p3005b3fb27)" d="M 231.352412 248.981841 
L 231.352412 253.981841 
L 236.352412 253.981841 
L 236.352412 248.981841 
z
" style="fill:#1f77b4;stroke:#ffffff;stroke-width:0.565685;"/>
    <path clip-path="url(#p3005b3fb27)" d="M 215.887376 269.373686 
L 215.887376 274.373686 
L 220.887376 274.373686 
L 220.887376 269.373686 
z
" style="fill:#1f77b4;stroke:#ffffff;stroke-width:0.565685;"/>
    <path clip-path="url(#p3005b3fb27)" d="M 237.568635 230.381664 
L 237.568635 235.381664 
L 242.568635 235.381664 
L 242.568635 230.381664 
z
" style="fill:#1f77b4;stroke:#ffffff;stroke-width:0.565685;"/>
    <path clip-path="url(#p3005b3fb27)" d="M 257.223422 148.043817 
L 257.223422 153.043817 
L 262.223422 153.043817 
L 262.223422 148.043817 
z
" style="fill:#1f77b4;stroke:#ffffff;stroke-width:0.565685;"/>
    <path clip-path="url(#p3005b3fb27)" d="M 224.663375 274.159883 
C 225.60101 274.159883 226.500368 273.787357 227.163375 273.124349 
C 227.826383 272.461342 228.198909 271.561984 228.198909 270.624349 
C 228.198909 269.686715 227.826383 268.787357 227.163375 268.124349 
C 226.500368 267.461342 225.60101 267.088815 224.663375 267.088815 
C 223.725741 267.088815 222.826383 267.461342 222.163375 268.124349 
C 221.500368 268.787357 221.127842 269.686715 221.127842 270.624349 
C 221.127842 271.561984 221.500368 272.461342 222.163375 273.124349 
C 222.826383 273.787357 223.725741 274.159883 224.663375 274.159883 
z
" style="fill:#1f77b4;stroke:#ffffff;stroke-width:0.565685;"/>
    <path clip-path="url(#p3005b3fb27)" d="M 197.766483 274.659284 
C 198.704117 274.659284 199.603475 274.286758 200.266483 273.62375 
C 200.92949 272.960742 201.302016 272.061385 201.302016 271.12375 
C 201.302016 270.186116 200.92949 269.286758 200.266483 268.62375 
C 199.603475 267.960742 198.704117 267.588216 197.766483 267.588216 
C 196.828848 267.588216 195.92949 267.960742 195.266483 268.62375 
C 194.603475 269.286758 194.230949 270.186116 194.230949 271.12375 
C 194.230949 272.061385 194.603475 272.960742 195.266483 273.62375 
C 195.92949 274.286758 196.828848 274.659284 197.766483 274.659284 
z
" style="fill:#1f77b4;stroke:#ffffff;stroke-width:0.565685;"/>
    <path clip-path="url(#p3005b3fb27)" d="M 193.651853 276.864863 
C 194.589488 276.864863 195.488846 276.492337 196.151853 275.829329 
C 196.814861 275.166321 197.187387 274.266964 197.187387 273.329329 
C 197.187387 272.391695 196.814861 271.492337 196.151853 270.829329 
C 195.488846 270.166321 194.589488 269.793795 193.651853 269.793795 
C 192.714219 269.793795 191.814861 270.166321 191.151853 270.829329 
C 190.488846 271.492337 190.116319 272.391695 190.116319 273.329329 
C 190.116319 274.266964 190.488846 275.166321 191.151853 275.829329 
C 191.814861 276.492337 192.714219 276.864863 193.651853 276.864863 
z
" style="fill:#1f77b4;stroke:#ffffff;stroke-width:0.565685;"/>
    <path clip-path="url(#p3005b3fb27)" d="M 208.511128 285.339238 
C 209.448762 285.339238 210.34812 284.966712 211.011128 284.303704 
C 211.674135 283.640696 212.046662 282.741339 212.046662 281.803704 
C 212.046662 280.86607 211.674135 279.966712 211.011128 279.303704 
C 210.34812 278.640696 209.448762 278.26817 208.511128 278.26817 
C 207.573493 278.26817 206.674135 278.640696 206.011128 279.303704 
C 205.34812 279.966712 204.975594 280.86607 204.975594 281.803704 
C 204.975594 282.741339 205.34812 283.640696 206.011128 284.303704 
C 206.674135 284.966712 207.573493 285.339238 208.511128 285.339238 
z
" style="fill:#1f77b4;stroke:#ffffff;stroke-width:0.565685;"/>
    <path clip-path="url(#p3005b3fb27)" d="M 209.178331 275.467635 
C 210.115966 275.467635 211.015324 275.095109 211.678331 274.432101 
C 212.341339 273.769093 212.713865 272.869736 212.713865 271.932101 
C 212.713865 270.994467 212.341339 270.095109 211.678331 269.432101 
C 211.015324 268.769093 210.115966 268.396567 209.178331 268.396567 
C 208.240697 268.396567 207.341339 268.769093 206.678331 269.432101 
C 206.015324 270.095109 205.642798 270.994467 205.642798 271.932101 
C 205.642798 272.869736 206.015324 273.769093 206.678331 274.432101 
C 207.341339 275.095109 208.240697 275.467635 209.178331 275.467635 
z
" style="fill:#1f77b4;stroke:#ffffff;stroke-width:0.565685;"/>
    <path clip-path="url(#p3005b3fb27)" d="M 220.74999 217.050072 
C 221.687625 217.050072 222.586983 216.677546 223.24999 216.014539 
C 223.912998 215.351531 224.285524 214.452173 224.285524 213.514539 
C 224.285524 212.576904 223.912998 211.677546 223.24999 211.014539 
C 222.586983 210.351531 221.687625 209.979005 220.74999 209.979005 
C 219.812356 209.979005 218.912998 210.351531 218.24999 211.014539 
C 217.586983 211.677546 217.214456 212.576904 217.214456 213.514539 
C 217.214456 214.452173 217.586983 215.351531 218.24999 216.014539 
C 218.912998 216.677546 219.812356 217.050072 220.74999 217.050072 
z
" style="fill:#1f77b4;stroke:#ffffff;stroke-width:0.565685;"/>
    <path clip-path="url(#p3005b3fb27)" d="M 217.607466 266.822164 
C 218.5451 266.822164 219.444458 266.449638 220.107466 265.78663 
C 220.770473 265.123622 221.143 264.224264 221.143 263.28663 
C 221.143 262.348995 220.770473 261.449638 220.107466 260.78663 
C 219.444458 260.123622 218.5451 259.751096 217.607466 259.751096 
C 216.669831 259.751096 215.770473 260.123622 215.107466 260.78663 
C 214.444458 261.449638 214.071932 262.348995 214.071932 263.28663 
C 214.071932 264.224264 214.444458 265.123622 215.107466 265.78663 
C 215.770473 266.449638 216.669831 266.822164 217.607466 266.822164 
z
" style="fill:#1f77b4;stroke:#ffffff;stroke-width:0.565685;"/>
    <path clip-path="url(#p3005b3fb27)" d="M 214.670867 278.010629 
C 215.608501 278.010629 216.507859 277.638103 217.170867 276.975095 
C 217.833875 276.312087 218.206401 275.412729 218.206401 274.475095 
C 218.206401 273.53746 217.833875 272.638103 217.170867 271.975095 
C 216.507859 271.312087 215.608501 270.939561 214.670867 270.939561 
C 213.733232 270.939561 212.833875 271.312087 212.170867 271.975095 
C 211.507859 272.638103 211.135333 273.53746 211.135333 274.475095 
C 211.135333 275.412729 211.507859 276.312087 212.170867 276.975095 
C 212.833875 277.638103 213.733232 278.010629 214.670867 278.010629 
z
" style="fill:#1f77b4;stroke:#ffffff;stroke-width:0.565685;"/>
    <path clip-path="url(#p3005b3fb27)" d="M 227.012387 272.977399 
L 228.780154 271.209632 
L 230.547921 272.977399 
L 232.315688 271.209632 
L 230.547921 269.441866 
L 232.315688 267.674099 
L 230.547921 265.906332 
L 228.780154 267.674099 
L 227.012387 265.906332 
L 225.24462 267.674099 
L 227.012387 269.441866 
L 225.24462 271.209632 
z
" style="fill:#1f77b4;stroke:#ffffff;stroke-width:0.565685;"/>
    <path clip-path="url(#p3005b3fb27)" d="M 202.311331 266.141512 
L 202.311331 271.141512 
L 207.311331 271.141512 
L 207.311331 266.141512 
z
" style="fill:#1f77b4;stroke:#ffffff;stroke-width:0.565685;"/>
    <path clip-path="url(#p3005b3fb27)" d="M 205.036873 263.651694 
L 205.036873 268.651694 
L 210.036873 268.651694 
L 210.036873 263.651694 
z
" style="fill:#1f77b4;stroke:#ffffff;stroke-width:0.565685;"/>
    <path clip-path="url(#p3005b3fb27)" d="M 219.748629 257.798292 
L 219.748629 262.798292 
L 224.748629 262.798292 
L 224.748629 257.798292 
z
" style="fill:#1f77b4;stroke:#ffffff;stroke-width:0.565685;"/>
    <path clip-path="url(#p3005b3fb27)" d="M 211.14774 271.11992 
L 211.14774 276.11992 
L 216.14774 276.11992 
L 216.14774 271.11992 
z
" style="fill:#1f77b4;stroke:#ffffff;stroke-width:0.565685;"/>
    <path clip-path="url(#p3005b3fb27)" d="M 218.800805 267.743682 
C 219.738439 267.743682 220.637797 267.371155 221.300805 266.708148 
C 221.963812 266.04514 222.336339 265.145782 222.336339 264.208148 
C 222.336339 263.270513 221.963812 262.371155 221.300805 261.708148 
C 220.637797 261.04514 219.738439 260.672614 218.800805 260.672614 
C 217.86317 260.672614 216.963812 261.04514 216.300805 261.708148 
C 215.637797 262.371155 215.265271 263.270513 215.265271 264.208148 
C 215.265271 265.145782 215.637797 266.04514 216.300805 266.708148 
C 216.963812 267.371155 217.86317 267.743682 218.800805 267.743682 
z
" style="fill:#1f77b4;stroke:#ffffff;stroke-width:0.565685;"/>
    <path clip-path="url(#p3005b3fb27)" d="M 273.727147 257.166719 
C 274.664782 257.166719 275.56414 256.794193 276.227147 256.131185 
C 276.890155 255.468177 277.262681 254.568819 277.262681 253.631185 
C 277.262681 252.69355 276.890155 251.794193 276.227147 251.131185 
C 275.56414 250.468177 274.664782 250.095651 273.727147 250.095651 
C 272.789513 250.095651 271.890155 250.468177 271.227147 251.131185 
C 270.56414 251.794193 270.191614 252.69355 270.191614 253.631185 
C 270.191614 254.568819 270.56414 255.468177 271.227147 256.131185 
C 271.890155 256.794193 272.789513 257.166719 273.727147 257.166719 
z
" style="fill:#1f77b4;stroke:#ffffff;stroke-width:0.565685;"/>
    <path clip-path="url(#p3005b3fb27)" d="M 227.092666 211.712573 
C 228.030301 211.712573 228.929659 211.340047 229.592666 210.677039 
C 230.255674 210.014031 230.6282 209.114674 230.6282 208.177039 
C 230.6282 207.239404 230.255674 206.340047 229.592666 205.677039 
C 228.929659 205.014031 228.030301 204.641505 227.092666 204.641505 
C 226.155032 204.641505 225.255674 205.014031 224.592666 205.677039 
C 223.929659 206.340047 223.557132 207.239404 223.557132 208.177039 
C 223.557132 209.114674 223.929659 210.014031 224.592666 210.677039 
C 225.255674 211.340047 226.155032 211.712573 227.092666 211.712573 
z
" style="fill:#1f77b4;stroke:#ffffff;stroke-width:0.565685;"/>
    <path clip-path="url(#p3005b3fb27)" d="M 239.886027 224.124254 
C 240.823661 224.124254 241.723019 223.751727 242.386027 223.08872 
C 243.049034 222.425712 243.42156 221.526354 243.42156 220.58872 
C 243.42156 219.651085 243.049034 218.751727 242.386027 218.08872 
C 241.723019 217.425712 240.823661 217.053186 239.886027 217.053186 
C 238.948392 217.053186 238.049034 217.425712 237.386027 218.08872 
C 236.723019 218.751727 236.350493 219.651085 236.350493 220.58872 
C 236.350493 221.526354 236.723019 222.425712 237.386027 223.08872 
C 238.049034 223.751727 238.948392 224.124254 239.886027 224.124254 
z
" style="fill:#1f77b4;stroke:#ffffff;stroke-width:0.565685;"/>
    <path clip-path="url(#p3005b3fb27)" d="M 192.2257 275.643204 
C 193.163334 275.643204 194.062692 275.270677 194.7257 274.60767 
C 195.388708 273.944662 195.761234 273.045304 195.761234 272.10767 
C 195.761234 271.170035 195.388708 270.270677 194.7257 269.60767 
C 194.062692 268.944662 193.163334 268.572136 192.2257 268.572136 
C 191.288065 268.572136 190.388708 268.944662 189.7257 269.60767 
C 189.062692 270.270677 188.690166 271.170035 188.690166 272.10767 
C 188.690166 273.045304 189.062692 273.944662 189.7257 274.60767 
C 190.388708 275.270677 191.288065 275.643204 192.2257 275.643204 
z
" style="fill:#1f77b4;stroke:#ffffff;stroke-width:0.565685;"/>
    <path clip-path="url(#p3005b3fb27)" d="M 189.358726 282.564346 
C 190.29636 282.564346 191.195718 282.19182 191.858726 281.528813 
C 192.521733 280.865805 192.89426 279.966447 192.89426 279.028813 
C 192.89426 278.091178 192.521733 277.19182 191.858726 276.528813 
C 191.195718 275.865805 190.29636 275.493279 189.358726 275.493279 
C 188.421091 275.493279 187.521733 275.865805 186.858726 276.528813 
C 186.195718 277.19182 185.823192 278.091178 185.823192 279.028813 
C 185.823192 279.966447 186.195718 280.865805 186.858726 281.528813 
C 187.521733 282.19182 188.421091 282.564346 189.358726 282.564346 
z
" style="fill:#1f77b4;stroke:#ffffff;stroke-width:0.565685;"/>
    <path clip-path="url(#p3005b3fb27)" d="M 234.727345 261.9483 
C 235.664979 261.9483 236.564337 261.575774 237.227345 260.912767 
C 237.890353 260.249759 238.262879 259.350401 238.262879 258.412767 
C 238.262879 257.475132 237.890353 256.575774 237.227345 255.912767 
C 236.564337 255.249759 235.664979 254.877233 234.727345 254.877233 
C 233.78971 254.877233 232.890353 255.249759 232.227345 255.912767 
C 231.564337 256.575774 231.191811 257.475132 231.191811 258.412767 
C 231.191811 259.350401 231.564337 260.249759 232.227345 260.912767 
C 232.890353 261.575774 233.78971 261.9483 234.727345 261.9483 
z
" style="fill:#1f77b4;stroke:#ffffff;stroke-width:0.565685;"/>
    <path clip-path="url(#p3005b3fb27)" d="M 217.428932 255.364156 
C 218.366567 255.364156 219.265924 254.99163 219.928932 254.328622 
C 220.59194 253.665614 220.964466 252.766256 220.964466 251.828622 
C 220.964466 250.890987 220.59194 249.99163 219.928932 249.328622 
C 219.265924 248.665614 218.366567 248.293088 217.428932 248.293088 
C 216.491297 248.293088 215.59194 248.665614 214.928932 249.328622 
C 214.265924 249.99163 213.893398 250.890987 213.893398 251.828622 
C 213.893398 252.766256 214.265924 253.665614 214.928932 254.328622 
C 215.59194 254.99163 216.491297 255.364156 217.428932 255.364156 
z
" style="fill:#1f77b4;stroke:#ffffff;stroke-width:0.565685;"/>
    <path clip-path="url(#p3005b3fb27)" d="M 220.410953 276.667481 
C 221.348588 276.667481 222.247945 276.294955 222.910953 275.631947 
C 223.573961 274.968939 223.946487 274.069582 223.946487 273.131947 
C 223.946487 272.194312 223.573961 271.294955 222.910953 270.631947 
C 222.247945 269.968939 221.348588 269.596413 220.410953 269.596413 
C 219.473319 269.596413 218.573961 269.968939 217.910953 270.631947 
C 217.247945 271.294955 216.875419 272.194312 216.875419 273.131947 
C 216.875419 274.069582 217.247945 274.968939 217.910953 275.631947 
C 218.573961 276.294955 219.473319 276.667481 220.410953 276.667481 
z
" style="fill:#1f77b4;stroke:#ffffff;stroke-width:0.565685;"/>
    <path clip-path="url(#p3005b3fb27)" d="M 217.080221 271.736315 
C 218.017856 271.736315 218.917213 271.363789 219.580221 270.700781 
C 220.243229 270.037773 220.615755 269.138416 220.615755 268.200781 
C 220.615755 267.263147 220.243229 266.363789 219.580221 265.700781 
C 218.917213 265.037773 218.017856 264.665247 217.080221 264.665247 
C 216.142587 264.665247 215.243229 265.037773 214.580221 265.700781 
C 213.917213 266.363789 213.544687 267.263147 213.544687 268.200781 
C 213.544687 269.138416 213.917213 270.037773 214.580221 270.700781 
C 215.243229 271.363789 216.142587 271.736315 217.080221 271.736315 
z
" style="fill:#1f77b4;stroke:#ffffff;stroke-width:0.565685;"/>
    <path clip-path="url(#p3005b3fb27)" d="M 230.503616 274.291224 
C 231.441251 274.291224 232.340609 273.918698 233.003616 273.25569 
C 233.666624 272.592682 234.03915 271.693325 234.03915 270.75569 
C 234.03915 269.818056 233.666624 268.918698 233.003616 268.25569 
C 232.340609 267.592682 231.441251 267.220156 230.503616 267.220156 
C 229.565982 267.220156 228.666624 267.592682 228.003616 268.25569 
C 227.340609 268.918698 226.968083 269.818056 226.968083 270.75569 
C 226.968083 271.693325 227.340609 272.592682 228.003616 273.25569 
C 228.666624 273.918698 229.565982 274.291224 230.503616 274.291224 
z
" style="fill:#1f77b4;stroke:#ffffff;stroke-width:0.565685;"/>
    <path clip-path="url(#p3005b3fb27)" d="M 220.862982 228.166259 
L 220.862982 233.166259 
L 225.862982 233.166259 
L 225.862982 228.166259 
z
" style="fill:#1f77b4;stroke:#ffffff;stroke-width:0.565685;"/>
    <path clip-path="url(#p3005b3fb27)" d="M 218.395411 233.147516 
L 218.395411 238.147516 
L 223.395411 238.147516 
L 223.395411 233.147516 
z
" style="fill:#1f77b4;stroke:#ffffff;stroke-width:0.565685;"/>
    <path clip-path="url(#p3005b3fb27)" d="M 215.255782 258.700268 
L 215.255782 263.700268 
L 220.255782 263.700268 
L 220.255782 258.700268 
z
" style="fill:#1f77b4;stroke:#ffffff;stroke-width:0.565685;"/>
    <path clip-path="url(#p3005b3fb27)" d="M 99.301405 479.698011 
L 99.301405 484.698011 
L 104.301405 484.698011 
L 104.301405 479.698011 
z
" style="fill:#1f77b4;stroke:#ffffff;stroke-width:0.565685;"/>
    <path clip-path="url(#p3005b3fb27)" d="M 210.824219 260.905106 
L 210.824219 265.905106 
L 215.824219 265.905106 
L 215.824219 260.905106 
z
" style="fill:#1f77b4;stroke:#ffffff;stroke-width:0.565685;"/>
    <path clip-path="url(#p3005b3fb27)" d="M 220.148396 237.73056 
L 221.916163 235.962793 
L 223.68393 237.73056 
L 225.451697 235.962793 
L 223.68393 234.195026 
L 225.451697 232.427259 
L 223.68393 230.659492 
L 221.916163 232.427259 
L 220.148396 230.659492 
L 218.380629 232.427259 
L 220.148396 234.195026 
L 218.380629 235.962793 
z
" style="fill:#1f77b4;stroke:#ffffff;stroke-width:0.565685;"/>
    <path clip-path="url(#p3005b3fb27)" d="M 226.364126 246.602528 
C 227.30176 246.602528 228.201118 246.230001 228.864126 245.566994 
C 229.527133 244.903986 229.899659 244.004628 229.899659 243.066994 
C 229.899659 242.129359 229.527133 241.230001 228.864126 240.566994 
C 228.201118 239.903986 227.30176 239.53146 226.364126 239.53146 
C 225.426491 239.53146 224.527133 239.903986 223.864126 240.566994 
C 223.201118 241.230001 222.828592 242.129359 222.828592 243.066994 
C 222.828592 244.004628 223.201118 244.903986 223.864126 245.566994 
C 224.527133 246.230001 225.426491 246.602528 226.364126 246.602528 
z
" style="fill:#1f77b4;stroke:#ffffff;stroke-width:0.565685;"/>
    <path clip-path="url(#p3005b3fb27)" d="M 224.668324 259.127068 
L 224.668324 264.127068 
L 229.668324 264.127068 
L 229.668324 259.127068 
z
" style="fill:#1f77b4;stroke:#ffffff;stroke-width:0.565685;"/>
    <path clip-path="url(#p3005b3fb27)" d="M 223.222294 324.534948 
C 224.159929 324.534948 225.059287 324.162422 225.722294 323.499414 
C 226.385302 322.836406 226.757828 321.937049 226.757828 320.999414 
C 226.757828 320.06178 226.385302 319.162422 225.722294 318.499414 
C 225.059287 317.836406 224.159929 317.46388 223.222294 317.46388 
C 222.28466 317.46388 221.385302 317.836406 220.722294 318.499414 
C 220.059287 319.162422 219.68676 320.06178 219.68676 320.999414 
C 219.68676 321.937049 220.059287 322.836406 220.722294 323.499414 
C 221.385302 324.162422 222.28466 324.534948 223.222294 324.534948 
z
" style="fill:#1f77b4;stroke:#ffffff;stroke-width:0.565685;"/>
    <path clip-path="url(#p3005b3fb27)" d="M 155.44014 389.814868 
L 155.44014 394.814868 
L 160.44014 394.814868 
L 160.44014 389.814868 
z
" style="fill:#1f77b4;stroke:#ffffff;stroke-width:0.565685;"/>
    <path clip-path="url(#p3005b3fb27)" d="M 211.94301 269.172502 
L 211.94301 274.172502 
L 216.94301 274.172502 
L 216.94301 269.172502 
z
" style="fill:#1f77b4;stroke:#ffffff;stroke-width:0.565685;"/>
    <path clip-path="url(#p3005b3fb27)" d="M 157.98099 290.678334 
L 159.748757 288.910567 
L 161.516524 290.678334 
L 163.284291 288.910567 
L 161.516524 287.1428 
L 163.284291 285.375033 
L 161.516524 283.607266 
L 159.748757 285.375033 
L 157.98099 283.607266 
L 156.213223 285.375033 
L 157.98099 287.1428 
L 156.213223 288.910567 
z
" style="fill:#1f77b4;stroke:#ffffff;stroke-width:0.565685;"/>
    <path clip-path="url(#p3005b3fb27)" d="M 208.322598 273.629096 
L 210.090365 271.861329 
L 211.858132 273.629096 
L 213.625899 271.861329 
L 211.858132 270.093562 
L 213.625899 268.325795 
L 211.858132 266.558028 
L 210.090365 268.325795 
L 208.322598 266.558028 
L 206.554831 268.325795 
L 208.322598 270.093562 
L 206.554831 271.861329 
z
" style="fill:#1f77b4;stroke:#ffffff;stroke-width:0.565685;"/>
    <path clip-path="url(#p3005b3fb27)" d="M 206.274489 277.344607 
L 208.042256 275.57684 
L 209.810023 277.344607 
L 211.57779 275.57684 
L 209.810023 273.809073 
L 211.57779 272.041306 
L 209.810023 270.273539 
L 208.042256 272.041306 
L 206.274489 270.273539 
L 204.506722 272.041306 
L 206.274489 273.809073 
L 204.506722 275.57684 
z
" style="fill:#1f77b4;stroke:#ffffff;stroke-width:0.565685;"/>
   </g>
   <g id="PathCollection_2"/>
   <g id="PathCollection_3"/>
   <g id="PathCollection_4"/>
   <g id="matplotlib.axis_1">
    <g id="xtick_1">
     <g id="line2d_1">
      <defs>
       <path d="M 0 0 
L 0 3.5 
" id="m783fc5f002" style="stroke:#000000;stroke-width:0.8;"/>
      </defs>
      <g>
       <use style="stroke:#000000;stroke-width:0.8;" x="145.600682" xlink:href="#m783fc5f002" y="504.13125"/>
      </g>
     </g>
     <g id="text_1">
      <text style="font-family:DejaVu Sans;font-size:20px;font-stretch:normal;font-style:normal;font-weight:normal;text-anchor:middle;" transform="rotate(-0, 145.600682, 526.328125)" x="145.600682" y="526.328125">−2.5</text>
     </g>
    </g>
    <g id="xtick_2">
     <g id="line2d_2">
      <g>
       <use style="stroke:#000000;stroke-width:0.8;" x="215.13771" xlink:href="#m783fc5f002" y="504.13125"/>
      </g>
     </g>
     <g id="text_2">
      <text style="font-family:DejaVu Sans;font-size:20px;font-stretch:normal;font-style:normal;font-weight:normal;text-anchor:middle;" transform="rotate(-0, 215.13771, 526.328125)" x="215.13771" y="526.328125">0.0</text>
     </g>
    </g>
    <g id="xtick_3">
     <g id="line2d_3">
      <g>
       <use style="stroke:#000000;stroke-width:0.8;" x="284.674738" xlink:href="#m783fc5f002" y="504.13125"/>
      </g>
     </g>
     <g id="text_3">
      <text style="font-family:DejaVu Sans;font-size:20px;font-stretch:normal;font-style:normal;font-weight:normal;text-anchor:middle;" transform="rotate(-0, 284.674738, 526.328125)" x="284.674738" y="526.328125">2.5</text>
     </g>
    </g>
    <g id="xtick_4">
     <g id="line2d_4">
      <g>
       <use style="stroke:#000000;stroke-width:0.8;" x="354.211767" xlink:href="#m783fc5f002" y="504.13125"/>
      </g>
     </g>
     <g id="text_4">
      <text style="font-family:DejaVu Sans;font-size:20px;font-stretch:normal;font-style:normal;font-weight:normal;text-anchor:middle;" transform="rotate(-0, 354.211767, 526.328125)" x="354.211767" y="526.328125">5.0</text>
     </g>
    </g>
    <g id="xtick_5">
     <g id="line2d_5">
      <g>
       <use style="stroke:#000000;stroke-width:0.8;" x="423.748795" xlink:href="#m783fc5f002" y="504.13125"/>
      </g>
     </g>
     <g id="text_5">
      <text style="font-family:DejaVu Sans;font-size:20px;font-stretch:normal;font-style:normal;font-weight:normal;text-anchor:middle;" transform="rotate(-0, 423.748795, 526.328125)" x="423.748795" y="526.328125">7.5</text>
     </g>
    </g>
    <g id="xtick_6">
     <g id="line2d_6">
      <g>
       <use style="stroke:#000000;stroke-width:0.8;" x="493.285823" xlink:href="#m783fc5f002" y="504.13125"/>
      </g>
     </g>
     <g id="text_6">
      <text style="font-family:DejaVu Sans;font-size:20px;font-stretch:normal;font-style:normal;font-weight:normal;text-anchor:middle;" transform="rotate(-0, 493.285823, 526.328125)" x="493.285823" y="526.328125">10.0</text>
     </g>
    </g>
    <g id="text_7">
     <text style="font-family:DejaVu Sans;font-size:20px;font-stretch:normal;font-style:normal;font-weight:normal;text-anchor:middle;" transform="rotate(-0, 299.846705, 549.684375)" x="299.846705" y="549.684375">Microglia_effect_score_normed</text>
    </g>
   </g>
   <g id="matplotlib.axis_2">
    <g id="ytick_1">
     <g id="line2d_7">
      <defs>
       <path d="M 0 0 
L -3.5 0 
" id="mf6f0513857" style="stroke:#000000;stroke-width:0.8;"/>
      </defs>
      <g>
       <use style="stroke:#000000;stroke-width:0.8;" x="81.996875" xlink:href="#mf6f0513857" y="480.055918"/>
      </g>
     </g>
     <g id="text_8">
      <text style="font-family:DejaVu Sans;font-size:20px;font-stretch:normal;font-style:normal;font-weight:normal;text-anchor:end;" transform="rotate(-0, 74.996875, 487.654355)" x="74.996875" y="487.654355">−6</text>
     </g>
    </g>
    <g id="ytick_2">
     <g id="line2d_8">
      <g>
       <use style="stroke:#000000;stroke-width:0.8;" x="81.996875" xlink:href="#mf6f0513857" y="409.09711"/>
      </g>
     </g>
     <g id="text_9">
      <text style="font-family:DejaVu Sans;font-size:20px;font-stretch:normal;font-style:normal;font-weight:normal;text-anchor:end;" transform="rotate(-0, 74.996875, 416.695548)" x="74.996875" y="416.695548">−4</text>
     </g>
    </g>
    <g id="ytick_3">
     <g id="line2d_9">
      <g>
       <use style="stroke:#000000;stroke-width:0.8;" x="81.996875" xlink:href="#mf6f0513857" y="338.138302"/>
      </g>
     </g>
     <g id="text_10">
      <text style="font-family:DejaVu Sans;font-size:20px;font-stretch:normal;font-style:normal;font-weight:normal;text-anchor:end;" transform="rotate(-0, 74.996875, 345.73674)" x="74.996875" y="345.73674">−2</text>
     </g>
    </g>
    <g id="ytick_4">
     <g id="line2d_10">
      <g>
       <use style="stroke:#000000;stroke-width:0.8;" x="81.996875" xlink:href="#mf6f0513857" y="267.179494"/>
      </g>
     </g>
     <g id="text_11">
      <text style="font-family:DejaVu Sans;font-size:20px;font-stretch:normal;font-style:normal;font-weight:normal;text-anchor:end;" transform="rotate(-0, 74.996875, 274.777932)" x="74.996875" y="274.777932">0</text>
     </g>
    </g>
    <g id="ytick_5">
     <g id="line2d_11">
      <g>
       <use style="stroke:#000000;stroke-width:0.8;" x="81.996875" xlink:href="#mf6f0513857" y="196.220687"/>
      </g>
     </g>
     <g id="text_12">
      <text style="font-family:DejaVu Sans;font-size:20px;font-stretch:normal;font-style:normal;font-weight:normal;text-anchor:end;" transform="rotate(-0, 74.996875, 203.819124)" x="74.996875" y="203.819124">2</text>
     </g>
    </g>
    <g id="ytick_6">
     <g id="line2d_12">
      <g>
       <use style="stroke:#000000;stroke-width:0.8;" x="81.996875" xlink:href="#mf6f0513857" y="125.261879"/>
      </g>
     </g>
     <g id="text_13">
      <text style="font-family:DejaVu Sans;font-size:20px;font-stretch:normal;font-style:normal;font-weight:normal;text-anchor:end;" transform="rotate(-0, 74.996875, 132.860316)" x="74.996875" y="132.860316">4</text>
     </g>
    </g>
    <g id="ytick_7">
     <g id="line2d_13">
      <g>
       <use style="stroke:#000000;stroke-width:0.8;" x="81.996875" xlink:href="#mf6f0513857" y="54.303071"/>
      </g>
     </g>
     <g id="text_14">
      <text style="font-family:DejaVu Sans;font-size:20px;font-stretch:normal;font-style:normal;font-weight:normal;text-anchor:end;" transform="rotate(-0, 74.996875, 61.901509)" x="74.996875" y="61.901509">6</text>
     </g>
    </g>
    <g id="text_15">
     <text style="font-family:DejaVu Sans;font-size:20px;font-stretch:normal;font-style:normal;font-weight:normal;text-anchor:middle;" transform="rotate(-90, 36.796875, 262.865625)" x="36.796875" y="262.865625">Monocyte_effect_score_normed</text>
    </g>
   </g>
   <g id="line2d_14">
    <path clip-path="url(#p3005b3fb27)" d="M 270.767333 504.13125 
L 270.767333 21.6 
" style="fill:none;stroke:#ff0000;stroke-dasharray:5.55,2.4;stroke-dashoffset:0;stroke-width:1.5;"/>
   </g>
   <g id="line2d_15">
    <path clip-path="url(#p3005b3fb27)" d="M 159.508088 504.13125 
L 159.508088 21.6 
" style="fill:none;stroke:#ff0000;stroke-dasharray:5.55,2.4;stroke-dashoffset:0;stroke-width:1.5;"/>
   </g>
   <g id="line2d_16">
    <path clip-path="url(#p3005b3fb27)" d="M 81.996875 196.220687 
L 517.696534 196.220687 
" style="fill:none;stroke:#ff0000;stroke-dasharray:5.55,2.4;stroke-dashoffset:0;stroke-width:1.5;"/>
   </g>
   <g id="line2d_17">
    <path clip-path="url(#p3005b3fb27)" d="M 81.996875 338.138302 
L 517.696534 338.138302 
" style="fill:none;stroke:#ff0000;stroke-dasharray:5.55,2.4;stroke-dashoffset:0;stroke-width:1.5;"/>
   </g>
   <g id="patch_3">
    <path d="M 81.996875 504.13125 
L 81.996875 21.6 
" style="fill:none;stroke:#000000;stroke-linecap:square;stroke-linejoin:miter;stroke-width:0.8;"/>
   </g>
   <g id="patch_4">
    <path d="M 517.696534 504.13125 
L 517.696534 21.6 
" style="fill:none;stroke:#000000;stroke-linecap:square;stroke-linejoin:miter;stroke-width:0.8;"/>
   </g>
   <g id="patch_5">
    <path d="M 81.996875 504.13125 
L 517.696534 504.13125 
" style="fill:none;stroke:#000000;stroke-linecap:square;stroke-linejoin:miter;stroke-width:0.8;"/>
   </g>
   <g id="patch_6">
    <path d="M 81.996875 21.6 
L 517.696534 21.6 
" style="fill:none;stroke:#000000;stroke-linecap:square;stroke-linejoin:miter;stroke-width:0.8;"/>
   </g>
   <g id="text_16">
    <text style="font-family:DejaVu Sans;font-size:12px;font-stretch:normal;font-style:normal;font-weight:normal;text-anchor:start;" transform="rotate(-0, 497.892004, 43.533239)" x="497.892004" y="43.533239">rs636317</text>
   </g>
   <g id="text_17">
    <text style="font-family:DejaVu Sans;font-size:12px;font-stretch:normal;font-style:normal;font-weight:normal;text-anchor:start;" transform="rotate(-0, 177.290454, 302.554707)" x="177.290454" y="302.554707">rs636341</text>
   </g>
   <g id="text_18">
    <text style="font-family:DejaVu Sans;font-size:12px;font-stretch:normal;font-style:normal;font-weight:normal;text-anchor:start;" transform="rotate(-0, 241.764324, 262.875755)" x="241.764324" y="262.875755">rs4575098</text>
   </g>
   <g id="text_19">
    <text style="font-family:DejaVu Sans;font-size:12px;font-stretch:normal;font-style:normal;font-weight:normal;text-anchor:start;" transform="rotate(-0, 222.72551, 244.36341)" x="222.72551" y="244.36341">rs514049</text>
   </g>
   <g id="text_20">
    <text style="font-family:DejaVu Sans;font-size:12px;font-stretch:normal;font-style:normal;font-weight:normal;text-anchor:start;" transform="rotate(-0, 222.637926, 257.211414)" x="222.637926" y="257.211414">rs395601</text>
   </g>
   <g id="text_21">
    <text style="font-family:DejaVu Sans;font-size:12px;font-stretch:normal;font-style:normal;font-weight:normal;text-anchor:start;" transform="rotate(-0, 242.554999, 141.879823)" x="242.554999" y="141.879823">rs1010322</text>
   </g>
   <g id="text_22">
    <text style="font-family:DejaVu Sans;font-size:12px;font-stretch:normal;font-style:normal;font-weight:normal;text-anchor:start;" transform="rotate(-0, 248.452625, 129.015521)" x="248.452625" y="129.015521">rs2526377</text>
   </g>
   <g id="text_23">
    <text style="font-family:DejaVu Sans;font-size:12px;font-stretch:normal;font-style:normal;font-weight:normal;text-anchor:start;" transform="rotate(-0, 235.935612, 184.508121)" x="235.935612" y="184.508121">rs76726049</text>
   </g>
   <g id="text_24">
    <text style="font-family:DejaVu Sans;font-size:12px;font-stretch:normal;font-style:normal;font-weight:normal;text-anchor:start;" transform="rotate(-0, 319.148433, 213.156167)" x="319.148433" y="213.156167">rs6064392</text>
   </g>
   <g id="text_25">
    <text style="font-family:DejaVu Sans;font-size:12px;font-stretch:normal;font-style:normal;font-weight:normal;text-anchor:start;" transform="rotate(-0, 240.068635, 232.881664)" x="240.068635" y="232.881664">rs9270920</text>
   </g>
   <g id="text_26">
    <text style="font-family:DejaVu Sans;font-size:12px;font-stretch:normal;font-style:normal;font-weight:normal;text-anchor:start;" transform="rotate(-0, 259.723422, 150.543817)" x="259.723422" y="150.543817">rs9270921</text>
   </g>
   <g id="text_27">
    <text style="font-family:DejaVu Sans;font-size:12px;font-stretch:normal;font-style:normal;font-weight:normal;text-anchor:start;" transform="rotate(-0, 273.727147, 253.631185)" x="273.727147" y="253.631185">rs9271162</text>
   </g>
   <g id="text_28">
    <text style="font-family:DejaVu Sans;font-size:12px;font-stretch:normal;font-style:normal;font-weight:normal;text-anchor:start;" transform="rotate(-0, 234.727345, 258.412767)" x="234.727345" y="258.412767">rs9271171</text>
   </g>
   <g id="text_29">
    <text style="font-family:DejaVu Sans;font-size:12px;font-stretch:normal;font-style:normal;font-weight:normal;text-anchor:start;" transform="rotate(-0, 101.801405, 482.198011)" x="101.801405" y="482.198011">rs9271182</text>
   </g>
   <g id="text_30">
    <text style="font-family:DejaVu Sans;font-size:12px;font-stretch:normal;font-style:normal;font-weight:normal;text-anchor:start;" transform="rotate(-0, 157.94014, 392.314868)" x="157.94014" y="392.314868">rs28834970</text>
   </g>
   <g id="text_31">
    <text style="font-family:DejaVu Sans;font-size:12px;font-stretch:normal;font-style:normal;font-weight:normal;text-anchor:start;" transform="rotate(-0, 214.44301, 271.672502)" x="214.44301" y="271.672502">rs73223431</text>
   </g>
   <g id="legend_1">
    <g id="patch_7">
     <path d="M 321.487159 494.13125 
L 503.696534 494.13125 
Q 507.696534 494.13125 507.696534 490.13125 
L 507.696534 374.15 
Q 507.696534 370.15 503.696534 370.15 
L 321.487159 370.15 
Q 317.487159 370.15 317.487159 374.15 
L 317.487159 490.13125 
Q 317.487159 494.13125 321.487159 494.13125 
z
" style="fill:#ffffff;opacity:0.8;stroke:#cccccc;stroke-linejoin:miter;"/>
    </g>
    <g id="text_32">
     <text style="font-family:DejaVu Sans;font-size:20px;font-stretch:normal;font-style:normal;font-weight:normal;text-anchor:start;" transform="rotate(-0, 325.487159, 393.346875)" x="325.487159" y="393.346875">cell_type_overlap</text>
    </g>
    <g id="PathCollection_5">
     <defs>
      <path d="M 0 3 
C 0.795609 3 1.55874 2.683901 2.12132 2.12132 
C 2.683901 1.55874 3 0.795609 3 0 
C 3 -0.795609 2.683901 -1.55874 2.12132 -2.12132 
C 1.55874 -2.683901 0.795609 -3 0 -3 
C -0.795609 -3 -1.55874 -2.683901 -2.12132 -2.12132 
C -2.683901 -1.55874 -3 -0.795609 -3 0 
C -3 0.795609 -2.683901 1.55874 -2.12132 2.12132 
C -1.55874 2.683901 -0.795609 3 0 3 
z
" id="me1e33ab776" style="stroke:#333333;"/>
     </defs>
     <g>
      <use style="fill:#333333;stroke:#333333;" x="355.898097" xlink:href="#me1e33ab776" y="418.009375"/>
     </g>
    </g>
    <g id="text_33">
     <text style="font-family:DejaVu Sans;font-size:20px;font-stretch:normal;font-style:normal;font-weight:normal;text-anchor:start;" transform="rotate(-0, 391.898097, 423.259375)" x="391.898097" y="423.259375">Both</text>
    </g>
    <g id="PathCollection_6">
     <defs>
      <path d="M -1.5 3 
L 0 1.5 
L 1.5 3 
L 3 1.5 
L 1.5 0 
L 3 -1.5 
L 1.5 -3 
L 0 -1.5 
L -1.5 -3 
L -3 -1.5 
L -1.5 0 
L -3 1.5 
z
" id="meb6ba7ec1f" style="stroke:#333333;"/>
     </defs>
     <g>
      <use style="fill:#333333;stroke:#333333;" x="355.898097" xlink:href="#meb6ba7ec1f" y="447.365625"/>
     </g>
    </g>
    <g id="text_34">
     <text style="font-family:DejaVu Sans;font-size:20px;font-stretch:normal;font-style:normal;font-weight:normal;text-anchor:start;" transform="rotate(-0, 391.898097, 452.615625)" x="391.898097" y="452.615625">Microglia</text>
    </g>
    <g id="PathCollection_7">
     <defs>
      <path d="M -2.12132 -2.12132 
L -2.12132 2.12132 
L 2.12132 2.12132 
L 2.12132 -2.12132 
z
" id="m606118372f" style="stroke:#333333;"/>
     </defs>
     <g>
      <use style="fill:#333333;stroke:#333333;" x="355.898097" xlink:href="#m606118372f" y="476.721875"/>
     </g>
    </g>
    <g id="text_35">
     <text style="font-family:DejaVu Sans;font-size:20px;font-stretch:normal;font-style:normal;font-weight:normal;text-anchor:start;" transform="rotate(-0, 391.898097, 481.971875)" x="391.898097" y="481.971875">Monocyte</text>
    </g>
   </g>
  </g>
 </g>
 <defs>
  <clipPath id="p3005b3fb27">
   <rect height="482.53125" width="435.699659" x="81.996875" y="21.6"/>
  </clipPath>
 </defs>
</svg>
